<?xml version="1.0" standalone="no"?>
<!DOCTYPE svg PUBLIC "-//W3C//DTD SVG 1.1//EN" "http://www.w3.org/Graphics/SVG/1.1/DTD/svg11.dtd" >
<svg xmlns="http://www.w3.org/2000/svg">
<metadata>
Created by FontPrep 20130207 at Mon Apr  4 11:48:02 2016
 By Callum Flack
Copyright 2015 Dalton Maag Ltd. All rights reserved. This font may not be altered in any way without prior permission of Dalton Maag Ltd.
</metadata>
<defs>
<font id="12e0f679ddacaf67405b3dceb1f2a7c8" horiz-adv-x='1024' >
  <font-face 
    font-family="AktivGroteskTrial-Black"
    font-weight="900"
    font-stretch="normal"
    units-per-em="2048"
    panose-1="2 11 9 4 2 2 2 2 2 4"
    ascent="1462"
    descent="-586"
    x-height="1081"
    cap-height="1462"
    bbox="-492 -498 2894 2066"
    underline-thickness="139"
    underline-position="-133"
    unicode-range="U+0008-FEFF"
  />
<missing-glyph horiz-adv-x="1024" 
d="M819 1434h-614v-1332h614v1332zM102 0v1536h820v-1536h-820z" />
    <glyph glyph-name="f_i" unicode="fi" horiz-adv-x="1574" 
d="M207 0v680h-176v342h176v16q0 213 115 327t329 114q129 0 289 -43l-53 -301q-73 14 -129 14t-84 -26t-29 -85v-16h223v-342h-223v-680h-438zM1034 1186v276h439v-276h-439zM1034 0v1081h439v-1081h-439z" />
    <glyph glyph-name="f_l" unicode="fl" horiz-adv-x="1570" 
d="M207 0v680h-176v342h176v16q0 213 115 327t329 114q129 0 289 -43l-53 -301q-73 14 -129 14t-84 -26t-29 -85v-16h223v-342h-223v-680h-438zM1030 0v1462h438v-1462h-438z" />
    <glyph glyph-name="f_f" unicode="ff" horiz-adv-x="1845" 
d="M207 0v680h-176v342h176v16q0 213 115 327t329 114q129 0 289 -43l-53 -301q-73 14 -129 14t-84 -26t-29 -85v-16h223v-342h-223v-680h-438zM1155 0v680h-176v342h176v16q0 213 115 327t329 114q129 0 289 -43l-53 -301q-73 14 -129 14t-84 -26t-29 -85v-16h224v-342
h-224v-680h-438z" />
    <glyph glyph-name="f_f_i" unicode="ffi" horiz-adv-x="2523" 
d="M207 0v680h-176v342h176v16q0 213 115 327t329 114q129 0 289 -43l-53 -301q-73 14 -129 14t-84 -26t-29 -85v-16h223v-342h-223v-680h-438zM1982 1186v276h439v-276h-439zM1982 0v1081h439v-1081h-439zM1155 0v680h-176v342h176v16q0 213 115 327t329 114q129 0 289 -43
l-53 -301q-73 14 -129 14t-84 -26t-29 -85v-16h224v-342h-224v-680h-438z" />
    <glyph glyph-name="f_f_l" unicode="ffl" horiz-adv-x="2519" 
d="M207 0v680h-176v342h176v16q0 213 115 327t329 114q129 0 289 -43l-53 -301q-73 14 -129 14t-84 -26t-29 -85v-16h223v-342h-223v-680h-438zM1155 0v680h-176v342h176v16q0 213 115 327t329 114q129 0 289 -43l-53 -301q-73 14 -129 14t-84 -26t-29 -85v-16h224v-342
h-224v-680h-438zM1978 0v1462h439v-1462h-439z" />
    <glyph glyph-name=".notdef" horiz-adv-x="1024" 
d="M819 1434h-614v-1332h614v1332zM102 0v1536h820v-1536h-820z" />
    <glyph glyph-name=".null" horiz-adv-x="0" 
 />
    <glyph glyph-name=".null" horiz-adv-x="0" 
 />
    <glyph glyph-name=".null" horiz-adv-x="0" 
 />
    <glyph glyph-name="nonmarkingreturn" unicode="&#x9;" horiz-adv-x="430" 
 />
    <glyph glyph-name="nonmarkingreturn" unicode="&#xd;" horiz-adv-x="430" 
 />
    <glyph glyph-name="space" unicode=" " horiz-adv-x="430" 
 />
    <glyph glyph-name="exclam" unicode="!" horiz-adv-x="686" 
d="M145 0v379h398v-379h-398zM154 473l-52 989h482l-49 -989h-381z" />
    <glyph glyph-name="quotedbl" unicode="&#x22;" horiz-adv-x="1015" 
d="M78 854l-17 608h392l-17 -608h-358zM580 854l-17 608h391l-16 -608h-358z" />
    <glyph glyph-name="numbersign" unicode="#" horiz-adv-x="1212" 
d="M692 803h-137l-35 -217h137zM47 279v307h141l35 217h-125v307h174l47 279h332l-47 -279h137l45 279h332l-45 -279h92v-307h-141l-35 -217h125v-307h-174l-47 -279h-332l47 279h-137l-45 -279h-332l45 279h-92z" />
    <glyph glyph-name="dollar" unicode="$" horiz-adv-x="1212" 
d="M530 1133q-109 -12 -108 -103q0 -43 23.5 -66.5t84.5 -39.5v209zM768 399q0 51 -28.5 81t-96.5 46v-250q125 10 125 123zM530 -262v227q-496 37 -522 522h404q14 -154 118 -196v258l-71 16q-219 45 -322.5 150t-102.5 295t130 307t366 129v211h113v-211q225 -14 352 -128
t148 -323l-398 -37q-14 135 -102 164v-225l96 -20q223 -49 327.5 -158t104.5 -289q0 -217 -137 -338t-391 -129v-225h-113z" />
    <glyph glyph-name="percent" unicode="%" horiz-adv-x="2097" 
d="M537 0l622 1415h400l-623 -1415h-399zM1642 258q35 0 50 35q14 35 14 123t-14 124t-50 36t-49 -36q-14 -34 -14 -123t14 -124t49 -35zM1642 -20q-188 0 -290 114t-102 325t102 325t290 114t290 -115t104 -325q0 -210 -103 -324t-291 -114zM455 852q35 0 49 35t14 123
t-14 124t-49 36t-49 -36q-14 -34 -14 -123t14 -124t49 -35zM455 573q-188 0 -291 115q-102 115 -102 325q0 211 102 325t290 114t291 -115t103 -325t-102 -324q-102 -115 -291 -115z" />
    <glyph glyph-name="ampersand" unicode="&#x26;" horiz-adv-x="1492" 
d="M758 1103q0 83 -86 83t-86 -92q0 -48 80 -140q92 66 92 149zM461 461q0 -178 227 -178q63 0 96 8l-266 299q-57 -51 -57 -129zM207 1108q0 172 130 275.5t340 103.5t331.5 -95.5t121.5 -256.5q0 -238 -280 -390l186 -208q31 96 31 227h354q0 -315 -133 -510l225 -254
h-436l-39 43q-166 -76 -389 -76q-289 0 -448.5 116t-159.5 327q0 135 67.5 233t210.5 174q-112 156 -112 291z" />
    <glyph glyph-name="quotesingle" unicode="'" horiz-adv-x="514" 
d="M78 854l-17 608h392l-17 -608h-358z" />
    <glyph glyph-name="parenleft" unicode="(" horiz-adv-x="776" 
d="M543 624.5q0 -453.5 233 -878.5h-436q-258 389 -258 878.5t258 878.5h436q-233 -425 -233 -878.5z" />
    <glyph glyph-name="parenright" unicode=")" horiz-adv-x="776" 
d="M233 624.5q0 453.5 -233 878.5h436q258 -389 258 -878.5t-258 -878.5h-436q233 425 233 878.5z" />
    <glyph glyph-name="asterisk" unicode="*" horiz-adv-x="903" 
d="M580 610l-119 236l-123 -242l-264 199l192 176l-266 53l117 305l211 -129l-43 254h329l-45 -248l219 132l115 -304l-260 -49l201 -184z" />
    <glyph glyph-name="plus" unicode="+" horiz-adv-x="1212" 
d="M408 166v342h-318v379h318v342h395v-342h317v-379h-317v-342h-395z" />
    <glyph glyph-name="comma" unicode="," horiz-adv-x="589" 
d="M51 -184l74 624h414l-152 -624h-336z" />
    <glyph glyph-name="hyphen" unicode="-" horiz-adv-x="874" 
d="M72 422v389h731v-389h-731z" />
    <glyph glyph-name="period" unicode="." horiz-adv-x="589" 
d="M90 0v440h408v-440h-408z" />
    <glyph glyph-name="slash" unicode="/" horiz-adv-x="950" 
d="M20 0l476 1503h434l-477 -1503h-433z" />
    <glyph glyph-name="zero" unicode="0" horiz-adv-x="1212" 
d="M607 342q40 0 67.5 48t27.5 261q0 214 -9 290.5t-29.5 105t-60.5 28.5t-66.5 -44t-26.5 -263t8 -294t28.5 -103.5t60.5 -28.5zM602 -37q-281 0 -411 179.5t-130 561.5t134.5 566t414.5 184t410.5 -179t130.5 -562t-134 -566.5t-415 -183.5z" />
    <glyph glyph-name="one" unicode="1" horiz-adv-x="1212" 
d="M502 0v924l-195 -142l-207 312l475 321h369v-1415h-442z" />
    <glyph glyph-name="two" unicode="2" horiz-adv-x="1212" 
d="M86 0v330q117 90 288 234t228 203.5t77.5 105t20.5 98.5q0 115 -98 114q-57 0 -87 -35.5t-40 -117.5l-420 39q25 229 172.5 355t393.5 127t382 -117.5t136 -327.5q0 -131 -54.5 -234.5t-181.5 -225.5t-217 -190h477l-37 -358h-1040z" />
    <glyph glyph-name="three" unicode="3" horiz-adv-x="1212" 
d="M600 883q111 -1 111 103t-105 104q-51 0 -80.5 -34t-42.5 -108l-405 37q16 221 164 345t386 124t373.5 -107.5t135.5 -289.5q0 -111 -48.5 -191t-138.5 -114q106 -43 163.5 -132.5t57.5 -213.5q0 -207 -146 -325t-408 -118t-410 134t-148 378v27h412q2 -86 38 -132
t97 -46t93 32.5t32 87.5q0 119 -133 119h-96v320h98z" />
    <glyph glyph-name="four" unicode="4" horiz-adv-x="1212" 
d="M635 573v336l-229 -336h229zM635 0v250h-592v340l561 825h432v-842h146l-33 -323h-113v-250h-401z" />
    <glyph glyph-name="five" unicode="5" horiz-adv-x="1212" 
d="M601 606q-67 0 -109 -55h-381l77 864h879v-358h-539l-14 -164q86 47 213 47q199 0 312.5 -128t113.5 -360t-138 -360.5t-388 -128.5t-391.5 121t-157.5 346h424q14 -113 110 -113q111 0 111 148q0 74 -27.5 107.5t-94.5 33.5z" />
    <glyph glyph-name="six" unicode="6" horiz-adv-x="1212" 
d="M752 459q0 141 -123 141q-63 0 -97 -37t-34 -107t33 -111.5t93 -41.5t94 41t34 115zM1165 465q0 -147 -64.5 -261t-186 -177.5t-287.5 -63.5q-559 0 -559 699q0 377 155.5 584.5t435.5 207.5q207 0 335 -110.5t157 -313.5l-408 -37q-16 107 -106 107q-72 0 -107.5 -63.5
t-42.5 -200.5q104 74 246 73q199 0 315.5 -119.5t116.5 -324.5z" />
    <glyph glyph-name="seven" unicode="7" horiz-adv-x="1212" 
d="M78 1036v379h1048v-319q-269 -504 -432 -1096h-454q66 248 176 525.5t235 510.5h-573z" />
    <glyph glyph-name="eight" unicode="8" horiz-adv-x="1212" 
d="M731 998q0 118 -128 118t-128 -118t128 -118t128 118zM754 434q0 129 -148 129t-147.5 -129t148 -129t147.5 129zM1128 1033q0 -206 -165 -302q205 -98 204 -340q0 -209 -145.5 -318.5t-419.5 -109.5t-415.5 106.5t-141.5 315.5q0 250 205 346q-166 92 -166 298
t139 315.5t386 109.5t383 -107.5t136 -313.5z" />
    <glyph glyph-name="nine" unicode="9" horiz-adv-x="1212" 
d="M461 958q0 -141 123 -141q131 0 131 141q0 74 -33 115t-93 41t-94 -41t-34 -115zM47 966q0 218 144.5 353t390.5 135q563 0 563 -721q0 -373 -147.5 -571.5t-424.5 -198.5q-223 0 -358 118t-154 329h410q18 -92 115 -93q74 0 105.5 59.5t31.5 198.5q-96 -72 -244 -71
q-197 0 -314.5 122t-117.5 340z" />
    <glyph glyph-name="colon" unicode=":" horiz-adv-x="589" 
d="M90 0v440h408v-440h-408zM90 641v440h408v-440h-408z" />
    <glyph glyph-name="semicolon" unicode=";" horiz-adv-x="589" 
d="M14 -184l74 624h414l-152 -624h-336zM90 641v440h408v-440h-408z" />
    <glyph glyph-name="less" unicode="&#x3c;" horiz-adv-x="1212" 
d="M125 512v367l962 374v-385l-481 -168l481 -168v-395z" />
    <glyph glyph-name="equal" unicode="=" horiz-adv-x="1212" 
d="M150 760v358h913v-358h-913zM150 281v358h913v-358h-913z" />
    <glyph glyph-name="greater" unicode="&#x3e;" horiz-adv-x="1212" 
d="M125 137v385l481 168l-481 168v395l962 -374v-367z" />
    <glyph glyph-name="question" unicode="?" horiz-adv-x="1142" 
d="M375 0v379h397v-379h-397zM383 473v39q0 117 35 191.5t118 150.5t104.5 108.5t21.5 71.5q0 94 -99 94q-111 0 -127 -141l-405 35q23 225 168 345t390 120t379 -101.5t134 -283.5q0 -196 -188 -359q-92 -80 -120 -129t-28 -120v-21h-383z" />
    <glyph glyph-name="at" unicode="@" horiz-adv-x="2109" 
d="M1149 598q0 92 -59 92q-51 0 -87 -77t-36 -187t65 -111q43 0 65.5 36t37.5 124l6 39q8 55 8 84zM988 -473q-220 0 -383 59.5t-282.5 175t-185 283.5t-65.5 375q0 295 135 535.5t384 384t568 143.5q256 0 454.5 -99.5t311.5 -287t113 -439.5q0 -188 -64.5 -336.5
t-185 -233.5t-258.5 -85q-262 0 -350 166q-106 -166 -281 -166q-150 0 -234.5 109t-84.5 279t55 298.5t156.5 209.5t230.5 81t197 -98l14 80h352l-96 -572q-4 -20 -4 -41q4 -84 69 -84q47 0 87 49t66 137.5t26 196.5q0 276 -151.5 425t-432.5 149q-221 0 -395 -98.5
t-275.5 -281t-101.5 -421.5q0 -299 157.5 -465t444.5 -166q104 0 186 24.5t166 82.5h393q-115 -174 -315.5 -271.5t-420.5 -97.5z" />
    <glyph glyph-name="A" unicode="A" horiz-adv-x="1601" 
d="M795 1083l-133 -485h266zM1092 0l-66 236h-463l-63 -236h-459l475 1462h574l471 -1462h-469z" />
    <glyph glyph-name="B" unicode="B" horiz-adv-x="1419" 
d="M729 907q78 0 113 25.5t35 85t-35 85t-113 25.5h-182v-221h182zM739 334q94 0 136.5 31.5t42.5 103.5t-42 102.5t-137 30.5h-192v-268h192zM807 1462q510 0 510 -375q0 -211 -182 -311q223 -100 223 -346q0 -207 -147.5 -318.5t-422.5 -111.5h-665v1462h684z" />
    <glyph glyph-name="C" unicode="C" horiz-adv-x="1511" 
d="M778 -37q-324 0 -510 194.5t-186 563.5t191.5 573.5t539.5 204.5q279 0 435.5 -131t199.5 -397l-463 -51q-20 94 -65.5 137t-124.5 43q-113 0 -167.5 -89t-54.5 -279t57.5 -280t178.5 -90q174 0 199 197h462q-14 -283 -191 -439.5t-501 -156.5z" />
    <glyph glyph-name="D" unicode="D" horiz-adv-x="1566" 
d="M739 389q275 0 275 346q0 170 -66.5 253t-208.5 85h-161v-684h161zM123 0v1462h600q377 0 569.5 -183t191.5 -541t-195.5 -548t-565.5 -190h-600z" />
    <glyph glyph-name="E" unicode="E" horiz-adv-x="1302" 
d="M123 0v1462h1087v-358h-630v-186h589v-359h-589v-201h671l-34 -358h-1094z" />
    <glyph glyph-name="F" unicode="F" horiz-adv-x="1230" 
d="M578 489v-489h-455v1462h1036v-366h-581v-240h548v-367h-548z" />
    <glyph glyph-name="G" unicode="G" horiz-adv-x="1576" 
d="M1047 502h-197v354h625v-696q-125 -94 -292 -145.5t-349 -51.5q-362 0 -557 196.5t-195 563.5t193.5 571.5t539.5 204.5q272 0 442 -130t205 -365l-467 -39q-18 78 -61 111.5t-123 33.5q-133 0 -192.5 -88t-59.5 -290t69.5 -291t231.5 -89q115 0 187 33v117z" />
    <glyph glyph-name="H" unicode="H" horiz-adv-x="1564" 
d="M977 0v549h-389v-549h-465v1462h465v-504h389v504h465v-1462h-465z" />
    <glyph glyph-name="I" unicode="I" horiz-adv-x="710" 
d="M123 0v1462h465v-1462h-465z" />
    <glyph glyph-name="J" unicode="J" horiz-adv-x="1406" 
d="M829 1462h465v-895q0 -291 -160.5 -447.5t-459.5 -156.5t-457 155.5t-166 459.5h463q8 -215 161.5 -215.5t153.5 184.5v915z" />
    <glyph glyph-name="K" unicode="K" horiz-adv-x="1533" 
d="M588 0h-465v1462h465v-485l385 485h487l-454 -544l507 -918h-505l-303 578l-117 -142v-436z" />
    <glyph glyph-name="L" unicode="L" horiz-adv-x="1241" 
d="M123 0v1462h465v-1063h612l-39 -399h-1038z" />
    <glyph glyph-name="M" unicode="M" horiz-adv-x="1849" 
d="M1300 0v725l-217 -725h-327l-217 725v-725h-416v1462h532l271 -889l270 889h530v-1462h-426z" />
    <glyph glyph-name="N" unicode="N" horiz-adv-x="1546" 
d="M557 0h-434v1462h399l467 -739v739h434v-1462h-395l-471 743v-743z" />
    <glyph glyph-name="O" unicode="O" horiz-adv-x="1638" 
d="M819 362q256 0 256 369t-256 369t-256 -369t256 -369zM815 -37q-350 0 -541.5 198.5t-191.5 563.5q0 240 86 414t253 267t404 93q348 0 539.5 -198.5t191.5 -564.5t-195.5 -569.5t-545.5 -203.5z" />
    <glyph glyph-name="P" unicode="P" horiz-adv-x="1363" 
d="M694 799q96 0 138 34.5t42 116.5t-41.5 117t-138.5 35h-125v-303h125zM690 1462q602 0 602 -512t-600 -512h-123v-438h-446v1462h567z" />
    <glyph glyph-name="Q" unicode="Q" horiz-adv-x="1638" 
d="M1081 725q0 375 -262 375t-262 -374t262 -374q27 0 39 2l-158 195l226 182l141 -174q14 90 14 168zM805 -37q-342 0 -532.5 200.5t-190.5 564.5t194.5 567.5t544.5 203.5t542.5 -197.5t192.5 -553.5t-186 -562l164 -204l-242 -191l-176 223q-139 -51 -311 -51z" />
    <glyph glyph-name="R" unicode="R" horiz-adv-x="1441" 
d="M715 807q100 0 146 37t46 118.5t-46 118.5t-146 37h-156v-311h156zM559 469v-469h-436v1462h627q293 0 443 -120.5t150 -358.5q0 -283 -215 -422l304 -561h-476l-233 469h-164z" />
    <glyph glyph-name="S" unicode="S" horiz-adv-x="1415" 
d="M901 426q0 43 -29.5 67.5t-101.5 38.5l-199 39q-252 49 -369.5 158t-117.5 291q0 227 164 353t452 126t447.5 -117.5t179.5 -334.5l-453 -41q-18 78 -58 108.5t-122 30.5q-157 0 -157 -94q0 -37 30.5 -59.5t102.5 -37.5l196 -41q260 -55 375 -160.5t115 -291.5
q0 -242 -167 -370t-477 -128q-621 0 -659 522h459q23 -168 223 -168q166 0 166 109z" />
    <glyph glyph-name="T" unicode="T" horiz-adv-x="1382" 
d="M459 0v1063h-408v399h1280v-399h-407v-1063h-465z" />
    <glyph glyph-name="U" unicode="U" horiz-adv-x="1511" 
d="M934 1462h465v-850q0 -319 -164 -484t-485 -165q-637 0 -637 649v850h465v-870q0 -121 42 -175.5t136 -54.5t136 54.5t42 175.5v870z" />
    <glyph glyph-name="V" unicode="V" horiz-adv-x="1552" 
d="M481 0l-440 1462h500l239 -968l240 968h491l-444 -1462h-586z" />
    <glyph glyph-name="W" unicode="W" horiz-adv-x="2107" 
d="M1214 0l-161 819l-160 -819h-485l-367 1462h487l150 -905l176 895h410l174 -895l151 905h477l-366 -1462h-486z" />
    <glyph glyph-name="X" unicode="X" horiz-adv-x="1552" 
d="M1016 0l-260 463l-240 -463h-496l457 766l-422 696h516l207 -391l201 391h496l-422 -714l479 -748h-516z" />
    <glyph glyph-name="Y" unicode="Y" horiz-adv-x="1466" 
d="M500 0v543l-480 919h494l223 -532l226 532h483l-479 -919v-543h-467z" />
    <glyph glyph-name="Z" unicode="Z" horiz-adv-x="1343" 
d="M82 0v332l598 755h-584v375h1139v-334l-596 -753h643l-37 -375h-1163z" />
    <glyph glyph-name="bracketleft" unicode="[" horiz-adv-x="860" 
d="M123 -254v1757h676v-373h-238v-1011h238v-373h-676z" />
    <glyph glyph-name="backslash" unicode="\" horiz-adv-x="950" 
d="M498 0l-478 1503h435l475 -1503h-432z" />
    <glyph glyph-name="bracketright" unicode="]" horiz-adv-x="860" 
d="M61 -254v373h238v1011h-238v373h676v-1757h-676z" />
    <glyph glyph-name="asciicircum" unicode="^" horiz-adv-x="1212" 
d="M745 588l-145 401l-145 -401h-424l385 887h379l385 -887h-435z" />
    <glyph glyph-name="underscore" unicode="_" horiz-adv-x="1024" 
d="M0 -358v106h1024v-106h-1024z" />
    <glyph glyph-name="grave" unicode="`" horiz-adv-x="1282" 
d="M627 1196l-348 354h464l263 -354h-379z" />
    <glyph glyph-name="a" unicode="a" horiz-adv-x="1226" 
d="M463 332q0 -78 96 -78q74 0 119 44t45 116v24l-113 -6q-147 -8 -147 -100zM125 762q55 352 527 352q240 0 361.5 -111.5t121.5 -343.5v-659h-396v102q-70 -70 -143.5 -100.5t-169.5 -30.5q-166 0 -265.5 89.5t-99.5 238.5q0 354 537 371l125 4v37q0 112 -96 112t-111 -90
z" />
    <glyph glyph-name="b" unicode="b" horiz-adv-x="1314" 
d="M670 764q-129 0 -127 -209v-29q0 -109 30 -161q31 -49 99 -49t100.5 53t32.5 172q0 223 -135 223zM102 0v1462h439v-465q103 117 293 117t299.5 -143.5t109.5 -414.5t-118.5 -430t-314.5 -159t-286 144v-111h-422z" />
    <glyph glyph-name="c" unicode="c" horiz-adv-x="1189" 
d="M1149 434q-47 -467 -537 -467q-248 0 -394 148.5t-146 419.5t146.5 425t408.5 154q223 0 355 -108.5t157 -315.5l-406 -35q-16 109 -100 109q-123 0 -123 -221q0 -117 29.5 -171.5t95.5 -54.5q92 0 104 117h410z" />
    <glyph glyph-name="d" unicode="d" horiz-adv-x="1314" 
d="M642 768q-132 0 -132 -169t32.5 -224.5t102.5 -55.5q127 0 127 209v29q0 111 -31 161t-99 50zM501 1114q192 0 273 -117v465h438v-1462h-421v106q-109 -139 -303 -139t-305 145.5t-111 415.5t118.5 428t310.5 158z" />
    <glyph glyph-name="e" unicode="e" horiz-adv-x="1239" 
d="M637 817q-141 0 -152 -153h285q-4 82 -36 117.5t-97 35.5zM72 528q0 274 148.5 430t405.5 156t399 -147.5t142 -409.5v-111h-684q4 -94 39 -136t109 -42q104 0 129 88h401q-67 -389 -524 -389q-274 0 -419.5 143.5t-145.5 417.5z" />
    <glyph glyph-name="f" unicode="f" horiz-adv-x="897" 
d="M207 0v680h-176v342h176v16q0 213 114.5 327t329.5 114q129 0 289 -43l-53 -301q-73 14 -129 14t-84.5 -25.5t-28.5 -85.5v-16h223v-342h-223v-680h-438z" />
    <glyph glyph-name="g" unicode="g" horiz-adv-x="1314" 
d="M645 412q127 0 127 163v25q0 78 -32 123t-95 45q-135 0 -135 -178t135 -178zM1212 119q0 -539 -567 -539q-498 0 -532 402h419q8 -51 35 -74t89 -23t90 48.5t28 170.5v80q-98 -127 -292 -127t-302 134.5t-108 386.5q0 333 150.5 434.5t285.5 101.5q174 0 280 -127v94h424
v-962z" />
    <glyph glyph-name="h" unicode="h" horiz-adv-x="1282" 
d="M829 1114q175 0 268 -101.5t93 -283.5v-729h-438v649q0 106 -86 107q-72 0 -107 -49q-18 -27 -18 -78v-629h-439v1462h439v-479q113 131 288 131z" />
    <glyph glyph-name="i" unicode="i" horiz-adv-x="643" 
d="M102 1186v276h439v-276h-439zM102 0v1081h439v-1081h-439z" />
    <glyph glyph-name="j" unicode="j" horiz-adv-x="653" 
d="M113 1186v276h438v-276h-438zM551 39q0 -416 -401 -416q-145 0 -287 41l57 295q61 -10 92 -10q100 0 101 110v1022h438v-1042z" />
    <glyph glyph-name="k" unicode="k" horiz-adv-x="1323" 
d="M520 0h-418v1462h418v-671l277 290h485l-371 -360l402 -721h-459l-236 453l-98 -97v-356z" />
    <glyph glyph-name="l" unicode="l" horiz-adv-x="643" 
d="M102 0v1462h439v-1462h-439z" />
    <glyph glyph-name="m" unicode="m" horiz-adv-x="1849" 
d="M641 756q-100 0 -100 -103v-653h-439v1081h426v-112q109 145 287 145q94 0 168 -40t115 -116q123 156 319 156q162 0 251 -100.5t89 -284.5v-729h-438v670q0 86 -70 86q-100 0 -100 -103v-653h-438v670q0 86 -70 86z" />
    <glyph glyph-name="n" unicode="n" horiz-adv-x="1282" 
d="M752 0v649q0 106 -86 107q-72 0 -107 -49q-18 -27 -18 -78v-629h-439v1081h426v-112q120 145 298 145t271 -101.5t93 -283.5v-729h-438z" />
    <glyph glyph-name="o" unicode="o" horiz-adv-x="1284" 
d="M774 540.5q0 223.5 -132 223.5t-132 -223.5t132 -223.5t132 223.5zM636.5 -33q-274.5 0 -419.5 146.5t-145 422.5t150.5 427t425 151t419.5 -146.5t145 -421.5t-150.5 -427t-425 -152z" />
    <glyph glyph-name="p" unicode="p" horiz-adv-x="1314" 
d="M670 764q-129 0 -127 -209v-29q0 -109 30 -161q31 -49 99 -49t100.5 53t32.5 172q0 223 -135 223zM102 -397v1480h422v-106q106 137 303 137t306.5 -143.5t109.5 -414.5t-118.5 -430t-323.5 -159q-170 0 -260 119v-483h-439z" />
    <glyph glyph-name="q" unicode="q" horiz-adv-x="1314" 
d="M642 768q-132 0 -132 -169t32.5 -224.5t102.5 -55.5q127 0 127 209v29q0 111 -31 161t-99 50zM774 -397v483q-104 -119 -292 -119t-299 145.5t-111 415.5t119 428t315 158t285 -141v110h421v-1480h-438z" />
    <glyph glyph-name="r" unicode="r" horiz-adv-x="946" 
d="M766 737q-227 0 -225 -192v-545h-439v1081h426v-118q106 137 297 137q59 0 111 -13l-47 -362q-63 12 -123 12z" />
    <glyph glyph-name="s" unicode="s" horiz-adv-x="1144" 
d="M688 326q0 53 -88 69l-108 21q-223 41 -320.5 121.5t-97.5 237.5t131 248t373 91q453 0 512 -334l-410 -35q-16 91 -106 91t-91 -62q0 -27 21.5 -43t75.5 -26l110 -23q164 -35 252 -79t125 -108.5t37 -164.5q0 -178 -129 -270.5t-379 -92.5q-516 0 -545 381h414
q16 -84 119 -84q104 0 104 62z" />
    <glyph glyph-name="t" unicode="t" horiz-adv-x="940" 
d="M645 446q0 -112 113 -112q47 0 98 12l53 -317q-141 -47 -286 -47q-223 0 -319.5 102t-96.5 338v317h-176v342h176v281h438v-281h223v-342h-223v-293z" />
    <glyph glyph-name="u" unicode="u" horiz-adv-x="1271" 
d="M743 0v113q-119 -145 -293 -145t-266 101t-92 283v729h438v-655q0 -100 82 -100q70 0 101 47q18 29 18 73v635h438v-1081h-426z" />
    <glyph glyph-name="v" unicode="v" horiz-adv-x="1236" 
d="M385 0l-365 1081h459l146 -637l147 637h445l-365 -1081h-467z" />
    <glyph glyph-name="w" unicode="w" horiz-adv-x="1710" 
d="M999 0l-141 553l-133 -553h-408l-297 1081h426l115 -573l135 563h332l139 -545l111 555h412l-297 -1081h-394z" />
    <glyph glyph-name="x" unicode="x" horiz-adv-x="1239" 
d="M764 0l-152 252l-149 -252h-453l375 537l-338 544h477l115 -221l129 221h434l-336 -514l363 -567h-465z" />
    <glyph glyph-name="y" unicode="y" horiz-adv-x="1261" 
d="M354 -397q-126 0 -250 45l64 313q86 -18 136 -18t83 27.5t55 92.5l17 48l-439 970h459l168 -520l150 520h444l-428 -1063q-72 -176 -132 -262t-130.5 -119.5t-196.5 -33.5z" />
    <glyph glyph-name="z" unicode="z" horiz-adv-x="1107" 
d="M72 0v268l436 482h-426v331h958v-268l-436 -481h463l-33 -332h-962z" />
    <glyph glyph-name="braceleft" unicode="{" horiz-adv-x="882" 
d="M600 238q0 -119 98 -119h123v-373h-211q-430 0 -430 399v158q0 143 -129 143h-20v357h20q129 0 129 143v158q0 399 430 399h211v-373h-123q-51 0 -74.5 -28.5t-23.5 -89.5v-140q0 -190 -141 -247q141 -58 141 -248v-139z" />
    <glyph glyph-name="bar" unicode="|" horiz-adv-x="659" 
d="M123 -254v1757h414v-1757h-414z" />
    <glyph glyph-name="braceright" unicode="}" horiz-adv-x="882" 
d="M702 145q0 -399 -430 -399h-211v373h123q99 0 99 119v139q0 190 141 248q-141 58 -141 247v140q0 61 -23.5 89.5t-75.5 28.5h-123v373h211q430 0 430 -399v-158q0 -143 129 -143h21v-357h-21q-129 0 -129 -143v-158z" />
    <glyph glyph-name="asciitilde" unicode="~" horiz-adv-x="1212" 
d="M1188 954q0 -268 -94.5 -406t-278.5 -138q-68 0 -123 20.5t-126 68.5t-105 48q-78 0 -78 -127h-358q0 268 94 406.5t278 138.5q68 0 123 -20.5t126 -68.5t106 -49q78 0 77 127h359z" />
    <glyph glyph-name="uni00A0" unicode="&#xa0;" horiz-adv-x="430" 
 />
    <glyph glyph-name="exclamdown" unicode="&#xa1;" horiz-adv-x="686" 
d="M145 702v379h398v-379h-398zM102 -381l52 989h381l49 -989h-482z" />
    <glyph glyph-name="cent" unicode="&#xa2;" horiz-adv-x="1212" 
d="M471 745q0 -190 92 -231v461q-92 -40 -92 -230zM563 -23v197q-244 14 -377 160.5t-133 405.5t132 409.5t378 167.5v190h113v-190q203 -14 321.5 -124t143.5 -302l-385 -33q-14 98 -80 123v-473q76 25 86 127h389q-20 -211 -141 -328t-334 -133v-197h-113z" />
    <glyph glyph-name="sterling" unicode="&#xa3;" horiz-adv-x="1212" 
d="M94 0v285q68 82 94.5 134t30.5 113h-168v316h121q-14 80 -14 143q0 213 135 338t361 125t358.5 -118.5t140.5 -325.5l-397 -39q-8 66 -28.5 90t-65.5 24q-96 0 -97 -122q0 -49 15 -115h370v-316h-340q-14 -100 -80 -184h654l-37 -348h-1053z" />
    <glyph glyph-name="currency" unicode="&#xa4;" horiz-adv-x="1212" 
d="M614 436q84 0 130.5 61.5t46.5 172t-46.5 172t-130.5 61.5t-130 -61.5t-46 -172t46 -172t130 -61.5zM606 1178q98 0 187 -27l116 135l267 -231l-115 -131q61 -119 61 -254t-63 -256l117 -133l-267 -232l-121 137q-76 -24 -178 -24t-186 31l-123 -144l-266 232l127 145
q-56 115 -56 248t54 235l-125 146l266 231l121 -139q86 31 184 31z" />
    <glyph glyph-name="yen" unicode="&#xa5;" horiz-adv-x="1212" 
d="M821 248v-248h-430v248h-297v184h297v115h-297v184h225l-311 684h445l159 -467l160 467h434l-309 -684h221v-184h-297v-115h297v-184h-297z" />
    <glyph glyph-name="brokenbar" unicode="&#xa6;" horiz-adv-x="659" 
d="M123 813v690h414v-690h-414zM123 -254v723h414v-723h-414z" />
    <glyph glyph-name="section" unicode="&#xa7;" horiz-adv-x="1230" 
d="M700 516q32 0 61.5 27.5t29.5 72.5q0 76 -101 103l-96 24q-26 7 -60 7t-63 -28t-29 -73q0 -76 101 -102l96 -25q29 -6 61 -6zM1161 125q0 -373 -527 -373q-263 0 -409.5 104.5t-161.5 303.5h418q17 -111 141 -111t123 86q0 35 -23.5 56.5t-78.5 35.5l-145 35
q-302 74 -358 166t-56 182q0 176 127 260q-57 39 -90 105.5t-33 148.5q0 176 139.5 275.5t376.5 99.5t377.5 -95t169.5 -269l-410 -35q-23 121 -133 121t-110 -88q0 -72 96 -95l111 -26q184 -45 278 -91.5t132 -108.5t38 -154t-31.5 -154t-105.5 -113q145 -82 145 -266z" />
    <glyph glyph-name="dieresis" unicode="&#xa8;" horiz-adv-x="1282" 
d="M694 1206v287h377v-287h-377zM211 1206v287h379v-287h-379z" />
    <glyph glyph-name="copyright" unicode="&#xa9;" horiz-adv-x="1601" 
d="M709 735q0 -82 26.5 -121t85.5 -39q82 0 97 78h272q-10 -156 -109.5 -242.5t-276.5 -86.5t-280.5 104t-103.5 298t104.5 304.5t276.5 110.5t267 -78t114 -225l-275 -29q-12 80 -92 80q-106 0 -106 -154zM807 0q-205 0 -365.5 90t-255 257t-94.5 378t87 377t249 263
t367 97t365.5 -90t254.5 -257t94 -378t-87 -376.5t-248.5 -263t-366.5 -97.5zM798 184q150 0 264 66.5t178.5 190.5t64.5 287t-60.5 287t-175.5 193.5t-265 69.5t-264 -66.5t-178.5 -190.5t-64.5 -287t60.5 -286.5t175.5 -193.5t265 -70z" />
    <glyph glyph-name="ordfeminine" unicode="&#xaa;" horiz-adv-x="907" 
d="M350 928q0 -57 64 -58q49 0 80.5 30t31.5 77v24l-82 -4q-94 -6 -94 -69zM539 682v76q-97 -96 -225 -96t-200.5 65t-72.5 183q0 241 385 261l100 5v28q0 39 -15 57.5t-54 18.5q-61 0 -74 -59l-295 20q41 258 379 258q188 0 278.5 -82t90.5 -252v-483h-297z" />
    <glyph glyph-name="guillemotleft" unicode="&#xab;" horiz-adv-x="1398" 
d="M291 55l-240 469l240 473h444l-211 -471l211 -471h-444zM893 55l-240 469l240 473h444l-211 -471l211 -471h-444z" />
    <glyph glyph-name="logicalnot" unicode="&#xac;" horiz-adv-x="1212" 
d="M649 297v256h-524v379h919v-635h-395z" />
    <glyph glyph-name="uni00AD" unicode="&#xad;" horiz-adv-x="874" 
d="M72 422v389h731v-389h-731z" />
    <glyph glyph-name="registered" unicode="&#xae;" horiz-adv-x="1040" 
d="M508 1059q55 0 55 43q0 25 -12 35t-43 10h-35v-88h35zM530 1264q181 0 181 -158q0 -78 -54 -119l80 -168h-162l-55 129h-47v-129h-147v445h204zM520.5 702q151.5 0 236.5 89.5t85 247t-85 246.5t-236.5 89t-236.5 -89t-85 -246.5t85 -247t236.5 -89.5zM523 578
q-134 0 -237.5 56t-164 161.5t-60.5 239.5t56.5 238.5t161 165t238.5 60.5t237.5 -56.5t164 -161.5t60.5 -239t-56.5 -239t-161 -165t-238.5 -60z" />
    <glyph glyph-name="macron" unicode="&#xaf;" horiz-adv-x="1282" 
d="M299 1196v303h684v-303h-684z" />
    <glyph glyph-name="degree" unicode="&#xb0;" horiz-adv-x="815" 
d="M502 1101q0 44 -26.5 71.5t-67.5 27.5t-68 -27.5t-27 -71.5t27 -72t68 -28t67.5 28t26.5 72zM764 1103q0 -99 -45 -179t-127 -128t-181 -48t-180 44t-130.5 124t-49.5 180t45 181t126.5 129t181.5 48t181 -44t130 -126t49 -181z" />
    <glyph glyph-name="plusminus" unicode="&#xb1;" horiz-adv-x="1212" 
d="M135 0v358h271v211h-306v359h306v311h403v-311h305v-359h-305v-211h270v-358h-944z" />
    <glyph glyph-name="uni00B2" unicode="&#xb2;" 
d="M98 594v217l205 154q142 109 160 145q10 20 10 49q0 51 -45 51q-27 0 -41 -18t-20 -59l-287 22q23 145 117 221q93 76 247 76t241 -74t87 -200q0 -82 -41 -148t-137 -139q-37 -31 -68 -51h260l-20 -246h-668z" />
    <glyph glyph-name="uni00B3" unicode="&#xb3;" 
d="M795 845q1 -128 -99 -200t-275 -72t-270 82t-96 238h287q4 -98 76 -98q61 0 63 63q0 61 -65 62h-47v200h43q57 0 57 56q0 51 -53 53q-53 0 -66 -68l-282 21q10 130 105 200t256 70t253 -66t92 -180t-90 -168q111 -65 111 -193z" />
    <glyph glyph-name="acute" unicode="&#xb4;" horiz-adv-x="1282" 
d="M276 1196l263 354h465l-349 -354h-379z" />
    <glyph glyph-name="mu" unicode="&#xb5;" horiz-adv-x="1282" 
d="M754 0v113q-66 -115 -172 -115q-25 0 -43 6v-399h-437v1476h439v-655q0 -100 82 -100q66 0 100 47q18 29 18 73v635h439v-1081h-426z" />
    <glyph glyph-name="paragraph" unicode="&#xb6;" horiz-adv-x="1499" 
d="M997 -285v1420h-123v-1420h-378v723q-223 33 -344 162t-121 336q0 258 158.5 392t463.5 134h723v-1747h-379z" />
    <glyph glyph-name="periodcentered" unicode="&#xb7;" horiz-adv-x="589" 
d="M90 547v440h408v-440h-408z" />
    <glyph glyph-name="cedilla" unicode="&#xb8;" horiz-adv-x="1282" 
d="M629 -242q0 25 -24 34t-85 9h-69l90 224l190 -25l-33 -88q109 -16 159 -62t50 -135q0 -88 -81 -137t-234 -49q-72 0 -182 16v179q82 -8 133 -9q86 0 86 43z" />
    <glyph glyph-name="uni00B9" unicode="&#xb9;" 
d="M352 594v522l-149 -100l-137 219l311 197h282v-838h-307z" />
    <glyph glyph-name="ordmasculine" unicode="&#xba;" horiz-adv-x="931" 
d="M371 1065q0 -158 71.5 -158t94 38t22.5 121t-22.5 121t-71.5 38t-71.5 -38t-22.5 -122zM466 633q-210 0 -322.5 112.5t-112.5 320.5t113.5 320.5t321.5 112.5t321.5 -112.5t113.5 -320.5t-112.5 -320.5t-322.5 -112.5z" />
    <glyph glyph-name="guillemotright" unicode="&#xbb;" horiz-adv-x="1398" 
d="M61 55l211 471l-211 471h445l239 -469l-239 -473h-445zM664 55l210 471l-210 471h444l240 -469l-240 -473h-444z" />
    <glyph glyph-name="onequarter" unicode="&#xbc;" horiz-adv-x="2156" 
d="M567 0l623 1415h399l-622 -1415h-400zM1731 360v172l-121 -172h121zM1731 0v139h-369v221l340 478h326v-478h100l-21 -221h-79v-139h-297zM352 594v522l-149 -100l-137 219l311 197h282v-838h-307z" />
    <glyph glyph-name="onehalf" unicode="&#xbd;" horiz-adv-x="2156" 
d="M547 0l622 1415h400l-623 -1415h-399zM1411 0v217l205 154q142 109 160 145q10 20 10 49q0 51 -45 51q-27 0 -41 -18t-21 -59l-286 22q23 145 116 221q94 76 248 76t241 -74t87 -200q0 -82 -41 -148t-137 -139q-37 -31 -68 -51h260l-20 -246h-668zM352 594v522l-149 -100
l-137 219l311 197h282v-838h-307z" />
    <glyph glyph-name="threequarters" unicode="&#xbe;" horiz-adv-x="2156" 
d="M588 0l622 1415h400l-623 -1415h-399zM1731 360v172l-121 -172h121zM1731 0v139h-369v221l340 478h326v-478h100l-21 -221h-79v-139h-297zM795 845q1 -128 -99 -200t-275 -72t-270 82t-96 238h287q4 -98 76 -98q61 0 63 63q0 61 -65 62h-47v200h43q57 0 57 56
q0 51 -53 53q-53 0 -66 -68l-282 21q10 130 105 200t256 70t253 -66t92 -180t-90 -168q111 -65 111 -193z" />
    <glyph glyph-name="questiondown" unicode="&#xbf;" horiz-adv-x="1142" 
d="M371 702v379h397v-379h-397zM554 -406q-245 0 -379 101.5t-134 284.5q1 195 189 358q92 80 119.5 129t27.5 121v20h383v-39q0 -117 -35 -192t-118 -151t-104.5 -108t-21.5 -71q0 -94 99 -94q113 0 127 141l405 -35q-23 -225 -168 -345t-390 -120z" />
    <glyph glyph-name="Agrave" unicode="&#xc0;" horiz-adv-x="1601" 
d="M795 1083l-133 -485h266zM1092 0l-66 236h-463l-63 -236h-459l475 1462h574l471 -1462h-469zM659 1581l-348 334h496l262 -334h-410z" />
    <glyph glyph-name="Aacute" unicode="&#xc1;" horiz-adv-x="1601" 
d="M795 1083l-133 -485h266zM1092 0l-66 236h-463l-63 -236h-459l475 1462h574l471 -1462h-469zM946 1581h-409l262 334h495z" />
    <glyph glyph-name="Acircumflex" unicode="&#xc2;" horiz-adv-x="1601" 
d="M795 1083l-133 -485h266zM1092 0l-66 236h-463l-63 -236h-459l475 1462h574l471 -1462h-469zM913 1581l-106 135l-105 -135h-374l268 334h414l268 -334h-365z" />
    <glyph glyph-name="Atilde" unicode="&#xc3;" horiz-adv-x="1601" 
d="M795 1083l-133 -485h266zM1092 0l-66 236h-463l-63 -236h-459l475 1462h574l471 -1462h-469zM1247 1937q0 -362 -276 -362q-80 0 -163 39t-114 39q-70 0 -69 -86h-267q0 178 70 270t207 92q80 0 162 -38t114 -40q70 0 70 86h266z" />
    <glyph glyph-name="Adieresis" unicode="&#xc4;" horiz-adv-x="1601" 
d="M795 1083l-133 -485h266zM1092 0l-66 236h-463l-63 -236h-459l475 1462h574l471 -1462h-469zM856 1581v320h397v-320h-397zM352 1581v320h400v-320h-400z" />
    <glyph glyph-name="Aring" unicode="&#xc5;" horiz-adv-x="1601" 
d="M723 1579q0 -82 59.5 -82t81 21.5t21.5 60.5t-21.5 60.5t-81 21.5t-59.5 -82zM795 1098l-133 -500h266zM514 1579q0 125 79 200.5t211 75.5t211 -75.5t79 -200.5q0 -68 -25 -121l492 -1458h-469l-66 236h-463l-63 -236h-459l498 1454q-25 53 -25 125z" />
    <glyph glyph-name="AE" unicode="&#xc6;" horiz-adv-x="2246" 
d="M1139 1104h-88l-189 -383h277v383zM1139 0v358h-455l-174 -358h-469l774 1462h1339v-358h-579v-186h539v-359h-539v-201h620l-34 -358h-1022z" />
    <glyph glyph-name="Ccedilla" unicode="&#xc7;" horiz-adv-x="1511" 
d="M1073 -285q0 -94 -84 -145t-237 -51q-82 0 -187 16v178q75 -8 149 -8t74 47q0 27 -25 38q-26 11 -85 11h-72l69 169q-256 29 -408 188q-185 196 -185 564t191 572t540 205q279 0 435 -131t200 -397l-463 -51q-20 94 -65 137t-125 43q-113 0 -167 -89t-54 -279t56 -280
q58 -90 179 -90q174 0 199 197h462q-14 -283 -191 -439q-153 -135 -401 -154l-20 -54q215 -31 215 -197z" />
    <glyph glyph-name="Egrave" unicode="&#xc8;" horiz-adv-x="1302" 
d="M123 0v1462h1087v-358h-630v-186h589v-359h-589v-201h671l-34 -358h-1094zM522 1581l-348 334h496l262 -334h-410z" />
    <glyph glyph-name="Eacute" unicode="&#xc9;" horiz-adv-x="1302" 
d="M123 0v1462h1087v-358h-630v-186h589v-359h-589v-201h671l-34 -358h-1094zM809 1581h-410l263 334h495z" />
    <glyph glyph-name="Ecircumflex" unicode="&#xca;" horiz-adv-x="1302" 
d="M123 0v1462h1087v-358h-630v-186h589v-359h-589v-201h671l-34 -358h-1094zM776 1581l-106 135l-105 -135h-375l269 334h413l269 -334h-365z" />
    <glyph glyph-name="Edieresis" unicode="&#xcb;" horiz-adv-x="1302" 
d="M123 0v1462h1087v-358h-630v-186h589v-359h-589v-201h671l-34 -358h-1094zM719 1581v320h397v-320h-397zM215 1581v320h399v-320h-399z" />
    <glyph glyph-name="Igrave" unicode="&#xcc;" horiz-adv-x="710" 
d="M123 0v1462h465v-1462h-465zM211 1581l-348 334h495l263 -334h-410z" />
    <glyph glyph-name="Iacute" unicode="&#xcd;" horiz-adv-x="710" 
d="M123 0v1462h465v-1462h-465zM498 1581h-410l262 334h496z" />
    <glyph glyph-name="Icircumflex" unicode="&#xce;" horiz-adv-x="710" 
d="M123 0v1462h465v-1462h-465zM465 1581l-107 135l-104 -135h-375l268 334h414l268 -334h-364z" />
    <glyph glyph-name="Idieresis" unicode="&#xcf;" horiz-adv-x="710" 
d="M123 0v1462h465v-1462h-465zM408 1581v320h397v-320h-397zM-96 1581v320h399v-320h-399z" />
    <glyph glyph-name="Eth" unicode="&#xd0;" horiz-adv-x="1630" 
d="M803 377q274 0 274 352t-274 352h-178v-170h200v-360h-200v-174h178zM186 0v551h-166v360h166v551h600q375 0 568.5 -183t193.5 -541t-195.5 -548t-566.5 -190h-600z" />
    <glyph glyph-name="Ntilde" unicode="&#xd1;" horiz-adv-x="1546" 
d="M557 0h-434v1462h399l467 -739v739h434v-1462h-395l-471 743v-743zM328 1567q0 362 276 362q80 0 161 -38t116 -40q70 0 69 86h267q0 -178 -70 -270t-207 -92q-80 0 -163 39t-113 39q-70 0 -70 -86h-266z" />
    <glyph glyph-name="Ograve" unicode="&#xd2;" horiz-adv-x="1638" 
d="M819 362q256 0 256 369t-256 369t-256 -369t256 -369zM825 1499q347 0 539 -199q192 -198 192 -564t-196 -570t-545 -203q-350 0 -542 199q-191 199 -191 563q0 240 86 414t253 267t404 93zM682 1581l-348 334h495l263 -334h-410z" />
    <glyph glyph-name="Oacute" unicode="&#xd3;" horiz-adv-x="1638" 
d="M819 362q256 0 256 369t-256 369t-256 -369t256 -369zM825 1499q347 0 539 -199q192 -198 192 -564t-196 -570t-545 -203q-350 0 -542 199q-191 199 -191 563q0 240 86 414t253 267t404 93zM969 1581h-410l262 334h496z" />
    <glyph glyph-name="Ocircumflex" unicode="&#xd4;" horiz-adv-x="1638" 
d="M819 362q256 0 256 369t-256 369t-256 -369t256 -369zM825 1499q347 0 539 -199q192 -198 192 -564t-196 -570t-545 -203q-350 0 -542 199q-191 199 -191 563q0 240 86 414t253 267t404 93zM936 1581l-107 135l-104 -135h-375l268 334h414l268 -334h-364z" />
    <glyph glyph-name="Otilde" unicode="&#xd5;" horiz-adv-x="1638" 
d="M819 362q256 0 256 369t-256 369t-256 -369t256 -369zM825 1499q347 0 539 -199q192 -198 192 -564t-196 -570t-545 -203q-350 0 -542 199q-191 199 -191 563q0 240 86 414t253 267t404 93zM381 1567q0 178 70 270t206 92q80 0 161 -38t116 -40q70 0 70 86h266
q0 -178 -70 -270t-207 -92q-80 0 -163 39t-113 39q-70 0 -70 -86h-266z" />
    <glyph glyph-name="Odieresis" unicode="&#xd6;" horiz-adv-x="1638" 
d="M819 362q256 0 256 369t-256 369t-256 -369t256 -369zM825 1499q347 0 539 -199q192 -198 192 -564t-196 -570t-545 -203q-350 0 -542 199q-191 199 -191 563q0 240 86 414t253 267t404 93zM879 1581v320h397v-320h-397zM375 1581v320h399v-320h-399z" />
    <glyph glyph-name="multiply" unicode="&#xd7;" horiz-adv-x="1212" 
d="M606 438l-248 -248l-262 263l248 247l-240 240l263 262l239 -239l240 239l262 -262l-240 -240l248 -247l-262 -263z" />
    <glyph glyph-name="Oslash" unicode="&#xd8;" horiz-adv-x="1638" 
d="M709 371q49 -18 110 -19q272 0 273 379q0 94 -23 184zM819 1110q-272 0 -272 -379q0 -119 20 -182l359 541q-43 20 -107 20zM82 725q0 240 86 414t253 267t375 93t361 -59l107 162l180 -119l-105 -158q217 -201 217 -578t-195.5 -580.5t-547.5 -203.5q-186 0 -334 60
l-108 -164l-181 118l107 160q-215 201 -215 588z" />
    <glyph glyph-name="Ugrave" unicode="&#xd9;" horiz-adv-x="1511" 
d="M934 1462h465v-850q0 -319 -164 -484t-485 -165q-637 0 -637 649v850h465v-870q0 -121 42 -175q42 -55 136 -55t136 54t42 176v870zM612 1581l-348 334h496l262 -334h-410z" />
    <glyph glyph-name="Uacute" unicode="&#xda;" horiz-adv-x="1511" 
d="M934 1462h465v-850q0 -319 -164 -484t-485 -165q-637 0 -637 649v850h465v-870q0 -121 42 -175q42 -55 136 -55t136 54t42 176v870zM899 1581h-410l263 334h495z" />
    <glyph glyph-name="Ucircumflex" unicode="&#xdb;" horiz-adv-x="1511" 
d="M934 1462h465v-850q0 -319 -164 -484t-485 -165q-637 0 -637 649v850h465v-870q0 -121 42 -175q42 -55 136 -55t136 54t42 176v870zM866 1581l-106 135l-105 -135h-374l268 334h414l268 -334h-365z" />
    <glyph glyph-name="Udieresis" unicode="&#xdc;" horiz-adv-x="1511" 
d="M934 1462h465v-850q0 -319 -164 -484t-485 -165q-637 0 -637 649v850h465v-870q0 -121 42 -175q42 -55 136 -55t136 54t42 176v870zM809 1581v320h397v-320h-397zM305 1581v320h400v-320h-400z" />
    <glyph glyph-name="Yacute" unicode="&#xdd;" horiz-adv-x="1466" 
d="M500 0v543l-480 919h494l223 -532l226 532h483l-479 -919v-543h-467zM877 1581h-410l262 334h496z" />
    <glyph glyph-name="Thorn" unicode="&#xde;" horiz-adv-x="1349" 
d="M692 588q96 0 138 34.5t42 116.5t-42 117t-138 35h-125v-303h125zM688 1251q602 0 602 -512t-600 -512h-123v-227h-446v1462h446v-211h121z" />
    <glyph glyph-name="germandbls" unicode="&#xdf;" horiz-adv-x="1347" 
d="M1286 434q0 -211 -125 -329.5t-348 -118.5q-104 0 -213 28l41 316q49 -6 76 -6q139 0 139 131q0 74 -42 105.5t-138 31.5h-58v321h39q53 0 83 31t30 84t-29.5 83t-83.5 30q-127 0 -127 -150v-991h-428v942q0 254 150 395.5t406 141.5t394 -103.5t138 -287.5t-146 -275
q242 -83 242 -379z" />
    <glyph glyph-name="agrave" unicode="&#xe0;" horiz-adv-x="1226" 
d="M463 332q0 -78 96 -78q74 0 119 44t45 116v24l-113 -6q-147 -8 -147 -100zM125 762q55 352 532 352q478 0 478 -455v-659h-396v102q-69 -70 -143 -100t-170 -31q-166 0 -265 89t-100 239q0 279 327 348q85 18 210 23l125 4v37q0 114 -98 112q-94 0 -109 -90zM510 1196
l-348 354h465l262 -354h-379z" />
    <glyph glyph-name="aacute" unicode="&#xe1;" horiz-adv-x="1226" 
d="M463 332q0 -78 96 -78q74 0 119 44t45 116v24l-113 -6q-147 -8 -147 -100zM125 762q55 352 532 352q478 0 478 -455v-659h-396v102q-69 -70 -143 -100t-170 -31q-166 0 -265 89t-100 239q0 279 327 348q85 18 210 23l125 4v37q0 114 -98 112q-94 0 -109 -90zM385 1196
l262 354h465l-348 -354h-379z" />
    <glyph glyph-name="acircumflex" unicode="&#xe2;" horiz-adv-x="1226" 
d="M463 332q0 -78 96 -78q74 0 119 44t45 116v24l-113 -6q-147 -8 -147 -100zM125 762q55 352 532 352q478 0 478 -455v-659h-396v102q-69 -70 -143 -100t-170 -31q-166 0 -265 89t-100 239q0 279 327 348q85 18 210 23l125 4v37q0 114 -98 112q-94 0 -109 -90zM748 1196
l-107 147l-104 -147h-359l268 354h381l269 -354h-348z" />
    <glyph glyph-name="atilde" unicode="&#xe3;" horiz-adv-x="1226" 
d="M463 332q0 -78 96 -78q74 0 119 44t45 116v24l-113 -6q-147 -8 -147 -100zM125 762q55 352 532 352q478 0 478 -455v-659h-396v102q-69 -70 -143 -100t-170 -31q-166 0 -265 89t-100 239q0 279 327 348q85 18 210 23l125 4v37q0 114 -98 112q-94 0 -109 -90zM809 1556
h260q0 -362 -268 -362q-76 0 -157 39t-112 39q-67 0 -67 -86h-260q0 362 268 362q76 0 155 -38t113 -40q68 0 68 86z" />
    <glyph glyph-name="adieresis" unicode="&#xe4;" horiz-adv-x="1226" 
d="M463 332q0 -78 96 -78q74 0 119 44t45 116v24l-113 -6q-147 -8 -147 -100zM125 762q55 352 532 352q478 0 478 -455v-659h-396v102q-69 -70 -143 -100t-170 -31q-166 0 -265 89t-100 239q0 279 327 348q85 18 210 23l125 4v37q0 114 -98 112q-94 0 -109 -90zM690 1206
v287h377v-287h-377zM207 1206v287h379v-287h-379z" />
    <glyph glyph-name="aring" unicode="&#xe5;" horiz-adv-x="1226" 
d="M463 332q0 -78 96 -78q74 0 119 44t45 116v24l-113 -6q-147 -8 -147 -100zM125 762q55 352 532 352q478 0 478 -455v-659h-396v102q-69 -70 -143 -100t-170 -31q-166 0 -265 89t-100 239q0 279 327 348q85 18 210 23l125 4v37q0 114 -98 112q-94 0 -109 -90zM637 1352
q37 0 57 20t21 58q0 77 -76 77q-76 1 -77 -77t75 -78zM913 1430q1 -119 -75 -192t-200 -73t-200 73t-76 192q0 120 76 192t200 72t200 -72t75 -192z" />
    <glyph glyph-name="ae" unicode="&#xe6;" horiz-adv-x="1843" 
d="M1251 817q-129 0 -139 -153h262q-2 80 -30.5 116.5t-92.5 36.5zM463 332q0 -78 92 -78q68 0 112 44t44 116v24l-107 -6q-141 -8 -141 -100zM711 711q-1 112 -91 112t-104 -90l-391 29q23 166 152 259t339 93t310 -113q121 113 345 113t362.5 -148.5t138.5 -408.5v-111
h-662q4 -94 37 -136t98 -42q94 0 119 88h401q-33 -188 -162.5 -288.5t-345.5 -100.5q-283 0 -403 176q-129 -172 -385 -172q-193 0 -300.5 87t-107.5 252t135.5 259.5t391.5 100.5l123 4v37z" />
    <glyph glyph-name="ccedilla" unicode="&#xe7;" horiz-adv-x="1189" 
d="M510 543q0 -117 30 -171t95 -55q92 0 104 117h410q-23 -229 -156 -348q-110 -99 -291 -115l-22 -59q109 -16 159 -62t50 -135q0 -88 -81 -137t-235 -49q-72 0 -182 16v179q82 -8 133 -9q86 0 86 43q0 25 -23 34q-24 9 -85 9h-70l71 175q-176 28 -286 140
q-145 148 -145 419t146 425t409 154q223 0 355 -108t157 -316l-406 -35q-16 109 -100 109q-123 0 -123 -221z" />
    <glyph glyph-name="egrave" unicode="&#xe8;" horiz-adv-x="1239" 
d="M637 817q-141 0 -152 -153h285q-4 82 -36 118t-97 35zM72 528q0 274 148 430t406 156t399 -147q142 -147 142 -410v-111h-684q4 -94 39 -136t109 -42q104 0 129 88h401q-66 -387 -524 -389q-273 -1 -419 143t-146 418zM504 1196l-348 354h465l262 -354h-379z" />
    <glyph glyph-name="eacute" unicode="&#xe9;" horiz-adv-x="1239" 
d="M637 817q-141 0 -152 -153h285q-4 82 -36 118t-97 35zM72 528q0 274 148 430t406 156t399 -147q142 -147 142 -410v-111h-684q4 -94 39 -136t109 -42q104 0 129 88h401q-66 -387 -524 -389q-273 -1 -419 143t-146 418zM379 1196l262 354h465l-348 -354h-379z" />
    <glyph glyph-name="ecircumflex" unicode="&#xea;" horiz-adv-x="1239" 
d="M637 817q-141 0 -152 -153h285q-4 82 -36 118t-97 35zM72 528q0 274 148 430t406 156t399 -147q142 -147 142 -410v-111h-684q4 -94 39 -136t109 -42q104 0 129 88h401q-66 -387 -524 -389q-273 -1 -419 143t-146 418zM741 1196l-106 147l-105 -147h-358l268 354h381
l269 -354h-349z" />
    <glyph glyph-name="edieresis" unicode="&#xeb;" horiz-adv-x="1239" 
d="M637 817q-141 0 -152 -153h285q-4 82 -36 118t-97 35zM72 528q0 274 148 430t406 156t399 -147q142 -147 142 -410v-111h-684q4 -94 39 -136t109 -42q104 0 129 88h401q-66 -387 -524 -389q-273 -1 -419 143t-146 418zM684 1206v287h377v-287h-377zM201 1206v287h379
v-287h-379z" />
    <glyph glyph-name="igrave" unicode="&#xec;" horiz-adv-x="643" 
d="M102 0v1081h439v-1081h-439zM195 1196l-349 354h465l262 -354h-378z" />
    <glyph glyph-name="iacute" unicode="&#xed;" horiz-adv-x="643" 
d="M102 0v1081h439v-1081h-439zM70 1196l262 354h465l-348 -354h-379z" />
    <glyph glyph-name="icircumflex" unicode="&#xee;" horiz-adv-x="643" 
d="M102 0v1081h439v-1081h-439zM432 1196l-106 147l-105 -147h-358l268 354h381l268 -354h-348z" />
    <glyph glyph-name="idieresis" unicode="&#xef;" horiz-adv-x="643" 
d="M102 0v1081h439v-1081h-439zM375 1206v287h377v-287h-377zM-109 1206v287h379v-287h-379z" />
    <glyph glyph-name="eth" unicode="&#xf0;" horiz-adv-x="1292" 
d="M774 471q0 174 -132 174t-132 -174t132 -174t132 174zM1210 662q0 -694 -592 -695q-260 0 -403 129t-143 365q0 145 56 260t160 181.5t250 66.5t255 -88q-27 184 -170 268l-138 -137l-106 110l86 86q-86 23 -195 31l56 305q225 -16 397 -80l154 154l106 -111l-115 -114
q342 -217 342 -731z" />
    <glyph glyph-name="ntilde" unicode="&#xf1;" horiz-adv-x="1282" 
d="M752 0v649q0 106 -86 107q-72 0 -107 -49q-18 -27 -18 -78v-629h-439v1081h426v-112q120 145 298 145t271 -101t93 -284v-729h-438zM817 1556h260q0 -362 -268 -362q-76 0 -157 39t-111 39q-68 0 -68 -86h-260q0 362 268 362q76 0 155 -38t114 -40q67 0 67 86z" />
    <glyph glyph-name="ograve" unicode="&#xf2;" horiz-adv-x="1284" 
d="M774 540q0 224 -132 224t-132 -224t132 -223q132 -1 132 223zM637 -33q-273 1 -419 147t-146 422t150 427q151 151 425 151q273 0 419 -146t146 -422t-150 -427q-150 -152 -425 -152zM514 1196l-348 354h465l262 -354h-379z" />
    <glyph glyph-name="oacute" unicode="&#xf3;" horiz-adv-x="1284" 
d="M774 540q0 224 -132 224t-132 -224t132 -223q132 -1 132 223zM637 -33q-273 1 -419 147t-146 422t150 427q151 151 425 151q273 0 419 -146t146 -422t-150 -427q-150 -152 -425 -152zM389 1196l262 354h465l-348 -354h-379z" />
    <glyph glyph-name="ocircumflex" unicode="&#xf4;" horiz-adv-x="1284" 
d="M774 540q0 224 -132 224t-132 -224t132 -223q132 -1 132 223zM637 -33q-273 1 -419 147t-146 422t150 427q151 151 425 151q273 0 419 -146t146 -422t-150 -427q-150 -152 -425 -152zM752 1196l-107 147l-104 -147h-359l269 354h380l269 -354h-348z" />
    <glyph glyph-name="otilde" unicode="&#xf5;" horiz-adv-x="1284" 
d="M774 540q0 224 -132 224t-132 -224t132 -223q132 -1 132 223zM637 -33q-273 1 -419 147t-146 422t150 427q151 151 425 151q273 0 419 -146t146 -422t-150 -427q-150 -152 -425 -152zM813 1556h260q0 -362 -268 -362q-76 0 -157 39t-111 39q-68 0 -68 -86h-260
q0 362 268 362q76 0 155 -38t113 -40q68 0 68 86z" />
    <glyph glyph-name="odieresis" unicode="&#xf6;" horiz-adv-x="1284" 
d="M774 540q0 224 -132 224t-132 -224t132 -223q132 -1 132 223zM637 -33q-273 1 -419 147t-146 422t150 427q151 151 425 151q273 0 419 -146t146 -422t-150 -427q-150 -152 -425 -152zM694 1206v287h377v-287h-377zM211 1206v287h379v-287h-379z" />
    <glyph glyph-name="divide" unicode="&#xf7;" horiz-adv-x="1212" 
d="M428 123v295h356v-295h-356zM428 977v295h356v-295h-356zM92 508v379h1028v-379h-1028z" />
    <glyph glyph-name="oslash" unicode="&#xf8;" horiz-adv-x="1284" 
d="M641 287q94 0 136 60.5t42 193.5q0 47 -6 86l-229 -334q25 -6 57 -6zM465 541q0 -59 2 -74l223 321q-20 6 -49 7q-92 0 -134 -60.5t-42 -193.5zM647 1114q137 0 242 -37l90 129l160 -110l-84 -119q157 -147 157 -427t-150.5 -431.5t-424.5 -151.5q-147 0 -252 39
l-109 -158l-159 111l104 152q-149 147 -149 423t150.5 428t424.5 152z" />
    <glyph glyph-name="ugrave" unicode="&#xf9;" horiz-adv-x="1271" 
d="M743 0v113q-119 -145 -293 -145t-266 100q-92 102 -92 284v729h438v-655q0 -100 82 -100q70 0 101 47q18 29 18 73v635h438v-1081h-426zM504 1196l-348 354h465l262 -354h-379z" />
    <glyph glyph-name="uacute" unicode="&#xfa;" horiz-adv-x="1271" 
d="M743 0v113q-119 -145 -293 -145t-266 100q-92 102 -92 284v729h438v-655q0 -100 82 -100q70 0 101 47q18 29 18 73v635h438v-1081h-426zM379 1196l262 354h465l-348 -354h-379z" />
    <glyph glyph-name="ucircumflex" unicode="&#xfb;" horiz-adv-x="1271" 
d="M743 0v113q-119 -145 -293 -145t-266 100q-92 102 -92 284v729h438v-655q0 -100 82 -100q70 0 101 47q18 29 18 73v635h438v-1081h-426zM741 1196l-106 147l-105 -147h-358l268 354h381l269 -354h-349z" />
    <glyph glyph-name="udieresis" unicode="&#xfc;" horiz-adv-x="1271" 
d="M743 0v113q-119 -145 -293 -145t-266 100q-92 102 -92 284v729h438v-655q0 -100 82 -100q70 0 101 47q18 29 18 73v635h438v-1081h-426zM684 1206v287h377v-287h-377zM201 1206v287h379v-287h-379z" />
    <glyph glyph-name="yacute" unicode="&#xfd;" horiz-adv-x="1261" 
d="M304 -57q50 -1 83 27t55 93l17 48l-439 970h459l168 -520l150 520h444l-428 -1063q-72 -176 -132 -262t-131 -120q-70 -34 -196 -34t-250 46l64 313q86 -18 136 -18zM379 1196l262 354h465l-348 -354h-379z" />
    <glyph glyph-name="thorn" unicode="&#xfe;" horiz-adv-x="1314" 
d="M670 764q-129 0 -127 -209v-29q0 -109 30 -161q31 -49 99 -49t100.5 53t32.5 172q0 223 -135 223zM102 -397v1859h439v-465q103 117 293 117t299.5 -143.5t109.5 -414.5t-118.5 -430t-323.5 -159q-170 0 -260 119v-483h-439z" />
    <glyph glyph-name="ydieresis" unicode="&#xff;" horiz-adv-x="1261" 
d="M304 -57q50 -1 83 27t55 93l17 48l-439 970h459l168 -520l150 520h444l-428 -1063q-72 -176 -132 -262t-131 -120q-70 -34 -196 -34t-250 46l64 313q86 -18 136 -18zM684 1206v287h377v-287h-377zM201 1206v287h379v-287h-379z" />
    <glyph glyph-name="Amacron" unicode="&#x100;" horiz-adv-x="1601" 
d="M795 1083l-133 -485h266zM1092 0l-66 236h-463l-63 -236h-459l475 1462h574l471 -1462h-469zM451 1595v306h704v-306h-704z" />
    <glyph glyph-name="amacron" unicode="&#x101;" horiz-adv-x="1226" 
d="M463 332q0 -78 96 -78q74 0 119 44t45 116v24l-113 -6q-147 -8 -147 -100zM125 762q55 352 532 352q478 0 478 -455v-659h-396v102q-69 -70 -143 -100t-170 -31q-166 0 -265 89t-100 239q0 279 327 348q85 18 210 23l125 4v37q0 114 -98 112q-94 0 -109 -90zM295 1196
v303h684v-303h-684z" />
    <glyph glyph-name="Abreve" unicode="&#x102;" horiz-adv-x="1601" 
d="M795 1083l-133 -485h266zM1092 0l-66 236h-463l-63 -236h-459l475 1462h574l471 -1462h-469zM1208 1915q0 -164 -108 -254t-302 -90q-196 0 -298 88t-103 256h305q0 -98 100 -98t101 98h305z" />
    <glyph glyph-name="abreve" unicode="&#x103;" horiz-adv-x="1226" 
d="M463 332q0 -78 96 -78q74 0 119 44t45 116v24l-113 -6q-147 -8 -147 -100zM125 762q55 352 532 352q478 0 478 -455v-659h-396v102q-69 -70 -143 -100t-170 -31q-166 0 -265 89t-100 239q0 279 327 348q85 18 210 23l125 4v37q0 114 -98 112q-94 0 -109 -90zM1036 1550
q0 -172 -105 -266t-297 -94t-295 93q-101 93 -101 267h299q0 -116 100 -114q102 0 100 114h299z" />
    <glyph glyph-name="Aogonek" unicode="&#x104;" horiz-adv-x="1601" 
d="M795 1083l-133 -485h266zM1380 -440q-313 0 -313 181q0 87 42 141t140 118h-157l-66 236h-463l-63 -236h-459l475 1462h574l471 -1462q-84 -41 -119 -73t-35 -68q0 -55 82 -56q29 0 65 4v-233q-88 -14 -174 -14z" />
    <glyph glyph-name="aogonek" unicode="&#x105;" horiz-adv-x="1226" 
d="M463 332q0 -78 96 -78q74 0 119 44t45 116v24l-113 -6q-147 -8 -147 -100zM125 762q55 352 532 352q478 0 478 -455v-659q-80 -41 -112 -73t-32 -68q0 -54 76 -56q16 0 61 4v-233q-84 -14 -165 -14q-303 0 -301 182q0 88 38 142t124 116h-85v102q-69 -70 -143 -100
t-170 -31q-166 0 -265 89t-100 239q0 279 327 348q85 18 210 23l125 4v37q0 114 -98 112q-94 0 -109 -90z" />
    <glyph glyph-name="Cacute" unicode="&#x106;" horiz-adv-x="1511" 
d="M778 -37q-324 0 -511 195q-185 196 -185 564t191 572t540 205q279 0 435 -131t200 -397l-463 -51q-20 94 -65 137t-125 43q-113 0 -167 -89t-54 -279t56 -280q58 -90 179 -90q174 0 199 197h462q-14 -283 -191 -439t-501 -157zM956 1581h-409l262 334h496z" />
    <glyph glyph-name="cacute" unicode="&#x107;" horiz-adv-x="1189" 
d="M1149 434q-47 -467 -537 -467q-248 1 -394 149t-146 419t146 425t409 154q223 0 355 -108t157 -316l-406 -35q-16 109 -100 109q-123 0 -123 -221q0 -117 30 -171t95 -55q92 0 104 117h410zM375 1196l262 354h465l-348 -354h-379z" />
    <glyph glyph-name="Ccircumflex" unicode="&#x108;" horiz-adv-x="1511" 
d="M778 -37q-324 0 -511 195q-185 196 -185 564t191 572t540 205q279 0 435 -131t200 -397l-463 -51q-20 94 -65 137t-125 43q-113 0 -167 -89t-54 -279t56 -280q58 -90 179 -90q174 0 199 197h462q-14 -283 -191 -439t-501 -157zM924 1581l-107 135l-104 -135h-375l268 334
h414l268 -334h-364z" />
    <glyph glyph-name="ccircumflex" unicode="&#x109;" horiz-adv-x="1189" 
d="M1149 434q-47 -467 -537 -467q-248 1 -394 149t-146 419t146 425t409 154q223 0 355 -108t157 -316l-406 -35q-16 109 -100 109q-123 0 -123 -221q0 -117 30 -171t95 -55q92 0 104 117h410zM737 1196l-106 147l-105 -147h-358l268 354h381l268 -354h-348z" />
    <glyph glyph-name="Cdotaccent" unicode="&#x10a;" horiz-adv-x="1511" 
d="M778 -37q-324 0 -511 195q-185 196 -185 564t191 572t540 205q279 0 435 -131t200 -397l-463 -51q-20 94 -65 137t-125 43q-113 0 -167 -89t-54 -279t56 -280q58 -90 179 -90q174 0 199 197h462q-14 -283 -191 -439t-501 -157zM588 1581v320h450v-320h-450z" />
    <glyph glyph-name="cdotaccent" unicode="&#x10b;" horiz-adv-x="1189" 
d="M1149 434q-47 -467 -537 -467q-248 1 -394 149t-146 419t146 425t409 154q223 0 355 -108t157 -316l-406 -35q-16 109 -100 109q-123 0 -123 -221q0 -117 30 -171t95 -55q92 0 104 117h410zM408 1206v287h438v-287h-438z" />
    <glyph glyph-name="Ccaron" unicode="&#x10c;" horiz-adv-x="1511" 
d="M778 -37q-324 0 -511 195q-185 196 -185 564t191 572t540 205q279 0 435 -131t200 -397l-463 -51q-20 94 -65 137t-125 43q-113 0 -167 -89t-54 -279t56 -280q58 -90 179 -90q174 0 199 197h462q-14 -283 -191 -439t-501 -157zM606 1581l-268 334h364l107 -135l104 135
h375l-268 -334h-414z" />
    <glyph glyph-name="ccaron" unicode="&#x10d;" horiz-adv-x="1189" 
d="M1149 434q-47 -467 -537 -467q-248 1 -394 149t-146 419t146 425t409 154q223 0 355 -108t157 -316l-406 -35q-16 109 -100 109q-123 0 -123 -221q0 -117 30 -171t95 -55q92 0 104 117h410zM426 1196l-268 354h358l105 -149l106 149h369l-269 -354h-401z" />
    <glyph glyph-name="Dcaron" unicode="&#x10e;" horiz-adv-x="1566" 
d="M739 389q275 0 275 346q0 170 -67 253t-208 85h-161v-684h161zM123 0v1462h600q377 0 569 -183t192 -541q-1 -358 -196 -548t-565 -190h-600zM500 1581l-269 334h365l106 -135l105 135h375l-269 -334h-413z" />
    <glyph glyph-name="dcaron" unicode="&#x10f;" horiz-adv-x="1314" 
d="M772 528v29q0 111 -31 161t-99 50q-132 0 -132 -224t135 -225q127 0 127 209zM791 0v106q-109 -139 -303 -139q-194 -1 -305 145t-111 416t118 428q119 158 324 158q84 0 153 -31t107 -86v465h438v-1462h-421zM1335 858l70 604h403l-147 -604h-326z" />
    <glyph glyph-name="Dcroat" unicode="&#x110;" horiz-adv-x="1630" 
d="M803 377q274 0 274 352t-274 352h-178v-170h200v-360h-200v-174h178zM186 0v551h-166v360h166v551h600q375 0 569 -183q193 -183 193 -541t-195 -548q-196 -190 -567 -190h-600z" />
    <glyph glyph-name="dcroat" unicode="&#x111;" horiz-adv-x="1314" 
d="M645 692q-135 0 -135 -140t35 -189.5t101 -49.5q66 -1 97 51q30 52 29 125v25q0 178 -127 178zM791 0v106q-109 -139 -303 -139t-305 137.5t-111 380.5q0 339 152.5 443t289.5 104q172 0 260 -117v203h-285v232h285v112h438v-112h129v-232h-129v-1118h-421z" />
    <glyph glyph-name="Emacron" unicode="&#x112;" horiz-adv-x="1302" 
d="M123 0v1462h1087v-358h-630v-186h589v-359h-589v-201h671l-34 -358h-1094zM313 1595v306h705v-306h-705z" />
    <glyph glyph-name="emacron" unicode="&#x113;" horiz-adv-x="1239" 
d="M637 817q-141 0 -152 -153h285q-4 82 -36 118t-97 35zM72 528q0 274 148 430t406 156t399 -147q142 -147 142 -410v-111h-684q4 -94 39 -136t109 -42q104 0 129 88h401q-66 -387 -524 -389q-273 -1 -419 143t-146 418zM289 1196v303h684v-303h-684z" />
    <glyph glyph-name="Ebreve" unicode="&#x114;" horiz-adv-x="1302" 
d="M123 0v1462h1087v-358h-630v-186h589v-359h-589v-201h671l-34 -358h-1094zM1071 1915q1 -164 -107 -254t-304 -90t-298 88t-102 256h305q1 -98 101 -98t100 98h305z" />
    <glyph glyph-name="ebreve" unicode="&#x115;" horiz-adv-x="1239" 
d="M637 817q-141 0 -152 -153h285q-4 82 -36 118t-97 35zM72 528q0 274 148 430t406 156t399 -147q142 -147 142 -410v-111h-684q4 -94 39 -136t109 -42q104 0 129 88h401q-66 -387 -524 -389q-273 -1 -419 143t-146 418zM1030 1550q0 -172 -105 -266t-297 -94t-295 93
q-101 93 -102 267h299q0 -55 26 -85t75 -29q102 0 100 114h299z" />
    <glyph glyph-name="Edotaccent" unicode="&#x116;" horiz-adv-x="1302" 
d="M123 0v1462h1087v-358h-630v-186h589v-359h-589v-201h671l-34 -358h-1094zM440 1581v320h451v-320h-451z" />
    <glyph glyph-name="edotaccent" unicode="&#x117;" horiz-adv-x="1239" 
d="M637 817q-141 0 -152 -153h285q-4 82 -36 118t-97 35zM72 528q0 274 148 430t406 156t399 -147q142 -147 142 -410v-111h-684q4 -94 39 -136t109 -42q104 0 129 88h401q-66 -387 -524 -389q-273 -1 -419 143t-146 418zM412 1206v287h438v-287h-438z" />
    <glyph glyph-name="Eogonek" unicode="&#x118;" horiz-adv-x="1302" 
d="M1036 -440q-313 0 -313 181q0 87 42 141t140 118h-782v1462h1087v-358h-630v-186h589v-359h-589v-201h671l-34 -358q-84 -41 -119 -73t-35 -68q0 -55 82 -56q29 0 65 4v-233q-88 -14 -174 -14z" />
    <glyph glyph-name="eogonek" unicode="&#x119;" horiz-adv-x="1239" 
d="M637 817q-141 0 -152 -153h285q-4 82 -36 118t-97 35zM725 -440q-301 0 -301 182q0 88 34 136t90 93q-210 20 -331 140q-145 143 -145 417t148 430t406 156t399 -147q142 -147 142 -410v-111h-684q4 -94 39 -136t109 -42q104 0 129 88h401q-50 -294 -331 -367
q-78 -57 -76 -124q0 -33 21 -51t116 -7v-233q-84 -14 -166 -14z" />
    <glyph glyph-name="Ecaron" unicode="&#x11a;" horiz-adv-x="1302" 
d="M123 0v1462h1087v-358h-630v-186h589v-359h-589v-201h671l-34 -358h-1094zM459 1581l-269 334h365l107 -135l104 135h375l-269 -334h-413z" />
    <glyph glyph-name="ecaron" unicode="&#x11b;" horiz-adv-x="1239" 
d="M637 817q-141 0 -152 -153h285q-4 82 -36 118t-97 35zM72 528q0 274 148 430t406 156t399 -147q142 -147 142 -410v-111h-684q4 -94 39 -136t109 -42q104 0 129 88h401q-66 -387 -524 -389q-273 -1 -419 143t-146 418zM430 1196l-268 354h358l105 -149l106 149h369
l-269 -354h-401z" />
    <glyph glyph-name="Gcircumflex" unicode="&#x11c;" horiz-adv-x="1576" 
d="M1047 502h-197v354h625v-696q-125 -94 -292 -146t-349 -51q-362 0 -558 197q-194 198 -194 564t194 570t539 205q272 0 442 -130t205 -365l-467 -39q-18 77 -61 111t-123 34q-133 0 -193 -88t-59 -290q0 -202 70 -291t231 -89q115 0 187 33v117zM926 1581l-107 135
l-104 -135h-375l268 334h414l268 -334h-364z" />
    <glyph glyph-name="gcircumflex" unicode="&#x11d;" horiz-adv-x="1314" 
d="M645 412q127 0 127 163v25q0 78 -32 123t-96 45t-100 -46q-34 -46 -34 -132q0 -178 135 -178zM1212 119q0 -539 -567 -539q-498 0 -532 402h419q8 -51 35 -74t89 -23t90 48t28 171v80q-98 -127 -292 -127t-302 134q-109 134 -108 387q0 332 202 470q98 67 234 66
q174 0 280 -127v94h424v-962zM807 1196l-107 147l-104 -147h-358l268 354h381l268 -354h-348z" />
    <glyph glyph-name="Gbreve" unicode="&#x11e;" horiz-adv-x="1576" 
d="M1047 502h-197v354h625v-696q-125 -94 -292 -146t-349 -51q-362 0 -558 197q-194 198 -194 564t194 570t539 205q272 0 442 -130t205 -365l-467 -39q-18 77 -61 111t-123 34q-133 0 -193 -88t-59 -290q0 -202 70 -291t231 -89q115 0 187 33v117zM1221 1915
q0 -164 -108 -254q-107 -90 -303 -90t-298 88t-102 256h305q0 -98 100 -98t100 98h306z" />
    <glyph glyph-name="gbreve" unicode="&#x11f;" horiz-adv-x="1314" 
d="M645 412q127 0 127 163v25q0 78 -32 123t-96 45t-100 -46q-34 -46 -34 -132q0 -178 135 -178zM1212 119q0 -539 -567 -539q-498 0 -532 402h419q8 -51 35 -74t89 -23t90 48t28 171v80q-98 -127 -292 -127t-302 134q-109 134 -108 387q0 332 202 470q98 67 234 66
q174 0 280 -127v94h424v-962zM797 1550h299q0 -172 -106 -266t-298 -94t-294 93q-101 93 -101 267h299q0 -55 26 -85t74 -29q101 0 101 114z" />
    <glyph glyph-name="Gdotaccent" unicode="&#x120;" horiz-adv-x="1576" 
d="M1047 502h-197v354h625v-696q-125 -94 -292 -146t-349 -51q-362 0 -558 197q-194 198 -194 564t194 570t539 205q272 0 442 -130t205 -365l-467 -39q-18 77 -61 111t-123 34q-133 0 -193 -88t-59 -290q0 -202 70 -291t231 -89q115 0 187 33v117zM590 1581v320h450v-320
h-450z" />
    <glyph glyph-name="gdotaccent" unicode="&#x121;" horiz-adv-x="1314" 
d="M645 412q127 0 127 163v25q0 78 -32 123t-96 45t-100 -46q-34 -46 -34 -132q0 -178 135 -178zM1212 119q0 -539 -567 -539q-498 0 -532 402h419q8 -51 35 -74t89 -23t90 48t28 171v80q-98 -127 -292 -127t-302 134q-109 134 -108 387q0 332 202 470q98 67 234 66
q174 0 280 -127v94h424v-962zM477 1206v287h438v-287h-438z" />
    <glyph glyph-name="uni0122" unicode="&#x122;" horiz-adv-x="1576" 
d="M1047 502h-197v354h625v-696q-125 -94 -292 -146t-349 -51q-362 0 -558 197q-194 198 -194 564t194 570t539 205q272 0 442 -130t205 -365l-467 -39q-18 77 -61 111t-123 34q-133 0 -193 -88t-59 -290q0 -202 70 -291t231 -89q115 0 187 33v117zM420 -498l180 363h467
l-264 -363h-383z" />
    <glyph glyph-name="uni0123" unicode="&#x123;" horiz-adv-x="1314" 
d="M645 412q127 0 127 163v25q0 78 -32 123t-96 45t-100 -46q-34 -46 -34 -132q0 -178 135 -178zM1212 119q0 -539 -567 -539q-498 0 -532 402h419q8 -51 35 -74t89 -23t90 48t28 171v80q-98 -127 -292 -127t-302 134q-109 134 -108 387q0 332 202 470q98 67 234 66
q174 0 280 -127v94h424v-962zM459 1196l260 354h393l-176 -354h-477z" />
    <glyph glyph-name="Hcircumflex" unicode="&#x124;" horiz-adv-x="1564" 
d="M977 0v549h-389v-549h-465v1462h465v-504h389v504h465v-1462h-465zM893 1581l-107 135l-104 -135h-375l268 334h414l268 -334h-364z" />
    <glyph glyph-name="hcircumflex" unicode="&#x125;" horiz-adv-x="1282" 
d="M829 1114q175 0 268 -101t93 -284v-729h-438v649q0 106 -86 107q-72 0 -107 -49q-18 -27 -18 -78v-629h-439v1462h439v-479q113 131 288 131zM705 1581l-107 135l-104 -135h-375l268 334h414l268 -334h-364z" />
    <glyph glyph-name="Hbar" unicode="&#x126;" horiz-adv-x="1691" 
d="M1040 1051h-389v-183h389v183zM1040 0v477h-389v-477h-465v1051h-166v280h166v131h465v-131h389v131h465v-131h166v-280h-166v-1051h-465z" />
    <glyph glyph-name="hbar" unicode="&#x127;" horiz-adv-x="1282" 
d="M829 1032q175 0 268 -101.5t93 -283.5v-647h-438v567q0 106 -86 107q-72 0 -107 -49q-18 -27 -18 -78v-547h-439v1118h-129v232h129v112h439v-112h284v-232h-284v-217q113 131 288 131z" />
    <glyph glyph-name="Itilde" unicode="&#x128;" horiz-adv-x="710" 
d="M123 0v1462h465v-1462h-465zM-90 1567q0 178 70 270t206 92q80 0 161 -38t116 -40q70 0 69 86h267q0 -178 -70 -270t-207 -92q-80 0 -163 39t-113 39q-70 0 -70 -86h-266z" />
    <glyph glyph-name="itilde" unicode="&#x129;" horiz-adv-x="643" 
d="M102 0v1081h439v-1081h-439zM754 1556q0 -362 -269 -362q-75 0 -156 39t-112 39q-67 0 -67 -86h-261q0 362 269 362q75 0 155 -38t113 -40q66 0 68 86h260z" />
    <glyph glyph-name="Imacron" unicode="&#x12a;" horiz-adv-x="710" 
d="M123 0v1462h465v-1462h-465zM2 1595v306h705v-306h-705z" />
    <glyph glyph-name="imacron" unicode="&#x12b;" horiz-adv-x="643" 
d="M102 0v1081h439v-1081h-439zM-20 1196v303h684v-303h-684z" />
    <glyph glyph-name="Ibreve" unicode="&#x12c;" horiz-adv-x="710" 
d="M123 0v1462h465v-1462h-465zM760 1915q0 -164 -108 -254t-304 -90t-297 88q-102 88 -102 256h305q0 -98 100 -98t101 98h305z" />
    <glyph glyph-name="ibreve" unicode="&#x12d;" horiz-adv-x="643" 
d="M102 0v1081h439v-1081h-439zM422 1550h299q1 -172 -105 -266t-298 -94t-294 93q-101 93 -102 267h299q0 -55 26 -85t75 -29q100 0 100 114z" />
    <glyph glyph-name="Iogonek" unicode="&#x12e;" horiz-adv-x="710" 
d="M408 -440q-314 0 -314 181q0 87 42 141t140 118h-153v1462h465v-1462q-84 -41 -119 -73t-35 -68q0 -55 82 -56q29 0 66 4v-233q-88 -14 -174 -14z" />
    <glyph glyph-name="iogonek" unicode="&#x12f;" horiz-adv-x="643" 
d="M102 1186v276h439v-276h-439zM369 -440q-303 0 -301 182q0 88 38 142t124 116h-128v1081h439v-1081q-80 -41 -112 -73t-32 -68q0 -54 76 -56q16 0 62 4v-233q-84 -14 -166 -14z" />
    <glyph glyph-name="Idotaccent" unicode="&#x130;" horiz-adv-x="710" 
d="M123 0v1462h465v-1462h-465zM129 1581v320h451v-320h-451z" />
    <glyph glyph-name="dotlessi" unicode="&#x131;" horiz-adv-x="643" 
d="M102 0v1081h439v-1081h-439z" />
    <glyph glyph-name="IJ" unicode="&#x132;" horiz-adv-x="2117" 
d="M123 0v1462h465v-1462h-465zM1540 1462h465v-895q0 -291 -161 -447t-460 -157q-298 0 -456 156t-166 459h463q8 -215 161 -216q154 0 154 185v915z" />
    <glyph glyph-name="ij" unicode="&#x133;" horiz-adv-x="1296" 
d="M102 1186v276h439v-276h-439zM102 0v1081h439v-1081h-439zM756 1186v276h438v-276h-438zM756 1081h438v-1042q0 -209 -99 -312t-302 -104q-145 0 -287 41l57 295q61 -10 92 -10q100 0 101 110v1022z" />
    <glyph glyph-name="Jcircumflex" unicode="&#x134;" horiz-adv-x="1406" 
d="M829 1462h465v-895q0 -291 -160 -447t-460 -157q-299 0 -457 156t-166 459h463q8 -215 162 -216q154 0 153 185v915zM1171 1581l-106 135l-104 -135h-375l268 334h414l268 -334h-365z" />
    <glyph glyph-name="jcircumflex" unicode="&#x135;" horiz-adv-x="653" 
d="M113 1081h438v-1042q0 -209 -99 -312t-302 -104q-145 0 -287 41l57 295q61 -10 92 -10q100 0 101 110v1022zM442 1196l-106 147l-105 -147h-358l268 354h381l269 -354h-349z" />
    <glyph glyph-name="uni0136" unicode="&#x136;" horiz-adv-x="1533" 
d="M588 0h-465v1462h465v-485l385 485h487l-454 -544l507 -918h-505l-303 578l-117 -142v-436zM403 -498l181 363h467l-265 -363h-383z" />
    <glyph glyph-name="uni0137" unicode="&#x137;" horiz-adv-x="1323" 
d="M520 0h-418v1462h418v-671l277 290h485l-371 -360l402 -721h-459l-236 453l-98 -97v-356zM289 -498l180 363h477l-264 -363h-393z" />
    <glyph glyph-name="kgreenlandic" unicode="&#x138;" horiz-adv-x="1323" 
d="M520 0h-418v1081h418v-317l293 317h469l-375 -389l406 -692h-459l-223 422l-111 -117v-305z" />
    <glyph glyph-name="Lacute" unicode="&#x139;" horiz-adv-x="1241" 
d="M123 0v1462h465v-1063h612l-39 -399h-1038zM498 1581h-410l262 334h496z" />
    <glyph glyph-name="lacute" unicode="&#x13a;" horiz-adv-x="643" 
d="M102 0v1462h439v-1462h-439zM465 1581h-410l262 334h496z" />
    <glyph glyph-name="uni013B" unicode="&#x13b;" horiz-adv-x="1241" 
d="M123 0v1462h465v-1063h612l-39 -399h-1038zM248 -498l180 363h467l-264 -363h-383z" />
    <glyph glyph-name="uni013C" unicode="&#x13c;" horiz-adv-x="643" 
d="M102 0v1462h439v-1462h-439zM-96 -498l180 363h477l-264 -363h-393z" />
    <glyph glyph-name="Lcaron" unicode="&#x13d;" horiz-adv-x="1261" 
d="M123 0v1462h465v-1063h612l-39 -399h-1038zM741 858l70 604h403l-147 -604h-326z" />
    <glyph glyph-name="lcaron" unicode="&#x13e;" horiz-adv-x="643" 
d="M102 0v1462h439v-1462h-439zM664 858l69 604h404l-148 -604h-325z" />
    <glyph glyph-name="Ldot" unicode="&#x13f;" horiz-adv-x="1261" 
d="M123 0v1462h465v-1063h612l-39 -399h-1038zM760 694v441h407v-441h-407z" />
    <glyph glyph-name="ldot" unicode="&#x140;" horiz-adv-x="1136" 
d="M102 0v1462h439v-1462h-439zM686 545v440h408v-440h-408z" />
    <glyph glyph-name="Lslash" unicode="&#x141;" horiz-adv-x="1302" 
d="M184 0v391l-164 -96v399l164 97v671h465v-397l289 170v-399l-289 -170v-267h613l-39 -399h-1039z" />
    <glyph glyph-name="lslash" unicode="&#x142;" horiz-adv-x="868" 
d="M215 0v498l-184 -95v355l184 92v612h438v-393l185 94v-348l-185 -94v-721h-438z" />
    <glyph glyph-name="Nacute" unicode="&#x143;" horiz-adv-x="1546" 
d="M557 0h-434v1462h399l467 -739v739h434v-1462h-395l-471 743v-743zM915 1581h-409l262 334h496z" />
    <glyph glyph-name="nacute" unicode="&#x144;" horiz-adv-x="1282" 
d="M752 0v649q0 106 -86 107q-72 0 -107 -49q-18 -27 -18 -78v-629h-439v1081h426v-112q120 145 298 145t271 -101t93 -284v-729h-438zM393 1196l262 354h465l-348 -354h-379z" />
    <glyph glyph-name="uni0145" unicode="&#x145;" horiz-adv-x="1546" 
d="M557 0h-434v1462h399l467 -739v739h434v-1462h-395l-471 743v-743zM358 -498l181 363h467l-265 -363h-383z" />
    <glyph glyph-name="uni0146" unicode="&#x146;" horiz-adv-x="1282" 
d="M752 0v649q0 106 -86 107q-72 0 -107 -49q-18 -27 -18 -78v-629h-439v1081h426v-112q120 145 298 145t271 -101t93 -284v-729h-438zM227 -498l181 363h477l-264 -363h-394z" />
    <glyph glyph-name="Ncaron" unicode="&#x147;" horiz-adv-x="1546" 
d="M557 0h-434v1462h399l467 -739v739h434v-1462h-395l-471 743v-743zM565 1581l-268 334h365l106 -135l104 135h375l-268 -334h-414z" />
    <glyph glyph-name="ncaron" unicode="&#x148;" horiz-adv-x="1282" 
d="M752 0v649q0 106 -86 107q-72 0 -107 -49q-18 -27 -18 -78v-629h-439v1081h426v-112q120 145 298 145t271 -101t93 -284v-729h-438zM444 1196l-268 354h359l104 -149l106 149h369l-268 -354h-402z" />
    <glyph glyph-name="napostrophe" unicode="&#x149;" horiz-adv-x="1701" 
d="M1171 0v649q0 106 -86 107q-72 0 -106 -49q-18 -27 -18 -78v-629h-439v1081h426v-112q119 145 297 145q177 0 271 -101t94 -284v-729h-439zM23 838l73 624h414l-152 -624h-335z" />
    <glyph glyph-name="Eng" unicode="&#x14a;" horiz-adv-x="1546" 
d="M557 0h-434v1462h399l467 -739v739h434v-1390q0 -270 -110.5 -390t-358.5 -120q-191 0 -336 49l82 338q194 -44 243.5 -3.5t53.5 101.5l-440 696v-743z" />
    <glyph glyph-name="eng" unicode="&#x14b;" horiz-adv-x="1282" 
d="M752 649q0 106 -86 107q-72 0 -107 -49q-18 -31 -18 -78v-629h-439v1081h426v-112q120 145 298 145t271 -101.5t93 -283.5v-690q0 -211 -91 -313.5t-280 -102.5q-115 0 -266 41l57 295q35 -10 66 -10q76 0 76 110v590z" />
    <glyph glyph-name="Omacron" unicode="&#x14c;" horiz-adv-x="1638" 
d="M819 362q256 0 256 369t-256 369t-256 -369t256 -369zM825 1499q347 0 539 -199q192 -198 192 -564t-196 -570t-545 -203q-350 0 -542 199q-191 199 -191 563q0 240 86 414t253 267t404 93zM473 1595v306h705v-306h-705z" />
    <glyph glyph-name="omacron" unicode="&#x14d;" horiz-adv-x="1284" 
d="M774 540q0 224 -132 224t-132 -224t132 -223q132 -1 132 223zM637 -33q-273 1 -419 147t-146 422t150 427q151 151 425 151q273 0 419 -146t146 -422t-150 -427q-150 -152 -425 -152zM299 1196v303h684v-303h-684z" />
    <glyph glyph-name="Obreve" unicode="&#x14e;" horiz-adv-x="1638" 
d="M819 362q256 0 256 369t-256 369t-256 -369t256 -369zM825 1499q347 0 539 -199q192 -198 192 -564t-196 -570t-545 -203q-350 0 -542 199q-191 199 -191 563q0 240 86 414t253 267t404 93zM1231 1915q0 -164 -108 -254q-107 -90 -303 -90t-298 88t-102 256h305
q0 -98 100 -98t101 98h305z" />
    <glyph glyph-name="obreve" unicode="&#x14f;" horiz-adv-x="1284" 
d="M774 540q0 224 -132 224t-132 -224t132 -223q132 -1 132 223zM637 -33q-273 1 -419 147t-146 422t150 427q151 151 425 151q273 0 419 -146t146 -422t-150 -427q-150 -152 -425 -152zM1040 1550q0 -172 -105 -266t-297 -94t-295 93q-101 93 -101 267h299q0 -116 100 -114
q102 0 100 114h299z" />
    <glyph glyph-name="Ohungarumlaut" unicode="&#x150;" horiz-adv-x="1638" 
d="M819 362q256 0 256 369t-256 369t-256 -369t256 -369zM825 1499q347 0 539 -199q192 -198 192 -564t-196 -570t-545 -203q-350 0 -542 199q-191 199 -191 563q0 240 86 414t253 267t404 93zM907 1581l232 334h401l-299 -334h-334zM408 1581l231 334h401l-299 -334h-333z
" />
    <glyph glyph-name="ohungarumlaut" unicode="&#x151;" horiz-adv-x="1284" 
d="M774 540q0 224 -132 224t-132 -224t132 -223q132 -1 132 223zM637 -33q-273 1 -419 147t-146 422t150 427q151 151 425 151q273 0 419 -146t146 -422t-150 -427q-150 -152 -425 -152zM723 1196l231 354h392l-299 -354h-324zM233 1196l232 354h391l-299 -354h-324z" />
    <glyph glyph-name="OE" unicode="&#x152;" horiz-adv-x="2162" 
d="M809 362q225 0 225 345v77q0 152 -58 234t-173 82t-177.5 -94.5t-62.5 -274.5t63.5 -274.5t182.5 -94.5zM1034 0v76q-127 -113 -320 -113t-333.5 91t-219.5 264.5t-79 402.5t75.5 404t219 274.5t338.5 99.5t319 -106v69h1037v-358h-580v-186h539v-359h-539v-201h620
l-34 -358h-1043z" />
    <glyph glyph-name="oe" unicode="&#x153;" horiz-adv-x="1910" 
d="M1317 817q-129 0 -139 -153h262q-2 80 -31 116.5t-92 36.5zM510 540.5q0 -223.5 126 -223.5t126 223.5t-126 223.5t-126 -223.5zM1312 -33q-228 0 -347 121q-127 -121 -368 -121t-383 150.5t-142 420.5t145 423t390 153t368 -127q127 127 357 127t367.5 -148.5
t137.5 -408.5v-111h-661q4 -94 36.5 -136t98.5 -42q96 0 119 88h401q-31 -190 -161 -289.5t-358 -99.5z" />
    <glyph glyph-name="Racute" unicode="&#x154;" horiz-adv-x="1441" 
d="M715 807q100 0 146 37t46 119q0 83 -46 119t-146 36h-156v-311h156zM559 469v-469h-436v1462h627q294 0 444 -121t149 -358q0 -283 -215 -422l304 -561h-476l-233 469h-164zM815 1581h-409l262 334h495z" />
    <glyph glyph-name="racute" unicode="&#x155;" horiz-adv-x="946" 
d="M766 737q-227 0 -225 -192v-545h-439v1081h426v-118q106 137 297 137q59 0 111 -13l-47 -362q-63 12 -123 12zM266 1196l262 354h465l-348 -354h-379z" />
    <glyph glyph-name="Rcommaaccent" unicode="&#x156;" horiz-adv-x="1441" 
d="M715 807q100 0 146 37t46 119q0 83 -46 119t-146 36h-156v-311h156zM559 469v-469h-436v1462h627q294 0 444 -121t149 -358q0 -283 -215 -422l304 -561h-476l-233 469h-164zM362 -498l181 363h467l-265 -363h-383z" />
    <glyph glyph-name="rcommaaccent" unicode="&#x157;" horiz-adv-x="946" 
d="M766 737q-227 0 -225 -192v-545h-439v1081h426v-118q106 137 297 137q59 0 111 -13l-47 -362q-63 12 -123 12zM-96 -498l180 363h477l-264 -363h-393z" />
    <glyph glyph-name="Rcaron" unicode="&#x158;" horiz-adv-x="1441" 
d="M715 807q100 0 146 37t46 119q0 83 -46 119t-146 36h-156v-311h156zM559 469v-469h-436v1462h627q294 0 444 -121t149 -358q0 -283 -215 -422l304 -561h-476l-233 469h-164zM465 1581l-268 334h364l107 -135l104 135h375l-268 -334h-414z" />
    <glyph glyph-name="rcaron" unicode="&#x159;" horiz-adv-x="946" 
d="M766 737q-227 0 -225 -192v-545h-439v1081h426v-118q106 137 297 137q59 0 111 -13l-47 -362q-63 12 -123 12zM317 1196l-268 354h359l104 -149l106 149h369l-268 -354h-402z" />
    <glyph glyph-name="Sacute" unicode="&#x15a;" horiz-adv-x="1415" 
d="M901 426q0 43 -30 68t-101 38l-199 39q-251 49 -369 158t-118 291q0 227 164 353t452 126t448 -118t179 -334l-453 -41q-18 78 -58 108t-120 31q-159 0 -159 -94q1 -37 31 -60t102 -37l196 -41q260 -55 375 -160t115 -292q0 -242 -167 -370t-477 -128q-621 0 -659 522
h459q23 -168 223 -168q166 0 166 109zM852 1581h-410l263 334h495z" />
    <glyph glyph-name="sacute" unicode="&#x15b;" horiz-adv-x="1144" 
d="M74 776q0 156 131 247t373 91q453 0 512 -334l-410 -35q-16 91 -106 91t-91 -62q0 -27 22 -43t75 -26l110 -23q164 -35 252 -79q88 -45 125 -109t37 -164q0 -178 -129 -270t-379 -93q-516 0 -545 381h414q15 -82 120 -83t103 61q0 29 -21 45q-22 16 -67 24l-108 21
q-223 41 -321 122q-97 82 -97 238zM326 1196l262 354h465l-348 -354h-379z" />
    <glyph glyph-name="Scircumflex" unicode="&#x15c;" horiz-adv-x="1415" 
d="M901 426q0 43 -30 68t-101 38l-199 39q-251 49 -369 158t-118 291q0 227 164 353t452 126t448 -118t179 -334l-453 -41q-18 78 -58 108t-120 31q-159 0 -159 -94q1 -37 31 -60t102 -37l196 -41q260 -55 375 -160t115 -292q0 -242 -167 -370t-477 -128q-621 0 -659 522
h459q23 -168 223 -168q166 0 166 109zM819 1581l-106 135l-105 -135h-375l269 334h413l269 -334h-365z" />
    <glyph glyph-name="scircumflex" unicode="&#x15d;" horiz-adv-x="1144" 
d="M74 776q0 156 131 247t373 91q453 0 512 -334l-410 -35q-16 91 -106 91t-91 -62q0 -27 22 -43t75 -26l110 -23q164 -35 252 -79q88 -45 125 -109t37 -164q0 -178 -129 -270t-379 -93q-516 0 -545 381h414q15 -82 120 -83t103 61q0 29 -21 45q-22 16 -67 24l-108 21
q-223 41 -321 122q-97 82 -97 238zM688 1196l-106 147l-105 -147h-358l268 354h381l268 -354h-348z" />
    <glyph glyph-name="Scedilla" unicode="&#x15e;" horiz-adv-x="1415" 
d="M901 426q0 43 -30 68t-101 38l-199 39q-251 49 -369 158t-118 291q0 227 164 353t452 126t448 -118t179 -334l-453 -41q-18 78 -58 108t-120 31q-159 0 -159 -94q1 -37 31 -60t102 -37l196 -41q260 -55 375 -160t115 -292q0 -242 -167 -370q-145 -111 -401 -126l-20 -53
q215 -31 215 -197q0 -94 -84 -145t-237 -51q-82 0 -187 16v178q75 -8 149 -8t74 47q0 27 -25 38q-26 11 -85 11h-72l68 168q-497 50 -531 516h459q23 -168 223 -168q166 0 166 109z" />
    <glyph glyph-name="scedilla" unicode="&#x15f;" horiz-adv-x="1144" 
d="M74 776q0 156 131 247t373 91q453 0 512 -334l-410 -35q-16 91 -106 91t-91 -62q0 -27 22 -43t75 -26l110 -23q164 -35 252 -79q88 -45 125 -109t37 -164q0 -178 -120 -264t-315 -97l-22 -57q109 -16 159 -62t50 -135q0 -88 -81 -137t-234 -49q-72 0 -183 16v179
q82 -8 134 -9q86 0 86 43q0 25 -24 34t-85 9h-70l70 173q-393 43 -418 374h414q15 -82 120 -83t103 61q0 29 -21 45q-22 16 -67 24l-108 21q-223 41 -321 122q-97 82 -97 238z" />
    <glyph glyph-name="Scaron" unicode="&#x160;" horiz-adv-x="1415" 
d="M901 426q0 43 -30 68t-101 38l-199 39q-251 49 -369 158t-118 291q0 227 164 353t452 126t448 -118t179 -334l-453 -41q-18 78 -58 108t-120 31q-159 0 -159 -94q1 -37 31 -60t102 -37l196 -41q260 -55 375 -160t115 -292q0 -242 -167 -370t-477 -128q-621 0 -659 522
h459q23 -168 223 -168q166 0 166 109zM502 1581l-269 334h365l107 -135l104 135h375l-269 -334h-413z" />
    <glyph glyph-name="scaron" unicode="&#x161;" horiz-adv-x="1144" 
d="M74 776q0 156 131 247t373 91q453 0 512 -334l-410 -35q-16 91 -106 91t-91 -62q0 -27 22 -43t75 -26l110 -23q164 -35 252 -79q88 -45 125 -109t37 -164q0 -178 -129 -270t-379 -93q-516 0 -545 381h414q15 -82 120 -83t103 61q0 29 -21 45q-22 16 -67 24l-108 21
q-223 41 -321 122q-97 82 -97 238zM377 1196l-268 354h358l104 -149l107 149h369l-269 -354h-401z" />
    <glyph glyph-name="uni0162" unicode="&#x162;" horiz-adv-x="1382" 
d="M645 -481q-82 0 -186 16v178q75 -8 149 -8t74 47q0 27 -26 38t-85 11h-71l80 199h-121v1063h-408v399h1280v-399h-407v-1063h-140l-32 -88q213 -31 215 -197q0 -94 -84 -145t-238 -51z" />
    <glyph glyph-name="uni0163" unicode="&#x163;" horiz-adv-x="940" 
d="M645 446q0 -114 113 -112q47 0 98 12l53 -317q-127 -42 -256 -47l-26 -70q109 -16 159 -62t50 -135q0 -88 -81 -137t-235 -49q-72 0 -182 16v179q82 -8 133 -9q86 0 86 43q0 25 -23 34q-24 9 -85 9h-70l80 198q-99 25 -156 85q-96 102 -96 338v317h-176v342h176v281h438
v-281h223v-342h-223v-293z" />
    <glyph glyph-name="Tcaron" unicode="&#x164;" horiz-adv-x="1382" 
d="M459 0v1063h-408v399h1280v-399h-407v-1063h-465zM483 1581l-268 334h365l106 -135l105 135h374l-268 -334h-414z" />
    <glyph glyph-name="tcaron" unicode="&#x165;" horiz-adv-x="940" 
d="M645 446q0 -114 113 -112q47 0 98 12l53 -317q-141 -47 -286 -47q-223 0 -320 102q-96 102 -96 338v317h-176v342h176v281h438v-281h223v-342h-223v-293zM735 1186l29 397h342l-107 -397h-264z" />
    <glyph glyph-name="Tbar" unicode="&#x166;" horiz-adv-x="1382" 
d="M459 0v416h-246v360h246v287h-408v399h1280v-399h-407v-287h245v-360h-245v-416h-465z" />
    <glyph glyph-name="tbar" unicode="&#x167;" horiz-adv-x="991" 
d="M676 446q0 -112 112 -112q47 0 99 12l53 -317q-141 -47 -287 -47q-223 0 -319 102t-96 338v35h-177v231h177v113h-177v280h177v281h438v-281h223v-280h-223v-113h223v-231h-223v-11z" />
    <glyph glyph-name="Utilde" unicode="&#x168;" horiz-adv-x="1511" 
d="M934 1462h465v-850q0 -319 -164 -484t-485 -165q-637 0 -637 649v850h465v-870q0 -121 42 -175q42 -55 136 -55t136 54t42 176v870zM311 1567q0 178 70 270t207 92q80 0 162 -38t114 -40q70 0 70 86h266q0 -178 -70 -270t-206 -92q-80 0 -163 39t-114 39q-70 0 -69 -86
h-267z" />
    <glyph glyph-name="utilde" unicode="&#x169;" horiz-adv-x="1271" 
d="M743 0v113q-119 -145 -293 -145t-266 100q-92 102 -92 284v729h438v-655q0 -100 82 -100q70 0 101 47q18 29 18 73v635h438v-1081h-426zM1063 1556q0 -362 -268 -362q-76 0 -157 39t-112 39q-67 0 -67 -86h-260q0 362 268 362q76 0 155 -38t113 -40q66 0 68 86h260z" />
    <glyph glyph-name="Umacron" unicode="&#x16a;" horiz-adv-x="1511" 
d="M934 1462h465v-850q0 -319 -164 -484t-485 -165q-637 0 -637 649v850h465v-870q0 -121 42 -175q42 -55 136 -55t136 54t42 176v870zM403 1595v306h705v-306h-705z" />
    <glyph glyph-name="umacron" unicode="&#x16b;" horiz-adv-x="1271" 
d="M743 0v113q-119 -145 -293 -145t-266 100q-92 102 -92 284v729h438v-655q0 -100 82 -100q70 0 101 47q18 29 18 73v635h438v-1081h-426zM289 1196v303h684v-303h-684z" />
    <glyph glyph-name="Ubreve" unicode="&#x16c;" horiz-adv-x="1511" 
d="M934 1462h465v-850q0 -319 -164 -484t-485 -165q-637 0 -637 649v850h465v-870q0 -121 42 -175q42 -55 136 -55t136 54t42 176v870zM1161 1915q1 -164 -107 -254t-304 -90t-297 88q-102 88 -103 256h305q1 -98 101 -98t100 98h305z" />
    <glyph glyph-name="ubreve" unicode="&#x16d;" horiz-adv-x="1271" 
d="M743 0v113q-119 -145 -293 -145t-266 100q-92 102 -92 284v729h438v-655q0 -100 82 -100q70 0 101 47q18 29 18 73v635h438v-1081h-426zM1030 1550q0 -172 -105 -266t-297 -94t-295 93q-101 93 -102 267h299q0 -55 26 -85t75 -29q102 0 100 114h299z" />
    <glyph glyph-name="Uring" unicode="&#x16e;" horiz-adv-x="1511" 
d="M934 1462h465v-850q0 -319 -164 -484t-485 -165q-637 0 -637 649v850h465v-870q0 -121 42 -175q42 -55 136 -55t136 54t42 176v870zM676 1790q0 -82 80 -82q38 0 60 22t22 60t-22 60t-60 22q-80 0 -80 -82zM1047 1790q0 -125 -79 -201t-211 -76t-211 76t-79 201t79 201
q79 75 211 75t211 -76t79 -200z" />
    <glyph glyph-name="uring" unicode="&#x16f;" horiz-adv-x="1271" 
d="M743 0v113q-119 -145 -293 -145t-266 100q-92 102 -92 284v729h438v-655q0 -100 82 -100q70 0 101 47q18 29 18 73v635h438v-1081h-426zM555 1430q0 -78 76 -78q37 0 57 20t21 58q0 77 -77 77q-77 1 -77 -77zM907 1430q0 -119 -76 -192q-75 -73 -199 -73t-200 73t-76 192
q0 120 76 192t200 72t200 -72t75 -192z" />
    <glyph glyph-name="Uhungarumlaut" unicode="&#x170;" horiz-adv-x="1511" 
d="M934 1462h465v-850q0 -319 -164 -484t-485 -165q-637 0 -637 649v850h465v-870q0 -121 42 -175q42 -55 136 -55t136 54t42 176v870zM838 1581l231 334h401l-299 -334h-333zM338 1581l231 334h402l-299 -334h-334z" />
    <glyph glyph-name="uhungarumlaut" unicode="&#x171;" horiz-adv-x="1271" 
d="M743 0v113q-119 -145 -293 -145t-266 100q-92 102 -92 284v729h438v-655q0 -100 82 -100q70 0 101 47q18 29 18 73v635h438v-1081h-426zM713 1196l231 354h391l-299 -354h-323zM223 1196l232 354h391l-299 -354h-324z" />
    <glyph glyph-name="Uogonek" unicode="&#x172;" horiz-adv-x="1511" 
d="M879 -440q-314 0 -314 181q1 87 37 133t94 90q-583 27 -583 648v850h465v-870q0 -121 42 -175q42 -55 136 -55t136 54t42 176v870h465v-850q0 -319 -164 -484q-95 -96 -243 -136q-87 -60 -87 -123q0 -37 23 -54t125 -8v-233q-88 -14 -174 -14z" />
    <glyph glyph-name="uogonek" unicode="&#x173;" horiz-adv-x="1271" 
d="M997 -440q-301 0 -301 182q0 88 38 142t125 116h-116v113q-119 -145 -293 -145t-266 100q-92 102 -92 284v729h438v-655q0 -100 82 -100q70 0 101 47q18 29 18 73v635h438v-1081q-79 -41 -111 -73q-32 -33 -32 -65t21 -48t116 -7v-233q-84 -14 -166 -14z" />
    <glyph glyph-name="Wcircumflex" unicode="&#x174;" horiz-adv-x="2107" 
d="M1214 0l-161 819l-160 -819h-485l-367 1462h487l150 -905l176 895h410l174 -895l151 905h477l-366 -1462h-486zM1163 1581l-106 135l-105 -135h-374l268 334h414l268 -334h-365z" />
    <glyph glyph-name="wcircumflex" unicode="&#x175;" horiz-adv-x="1710" 
d="M999 0l-141 553l-133 -553h-408l-297 1081h426l115 -573l135 563h332l139 -545l111 555h412l-297 -1081h-394zM965 1196l-107 147l-104 -147h-359l269 354h380l269 -354h-348z" />
    <glyph glyph-name="Ycircumflex" unicode="&#x176;" horiz-adv-x="1466" 
d="M500 0v543l-480 919h494l223 -532l226 532h483l-479 -919v-543h-467zM844 1581l-107 135l-104 -135h-375l268 334h414l268 -334h-364z" />
    <glyph glyph-name="ycircumflex" unicode="&#x177;" horiz-adv-x="1261" 
d="M304 -57q50 -1 83 27t55 93l17 48l-439 970h459l168 -520l150 520h444l-428 -1063q-72 -176 -132 -262t-131 -120q-70 -34 -196 -34t-250 46l64 313q86 -18 136 -18zM741 1196l-106 147l-105 -147h-358l268 354h381l269 -354h-349z" />
    <glyph glyph-name="Ydieresis" unicode="&#x178;" horiz-adv-x="1466" 
d="M500 0v543l-480 919h494l223 -532l226 532h483l-479 -919v-543h-467zM786 1581v320h398v-320h-398zM283 1581v320h399v-320h-399z" />
    <glyph glyph-name="Zacute" unicode="&#x179;" horiz-adv-x="1343" 
d="M82 0v332l598 755h-584v375h1139v-334l-596 -753h643l-37 -375h-1163zM809 1581h-410l263 334h495z" />
    <glyph glyph-name="zacute" unicode="&#x17a;" horiz-adv-x="1107" 
d="M72 0v268l436 482h-426v331h958v-268l-436 -481h463l-33 -332h-962zM309 1196l262 354h465l-348 -354h-379z" />
    <glyph glyph-name="Zdotaccent" unicode="&#x17b;" horiz-adv-x="1343" 
d="M82 0v332l598 755h-584v375h1139v-334l-596 -753h643l-37 -375h-1163zM440 1581v320h451v-320h-451z" />
    <glyph glyph-name="zdotaccent" unicode="&#x17c;" horiz-adv-x="1107" 
d="M72 0v268l436 482h-426v331h958v-268l-436 -481h463l-33 -332h-962zM342 1206v287h438v-287h-438z" />
    <glyph glyph-name="Zcaron" unicode="&#x17d;" horiz-adv-x="1343" 
d="M82 0v332l598 755h-584v375h1139v-334l-596 -753h643l-37 -375h-1163zM459 1581l-269 334h365l107 -135l104 135h375l-269 -334h-413z" />
    <glyph glyph-name="zcaron" unicode="&#x17e;" horiz-adv-x="1107" 
d="M72 0v268l436 482h-426v331h958v-268l-436 -481h463l-33 -332h-962zM360 1196l-268 354h359l104 -149l107 149h368l-268 -354h-402z" />
    <glyph glyph-name="longs" unicode="&#x17f;" horiz-adv-x="663" 
d="M102 0v1038q0 211 112 326t321 115q135 0 280 -43l-53 -301q-56 14 -112 14t-82.5 -25.5t-26.5 -85.5v-1038h-439z" />
    <glyph glyph-name="florin" unicode="&#x192;" horiz-adv-x="897" 
d="M645 39q0 -416 -401 -416q-145 0 -287 41l57 295q61 -10 92 -10q100 0 101 110v621h-176v342h176v16q0 213 114.5 327t329.5 114q129 0 289 -43l-53 -301q-73 14 -129 14t-84.5 -25.5t-28.5 -85.5v-16h223v-342h-223v-641z" />
    <glyph glyph-name="uni0218" unicode="&#x218;" horiz-adv-x="1415" 
d="M901 426q0 43 -30 68t-101 38l-199 39q-251 49 -369 158t-118 291q0 227 164 353t452 126t448 -118t179 -334l-453 -41q-18 78 -58 108t-120 31q-159 0 -159 -94q1 -37 31 -60t102 -37l196 -41q260 -55 375 -160t115 -292q0 -242 -167 -370t-477 -128q-621 0 -659 522
h459q23 -168 223 -168q166 0 166 109zM293 -498l180 363h467l-264 -363h-383z" />
    <glyph glyph-name="uni0219" unicode="&#x219;" horiz-adv-x="1144" 
d="M74 776q0 156 131 247t373 91q453 0 512 -334l-410 -35q-16 91 -106 91t-91 -62q0 -27 22 -43t75 -26l110 -23q164 -35 252 -79q88 -45 125 -109t37 -164q0 -178 -129 -270t-379 -93q-516 0 -545 381h414q15 -82 120 -83t103 61q0 29 -21 45q-22 16 -67 24l-108 21
q-223 41 -321 122q-97 82 -97 238zM160 -498l180 363h477l-264 -363h-393z" />
    <glyph glyph-name="uni021A" unicode="&#x21a;" horiz-adv-x="1382" 
d="M459 0v1063h-408v399h1280v-399h-407v-1063h-465zM276 -498l181 363h467l-265 -363h-383z" />
    <glyph glyph-name="uni021B" unicode="&#x21b;" horiz-adv-x="940" 
d="M645 446q0 -114 113 -112q47 0 98 12l53 -317q-141 -47 -286 -47q-223 0 -320 102q-96 102 -96 338v317h-176v342h176v281h438v-281h223v-342h-223v-293zM139 -498l180 363h478l-265 -363h-393z" />
    <glyph glyph-name="uni0237" unicode="&#x237;" horiz-adv-x="653" 
d="M551 39q0 -416 -401 -416q-145 0 -287 41l57 295q61 -10 92 -10q100 0 101 110v1022h438v-1042z" />
    <glyph glyph-name="uni02BC" unicode="&#x2bc;" horiz-adv-x="1282" 
d="M397 838l74 624h414l-152 -624h-336z" />
    <glyph glyph-name="circumflex" unicode="&#x2c6;" horiz-adv-x="1282" 
d="M752 1196l-107 147l-104 -147h-359l269 354h380l269 -354h-348z" />
    <glyph glyph-name="caron" unicode="&#x2c7;" horiz-adv-x="1282" 
d="M440 1196l-268 354h358l105 -149l106 149h369l-268 -354h-402z" />
    <glyph glyph-name="uni02C9" unicode="&#x2c9;" horiz-adv-x="1282" 
d="M299 1196v303h684v-303h-684z" />
    <glyph glyph-name="uni02CB" unicode="&#x2cb;" horiz-adv-x="1282" 
d="M627 1196l-348 354h464l263 -354h-379z" />
    <glyph glyph-name="breve" unicode="&#x2d8;" horiz-adv-x="1282" 
d="M1040 1550q0 -172 -105 -266t-297 -94t-295 93q-101 93 -101 267h299q0 -116 100 -114q102 0 100 114h299z" />
    <glyph glyph-name="dotaccent" unicode="&#x2d9;" horiz-adv-x="1282" 
d="M422 1206v287h438v-287h-438z" />
    <glyph glyph-name="ring" unicode="&#x2da;" horiz-adv-x="1282" 
d="M639 1352q37 0 57 20t21 58q0 77 -76 77q-76 1 -77 -77t75 -78zM915 1430q1 -119 -75 -192t-200 -73t-200 73t-75 192q-1 120 75 192t200 72t200 -72t75 -192z" />
    <glyph glyph-name="ogonek" unicode="&#x2db;" horiz-adv-x="1282" 
d="M705 -440q-302 0 -302 182q0 88 40 145t141 125l293 -12q-80 -41 -112 -73t-32 -68q0 -54 76 -56q16 0 61 4v-233q-84 -14 -165 -14z" />
    <glyph glyph-name="tilde" unicode="&#x2dc;" horiz-adv-x="1282" 
d="M813 1556h260q0 -362 -268 -362q-76 0 -157 39t-111 39q-68 0 -68 -86h-260q0 362 268 362q76 0 155 -38t113 -40q68 0 68 86z" />
    <glyph glyph-name="hungarumlaut" unicode="&#x2dd;" horiz-adv-x="1282" 
d="M573 1196l232 354h391l-299 -354h-324zM84 1196l231 354h392l-299 -354h-324z" />
    <glyph glyph-name="gravecomb" unicode="&#x300;" horiz-adv-x="0" 
d="M-127 1196l-348 354h465l262 -354h-379z" />
    <glyph glyph-name="acutecomb" unicode="&#x301;" horiz-adv-x="0" 
d="M-252 1196l262 354h465l-348 -354h-379z" />
    <glyph glyph-name="uni0302" unicode="&#x302;" horiz-adv-x="0" 
d="M111 1196l-107 147l-104 -147h-359l269 354h380l269 -354h-348z" />
    <glyph glyph-name="tildecomb" unicode="&#x303;" horiz-adv-x="0" 
d="M104 1470q68 0 68 86h260q0 -362 -268 -362q-76 0 -157 39t-111 39q-68 0 -68 -86h-260q0 362 268 362q76 0 157 -39t111 -39z" />
    <glyph glyph-name="uni0304" unicode="&#x304;" horiz-adv-x="0" 
d="M-342 1196v303h684v-303h-684z" />
    <glyph glyph-name="uni0306" unicode="&#x306;" horiz-adv-x="0" 
d="M0 1436q100 0 100 114h299q0 -172 -105.5 -266t-297.5 -94t-293.5 93t-101.5 267h299q0 -114 100 -114z" />
    <glyph glyph-name="uni0307" unicode="&#x307;" horiz-adv-x="0" 
d="M-219 1206v287h438v-287h-438z" />
    <glyph glyph-name="uni0308" unicode="&#x308;" horiz-adv-x="0" 
d="M53 1206v287h377v-287h-377zM-430 1206v287h379v-287h-379z" />
    <glyph glyph-name="uni030A" unicode="&#x30a;" horiz-adv-x="0" 
d="M-76 1429.5q0 -77.5 56.5 -77.5t77 20.5t20.5 57t-20.5 57t-77 20.5t-56.5 -77.5zM276 1429.5q0 -118.5 -75.5 -191.5t-199.5 -73t-199.5 73t-75.5 191.5t75.5 191.5t199.5 73t199.5 -73t75.5 -191.5z" />
    <glyph glyph-name="uni030B" unicode="&#x30b;" horiz-adv-x="0" 
d="M82 1196l231 354h392l-299 -354h-324zM-408 1196l232 354h391l-299 -354h-324z" />
    <glyph glyph-name="uni030C" unicode="&#x30c;" horiz-adv-x="0" 
d="M-201 1196l-268 354h358l105 -149l106 149h369l-268 -354h-402z" />
    <glyph glyph-name="uni0312" unicode="&#x312;" horiz-adv-x="0" 
d="M-238 1196l261 354h393l-176 -354h-478z" />
    <glyph glyph-name="uni0315" unicode="&#x315;" horiz-adv-x="0" 
d="M-164 858l70 604h403l-147 -604h-326z" />
    <glyph glyph-name="uni0326" unicode="&#x326;" horiz-adv-x="0" 
d="M-418 -498l180 363h478l-265 -363h-393z" />
    <glyph glyph-name="uni0327" unicode="&#x327;" horiz-adv-x="0" 
d="M0 -242q0 25 -23.5 34t-85.5 9h-69l90 224l190 -25l-32 -88q109 -16 159 -62.5t50 -134.5t-81 -137t-235 -49q-72 0 -182 16v179q82 -8 133 -9q86 0 86 43z" />
    <glyph glyph-name="uni0328" unicode="&#x328;" horiz-adv-x="0" 
d="M-16 -440q-301 0 -301 182q0 88 39.5 145.5t140.5 124.5l293 -12q-80 -41 -112 -72.5t-32 -68.5q0 -56 76 -56q16 0 62 4v-233q-84 -14 -166 -14z" />
    <glyph glyph-name="uni0394" unicode="&#x394;" horiz-adv-x="1560" 
d="M774 1038l-182 -665h364zM41 0l455 1462h573l451 -1462h-1479z" />
    <glyph glyph-name="uni03A9" unicode="&#x3a9;" horiz-adv-x="1644" 
d="M899 0v356q86 64 127 158t41 238q0 348 -244 348t-243 -348q0 -144 41 -238t127 -158v-356h-697v365h230q-95 95 -137 203t-42 249q0 205 86 359t251 238t385 85q220 0 381 -78t250 -226t89 -353q0 -295 -178 -477h227l-37 -365h-657z" />
    <glyph glyph-name="uni03BC" unicode="&#x3bc;" horiz-adv-x="1282" 
d="M754 0v113q-66 -115 -172 -115q-25 0 -43 6v-399h-437v1476h439v-655q0 -100 82 -100q66 0 100 47q18 29 18 73v635h439v-1081h-426z" />
    <glyph glyph-name="pi" unicode="&#x3c0;" horiz-adv-x="1456" 
d="M788 330v409h-163v-739h-439v739h-155v342h1355v-342h-159v-340q0 -92 56 -92t81 8l51 -313q-131 -43 -293 -43q-334 0 -334 371z" />
    <glyph glyph-name="Wgrave" unicode="&#x1e80;" horiz-adv-x="2107" 
d="M1214 0l-161 819l-160 -819h-485l-367 1462h487l150 -905l176 895h410l174 -895l151 905h477l-366 -1462h-486zM909 1581l-348 334h496l262 -334h-410z" />
    <glyph glyph-name="wgrave" unicode="&#x1e81;" horiz-adv-x="1710" 
d="M999 0l-141 553l-133 -553h-408l-297 1081h426l115 -573l135 563h332l139 -545l111 555h412l-297 -1081h-394zM727 1196l-348 354h465l262 -354h-379z" />
    <glyph glyph-name="Wacute" unicode="&#x1e82;" horiz-adv-x="2107" 
d="M1214 0l-161 819l-160 -819h-485l-367 1462h487l150 -905l176 895h410l174 -895l151 905h477l-366 -1462h-486zM1196 1581h-410l263 334h495z" />
    <glyph glyph-name="wacute" unicode="&#x1e83;" horiz-adv-x="1710" 
d="M999 0l-141 553l-133 -553h-408l-297 1081h426l115 -573l135 563h332l139 -545l111 555h412l-297 -1081h-394zM602 1196l262 354h465l-348 -354h-379z" />
    <glyph glyph-name="Wdieresis" unicode="&#x1e84;" horiz-adv-x="2107" 
d="M1214 0l-161 819l-160 -819h-485l-367 1462h487l150 -905l176 895h410l174 -895l151 905h477l-366 -1462h-486zM1106 1581v320h397v-320h-397zM602 1581v320h399v-320h-399z" />
    <glyph glyph-name="wdieresis" unicode="&#x1e85;" horiz-adv-x="1710" 
d="M999 0l-141 553l-133 -553h-408l-297 1081h426l115 -573l135 563h332l139 -545l111 555h412l-297 -1081h-394zM907 1206v287h377v-287h-377zM424 1206v287h379v-287h-379z" />
    <glyph glyph-name="uni1E9E" unicode="&#x1e9e;" horiz-adv-x="1753" 
d="M1163 287q119 0 119 103q0 50 -46 77t-206 61l-47 11q-170 37 -250 106.5t-80 181.5q0 197 211 301h-174q-72 0 -106.5 -24.5t-48 -82.5t-13.5 -175v-846h-420v952q0 510 535 510h764v-239l-45 -29q-219 -138 -249 -172.5t-30 -67.5t31 -52t145 -44l47 -10
q429 -95 429 -432q0 -207 -152 -330t-406 -123t-400 117t-169 338h420q8 -63 46 -97t95 -34z" />
    <glyph glyph-name="Ygrave" unicode="&#x1ef2;" horiz-adv-x="1466" 
d="M500 0v543l-480 919h494l223 -532l226 532h483l-479 -919v-543h-467zM590 1581l-348 334h495l262 -334h-409z" />
    <glyph glyph-name="ygrave" unicode="&#x1ef3;" horiz-adv-x="1261" 
d="M304 -57q50 -1 83 27t55 93l17 48l-439 970h459l168 -520l150 520h444l-428 -1063q-72 -176 -132 -262t-131 -120q-70 -34 -196 -34t-250 46l64 313q86 -18 136 -18zM504 1196l-348 354h465l262 -354h-379z" />
    <glyph glyph-name="uni2000" unicode="&#x2000;" horiz-adv-x="1024" 
 />
    <glyph glyph-name="uni2001" unicode="&#x2001;" horiz-adv-x="2048" 
 />
    <glyph glyph-name="uni2002" unicode="&#x2002;" horiz-adv-x="1024" 
 />
    <glyph glyph-name="uni2003" unicode="&#x2003;" horiz-adv-x="2048" 
 />
    <glyph glyph-name="uni2004" unicode="&#x2004;" horiz-adv-x="681" 
 />
    <glyph glyph-name="uni2005" unicode="&#x2005;" horiz-adv-x="512" 
 />
    <glyph glyph-name="uni2006" unicode="&#x2006;" horiz-adv-x="339" 
 />
    <glyph glyph-name="uni2007" unicode="&#x2007;" horiz-adv-x="1212" 
 />
    <glyph glyph-name="uni2008" unicode="&#x2008;" horiz-adv-x="589" 
 />
    <glyph glyph-name="uni2009" unicode="&#x2009;" horiz-adv-x="409" 
 />
    <glyph glyph-name="uni200A" unicode="&#x200a;" horiz-adv-x="102" 
 />
    <glyph glyph-name="uni200B" unicode="&#x200b;" horiz-adv-x="0" 
 />
    <glyph glyph-name="uni2010" unicode="&#x2010;" horiz-adv-x="874" 
d="M72 422v389h731v-389h-731z" />
    <glyph glyph-name="uni2012" unicode="&#x2012;" horiz-adv-x="1212" 
d="M94 522v373h1024v-373h-1024z" />
    <glyph glyph-name="endash" unicode="&#x2013;" horiz-adv-x="1024" 
d="M0 430v373h1024v-373h-1024z" />
    <glyph glyph-name="emdash" unicode="&#x2014;" horiz-adv-x="2048" 
d="M0 430v373h2048v-373h-2048z" />
    <glyph glyph-name="uni2015" unicode="&#x2015;" horiz-adv-x="2048" 
d="M0 430v373h2048v-373h-2048z" />
    <glyph glyph-name="quoteleft" unicode="&#x2018;" horiz-adv-x="589" 
d="M51 838l152 624h336l-74 -624h-414z" />
    <glyph glyph-name="quoteright" unicode="&#x2019;" horiz-adv-x="589" 
d="M51 838l74 624h414l-152 -624h-336z" />
    <glyph glyph-name="quotesinglbase" unicode="&#x201a;" horiz-adv-x="589" 
d="M51 -184l74 624h414l-152 -624h-336z" />
    <glyph glyph-name="quotedblleft" unicode="&#x201c;" horiz-adv-x="1112" 
d="M51 838l152 624h336l-74 -624h-414zM573 838l152 624h336l-74 -624h-414z" />
    <glyph glyph-name="quotedblright" unicode="&#x201d;" horiz-adv-x="1112" 
d="M51 838l74 624h414l-152 -624h-336zM573 838l74 624h414l-152 -624h-336z" />
    <glyph glyph-name="quotedblbase" unicode="&#x201e;" horiz-adv-x="1112" 
d="M51 -184l74 624h414l-152 -624h-336zM573 -184l74 624h414l-152 -624h-336z" />
    <glyph glyph-name="dagger" unicode="&#x2020;" horiz-adv-x="1081" 
d="M322 -178v903h-281v391h281v346h438v-346h280v-391h-280v-903h-438z" />
    <glyph glyph-name="daggerdbl" unicode="&#x2021;" horiz-adv-x="1081" 
d="M322 -178v319h-281v381h281v240h-281v381h281v319h438v-319h280v-381h-280v-240h280v-381h-280v-319h-438z" />
    <glyph glyph-name="bullet" unicode="&#x2022;" horiz-adv-x="851" 
d="M770 741.5q0 -151.5 -96 -248t-248 -96.5t-248 96.5t-96 248t96 247.5t248 96t248 -96t96 -247.5z" />
    <glyph glyph-name="ellipsis" unicode="&#x2026;" horiz-adv-x="2330" 
d="M90 0v440h408v-440h-408zM958 0v440h408v-440h-408zM1831 0v440h407v-440h-407z" />
    <glyph glyph-name="perthousand" unicode="&#x2030;" horiz-adv-x="2955" 
d="M537 0l622 1415h400l-623 -1415h-399zM1642 258q35 0 50 35q14 35 14 123t-14 124t-50 36t-49 -36q-14 -34 -14 -123t14 -124t49 -35zM1642 -20q-188 0 -290 114t-102 325t102 325t290 114t290 -115t104 -325q0 -210 -103 -324t-291 -114zM2501 258q35 0 49 35t14 123
t-14 124t-49 36t-50 -35q-14 -35 -14 -124q1 -89 15 -124t49 -35zM2501 -20q-188 0 -291 114q-102 115 -102 325q0 211 102 325t290 114t291 -115t103 -325t-102 -324t-291 -114zM455 852q35 0 49 35t14 123t-14 124t-49 36t-49 -36q-14 -34 -14 -123t14 -124t49 -35z
M455 573q-188 0 -291 115q-102 115 -102 325q0 211 102 325t290 114t291 -115t103 -325t-102 -324q-102 -115 -291 -115z" />
    <glyph glyph-name="minute" unicode="&#x2032;" horiz-adv-x="591" 
d="M51 907l76 555h414l-154 -555h-336z" />
    <glyph glyph-name="second" unicode="&#x2033;" horiz-adv-x="1107" 
d="M51 907l76 555h414l-154 -555h-336zM567 907l76 555h414l-154 -555h-336z" />
    <glyph glyph-name="guilsinglleft" unicode="&#x2039;" horiz-adv-x="796" 
d="M291 55l-240 469l240 473h444l-211 -471l211 -471h-444z" />
    <glyph glyph-name="guilsinglright" unicode="&#x203a;" horiz-adv-x="796" 
d="M61 55l211 471l-211 471h445l239 -469l-239 -473h-445z" />
    <glyph glyph-name="fraction" unicode="&#x2044;" horiz-adv-x="305" 
d="M-358 0l622 1415h400l-623 -1415h-399z" />
    <glyph glyph-name="uni2070" unicode="&#x2070;" 
d="M422 852q35 0 49 35t14 123t-14 124t-49 36t-49 -36q-15 -34 -15 -123t14 -124t50 -35zM422 573q-188 0 -291 115q-102 115 -102 325q0 211 102 325q103 114 291 114t290 -115t103 -325q-1 -210 -103 -324q-102 -115 -290 -115z" />
    <glyph glyph-name="uni2074" unicode="&#x2074;" 
d="M418 954v172l-121 -172h121zM418 594v139h-369v221l340 478h326v-478h100l-20 -221h-80v-139h-297z" />
    <glyph glyph-name="uni2075" unicode="&#x2075;" 
d="M483 859q0 71 -61 71q-33 0 -55 -19h-273l43 521h588v-232h-360l-7 -80q61 23 129 23q137 0 212 -73t75 -210t-89 -212t-252 -75t-254 67t-105 194h291q8 -45 57 -46q61 0 61 71z" />
    <glyph glyph-name="uni2076" unicode="&#x2076;" 
d="M428 788q64 0 64 73t-64 73t-65 -73q1 -73 65 -73zM421 1229q-56 0 -65 -127q55 31 142 31q130 0 204 -71t74 -201t-91 -209t-263 -79t-266 108q-94 107 -94 321t98 332q100 118 282 118q136 0 222 -66t104 -184l-287 -20q-10 27 -21 37t-39 10z" />
    <glyph glyph-name="uni2077" unicode="&#x2077;" 
d="M80 1176v256h676v-211q-165 -302 -254 -627h-316q87 304 238 582h-344z" />
    <glyph glyph-name="uni2078" unicode="&#x2078;" 
d="M422 1127q60 0 59 58q0 58 -59 58t-60 -59q0 -57 60 -57zM489 850q1 66 -67 66t-68 -66t68 -66t67 66zM791 836q0 -262 -369 -263q-369 1 -369 265q0 134 119 188q-98 59 -98 178t91 184q91 64 258 64t257 -63t90 -183t-98 -180q119 -56 119 -190z" />
    <glyph glyph-name="uni2079" unicode="&#x2079;" 
d="M481 1164q0 73 -64 73q-65 0 -65 -73t66 -72q63 -1 63 72zM416 797q39 -1 53 27t18 100q-57 -31 -141 -31q-129 0 -204 71q-74 72 -74 202t90 208t252 78q373 0 372 -430q0 -219 -94 -334t-276 -115q-145 0 -234 69q-88 69 -104 194h295q8 -39 47 -39z" />
    <glyph glyph-name="uni2080" unicode="&#x2080;" 
d="M422 258q35 0 49 35t14 123t-14 123.5t-49 35.5t-49.5 -34.5t-14.5 -123.5t14.5 -124t49.5 -35zM421.5 -20q-188.5 0 -290.5 114.5t-102 324.5t102 324.5t290.5 114.5t291 -114.5t102.5 -324.5t-102.5 -324.5t-291 -114.5z" />
    <glyph glyph-name="uni2081" unicode="&#x2081;" 
d="M352 0v522l-149 -100l-137 219l311 197h282v-838h-307z" />
    <glyph glyph-name="uni2082" unicode="&#x2082;" 
d="M98 0v217l205 154q142 109 156 137.5t14 56.5q0 51 -45 51q-27 0 -41 -18t-20 -59l-287 22q23 145 116.5 221t247.5 76t241 -73.5t87 -200.5q0 -82 -41 -147.5t-137 -139.5q-37 -31 -68 -51h260l-20 -246h-668z" />
    <glyph glyph-name="uni2083" unicode="&#x2083;" 
d="M795 251q0 -128 -99.5 -199.5t-274.5 -71.5t-270.5 81.5t-95.5 237.5h287q4 -98 76 -98q61 0 63 63q0 61 -65 62h-47v200h43q57 0 57 56q0 25 -14.5 39t-38.5 14q-53 0 -66 -68l-282 21q10 131 105 200.5t256 69.5t253 -65.5t92 -180t-90 -168.5q111 -65 111 -193z" />
    <glyph glyph-name="uni2084" unicode="&#x2084;" 
d="M418 360v172l-121 -172h121zM418 0v139h-369v221l340 478h326v-478h100l-20 -221h-80v-139h-297z" />
    <glyph glyph-name="uni2085" unicode="&#x2085;" 
d="M422 195q61 1 61 71t-61 70q-33 0 -55 -19h-273l43 521h588v-232h-360l-7 -80q61 23 129 23q137 0 212 -73t75 -210t-89 -211.5t-252 -74.5t-254 66.5t-105 193.5h291q8 -45 57 -45z" />
    <glyph glyph-name="uni2086" unicode="&#x2086;" 
d="M428 195q64 1 64 73t-64 72t-65 -72q1 -72 65 -73zM421 635q-58 0 -65 -127q55 31 142 31q129 0 203.5 -71t74.5 -201t-91 -208.5t-263 -78.5t-266.5 107t-94.5 321t99.5 332t281.5 118q137 0 222.5 -65.5t103.5 -184.5l-287 -20q-10 27 -21 37t-39 10z" />
    <glyph glyph-name="uni2087" unicode="&#x2087;" 
d="M80 582v256h676v-211q-166 -304 -254 -627h-316q87 304 238 582h-344z" />
    <glyph glyph-name="uni2088" unicode="&#x2088;" 
d="M422 533q60 0 59 58q0 58 -59 58t-60 -59q0 -57 60 -57zM490 256q0 66 -68 66t-68 -66t68 -66t68 66zM791 236q0 -256 -369 -256t-369 264q0 134 119 188q-98 59 -98 178t91 183.5t258 64.5t257 -63.5t90 -183.5t-98 -179q119 -57 119 -196z" />
    <glyph glyph-name="uni2089" unicode="&#x2089;" 
d="M481 570q0 73 -64 73q-65 0 -65 -73t66 -72q63 -1 63 72zM416 203q39 0 53 27.5t18 99.5q-57 -31 -141 -31q-129 0 -203.5 70.5t-74.5 201.5t90 209t252 78q373 0 372 -430q0 -219 -94 -333.5t-276 -114.5q-145 0 -233.5 68.5t-104.5 193.5h295q8 -39 47 -39z" />
    <glyph glyph-name="Euro" unicode="&#x20ac;" horiz-adv-x="1212" 
d="M565 492q19 -175 112 -175q46 0 67.5 20.5t35.5 72.5h424q-33 -217 -168.5 -332t-367.5 -115t-360 128t-158 401h-127l26 174h92v92h-118l26 174h109q39 264 171 393t365 129q422 0 492 -401l-406 -45q-16 55 -35.5 73.5t-64.5 18.5t-69.5 -37t-39.5 -131h363l-27 -174
h-348v-92h334l-27 -174h-301z" />
    <glyph glyph-name="uni20B9" unicode="&#x20b9;" horiz-adv-x="1212" 
d="M117 666h170q143 0 207.5 28.5t85.5 100.5h-463v239h456q-29 63 -91 87t-195 24h-170v270h1050l-26 -239h-221q53 -55 73 -142h133l-26 -239h-96q-45 -279 -332 -361l446 -434h-532l-469 440v226z" />
    <glyph glyph-name="uni20BA" unicode="&#x20ba;" horiz-adv-x="1212" 
d="M477 0h-323v559l-86 -31l-62 172l148 54v96l-86 -31l-62 172l148 53v371h421v-217l222 82l65 -172l-287 -104v-97l222 82l65 -172l-287 -104v-334h9q70 0 122 75.5t60 186.5h410q-23 -315 -201 -478t-498 -163z" />
    <glyph glyph-name="afii61289" unicode="&#x2113;" horiz-adv-x="1175" 
d="M809 1071q0 135 -84 135q-100 0 -100 -207v-297q88 74 136 170.5t48 198.5zM182 512v449q0 252 131 396t345 144t326 -110.5t112 -305.5q0 -377 -463 -673q24 -121 143 -121q53 0 97.5 21.5t103.5 74.5l178 -221q-179 -203 -480 -203q-302 0 -423 219l-129 -78l-113 220
l174 104q-2 20 -2 84z" />
    <glyph glyph-name="trademark" unicode="&#x2122;" horiz-adv-x="1980" 
d="M1628 643v408l-110 -408h-234l-110 408v-408h-254v819h350l135 -497l133 497h350v-819h-260zM281 643v569h-240v250h762v-250h-240v-569h-282z" />
    <glyph glyph-name="uni2126" unicode="&#x2126;" horiz-adv-x="1644" 
d="M899 0v356q86 63 127 157.5t41 238.5q0 348 -243.5 348t-243.5 -348q0 -143 41 -237.5t127 -158.5v-356h-697v365h230q-94 96 -136.5 203.5t-42.5 248.5q0 205 86 358.5t251 238.5t385 85t381 -78t250 -226t89 -353q0 -295 -178 -477h227l-37 -365h-657z" />
    <glyph glyph-name="estimated" unicode="&#x212e;" horiz-adv-x="1865" 
d="M1456 1163q0 29 -18 49q-102 102 -232.5 156.5t-270.5 54.5q-288 0 -507 -219q-20 -14 -20 -49v-399q0 -14 10 -15h1030q8 0 8 15v407zM920 -23q-208 0 -396 95.5t-305 266.5t-117 374t105.5 372.5t297 276t417.5 106.5t415 -95t307.5 -268t118.5 -384v-21h-1345
q-10 0 -10 -8v-407q0 -27 18 -45q204 -222 513 -222q310 0 529 246h119q-111 -135 -285 -211t-382 -76z" />
    <glyph glyph-name="oneseventh" unicode="&#x2150;" horiz-adv-x="2156" 
d="M518 0l623 1415h399l-622 -1415h-400zM1393 582v256h675v-211q-164 -300 -253 -627h-316q87 304 238 582h-344zM352 594v522l-149 -100l-137 219l311 197h282v-838h-307z" />
    <glyph glyph-name="oneninth" unicode="&#x2151;" horiz-adv-x="2156" 
d="M551 0l623 1415h399l-623 -1415h-399zM1794 570q0 73 -64 73t-64 -73t65 -72q63 -1 63 72zM1728 203q40 -1 54 27t18 100q-57 -31 -141 -31q-129 0 -204 71q-75 72 -75 202t90 208t252 78q373 0 373 -430q0 -219 -94 -334t-277 -114q-145 0 -233 68t-105 194h295
q7 -39 47 -39zM352 594v522l-149 -100l-137 219l311 197h282v-838h-307z" />
    <glyph glyph-name="onethird" unicode="&#x2153;" horiz-adv-x="2156" 
d="M543 0l622 1415h400l-623 -1415h-399zM1368 299h287q4 -98 76 -98q61 0 63 63q0 61 -65 62h-48v200h43q57 0 58 56q0 25 -14 39t-39 14q-53 0 -66 -68l-283 21q10 130 106 200t256 70q161 0 253 -66t92 -180q0 -115 -90 -168q112 -66 111 -193q-1 -128 -100 -200
q-99 -71 -274 -71t-271 81q-95 82 -95 238zM352 594v522l-149 -100l-137 219l311 197h282v-838h-307z" />
    <glyph glyph-name="twothirds" unicode="&#x2154;" horiz-adv-x="2156" 
d="M588 0l622 1415h400l-623 -1415h-399zM1368 299h287q4 -98 76 -98q61 0 63 63q0 61 -65 62h-48v200h43q57 0 58 56q0 25 -14 39t-39 14q-53 0 -66 -68l-283 21q10 130 106 200t256 70q161 0 253 -66t92 -180q0 -115 -90 -168q112 -66 111 -193q-1 -128 -100 -200
q-99 -71 -274 -71t-271 81q-95 82 -95 238zM98 594v217l205 154q142 109 160 145q10 20 10 49q0 51 -45 51q-27 0 -41 -18t-20 -59l-287 22q23 145 117 221q93 76 247 76t241 -74t87 -200q0 -82 -41 -148t-137 -139q-37 -31 -68 -51h260l-20 -246h-668z" />
    <glyph glyph-name="onefifth" unicode="&#x2155;" horiz-adv-x="2156" 
d="M543 0l622 1415h400l-623 -1415h-399zM1735 195q61 1 61 71t-61 70q-33 0 -56 -19h-272l43 521h588v-232h-361l-6 -80q61 23 129 23q137 0 212 -73t75 -210t-89 -212q-89 -74 -252 -74t-254 66t-106 194h291q8 -45 58 -45zM352 594v522l-149 -100l-137 219l311 197h282
v-838h-307z" />
    <glyph glyph-name="twofifths" unicode="&#x2156;" horiz-adv-x="2156" 
d="M586 0l622 1415h400l-623 -1415h-399zM1735 195q61 1 61 71t-61 70q-33 0 -56 -19h-272l43 521h588v-232h-361l-6 -80q61 23 129 23q137 0 212 -73t75 -210t-89 -212q-89 -74 -252 -74t-254 66t-106 194h291q8 -45 58 -45zM98 594v217l205 154q142 109 160 145
q10 20 10 49q0 51 -45 51q-27 0 -41 -18t-20 -59l-287 22q23 145 117 221q93 76 247 76t241 -74t87 -200q0 -82 -41 -148t-137 -139q-37 -31 -68 -51h260l-20 -246h-668z" />
    <glyph glyph-name="threefifths" unicode="&#x2157;" horiz-adv-x="2156" 
d="M569 0l623 1415h399l-622 -1415h-400zM1735 195q61 1 61 71t-61 70q-33 0 -56 -19h-272l43 521h588v-232h-361l-6 -80q61 23 129 23q137 0 212 -73t75 -210t-89 -212q-89 -74 -252 -74t-254 66t-106 194h291q8 -45 58 -45zM795 845q1 -128 -99 -200t-275 -72t-270 82
t-96 238h287q4 -98 76 -98q61 0 63 63q0 61 -65 62h-47v200h43q57 0 57 56q0 51 -53 53q-53 0 -66 -68l-282 21q10 130 105 200t256 70t253 -66t92 -180t-90 -168q111 -65 111 -193z" />
    <glyph glyph-name="fourfifths" unicode="&#x2158;" horiz-adv-x="2156" 
d="M580 0l622 1415h400l-623 -1415h-399zM1735 195q61 1 61 71t-61 70q-33 0 -56 -19h-272l43 521h588v-232h-361l-6 -80q61 23 129 23q137 0 212 -73t75 -210t-89 -212q-89 -74 -252 -74t-254 66t-106 194h291q8 -45 58 -45zM418 954v172l-121 -172h121zM418 594v139h-369
v221l340 478h326v-478h100l-20 -221h-80v-139h-297z" />
    <glyph glyph-name="onesixth" unicode="&#x2159;" horiz-adv-x="2156" 
d="M553 0l623 1415h399l-623 -1415h-399zM1740 195q64 1 64 73t-64 72t-64 -72t64 -73zM1734 635q-56 0 -65 -127q55 31 141 31q129 0 204 -71t75 -201t-91 -209q-91 -78 -263 -78t-267 107q-94 107 -94 321t100 332t281 118q137 0 222 -66t104 -184l-287 -20q-10 27 -21 37
t-39 10zM352 594v522l-149 -100l-137 219l311 197h282v-838h-307z" />
    <glyph glyph-name="fivesixths" unicode="&#x215a;" horiz-adv-x="2156" 
d="M578 0l622 1415h399l-622 -1415h-399zM1740 195q64 1 64 73t-64 72t-64 -72t64 -73zM1734 635q-56 0 -65 -127q55 31 141 31q129 0 204 -71t75 -201t-91 -209q-91 -78 -263 -78t-267 107q-94 107 -94 321t100 332t281 118q137 0 222 -66t104 -184l-287 -20q-10 27 -21 37
t-39 10zM483 859q0 71 -61 71q-33 0 -55 -19h-273l43 521h588v-232h-360l-7 -80q61 23 129 23q137 0 212 -73t75 -210t-89 -212t-252 -75t-254 67t-105 194h291q8 -45 57 -46q61 0 61 71z" />
    <glyph glyph-name="oneeighth" unicode="&#x215b;" horiz-adv-x="2156" 
d="M541 0l622 1415h400l-623 -1415h-399zM1734 533q60 0 60 58t-59 58t-60 -59q-1 -57 59 -57zM1802 256q0 66 -68 66t-67 -66q-1 -66 67 -66t68 66zM1366 233q0 145 119 199q-99 59 -99 178t92 184q92 64 258 64q167 0 257 -63t90 -183t-98 -180q119 -57 118 -196
q-1 -258 -369 -257t-368 254zM352 594v522l-149 -100l-137 219l311 197h282v-838h-307z" />
    <glyph glyph-name="threeeighths" unicode="&#x215c;" horiz-adv-x="2156" 
d="M567 0l623 1415h399l-622 -1415h-400zM1734 533q60 0 60 58t-59 58t-60 -59q-1 -57 59 -57zM1802 256q0 66 -68 66t-67 -66q-1 -66 67 -66t68 66zM1366 233q0 145 119 199q-99 59 -99 178t92 184q92 64 258 64q167 0 257 -63t90 -183t-98 -180q119 -57 118 -196
q-1 -258 -369 -257t-368 254zM795 845q1 -128 -99 -200t-275 -72t-270 82t-96 238h287q4 -98 76 -98q61 0 63 63q0 61 -65 62h-47v200h43q57 0 57 56q0 51 -53 53q-53 0 -66 -68l-282 21q10 130 105 200t256 70t253 -66t92 -180t-90 -168q111 -65 111 -193z" />
    <glyph glyph-name="fiveeighths" unicode="&#x215d;" horiz-adv-x="2156" 
d="M559 0l623 1415h399l-623 -1415h-399zM1734 533q60 0 60 58t-59 58t-60 -59q-1 -57 59 -57zM1802 256q0 66 -68 66t-67 -66q-1 -66 67 -66t68 66zM1366 233q0 145 119 199q-99 59 -99 178t92 184q92 64 258 64q167 0 257 -63t90 -183t-98 -180q119 -57 118 -196
q-1 -258 -369 -257t-368 254zM483 859q0 71 -61 71q-33 0 -55 -19h-273l43 521h588v-232h-360l-7 -80q61 23 129 23q137 0 212 -73t75 -210t-89 -212t-252 -75t-254 67t-105 194h291q8 -45 57 -46q61 0 61 71z" />
    <glyph glyph-name="seveneighths" unicode="&#x215e;" horiz-adv-x="2156" 
d="M514 0l623 1415h399l-623 -1415h-399zM1734 533q60 0 60 58t-59 58t-60 -59q-1 -57 59 -57zM1802 256q0 66 -68 66t-67 -66q-1 -66 67 -66t68 66zM1366 233q0 145 119 199q-99 59 -99 178t92 184q92 64 258 64q167 0 257 -63t90 -183t-98 -180q119 -57 118 -196
q-1 -258 -369 -257t-368 254zM100 1176v256h676v-211q-161 -295 -254 -627h-315q88 308 237 582h-344z" />
    <glyph glyph-name="partialdiff" unicode="&#x2202;" horiz-adv-x="1245" 
d="M580 303q66 0 109.5 48t43.5 121q0 146 -137 146q-72 0 -116 -45t-44 -117t39 -112.5t105 -40.5zM533 928q152 0 249 -92v32q0 119 -30.5 175.5t-103.5 56.5t-97 -74l-395 49q43 186 171 282.5t328 96.5q518 0 519 -661q0 -383 -161 -606.5t-380 -223.5t-334 59.5
t-181.5 170.5t-66.5 249t58.5 246.5t165 174t258.5 65.5z" />
    <glyph glyph-name="uni2206" unicode="&#x2206;" horiz-adv-x="1560" 
d="M774 1038l-182 -665h364zM41 0l455 1462h573l451 -1462h-1479z" />
    <glyph glyph-name="product" unicode="&#x220f;" horiz-adv-x="1556" 
d="M969 0v1063h-381v-1063h-465v1462h1311v-1462h-465z" />
    <glyph glyph-name="summation" unicode="&#x2211;" horiz-adv-x="1333" 
d="M61 -209v260l392 580l-392 571v260h1209v-375h-639l301 -442l-322 -479h682l-37 -375h-1194z" />
    <glyph glyph-name="minus" unicode="&#x2212;" horiz-adv-x="1212" 
d="M160 502v391h893v-391h-893z" />
    <glyph glyph-name="uni2215" unicode="&#x2215;" horiz-adv-x="305" 
d="M-358 0l622 1415h400l-623 -1415h-399z" />
    <glyph glyph-name="uni2219" unicode="&#x2219;" horiz-adv-x="589" 
d="M90 547v440h408v-440h-408z" />
    <glyph glyph-name="radical" unicode="&#x221a;" horiz-adv-x="1396" 
d="M41 535v380h504l117 -421l292 1003h443l-525 -1497h-436l-203 535h-192z" />
    <glyph glyph-name="infinity" unicode="&#x221e;" horiz-adv-x="1228" 
d="M838 600q63 0 63 98t-65 99q-35 0 -63 -30t-36 -75q12 -41 40 -66.5t61 -25.5zM866 305q-154 0 -252 137q-96 -137 -252 -137t-238.5 103.5t-82.5 286.5t84 290t237 107t252 -138q98 138 254 138t238 -103t82 -287t-84 -290.5t-238 -106.5zM397 797q-69 -1 -69 -99
t69 -98q37 0 64 27.5t35 72.5q-8 41 -37 69t-62 28z" />
    <glyph glyph-name="integral" unicode="&#x222b;" horiz-adv-x="811" 
d="M657 1149q-94 0 -94 -96q0 -16 4 -41l113 -779q8 -59 8 -88q0 -180 -110.5 -285.5t-301.5 -105.5q-131 0 -276 43l53 301q70 -14 111 -14q104 0 104 96q0 12 -4 41l-112 772q-8 51 -9 101q2 178 108.5 281.5t291.5 103.5q133 0 268 -43l-53 -301q-72 14 -101 14z" />
    <glyph glyph-name="approxequal" unicode="&#x2248;" horiz-adv-x="1212" 
d="M1188 1282q0 -268 -94 -406t-279 -139q-68 1 -123 21t-126 68t-105 48q-78 0 -78 -126h-358q0 268 94 406t278 138q68 0 123 -20t126 -68t106 -49q78 0 77 127h359zM1188 653q0 -268 -94 -406t-279 -138q-68 0 -123 20q-55 21 -126 69t-105 48q-78 0 -78 -127h-358
q0 268 94 406t278 139q68 0 123 -20t126 -70q71 -48 106 -48q78 0 77 127h359z" />
    <glyph glyph-name="notequal" unicode="&#x2260;" horiz-adv-x="1212" 
d="M150 281v358h272l55 121h-327v358h479l96 215h311l-94 -215h121v-358h-272l-56 -121h328v-358h-479l-97 -215h-311l94 215h-120z" />
    <glyph glyph-name="lessequal" unicode="&#x2264;" horiz-adv-x="1212" 
d="M125 719v368l962 310v-357l-550 -131l550 -133v-366zM125 0v338h962v-338h-962z" />
    <glyph glyph-name="greaterequal" unicode="&#x2265;" horiz-adv-x="1212" 
d="M125 410v356l549 131l-549 133v367l962 -310v-368zM125 0v338h962v-338h-962z" />
    <glyph glyph-name="lozenge" unicode="&#x25ca;" horiz-adv-x="1335" 
d="M827 731l-159 309l-158 -309l158 -309zM451 0l-400 731l400 731h434l399 -731l-399 -731h-434z" />
    <glyph glyph-name="twosevenths" unicode="&#xf507;" horiz-adv-x="2156" 
d="M567 0l623 1415h399l-622 -1415h-400zM1393 582v256h675v-211q-164 -300 -253 -627h-316q87 304 238 582h-344zM98 594v217l205 154q142 109 160 145q10 20 10 49q0 51 -45 51q-27 0 -41 -18t-20 -59l-287 22q23 145 117 221q93 76 247 76t241 -74t87 -200
q0 -82 -41 -148t-137 -139q-37 -31 -68 -51h260l-20 -246h-668z" />
    <glyph glyph-name="threesevenths" unicode="&#xf508;" horiz-adv-x="2156" 
d="M545 0l622 1415h400l-623 -1415h-399zM1393 582v256h675v-211q-164 -300 -253 -627h-316q87 304 238 582h-344zM403 573q-175 0 -271 82q-95 82 -95 238h287q4 -98 75 -98q61 0 64 63q0 61 -66 62h-47v200h43q57 0 57 53t-53 56q-53 0 -65 -68l-283 21q9 130 105 200
t257 70t253 -66t92 -180t-90 -168q112 -66 111 -193q-1 -128 -100 -200t-274 -72z" />
    <glyph glyph-name="foursevenths" unicode="&#xf509;" horiz-adv-x="2156" 
d="M565 0l623 1415h399l-622 -1415h-400zM1393 582v256h675v-211q-164 -300 -253 -627h-316q87 304 238 582h-344zM418 954v172l-121 -172h121zM418 594v139h-369v221l340 478h326v-478h100l-20 -221h-80v-139h-297z" />
    <glyph glyph-name="fivesevenths" unicode="&#xf50a;" horiz-adv-x="2156" 
d="M543 0l622 1415h400l-623 -1415h-399zM1393 582v256h675v-211q-164 -300 -253 -627h-316q87 304 238 582h-344zM483 859q0 71 -61 71q-33 0 -55 -19h-273l43 521h588v-232h-360l-7 -80q61 23 129 23q137 0 212 -73t75 -210t-89 -212t-252 -75t-254 67t-105 194h291
q8 -45 57 -46q61 0 61 71z" />
    <glyph glyph-name="sixsevenths" unicode="&#xf50b;" horiz-adv-x="2156" 
d="M535 0l622 1415h399l-622 -1415h-399zM1393 582v256h675v-211q-164 -300 -253 -627h-316q87 304 238 582h-344zM428 788q64 0 64 73t-64 73t-65 -73q1 -73 65 -73zM421 1229q-56 0 -65 -127q55 31 142 31q130 0 204 -71t74 -201t-91 -209t-263 -79t-266 108
q-94 107 -94 321t98 332q100 118 282 118q136 0 222 -66t104 -184l-287 -20q-10 27 -21 37t-39 10z" />
    <glyph glyph-name="twoninths" unicode="&#xf50d;" horiz-adv-x="2156" 
d="M592 0l622 1415h400l-623 -1415h-399zM1794 570q0 73 -64 73t-64 -73t65 -72q63 -1 63 72zM1728 203q40 -1 54 27t18 100q-57 -31 -141 -31q-129 0 -204 71q-75 72 -75 202t90 208t252 78q373 0 373 -430q0 -219 -94 -334t-277 -114q-145 0 -233 68t-105 194h295
q7 -39 47 -39zM98 594v217l205 154q142 109 160 145q10 20 10 49q0 51 -45 51q-27 0 -41 -18t-20 -59l-287 22q23 145 117 221q93 76 247 76t241 -74t87 -200q0 -82 -41 -148t-137 -139q-37 -31 -68 -51h260l-20 -246h-668z" />
    <glyph glyph-name="fourninths" unicode="&#xf50e;" horiz-adv-x="2156" 
d="M575 0l623 1415h399l-622 -1415h-400zM1794 570q0 73 -64 73t-64 -73t65 -72q63 -1 63 72zM1728 203q40 -1 54 27t18 100q-57 -31 -141 -31q-129 0 -204 71q-75 72 -75 202t90 208t252 78q373 0 373 -430q0 -219 -94 -334t-277 -114q-145 0 -233 68t-105 194h295
q7 -39 47 -39zM418 954v172l-121 -172h121zM418 594v139h-369v221l340 478h326v-478h100l-20 -221h-80v-139h-297z" />
    <glyph glyph-name="fiveninths" unicode="&#xf50f;" horiz-adv-x="2156" 
d="M563 0l623 1415h399l-622 -1415h-400zM1794 570q0 73 -64 73t-64 -73t65 -72q63 -1 63 72zM1728 203q40 -1 54 27t18 100q-57 -31 -141 -31q-129 0 -204 71q-75 72 -75 202t90 208t252 78q373 0 373 -430q0 -219 -94 -334t-277 -114q-145 0 -233 68t-105 194h295
q7 -39 47 -39zM483 859q0 71 -61 71q-33 0 -55 -19h-273l43 521h588v-232h-360l-7 -80q61 23 129 23q137 0 212 -73t75 -210t-89 -212t-252 -75t-254 67t-105 194h291q8 -45 57 -46q61 0 61 71z" />
    <glyph glyph-name="sevenninths" unicode="&#xf510;" horiz-adv-x="2156" 
d="M506 0l622 1415h400l-623 -1415h-399zM1794 570q0 73 -64 73t-64 -73t65 -72q63 -1 63 72zM1728 203q40 -1 54 27t18 100q-57 -31 -141 -31q-129 0 -204 71q-75 72 -75 202t90 208t252 78q373 0 373 -430q0 -219 -94 -334t-277 -114q-145 0 -233 68t-105 194h295
q7 -39 47 -39zM80 1176v256h676v-211q-165 -302 -254 -627h-316q87 304 238 582h-344z" />
    <glyph glyph-name="eightninths" unicode="&#xf511;" horiz-adv-x="2156" 
d="M575 0l623 1415h399l-622 -1415h-400zM1794 570q0 73 -64 73t-64 -73t65 -72q63 -1 63 72zM1728 203q40 -1 54 27t18 100q-57 -31 -141 -31q-129 0 -204 71q-75 72 -75 202t90 208t252 78q373 0 373 -430q0 -219 -94 -334t-277 -114q-145 0 -233 68t-105 194h295
q7 -39 47 -39zM422 1127q60 0 59 58q0 58 -59 58t-60 -59q0 -57 60 -57zM489 850q1 66 -67 66t-68 -66t68 -66t67 66zM791 836q0 -262 -369 -263q-369 1 -369 265q0 134 119 188q-98 59 -98 178t91 184q91 64 258 64t257 -63t90 -183t-98 -180q119 -56 119 -190z" />
    <glyph glyph-name="zero.numr" unicode="&#xf80a;" 
d="M422 1098q35 0 49 35t14 123t-14 123q-14 36 -49 36t-49 -35q-15 -35 -15 -124q0 -90 14 -124t50 -34zM422 819q-188 0 -291 115q-102 114 -102 324t102 325q103 115 291 115t290 -115t103 -325q-1 -210 -103 -324t-290 -115z" />
    <glyph glyph-name="one.numr" unicode="&#xf80b;" 
d="M352 825v523l-149 -101l-137 219l311 197h282v-838h-307z" />
    <glyph glyph-name="two.numr" unicode="&#xf80c;" 
d="M98 840v217l205 153q141 108 160 146q10 20 10 49q0 51 -45 51q-27 0 -41 -18t-20 -60l-287 23q23 145 117 221q93 76 247 76t241 -74t87 -201q0 -81 -41 -147t-137 -139q-37 -31 -68 -52h260l-20 -245h-668z" />
    <glyph glyph-name="three.numr" unicode="&#xf80d;" 
d="M795 1091q1 -129 -99 -201t-275 -71q-175 0 -270 82t-96 238h287q4 -98 76 -99q61 0 63 64q0 61 -65 61h-47v201h43q57 0 57 53t-53 56q-53 0 -66 -68l-282 20q10 131 105 201t256 70t253 -66t92 -180t-90 -168q111 -64 111 -193z" />
    <glyph glyph-name="four.numr" unicode="&#xf80e;" 
d="M418 1186v172l-121 -172h121zM418 825v140h-369v221l340 477h326v-477h100l-20 -221h-80v-140h-297z" />
    <glyph glyph-name="five.numr" unicode="&#xf80f;" 
d="M422 1020q61 0 61 71t-61 70q-33 0 -55 -18h-273l43 520h588v-231h-360l-7 -80q61 23 129 22q137 0 212 -72t75 -210q0 -137 -89 -212t-252 -75q-163 1 -254 67t-105 193h291q8 -45 57 -45z" />
    <glyph glyph-name="six.numr" unicode="&#xf810;" 
d="M428 1034q64 0 64 73t-64 73t-65 -73q1 -73 65 -73zM776 1107q0 -130 -91 -209t-263 -79t-266 108q-94 107 -94 321t98 332q100 118 282 118q136 0 222 -66t104 -184l-287 -21q-10 27 -21 37t-39 10q-56 1 -65 -126q55 31 142 30q130 0 204 -70t74 -201z" />
    <glyph glyph-name="seven.numr" unicode="&#xf811;" 
d="M80 1407v256h676v-211q-166 -304 -254 -627h-316q87 304 238 582h-344z" />
    <glyph glyph-name="eight.numr" unicode="&#xf812;" 
d="M422 1373q60 0 59 58q0 58 -59 58t-60 -59q0 -57 60 -57zM489 1096q1 66 -67 66t-68 -66t68 -66t67 66zM791 1082q0 -262 -369 -263q-369 1 -369 265q0 134 119 188q-98 59 -98 178q0 120 91 184t258 64t257 -64t90 -183q0 -120 -98 -179q119 -56 119 -190z" />
    <glyph glyph-name="nine.numr" unicode="&#xf813;" 
d="M481 1410q0 73 -64 73q-65 0 -65 -73t64 -73t65 73zM416 1042q39 0 53 28t18 99q-57 -31 -141 -30q-129 1 -204 71q-74 70 -74 201t90 209t252 78q373 0 372 -430q0 -219 -94 -334t-276 -115q-145 0 -234 69q-88 69 -104 193h295q8 -39 47 -39z" />
    <glyph glyph-name="zero.dnom" unicode="&#xf814;" 
d="M422 -2q35 0 49 35t14 123t-14 124t-49 36t-49 -36q-15 -34 -15 -123t14 -124t50 -35zM422 -281q-188 0 -291 115q-102 115 -102 325q0 211 102 325q103 114 291 114t290 -115t103 -325q-1 -210 -103 -324q-102 -115 -290 -115z" />
    <glyph glyph-name="one.dnom" unicode="&#xf815;" 
d="M352 -246v522l-149 -100l-137 219l311 197h282v-838h-307z" />
    <glyph glyph-name="two.dnom" unicode="&#xf816;" 
d="M772 338q0 -82 -41 -148t-137 -139q-37 -31 -68 -51h260l-20 -246h-668v217l205 154q142 109 160 145q10 20 10 49q0 51 -45 52q-50 0 -61 -78l-287 22q23 145 117 221q93 76 247 76t241 -74t87 -200z" />
    <glyph glyph-name="three.dnom" unicode="&#xf817;" 
d="M795 -9q1 -128 -99 -200t-275 -72t-270 82t-96 238h287q4 -98 76 -98q61 0 63 63q0 61 -65 62h-47v200h43q57 0 57 56q0 51 -53 53q-53 0 -66 -68l-282 21q10 130 105 200t256 70t253 -66t92 -180t-90 -168q111 -65 111 -193z" />
    <glyph glyph-name="four.dnom" unicode="&#xf818;" 
d="M418 115v172l-121 -172h121zM418 -246v140h-369v221l340 477h326v-477h100l-20 -221h-80v-140h-297z" />
    <glyph glyph-name="five.dnom" unicode="&#xf819;" 
d="M483 5q0 71 -61 71q-33 0 -55 -19h-273l43 521h588v-232h-360l-7 -80q61 23 129 23q137 0 212 -73t75 -210t-89 -212t-252 -75t-254 67t-105 194h291q8 -45 57 -46q61 0 61 71z" />
    <glyph glyph-name="six.dnom" unicode="&#xf81a;" 
d="M428 -66q64 0 64 73t-64 73t-65 -73q1 -73 65 -73zM421 375q-56 0 -65 -127q55 31 142 31q130 0 204 -71t74 -201t-91 -209t-263 -79t-266 108q-94 107 -94 321t98 332q100 118 282 118q136 0 222 -66t104 -184l-287 -20q-10 27 -21 37t-39 10z" />
    <glyph glyph-name="seven.dnom" unicode="&#xf81b;" 
d="M80 336v256h676v-211q-166 -304 -254 -627h-316q87 304 238 582h-344z" />
    <glyph glyph-name="eight.dnom" unicode="&#xf81c;" 
d="M422 273q60 0 59 58q0 58 -59 58t-60 -59q0 -57 60 -57zM489 -4q1 66 -67 66t-68 -66t68 -66t67 66zM791 -18q0 -262 -369 -263q-369 1 -369 265q0 134 119 188q-98 59 -98 178t91 184q91 64 258 64t257 -63t90 -183t-98 -180q119 -56 119 -190z" />
    <glyph glyph-name="nine.dnom" unicode="&#xf81d;" 
d="M481 310q0 73 -64 73q-65 0 -65 -73t66 -72q63 -1 63 72zM416 -57q39 -1 53 27t18 100q-57 -31 -141 -31q-129 0 -204 71q-74 72 -74 202t90 208t252 78q373 0 372 -430q0 -219 -94 -334t-276 -115q-145 0 -234 69q-88 69 -104 194h295q8 -39 47 -39z" />
    <glyph glyph-name="fi" unicode="&#xfb01;" horiz-adv-x="1574" 
d="M207 0v680h-176v342h176v16q0 213 115 327t329 114q129 0 289 -43l-53 -301q-73 14 -129 14t-84 -26t-29 -85v-16h223v-342h-223v-680h-438zM1034 1186v276h439v-276h-439zM1034 0v1081h439v-1081h-439z" />
    <glyph glyph-name="fl" unicode="&#xfb02;" horiz-adv-x="1570" 
d="M207 0v680h-176v342h176v16q0 213 115 327t329 114q129 0 289 -43l-53 -301q-73 14 -129 14t-84 -26t-29 -85v-16h223v-342h-223v-680h-438zM1030 0v1462h438v-1462h-438z" />
    <glyph glyph-name="uniFEFF" unicode="&#xfeff;" horiz-adv-x="0" 
 />
    <glyph glyph-name="zero.pnum" horiz-adv-x="1232" 
d="M617 342q40 0 60 34q36 64 36 277q1 213 -9 289t-30 105t-60 29t-60 -34q-34 -59 -34 -340q0 -282 36 -332q20 -28 61 -28zM612 -37q-280 0 -410 179t-130 562q0 382 134 566t415 184t411 -179t129 -562q0 -383 -134 -567t-415 -183z" />
    <glyph glyph-name="one.pnum" horiz-adv-x="976" 
d="M420 0v924l-195 -142l-207 312l476 321h368v-1415h-442z" />
    <glyph glyph-name="two.pnum" horiz-adv-x="1243" 
d="M104 0v330q117 90 288 234q170 144 228 204t78 104q20 45 21 99q0 115 -98 114q-57 1 -87 -35t-40 -118l-420 39q25 229 172 355t393 127t382 -118t136 -327q0 -130 -54 -234q-53 -104 -181 -226t-217 -190h477l-37 -358h-1041z" />
    <glyph glyph-name="three.pnum" horiz-adv-x="1228" 
d="M612 883q111 -1 111 103q-1 104 -105 104q-99 0 -122 -142l-406 37q16 221 164 345t386 124t374 -107q135 -108 135 -290q0 -111 -48 -191t-138 -114q106 -43 163 -132t58 -214q0 -207 -146 -325t-409 -118q-262 0 -410 134q-147 134 -147 378v27h411q2 -86 38 -132
q35 -46 97 -46t94 32t31 88q0 119 -133 119h-96v320h98z" />
    <glyph glyph-name="four.pnum" horiz-adv-x="1261" 
d="M674 573v336l-230 -336h230zM674 0v250h-592v340l561 825h432v-842h146l-33 -323h-113v-250h-401z" />
    <glyph glyph-name="five.pnum" horiz-adv-x="1183" 
d="M711 465q0 73 -28 107t-95 34t-109 -55h-381l78 864h879v-358h-539l-14 -164q86 47 213 47q199 0 313 -128t113 -360t-139 -360q-138 -129 -388 -129t-391 121t-157 346h423q14 -113 111 -113q111 0 111 148z" />
    <glyph glyph-name="six.pnum" horiz-adv-x="1230" 
d="M628 303q60 0 94 41t34 113q0 143 -123 143q-63 0 -97 -37t-34 -107t33 -112q33 -41 93 -41zM72 662q0 376 156 584t436 208q206 0 334 -111t157 -313l-407 -37q-16 107 -107 107q-71 0 -107 -64t-42 -200q104 74 245 73q199 1 316 -119t116 -325q-1 -147 -65 -261
t-186 -177t-287 -64q-559 0 -559 699z" />
    <glyph glyph-name="seven.pnum" horiz-adv-x="1202" 
d="M78 1036v379h1048v-319q-265 -496 -432 -1096h-454q66 248 176 526t235 510h-573z" />
    <glyph glyph-name="eight.pnum" horiz-adv-x="1253" 
d="M768 998q0 118 -128 118t-128 -118t128 -118t128 118zM791 434q1 129 -147 129t-148 -129t148 -129t147 129zM1165 1034q0 -205 -166 -303q205 -98 205 -340q0 -209 -145 -319t-419 -109t-416 107t-142 315q0 250 205 346q-166 92 -166 298t139 316q139 109 386 109
t383 -108t136 -312z" />
    <glyph glyph-name="nine.pnum" horiz-adv-x="1230" 
d="M729 958q0 74 -33 115t-93 41t-94 -41t-34 -113q0 -143 123 -143q131 0 131 141zM61 966q1 218 145 354q144 134 390 134q563 0 563 -721q0 -373 -147 -571t-424 -199q-223 0 -359 118q-135 118 -153 329h409q18 -92 115 -93q74 -1 106 59t31 199q-96 -72 -243 -71
q-197 0 -315 122t-118 340z" />
    <glyph glyph-name="hyphen.case" horiz-adv-x="874" 
d="M72 537v389h731v-389h-731z" />
    <glyph glyph-name="endash.case" horiz-adv-x="1024" 
d="M0 545v373h1024v-373h-1024z" />
    <glyph glyph-name="emdash.case" horiz-adv-x="2048" 
d="M0 545v373h2048v-373h-2048z" />
    <glyph glyph-name="parenleft.case" horiz-adv-x="776" 
d="M543 732q0 -454 233 -879h-436q-258 389 -258 878t258 879h436q-233 -424 -233 -878z" />
    <glyph glyph-name="parenright.case" horiz-adv-x="776" 
d="M233 732q0 454 -233 878h436q258 -388 258 -878t-258 -879h-436q233 425 233 879z" />
    <glyph glyph-name="slash.case" horiz-adv-x="950" 
d="M20 -18l476 1503h434l-477 -1503h-433z" />
    <glyph glyph-name="backslash.case" horiz-adv-x="950" 
d="M498 -18l-478 1503h435l475 -1503h-432z" />
    <glyph glyph-name="bracketleft.case" horiz-adv-x="860" 
d="M123 -147v1757h676v-373h-238v-1012h238v-372h-676z" />
    <glyph glyph-name="bracketright.case" horiz-adv-x="860" 
d="M61 -147v372h238v1012h-238v373h676v-1757h-676z" />
    <glyph glyph-name="braceleft.case" horiz-adv-x="882" 
d="M600 344q0 -119 98 -119h123v-372h-211q-217 0 -323 99t-107 300v158q0 143 -129 143h-20v356h20q129 0 129 144v157q0 398 430 400h211v-373h-123q-98 0 -98 -119v-139q0 -189 -141 -248q141 -58 141 -248v-139z" />
    <glyph glyph-name="braceright.case" horiz-adv-x="882" 
d="M831 553q-129 0 -129 -143v-158q0 -201 -106 -300t-324 -99h-211v372h123q99 0 99 119v139q0 190 141 248q-143 59 -141 248v139q0 119 -99 119h-123v373h211q430 0 430 -400v-157q0 -144 129 -144h21v-356h-21z" />
    <glyph glyph-name="bullet.case" horiz-adv-x="851" 
d="M770 733q0 -152 -96 -248t-248 -96t-248 96t-96 248t96 248t248 96t248 -96t96 -248z" />
    <glyph glyph-name="guilsinglleft.case" horiz-adv-x="796" 
d="M291 260l-240 469l240 473h444l-211 -471l211 -471h-444z" />
    <glyph glyph-name="guilsinglright.case" horiz-adv-x="796" 
d="M61 260l211 471l-211 471h445l239 -469l-239 -473h-445z" />
    <glyph glyph-name="guillemotleft.case" horiz-adv-x="1398" 
d="M291 260l-240 469l240 473h444l-211 -471l211 -471h-444zM893 260l-240 469l240 473h444l-211 -471l211 -471h-444z" />
    <glyph glyph-name="guillemotright.case" horiz-adv-x="1398" 
d="M61 260l211 471l-211 471h445l239 -469l-239 -473h-445zM664 260l210 471l-210 471h444l240 -469l-240 -473h-444z" />
    <glyph glyph-name="at.case" horiz-adv-x="2109" 
d="M1149 823q0 92 -59 92q-51 0 -88 -77q-36 -78 -36 -188t66 -109q43 0 66 36t37 123l6 39q8 55 8 84zM979 14q194 0 352 107h393q-116 -173 -316 -271t-420 -98q-424 0 -665 235q-120 115 -186 283t-65 375q0 295 135 536t384 384t568 143q256 0 455 -99q200 -99 312 -287
t112 -439q0 -189 -65 -337t-185 -234q-120 -85 -258 -85q-262 0 -350 166q-106 -166 -281 -166q-151 0 -235 109t-84 279q0 340 212 508q101 81 230 81t197 -98l14 80h352l-96 -572q-4 -20 -4 -41q4 -84 69 -84q47 -1 87 49t66 138t26 196q0 276 -152 424t-432 150
q-221 0 -395 -98t-276 -280t-101 -423q0 -299 158 -465t444 -166z" />
    <glyph glyph-name="periodcentered.case" horiz-adv-x="589" 
d="M90 510v440h408v-440h-408z" />
    <glyph glyph-name="questiondown.case" horiz-adv-x="1142" 
d="M371 1083v379h397v-379h-397zM554 -25q-245 -1 -379 101t-134 284q1 196 189 359q92 80 119 129q28 49 28 121v20h383v-39q0 -118 -35 -192t-118 -150t-105 -109q-22 -32 -21 -71q0 -94 99 -94q113 0 127 141l405 -35q-23 -225 -168 -345t-390 -120z" />
    <glyph glyph-name="exclamdown.case" horiz-adv-x="686" 
d="M145 1083v379h398v-379h-398zM102 0l52 989h381l49 -989h-482z" />
    <glyph glyph-name="periodcentered.loclCAT" horiz-adv-x="589" 
d="M90 545v440h408v-440h-408z" />
    <glyph glyph-name="periodcentered.loclCAT.cap" horiz-adv-x="589" 
d="M90 694v441h408v-441h-408z" />
    <glyph glyph-name="i.locl" horiz-adv-x="643" 
d="M102 1186v276h439v-276h-439zM102 0v1081h439v-1081h-439z" />
    <glyph glyph-name="Eng.locl" horiz-adv-x="1546" 
d="M958 924q0 176 -141 176t-199 -80q-31 -41 -30 -131v-889h-465v1462h434v-139q57 80 163.5 128t231.5 48q217 0 344 -136t127 -368v-923q0 -270 -110.5 -390t-358.5 -120q-191 0 -336 49l82 338q175 -39 216.5 -4t41.5 92v887z" />
    <glyph glyph-name="uni0327.cap" horiz-adv-x="0" 
d="M276 -285q0 -94 -83.5 -145t-237.5 -51q-82 0 -186 16v178q75 -8 149 -8t74 47q0 27 -25.5 38t-85.5 11h-71l92 228l192 -29l-33 -88q215 -31 215 -197z" />
    <glyph glyph-name="uni0326.cap" horiz-adv-x="0" 
d="M-414 -498l181 363h466l-264 -363h-383z" />
    <glyph glyph-name="uni0328.cap" horiz-adv-x="0" 
d="M-25 -440q-313 0 -313 181q0 87 44 143.5t157 127.5l293 -12q-84 -41 -119 -72.5t-35 -68.5q0 -55 82 -56q29 0 66 4v-233q-88 -14 -175 -14z" />
    <glyph glyph-name="uni0328.round" horiz-adv-x="0" 
d="M-16 -440q-301 0 -301 182q0 88 39.5 145.5t140.5 124.5l241 -12q-92 -62 -92 -135q0 -62 69 -62q36 0 69 4v-233q-84 -14 -166 -14z" />
    <glyph glyph-name="uni0328.round.cap" horiz-adv-x="0" 
d="M100 0q-98 -63 -98 -131q0 -37 18.5 -51.5t53.5 -14.5t76 4v-233q-88 -14 -175 -14q-313 0 -313 181q0 87 44 143.5t157 127.5z" />
    <glyph glyph-name="iogonek.dotless" horiz-adv-x="643" 
d="M369 -440q-303 0 -301 182q0 88 38 142t124 116h-128v1081h439v-1081q-80 -41 -112 -73t-32 -68q0 -54 76 -56q16 0 62 4v-233q-84 -14 -166 -14z" />
    <glyph glyph-name="acutecomb.cap" horiz-adv-x="0" 
d="M143 1581h-409l262 334h496z" />
    <glyph glyph-name="uni030B.cap" horiz-adv-x="0" 
d="M82 1581l231 334h402l-299 -334h-334zM-418 1581l232 334h401l-299 -334h-334z" />
    <glyph glyph-name="gravecomb.cap" horiz-adv-x="0" 
d="M-143 1581l-349 334h496l262 -334h-409z" />
    <glyph glyph-name="uni0302.cap" horiz-adv-x="0" 
d="M111 1581l-107 135l-104 -135h-375l268 334h414l268 -334h-364z" />
    <glyph glyph-name="tildecomb.cap" horiz-adv-x="0" 
d="M444 1937q0 -362 -276 -362q-80 0 -163 39t-114 39q-70 0 -69 -86h-266q0 362 276 362q80 0 163 -39t114 -39q70 0 69 86h266z" />
    <glyph glyph-name="uni030C.cap" horiz-adv-x="0" 
d="M-207 1581l-268 334h364l107 -135l104 135h375l-268 -334h-414z" />
    <glyph glyph-name="uni0315.short" horiz-adv-x="0" 
d="M-133 1186l29 397h342l-107 -397h-264z" />
    <glyph glyph-name="uni0304.cap" horiz-adv-x="0" 
d="M-352 1595v306h704v-306h-704z" />
    <glyph glyph-name="uni0308.cap" horiz-adv-x="0" 
d="M53 1581v320h398v-320h-398zM-451 1581v320h400v-320h-400z" />
    <glyph glyph-name="uni0306.cap" horiz-adv-x="0" 
d="M406 1915q0 -164 -108 -254t-304 -90t-298 88t-102 256h306q0 -98 100 -98t100 98h306z" />
    <glyph glyph-name="uni0307.cap" horiz-adv-x="0" 
d="M-225 1581v320h450v-320h-450z" />
    <glyph glyph-name="uni030A.cap" horiz-adv-x="0" 
d="M-80 1790q0 -82 59.5 -82t81 21.5t21.5 60.5t-21.5 60.5t-81 21.5t-59.5 -82zM291 1790q0 -125 -79 -201t-211 -76t-211 76t-79 201t79 200.5t211 75.5t211 -75.5t79 -200.5z" />
    </font>
</defs>
</svg>
