<?xml version="1.0" encoding="utf-8"?>
<!-- Generator: Adobe Illustrator 19.1.0, SVG Export Plug-In . SVG Version: 6.00 Build 0)  -->
<svg version="1.1" id="Layer_1" xmlns="http://www.w3.org/2000/svg" xmlns:xlink="http://www.w3.org/1999/xlink" x="0px" y="0px"
	 viewBox="0 0 32 32" style="enable-background:new 0 0 32 32;" xml:space="preserve">
<g>
	<path d="M27,0H5C2.2,0,0,2.2,0,5v22c0,2.8,2.2,5,5,5h22c2.8,0,5-2.2,5-5V5C32,2.2,29.8,0,27,0z M26,22c0,1.1-0.9,2-2,2H8
		c-1.1,0-2-0.9-2-2V10c0-1.1,0.9-2,2-2h16c1.1,0,2,0.9,2,2V22z"/>
	<polygon points="8,10 8,12 16,17 24,12 24,10 16,15 	"/>
</g>
</svg>
