<?xml version="1.0" encoding="utf-8"?>
<!-- Generator: Adobe Illustrator 19.1.0, SVG Export Plug-In . SVG Version: 6.00 Build 0)  -->
<svg version="1.1" id="Layer_1" xmlns="http://www.w3.org/2000/svg" xmlns:xlink="http://www.w3.org/1999/xlink" x="0px" y="0px"
	 viewBox="0 0 32 32" style="enable-background:new 0 0 32 32;" xml:space="preserve">
<style type="text/css">
	.st0{fill:#58595B;}
</style>
<g>
	<path d="M27,0H5C2.2,0,0,2.2,0,5v22c0,2.8,2.2,5,5,5h22c2.8,0,5-2.2,5-5V5C32,2.2,29.8,0,27,0z M11.6,23.6H8.2V13.3h3.4V23.6z
		 M9.9,11.9L9.9,11.9c-1.2,0-1.9-0.8-1.9-1.8c0-1,0.8-1.8,1.9-1.8c1.2,0,1.9,0.8,1.9,1.8C11.9,11.1,11.1,11.9,9.9,11.9z M24,23.6
		h-3.4v-5.5c0-1.4-0.5-2.3-1.7-2.3c-0.9,0-1.5,0.6-1.8,1.3C17,17.3,17,17.6,17,17.9v5.8h-3.4c0,0,0-9.3,0-10.3H17v1.5
		c0.5-0.7,1.3-1.7,3.1-1.7c2.3,0,3.9,1.5,3.9,4.6V23.6z"/>
	<path class="st0" d="M17,14.8L17,14.8C17,14.8,16.9,14.8,17,14.8L17,14.8z"/>
</g>
</svg>
