<?xml version="1.0" encoding="utf-8"?>
<!-- Generator: Adobe Illustrator 19.1.0, SVG Export Plug-In . SVG Version: 6.00 Build 0)  -->
<svg version="1.1" id="Layer_1" xmlns="http://www.w3.org/2000/svg" xmlns:xlink="http://www.w3.org/1999/xlink" x="0px" y="0px"
	 viewBox="0 0 32 32" style="enable-background:new 0 0 32 32;" xml:space="preserve">
<style type="text/css">
	.st0{fill:#58595B;}
</style>
<path d="M27,0H5C2.2,0,0,2.2,0,5v22c0,2.8,2.2,5,5,5h22c2.8,0,5-2.2,5-5V5C32,2.2,29.8,0,27,0z M17.7,19.6c-1,0-1.9-0.5-2.2-1.1
	c0,0-0.5,2.1-0.6,2.5c-0.4,1.4-1.6,2.9-1.7,3C13,24,12.9,24,12.9,23.9c0-0.2-0.3-2,0-3.5c0.2-0.7,1.2-5,1.2-5s-0.3-0.6-0.3-1.5
	c0-1.4,0.8-2.4,1.8-2.4c0.8,0,1.2,0.6,1.2,1.4c0,0.8-0.5,2.1-0.8,3.3c-0.2,1,0.5,1.8,1.5,1.8c1.7,0,2.9-2.2,2.9-4.9
	c0-2-1.4-3.5-3.8-3.5c-2.8,0-4.5,2.1-4.5,4.4c0,0.8,0.2,1.4,0.6,1.8c0.2,0.2,0.2,0.3,0.1,0.5c0,0.2-0.1,0.6-0.2,0.7
	c-0.1,0.2-0.2,0.3-0.5,0.2c-1.3-0.5-1.9-1.9-1.9-3.5c0-2.6,2.2-5.7,6.6-5.7c3.5,0,5.8,2.5,5.8,5.3C22.6,16.9,20.6,19.6,17.7,19.6z"
	/>
</svg>
