<?xml version="1.0" encoding="utf-8"?>
<!-- Generator: Adobe Illustrator 19.1.0, SVG Export Plug-In . SVG Version: 6.00 Build 0)  -->
<svg version="1.1" id="Layer_1" xmlns="http://www.w3.org/2000/svg" xmlns:xlink="http://www.w3.org/1999/xlink" x="0px" y="0px"
	 viewBox="0 0 32 32" style="enable-background:new 0 0 32 32;" xml:space="preserve">
<style type="text/css">
	.st0{fill:#58595B;}
</style>
<path d="M27,0H5C2.2,0,0,2.2,0,5v22c0,2.8,2.2,5,5,5h22c2.8,0,5-2.2,5-5V5C32,2.2,29.8,0,27,0z M20,16c0,4-3.3,7.3-7.3,7.3
	S5.5,20,5.5,16c0-4,3.3-7.3,7.3-7.3c1.6,0,3.2,0.5,4.4,1.5l-1.7,2.2c-0.8-0.6-1.7-0.9-2.7-0.9c-2.5,0-4.5,2-4.5,4.5
	c0,2.5,2,4.5,4.5,4.5c2,0,3.7-1.3,4.3-3.1h-4.3v-2.8H20V16z M27.7,16.9h-2.1V19h-1.8v-2.1h-2.1v-1.8h2.1V13h1.8v2.1h2.1V16.9z"/>
</svg>
