<?xml version="1.0" standalone="no"?>
<!DOCTYPE svg PUBLIC "-//W3C//DTD SVG 1.1//EN" "http://www.w3.org/Graphics/SVG/1.1/DTD/svg11.dtd" >
<svg xmlns="http://www.w3.org/2000/svg">
<metadata>
Created by FontPrep 20130207 at Mon Apr  4 11:48:12 2016
 By Callum Flack
Copyright 2015 Dalton Maag Ltd. All rights reserved. This font may not be altered in any way without prior permission of Dalton Maag Ltd.
</metadata>
<defs>
<font id="25dfc73ea76cfb0f1b1ae05e83f01373" horiz-adv-x='1024' >
  <font-face 
    font-family="AktivGroteskTrial-Light"
    font-weight="300"
    font-stretch="normal"
    units-per-em="2048"
    panose-1="2 11 4 4 2 2 2 2 2 4"
    ascent="1462"
    descent="-586"
    x-height="1055"
    cap-height="1462"
    bbox="-449 -1702 4653 2376"
    underline-thickness="139"
    underline-position="-133"
    unicode-range="U+0008-FFFD"
  />
<missing-glyph horiz-adv-x="1024" 
d="M819 102v1332h-614v-1332h614zM102 0v1536h820v-1536h-820z" />
    <glyph glyph-name="uniFDF2" unicode="&#x627;&#xfedf;&#xfee0;&#xfeea;" horiz-adv-x="2686" arabic-form="isolated" 
d="M1462 1624h111v231h72v-296h-277q-80 0 -122 42t-42 121v133h72v-139q0 -44 22 -68t64 -24h29v231h71v-231zM1468 2296v-354h-86v354h86zM221 474q0 -167 108 -265t304 -98h151v356q0 340 -274 340q-139 0 -214 -83t-75 -250zM903 111h463v1351h119v-1351h528v1351h119
v-1462h-1479q-260 0 -405 127q-146 127 -146 338t113 327t299 116t288 -113q101 -113 101 -316v-368zM2419 0v1462h118v-1462h-118z" />
    <glyph glyph-name="uniFEF5" unicode="&#xfedf;&#xfe82;" horiz-adv-x="1124" arabic-form="isolated" 
d="M61 111h246v763h119v-763h430v1351h119v-1462h-914v111zM160 1042q0 68 32 108t80 39t75.5 -17.5t51 -34t52.5 -19.5q51 0 53 68h71q0 -68 -31.5 -108t-79.5 -39t-76 18.5t-51.5 34t-51.5 18.5q-51 0 -54 -68h-71z" />
    <glyph glyph-name="uniFEF6" unicode="&#xfee0;&#xfe82;" horiz-adv-x="1245" arabic-form="final" 
d="M61 0v111h246v763h119v-763h430v1351h119v-1351h301v-111h-1215zM160 1042q0 68 32 108t80 39t75.5 -17.5t51 -34t52.5 -19.5q51 0 53 68h71q0 -68 -31.5 -108t-79.5 -39t-76 18.5t-51.5 34t-51.5 18.5q-51 0 -54 -68h-71z" />
    <glyph glyph-name="uniFEF7" unicode="&#xfedf;&#xfe84;" horiz-adv-x="1124" arabic-form="isolated" 
d="M61 111h246v763h119v-763h430v1351h119v-1462h-914v111zM377 1294q-74 0 -74 -80v-118h225v-68h-352v68h47v116q0 70 39 109t113 39q129 0 149 -123l-71 -10q-10 39 -27.5 53t-48.5 14z" />
    <glyph glyph-name="uniFEF8" unicode="&#xfee0;&#xfe84;" horiz-adv-x="1245" arabic-form="final" 
d="M61 0v111h246v763h119v-763h430v1351h119v-1351h301v-111h-1215zM377 1294q-74 0 -74 -80v-118h225v-68h-352v68h47v116q0 70 39 109t113 39q129 0 149 -123l-71 -10q-10 39 -27.5 53t-48.5 14z" />
    <glyph glyph-name="uniFEF9" unicode="&#xfedf;&#xfe88;" horiz-adv-x="1124" arabic-form="isolated" 
d="M61 111h246v763h119v-763h430v1351h119v-1462h-914v111zM377 -195q-74 0 -74 -79v-119h225v-68h-352v68h47v117q0 70 39 108.5t113 38.5q129 0 149 -123l-71 -10q-10 39 -27.5 53t-48.5 14z" />
    <glyph glyph-name="uniFEFA" unicode="&#xfee0;&#xfe88;" horiz-adv-x="1245" arabic-form="final" 
d="M61 0v111h246v763h119v-763h430v1351h119v-1351h301v-111h-1215zM377 -195q-74 0 -74 -79v-119h225v-68h-352v68h47v117q0 70 39 108.5t113 38.5q129 0 149 -123l-71 -10q-10 39 -27.5 53t-48.5 14z" />
    <glyph glyph-name="uniFEFB" unicode="&#xfedf;&#xfe8e;" horiz-adv-x="1124" arabic-form="isolated" 
d="M61 111h246v763h119v-763h430v1351h119v-1462h-914v111z" />
    <glyph glyph-name="uniFEFC" unicode="&#xfee0;&#xfe8e;" horiz-adv-x="1245" arabic-form="final" 
d="M61 0v111h246v763h119v-763h430v1351h119v-1351h301v-111h-1215z" />
    <glyph glyph-name="f_f.liga" unicode="ff" horiz-adv-x="1265" 
d="M500 1374q-70 0 -124 -42t-54 -152v-125h280v-99h-280v-956h-119v956h-164v99h164v121q0 147 83 224t212 79q84 0 155 -23l-24 -100q-59 18 -129 18zM1133 1374q-70 0 -124 -42t-55 -152v-125h281v-99h-281v-956h-118v956h-164v99h164v121q0 147 83 224t189 78
q105 1 178 -22l-24 -100q-59 18 -129 18z" />
    <glyph glyph-name="f_i.liga" unicode="fi" horiz-adv-x="1050" 
d="M500 1374q-70 0 -124 -42t-54 -152v-125h280v-99h-280v-956h-119v956h-164v99h164v121q0 147 83 224t212 79q84 0 155 -23l-24 -100q-59 18 -129 18zM774 1462h135v-178h-135v178zM782 1055h119v-1055h-119v1055z" />
    <glyph glyph-name="f_l.liga" unicode="fl" horiz-adv-x="1050" 
d="M500 1374q-70 0 -124 -42t-54 -152v-125h280v-99h-280v-956h-119v956h-164v99h164v121q0 147 83 224t212 79q84 0 155 -23l-24 -100q-59 18 -129 18zM782 1462h119v-1462h-119v1462z" />
    <glyph glyph-name="f_f_i.liga" unicode="ffi" horiz-adv-x="1683" 
d="M500 1374q-70 0 -124 -42t-54 -152v-125h280v-99h-280v-956h-119v956h-164v99h164v121q0 147 83 224t212 79q84 0 155 -23l-24 -100q-59 18 -129 18zM1133 1374q-70 0 -124 -42t-55 -152v-125h281v-99h-281v-956h-118v956h-164v99h164v121q0 147 83 224t189 78
q105 1 178 -22l-24 -100q-59 18 -129 18zM1407 1462h135v-178h-135v178zM1415 1055h119v-1055h-119v1055z" />
    <glyph glyph-name="f_f_l.liga" unicode="ffl" horiz-adv-x="1683" 
d="M500 1374q-70 0 -124 -42t-54 -152v-125h280v-99h-280v-956h-119v956h-164v99h164v121q0 147 83 224t212 79q84 0 155 -23l-24 -100q-59 18 -129 18zM1133 1374q-70 0 -124 -42t-55 -152v-125h281v-99h-281v-956h-118v956h-164v99h164v121q0 147 83 224t189 78
q105 1 178 -22l-24 -100q-59 18 -129 18zM1415 1462h119v-1462h-119v1462z" />
    <glyph glyph-name="uniFEDF_uniFB51.rlig" unicode="&#xfedf;&#xfb51;" horiz-adv-x="1124" 
d="M61 111h246v763h119v-763h430v1351h119v-1462h-914v111zM471 1139q0 90 -88 90q-43 0 -77 -26t-34 -93v-14h199v43zM392 1298q75 0 115 -39.5t40 -109.5v-121h-389v68h39v196h69v-57q51 63 126 63z" />
    <glyph glyph-name="uniFEE0_uniFB51.rlig" unicode="&#xfee0;&#xfb51;" horiz-adv-x="1245" 
d="M61 0v111h246v763h119v-763h430v1351h119v-1351h301v-111h-1215zM471 1139q0 90 -88 90q-43 0 -77 -26t-34 -93v-14h199v43zM392 1298q75 0 115 -39.5t40 -109.5v-121h-389v68h39v196h69v-57q51 63 126 63z" />
    <glyph glyph-name="uniFEDF_uniFEE0_uniFEEA.rlig" unicode="&#xfedf;&#xfee0;&#xfeea;" horiz-adv-x="2281" 
d="M1368 1559q-164 0 -164 163v133h72v-139q0 -43 22.5 -67.5t63.5 -24.5h29v231h71v-231h111v231h72v-296h-277zM1468 2296v-354h-86v354h86zM221 474q0 -167 107.5 -265t304.5 -98h151v356q0 340 -274 340q-139 0 -214 -83t-75 -250zM903 111h463v1351h119v-1351h528v1351
h119v-1462h-1479q-260 0 -405.5 127t-145.5 338t113 326.5t299 115.5t287.5 -112.5t101.5 -315.5v-368z" />
    <glyph glyph-name="uniFEDB_uniFE8E.rlig" unicode="&#xfedb;&#xfe8e;" horiz-adv-x="1378" 
d="M268 768v-657h854v243q0 166 -42 254t-136 124t-260 36h-416zM1241 0h-1091v1462h118v-624l764 624h158l-719 -588h242q281 0 404.5 -114.5t123.5 -376.5v-383z" />
    <glyph glyph-name="uniFEDC_uniFE8E.rlig" unicode="&#xfedc;&#xfe8e;" horiz-adv-x="1497" 
d="M1122 354q0 166 -42 254t-136 124t-260 36h-416v-657h854v243zM150 0v1462h118v-624l764 624h158l-719 -588h242q281 0 404.5 -114.5t123.5 -376.5v-272h287v-111h-1378z" />
    <glyph glyph-name="uniFEDB_uniFE82.rlig" unicode="&#xfedb;&#xfe82;" horiz-adv-x="1378" 
d="M268 768v-657h854v243q0 166 -42 254t-136 124t-260 36h-416zM1241 0h-1091v1462h118v-624l764 624h158l-719 -588h242q281 0 404.5 -114.5t123.5 -376.5v-383zM0 1561q0 67 32 107t80 39t75.5 -17.5t51 -34t52.5 -19.5q51 0 53 68h72q0 -68 -32 -108t-80 -39t-75.5 18.5
t-51 34t-52.5 18.5q-51 0 -53 -67h-72z" />
    <glyph glyph-name="uniFEDC_uniFE82.rlig" unicode="&#xfedc;&#xfe82;" horiz-adv-x="1497" 
d="M1122 354q0 166 -42 254t-136 124t-260 36h-416v-657h854v243zM150 0v1462h118v-624l764 624h158l-719 -588h242q281 0 404.5 -114.5t123.5 -376.5v-272h287v-111h-1378zM0 1561q0 67 32 107t80 39t75.5 -17.5t51 -34t52.5 -19.5q51 0 53 68h72q0 -68 -32 -108t-80 -39
t-75.5 18.5t-51 34t-52.5 18.5q-51 0 -53 -67h-72z" />
    <glyph glyph-name="uniFEDB_uniFE84.rlig" unicode="&#xfedb;&#xfe84;" horiz-adv-x="1378" 
d="M268 768v-657h854v243q0 166 -42 254t-136 124t-260 36h-416zM1241 0h-1091v1462h118v-624l764 624h158l-719 -588h242q281 0 404.5 -114.5t123.5 -376.5v-383zM219 1825q-74 0 -74 -80v-119h226v-67h-353v67h48v117q0 70 38.5 108.5t112.5 38.5q129 0 150 -123l-72 -10
q-10 39 -27.5 53.5t-48.5 14.5z" />
    <glyph glyph-name="uniFEDC_uniFE84.rlig" unicode="&#xfedc;&#xfe84;" horiz-adv-x="1497" 
d="M1122 354q0 166 -42 254t-136 124t-260 36h-416v-657h854v243zM150 0v1462h118v-624l764 624h158l-719 -588h242q281 0 404.5 -114.5t123.5 -376.5v-272h287v-111h-1378zM219 1825q-74 0 -74 -80v-119h226v-67h-353v67h48v117q0 70 38.5 108.5t112.5 38.5q129 0 150 -123
l-72 -10q-10 39 -27.5 53.5t-48.5 14.5z" />
    <glyph glyph-name="uniFEDB_uniFE88.rlig" unicode="&#xfedb;&#xfe88;" horiz-adv-x="1378" 
d="M268 768v-657h854v243q0 166 -42 254t-136 124t-260 36h-416zM1241 0h-1091v1462h118v-624l764 624h158l-719 -588h242q281 0 404.5 -114.5t123.5 -376.5v-383zM240 -195q-74 0 -74 -79v-119h225v-68h-352v68h47v117q0 70 39 108.5t113 38.5q129 0 149 -123l-72 -10
q-10 39 -27.5 53t-47.5 14z" />
    <glyph glyph-name="uniFEDC_uniFE88.rlig" unicode="&#xfedc;&#xfe88;" horiz-adv-x="1497" 
d="M1122 354q0 166 -42 254t-136 124t-260 36h-416v-657h854v243zM150 0v1462h118v-624l764 624h158l-719 -588h242q281 0 404.5 -114.5t123.5 -376.5v-272h287v-111h-1378zM240 -195q-74 0 -74 -79v-119h225v-68h-352v68h47v117q0 70 39 108.5t113 38.5q129 0 149 -123
l-72 -10q-10 39 -27.5 53t-47.5 14z" />
    <glyph glyph-name="uniFEDB_uniFB51.rlig" unicode="&#xfedb;&#xfb51;" horiz-adv-x="1378" 
d="M268 768v-657h854v243q0 166 -42 254t-136 124t-260 36h-416zM1241 0h-1091v1462h118v-624l764 624h158l-719 -588h242q281 0 404.5 -114.5t123.5 -376.5v-383zM330 1669q0 90 -88 90q-42 0 -68 -19q-42 -32 -43 -100v-14h199v43zM406 1679v-120h-390v67h39v197h70v-58
q51 63 126 63.5t115 -39.5t40 -110z" />
    <glyph glyph-name="uniFEDC_uniFB51.rlig" unicode="&#xfedc;&#xfb51;" horiz-adv-x="1497" 
d="M1122 354q0 166 -42 254t-136 124t-260 36h-416v-657h854v243zM150 0v1462h118v-624l764 624h158l-719 -588h242q281 0 404.5 -114.5t123.5 -376.5v-272h287v-111h-1378zM330 1669q0 90 -88 90q-42 0 -68 -19q-42 -32 -43 -100v-14h199v43zM406 1679v-120h-390v67h39v197
h70v-58q51 63 126 63.5t115 -39.5t40 -110z" />
    <glyph glyph-name="uniFEDB_uniFEDE.rlig" unicode="&#xfedb;&#xfede;" horiz-adv-x="2058" 
d="M948 768v-657h854v243q0 166 -42 254t-136 124t-260 36h-416zM516 -317q313 0 313 362v1417h119v-624l764 624h158l-719 -588h242q281 0 404.5 -114.5t123.5 -376.5v-383h-975q-16 -205 -125.5 -312.5t-313.5 -107.5t-325 120t-121 315.5t89 340.5l110 -30
q-80 -158 -80 -308.5t89 -242.5t247 -92z" />
    <glyph glyph-name="uniFEDB_uniFEE0.rlig" unicode="&#xfedb;&#xfee0;" horiz-adv-x="1499" 
d="M1243 354q0 166 -42 254t-136 124t-260 36h-416v-657h854v243zM-31 111h301v1351h119v-624l764 624h158l-719 -588h242q281 0 404.5 -114.5t123.5 -376.5v-383h-1393v111z" />
    <glyph glyph-name="uniFEDC_uniFEDE.rlig" unicode="&#xfedc;&#xfede;" horiz-adv-x="2177" 
d="M516 -317q313 0 313 362v1417h119v-624l764 624h158l-719 -588h242q281 0 404.5 -114.5t123.5 -376.5v-272h287v-111h-1262q-16 -205 -125.5 -312.5t-313.5 -107.5t-325 120t-121 315.5t89 340.5l110 -30q-80 -158 -80 -308.5t88 -242.5t248 -92zM948 768v-657h854v243
q0 166 -42 254t-136 124t-260 36h-416z" />
    <glyph glyph-name="uniFEDC_uniFEE0.rlig" unicode="&#xfedc;&#xfee0;" horiz-adv-x="1617" 
d="M1243 354q0 166 -42 254t-136 124t-260 36h-416v-657h854v243zM-31 111h301v1351h119v-624l764 624h158l-719 -588h242q281 0 404.5 -114.5t123.5 -376.5v-272h287v-111h-1680v111z" />
    <glyph glyph-name="uni0672.fina" unicode="&#x672;" horiz-adv-x="538" 
d="M569 0h-419v1462h118v-1351h301v-111zM274 1825q-55 0 -55 -80v-119h180v-67h-223q-55 3 -103 51q-17 16 -40 17t-37 -17l-39 49q33 33 69 32t55 -15t33 -30q14 -15 25 -18v115q0 147 137 147q114 0 130 -123l-72 -10q-10 68 -60 68z" />
    <glyph glyph-name="uni0673.fina" unicode="&#x673;" horiz-adv-x="538" 
d="M569 0h-419v1462h118v-1351h301v-111zM369 -184q-54 0 -56 -80v-119h181v-68h-224q-54 3 -103 52q-17 16 -40 17t-37 -17l-39 49q33 33 69 32q36 -2 55 -16t33 -30t25 -17v115q0 147 138 147q53 0 87 -32t42 -91l-72 -10q-10 68 -59 68z" />
    <glyph glyph-name="uni0675.fina" unicode="&#x675;" horiz-adv-x="743" 
d="M774 0h-624v1462h118v-1351h506v-111zM395 1622h226v-68h-353v68h47v117q0 71 39 109t113 38q129 0 149 -123l-71 -10q-9 39 -27 53t-49 15q-72 0 -74 -80v-119z" />
    <glyph glyph-name="uni0676.fina" unicode="&#x676;" horiz-adv-x="1097" 
d="M221 474q0 -167 108 -265t302 -98h153v356q0 340 -274 340q-139 0 -214 -83t-75 -250zM903 111h225v-111h-225q0 -207 -90 -299q-89 -92 -277 -92t-289 76t-118 217h109q41 -188 286 -189q144 1 202 61t58 208v18h-133q-260 0 -404 127q-145 127 -145 338t113 327
t299 116t288 -113q101 -113 101 -316v-368zM928 1294q-74 0 -74 -80v-118h225v-68h-352v68h47v116q0 70 39 109t113 39q129 0 149 -123l-71 -10q-10 39 -28 53t-48 14z" />
    <glyph glyph-name="uni0677.fina" unicode="&#x677;" horiz-adv-x="1097" 
d="M221 474q0 -167 108 -265t302 -98h153v356q0 340 -274 340q-139 0 -214 -83t-75 -250zM903 111h225v-111h-225q0 -207 -90 -299q-89 -92 -277 -92t-289 76t-118 217h109q41 -188 286 -189q144 1 202 61t58 208v18h-133q-260 0 -404 127q-145 127 -145 338t113 327
t299 116t288 -113q101 -113 101 -316v-368zM434 1182q64 0 64 66q1 66 -60 67q-68 0 -67 -68q0 -31 17 -48t46 -17zM422 1016q-51 0 -115 22l17 60q49 -23 96 -23q82 0 82 66v28q-29 -41 -83 -41t-85 32t-31 88t36 90t98 34q63 0 99 -37t35 -100v-61q1 -158 -149 -158z
M928 1294q-74 0 -74 -80v-118h225v-68h-352v68h47v116q0 70 39 109t113 39q129 0 149 -123l-71 -10q-10 39 -28 53t-48 14z" />
    <glyph glyph-name="uni0678.init" unicode="&#x678;" horiz-adv-x="716" 
d="M389 727v-727h-420v111h301v598q0 76 -32 129l104 55q47 -66 47 -166zM590 1294q-72 0 -74 -80v-118h225v-68h-352v68h47v116q0 70 39 109t113 39q129 0 149 -123l-71 -10q-10 39 -28 53t-48 14z" />
    <glyph glyph-name="uni0678.medi" unicode="&#x678;" horiz-adv-x="798" 
d="M-31 111h301v763h119v-763h440v-111h-860v111zM590 1294q-72 0 -74 -80v-118h225v-68h-352v68h47v116q0 70 39 109t113 39q129 0 149 -123l-71 -10q-10 39 -28 53t-48 14z" />
    <glyph glyph-name="uni0678.fina" unicode="&#x678;" horiz-adv-x="1722" 
d="M948 61q0 -233 -110 -357t-323 -124q-212 0 -333 120t-121 316t89 340l110 -30q-80 -158 -80 -308t89 -243q89 -92 246 -92q316 0 314 362v399q0 226 85 328t274 102h264v-763h301v-111h-420v772h-168q-115 0 -166 -71t-51 -228v-412zM1300 1294q-73 0 -73 -80v-118h225
v-68h-352v68h47v116q0 70 39 109t112 39q129 0 150 -123l-72 -10q-10 39 -27 53t-49 14z" />
    <glyph glyph-name="uni067C.init" unicode="&#x67c;" horiz-adv-x="538" 
d="M180 -176q41 0 65 24t23 68q0 43 -23 68q-24 24 -65 24q-40 0 -64 -24t-24 -68t24 -68t64 -24zM389 727v-727h-61q22 -36 22 -100t-46 -108t-124 -44t-124 44t-46 108t23 100h-64v111h301v598q0 74 -32 129l104 55q47 -61 47 -166zM262 1235h127v-170h-127v170zM33 1235
h127v-170h-127v170z" />
    <glyph glyph-name="uni067C.medi" unicode="&#x67c;" horiz-adv-x="659" 
d="M201 -176q41 0 65 24t23 68q0 43 -24 68q-25 24 -65 24t-64 -24t-24 -68q0 -43 24 -68q24 -24 65 -24zM31 -100q0 64 22 100h-84v111h301v763h119v-763h301v-111h-342q23 -36 23 -100t-46 -108t-124 -44t-124 44t-46 108zM262 1235h127v-170h-127v170zM33 1235h127v-170
h-127v170z" />
    <glyph glyph-name="uni067C.fina" unicode="&#x67c;" horiz-adv-x="1785" 
d="M1004 -176q40 0 64 24t24 68q0 43 -24 68q-24 24 -64 24t-65 -24q-24 -24 -24 -68t24 -68t65 -24zM834 -100q0 64 22 100h-268q-221 0 -354 116q-132 116 -132 312t96 309t275 135l14 -106q-137 -24 -201 -102t-65 -229t99 -237t276 -87h815v763h119v-763h287v-111h-666
q23 -36 23 -100t-46 -108t-124 -44t-124 44t-46 108zM973 1235h127v-170h-127v170zM743 1235h127v-170h-127v170z" />
    <glyph glyph-name="uni067D.init" unicode="&#x67d;" horiz-adv-x="538" 
d="M389 727v-727h-420v111h301v598q0 76 -32 129l104 55q47 -66 47 -166zM254 1423h125v-157h-125v157zM29 1423h125v-157h-125v157zM141 1184h125v-158h-125v158z" />
    <glyph glyph-name="uni067D.medi" unicode="&#x67d;" horiz-adv-x="659" 
d="M-31 111h301v763h119v-763h301v-111h-721v111zM254 1423h125v-157h-125v157zM29 1423h125v-157h-125v157zM141 1184h125v-158h-125v158z" />
    <glyph glyph-name="uni067D.fina" unicode="&#x67d;" horiz-adv-x="1785" 
d="M1411 111v763h119v-763h287v-111h-1229q-223 0 -355 118q-131 118 -131 311t100 310t271 133l16 -106q-137 -20 -203 -100t-65 -231q-1 -151 99 -237t276 -87h815zM971 1423h125v-157h-125v157zM745 1423h125v-157h-125v157zM858 1184h125v-158h-125v158z" />
    <glyph glyph-name="uni0681.init" unicode="&#x681;" horiz-adv-x="1062" 
d="M868 494v-383h133v-111h-1032v111h781v358q0 184 -66 258t-214 74t-214 -45t-94 -158l-115 12q54 299 418 297q211 0 307 -99t96 -314zM475 1294q-72 0 -74 -80v-118h226v-68h-353v68h48v116q0 70 38 109q39 39 113 39q129 0 150 -123l-72 -10q-9 39 -27 53t-49 14z" />
    <glyph glyph-name="uni0681.medi" unicode="&#x681;" horiz-adv-x="1134" 
d="M870 494v-383h295v-111h-1196v111h783v358q0 184 -66 258t-214 74t-214 -45t-94 -158l-115 12q54 299 418 297q211 0 307 -99t96 -314zM475 1294q-72 0 -74 -80v-118h226v-68h-353v68h48v116q0 70 38 109q39 39 113 39q129 0 150 -123l-72 -10q-9 39 -27 53t-49 14z" />
    <glyph glyph-name="uni0681.fina" unicode="&#x681;" horiz-adv-x="1255" 
d="M999 494v-383h287v-111h-801q-149 0 -227 -69t-78 -203q0 -279 361 -279q283 0 348 215h119q-25 -145 -153 -233q-129 -88 -335 -88t-333 100q-126 99 -126 281t115 284t318 103h387v358q0 184 -66 258t-214 74t-214 -45t-94 -158l-115 12q54 299 418 297q211 0 307 -99
t96 -314zM606 1294q-72 0 -74 -80v-118h226v-68h-352v68h47v116q0 70 39 109t112 39q129 0 150 -123l-72 -10q-10 39 -28 53t-48 14z" />
    <glyph glyph-name="uni0682.init" unicode="&#x682;" horiz-adv-x="1062" 
d="M868 494v-383h133v-111h-1032v111h781v358q0 184 -66 258t-214 74t-214 -45t-94 -158l-115 12q54 299 418 297q211 0 307 -99t96 -314zM408 1423h131v-157h-131v157zM408 1184h131v-158h-131v158z" />
    <glyph glyph-name="uni0682.medi" unicode="&#x682;" horiz-adv-x="1134" 
d="M870 494v-383h295v-111h-1196v111h783v358q0 184 -66 258t-214 74t-214 -45t-94 -158l-115 12q54 299 418 297q211 0 307 -99t96 -314zM408 1423h131v-157h-131v157zM408 1184h131v-158h-131v158z" />
    <glyph glyph-name="uni0682.fina" unicode="&#x682;" horiz-adv-x="1255" 
d="M999 494v-383h287v-111h-801q-149 0 -227 -69t-78 -203q0 -279 361 -279q283 0 348 215h119q-25 -145 -153 -233q-129 -88 -335 -88t-333 100q-126 99 -126 281t115 284t318 103h387v358q0 184 -66 258t-214 74t-214 -45t-94 -158l-115 12q54 299 418 297q211 0 307 -99
t96 -314zM539 1423h131v-157h-131v157zM539 1184h131v-158h-131v158z" />
    <glyph glyph-name="uni0685.init" unicode="&#x685;" horiz-adv-x="1062" 
d="M868 494v-383h133v-111h-1032v111h781v358q0 184 -66 258t-214 74t-214 -45t-94 -158l-115 12q54 299 418 297q211 0 307 -99t96 -314zM512 1184h125v-158h-125v158zM287 1184h125v-158h-125v158zM399 1423h125v-157h-125v157z" />
    <glyph glyph-name="uni0685.medi" unicode="&#x685;" horiz-adv-x="1134" 
d="M870 494v-383h295v-111h-1196v111h783v358q0 184 -66 258t-214 74t-214 -45t-94 -158l-115 12q54 299 418 297q211 0 307 -99t96 -314zM512 1184h125v-158h-125v158zM287 1184h125v-158h-125v158zM399 1423h125v-157h-125v157z" />
    <glyph glyph-name="uni0685.fina" unicode="&#x685;" horiz-adv-x="1255" 
d="M999 494v-383h287v-111h-801q-149 0 -227 -69t-78 -203q0 -279 361 -279q283 0 348 215h119q-25 -145 -153 -233q-129 -88 -335 -88t-333 100q-126 99 -126 281t115 284t318 103h387v358q0 184 -66 258t-214 74t-214 -45t-94 -158l-115 12q54 299 418 297q211 0 307 -99
t96 -314zM643 1184h125v-158h-125v158zM418 1184h125v-158h-125v158zM530 1423h125v-157h-125v157z" />
    <glyph glyph-name="uni0689.fina" unicode="&#x689;" horiz-adv-x="1163" 
d="M500 -176q41 0 64.5 24.5t23.5 67.5t-23.5 67.5t-64.5 24.5t-64.5 -24.5t-23.5 -67.5t23.5 -67.5t64.5 -24.5zM330 -100q0 64 22 100h-291v111h746v190q0 262 -88 380t-281 118q-121 0 -223 -43l-29 104q123 45 265 45q242 0 358.5 -144.5t116.5 -441.5v-208h268v-111
h-547q23 -36 23 -100t-46 -108t-124 -44t-124 44t-46 108z" />
    <glyph glyph-name="uni068A.fina" unicode="&#x68a;" horiz-adv-x="1163" 
d="M807 111v192q0 262 -88 380t-281 118q-121 0 -223 -43l-29 104q123 45 265 45q243 0 359 -144t116 -441v-211h268v-111h-1133v111h746zM459 -139h127v-170h-127v170z" />
    <glyph glyph-name="uni068B.fina" unicode="&#x68b;" horiz-adv-x="1163" 
d="M807 111v192q0 262 -88 380t-281 118q-121 0 -223 -43l-29 104q123 45 265 45q243 0 359 -144t116 -441v-211h268v-111h-1133v111h746zM614 1141q0 90 -91 90q-44 0 -78 -28t-33 -93v-16h202v47zM536 1298q72 0 112 -40t40 -109v-121h-389v66h39v317h74v-168
q51 55 124 55zM459 -139h127v-170h-127v170z" />
    <glyph glyph-name="uni068F.fina" unicode="&#x68f;" horiz-adv-x="1163" 
d="M807 111v192q0 262 -88 380t-281 118q-121 0 -223 -43l-29 104q123 45 265 45q243 0 359 -144t116 -441v-211h268v-111h-1133v111h746zM545 1423h125v-157h-125v157zM319 1423h125v-157h-125v157zM432 1184h125v-158h-125v158z" />
    <glyph glyph-name="uni0690.fina" unicode="&#x690;" horiz-adv-x="1163" 
d="M807 111v192q0 262 -88 380t-281 118q-121 0 -223 -43l-29 104q123 45 265 45q243 0 359 -144t116 -441v-211h268v-111h-1133v111h746zM545 1184h127v-158h-127v158zM322 1184h124v-158h-124v158zM545 1423h127v-157h-127v157zM322 1423h124v-157h-124v157z" />
    <glyph glyph-name="uni0692.fina" unicode="&#x692;" horiz-adv-x="706" 
d="M170 -313q151 0 149 194v993h117v-763h301v-111h-301v-98q0 -322 -270 -322q-74 0 -166 25l23 100q75 -18 147 -18zM428 1028h-100l-158 272h92l115 -204l121 204h88z" />
    <glyph glyph-name="uni0693.fina" unicode="&#x693;" horiz-adv-x="706" 
d="M219 -594q41 0 64.5 24.5t23.5 67.5t-23.5 67.5t-64.5 24.5t-64.5 -24.5t-23.5 -67.5t23.5 -67.5t64.5 -24.5zM150 -313q170 0 169 194v993h117v-763h301v-111h-301v-98q0 -201 -106 -277q59 -43 59 -124t-47 -126t-123 -45t-123 45t-47 111t25 102q-20 3 -74 17l23 100
q74 -18 127 -18z" />
    <glyph glyph-name="uni0694.fina" unicode="&#x694;" horiz-adv-x="706" 
d="M170 -313q151 0 149 194v993h117v-763h301v-111h-301v-98q0 -322 -270 -322q-74 0 -166 25l23 100q75 -18 147 -18zM158 -539h127v-170h-127v170z" />
    <glyph glyph-name="uni0695.fina" unicode="&#x695;" horiz-adv-x="718" 
d="M182 -313q150 0 150 194v993h117v-763h301v-111h-301v-98q0 -322 -271 -322q-74 0 -166 25l23 100q75 -18 147 -18zM258 -811h-100l-158 272h92l115 -204l121 204h88z" />
    <glyph glyph-name="uni0696.fina" unicode="&#x696;" horiz-adv-x="737" 
d="M200 -313q150 0 150 194v993h117v-763h301v-111h-301v-98q0 -322 -270 -322q-74 0 -166 25l22 100q75 -18 147 -18zM43 322h127v-170h-127v170zM188 -539h127v-170h-127v170z" />
    <glyph glyph-name="uni0697.fina" unicode="&#x697;" horiz-adv-x="706" 
d="M170 -313q151 0 149 194v993h117v-763h301v-111h-301v-98q0 -322 -270 -322q-74 0 -166 25l23 100q75 -18 147 -18zM313 1235h127v-170h-127v170zM84 1235h127v-170h-127v170z" />
    <glyph glyph-name="uni0699.fina" unicode="&#x699;" horiz-adv-x="706" 
d="M170 -313q151 0 149 194v993h117v-763h301v-111h-301v-98q0 -322 -270 -322q-74 0 -166 25l23 100q75 -18 147 -18zM313 1184h127v-158h-127v158zM90 1184h125v-158h-125v158zM313 1423h127v-157h-127v157zM90 1423h125v-157h-125v157z" />
    <glyph glyph-name="uni069A.init" unicode="&#x69a;" horiz-adv-x="1617" 
d="M1468 727v-727h-1499v111h299v763h119v-763h430v763h119v-763h414v598q0 76 -33 129l104 55q47 -66 47 -166zM815 1235h127v-170h-127v170zM815 -139h127v-170h-127v170z" />
    <glyph glyph-name="uni069A.medi" unicode="&#x69a;" horiz-adv-x="1738" 
d="M1468 727v-616h301v-111h-1800v111h299v763h119v-763h430v763h119v-763h414v598q0 76 -33 129l104 55q47 -66 47 -166zM815 1235h127v-170h-127v170zM815 -139h127v-170h-127v170z" />
    <glyph glyph-name="uni069A.fina" unicode="&#x69a;" horiz-adv-x="2299" 
d="M2030 111h301v-111h-1385q-14 -204 -125 -312t-315 -108t-324 120q-121 120 -121 316t89 340l110 -30q-80 -158 -80 -308t89 -243q89 -92 246 -92q316 0 314 362v829h119v-763h430v763h119v-763h414v598q0 76 -33 129l104 55q46 -65 48 -166v-616zM1374 1235h127v-170
h-127v170zM1374 -139h127v-170h-127v170z" />
    <glyph glyph-name="uni069B.init" unicode="&#x69b;" horiz-adv-x="1617" 
d="M1468 727v-727h-1499v111h299v763h119v-763h430v763h119v-763h414v598q0 76 -33 129l104 55q47 -66 47 -166zM930 -139h125v-158h-125v158zM705 -139h124v-158h-124v158zM817 -379h125v-158h-125v158z" />
    <glyph glyph-name="uni069B.medi" unicode="&#x69b;" horiz-adv-x="1738" 
d="M1468 727v-616h301v-111h-1800v111h299v763h119v-763h430v763h119v-763h414v598q0 76 -33 129l104 55q47 -66 47 -166zM930 -139h125v-158h-125v158zM705 -139h124v-158h-124v158zM817 -379h125v-158h-125v158z" />
    <glyph glyph-name="uni069B.fina" unicode="&#x69b;" horiz-adv-x="2299" 
d="M2030 111h301v-111h-1385q-14 -204 -125 -312t-315 -108t-324 120q-121 120 -121 316t89 340l110 -30q-80 -158 -80 -308t89 -243q89 -92 246 -92q316 0 314 362v829h119v-763h430v763h119v-763h414v598q0 76 -33 129l104 55q46 -65 48 -166v-616zM1489 -139h125v-158
h-125v158zM1264 -139h125v-158h-125v158zM1376 -379h125v-158h-125v158z" />
    <glyph glyph-name="uni069C.init" unicode="&#x69c;" horiz-adv-x="1617" 
d="M1468 727v-727h-1499v111h299v763h119v-763h430v763h119v-763h414v598q0 76 -33 129l104 55q47 -66 47 -166zM930 1184h125v-158h-125v158zM705 1184h124v-158h-124v158zM817 1423h125v-157h-125v157zM930 -139h125v-158h-125v158zM705 -139h124v-158h-124v158zM817 -379
h125v-158h-125v158z" />
    <glyph glyph-name="uni069C.medi" unicode="&#x69c;" horiz-adv-x="1738" 
d="M1468 727v-616h301v-111h-1800v111h299v763h119v-763h430v763h119v-763h414v598q0 76 -33 129l104 55q47 -66 47 -166zM930 1184h125v-158h-125v158zM705 1184h124v-158h-124v158zM817 1423h125v-157h-125v157zM930 -139h125v-158h-125v158zM705 -139h124v-158h-124v158z
M817 -379h125v-158h-125v158z" />
    <glyph glyph-name="uni069C.fina" unicode="&#x69c;" horiz-adv-x="2299" 
d="M2030 111h301v-111h-1385q-14 -204 -125 -312t-315 -108t-324 120q-121 120 -121 316t89 340l110 -30q-80 -158 -80 -308t89 -243q89 -92 246 -92q316 0 314 362v829h119v-763h430v763h119v-763h414v598q0 76 -33 129l104 55q46 -65 48 -166v-616zM1489 1184h125v-158
h-125v158zM1264 1184h125v-158h-125v158zM1376 1423h125v-157h-125v157zM1489 -139h125v-158h-125v158zM1264 -139h125v-158h-125v158zM1376 -379h125v-158h-125v158z" />
    <glyph glyph-name="uni069D.init" unicode="&#x69d;" horiz-adv-x="1585" 
d="M1448 0h-1479v111h307v763h119v-276q91 147 237 228t322 81q244 0 369 -142t125 -419v-346zM946 799q-162 0 -287 -68q-125 -67 -195 -193t-69 -296v-131h934v198q0 254 -92 372t-291 118zM924 -139h127v-170h-127v170zM694 -139h127v-170h-127v170z" />
    <glyph glyph-name="uni069D.medi" unicode="&#x69d;" horiz-adv-x="1652" 
d="M954 907q244 0 369 -142t125 -419v-235h235v-111h-1714v111h307v763h119v-276q91 147 237 228t322 81zM946 799q-162 0 -287 -68q-125 -67 -195 -193t-69 -296v-131h934v198q0 254 -92 372t-291 118zM924 -139h127v-170h-127v170zM694 -139h127v-170h-127v170z" />
    <glyph glyph-name="uni069D.fina" unicode="&#x69d;" horiz-adv-x="2205" 
d="M1507 907q244 0 369 -142t125 -419v-235h235v-111h-1290q-14 -204 -126 -312t-316 -108t-323 121q-120 121 -120 315t89 340l110 -24q-80 -147 -80 -305t88 -251t244 -93q317 0 317 362v829h119v-276q90 147 236 228t323 81zM1499 799q-162 0 -287 -68
q-124 -67 -194 -193t-70 -296v-131h934v198q0 254 -92 372t-291 118zM1477 -139h127v-170h-127v170zM1247 -139h127v-170h-127v170z" />
    <glyph glyph-name="uni069E.init" unicode="&#x69e;" horiz-adv-x="1585" 
d="M1448 0h-1479v111h307v763h119v-276q91 147 237 228t322 81q244 0 369 -142t125 -419v-346zM946 799q-162 0 -287 -68q-125 -67 -195 -193t-69 -296v-131h934v198q0 254 -92 372t-291 118zM973 1184h125v-158h-125v158zM748 1184h124v-158h-124v158zM860 1423h125v-157
h-125v157z" />
    <glyph glyph-name="uni069E.medi" unicode="&#x69e;" horiz-adv-x="1652" 
d="M954 907q244 0 369 -142t125 -419v-235h235v-111h-1714v111h307v763h119v-276q91 147 237 228t322 81zM946 799q-162 0 -287 -68q-125 -67 -195 -193t-69 -296v-131h934v198q0 254 -92 372t-291 118zM973 1184h125v-158h-125v158zM748 1184h124v-158h-124v158zM860 1423
h125v-157h-125v157z" />
    <glyph glyph-name="uni069E.fina" unicode="&#x69e;" horiz-adv-x="2205" 
d="M1507 907q244 0 369 -142t125 -419v-235h235v-111h-1290q-14 -204 -126 -312t-316 -108t-323 121q-120 121 -120 315t89 340l110 -24q-80 -147 -80 -305t88 -251t244 -93q317 0 317 362v829h119v-276q90 147 236 228t323 81zM1499 799q-162 0 -287 -68
q-124 -67 -194 -193t-70 -296v-131h934v198q0 254 -92 372t-291 118zM1526 1184h125v-158h-125v158zM1300 1184h125v-158h-125v158zM1413 1423h125v-157h-125v157z" />
    <glyph glyph-name="uni069F.init" unicode="&#x69f;" horiz-adv-x="1585" 
d="M954 907q244 0 369 -142t125 -419v-346h-1479v111h307v1351h119v-864q91 147 237 228t322 81zM946 799q-162 0 -287 -68q-125 -67 -195 -193t-69 -296v-131h934v198q0 254 -92 372t-291 118zM950 1184h125v-158h-125v158zM725 1184h125v-158h-125v158zM838 1423h125v-157
h-125v157z" />
    <glyph glyph-name="uni069F.medi" unicode="&#x69f;" horiz-adv-x="1652" 
d="M1448 111h235v-111h-1714v111h307v1351h119v-864q91 147 237 228t322 81q244 0 369 -142t125 -419v-235zM946 799q-162 0 -287 -68q-125 -67 -195 -193t-69 -296v-131h934v198q0 254 -92 372t-291 118zM950 1184h125v-158h-125v158zM725 1184h125v-158h-125v158z
M838 1423h125v-157h-125v157z" />
    <glyph glyph-name="uni069F.fina" unicode="&#x69f;" horiz-adv-x="1630" 
d="M932 907q244 0 368 -142t125 -419v-235h236v-111h-1600v111h193v1351h119v-864q91 147 237 228t322 81zM924 799q-162 0 -287 -68q-125 -67 -195 -193t-69 -296v-131h934v198q0 254 -92 372t-291 118zM950 1184h125v-158h-125v158zM725 1184h125v-158h-125v158zM838 1423
h125v-157h-125v157z" />
    <glyph glyph-name="uni06A0.init" unicode="&#x6a0;" horiz-adv-x="1173" 
d="M264 494q0 211 106 312t302 101q198 0 292 -70q93 -71 121 -227l-114 -12q-29 115 -90 159t-210 44t-219 -76t-69 -256v-358h729v-111h-1143v111h295v383zM735 1184h125v-158h-125v158zM510 1184h125v-158h-125v158zM623 1423h125v-157h-125v157z" />
    <glyph glyph-name="uni06A0.medi" unicode="&#x6a0;" horiz-adv-x="1134" 
d="M264 494q0 211 106 312t302 101q198 0 292 -70q93 -71 121 -227l-114 -12q-29 115 -90 159t-210 44t-219 -76t-69 -256v-358h782v-111h-1196v111h295v383zM735 1184h125v-158h-125v158zM510 1184h125v-158h-125v158zM623 1423h125v-157h-125v157z" />
    <glyph glyph-name="uni06A0.fina" unicode="&#x6a0;" horiz-adv-x="1249" 
d="M1280 0h-825q-150 0 -228 -69t-77 -203q0 -279 360 -279q283 0 348 215h119q-25 -145 -153 -233t-334 -88t-333 100q-126 99 -126 271t93 271t255 115v394q0 211 105 312t303 101q198 -1 291 -71t122 -226l-115 -12q-29 115 -90 159t-209 44t-219 -76q-70 -76 -69 -256
v-358h782v-111zM850 1184h125v-158h-125v158zM625 1184h125v-158h-125v158zM737 1423h125v-157h-125v157z" />
    <glyph glyph-name="uni06A1.init" unicode="&#x6a1;" horiz-adv-x="1126" 
d="M870 111v356q0 340 -274 340q-139 0 -214 -83t-75 -250t107.5 -265t302.5 -98h153zM989 479v-479h-1020v111h424q-98 51 -151.5 148t-53.5 222q0 195 113 310.5t299 115.5t287.5 -112.5t101.5 -315.5z" />
    <glyph glyph-name="uni06A1.medi" unicode="&#x6a1;" horiz-adv-x="1183" 
d="M870 111v356q0 340 -274 340q-139 0 -214 -83t-75 -250t107.5 -265t304.5 -98h151zM1214 0h-1245v111h424q-98 51 -151.5 148t-53.5 222q0 195 113 310.5t299 115.5t287.5 -112.5t101.5 -315.5v-368h225v-111z" />
    <glyph glyph-name="uni06A1.fina" unicode="&#x6a1;" horiz-adv-x="1748" 
d="M764 479q0 197 111 312.5t295 115.5t284 -112.5t100 -317.5v-366h226v-111h-1192q-236 0 -361 112t-125 312t95.5 313t275.5 135l14 -106q-137 -23 -201.5 -101.5t-64.5 -224.5q0 -330 375 -329h373q-96 53 -150.5 150t-54.5 218zM1436 111v356q0 340 -271 340
q-135 0 -208.5 -83t-73.5 -250t104.5 -265t296.5 -98h152z" />
    <glyph glyph-name="uni06A2.init" unicode="&#x6a2;" horiz-adv-x="1126" 
d="M870 111v356q0 340 -274 340q-139 0 -214 -83t-75 -250t108 -265t302 -98h153zM989 479v-479h-1020v111h424q-98 51 -151 148t-54 222q0 195 113 311t299 116t288 -113q101 -113 101 -316zM600 -139h127v-170h-127v170z" />
    <glyph glyph-name="uni06A2.medi" unicode="&#x6a2;" horiz-adv-x="1183" 
d="M870 111v356q0 340 -274 340q-139 0 -214 -83t-75 -250t108 -265t304 -98h151zM1214 0h-1245v111h424q-98 51 -151 148t-54 222q0 195 113 311t299 116t288 -113q101 -113 101 -316v-368h225v-111zM600 -139h127v-170h-127v170z" />
    <glyph glyph-name="uni06A2.fina" unicode="&#x6a2;" horiz-adv-x="1748" 
d="M764 479q0 197 110 313q112 116 296 116t284 -114q100 -112 100 -317v-366h226v-111h-1192q-236 0 -361 113t-125 312t96 312t275 135l14 -106q-137 -24 -201 -102t-65 -224q0 -330 375 -329h373q-96 53 -151 150q-54 97 -54 218zM1436 111v356q0 340 -271 340
q-135 0 -209 -83t-74 -250t105 -265q104 -98 297 -98h152zM768 -139h127v-170h-127v170z" />
    <glyph glyph-name="uni06A3.init" unicode="&#x6a3;" horiz-adv-x="1126" 
d="M870 111v356q0 340 -274 340q-139 0 -214 -83t-75 -250t108 -265t302 -98h153zM989 479v-479h-1020v111h424q-98 51 -151 148t-54 222q0 195 113 311t299 116t288 -113q101 -113 101 -316zM530 1235h127v-170h-127v170zM600 -139h127v-170h-127v170z" />
    <glyph glyph-name="uni06A3.medi" unicode="&#x6a3;" horiz-adv-x="1183" 
d="M870 111v356q0 340 -274 340q-139 0 -214 -83t-75 -250t108 -265t304 -98h151zM1214 0h-1245v111h424q-98 51 -151 148t-54 222q0 195 113 311t299 116t288 -113q101 -113 101 -316v-368h225v-111zM530 1235h127v-170h-127v170zM600 -139h127v-170h-127v170z" />
    <glyph glyph-name="uni06A3.fina" unicode="&#x6a3;" horiz-adv-x="1748" 
d="M764 479q0 197 110 313q112 116 296 116t284 -114q100 -112 100 -317v-366h226v-111h-1192q-236 0 -361 113t-125 312t96 312t275 135l14 -106q-137 -24 -201 -102t-65 -224q0 -330 375 -329h373q-96 53 -151 150q-54 97 -54 218zM1436 111v356q0 340 -271 340
q-135 0 -209 -83t-74 -250t105 -265q104 -98 297 -98h152zM1104 1235h127v-170h-127v170zM768 -139h127v-170h-127v170z" />
    <glyph glyph-name="uni06A5.init" unicode="&#x6a5;" horiz-adv-x="1126" 
d="M870 111v356q0 340 -274 340q-139 0 -214 -83t-75 -250t108 -265t302 -98h153zM989 479v-479h-1020v111h424q-98 51 -151 148t-54 222q0 195 113 311t299 116t288 -113q101 -113 101 -316zM715 -139h125v-158h-125v158zM489 -139h125v-158h-125v158zM602 -379h125v-158
h-125v158z" />
    <glyph glyph-name="uni06A5.medi" unicode="&#x6a5;" horiz-adv-x="1183" 
d="M870 111v356q0 340 -274 340q-139 0 -214 -83t-75 -250t108 -265t304 -98h151zM1214 0h-1245v111h424q-98 51 -151 148t-54 222q0 195 113 311t299 116t288 -113q101 -113 101 -316v-368h225v-111zM715 -139h125v-158h-125v158zM489 -139h125v-158h-125v158zM602 -379
h125v-158h-125v158z" />
    <glyph glyph-name="uni06A5.fina" unicode="&#x6a5;" horiz-adv-x="1748" 
d="M764 479q0 197 110 313q112 116 296 116t284 -114q100 -112 100 -317v-366h226v-111h-1192q-236 0 -361 113t-125 312t96 312t275 135l14 -106q-137 -24 -201 -102t-65 -224q0 -330 375 -329h373q-96 53 -151 150q-54 97 -54 218zM1436 111v356q0 340 -271 340
q-135 0 -209 -83t-74 -250t105 -265q104 -98 297 -98h152zM879 -139h125v-158h-125v158zM653 -139h125v-158h-125v158zM766 -379h125v-158h-125v158z" />
    <glyph glyph-name="uni06A7.init" unicode="&#x6a7;" horiz-adv-x="1126" 
d="M870 111v356q0 340 -274 340q-139 0 -214 -83t-75 -250t108 -265t302 -98h153zM989 479v-479h-1020v111h424q-98 51 -151 148t-54 222q0 195 113 311t299 116t288 -113q101 -113 101 -316zM530 1235h127v-170h-127v170z" />
    <glyph glyph-name="uni06A7.medi" unicode="&#x6a7;" horiz-adv-x="1183" 
d="M870 111v356q0 340 -274 340q-139 0 -214 -83t-75 -250t108 -265t302 -98h153zM1214 0h-1245v111h424q-98 51 -151 148t-54 222q0 195 113 311t299 116t288 -113q101 -113 101 -316v-368h225v-111zM530 1235h127v-170h-127v170z" />
    <glyph glyph-name="uni06A7.fina" unicode="&#x6a7;" horiz-adv-x="1312" 
d="M436 474q0 -167 108 -265t302 -98h153v356q0 340 -274 340q-139 0 -214 -83t-75 -250zM1118 111h225v-111h-225q0 -196 -130 -308t-353 -112q-295 0 -434 124t-140 386h115q4 -215 113 -310t350 -95q344 0 360 315h-133q-260 0 -404 127t-144 338t112 327
q113 116 299 116t288 -113q101 -113 101 -316v-368zM655 1235h127v-170h-127v170z" />
    <glyph glyph-name="uni06A8.init" unicode="&#x6a8;" horiz-adv-x="1126" 
d="M870 111v356q0 340 -274 340q-139 0 -214 -83t-75 -250t108 -265t302 -98h153zM989 479v-479h-1020v111h424q-98 51 -151 148t-54 222q0 195 113 311t299 116t288 -113q101 -113 101 -316zM647 1184h125v-158h-125v158zM422 1184h125v-158h-125v158zM535 1423h124v-157
h-124v157z" />
    <glyph glyph-name="uni06A8.medi" unicode="&#x6a8;" horiz-adv-x="1183" 
d="M870 111v356q0 340 -274 340q-139 0 -214 -83t-75 -250t108 -265t302 -98h153zM1214 0h-1245v111h424q-98 51 -151 148t-54 222q0 195 113 311t299 116t288 -113q101 -113 101 -316v-368h225v-111zM647 1184h125v-158h-125v158zM422 1184h125v-158h-125v158zM535 1423
h124v-157h-124v157z" />
    <glyph glyph-name="uni06A8.fina" unicode="&#x6a8;" horiz-adv-x="1312" 
d="M436 474q0 -167 108 -265t302 -98h153v356q0 340 -274 340q-139 0 -214 -83t-75 -250zM1118 111h225v-111h-225q0 -196 -130 -308t-353 -112q-295 0 -434 124t-140 386h115q4 -215 113 -310t350 -95q344 0 360 315h-133q-260 0 -404 127t-144 338t112 327
q113 116 299 116t288 -113q101 -113 101 -316v-368zM770 1184h125v-158h-125v158zM545 1184h125v-158h-125v158zM657 1423h125v-157h-125v157z" />
    <glyph glyph-name="uni06AA.init" unicode="&#x6aa;" horiz-adv-x="1505" 
d="M-31 111h1280v233q0 154 -44 246t-145.5 135t-279.5 43h-753v92l737 602h158l-719 -588h606q287 0 423 -121.5t136 -379.5v-373h-1399v111z" />
    <glyph glyph-name="uni06AA.medi" unicode="&#x6aa;" horiz-adv-x="1624" 
d="M1655 0h-1686v111h1280v233q0 154 -44 246t-145.5 135t-279.5 43h-753v92l737 602h158l-719 -588h606q287 0 423 -121.5t136 -379.5v-262h287v-111z" />
    <glyph glyph-name="uni06AA.fina" unicode="&#x6aa;" horiz-adv-x="2138" 
d="M221 362q0 -100 41 -153t128 -75.5t231 -22.5h1142v233q0 160 -47 252t-149.5 132t-272.5 40h-753v92l737 602h158l-719 -588h606q287 0 423 -121.5t136 -379.5v-262h287v-111h-1573q-256 0 -375 83t-119 265q0 127 60 223l112 -30q-53 -79 -53 -179z" />
    <glyph glyph-name="uni06AB.init" unicode="&#x6ab;" horiz-adv-x="1110" 
d="M690 1067q41 0 64.5 24.5t23.5 67.5t-23.5 67.5t-64.5 24.5t-64.5 -24.5t-23.5 -67.5t23.5 -67.5t64.5 -24.5zM743 1317q117 -34 117 -166q0 -68 -46 -114t-120 -46t-119 40t-51 108l-321 -265h241q281 0 405 -114.5t124 -376.5v-383h-1004v111h885v243q0 166 -42 254
t-136 124t-260 36h-389v92l737 602h158z" />
    <glyph glyph-name="uni06AB.medi" unicode="&#x6ab;" horiz-adv-x="1228" 
d="M690 1067q41 0 64.5 24.5t23.5 67.5t-23.5 67.5t-64.5 24.5t-64.5 -24.5t-23.5 -67.5t23.5 -67.5t64.5 -24.5zM743 1317q117 -34 117 -166q0 -68 -46 -114t-120 -46t-119 40t-51 108l-321 -265h241q281 0 405 -114.5t124 -376.5v-272h287v-111h-1291v111h885v243
q0 166 -42 254t-136 124t-260 36h-389v92l737 602h158z" />
    <glyph glyph-name="uni06AB.fina" unicode="&#x6ab;" horiz-adv-x="1990" 
d="M1452 1067q41 0 64.5 24.5t23.5 67.5t-23.5 67.5t-64.5 24.5t-64.5 -24.5t-23.5 -67.5t23.5 -67.5t64.5 -24.5zM1622 1151q0 -68 -46 -114t-120 -46t-119 40t-51 108l-321 -265h241q281 0 405 -114.5t124 -376.5v-272h286v-111h-1433q-236 0 -361 112t-125 312t95.5 313
t275.5 135l14 -106q-137 -23 -201.5 -101.5t-64.5 -224.5q0 -330 375 -329h1020v243q0 166 -42 254t-136.5 124t-259.5 36h-390v92l738 602h157l-178 -145q117 -34 117 -166z" />
    <glyph glyph-name="uni06AC.init" unicode="&#x6ac;" horiz-adv-x="1110" 
d="M973 0h-1004v111h885v243q0 166 -42 254t-136 124t-260 36h-389v92l737 602h158l-719 -588h241q281 0 405 -114t124 -377v-383zM27 1462h127v-170h-127v170z" />
    <glyph glyph-name="uni06AC.medi" unicode="&#x6ac;" horiz-adv-x="1228" 
d="M854 354q0 166 -42 254t-136 124t-260 36h-389v92l737 602h158l-719 -588h241q281 0 405 -114t124 -377v-272h287v-111h-1291v111h885v243zM27 1462h127v-170h-127v170z" />
    <glyph glyph-name="uni06AC.fina" unicode="&#x6ac;" horiz-adv-x="1785" 
d="M1411 111v1353h119v-1353h287v-111h-1229q-223 0 -355 118q-131 118 -131 311t100 310t271 133l16 -106q-137 -20 -203 -100t-65 -231q-1 -151 99 -237t276 -87h815zM965 1032q-74 0 -74 -80v-118h225v-68h-352v68h47v116q0 70 39 109t113 39q129 0 149 -123l-72 -10
q-10 39 -27 53t-48 14zM893 1378h127v-170h-127v170z" />
    <glyph glyph-name="uni06AE.init" unicode="&#x6ae;" horiz-adv-x="1110" 
d="M973 0h-1004v111h885v243q0 166 -42 254t-136 124t-260 36h-389v92l737 602h158l-719 -588h241q281 0 405 -114t124 -377v-383zM506 -139h125v-158h-125v158zM281 -139h125v-158h-125v158zM393 -379h125v-158h-125v158z" />
    <glyph glyph-name="uni06AE.medi" unicode="&#x6ae;" horiz-adv-x="1228" 
d="M854 354q0 166 -42 254t-136 124t-260 36h-389v92l737 602h158l-719 -588h241q281 0 405 -114t124 -377v-272h287v-111h-1291v111h885v243zM506 -139h125v-158h-125v158zM281 -139h125v-158h-125v158zM393 -379h125v-158h-125v158z" />
    <glyph glyph-name="uni06AE.fina" unicode="&#x6ae;" horiz-adv-x="1785" 
d="M1411 111v1353h119v-1353h287v-111h-1229q-223 0 -355 118q-131 118 -131 311t100 310t271 133l16 -106q-137 -20 -203 -100t-65 -231q-1 -151 99 -237t276 -87h815zM965 1032q-74 0 -74 -80v-118h225v-68h-352v68h47v116q0 70 39 109t113 39q129 0 149 -123l-72 -10
q-10 39 -27 53t-48 14zM979 -139h125v-158h-125v158zM754 -139h125v-158h-125v158zM866 -379h125v-158h-125v158z" />
    <glyph glyph-name="uni06B0.init" unicode="&#x6b0;" horiz-adv-x="1110" 
d="M690 1067q41 0 65 25q23 26 23 68t-23 67q-24 25 -65 25q-40 0 -64 -26q-24 -24 -24 -67t24 -67t64 -25zM743 1317q117 -34 117 -166q0 -68 -46 -114t-120 -46t-119 40t-51 108l-321 -265h241q281 0 405 -114t124 -377v-383h-1004v111h885v243q0 166 -42 254t-136 124
t-260 36h-389v92l737 602h158zM-33 1077l469 385h137l-606 -497v112z" />
    <glyph glyph-name="uni06B0.medi" unicode="&#x6b0;" horiz-adv-x="1228" 
d="M690 1067q41 0 65 25q23 26 23 68t-23 67q-24 25 -65 25q-40 0 -64 -26q-24 -24 -24 -67t24 -67t64 -25zM743 1317q117 -34 117 -166q0 -68 -46 -114t-120 -46t-119 40t-51 108l-321 -265h241q281 0 405 -114t124 -377v-272h287v-111h-1291v111h885v243q0 166 -42 254
t-136 124t-260 36h-389v92l737 602h158zM-33 1077l469 385h137l-606 -497v112z" />
    <glyph glyph-name="uni06B0.fina" unicode="&#x6b0;" horiz-adv-x="1990" 
d="M1452 1067q41 0 65 25q23 26 23 68t-23 67q-24 25 -65 25q-40 0 -64 -26q-24 -24 -24 -67t24 -67t64 -25zM1622 1151q0 -68 -46 -114t-120 -46t-119 40t-51 108l-321 -265h241q281 0 405 -114t124 -377v-272h286v-111h-1433q-236 0 -361 113t-125 312t96 312t275 135
l14 -106q-137 -24 -201 -102t-65 -224q0 -330 375 -329h1020v243q0 166 -42 254t-136 124t-260 36h-390v92l738 602h157l-178 -145q117 -34 117 -166zM727 1094l449 368h137l-586 -481v113z" />
    <glyph glyph-name="uni06B2.init" unicode="&#x6b2;" horiz-adv-x="1130" 
d="M508 -139h127v-170h-127v170zM279 -139h127v-170h-127v170zM973 0h-1004v111h885v243q0 166 -42 254t-136 124t-260 36h-389v92l737 602h158l-719 -588h241q281 0 405 -114t124 -377v-383zM-33 1077l469 385h137l-606 -497v112z" />
    <glyph glyph-name="uni06B2.medi" unicode="&#x6b2;" horiz-adv-x="1228" 
d="M508 -139h127v-170h-127v170zM279 -139h127v-170h-127v170zM854 354q0 166 -42 254t-136 124t-260 36h-389v92l737 602h158l-719 -588h241q281 0 405 -114t124 -377v-272h287v-111h-1291v111h885v243zM-33 1077l469 385h137l-606 -497v112z" />
    <glyph glyph-name="uni06B2.fina" unicode="&#x6b2;" horiz-adv-x="1990" 
d="M1032 -139h127v-170h-127v170zM803 -139h127v-170h-127v170zM588 0q-236 0 -361 113t-125 311t100 315t271 133l16 -106q-137 -20 -203 -100t-65 -226q0 -330 375 -329h1020v243q0 166 -42 254t-136 124t-260 36h-390v92l738 602h157l-718 -588h241q281 0 405 -114
t124 -377v-272h286v-111h-1433zM727 1094l449 368h137l-586 -481v113z" />
    <glyph glyph-name="uni06B4.init" unicode="&#x6b4;" horiz-adv-x="1130" 
d="M973 0h-1004v111h885v243q0 166 -42 254t-136 124t-260 36h-389v92l737 602h158l-719 -588h241q281 0 405 -114t124 -377v-383zM-33 1077l469 385h137l-606 -497v112zM106 1620h125v-158h-125v158zM-119 1620h125v-158h-125v158zM-6 1860h125v-158h-125v158z" />
    <glyph glyph-name="uni06B4.medi" unicode="&#x6b4;" horiz-adv-x="1228" 
d="M106 1620h125v-158h-125v158zM-119 1620h125v-158h-125v158zM-6 1860h125v-158h-125v158zM854 354q0 166 -42 254t-136 124t-260 36h-389v92l737 602h158l-719 -588h241q281 0 405 -114t124 -377v-272h287v-111h-1291v111h885v243zM-33 1077l469 385h137l-606 -497v112z
" />
    <glyph glyph-name="uni06B4.fina" unicode="&#x6b4;" horiz-adv-x="1990" 
d="M848 1620h125v-158h-125v158zM623 1620h125v-158h-125v158zM735 1860h125v-158h-125v158zM588 0q-236 0 -361 113t-125 311t100 315t271 133l16 -106q-137 -20 -203 -100t-65 -226q0 -330 375 -329h1020v243q0 166 -42 254t-136 124t-260 36h-390v92l738 602h157
l-718 -588h241q281 0 405 -114t124 -377v-272h286v-111h-1433zM727 1094l449 368h137l-586 -481v113z" />
    <glyph glyph-name="uni06B5.init" unicode="&#x6b5;" horiz-adv-x="538" 
d="M-31 111h301v1351h119v-1462h-420v111zM381 1559h-100l-158 272h92l115 -205l121 205h88z" />
    <glyph glyph-name="uni06B5.medi" unicode="&#x6b5;" horiz-adv-x="659" 
d="M-31 111h301v1351h119v-1351h301v-111h-721v111zM381 1559h-100l-158 272h92l115 -205l121 205h88z" />
    <glyph glyph-name="uni06B5.fina" unicode="&#x6b5;" horiz-adv-x="1218" 
d="M948 111h301v-111h-303q-14 -204 -125 -312t-315 -108t-324 120q-121 120 -121 316t89 340l110 -30q-80 -158 -80 -308t89 -243q89 -92 246 -92q316 0 314 362v1417h119v-1351zM940 1559h-100l-158 272h92l115 -205l121 205h88z" />
    <glyph glyph-name="uni06B6.init" unicode="&#x6b6;" horiz-adv-x="538" 
d="M-31 111h301v1351h119v-1462h-420v111zM266 1729h127v-170h-127v170z" />
    <glyph glyph-name="uni06B6.medi" unicode="&#x6b6;" horiz-adv-x="659" 
d="M-31 111h301v1351h119v-1351h301v-111h-721v111zM266 1729h127v-170h-127v170z" />
    <glyph glyph-name="uni06B6.fina" unicode="&#x6b6;" horiz-adv-x="1218" 
d="M948 111h301v-111h-303q-14 -204 -125 -312t-315 -108t-324 120q-121 120 -121 316t89 340l110 -30q-80 -158 -80 -308t89 -243q89 -92 246 -92q316 0 314 362v1417h119v-1351zM825 1729h127v-170h-127v170z" />
    <glyph glyph-name="uni06B7.init" unicode="&#x6b7;" horiz-adv-x="538" 
d="M-31 111h301v1351h119v-1462h-420v111zM381 1716h125v-157h-125v157zM156 1716h125v-157h-125v157zM268 1956h125v-158h-125v158z" />
    <glyph glyph-name="uni06B7.medi" unicode="&#x6b7;" horiz-adv-x="659" 
d="M-31 111h301v1351h119v-1351h301v-111h-721v111zM381 1716h125v-157h-125v157zM156 1716h125v-157h-125v157zM268 1956h125v-158h-125v158z" />
    <glyph glyph-name="uni06B7.fina" unicode="&#x6b7;" horiz-adv-x="1218" 
d="M948 111h301v-111h-303q-14 -204 -125 -312t-315 -108t-324 120q-121 120 -121 316t89 340l110 -30q-80 -158 -80 -308t89 -243q89 -92 246 -92q316 0 314 362v1417h119v-1351zM938 1714h125v-158h-125v158zM713 1714h125v-158h-125v158zM825 1954h125v-158h-125v158z
" />
    <glyph glyph-name="uni06B8.init" unicode="&#x6b8;" horiz-adv-x="538" 
d="M-31 111h301v1351h119v-1462h-420v111zM264 -139h125v-158h-125v158zM39 -139h125v-158h-125v158zM152 -379h124v-158h-124v158z" />
    <glyph glyph-name="uni06B8.medi" unicode="&#x6b8;" horiz-adv-x="659" 
d="M-31 111h301v1351h119v-1351h301v-111h-721v111zM264 -139h125v-158h-125v158zM39 -139h125v-158h-125v158zM152 -379h124v-158h-124v158z" />
    <glyph glyph-name="uni06B8.fina" unicode="&#x6b8;" horiz-adv-x="1218" 
d="M948 111h301v-111h-303q-14 -204 -125 -312t-315 -108t-324 120q-121 120 -121 316t89 340l110 -30q-80 -158 -80 -308t89 -243q89 -92 246 -92q316 0 314 362v1417h119v-1351zM575 -539h125v-157h-125v157zM350 -539h125v-157h-125v157zM463 -778h125v-158h-125v158z
" />
    <glyph glyph-name="uni06B9.init" unicode="&#x6b9;" horiz-adv-x="538" 
d="M389 727v-727h-420v111h301v598q0 76 -32 129l104 55q47 -66 47 -166zM252 1235h127v-170h-127v170zM262 -139h127v-170h-127v170z" />
    <glyph glyph-name="uni06B9.medi" unicode="&#x6b9;" horiz-adv-x="659" 
d="M-31 111h301v763h119v-763h301v-111h-721v111zM266 1235h127v-170h-127v170zM266 -139h127v-170h-127v170z" />
    <glyph glyph-name="uni06B9.fina" unicode="&#x6b9;" horiz-adv-x="1216" 
d="M506 -420q-204 0 -324 120q-121 120 -121 316t89 340l110 -30q-80 -158 -80 -308t89 -243q89 -92 246 -92q316 0 314 362v829h119v-763h299v-111h-301q-16 -204 -126 -312t-314 -108zM518 1235h127v-170h-127v170zM469 -539h127v-170h-127v170z" />
    <glyph glyph-name="uni06BC.init" unicode="&#x6bc;" horiz-adv-x="538" 
d="M180 -176q41 0 65 24t23 68q0 43 -23 68q-24 24 -65 24q-40 0 -64 -24t-24 -68t24 -68t64 -24zM389 727v-727h-61q22 -36 22 -100t-46 -108t-124 -44t-124 44t-46 108t23 100h-64v111h301v598q0 74 -32 129l104 55q47 -61 47 -166zM252 1235h127v-170h-127v170z" />
    <glyph glyph-name="uni06BC.medi" unicode="&#x6bc;" horiz-adv-x="659" 
d="M201 -176q41 0 65 24t23 68q0 43 -24 68q-25 24 -65 24t-64 -24t-24 -68q0 -43 24 -68q24 -24 65 -24zM31 -100q0 64 22 100h-84v111h301v763h119v-763h301v-111h-342q23 -36 23 -100t-46 -108t-124 -44t-124 44t-46 108zM266 1235h127v-170h-127v170z" />
    <glyph glyph-name="uni06BC.fina" unicode="&#x6bc;" horiz-adv-x="1216" 
d="M522 -598q41 0 65 25q23 25 23 67t-23 68q-24 24 -65 24q-40 0 -64 -24t-24 -68t24 -68t64 -24zM515 -317q316 0 314 362v829h119v-763h299v-111h-301q-12 -162 -86 -264t-203 -137q35 -45 35 -115t-47 -114t-123 -44t-123 44t-47 114t31 110q-154 35 -238 148t-84 290
t89 324l110 -30q-78 -152 -79 -306q-1 -153 88 -245t246 -92zM518 1235h127v-170h-127v170z" />
    <glyph glyph-name="uni06BD.init" unicode="&#x6bd;" horiz-adv-x="538" 
d="M389 727v-727h-420v111h301v598q0 76 -32 129l104 55q47 -66 47 -166zM252 -139h125v-158h-125v158zM27 -139h125v-158h-125v158zM139 -379h125v-158h-125v158z" />
    <glyph glyph-name="uni06BD.medi" unicode="&#x6bd;" horiz-adv-x="659" 
d="M-31 111h301v763h119v-763h301v-111h-721v111zM254 -139h125v-158h-125v158zM29 -139h125v-158h-125v158zM141 -379h125v-158h-125v158z" />
    <glyph glyph-name="uni06BD.fina" unicode="&#x6bd;" horiz-adv-x="1216" 
d="M506 -420q-204 0 -324 120q-121 120 -121 316t89 340l110 -30q-80 -158 -80 -308t89 -243q89 -92 246 -92q316 0 314 362v829h119v-763h299v-111h-301q-16 -204 -126 -312t-314 -108zM633 1184h125v-158h-125v158zM408 1184h124v-158h-124v158zM520 1423h125v-157h-125
v157z" />
    <glyph glyph-name="uni06BF.init" unicode="&#x6bf;" horiz-adv-x="1062" 
d="M868 494v-383h133v-111h-1032v111h781v358q0 184 -66 258t-214 74t-214 -45t-94 -158l-115 12q54 299 418 297q211 0 307 -99t96 -314zM399 1235h127v-170h-127v170zM502 -139h125v-158h-125v158zM276 -139h125v-158h-125v158zM389 -379h125v-158h-125v158z" />
    <glyph glyph-name="uni06BF.medi" unicode="&#x6bf;" horiz-adv-x="1134" 
d="M870 494v-383h295v-111h-1196v111h783v358q0 184 -66 258t-214 74t-214 -45t-94 -158l-115 12q54 299 418 297q211 0 307 -99t96 -314zM399 1235h127v-170h-127v170zM502 -139h125v-158h-125v158zM276 -139h125v-158h-125v158zM389 -379h125v-158h-125v158z" />
    <glyph glyph-name="uni06BF.fina" unicode="&#x6bf;" horiz-adv-x="1255" 
d="M999 494v-383h287v-111h-801q-149 0 -227 -69t-78 -203q0 -279 361 -279q283 0 348 215h119q-25 -145 -153 -233q-129 -88 -335 -88t-333 100q-126 99 -126 281t115 284t318 103h387v358q0 184 -66 258t-214 74t-214 -45t-94 -158l-115 12q54 299 418 297q211 0 307 -99
t96 -314zM541 1235h127v-170h-127v170zM598 -102h115v-142h-115v142zM399 -102h115v-142h-115v142zM500 -313h112v-144h-112v144z" />
    <glyph glyph-name="uni06C2.fina" unicode="&#x6c2;" horiz-adv-x="991" 
d="M205 532q-68 0 -150 -20l-24 96q84 25 178 25q160 0 266.5 -75t175.5 -239l90 -208h281v-111h-352l-115 260q-63 147 -144 209.5t-206 62.5zM307 1014q-74 0 -74 -80v-119h226v-67h-353v67h48v117q0 70 38.5 108.5t112.5 38.5q129 0 150 -123l-72 -10q-10 39 -27.5 53.5
t-48.5 14.5z" />
    <glyph glyph-name="uni06C3.fina" unicode="&#x6c3;" horiz-adv-x="991" 
d="M205 532q-68 0 -150 -20l-24 96q84 25 178 25q160 0 266.5 -75t175.5 -239l90 -208h281v-111h-352l-115 260q-63 147 -144 209.5t-206 62.5zM330 918h127v-170h-127v170zM100 918h127v-170h-127v170z" />
    <glyph glyph-name="uni06C4.fina" unicode="&#x6c4;" horiz-adv-x="1097" 
d="M274 -268q41 0 64.5 24.5t23.5 67.5t-23.5 67.5t-64.5 24.5t-64.5 -24.5t-23.5 -67.5t23.5 -67.5t64.5 -24.5zM221 474q0 -167 107.5 -265t302.5 -98h153v356q0 340 -274 340q-139 0 -214 -83t-75 -250zM104 -176q0 76 46.5 122t122 46t121.5 -45t46 -115t-30 -108
q49 -12 116 -13q141 0 199.5 61.5t58.5 209.5v18h-133q-260 0 -404.5 127t-144.5 338t113 326.5t299 115.5t287.5 -112.5t101.5 -315.5v-368h225v-111h-225q0 -207 -90 -299t-293 -92q-416 0 -416 215z" />
    <glyph glyph-name="uni06CA.fina" unicode="&#x6ca;" horiz-adv-x="1097" 
d="M221 474q0 -167 108 -265t302 -98h153v356q0 340 -274 340q-139 0 -214 -83t-75 -250zM903 111h225v-111h-225q0 -207 -90 -299q-89 -92 -277 -92t-289 76t-118 217h109q41 -188 286 -189q144 1 202 61t58 208v18h-133q-260 0 -404 127q-145 127 -145 338t113 327
t299 116t288 -113q101 -113 101 -316v-368zM575 1235h127v-170h-127v170zM346 1235h127v-170h-127v170z" />
    <glyph glyph-name="uni06CD.fina" unicode="&#x6cd;" horiz-adv-x="1722" 
d="M948 61q0 -233 -110 -357t-323 -124q-212 0 -333 120t-121 316t89 340l110 -30q-80 -158 -80 -308t89 -243q89 -92 246 -92q316 0 314 362v399q0 226 85 328t274 102h264v-763h301v-111h-420v772h-168q-115 0 -166 -71t-51 -228v-412z" />
    <glyph glyph-name="uni06CE.init" unicode="&#x6ce;" horiz-adv-x="538" 
d="M389 727v-727h-420v111h301v598q0 76 -32 129l104 55q47 -66 47 -166zM352 1028h-100l-158 272h92l115 -204l121 204h88zM262 -139h127v-170h-127v170zM33 -139h127v-170h-127v170z" />
    <glyph glyph-name="uni06CE.medi" unicode="&#x6ce;" horiz-adv-x="659" 
d="M-31 111h301v763h119v-763h301v-111h-721v111zM379 1028h-100l-158 272h92l115 -204l121 204h88zM262 -139h127v-170h-127v170zM33 -139h127v-170h-127v170z" />
    <glyph glyph-name="uni06CE.fina" unicode="&#x6ce;" horiz-adv-x="1722" 
d="M948 61q0 -233 -110 -357t-323 -124q-212 0 -333 120t-121 316t89 340l110 -30q-80 -158 -80 -308t89 -243q89 -92 246 -92q316 0 314 362v399q0 226 85 328t274 102h264v-763h301v-111h-420v772h-168q-115 0 -166 -71t-51 -228v-412zM324 549h-101l-157 272h92l114 -205
l121 205h88z" />
    <glyph glyph-name="uni06CF.fina" unicode="&#x6cf;" horiz-adv-x="1097" 
d="M221 474q0 -167 108 -265t302 -98h153v356q0 340 -274 340q-139 0 -214 -83t-75 -250zM903 111h225v-111h-225q0 -207 -90 -299q-89 -92 -277 -92t-289 76t-118 217h109q41 -188 286 -189q144 1 202 61t58 208v18h-133q-260 0 -404 127q-145 127 -145 338t113 327
t299 116t288 -113q101 -113 101 -316v-368zM461 1235h127v-170h-127v170z" />
    <glyph glyph-name="uni06D1.init" unicode="&#x6d1;" horiz-adv-x="538" 
d="M389 727v-727h-420v111h301v598q0 76 -32 129l104 55q47 -66 47 -166zM260 -139h125v-158h-125v158zM35 -139h125v-158h-125v158zM147 -379h125v-158h-125v158z" />
    <glyph glyph-name="uni06D1.medi" unicode="&#x6d1;" horiz-adv-x="659" 
d="M-31 111h301v763h119v-763h301v-111h-721v111zM260 -139h125v-158h-125v158zM35 -139h125v-158h-125v158zM147 -379h125v-158h-125v158z" />
    <glyph glyph-name="uni06D1.fina" unicode="&#x6d1;" horiz-adv-x="1722" 
d="M948 61q0 -233 -110 -357t-323 -124q-212 0 -333 120t-121 316t89 340l110 -30q-80 -158 -80 -308t89 -243q89 -92 246 -92q316 0 314 362v399q0 226 85 328t274 102h264v-763h301v-111h-420v772h-168q-115 0 -166 -71t-51 -228v-412zM582 -539h125v-157h-125v157z
M356 -539h125v-157h-125v157zM469 -778h125v-158h-125v158z" />
    <glyph glyph-name="afii57534.fina" unicode="&#x6d5;" horiz-adv-x="1097" 
d="M221 474q0 -167 107.5 -265t304.5 -98h151v356q0 340 -274 340q-139 0 -214 -83t-75 -250zM903 111h225v-111h-475q-260 0 -405.5 127t-145.5 338t113 326.5t299 115.5t287.5 -112.5t101.5 -315.5v-368z" />
    <glyph glyph-name="uni06EE.fina" unicode="&#x6ee;" horiz-adv-x="1163" 
d="M807 111v192q0 262 -88 380t-281 118q-121 0 -223 -43l-29 104q123 45 265 45q243 0 359 -144t116 -441v-211h268v-111h-1133v111h746zM449 1300h100l158 -272h-93l-114 205l-121 -205h-88z" />
    <glyph glyph-name="uni06EF.fina" unicode="&#x6ef;" horiz-adv-x="706" 
d="M170 -313q151 0 149 194v993h117v-763h301v-111h-301v-98q0 -322 -270 -322q-74 0 -166 25l23 100q75 -18 147 -18zM326 1300h100l158 -272h-92l-115 205l-121 -205h-88z" />
    <glyph glyph-name="uni06FA.init" unicode="&#x6fa;" horiz-adv-x="1617" 
d="M1468 727v-727h-1499v111h299v763h119v-763h430v763h119v-763h414v598q0 76 -33 129l104 55q47 -66 47 -166zM930 1184h125v-158h-125v158zM705 1184h124v-158h-124v158zM817 1423h125v-157h-125v157zM815 -139h127v-170h-127v170z" />
    <glyph glyph-name="uni06FA.medi" unicode="&#x6fa;" horiz-adv-x="1738" 
d="M1468 727v-616h301v-111h-1800v111h299v763h119v-763h430v763h119v-763h414v598q0 76 -33 129l104 55q47 -66 47 -166zM930 1184h125v-158h-125v158zM705 1184h124v-158h-124v158zM817 1423h125v-157h-125v157zM815 -139h127v-170h-127v170z" />
    <glyph glyph-name="uni06FA.fina" unicode="&#x6fa;" horiz-adv-x="2299" 
d="M2030 111h301v-111h-1385q-14 -204 -125 -312t-315 -108t-324 120q-121 120 -121 316t89 340l110 -30q-80 -158 -80 -308t89 -243q89 -92 246 -92q316 0 314 362v829h119v-763h430v763h119v-763h414v598q0 76 -33 129l104 55q46 -65 48 -166v-616zM1489 1184h125v-158
h-125v158zM1264 1184h125v-158h-125v158zM1376 1423h125v-157h-125v157zM1374 -139h127v-170h-127v170z" />
    <glyph glyph-name="uni06FB.init" unicode="&#x6fb;" horiz-adv-x="1585" 
d="M1448 0h-1479v111h307v763h119v-276q91 147 237 228t322 81q244 0 369 -142t125 -419v-346zM946 799q-162 0 -287 -68q-125 -67 -195 -193t-69 -296v-131h934v198q0 254 -92 372t-291 118zM825 1235h127v-170h-127v170zM825 -139h127v-170h-127v170z" />
    <glyph glyph-name="uni06FB.medi" unicode="&#x6fb;" horiz-adv-x="1652" 
d="M954 907q244 0 369 -142t125 -419v-235h235v-111h-1714v111h307v763h119v-276q91 147 237 228t322 81zM946 799q-162 0 -287 -68q-125 -67 -195 -193t-69 -296v-131h934v198q0 254 -92 372t-291 118zM825 1235h127v-170h-127v170zM825 -139h127v-170h-127v170z" />
    <glyph glyph-name="uni06FB.fina" unicode="&#x6fb;" horiz-adv-x="2205" 
d="M1507 907q244 0 369 -142t125 -419v-235h235v-111h-1290q-14 -204 -126 -312t-316 -108t-323 121q-120 121 -120 315t89 340l110 -24q-80 -147 -80 -305t88 -251t244 -93q317 0 317 362v829h119v-276q90 147 236 228t323 81zM1499 799q-162 0 -287 -68
q-124 -67 -194 -193t-70 -296v-131h934v198q0 254 -92 372t-291 118zM1378 1235h127v-170h-127v170zM1378 -139h127v-170h-127v170z" />
    <glyph glyph-name="uni06FC.init" unicode="&#x6fc;" horiz-adv-x="1173" 
d="M264 494q0 211 106 312t302 101q198 0 292 -70q93 -71 121 -227l-114 -12q-29 115 -90 159t-210 44t-219 -76t-69 -256v-358h729v-111h-1143v111h295v383zM627 1235h127v-170h-127v170zM627 -139h127v-170h-127v170z" />
    <glyph glyph-name="uni06FC.medi" unicode="&#x6fc;" horiz-adv-x="1134" 
d="M264 494q0 211 106 312t302 101q198 0 292 -70q93 -71 121 -227l-114 -12q-29 115 -90 159t-210 44t-219 -76t-69 -256v-358h782v-111h-1196v111h295v383zM627 1235h127v-170h-127v170zM627 -139h127v-170h-127v170z" />
    <glyph glyph-name="uni06FC.fina" unicode="&#x6fc;" horiz-adv-x="1249" 
d="M1280 0h-825q-150 0 -228 -69t-77 -203q0 -279 360 -279q283 0 348 215h119q-25 -145 -153 -233t-334 -88t-333 100q-126 99 -126 271t93 271t255 115v394q0 211 105 312t303 101q198 -1 291 -71t122 -226l-115 -12q-29 115 -90 159t-209 44t-219 -76q-70 -76 -69 -256
v-358h782v-111zM735 1235h127v-170h-127v170zM444 -178h127v-170h-127v170z" />
    <glyph glyph-name="uni06FF.init" unicode="&#x6ff;" horiz-adv-x="1499" 
d="M760 471q0 172 -56 254t-176 82q-119 0 -182 -80t-63 -229q1 -209 111 -298t366 -89v360zM962 918q-157 0 -221 -70q137 -102 138 -365v-372h364v475q0 184 -62 258t-219 74zM-31 111h402q-98 53 -153 154q-54 101 -54 233q0 186 100 298t271 111q55 0 104 -12
q101 129 319 129t311 -99t93 -315v-610h-1393v111zM881 1417h100l158 -272h-92l-115 205l-121 -205h-88z" />
    <glyph glyph-name="uni06FF.medi" unicode="&#x6ff;" horiz-adv-x="1095" 
d="M786 -172q0 76 -84 125t-235 49h-141v-41q0 -145 60 -213t189 -67q211 0 211 147zM770 532q0 274 -227 275q-217 0 -217 -260v-438h84q104 0 185 51t128 148t47 224zM897 -183q0 -114 -86 -175q-85 -62 -249 -62t-260 93q-95 93 -95 270v57h-238v111h238v419
q0 176 92 276t251 101q159 0 249 -101t90 -257q0 -305 -234 -438h471v-111h-362q133 -69 133 -183zM502 1300h100l158 -272h-92l-115 205l-121 -205h-88z" />
    <glyph glyph-name="uni06FF.fina" unicode="&#x6ff;" horiz-adv-x="1026" 
d="M717 -172q0 76 -84 125t-236 49h-141v-41q0 -145 60 -213t190 -67q211 0 211 147zM700 532q0 274 -227 275q-217 0 -217 -260v-438h84q104 0 185 51t128 148t47 224zM137 -57v587q0 176 92 276t251 101q159 0 249 -101t90 -257q0 -306 -233 -438h471v-111h-363
q135 -71 133 -193q0 -104 -86 -165q-85 -62 -249 -62t-260 93q-95 93 -95 270zM432 1300h100l158 -272h-92l-115 205l-121 -205h-88z" />
    <glyph glyph-name="uniFB50" unicode="&#x671;" horiz-adv-x="446" arabic-form="isolated" 
d="M164 0v1462h119v-1462h-119zM342 1669q0 90 -88 90q-42 0 -68 -19q-42 -32 -43 -100v-14h199v43zM418 1679v-120h-389v67h39v197h69v-58q51 63 126 63.5t115 -39.5t40 -110z" />
    <glyph glyph-name="uniFB51" unicode="&#x671;" horiz-adv-x="538" arabic-form="final" 
d="M569 0h-419v1462h118v-1351h301v-111zM328 1669q0 90 -88 90q-42 0 -68 -19q-42 -32 -43 -100v-14h199v43zM403 1679v-120h-389v67h39v197h70v-58q51 63 126 63.5t114.5 -39.5t39.5 -110z" />
    <glyph glyph-name="uniFB52" unicode="&#x67b;" horiz-adv-x="1679" arabic-form="isolated" 
d="M588 0q-223 0 -355 118q-131 118 -131 311t100 310t271 133l16 -106q-137 -20 -203 -100t-65 -231q-1 -151 99 -237t276 -87h815v763h119v-874h-942zM815 -139h131v-158h-131v158zM815 -379h131v-158h-131v158z" />
    <glyph glyph-name="uniFB53" unicode="&#x67b;" horiz-adv-x="1785" arabic-form="final" 
d="M1411 111v763h119v-763h287v-111h-1229q-223 0 -355 118q-131 118 -131 311t100 310t271 133l16 -106q-137 -20 -203 -100t-65 -231q-1 -151 99 -237t276 -87h815zM815 -139h131v-158h-131v158zM815 -379h131v-158h-131v158z" />
    <glyph glyph-name="uniFB54" unicode="&#x67b;" horiz-adv-x="538" arabic-form="initial" 
d="M389 727v-727h-420v111h301v598q0 76 -32 129l104 55q47 -66 47 -166zM258 -139h131v-158h-131v158zM258 -379h131v-158h-131v158z" />
    <glyph glyph-name="uniFB55" unicode="&#x67b;" horiz-adv-x="659" arabic-form="medial" 
d="M-31 111h301v763h119v-763h301v-111h-721v111zM264 -139h131v-158h-131v158zM264 -379h131v-158h-131v158z" />
    <glyph glyph-name="uniFB56" unicode="&#x67e;" horiz-adv-x="1679" arabic-form="isolated" 
d="M588 0q-223 0 -354.5 118t-131.5 311t99.5 310t271.5 133l16 -106q-137 -20 -202.5 -100t-65.5 -231t99.5 -237.5t275.5 -86.5h815v763h119v-874h-942zM979 -139h125v-158h-125v158zM754 -139h125v-158h-125v158zM866 -379h125v-158h-125v158z" />
    <glyph glyph-name="uniFB57" unicode="&#x67e;" horiz-adv-x="1785" arabic-form="final" 
d="M1411 111v763h119v-763h287v-111h-1229q-223 0 -354.5 118t-131.5 311t99.5 310t271.5 133l16 -106q-137 -20 -202.5 -100t-65.5 -231t99.5 -237.5t275.5 -86.5h815zM979 -139h125v-158h-125v158zM754 -139h125v-158h-125v158zM866 -379h125v-158h-125v158z" />
    <glyph glyph-name="uniFB58" unicode="&#x67e;" horiz-adv-x="538" arabic-form="initial" 
d="M389 727v-727h-420v111h301v598q0 76 -32 129l104 55q47 -66 47 -166zM252 -139h125v-158h-125v158zM27 -139h125v-158h-125v158zM139 -379h125v-158h-125v158z" />
    <glyph glyph-name="uniFB59" unicode="&#x67e;" horiz-adv-x="659" arabic-form="medial" 
d="M-31 111h301v763h119v-763h301v-111h-721v111zM254 -139h125v-158h-125v158zM29 -139h125v-158h-125v158zM141 -379h125v-158h-125v158z" />
    <glyph glyph-name="uniFB5A" unicode="&#x680;" horiz-adv-x="1679" arabic-form="isolated" 
d="M588 0q-223 0 -355 118q-131 118 -131 311t100 310t271 133l16 -106q-137 -20 -203 -100t-65 -231q-1 -151 99 -237t276 -87h815v763h119v-874h-942zM924 -379h125v-158h-125v158zM715 -379h125v-158h-125v158zM924 -139h125v-158h-125v158zM715 -139h125v-158h-125v158z
" />
    <glyph glyph-name="uniFB5B" unicode="&#x680;" horiz-adv-x="1785" arabic-form="final" 
d="M1411 111v763h119v-763h287v-111h-1229q-223 0 -355 118q-131 118 -131 311t100 310t271 133l16 -106q-137 -20 -203 -100t-65 -231q-1 -151 99 -237t276 -87h815zM971 -379h125v-158h-125v158zM762 -379h125v-158h-125v158zM971 -139h125v-158h-125v158zM762 -139h125
v-158h-125v158z" />
    <glyph glyph-name="uniFB5C" unicode="&#x680;" horiz-adv-x="538" arabic-form="initial" 
d="M389 727v-727h-420v111h301v598q0 76 -32 129l104 55q47 -66 47 -166zM252 -379h125v-158h-125v158zM43 -379h125v-158h-125v158zM252 -139h125v-158h-125v158zM43 -139h125v-158h-125v158z" />
    <glyph glyph-name="uniFB5D" unicode="&#x680;" horiz-adv-x="659" arabic-form="medial" 
d="M-31 111h301v763h119v-763h301v-111h-721v111zM252 -379h125v-158h-125v158zM43 -379h125v-158h-125v158zM252 -139h125v-158h-125v158zM43 -139h125v-158h-125v158z" />
    <glyph glyph-name="uniFB5E" unicode="&#x67a;" horiz-adv-x="1679" arabic-form="isolated" 
d="M588 0q-223 0 -355 118q-131 118 -131 311t100 310t271 133l16 -106q-137 -20 -203 -100t-65 -231q-1 -151 99 -237t276 -87h815v763h119v-874h-942zM856 1423h131v-157h-131v157zM856 1184h131v-158h-131v158z" />
    <glyph glyph-name="uniFB5F" unicode="&#x67a;" horiz-adv-x="1785" arabic-form="final" 
d="M1411 111v763h119v-763h287v-111h-1229q-223 0 -355 118q-131 118 -131 311t100 310t271 133l16 -106q-137 -20 -203 -100t-65 -231q-1 -151 99 -237t276 -87h815zM856 1423h131v-157h-131v157zM856 1184h131v-158h-131v158z" />
    <glyph glyph-name="uniFB60" unicode="&#x67a;" horiz-adv-x="538" arabic-form="initial" 
d="M389 727v-727h-420v111h301v598q0 76 -32 129l104 55q47 -66 47 -166zM250 1423h131v-157h-131v157zM250 1184h131v-158h-131v158z" />
    <glyph glyph-name="uniFB61" unicode="&#x67a;" horiz-adv-x="659" arabic-form="medial" 
d="M-31 111h301v763h119v-763h301v-111h-721v111zM250 1423h131v-157h-131v157zM250 1184h131v-158h-131v158z" />
    <glyph glyph-name="uniFB62" unicode="&#x67f;" horiz-adv-x="1679" arabic-form="isolated" 
d="M588 0q-223 0 -355 118q-131 118 -131 311t100 310t271 133l16 -106q-137 -20 -203 -100t-65 -231q-1 -151 99 -237t276 -87h815v763h119v-874h-942zM971 1184h127v-158h-127v158zM748 1184h124v-158h-124v158zM971 1423h127v-157h-127v157zM748 1423h124v-157h-124v157z
" />
    <glyph glyph-name="uniFB63" unicode="&#x67f;" horiz-adv-x="1785" arabic-form="final" 
d="M1411 111v763h119v-763h287v-111h-1229q-223 0 -355 118q-131 118 -131 311t100 310t271 133l16 -106q-137 -20 -203 -100t-65 -231q-1 -151 99 -237t276 -87h815zM971 1184h127v-158h-127v158zM748 1184h124v-158h-124v158zM971 1423h127v-157h-127v157zM748 1423h124
v-157h-124v157z" />
    <glyph glyph-name="uniFB64" unicode="&#x67f;" horiz-adv-x="538" arabic-form="initial" 
d="M389 727v-727h-420v111h301v598q0 76 -32 129l104 55q47 -66 47 -166zM252 1184h127v-158h-127v158zM29 1184h125v-158h-125v158zM252 1423h127v-157h-127v157zM29 1423h125v-157h-125v157z" />
    <glyph glyph-name="uniFB65" unicode="&#x67f;" horiz-adv-x="659" arabic-form="medial" 
d="M-31 111h301v763h119v-763h301v-111h-721v111zM252 1184h127v-158h-127v158zM29 1184h125v-158h-125v158zM252 1423h127v-157h-127v157zM29 1423h125v-157h-125v157z" />
    <glyph glyph-name="uniFB66" unicode="&#x679;" horiz-adv-x="1679" arabic-form="isolated" 
d="M588 0q-223 0 -354.5 118t-131.5 311t99.5 310t271.5 133l16 -106q-137 -20 -202.5 -100t-65.5 -231t99.5 -237.5t275.5 -86.5h815v763h119v-874h-942zM1057 1141q0 90 -91 90q-44 0 -78 -28t-34 -93v-16h203v47zM978 1298q73 0 112.5 -39.5t39.5 -109.5v-121h-389v66h39
v317h74v-168q51 55 124 55z" />
    <glyph glyph-name="uniFB67" unicode="&#x679;" horiz-adv-x="1785" arabic-form="final" 
d="M1411 111v763h119v-763h287v-111h-1229q-223 0 -354.5 118t-131.5 311t99.5 310t271.5 133l16 -106q-137 -20 -202.5 -100t-65.5 -231t99.5 -237.5t275.5 -86.5h815zM1057 1141q0 90 -91 90q-44 0 -78 -28t-34 -93v-16h203v47zM978 1298q73 0 112.5 -39.5t39.5 -109.5
v-121h-389v66h39v317h74v-168q51 55 124 55z" />
    <glyph glyph-name="uniFB68" unicode="&#x679;" horiz-adv-x="538" arabic-form="initial" 
d="M389 727v-727h-420v111h301v598q0 76 -32 129l104 55q47 -66 47 -166zM315 1141q0 90 -91 90q-44 0 -78 -28t-33 -93v-16h202v47zM237 1298q73 0 112.5 -39.5t39.5 -109.5v-121h-389v66h39v317h74v-168q51 55 124 55z" />
    <glyph glyph-name="uniFB69" unicode="&#x679;" horiz-adv-x="659" arabic-form="medial" 
d="M-31 111h301v763h119v-763h301v-111h-721v111zM315 1141q0 90 -91 90q-44 0 -78 -28t-33 -93v-16h202v47zM237 1298q73 0 112.5 -39.5t39.5 -109.5v-121h-389v66h39v317h74v-168q51 55 124 55z" />
    <glyph glyph-name="uniFB6A" unicode="&#x6a4;" horiz-adv-x="1691" arabic-form="isolated" 
d="M764 481q0 197 110.5 311.5t295 114.5t284.5 -112.5t100 -317.5v-477h-966q-236 0 -361 112.5t-125 312t95.5 312.5t275.5 135l14 -106q-137 -23 -201.5 -101.5t-64.5 -224.5q0 -330 375 -329h373q-96 53 -150.5 150t-54.5 220zM1436 111v356q0 340 -271 340
q-135 0 -208.5 -83t-73.5 -250t104.5 -265t296.5 -98h152zM1219 1184h124v-158h-124v158zM993 1184h125v-158h-125v158zM1106 1423h125v-157h-125v157z" />
    <glyph glyph-name="uniFB6B" unicode="&#x6a4;" horiz-adv-x="1748" arabic-form="final" 
d="M764 479q0 197 110.5 312.5t295 115.5t284.5 -112.5t100 -317.5v-366h226v-111h-1192q-236 0 -361 112.5t-125 312t95.5 312.5t275.5 135l14 -106q-137 -23 -201.5 -101.5t-64.5 -224.5q0 -330 375 -329h373q-96 53 -150.5 150t-54.5 218zM1436 111v356q0 340 -271 340
q-135 0 -208.5 -83t-73.5 -250t104.5 -265t296.5 -98h152zM1219 1184h124v-158h-124v158zM993 1184h125v-158h-125v158zM1106 1423h125v-157h-125v157z" />
    <glyph glyph-name="uniFB6C" unicode="&#x6a4;" horiz-adv-x="1126" arabic-form="initial" 
d="M870 111v356q0 340 -274 340q-139 0 -214 -83t-75 -250t107.5 -265t302.5 -98h153zM989 479v-479h-1020v111h424q-98 51 -151.5 148t-53.5 222q0 195 113 310.5t299 115.5t287.5 -112.5t101.5 -315.5zM647 1184h125v-158h-125v158zM422 1184h125v-158h-125v158zM535 1423
h124v-157h-124v157z" />
    <glyph glyph-name="uniFB6D" unicode="&#x6a4;" horiz-adv-x="1183" arabic-form="medial" 
d="M870 111v356q0 340 -274 340q-139 0 -214 -83t-75 -250t107.5 -265t304.5 -98h151zM1214 0h-1245v111h424q-98 51 -151.5 148t-53.5 222q0 195 113 310.5t299 115.5t287.5 -112.5t101.5 -315.5v-368h225v-111zM647 1184h125v-158h-125v158zM422 1184h125v-158h-125v158z
M535 1423h124v-157h-124v157z" />
    <glyph glyph-name="uniFB6E" unicode="&#x6a6;" horiz-adv-x="1691" arabic-form="isolated" 
d="M764 481q0 197 110 312q112 115 296 115t284 -114q100 -112 100 -317v-477h-966q-236 0 -361 113t-125 312t96 312t275 135l14 -106q-137 -24 -201 -102t-65 -224q0 -330 375 -329h373q-96 53 -151 150q-54 97 -54 220zM1436 111v356q0 340 -271 340q-135 0 -209 -83
t-74 -250t105 -265q104 -98 297 -98h152zM1217 1184h126v-158h-126v158zM993 1184h125v-158h-125v158zM1217 1423h126v-157h-126v157zM993 1423h125v-157h-125v157z" />
    <glyph glyph-name="uniFB6F" unicode="&#x6a6;" horiz-adv-x="1748" arabic-form="final" 
d="M764 479q0 197 110 313q112 116 296 116t284 -114q100 -112 100 -317v-366h226v-111h-1192q-236 0 -361 113t-125 312t96 312t275 135l14 -106q-137 -24 -201 -102t-65 -224q0 -330 375 -329h373q-96 53 -151 150q-54 97 -54 218zM1436 111v356q0 340 -271 340
q-135 0 -209 -83t-74 -250t105 -265q104 -98 297 -98h152zM1217 1184h126v-158h-126v158zM993 1184h125v-158h-125v158zM1217 1423h126v-157h-126v157zM993 1423h125v-157h-125v157z" />
    <glyph glyph-name="uniFB70" unicode="&#x6a6;" horiz-adv-x="1126" arabic-form="initial" 
d="M870 111v356q0 340 -274 340q-139 0 -214 -83t-75 -250t108 -265t302 -98h153zM989 479v-479h-1020v111h424q-98 51 -151 148t-54 222q0 195 113 311t299 116t288 -113q101 -113 101 -316zM643 1184h127v-158h-127v158zM420 1184h125v-158h-125v158zM643 1423h127v-157
h-127v157zM420 1423h125v-157h-125v157z" />
    <glyph glyph-name="uniFB71" unicode="&#x6a6;" horiz-adv-x="1183" arabic-form="medial" 
d="M870 111v356q0 340 -274 340q-139 0 -214 -83t-75 -250t108 -265t304 -98h151zM1214 0h-1245v111h424q-98 51 -151 148t-54 222q0 195 113 311t299 116t288 -113q101 -113 101 -316v-368h225v-111zM643 1184h127v-158h-127v158zM420 1184h125v-158h-125v158zM643 1423
h127v-157h-127v157zM420 1423h125v-157h-125v157z" />
    <glyph glyph-name="uniFB72" unicode="&#x684;" horiz-adv-x="1193" arabic-form="isolated" 
d="M999 494v-383h134v-111h-648q-149 0 -227 -69t-78 -203q0 -279 361 -279q283 0 348 215h119q-25 -145 -153 -233q-129 -88 -335 -88t-333 100q-126 99 -126 281t115 284t318 103h387v358q0 184 -66 258t-214 74t-214 -45t-94 -158l-115 12q54 299 418 297q211 0 307 -99
t96 -314zM598 -236h-115v142h115v-142zM598 -446h-115v141h115v-141z" />
    <glyph glyph-name="uniFB73" unicode="&#x684;" horiz-adv-x="1255" arabic-form="final" 
d="M999 494v-383h287v-111h-801q-149 0 -227 -69t-78 -203q0 -279 361 -279q283 0 348 215h119q-25 -145 -153 -233q-129 -88 -335 -88t-333 100q-126 99 -126 281t115 284t318 103h387v358q0 184 -66 258t-214 74t-214 -45t-94 -158l-115 12q54 299 418 297q211 0 307 -99
t96 -314zM598 -236h-115v142h115v-142zM598 -446h-115v141h115v-141z" />
    <glyph glyph-name="uniFB74" unicode="&#x684;" horiz-adv-x="1062" arabic-form="initial" 
d="M868 494v-383h133v-111h-1032v111h781v358q0 184 -66 258t-214 74t-214 -45t-94 -158l-115 12q54 299 418 297q211 0 307 -99t96 -314zM397 -139h131v-158h-131v158zM397 -379h131v-158h-131v158z" />
    <glyph glyph-name="uniFB75" unicode="&#x684;" horiz-adv-x="1134" arabic-form="medial" 
d="M870 494v-383h295v-111h-1196v111h783v358q0 184 -66 258t-214 74t-214 -45t-94 -158l-115 12q54 299 418 297q211 0 307 -99t96 -314zM397 -139h131v-158h-131v158zM397 -379h131v-158h-131v158z" />
    <glyph glyph-name="uniFB76" unicode="&#x683;" horiz-adv-x="1193" arabic-form="isolated" 
d="M999 494v-383h134v-111h-648q-149 0 -227 -69t-78 -203q0 -279 361 -279q283 0 348 215h119q-25 -145 -153 -233q-129 -88 -335 -88t-333 100q-126 99 -126 281t115 284t318 103h387v358q0 184 -66 258t-214 74t-214 -45t-94 -158l-115 12q54 299 418 297q211 0 307 -99
t96 -314zM481 -348h-127v170h127v-170zM711 -348h-127v170h127v-170z" />
    <glyph glyph-name="uniFB77" unicode="&#x683;" horiz-adv-x="1255" arabic-form="final" 
d="M999 494v-383h287v-111h-801q-149 0 -227 -69t-78 -203q0 -279 361 -279q283 0 348 215h119q-25 -145 -153 -233q-129 -88 -335 -88t-333 100q-126 99 -126 281t115 284t318 103h387v358q0 184 -66 258t-214 74t-214 -45t-94 -158l-115 12q54 299 418 297q211 0 307 -99
t96 -314zM481 -348h-127v170h127v-170zM711 -348h-127v170h127v-170z" />
    <glyph glyph-name="uniFB78" unicode="&#x683;" horiz-adv-x="1062" arabic-form="initial" 
d="M868 494v-383h133v-111h-1032v111h781v358q0 184 -66 258t-214 74t-214 -45t-94 -158l-115 12q54 299 418 297q211 0 307 -99t96 -314zM514 -139h127v-170h-127v170zM285 -139h127v-170h-127v170z" />
    <glyph glyph-name="uniFB79" unicode="&#x683;" horiz-adv-x="1134" arabic-form="medial" 
d="M870 494v-383h295v-111h-1196v111h783v358q0 184 -66 258t-214 74t-214 -45t-94 -158l-115 12q54 299 418 297q211 0 307 -99t96 -314zM514 -139h127v-170h-127v170zM285 -139h127v-170h-127v170z" />
    <glyph glyph-name="uniFB7A" unicode="&#x686;" horiz-adv-x="1193" arabic-form="isolated" 
d="M596 907q211 0 307 -99t96 -314v-383h134v-111h-648q-305 0 -305 -272q0 -279 361 -279q283 0 348 215h119q-25 -145 -153 -233t-334.5 -88t-333 100t-126.5 281.5t115 284t318 102.5h387v358q0 184 -65.5 258t-214 74t-214 -45t-94.5 -158l-115 12q53 297 418 297z
M598 -102h115v-142h-115v142zM399 -102h115v-142h-115v142zM500 -313h112v-144h-112v144z" />
    <glyph glyph-name="uniFB7B" unicode="&#x686;" horiz-adv-x="1255" arabic-form="final" 
d="M596 907q211 0 307 -99t96 -314v-383h287v-111h-801q-305 0 -305 -272q0 -279 361 -279q283 0 348 215h119q-25 -145 -153 -233t-334.5 -88t-333 100t-126.5 281.5t115 284t318 102.5h387v358q0 184 -65.5 258t-214 74t-214 -45t-94.5 -158l-115 12q53 297 418 297z
M598 -102h115v-142h-115v142zM399 -102h115v-142h-115v142zM500 -313h112v-144h-112v144z" />
    <glyph glyph-name="uniFB7C" unicode="&#x686;" horiz-adv-x="1062" arabic-form="initial" 
d="M465 907q211 0 307 -99t96 -314v-383h133v-111h-1032v111h781v358q0 184 -66 258t-214 74t-214 -45t-94 -158l-115 12q53 297 418 297zM502 -139h125v-158h-125v158zM276 -139h125v-158h-125v158zM389 -379h125v-158h-125v158z" />
    <glyph glyph-name="uniFB7D" unicode="&#x686;" horiz-adv-x="1134" arabic-form="medial" 
d="M467 907q211 0 307 -99t96 -314v-383h295v-111h-1196v111h783v358q0 184 -65.5 258t-214 74t-214 -45t-94.5 -158l-115 12q53 297 418 297zM502 -139h125v-158h-125v158zM276 -139h125v-158h-125v158zM389 -379h125v-158h-125v158z" />
    <glyph glyph-name="uniFB7E" unicode="&#x687;" horiz-adv-x="1193" arabic-form="isolated" 
d="M999 494v-383h134v-111h-648q-149 0 -227 -69t-78 -203q0 -279 361 -279q283 0 348 215h119q-25 -145 -153 -233q-129 -88 -335 -88t-333 100q-126 99 -126 281t115 284t318 103h387v358q0 184 -66 258t-214 74t-214 -45t-94 -158l-115 12q54 299 418 297q211 0 307 -99
t96 -314zM670 -227h-105v131h105v-131zM500 -227h-105v131h105v-131zM500 -428h-105v131h105v-131zM670 -428h-105v131h105v-131z" />
    <glyph glyph-name="uniFB7F" unicode="&#x687;" horiz-adv-x="1255" arabic-form="final" 
d="M999 494v-383h287v-111h-801q-149 0 -227 -69t-78 -203q0 -279 361 -279q283 0 348 215h119q-25 -145 -153 -233q-129 -88 -335 -88t-333 100q-126 99 -126 281t115 284t318 103h387v358q0 184 -66 258t-214 74t-214 -45t-94 -158l-115 12q54 299 418 297q211 0 307 -99
t96 -314zM670 -227h-105v131h105v-131zM500 -227h-105v131h105v-131zM500 -428h-105v131h105v-131zM670 -428h-105v131h105v-131z" />
    <glyph glyph-name="uniFB80" unicode="&#x687;" horiz-adv-x="1062" arabic-form="initial" 
d="M868 494v-383h133v-111h-1032v111h781v358q0 184 -66 258t-214 74t-214 -45t-94 -158l-115 12q54 299 418 297q211 0 307 -99t96 -314zM494 -379h124v-158h-124v158zM285 -379h125v-158h-125v158zM494 -139h124v-158h-124v158zM285 -139h125v-158h-125v158z" />
    <glyph glyph-name="uniFB81" unicode="&#x687;" horiz-adv-x="1134" arabic-form="medial" 
d="M870 494v-383h295v-111h-1196v111h783v358q0 184 -66 258t-214 74t-214 -45t-94 -158l-115 12q54 299 418 297q211 0 307 -99t96 -314zM494 -379h124v-158h-124v158zM285 -379h125v-158h-125v158zM494 -139h124v-158h-124v158zM285 -139h125v-158h-125v158z" />
    <glyph glyph-name="uniFB82" unicode="&#x68d;" horiz-adv-x="1062" arabic-form="isolated" 
d="M807 111v192q0 262 -88 380t-281 118q-121 0 -223 -43l-29 104q123 45 265 45q243 0 359 -144t116 -441v-322h-865v111h746zM573 -139h127v-170h-127v170zM344 -139h127v-170h-127v170z" />
    <glyph glyph-name="uniFB83" unicode="&#x68d;" horiz-adv-x="1163" arabic-form="final" 
d="M807 111v192q0 262 -88 380t-281 118q-121 0 -223 -43l-29 104q123 45 265 45q243 0 359 -144t116 -441v-211h268v-111h-1133v111h746zM573 -139h127v-170h-127v170zM344 -139h127v-170h-127v170z" />
    <glyph glyph-name="uniFB84" unicode="&#x68c;" horiz-adv-x="1062" arabic-form="isolated" 
d="M807 111v192q0 262 -88 380t-281 118q-121 0 -223 -43l-29 104q123 45 265 45q243 0 359 -144t116 -441v-322h-865v111h746zM547 1235h127v-170h-127v170zM317 1235h127v-170h-127v170z" />
    <glyph glyph-name="uniFB85" unicode="&#x68c;" horiz-adv-x="1163" arabic-form="final" 
d="M807 111v192q0 262 -88 380t-281 118q-121 0 -223 -43l-29 104q123 45 265 45q243 0 359 -144t116 -441v-211h268v-111h-1133v111h746zM547 1235h127v-170h-127v170zM317 1235h127v-170h-127v170z" />
    <glyph glyph-name="uniFB86" unicode="&#x68e;" horiz-adv-x="1062" arabic-form="isolated" 
d="M807 111v192q0 262 -88 380t-281 118q-121 0 -223 -43l-29 104q123 45 265 45q243 0 359 -144t116 -441v-322h-865v111h746zM547 1184h125v-158h-125v158zM322 1184h124v-158h-124v158zM434 1423h125v-157h-125v157z" />
    <glyph glyph-name="uniFB87" unicode="&#x68e;" horiz-adv-x="1163" arabic-form="final" 
d="M807 111v192q0 262 -88 380t-281 118q-121 0 -223 -43l-29 104q123 45 265 45q243 0 359 -144t116 -441v-211h268v-111h-1133v111h746zM547 1184h125v-158h-125v158zM322 1184h124v-158h-124v158zM434 1423h125v-157h-125v157z" />
    <glyph glyph-name="uniFB88" unicode="&#x688;" horiz-adv-x="1062" arabic-form="isolated" 
d="M807 111v192q0 262 -88 380t-281 118q-121 0 -223 -43l-29 104q123 45 265 45q242 0 358.5 -144.5t116.5 -440.5v-322h-865v111h746zM614 1141q0 90 -91 90q-44 0 -78 -28t-33 -93v-16h202v47zM536 1298q73 0 112.5 -39.5t39.5 -109.5v-121h-389v66h39v317h74v-168
q51 55 124 55z" />
    <glyph glyph-name="uniFB89" unicode="&#x688;" horiz-adv-x="1163" arabic-form="final" 
d="M807 111v192q0 262 -88 380t-281 118q-121 0 -223 -43l-29 104q123 45 265 45q242 0 358.5 -144.5t116.5 -440.5v-211h268v-111h-1133v111h746zM614 1141q0 90 -91 90q-44 0 -78 -28t-33 -93v-16h202v47zM536 1298q73 0 112.5 -39.5t39.5 -109.5v-121h-389v66h39v317h74
v-168q51 55 124 55z" />
    <glyph glyph-name="uniFB8A" unicode="&#x698;" horiz-adv-x="585" arabic-form="isolated" 
d="M170 -313q150 0 149 194v993h117v-972q0 -322 -270 -322q-74 0 -166 25l23 100q75 -18 147 -18zM311 1184h125v-158h-125v158zM86 1184h125v-158h-125v158zM199 1423h125v-157h-125v157z" />
    <glyph glyph-name="uniFB8B" unicode="&#x698;" horiz-adv-x="706" arabic-form="final" 
d="M170 -313q150 0 149 194v993h117v-763h301v-111h-301v-98q0 -322 -270 -322q-74 0 -166 25l23 100q75 -18 147 -18zM311 1184h125v-158h-125v158zM86 1184h125v-158h-125v158zM199 1423h125v-157h-125v157z" />
    <glyph glyph-name="uniFB8C" unicode="&#x691;" horiz-adv-x="585" arabic-form="isolated" 
d="M170 -313q150 0 149 194v993h117v-972q0 -322 -270 -322q-74 0 -166 25l23 100q75 -18 147 -18zM362 1141q0 90 -91 90q-44 0 -77.5 -28t-33.5 -93v-16h202v47zM284 1298q73 0 112.5 -39.5t39.5 -109.5v-121h-389v66h39v317h74v-168q51 55 124 55z" />
    <glyph glyph-name="uniFB8D" unicode="&#x691;" horiz-adv-x="706" arabic-form="final" 
d="M170 -313q150 0 149 194v993h117v-763h301v-111h-301v-98q0 -322 -270 -322q-74 0 -166 25l23 100q75 -18 147 -18zM362 1141q0 90 -91 90q-44 0 -77.5 -28t-33.5 -93v-16h202v47zM284 1298q73 0 112.5 -39.5t39.5 -109.5v-121h-389v66h39v317h74v-168q51 55 124 55z" />
    <glyph glyph-name="uniFB8E" unicode="&#x6a9;" horiz-adv-x="1871" arabic-form="isolated" 
d="M588 0q-236 0 -361 112q-125 114 -125 312t99.5 315t271.5 133l16 -106q-137 -20 -202.5 -100t-65.5 -226q0 -330 375 -329h1020v243q0 166 -42 254t-136.5 124t-259.5 36h-390v92l738 602h157l-718 -588h241q281 0 405 -114.5t124 -376.5v-383h-1147z" />
    <glyph glyph-name="uniFB8F" unicode="&#x6a9;" horiz-adv-x="1990" arabic-form="final" 
d="M588 0q-236 0 -361 112q-125 114 -125 312t99.5 315t271.5 133l16 -106q-137 -20 -202.5 -100t-65.5 -226q0 -330 375 -329h1020v243q0 166 -42 254t-136.5 124t-259.5 36h-390v92l738 602h157l-718 -588h241q281 0 405 -114.5t124 -376.5v-272h286v-111h-1433z" />
    <glyph glyph-name="uniFB90" unicode="&#x6a9;" horiz-adv-x="1110" arabic-form="initial" 
d="M973 0h-1004v111h885v243q0 166 -42 254t-136 124t-260 36h-389v92l737 602h158l-719 -588h241q281 0 405 -114.5t124 -376.5v-383z" />
    <glyph glyph-name="uniFB91" unicode="&#x6a9;" horiz-adv-x="1228" arabic-form="medial" 
d="M854 354q0 166 -42 254t-136 124t-260 36h-389v92l737 602h158l-719 -588h241q281 0 405 -114.5t124 -376.5v-272h287v-111h-1291v111h885v243z" />
    <glyph glyph-name="uniFB92" unicode="&#x6af;" horiz-adv-x="1871" arabic-form="isolated" 
d="M588 0q-236 0 -361 112q-125 114 -125 312t99.5 315t271.5 133l16 -106q-137 -20 -202.5 -100t-65.5 -226q0 -330 375 -329h1020v243q0 166 -42 254t-136.5 124t-259.5 36h-390v92l738 602h157l-718 -588h241q281 0 405 -114.5t124 -376.5v-383h-1147zM727 1094l449 368
h137l-586 -481v113z" />
    <glyph glyph-name="uniFB93" unicode="&#x6af;" horiz-adv-x="1990" arabic-form="final" 
d="M588 0q-236 0 -361 112q-125 114 -125 312t99.5 315t271.5 133l16 -106q-137 -20 -202.5 -100t-65.5 -226q0 -330 375 -329h1020v243q0 166 -42 254t-136.5 124t-259.5 36h-390v92l738 602h157l-718 -588h241q281 0 405 -114.5t124 -376.5v-272h286v-111h-1433zM727 1094
l449 368h137l-586 -481v113z" />
    <glyph glyph-name="uniFB94" unicode="&#x6af;" horiz-adv-x="1110" arabic-form="initial" 
d="M973 0h-1004v111h885v243q0 166 -42 254t-136 124t-260 36h-389v92l737 602h158l-719 -588h241q281 0 405 -114.5t124 -376.5v-383zM-33 1077l469 385h137l-606 -497v112z" />
    <glyph glyph-name="uniFB95" unicode="&#x6af;" horiz-adv-x="1228" arabic-form="medial" 
d="M854 354q0 166 -42 254t-136 124t-260 36h-389v92l737 602h158l-719 -588h241q281 0 405 -114.5t124 -376.5v-272h287v-111h-1291v111h885v243zM-33 1077l469 385h137l-606 -497v112z" />
    <glyph glyph-name="uniFB96" unicode="&#x6b3;" horiz-adv-x="1871" arabic-form="isolated" 
d="M915 -139h132v-158h-132v158zM915 -379h132v-158h-132v158zM588 0q-236 0 -361 113t-125 311t100 315t271 133l16 -106q-137 -20 -203 -100t-65 -226q0 -330 375 -329h1020v243q0 166 -42 254t-136 124t-260 36h-390v92l738 602h157l-718 -588h241q281 0 405 -114
t124 -377v-383h-1147zM727 1094l449 368h137l-586 -481v113z" />
    <glyph glyph-name="uniFB97" unicode="&#x6b3;" horiz-adv-x="1990" arabic-form="final" 
d="M915 -139h132v-158h-132v158zM915 -379h132v-158h-132v158zM588 0q-236 0 -361 113t-125 311t100 315t271 133l16 -106q-137 -20 -203 -100t-65 -226q0 -330 375 -329h1020v243q0 166 -42 254t-136 124t-260 36h-390v92l738 602h157l-718 -588h241q281 0 405 -114
t124 -377v-272h286v-111h-1433zM727 1094l449 368h137l-586 -481v113z" />
    <glyph glyph-name="uniFB98" unicode="&#x6b3;" horiz-adv-x="1130" arabic-form="initial" 
d="M389 -139h131v-158h-131v158zM389 -379h131v-158h-131v158zM973 0h-1004v111h885v243q0 166 -42 254t-136 124t-260 36h-389v92l737 602h158l-719 -588h241q281 0 405 -114t124 -377v-383zM-33 1077l469 385h137l-606 -497v112z" />
    <glyph glyph-name="uniFB99" unicode="&#x6b3;" horiz-adv-x="1228" arabic-form="medial" 
d="M389 -139h131v-158h-131v158zM389 -379h131v-158h-131v158zM854 354q0 166 -42 254t-136 124t-260 36h-389v92l737 602h158l-719 -588h241q281 0 405 -114t124 -377v-272h287v-111h-1291v111h885v243zM-33 1077l469 385h137l-606 -497v112z" />
    <glyph glyph-name="uniFB9A" unicode="&#x6b1;" horiz-adv-x="1871" arabic-form="isolated" 
d="M850 1632h127v-170h-127v170zM621 1632h127v-170h-127v170zM588 0q-236 0 -361 113t-125 311t100 315t271 133l16 -106q-137 -20 -203 -100t-65 -226q0 -330 375 -329h1020v243q0 166 -42 254t-136 124t-260 36h-390v92l738 602h157l-718 -588h241q281 0 405 -114
t124 -377v-383h-1147zM727 1094l449 368h137l-586 -481v113z" />
    <glyph glyph-name="uniFB9B" unicode="&#x6b1;" horiz-adv-x="1990" arabic-form="final" 
d="M850 1632h127v-170h-127v170zM621 1632h127v-170h-127v170zM588 0q-236 0 -361 113t-125 311t100 315t271 133l16 -106q-137 -20 -203 -100t-65 -226q0 -330 375 -329h1020v243q0 166 -42 254t-136 124t-260 36h-390v92l738 602h157l-718 -588h241q281 0 405 -114
t124 -377v-272h286v-111h-1433zM727 1094l449 368h137l-586 -481v113z" />
    <glyph glyph-name="uniFB9C" unicode="&#x6b1;" horiz-adv-x="1130" arabic-form="initial" 
d="M109 1632h127v-170h-127v170zM-121 1632h127v-170h-127v170zM973 0h-1004v111h885v243q0 166 -42 254t-136 124t-260 36h-389v92l737 602h158l-719 -588h241q281 0 405 -114t124 -377v-383zM-33 1077l469 385h137l-606 -497v112z" />
    <glyph glyph-name="uniFB9D" unicode="&#x6b1;" horiz-adv-x="1228" arabic-form="medial" 
d="M109 1632h127v-170h-127v170zM-121 1632h127v-170h-127v170zM854 354q0 166 -42 254t-136 124t-260 36h-389v92l737 602h158l-719 -588h241q281 0 405 -114t124 -377v-272h287v-111h-1291v111h885v243zM-33 1077l469 385h137l-606 -497v112z" />
    <glyph glyph-name="uniFB9E" unicode="&#x6ba;" horiz-adv-x="1097" arabic-form="isolated" 
d="M516 -317q313 0 313 362v829h119v-813q0 -233 -110.5 -357t-322.5 -124t-333 120t-121 315.5t89 340.5l110 -30q-80 -158 -80 -308.5t89 -242.5t247 -92z" />
    <glyph glyph-name="uniFB9F" unicode="&#x6ba;" horiz-adv-x="1216" arabic-form="final" 
d="M516 -317q313 0 313 362v829h119v-763h299v-111h-301q-16 -205 -125.5 -312.5t-313.5 -107.5t-325 120t-121 315.5t89 340.5l110 -30q-80 -158 -80 -308.5t89 -242.5t247 -92z" />
    <glyph glyph-name="uniFBA0" unicode="&#x6bb;" horiz-adv-x="1097" arabic-form="isolated" 
d="M948 61q0 -233 -110 -357t-323 -124q-212 0 -333 120t-121 316t89 340l110 -30q-80 -158 -80 -308t89 -243q89 -92 246 -92q316 0 314 362v829h119v-813zM664 1141q0 43 -24 67t-68 23q-44 0 -78 -28t-33 -93v-16h203v47zM585 1298q73 0 113 -40t39 -109v-121h-389v66h39
v317h74v-168q51 55 124 55z" />
    <glyph glyph-name="uniFBA1" unicode="&#x6bb;" horiz-adv-x="1216" arabic-form="final" 
d="M506 -420q-204 0 -324 120q-121 120 -121 316t89 340l110 -30q-80 -158 -80 -308t89 -243q89 -92 246 -92q316 0 314 362v829h119v-763h299v-111h-301q-16 -204 -126 -312t-314 -108zM664 1141q0 43 -24 67t-68 23q-44 0 -78 -28t-33 -93v-16h203v47zM585 1298
q73 0 113 -40t39 -109v-121h-389v66h39v317h74v-168q51 55 124 55z" />
    <glyph glyph-name="uniFBA2" unicode="&#x6bb;" horiz-adv-x="538" arabic-form="initial" 
d="M389 727v-727h-420v111h301v598q0 76 -32 129l104 55q47 -66 47 -166zM315 1141q0 90 -91 90q-44 0 -78 -28t-33 -93v-16h202v47zM237 1298q73 0 113 -40t39 -109v-121h-389v66h39v317h74v-168q51 55 124 55z" />
    <glyph glyph-name="uniFBA3" unicode="&#x6bb;" horiz-adv-x="659" arabic-form="medial" 
d="M-31 111h301v763h119v-763h301v-111h-721v111zM315 1141q0 90 -91 90q-44 0 -78 -28t-33 -93v-16h202v47zM237 1298q73 0 113 -40t39 -109v-121h-389v66h39v317h74v-168q51 55 124 55z" />
    <glyph glyph-name="uniFBA4" unicode="&#x6c0;" horiz-adv-x="1067" arabic-form="isolated" 
d="M102 432q0 217 119 346t317 129t312.5 -126t114.5 -343t-118 -344t-318 -127t-313.5 124t-113.5 341zM223 438q0 -176 81 -272t230.5 -96t230.5 96t81 272t-81 272.5t-230.5 96.5t-230.5 -96.5t-81 -272.5zM563 1294q-74 0 -74 -80v-118h226v-68h-353v68h48v116
q0 70 38.5 109t112.5 39q129 0 150 -123l-72 -10q-10 39 -27.5 53t-48.5 14z" />
    <glyph glyph-name="uniFBA5" unicode="&#x6c0;" horiz-adv-x="1097" arabic-form="final" 
d="M221 474q0 -167 107.5 -265t304.5 -98h151v356q0 340 -274 340q-139 0 -214 -83t-75 -250zM903 111h225v-111h-475q-260 0 -405.5 127t-145.5 338t113 326.5t299 115.5t287.5 -112.5t101.5 -315.5v-368zM545 1294q-74 0 -74 -80v-118h225v-68h-352v68h47v116q0 70 39 109
t113 39q129 0 149 -123l-71 -10q-10 39 -28 53t-48 14z" />
    <glyph glyph-name="uniFBA6" unicode="&#x6c1;" horiz-adv-x="1067" arabic-form="isolated" 
d="M102 432q0 217 119 346t317 129t312.5 -126t114.5 -343t-118 -344t-318 -127t-313.5 124t-113.5 341zM223 438q0 -176 81 -272t230.5 -96t230.5 96t81 272t-81 272.5t-230.5 96.5t-230.5 -96.5t-81 -272.5z" />
    <glyph glyph-name="uniFBA7" unicode="&#x6c1;" horiz-adv-x="991" arabic-form="final" 
d="M205 532q-68 0 -150 -20l-24 96q84 25 178 25q160 0 266.5 -75t175.5 -239l90 -208h281v-111h-352l-115 260q-63 147 -144 209.5t-206 62.5z" />
    <glyph glyph-name="uniFBA8" unicode="&#x6c1;" horiz-adv-x="538" arabic-form="initial" 
d="M389 727v-727h-420v111h301v598q0 76 -32 129l104 55q47 -66 47 -166zM317 -520h-127l82 352h97z" />
    <glyph glyph-name="uniFBA9" unicode="&#x6c1;" horiz-adv-x="630" arabic-form="medial" 
d="M-31 111h693v-111h-287v-526h-119v526h-287v111zM16 -592h-127l82 352h97z" />
    <glyph glyph-name="uniFBAA" unicode="&#x6be;" horiz-adv-x="1437" arabic-form="isolated" 
d="M698 471q0 172 -56 254t-175 82t-182.5 -80t-63.5 -229q0 -209 110.5 -298t366.5 -89v360zM900 918q-157 0 -220 -70q137 -102 137 -365v-372h365v475q0 184 -62.5 258t-219.5 74zM473 907q55 0 105 -12q102 129 319 129t310 -99.5t93 -314.5v-610h-688q-238 0 -374 131
t-136 342t99.5 322.5t271.5 111.5z" />
    <glyph glyph-name="uniFBAB" unicode="&#x6be;" horiz-adv-x="1026" arabic-form="final" 
d="M506 -319q211 0 211 147q0 76 -84 125t-236 49h-141v-41q0 -145 60.5 -212.5t189.5 -67.5zM700 532q0 274 -227 275q-217 0 -217 -260v-438h84q104 0 185 51t128 148t47 224zM827 -183.5q0 -113.5 -86 -175t-249.5 -61.5t-259 93.5t-95.5 269.5v587q0 176 92.5 276.5
t251 100.5t248.5 -101t90 -257q0 -305 -233 -438h471v-111h-363q133 -70 133 -183.5z" />
    <glyph glyph-name="uniFBAC" unicode="&#x6be;" horiz-adv-x="1499" arabic-form="initial" 
d="M760 471q0 172 -56.5 254t-175 82t-182 -80t-63.5 -229q0 -209 110.5 -298t366.5 -89v360zM962 918q-157 0 -221 -70q137 -102 138 -365v-372h364v475q0 184 -62 258t-219 74zM-31 111h402q-98 53 -152.5 154.5t-54.5 232.5q0 186 100.5 297.5t270.5 111.5q55 0 104 -12
q102 129 319.5 129t310.5 -99.5t93 -314.5v-610h-1393v111z" />
    <glyph glyph-name="uniFBAD" unicode="&#x6be;" horiz-adv-x="1095" arabic-form="medial" 
d="M575 -319q211 0 211 147q0 76 -84 125t-235 49h-141v-41q0 -145 60 -212.5t189 -67.5zM770 532q0 274 -227 275q-217 0 -217 -260v-438h84q104 0 185 51t128 148t47 224zM897 -183.5q0 -113.5 -86 -175t-249.5 -61.5t-259 93.5t-95.5 269.5v57h-238v111h238v419
q0 176 92 276.5t251 100.5t249 -101t90 -257q0 -305 -234 -438h471v-111h-362q133 -70 133 -183.5z" />
    <glyph glyph-name="uniFBAE" unicode="&#x6d2;" horiz-adv-x="1503" arabic-form="isolated" 
d="M82 0v92l737 602h158l-715 -583h1159v-111h-1339z" />
    <glyph glyph-name="uniFBAF" unicode="&#x6d2;" horiz-adv-x="1355" arabic-form="final" 
d="M553 -643q-270 0 -396 90t-126 284.5t128 287t394 92.5h833v-111h-833q-291 0 -365 -112q-38 -58 -38 -156t40 -156q76 -108 363 -108h502v-111h-502z" />
    <glyph glyph-name="uniFBB0" unicode="&#x6d3;" horiz-adv-x="1503" arabic-form="isolated" 
d="M82 0v92l737 602h158l-715 -583h1159v-111h-1339zM285 985q-74 0 -74 -80v-119h225v-67h-352v67h47v117q0 70 39 109t113 39q129 0 149 -123l-72 -10q-10 39 -27.5 53t-47.5 14z" />
    <glyph glyph-name="uniFBB1" unicode="&#x6d3;" horiz-adv-x="1355" arabic-form="final" 
d="M553 -643q-270 0 -396 90t-126 284.5t128 287t394 92.5h833v-111h-833q-291 0 -365 -112q-38 -58 -38 -156t40 -156q76 -108 363 -108h502v-111h-502zM317 571q-73 0 -73 -79v-119h225v-68h-352v68h47v116q0 70 39 109t112 39q129 0 150 -123l-72 -10q-10 39 -27.5 53
t-48.5 14z" />
    <glyph glyph-name="uniFBD3" unicode="&#x6ad;" horiz-adv-x="1679" arabic-form="isolated" 
d="M1411 111v1351h119v-1462h-942q-223 0 -355 118q-131 118 -131 311t100 310t271 133l16 -106q-137 -20 -203 -100t-65 -231q-1 -151 99 -237t276 -87h815zM965 1032q-74 0 -74 -80v-118h225v-68h-352v68h47v116q0 70 39 109t113 39q129 0 149 -123l-72 -10q-10 39 -27 53
t-48 14zM1008 1327h125v-158h-125v158zM782 1327h125v-158h-125v158zM895 1567h125v-158h-125v158z" />
    <glyph glyph-name="uniFBD4" unicode="&#x6ad;" horiz-adv-x="1785" arabic-form="final" 
d="M1411 111v1353h119v-1353h287v-111h-1229q-223 0 -355 118q-131 118 -131 311t100 310t271 133l16 -106q-137 -20 -203 -100t-65 -231q-1 -151 99 -237t276 -87h815zM965 1032q-74 0 -74 -80v-118h225v-68h-352v68h47v116q0 70 39 109t113 39q129 0 149 -123l-72 -10
q-10 39 -27 53t-48 14zM1008 1327h125v-158h-125v158zM782 1327h125v-158h-125v158zM895 1567h125v-158h-125v158z" />
    <glyph glyph-name="uniFBD5" unicode="&#x6ad;" horiz-adv-x="1110" arabic-form="initial" 
d="M973 0h-1004v111h885v243q0 166 -42 254t-136 124t-260 36h-389v92l737 602h158l-719 -588h241q281 0 405 -114t124 -377v-383zM141 1411h125v-158h-125v158zM-84 1411h125v-158h-125v158zM29 1651h125v-158h-125v158z" />
    <glyph glyph-name="uniFBD6" unicode="&#x6ad;" horiz-adv-x="1228" arabic-form="medial" 
d="M854 354q0 166 -42 254t-136 124t-260 36h-389v92l737 602h158l-719 -588h241q281 0 405 -114t124 -377v-272h287v-111h-1291v111h885v243zM141 1411h125v-158h-125v158zM-84 1411h125v-158h-125v158zM29 1651h125v-158h-125v158z" />
    <glyph glyph-name="uniFBD7" unicode="&#x6c7;" horiz-adv-x="1040" arabic-form="isolated" 
d="M221 474q0 -167 108 -265t302 -98h153v356q0 340 -274 340q-139 0 -214 -83t-75 -250zM903 14q0 -217 -88 -311q-87 -94 -277 -94t-291 76t-118 217h109q41 -188 286 -189q144 1 202 61t58 208v18h-133q-260 0 -404 127q-145 127 -145 338t113 327t299 116t288 -113
q101 -113 101 -316v-465zM516 1182q64 0 64 66q1 66 -60 67q-68 0 -67 -68q0 -31 17 -48t46 -17zM504 1016q-51 0 -115 22l17 60q49 -23 96 -23q82 0 82 66v28q-29 -41 -83 -41t-85 32t-31 88t36 90t98 34t98 -37t36 -100v-61q1 -158 -149 -158z" />
    <glyph glyph-name="uniFBD8" unicode="&#x6c7;" horiz-adv-x="1097" arabic-form="final" 
d="M221 474q0 -167 108 -265t302 -98h153v356q0 340 -274 340q-139 0 -214 -83t-75 -250zM903 111h225v-111h-225q0 -207 -90 -299q-89 -92 -277 -92t-289 76t-118 217h109q41 -188 286 -189q144 1 202 61t58 208v18h-133q-260 0 -404 127q-145 127 -145 338t113 327
t299 116t288 -113q101 -113 101 -316v-368zM516 1182q64 0 64 66q1 66 -60 67q-68 0 -67 -68q0 -31 17 -48t46 -17zM504 1016q-51 0 -115 22l17 60q49 -23 96 -23q82 0 82 66v28q-29 -41 -83 -41t-85 32t-31 88t36 90t98 34t98 -37t36 -100v-61q1 -158 -149 -158z" />
    <glyph glyph-name="uniFBD9" unicode="&#x6c6;" horiz-adv-x="1040" arabic-form="isolated" 
d="M221 474q0 -167 108 -265t302 -98h153v356q0 340 -274 340q-139 0 -214 -83t-75 -250zM903 14q0 -217 -88 -311q-87 -94 -277 -94t-291 76t-118 217h109q41 -188 286 -189q144 1 202 61t58 208v18h-133q-260 0 -404 127q-145 127 -145 338t113 327t299 116t288 -113
q101 -113 101 -316v-465zM567 1028h-100l-158 272h92l115 -204l121 204h88z" />
    <glyph glyph-name="uniFBDA" unicode="&#x6c6;" horiz-adv-x="1097" arabic-form="final" 
d="M221 474q0 -167 108 -265t302 -98h153v356q0 340 -274 340q-139 0 -214 -83t-75 -250zM903 111h225v-111h-225q0 -207 -90 -299q-89 -92 -277 -92t-289 76t-118 217h109q41 -188 286 -189q144 1 202 61t58 208v18h-133q-260 0 -404 127q-145 127 -145 338t113 327
t299 116t288 -113q101 -113 101 -316v-368zM567 1028h-100l-158 272h92l115 -204l121 204h88z" />
    <glyph glyph-name="uniFBDB" unicode="&#x6c8;" horiz-adv-x="1040" arabic-form="isolated" 
d="M221 474q0 -167 108 -265t302 -98h153v356q0 340 -274 340q-139 0 -214 -83t-75 -250zM903 14q0 -217 -88 -311q-87 -94 -277 -94t-291 76t-118 217h109q41 -188 286 -189q144 1 202 61t58 208v18h-133q-260 0 -404 127q-145 127 -145 338t113 327t299 116t288 -113
q101 -113 101 -316v-465zM567 1382v-354h-86v354h86z" />
    <glyph glyph-name="uniFBDC" unicode="&#x6c8;" horiz-adv-x="1097" arabic-form="final" 
d="M221 474q0 -167 108 -265t302 -98h153v356q0 340 -274 340q-139 0 -214 -83t-75 -250zM903 111h225v-111h-225q0 -207 -90 -299q-89 -92 -277 -92t-289 76t-118 217h109q41 -188 286 -189q144 1 202 61t58 208v18h-133q-260 0 -404 127q-145 127 -145 338t113 327
t299 116t288 -113q101 -113 101 -316v-368zM567 1382v-354h-86v354h86z" />
    <glyph glyph-name="uniFBDD" unicode="&#x677;" horiz-adv-x="1040" arabic-form="isolated" 
d="M221 474q0 -167 108 -265t302 -98h153v356q0 340 -274 340q-139 0 -214 -83t-75 -250zM903 14q0 -217 -88 -311q-87 -94 -277 -94t-291 76t-118 217h109q41 -188 286 -189q144 1 202 61t58 208v18h-133q-260 0 -404 127q-145 127 -145 338t113 327t299 116t288 -113
q101 -113 101 -316v-465zM434 1182q64 0 64 66q1 66 -60 67q-68 0 -67 -68q0 -31 17 -48t46 -17zM422 1016q-51 0 -115 22l17 60q49 -23 96 -23q82 0 82 66v28q-29 -41 -83 -41t-85 32t-31 88t36 90t98 34q63 0 99 -37t35 -100v-61q1 -158 -149 -158zM928 1294
q-74 0 -74 -80v-118h225v-68h-352v68h47v116q0 70 39 109t113 39q129 0 149 -123l-71 -10q-10 39 -28 53t-48 14z" />
    <glyph glyph-name="uniFBDE" unicode="&#x6cb;" horiz-adv-x="1040" arabic-form="isolated" 
d="M221 474q0 -167 108 -265t302 -98h153v356q0 340 -274 340q-139 0 -214 -83t-75 -250zM903 14q0 -217 -88 -311q-87 -94 -277 -94t-291 76t-118 217h109q41 -188 286 -189q144 1 202 61t58 208v18h-133q-260 0 -404 127q-145 127 -145 338t113 327t299 116t288 -113
q101 -113 101 -316v-465zM578 1184h124v-158h-124v158zM352 1184h125v-158h-125v158zM465 1423h125v-157h-125v157z" />
    <glyph glyph-name="uniFBDF" unicode="&#x6cb;" horiz-adv-x="1097" arabic-form="final" 
d="M221 474q0 -167 108 -265t302 -98h153v356q0 340 -274 340q-139 0 -214 -83t-75 -250zM903 111h225v-111h-225q0 -207 -90 -299q-89 -92 -277 -92t-289 76t-118 217h109q41 -188 286 -189q144 1 202 61t58 208v18h-133q-260 0 -404 127q-145 127 -145 338t113 327
t299 116t288 -113q101 -113 101 -316v-368zM578 1184h124v-158h-124v158zM352 1184h125v-158h-125v158zM465 1423h125v-157h-125v157z" />
    <glyph glyph-name="uniFBE0" unicode="&#x6c5;" horiz-adv-x="1040" arabic-form="isolated" 
d="M221 474q0 -167 108 -265t302 -98h153v356q0 340 -274 340q-139 0 -214 -83t-75 -250zM524 -293q100 0 157 29q56 29 81 94h-383v88h401q4 23 4 64v24h-133q-260 0 -404 125q-145 125 -145 335t113 326t299 116t288 -113q101 -113 101 -316v-465q0 -217 -88 -311
q-87 -94 -277 -94t-291 76t-118 217h109q41 -195 286 -195z" />
    <glyph glyph-name="uniFBE1" unicode="&#x6c5;" horiz-adv-x="1097" arabic-form="final" 
d="M221 474q0 -167 107.5 -265t302.5 -98h153v356q0 340 -274 340q-139 0 -214 -83t-75 -250zM524 -293q100 0 156.5 28.5t81.5 94.5h-383v88h401q4 23 4 64v24h-133q-260 0 -404.5 125t-144.5 335t113 325.5t299 115.5t287.5 -112.5t101.5 -315.5v-368h225v-111h-225
q0 -207 -89.5 -299t-277.5 -92t-289.5 75.5t-117.5 217.5h109q41 -195 286 -195z" />
    <glyph glyph-name="uniFBE2" unicode="&#x6c9;" horiz-adv-x="1040" arabic-form="isolated" 
d="M221 474q0 -167 108 -265t302 -98h153v356q0 340 -274 340q-139 0 -214 -83t-75 -250zM903 14q0 -217 -88 -311q-87 -94 -277 -94t-291 76t-118 217h109q41 -188 286 -189q144 1 202 61t58 208v18h-133q-260 0 -404 127q-145 127 -145 338t113 327t299 116t288 -113
q101 -113 101 -316v-465zM475 1300h100l158 -272h-92l-115 205l-120 -205h-89z" />
    <glyph glyph-name="uniFBE3" unicode="&#x6c9;" horiz-adv-x="1097" arabic-form="final" 
d="M221 474q0 -167 108 -265t302 -98h153v356q0 340 -274 340q-139 0 -214 -83t-75 -250zM903 111h225v-111h-225q0 -207 -90 -299q-89 -92 -277 -92t-289 76t-118 217h109q41 -188 286 -189q144 1 202 61t58 208v18h-133q-260 0 -404 127q-145 127 -145 338t113 327
t299 116t288 -113q101 -113 101 -316v-368zM475 1300h100l158 -272h-92l-115 205l-120 -205h-89z" />
    <glyph glyph-name="uniFBE4" unicode="&#x6d0;" horiz-adv-x="1298" arabic-form="isolated" 
d="M1165 772q-115 0 -166 -71t-51 -228v-412q0 -233 -110 -357t-323 -124q-212 0 -333 120t-121 316t89 340l110 -30q-80 -158 -80 -308t89 -243q89 -92 246 -92q316 0 314 362v399q0 226 85 328t274 102h65v-102h-88zM467 -539h131v-157h-131v157zM467 -778h131v-158h-131
v158z" />
    <glyph glyph-name="uniFBE5" unicode="&#x6d0;" horiz-adv-x="1722" arabic-form="final" 
d="M948 61q0 -233 -110 -357t-323 -124q-212 0 -333 120t-121 316t89 340l110 -30q-80 -158 -80 -308t89 -243q89 -92 246 -92q316 0 314 362v399q0 226 85 328t274 102h264v-763h301v-111h-420v772h-168q-115 0 -166 -71t-51 -228v-412zM467 -539h131v-157h-131v157z
M467 -778h131v-158h-131v158z" />
    <glyph glyph-name="uniFBE6" unicode="&#x6d0;" horiz-adv-x="538" arabic-form="initial" 
d="M389 727v-727h-420v111h301v598q0 76 -32 129l104 55q47 -66 47 -166zM258 -139h131v-158h-131v158zM258 -379h131v-158h-131v158z" />
    <glyph glyph-name="uniFBE7" unicode="&#x6d0;" horiz-adv-x="659" arabic-form="medial" 
d="M-31 111h301v763h119v-763h301v-111h-721v111zM264 -139h131v-158h-131v158zM264 -379h131v-158h-131v158z" />
    <glyph glyph-name="uniFBE8" unicode="&#x649;" horiz-adv-x="538" arabic-form="initial" 
d="M389 727v-727h-420v111h301v598q0 76 -32 129l104 55q47 -66 47 -166z" />
    <glyph glyph-name="uniFBE9" unicode="&#x649;" horiz-adv-x="659" arabic-form="medial" 
d="M-31 111h301v763h119v-763h301v-111h-721v111z" />
    <glyph glyph-name="uniFBFC" unicode="&#x6cc;" horiz-adv-x="1298" arabic-form="isolated" 
d="M516 -317q313 0 313 362v399q0 227 85 328.5t274 101.5h65v-102h-88q-115 0 -166 -70.5t-51 -228.5v-412q0 -233 -110.5 -357t-322.5 -124t-333 120t-121 315.5t89 340.5l110 -30q-80 -158 -80 -308.5t89 -242.5t247 -92z" />
    <glyph glyph-name="uniFBFD" unicode="&#x6cc;" horiz-adv-x="1722" arabic-form="final" 
d="M516 -317q313 0 313 362v399q0 227 85 328.5t274 101.5h264v-763h301v-111h-420v772h-168q-115 0 -166 -70.5t-51 -228.5v-412q0 -233 -110.5 -357t-322.5 -124t-333 120t-121 315.5t89 340.5l110 -30q-80 -158 -80 -308.5t89 -242.5t247 -92z" />
    <glyph glyph-name="uniFBFE" unicode="&#x6cc;" horiz-adv-x="538" arabic-form="initial" 
d="M389 727v-727h-420v111h301v598q0 76 -32 129l104 55q47 -66 47 -166zM254 -139h127v-170h-127v170zM25 -139h127v-170h-127v170z" />
    <glyph glyph-name="uniFBFF" unicode="&#x6cc;" horiz-adv-x="659" arabic-form="medial" 
d="M-31 111h301v763h119v-763h301v-111h-721v111zM262 -139h127v-170h-127v170zM33 -139h127v-170h-127v170z" />
    <glyph glyph-name="uniFDFA" unicode="&#xfdfa;" horiz-adv-x="3026" arabic-form="isolated" 
d="M475 367l246 73v-43l-246 -73v43zM1581 1212h43v86h31v-114h-111q-68 0 -67 61v53h30v-45q1 -23 11 -31t32 -10v86h31v-86zM502 748q-70 0 -72 -80q0 -45 30 -72t83 -27h26v72q0 57 -15 82t-52 25zM772 569v385h57v-385h148v385h57v-438h-481q-84 0 -132 41t-48 105
t35 100q35 35 94 35t92 -35t33 -96v-97h145zM1880 -53h59v-64h-59v64zM1776 -53h57v-64h-57v64zM2306 367l246 73v-43l-246 -73v43zM817 1065h43v86h31v-115h-111q-68 0 -67 62v53h30v-45q0 -41 43 -41v86h31v-86zM391 -326q0 80 -72 80q-37 0 -52 -24t-15 -82v-72h27
q53 0 83 26t29 72zM2867 -328q-1 82 -69 82t-68 -78q0 -48 29 -74t82 -26h26v96zM236 152q0 -45 30 -72t82 -27h27v72q1 57 -15 82t-53 24q-71 0 -71 -79zM1460 784l432 127v-43l-432 -127v43zM1155 516v782h57v-782h-57zM1722 625q-64 0 -106 -43t-41 -113v-35h256v51
q0 78 -23 109q-22 31 -86 31zM2925 -479q0 -127 -123 -127q-113 0 -125 94h51q12 -47 62 -47t63 17q14 17 14 65q-94 0 -144 40t-50 105t35 101q36 35 94 35t91 -34q32 -34 32 -98v-151zM903 311q0 123 160 123h272v864h58v-864h127v230h55v-80q53 90 162 90q73 0 111 -42
t38 -120v-131h-831q-49 0 -72 -16t-22 -54q0 -70 94 -69h692v-54h-684q-160 0 -160 123zM2367 53h226v-53h-1964v-424h1575v219h57v-219h109v219h57v-219h108v154q0 23 -12 47l53 28q16 -29 17 -63v-219h-2433v-185h-58v238h93v96q0 61 32 97q33 35 91 35t95 -33
q36 -33 36 -95t-54 -100h176v424h-213q-84 0 -132 41t-48 105t35 100q35 35 94 35t92 -35t33 -96v-97h340v385h57v-385h1000v193h57v-193h182v873h58v-873h184v92q0 63 34 99t95 37q104 0 123 -103l-53 -6q-14 59 -61 59q-46 -1 -63 -23t-18 -69v-86z" />
    <glyph glyph-name="uniFDFC" unicode="&#xfdfc;" horiz-adv-x="2443" arabic-form="isolated" 
d="M1614 -139h127v-170h-127v170zM1384 -139h127v-170h-127v170zM2011 -313q88 0 127 46t39 148v993h117v-972q0 -322 -271 -322q-74 0 -165 25l22 100q87 -18 131 -18zM594.5 -317q234.5 0 234.5 362v1417h119v-1401q0 -233 -111.5 -357t-321.5 -124t-332 119t-122 316
t89 341l110 -30q-80 -156 -80 -307q0 -150 90 -243t324.5 -93zM1952 727v-727h-778v1462h118v-1351h541v598q0 74 -33 129l105 55q47 -61 47 -166z" />
    <glyph glyph-name="uniFE80" unicode="&#x621;" horiz-adv-x="778" arabic-form="isolated" 
d="M715 104v-104h-654v104h89v224q0 297 290 297q125 0 190.5 -52.5t86.5 -171.5l-103 -10q-14 72 -54 103.5t-131 31.5t-131 -48t-40 -169v-205h457z" />
    <glyph glyph-name="uniFE81" unicode="&#x622;" horiz-adv-x="446" arabic-form="isolated" 
d="M164 0v1462h119v-1462h-119zM16 1561q0 68 32 107.5t80 38.5t75.5 -17.5t51.5 -34t52 -19.5q51 0 53 68h72q0 -68 -32 -108t-80 -39t-75.5 18.5t-51 34t-52.5 18.5q-51 0 -53 -67h-72z" />
    <glyph glyph-name="uniFE82" unicode="&#x622;" horiz-adv-x="538" arabic-form="final" 
d="M569 0h-419v1462h118v-1351h301v-111zM0 1561q0 67 32 107t80 39t75.5 -17.5t51 -34t52.5 -19.5q51 0 53 68h72q0 -68 -32 -108t-80 -39t-75.5 18.5t-51 34t-52.5 18.5q-51 0 -53 -67h-72z" />
    <glyph glyph-name="uniFE83" unicode="&#x623;" horiz-adv-x="446" arabic-form="isolated" 
d="M164 0v1462h119v-1462h-119zM246 1825q-74 0 -74 -80v-119h225v-67h-352v67h47v117q0 70 39 108.5t113 38.5q129 0 149 -123l-71 -10q-10 39 -28 53.5t-48 14.5z" />
    <glyph glyph-name="uniFE84" unicode="&#x623;" horiz-adv-x="538" arabic-form="final" 
d="M569 0h-419v1462h118v-1351h301v-111zM231 1825q-73 0 -73 -80v-119h225v-67h-352v67h47v117q0 70 39 108.5t112 38.5q129 0 150 -123l-72 -10q-10 39 -27.5 53.5t-48.5 14.5z" />
    <glyph glyph-name="uniFE85" unicode="&#x624;" horiz-adv-x="1040" arabic-form="isolated" 
d="M221 474q0 -167 107.5 -265t302.5 -98h153v356q0 340 -274 340q-139 0 -214 -83t-75 -250zM903 14q0 -217 -88 -311q-87 -94 -277 -94q-375 0 -409 293h109q41 -188 286 -189q143 0 201.5 60.5t58.5 208.5v18h-133q-260 0 -404.5 127t-144.5 338t113 326.5t299 115.5
t287.5 -112.5t101.5 -315.5v-465zM528 1294q-73 0 -73 -80v-118h225v-68h-352v68h47v116q0 70 39 109t112 39q129 0 150 -123l-72 -10q-10 39 -27.5 53t-48.5 14z" />
    <glyph glyph-name="uniFE86" unicode="&#x624;" horiz-adv-x="1097" arabic-form="final" 
d="M221 474q0 -167 107.5 -265t302.5 -98h153v356q0 340 -274 340q-139 0 -214 -83t-75 -250zM903 111h225v-111h-225q0 -207 -90 -299t-277.5 -92t-289 75.5t-117.5 217.5h109q41 -188 286 -189q145 0 202.5 60.5t57.5 208.5v18h-133q-260 0 -404.5 127t-144.5 338
t113 326.5t299 115.5t287.5 -112.5t101.5 -315.5v-368zM528 1294q-73 0 -73 -80v-118h225v-68h-352v68h47v116q0 70 39 109t112 39q129 0 150 -123l-72 -10q-10 39 -27.5 53t-48.5 14z" />
    <glyph glyph-name="uniFE87" unicode="&#x625;" horiz-adv-x="446" arabic-form="isolated" 
d="M164 0v1462h119v-1462h-119zM238 -195q-74 0 -74 -79v-119h225v-68h-352v68h47v117q0 70 39 108.5t113 38.5q129 0 149 -123l-72 -10q-10 39 -27.5 53t-47.5 14z" />
    <glyph glyph-name="uniFE88" unicode="&#x625;" horiz-adv-x="538" arabic-form="final" 
d="M569 0h-419v1462h118v-1351h301v-111zM350 -195q-74 0 -74 -79v-119h226v-68h-352v68h47v117q0 70 38.5 108.5t112.5 38.5q129 0 150 -123l-72 -10q-10 39 -27.5 53t-48.5 14z" />
    <glyph glyph-name="uniFE89" unicode="&#x626;" horiz-adv-x="1298" arabic-form="isolated" 
d="M516 -317q313 0 313 362v399q0 227 85 328.5t274 101.5h65v-102h-88q-115 0 -166 -70.5t-51 -228.5v-412q0 -233 -110.5 -357t-322.5 -124t-333 120t-121 315.5t89 340.5l110 -30q-80 -158 -80 -308.5t89 -242.5t247 -92zM297 815q-74 0 -74 -80v-119h226v-67h-353v67h47
v117q0 70 39 109t113 39q129 0 149 -123l-71 -10q-10 39 -27.5 53t-48.5 14z" />
    <glyph glyph-name="uniFE8A" unicode="&#x626;" horiz-adv-x="1695" arabic-form="final" 
d="M516 -317q313 0 313 362v399q0 227 85 328.5t274 101.5h264v-763h301v-111h-420v772h-168q-115 0 -166 -70.5t-51 -228.5v-412q0 -233 -110.5 -357t-322.5 -124t-333 120t-121 315.5t89 340.5l110 -30q-80 -158 -80 -308.5t89 -242.5t247 -92zM297 815q-74 0 -74 -80
v-119h226v-67h-353v67h47v117q0 70 39 109t113 39q129 0 149 -123l-71 -10q-10 39 -27.5 53t-48.5 14z" />
    <glyph glyph-name="uniFE8B" unicode="&#x626;" horiz-adv-x="538" arabic-form="initial" 
d="M389 727v-727h-420v111h301v598q0 76 -32 129l104 55q47 -66 47 -166zM238 1294q-74 0 -74 -80v-118h225v-68h-352v68h47v116q0 70 39 109t113 39q129 0 149 -123l-72 -10q-10 39 -27.5 53t-47.5 14z" />
    <glyph glyph-name="uniFE8C" unicode="&#x626;" horiz-adv-x="659" arabic-form="medial" 
d="M-31 111h301v763h119v-763h301v-111h-721v111zM238 1294q-74 0 -74 -80v-118h225v-68h-352v68h47v116q0 70 39 109t113 39q129 0 149 -123l-72 -10q-10 39 -27.5 53t-47.5 14z" />
    <glyph glyph-name="uniFE8D" unicode="&#x627;" horiz-adv-x="417" arabic-form="isolated" 
d="M150 0v1462h118v-1462h-118z" />
    <glyph glyph-name="uniFE8E" unicode="&#x627;" horiz-adv-x="538" arabic-form="final" 
d="M569 0h-419v1462h118v-1351h301v-111z" />
    <glyph glyph-name="uniFE8F" unicode="&#x628;" horiz-adv-x="1679" arabic-form="isolated" 
d="M588 0q-223 0 -354.5 118t-131.5 311t99.5 310t271.5 133l16 -106q-137 -20 -202.5 -100t-65.5 -231t99.5 -237.5t275.5 -86.5h815v763h119v-874h-942zM817 -139h127v-170h-127v170z" />
    <glyph glyph-name="uniFE90" unicode="&#x628;" horiz-adv-x="1785" arabic-form="final" 
d="M1411 111v763h119v-763h287v-111h-1229q-223 0 -354.5 118t-131.5 311t99.5 310t271.5 133l16 -106q-137 -20 -202.5 -100t-65.5 -231t99.5 -237.5t275.5 -86.5h815zM817 -139h127v-170h-127v170z" />
    <glyph glyph-name="uniFE91" unicode="&#x628;" horiz-adv-x="538" arabic-form="initial" 
d="M389 727v-727h-420v111h301v598q0 76 -32 129l104 55q47 -66 47 -166zM262 -139h127v-170h-127v170z" />
    <glyph glyph-name="uniFE92" unicode="&#x628;" horiz-adv-x="659" arabic-form="medial" 
d="M-31 111h301v763h119v-763h301v-111h-721v111zM268 -139h127v-170h-127v170z" />
    <glyph glyph-name="uniFE93" unicode="&#x629;" horiz-adv-x="1067" arabic-form="isolated" 
d="M102 432q0 217 119 346t317 129t312.5 -126t114.5 -343t-118 -344t-318 -127t-313.5 124t-113.5 341zM223 438q0 -176 81 -272t230.5 -96t230.5 96t81 272t-81 272.5t-230.5 96.5t-230.5 -96.5t-81 -272.5zM584 1235h127v-170h-127v170zM354 1235h127v-170h-127v170z" />
    <glyph glyph-name="uniFE94" unicode="&#x629;" horiz-adv-x="1097" arabic-form="final" 
d="M221 474q0 -167 107.5 -265t304.5 -98h151v356q0 340 -274 340q-139 0 -214 -83t-75 -250zM903 111h225v-111h-475q-260 0 -405.5 127t-145.5 338t113 326.5t299 115.5t287.5 -112.5t101.5 -315.5v-368zM549 1235h127v-170h-127v170zM319 1235h127v-170h-127v170z" />
    <glyph glyph-name="uniFE95" unicode="&#x62a;" horiz-adv-x="1679" arabic-form="isolated" 
d="M588 0q-223 0 -354.5 118t-131.5 311t99.5 310t271.5 133l16 -106q-137 -20 -202.5 -100t-65.5 -231t99.5 -237.5t275.5 -86.5h815v763h119v-874h-942zM973 1235h127v-170h-127v170zM743 1235h127v-170h-127v170z" />
    <glyph glyph-name="uniFE96" unicode="&#x62a;" horiz-adv-x="1785" arabic-form="final" 
d="M1411 111v763h119v-763h287v-111h-1229q-223 0 -354.5 118t-131.5 311t99.5 310t271.5 133l16 -106q-137 -20 -202.5 -100t-65.5 -231t99.5 -237.5t275.5 -86.5h815zM973 1235h127v-170h-127v170zM743 1235h127v-170h-127v170z" />
    <glyph glyph-name="uniFE97" unicode="&#x62a;" horiz-adv-x="538" arabic-form="initial" 
d="M389 727v-727h-420v111h301v598q0 76 -32 129l104 55q47 -66 47 -166zM262 1235h127v-170h-127v170zM33 1235h127v-170h-127v170z" />
    <glyph glyph-name="uniFE98" unicode="&#x62a;" horiz-adv-x="659" arabic-form="medial" 
d="M-31 111h301v763h119v-763h301v-111h-721v111zM262 1235h127v-170h-127v170zM33 1235h127v-170h-127v170z" />
    <glyph glyph-name="uniFE99" unicode="&#x62b;" horiz-adv-x="1679" arabic-form="isolated" 
d="M588 0q-223 0 -354.5 118t-131.5 311t99.5 310t271.5 133l16 -106q-137 -20 -202.5 -100t-65.5 -231t99.5 -237.5t275.5 -86.5h815v763h119v-874h-942zM971 1184h125v-158h-125v158zM745 1184h125v-158h-125v158zM858 1423h125v-157h-125v157z" />
    <glyph glyph-name="uniFE9A" unicode="&#x62b;" horiz-adv-x="1785" arabic-form="final" 
d="M1411 111v763h119v-763h287v-111h-1229q-223 0 -354.5 118t-131.5 311t99.5 310t271.5 133l16 -106q-137 -20 -202.5 -100t-65.5 -231t99.5 -237.5t275.5 -86.5h815zM971 1184h125v-158h-125v158zM745 1184h125v-158h-125v158zM858 1423h125v-157h-125v157z" />
    <glyph glyph-name="uniFE9B" unicode="&#x62b;" horiz-adv-x="538" arabic-form="initial" 
d="M389 727v-727h-420v111h301v598q0 76 -32 129l104 55q47 -66 47 -166zM264 1184h125v-158h-125v158zM39 1184h125v-158h-125v158zM152 1423h124v-157h-124v157z" />
    <glyph glyph-name="uniFE9C" unicode="&#x62b;" horiz-adv-x="659" arabic-form="medial" 
d="M-31 111h301v763h119v-763h301v-111h-721v111zM264 1184h125v-158h-125v158zM39 1184h125v-158h-125v158zM152 1423h124v-157h-124v157z" />
    <glyph glyph-name="uniFE9D" unicode="&#x62c;" horiz-adv-x="1193" arabic-form="isolated" 
d="M596 907q211 0 307 -99t96 -314v-383h134v-111h-648q-305 0 -305 -272q0 -279 361 -279q283 0 348 215h119q-25 -145 -153 -233t-334.5 -88t-333 100t-126.5 281.5t115 284t318 102.5h387v358q0 184 -65.5 258t-214 74t-214 -45t-94.5 -158l-115 12q53 297 418 297z
M475 -178h127v-170h-127v170z" />
    <glyph glyph-name="uniFE9E" unicode="&#x62c;" horiz-adv-x="1255" arabic-form="final" 
d="M596 907q211 0 307 -99t96 -314v-383h287v-111h-801q-305 0 -305 -272q0 -279 361 -279q283 0 348 215h119q-25 -145 -153 -233t-334.5 -88t-333 100t-126.5 281.5t115 284t318 102.5h387v358q0 184 -65.5 258t-214 74t-214 -45t-94.5 -158l-115 12q53 297 418 297z
M475 -178h127v-170h-127v170z" />
    <glyph glyph-name="uniFE9F" unicode="&#x62c;" horiz-adv-x="1062" arabic-form="initial" 
d="M465 907q211 0 307 -99t96 -314v-383h133v-111h-1032v111h781v358q0 184 -66 258t-214 74t-214 -45t-94 -158l-115 12q53 297 418 297zM399 -139h127v-170h-127v170z" />
    <glyph glyph-name="uniFEA0" unicode="&#x62c;" horiz-adv-x="1134" arabic-form="medial" 
d="M467 907q211 0 307 -99t96 -314v-383h295v-111h-1196v111h783v358q0 184 -65.5 258t-214 74t-214 -45t-94.5 -158l-115 12q53 297 418 297zM399 -139h127v-170h-127v170z" />
    <glyph glyph-name="uniFEA1" unicode="&#x62d;" horiz-adv-x="1193" arabic-form="isolated" 
d="M596 907q211 0 307 -99t96 -314v-383h134v-111h-648q-305 0 -305 -272q0 -279 361 -279q283 0 348 215h119q-25 -145 -153 -233t-334.5 -88t-333 100t-126.5 281.5t115 284t318 102.5h387v358q0 184 -65.5 258t-214 74t-214 -45t-94.5 -158l-115 12q53 297 418 297z" />
    <glyph glyph-name="uniFEA2" unicode="&#x62d;" horiz-adv-x="1255" arabic-form="final" 
d="M596 907q211 0 307 -99t96 -314v-383h287v-111h-801q-305 0 -305 -272q0 -279 361 -279q283 0 348 215h119q-25 -145 -153 -233t-334.5 -88t-333 100t-126.5 281.5t115 284t318 102.5h387v358q0 184 -65.5 258t-214 74t-214 -45t-94.5 -158l-115 12q53 297 418 297z" />
    <glyph glyph-name="uniFEA3" unicode="&#x62d;" horiz-adv-x="1062" arabic-form="initial" 
d="M465 907q211 0 307 -99t96 -314v-383h133v-111h-1032v111h781v358q0 184 -66 258t-214 74t-214 -45t-94 -158l-115 12q53 297 418 297z" />
    <glyph glyph-name="uniFEA4" unicode="&#x62d;" horiz-adv-x="1134" arabic-form="medial" 
d="M467 907q211 0 307 -99t96 -314v-383h295v-111h-1196v111h783v358q0 184 -65.5 258t-214 74t-214 -45t-94.5 -158l-115 12q53 297 418 297z" />
    <glyph glyph-name="uniFEA5" unicode="&#x62e;" horiz-adv-x="1193" arabic-form="isolated" 
d="M596 907q211 0 307 -99t96 -314v-383h134v-111h-648q-305 0 -305 -272q0 -279 361 -279q283 0 348 215h119q-25 -145 -153 -233t-334.5 -88t-333 100t-126.5 281.5t115 284t318 102.5h387v358q0 184 -65.5 258t-214 74t-214 -45t-94.5 -158l-115 12q53 297 418 297z
M541 1235h127v-170h-127v170z" />
    <glyph glyph-name="uniFEA6" unicode="&#x62e;" horiz-adv-x="1255" arabic-form="final" 
d="M596 907q211 0 307 -99t96 -314v-383h287v-111h-801q-305 0 -305 -272q0 -279 361 -279q283 0 348 215h119q-25 -145 -153 -233t-334.5 -88t-333 100t-126.5 281.5t115 284t318 102.5h387v358q0 184 -65.5 258t-214 74t-214 -45t-94.5 -158l-115 12q53 297 418 297z
M539 1235h127v-170h-127v170z" />
    <glyph glyph-name="uniFEA7" unicode="&#x62e;" horiz-adv-x="1062" arabic-form="initial" 
d="M465 907q211 0 307 -99t96 -314v-383h133v-111h-1032v111h781v358q0 184 -66 258t-214 74t-214 -45t-94 -158l-115 12q53 297 418 297zM399 1235h127v-170h-127v170z" />
    <glyph glyph-name="uniFEA8" unicode="&#x62e;" horiz-adv-x="1134" arabic-form="medial" 
d="M467 907q211 0 307 -99t96 -314v-383h295v-111h-1196v111h783v358q0 184 -65.5 258t-214 74t-214 -45t-94.5 -158l-115 12q53 297 418 297zM399 1235h127v-170h-127v170z" />
    <glyph glyph-name="uniFEA9" unicode="&#x62f;" horiz-adv-x="1062" arabic-form="isolated" 
d="M807 111v192q0 262 -88 380t-281 118q-121 0 -223 -43l-29 104q123 45 265 45q242 0 358.5 -144.5t116.5 -440.5v-322h-865v111h746z" />
    <glyph glyph-name="uniFEAA" unicode="&#x62f;" horiz-adv-x="1163" arabic-form="final" 
d="M807 111v192q0 262 -88 380t-281 118q-121 0 -223 -43l-29 104q123 45 265 45q242 0 358.5 -144.5t116.5 -440.5v-211h268v-111h-1133v111h746z" />
    <glyph glyph-name="uniFEAB" unicode="&#x630;" horiz-adv-x="1062" arabic-form="isolated" 
d="M807 111v192q0 262 -88 380t-281 118q-121 0 -223 -43l-29 104q123 45 265 45q242 0 358.5 -144.5t116.5 -440.5v-322h-865v111h746zM432 1235h127v-170h-127v170z" />
    <glyph glyph-name="uniFEAC" unicode="&#x630;" horiz-adv-x="1163" arabic-form="final" 
d="M807 111v192q0 262 -88 380t-281 118q-121 0 -223 -43l-29 104q123 45 265 45q242 0 358.5 -144.5t116.5 -440.5v-211h268v-111h-1133v111h746zM432 1235h127v-170h-127v170z" />
    <glyph glyph-name="uniFEAD" unicode="&#x631;" horiz-adv-x="585" arabic-form="isolated" 
d="M170 -313q150 0 149 194v993h117v-972q0 -322 -270 -322q-74 0 -166 25l23 100q75 -18 147 -18z" />
    <glyph glyph-name="uniFEAE" unicode="&#x631;" horiz-adv-x="706" arabic-form="final" 
d="M170 -313q150 0 149 194v993h117v-763h301v-111h-301v-98q0 -322 -270 -322q-74 0 -166 25l23 100q75 -18 147 -18z" />
    <glyph glyph-name="uniFEAF" unicode="&#x632;" horiz-adv-x="585" arabic-form="isolated" 
d="M170 -313q150 0 149 194v993h117v-972q0 -322 -270 -322q-74 0 -166 25l23 100q75 -18 147 -18zM313 1235h127v-170h-127v170z" />
    <glyph glyph-name="uniFEB0" unicode="&#x632;" horiz-adv-x="706" arabic-form="final" 
d="M170 -313q150 0 149 194v993h117v-763h301v-111h-301v-98q0 -322 -270 -322q-74 0 -166 25l23 100q75 -18 147 -18zM313 1235h127v-170h-127v170z" />
    <glyph glyph-name="uniFEB1" unicode="&#x633;" horiz-adv-x="2179" arabic-form="isolated" 
d="M2030 727v-727h-1084q-14 -203 -124.5 -311.5t-314.5 -108.5t-325 120t-121 315.5t89 340.5l110 -30q-80 -158 -80 -308.5t89 -242.5t247 -92q313 0 313 362v829h119v-763h430v763h119v-763h414v598q0 76 -33 129l104 55q48 -67 48 -166z" />
    <glyph glyph-name="uniFEB2" unicode="&#x633;" horiz-adv-x="2299" arabic-form="final" 
d="M2030 727v-616h301v-111h-1385q-14 -203 -124.5 -311.5t-314.5 -108.5t-325 120t-121 315.5t89 340.5l110 -30q-80 -158 -80 -308.5t89 -242.5t247 -92q313 0 313 362v829h119v-763h430v763h119v-763h414v598q0 76 -33 129l104 55q48 -67 48 -166z" />
    <glyph glyph-name="uniFEB3" unicode="&#x633;" horiz-adv-x="1617" arabic-form="initial" 
d="M1468 727v-727h-1499v111h299v763h119v-763h430v763h119v-763h414v598q0 76 -33 129l104 55q47 -66 47 -166z" />
    <glyph glyph-name="uniFEB4" unicode="&#x633;" horiz-adv-x="1738" arabic-form="medial" 
d="M1468 727v-616h301v-111h-1800v111h299v763h119v-763h430v763h119v-763h414v598q0 76 -33 129l104 55q47 -66 47 -166z" />
    <glyph glyph-name="uniFEB5" unicode="&#x634;" horiz-adv-x="2179" arabic-form="isolated" 
d="M2030 727v-727h-1084q-14 -203 -124.5 -311.5t-314.5 -108.5t-325 120t-121 315.5t89 340.5l110 -30q-80 -158 -80 -308.5t89 -242.5t247 -92q313 0 313 362v829h119v-763h430v763h119v-763h414v598q0 76 -33 129l104 55q48 -67 48 -166zM1489 1184h125v-158h-125v158z
M1264 1184h125v-158h-125v158zM1376 1423h125v-157h-125v157z" />
    <glyph glyph-name="uniFEB6" unicode="&#x634;" horiz-adv-x="2299" arabic-form="final" 
d="M2030 727v-616h301v-111h-1385q-14 -203 -124.5 -311.5t-314.5 -108.5t-325 120t-121 315.5t89 340.5l110 -30q-80 -158 -80 -308.5t89 -242.5t247 -92q313 0 313 362v829h119v-763h430v763h119v-763h414v598q0 76 -33 129l104 55q48 -67 48 -166zM1489 1184h125v-158
h-125v158zM1264 1184h125v-158h-125v158zM1376 1423h125v-157h-125v157z" />
    <glyph glyph-name="uniFEB7" unicode="&#x634;" horiz-adv-x="1617" arabic-form="initial" 
d="M1468 727v-727h-1499v111h299v763h119v-763h430v763h119v-763h414v598q0 76 -33 129l104 55q47 -66 47 -166zM930 1184h125v-158h-125v158zM705 1184h124v-158h-124v158zM817 1423h125v-157h-125v157z" />
    <glyph glyph-name="uniFEB8" unicode="&#x634;" horiz-adv-x="1738" arabic-form="medial" 
d="M1468 727v-616h301v-111h-1800v111h299v763h119v-763h430v763h119v-763h414v598q0 76 -33 129l104 55q47 -66 47 -166zM930 1184h125v-158h-125v158zM705 1184h124v-158h-124v158zM817 1423h125v-157h-125v157z" />
    <glyph glyph-name="uniFEB9" unicode="&#x635;" horiz-adv-x="2138" arabic-form="isolated" 
d="M2001 0h-1055q-14 -205 -125.5 -312.5t-315.5 -107.5t-324 121t-120 315t89 340l110 -24q-80 -147 -80 -305t88 -251t244 -93q317 0 317 362v829h119v-276q90 147 236.5 228t322.5 81q244 0 369 -142t125 -419v-346zM1499 799q-162 0 -287 -67.5t-194.5 -193.5
t-69.5 -296v-131h934v198q0 254 -92 372t-291 118z" />
    <glyph glyph-name="uniFEBA" unicode="&#x635;" horiz-adv-x="2205" arabic-form="final" 
d="M1507 907q244 0 369 -142t125 -419v-235h235v-111h-1290q-14 -205 -125.5 -312.5t-315.5 -107.5t-324 121t-120 315.5t89 339.5l110 -24q-80 -147 -80 -305t88 -251t244 -93q317 0 317 362v829h119v-276q90 147 236.5 228t322.5 81zM1499 799q-162 0 -287 -67.5
t-194.5 -193.5t-69.5 -296v-131h934v198q0 254 -92 372t-291 118z" />
    <glyph glyph-name="uniFEBB" unicode="&#x635;" horiz-adv-x="1585" arabic-form="initial" 
d="M1448 0h-1479v111h307v763h119v-276q90 147 236.5 228t322.5 81q244 0 369 -142t125 -419v-346zM946 799q-162 0 -286.5 -67.5t-194.5 -193.5t-70 -296v-131h934v198q0 254 -92 372t-291 118z" />
    <glyph glyph-name="uniFEBC" unicode="&#x635;" horiz-adv-x="1652" arabic-form="medial" 
d="M954 907q244 0 369 -142t125 -419v-235h235v-111h-1714v111h307v763h119v-276q90 147 236.5 228t322.5 81zM946 799q-162 0 -286.5 -67.5t-194.5 -193.5t-70 -296v-131h934v198q0 254 -92 372t-291 118z" />
    <glyph glyph-name="uniFEBD" unicode="&#x636;" horiz-adv-x="2138" arabic-form="isolated" 
d="M2001 0h-1055q-14 -205 -125.5 -312.5t-315.5 -107.5t-324 121t-120 315t89 340l110 -24q-80 -147 -80 -305t88 -251t244 -93q317 0 317 362v829h119v-276q90 147 236.5 228t322.5 81q244 0 369 -142t125 -419v-346zM1499 799q-162 0 -287 -67.5t-194.5 -193.5
t-69.5 -296v-131h934v198q0 254 -92 372t-291 118zM1378 1235h127v-170h-127v170z" />
    <glyph glyph-name="uniFEBE" unicode="&#x636;" horiz-adv-x="2205" arabic-form="final" 
d="M1507 907q244 0 369 -142t125 -419v-235h235v-111h-1290q-14 -205 -125.5 -312.5t-315.5 -107.5t-324 121t-120 315.5t89 339.5l110 -24q-80 -147 -80 -305t88 -251t244 -93q317 0 317 362v829h119v-276q90 147 236.5 228t322.5 81zM1499 799q-162 0 -287 -67.5
t-194.5 -193.5t-69.5 -296v-131h934v198q0 254 -92 372t-291 118zM1378 1235h127v-170h-127v170z" />
    <glyph glyph-name="uniFEBF" unicode="&#x636;" horiz-adv-x="1585" arabic-form="initial" 
d="M1448 0h-1479v111h307v763h119v-276q90 147 236.5 228t322.5 81q244 0 369 -142t125 -419v-346zM946 799q-162 0 -286.5 -67.5t-194.5 -193.5t-70 -296v-131h934v198q0 254 -92 372t-291 118zM825 1235h127v-170h-127v170z" />
    <glyph glyph-name="uniFEC0" unicode="&#x636;" horiz-adv-x="1652" arabic-form="medial" 
d="M954 907q244 0 369 -142t125 -419v-235h235v-111h-1714v111h307v763h119v-276q90 147 236.5 228t322.5 81zM946 799q-162 0 -286.5 -67.5t-194.5 -193.5t-70 -296v-131h934v198q0 254 -92 372t-291 118zM825 1235h127v-170h-127v170z" />
    <glyph glyph-name="uniFEC1" unicode="&#x637;" horiz-adv-x="1562" arabic-form="isolated" 
d="M932 907q244 0 368.5 -142t124.5 -419v-346h-1364v111h193v1351h119v-864q90 147 236.5 228t322.5 81zM924 799q-162 0 -287 -67.5t-194.5 -193.5t-69.5 -296v-131h934v198q0 254 -92 372t-291 118z" />
    <glyph glyph-name="uniFEC2" unicode="&#x637;" horiz-adv-x="1630" arabic-form="final" 
d="M932 907q244 0 368.5 -142t124.5 -419v-235h236v-111h-1600v111h193v1351h119v-864q90 147 236.5 228t322.5 81zM924 799q-162 0 -287 -67.5t-194.5 -193.5t-69.5 -296v-131h934v198q0 254 -92 372t-291 118z" />
    <glyph glyph-name="uniFEC3" unicode="&#x637;" horiz-adv-x="1585" arabic-form="initial" 
d="M954 907q244 0 369 -142t125 -419v-346h-1479v111h307v1351h119v-864q90 147 236.5 228t322.5 81zM946 799q-162 0 -286.5 -67.5t-194.5 -193.5t-70 -296v-131h934v198q0 254 -92 372t-291 118z" />
    <glyph glyph-name="uniFEC4" unicode="&#x637;" horiz-adv-x="1652" arabic-form="medial" 
d="M1448 111h235v-111h-1714v111h307v1351h119v-864q90 147 236.5 228t322.5 81q244 0 369 -142t125 -419v-235zM946 799q-162 0 -286.5 -67.5t-194.5 -193.5t-70 -296v-131h934v198q0 254 -92 372t-291 118z" />
    <glyph glyph-name="uniFEC5" unicode="&#x638;" horiz-adv-x="1562" arabic-form="isolated" 
d="M932 907q244 0 368.5 -142t124.5 -419v-346h-1364v111h193v1351h119v-864q90 147 236.5 228t322.5 81zM924 799q-162 0 -287 -67.5t-194.5 -193.5t-69.5 -296v-131h934v198q0 254 -92 372t-291 118zM805 1235h127v-170h-127v170z" />
    <glyph glyph-name="uniFEC6" unicode="&#x638;" horiz-adv-x="1630" arabic-form="final" 
d="M932 907q244 0 368.5 -142t124.5 -419v-235h236v-111h-1600v111h193v1351h119v-864q90 147 236.5 228t322.5 81zM924 799q-162 0 -287 -67.5t-194.5 -193.5t-69.5 -296v-131h934v198q0 254 -92 372t-291 118zM805 1235h127v-170h-127v170z" />
    <glyph glyph-name="uniFEC7" unicode="&#x638;" horiz-adv-x="1585" arabic-form="initial" 
d="M954 907q244 0 369 -142t125 -419v-346h-1479v111h307v1351h119v-864q90 147 236.5 228t322.5 81zM946 799q-162 0 -286.5 -67.5t-194.5 -193.5t-70 -296v-131h934v198q0 254 -92 372t-291 118zM827 1235h127v-170h-127v170z" />
    <glyph glyph-name="uniFEC8" unicode="&#x638;" horiz-adv-x="1652" arabic-form="medial" 
d="M1448 111h235v-111h-1714v111h307v1351h119v-864q90 147 236.5 228t322.5 81q244 0 369 -142t125 -419v-235zM946 799q-162 0 -286.5 -67.5t-194.5 -193.5t-70 -296v-131h934v198q0 254 -92 372t-291 118zM827 1235h127v-170h-127v170z" />
    <glyph glyph-name="uniFEC9" unicode="&#x639;" horiz-adv-x="1284" arabic-form="isolated" 
d="M455 0q-305 0 -305 -272q0 -279 360 -279q283 0 348 215h119q-25 -145 -153 -233t-334.5 -88t-332.5 100t-126 271.5t93 270.5t255 115v394q0 211 105.5 312t303 101t290.5 -70.5t122 -226.5l-115 -12q-29 115 -90 159t-209.5 44t-218 -76t-69.5 -256v-358h725v-111h-768
z" />
    <glyph glyph-name="uniFECA" unicode="&#x639;" horiz-adv-x="1249" arabic-form="final" 
d="M455 0q-305 0 -305 -272q0 -279 360 -279q283 0 348 215h119q-25 -145 -153 -233t-334.5 -88t-332.5 100t-126 271.5t93 270.5t255 115v394q0 211 105.5 312t303 101t290.5 -70.5t122 -226.5l-115 -12q-29 115 -90 159t-209.5 44t-218 -76t-69.5 -256v-358h782v-111h-825
z" />
    <glyph glyph-name="uniFECB" unicode="&#x639;" horiz-adv-x="1173" arabic-form="initial" 
d="M264 494q0 211 106 312q104 101 302 101t291.5 -70.5t121.5 -226.5l-114 -12q-29 115 -91 159t-210 44t-217.5 -76t-69.5 -256v-358h729v-111h-1143v111h295v383z" />
    <glyph glyph-name="uniFECC" unicode="&#x639;" horiz-adv-x="1134" arabic-form="medial" 
d="M264 494q0 211 106 312q104 101 302 101t291.5 -70.5t121.5 -226.5l-114 -12q-29 115 -91 159t-210 44t-217.5 -76t-69.5 -256v-358h782v-111h-1196v111h295v383z" />
    <glyph glyph-name="uniFECD" unicode="&#x63a;" horiz-adv-x="1284" arabic-form="isolated" 
d="M455 0q-305 0 -305 -272q0 -279 360 -279q283 0 348 215h119q-25 -145 -153 -233t-334.5 -88t-332.5 100t-126 271.5t93 270.5t255 115v394q0 211 105.5 312t303 101t290.5 -70.5t122 -226.5l-115 -12q-29 115 -90 159t-209.5 44t-218 -76t-69.5 -256v-358h725v-111h-768
zM735 1235h127v-170h-127v170z" />
    <glyph glyph-name="uniFECE" unicode="&#x63a;" horiz-adv-x="1249" arabic-form="final" 
d="M455 0q-305 0 -305 -272q0 -279 360 -279q283 0 348 215h119q-25 -145 -153 -233t-334.5 -88t-332.5 100t-126 271.5t93 270.5t255 115v394q0 211 105.5 312t303 101t290.5 -70.5t122 -226.5l-115 -12q-29 115 -90 159t-209.5 44t-218 -76t-69.5 -256v-358h782v-111h-825
zM735 1235h127v-170h-127v170z" />
    <glyph glyph-name="uniFECF" unicode="&#x63a;" horiz-adv-x="1173" arabic-form="initial" 
d="M264 494q0 211 106 312q104 101 302 101t291.5 -70.5t121.5 -226.5l-114 -12q-29 115 -91 159t-210 44t-217.5 -76t-69.5 -256v-358h729v-111h-1143v111h295v383zM627 1235h127v-170h-127v170z" />
    <glyph glyph-name="uniFED0" unicode="&#x63a;" horiz-adv-x="1134" arabic-form="medial" 
d="M264 494q0 211 106 312q104 101 302 101t291.5 -70.5t121.5 -226.5l-114 -12q-29 115 -91 159t-210 44t-217.5 -76t-69.5 -256v-358h782v-111h-1196v111h295v383zM627 1235h127v-170h-127v170z" />
    <glyph glyph-name="uniFED1" unicode="&#x641;" horiz-adv-x="1691" arabic-form="isolated" 
d="M764 481q0 197 110.5 311.5t295 114.5t284.5 -112.5t100 -317.5v-477h-966q-236 0 -361 112.5t-125 312t95.5 312.5t275.5 135l14 -106q-137 -23 -201.5 -101.5t-64.5 -224.5q0 -330 375 -329h373q-96 53 -150.5 150t-54.5 220zM1436 111v356q0 340 -271 340
q-135 0 -208.5 -83t-73.5 -250t104.5 -265t296.5 -98h152zM1104 1235h127v-170h-127v170z" />
    <glyph glyph-name="uniFED2" unicode="&#x641;" horiz-adv-x="1748" arabic-form="final" 
d="M764 479q0 197 110.5 312.5t295 115.5t284.5 -112.5t100 -317.5v-366h226v-111h-1192q-236 0 -361 112.5t-125 312t95.5 312.5t275.5 135l14 -106q-137 -23 -201.5 -101.5t-64.5 -224.5q0 -330 375 -329h373q-96 53 -150.5 150t-54.5 218zM1436 111v356q0 340 -271 340
q-135 0 -208.5 -83t-73.5 -250t104.5 -265t296.5 -98h152zM1104 1235h127v-170h-127v170z" />
    <glyph glyph-name="uniFED3" unicode="&#x641;" horiz-adv-x="1126" arabic-form="initial" 
d="M870 111v356q0 340 -274 340q-139 0 -214 -83t-75 -250t107.5 -265t302.5 -98h153zM989 479v-479h-1020v111h424q-98 51 -151.5 148t-53.5 222q0 195 113 310.5t299 115.5t287.5 -112.5t101.5 -315.5zM530 1235h127v-170h-127v170z" />
    <glyph glyph-name="uniFED4" unicode="&#x641;" horiz-adv-x="1183" arabic-form="medial" 
d="M870 111v356q0 340 -274 340q-139 0 -214 -83t-75 -250t107.5 -265t304.5 -98h151zM1214 0h-1245v111h424q-98 51 -151.5 148t-53.5 222q0 195 113 310.5t299 115.5t287.5 -112.5t101.5 -315.5v-368h225v-111zM530 1235h127v-170h-127v170z" />
    <glyph glyph-name="uniFED5" unicode="&#x642;" horiz-adv-x="1255" arabic-form="isolated" 
d="M436 474q0 -167 107.5 -265t302.5 -98h153v356q0 340 -274 340q-139 0 -214 -83t-75 -250zM1118 14q0 -203 -129 -318.5t-354 -115.5q-295 0 -434.5 124t-139.5 386h115q4 -215 112.5 -310t350.5 -95q348 0 360 315h-133q-260 0 -404.5 127t-144.5 338t113 326.5
t299 115.5t287.5 -112.5t101.5 -315.5v-465zM770 1235h127v-170h-127v170zM541 1235h127v-170h-127v170z" />
    <glyph glyph-name="uniFED6" unicode="&#x642;" horiz-adv-x="1312" arabic-form="final" 
d="M436 474q0 -167 107.5 -265t302.5 -98h153v356q0 340 -274 340q-139 0 -214 -83t-75 -250zM1118 111h225v-111h-225q0 -195 -130 -307.5t-353 -112.5q-295 0 -434.5 124t-139.5 386h115q4 -215 112.5 -310t350.5 -95q344 0 360 315h-133q-260 0 -404.5 127t-144.5 338
t113 326.5t299 115.5t287.5 -112.5t101.5 -315.5v-368zM791 1235h127v-170h-127v170zM561 1235h127v-170h-127v170z" />
    <glyph glyph-name="uniFED7" unicode="&#x642;" horiz-adv-x="1126" arabic-form="initial" 
d="M870 111v356q0 340 -274 340q-139 0 -214 -83t-75 -250t107.5 -265t302.5 -98h153zM989 479v-479h-1020v111h424q-98 51 -151.5 148t-53.5 222q0 195 113 310.5t299 115.5t287.5 -112.5t101.5 -315.5zM643 1235h127v-170h-127v170zM414 1235h127v-170h-127v170z" />
    <glyph glyph-name="uniFED8" unicode="&#x642;" horiz-adv-x="1183" arabic-form="medial" 
d="M870 111v356q0 340 -274 340q-139 0 -214 -83t-75 -250t107.5 -265t302.5 -98h153zM1214 0h-1245v111h424q-98 51 -151.5 148t-53.5 222q0 195 113 310.5t299 115.5t287.5 -112.5t101.5 -315.5v-368h225v-111zM643 1235h127v-170h-127v170zM414 1235h127v-170h-127v170z
" />
    <glyph glyph-name="uniFED9" unicode="&#x643;" horiz-adv-x="1679" arabic-form="isolated" 
d="M1411 111v1351h119v-1462h-942q-223 0 -354.5 118t-131.5 311t99.5 310t271.5 133l16 -106q-137 -20 -202.5 -100t-65.5 -231t99.5 -237.5t275.5 -86.5h815zM965 1032q-74 0 -74 -80v-118h225v-68h-352v68h47v116q0 70 39 109t113 39q129 0 149 -123l-72 -10
q-10 39 -27.5 53t-47.5 14z" />
    <glyph glyph-name="uniFEDA" unicode="&#x643;" horiz-adv-x="1785" arabic-form="final" 
d="M1411 111v1353h119v-1353h287v-111h-1229q-223 0 -354.5 118t-131.5 311t99.5 310t271.5 133l16 -106q-137 -20 -202.5 -100t-65.5 -231t99.5 -237.5t275.5 -86.5h815zM965 1032q-74 0 -74 -80v-118h225v-68h-352v68h47v116q0 70 39 109t113 39q129 0 149 -123l-72 -10
q-10 39 -27.5 53t-47.5 14z" />
    <glyph glyph-name="uniFEDB" unicode="&#x643;" horiz-adv-x="1110" arabic-form="initial" 
d="M973 0h-1004v111h885v243q0 166 -42 254t-136 124t-260 36h-389v92l737 602h158l-719 -588h241q281 0 405 -114.5t124 -376.5v-383z" />
    <glyph glyph-name="uniFEDC" unicode="&#x643;" horiz-adv-x="1228" arabic-form="medial" 
d="M854 354q0 166 -42 254t-136 124t-260 36h-389v92l737 602h158l-719 -588h241q281 0 405 -114.5t124 -376.5v-272h287v-111h-1291v111h885v243z" />
    <glyph glyph-name="uniFEDD" unicode="&#x644;" horiz-adv-x="1097" arabic-form="isolated" 
d="M516 -317q313 0 313 362v1417h119v-1401q0 -233 -110.5 -357t-322.5 -124t-333 120t-121 315.5t89 340.5l110 -30q-80 -158 -80 -308.5t89 -242.5t247 -92z" />
    <glyph glyph-name="uniFEDE" unicode="&#x644;" horiz-adv-x="1218" arabic-form="final" 
d="M516 -317q313 0 313 362v1417h119v-1351h301v-111h-303q-14 -203 -124.5 -311.5t-314.5 -108.5t-325 120t-121 315.5t89 340.5l110 -30q-80 -158 -80 -308.5t89 -242.5t247 -92z" />
    <glyph glyph-name="uniFEDF" unicode="&#x644;" horiz-adv-x="538" arabic-form="initial" 
d="M-31 111h301v1351h119v-1462h-420v111z" />
    <glyph glyph-name="uniFEE0" unicode="&#x644;" horiz-adv-x="659" arabic-form="medial" 
d="M-31 111h301v1351h119v-1351h301v-111h-721v111z" />
    <glyph glyph-name="uniFEE1" unicode="&#x645;" horiz-adv-x="1189" arabic-form="isolated" 
d="M969 474q0 167 -75 250t-214 83q-274 0 -274 -340v-356h153q195 0 302.5 98t107.5 265zM61 111h226v368q0 199 106.5 313.5t291.5 114.5t293.5 -112.5t108.5 -322.5t-146 -341t-400 -131h-361v-659h-119v770z" />
    <glyph glyph-name="uniFEE2" unicode="&#x645;" horiz-adv-x="1265" arabic-form="final" 
d="M559 111q195 0 302.5 98t107.5 265t-75 250t-214 83q-274 0 -274 -340v-356h153zM61 111h226v368q0 199 106.5 313.5t291.5 114.5t293.5 -112.5t108.5 -305.5q0 -121 -54 -221t-154 -157h417v-111h-1116v-659h-119v770z" />
    <glyph glyph-name="uniFEE3" unicode="&#x645;" horiz-adv-x="1097" arabic-form="initial" 
d="M877 474q0 167 -75 250t-214 83q-274 0 -275 -340v-356h154q195 0 302.5 98t107.5 265zM195 479q0 199 106.5 313.5t291.5 114.5t293.5 -112.5t108.5 -322.5t-146.5 -341t-399.5 -131h-480v111h226v368z" />
    <glyph glyph-name="uniFEE4" unicode="&#x645;" horiz-adv-x="1173" arabic-form="medial" 
d="M467 111q195 0 302.5 98t107.5 265t-75 250t-214 83q-274 0 -275 -340v-356h154zM-31 111h226v368q0 199 106.5 313.5t291.5 114.5t293.5 -112.5t108.5 -305.5q0 -121 -54 -221t-155 -157h418v-111h-1235v111z" />
    <glyph glyph-name="uniFEE5" unicode="&#x646;" horiz-adv-x="1097" arabic-form="isolated" 
d="M516 -317q313 0 313 362v829h119v-813q0 -233 -110.5 -357t-322.5 -124t-333 120t-121 315.5t89 340.5l110 -30q-80 -158 -80 -308.5t89 -242.5t247 -92zM518 1235h127v-170h-127v170z" />
    <glyph glyph-name="uniFEE6" unicode="&#x646;" horiz-adv-x="1216" arabic-form="final" 
d="M516 -317q313 0 313 362v829h119v-763h299v-111h-301q-16 -205 -125.5 -312.5t-313.5 -107.5t-325 120t-121 315.5t89 340.5l110 -30q-80 -158 -80 -308.5t89 -242.5t247 -92zM518 1235h127v-170h-127v170z" />
    <glyph glyph-name="uniFEE7" unicode="&#x646;" horiz-adv-x="538" arabic-form="initial" 
d="M389 727v-727h-420v111h301v598q0 76 -32 129l104 55q47 -66 47 -166zM252 1235h127v-170h-127v170z" />
    <glyph glyph-name="uniFEE8" unicode="&#x646;" horiz-adv-x="659" arabic-form="medial" 
d="M-31 111h301v763h119v-763h301v-111h-721v111zM266 1235h127v-170h-127v170z" />
    <glyph glyph-name="uniFEE9" unicode="&#x647;" horiz-adv-x="1067" arabic-form="isolated" 
d="M102 432q0 217 119 346t317 129t312.5 -126t114.5 -343t-118 -344t-318 -127t-313.5 124t-113.5 341zM223 438q0 -176 81 -272t230.5 -96t230.5 96t81 272t-81 272.5t-230.5 96.5t-230.5 -96.5t-81 -272.5z" />
    <glyph glyph-name="uniFEEA" unicode="&#x647;" horiz-adv-x="1097" arabic-form="final" 
d="M221 474q0 -167 107.5 -265t304.5 -98h151v356q0 340 -274 340q-139 0 -214 -83t-75 -250zM903 111h225v-111h-475q-260 0 -405.5 127t-145.5 338t113 326.5t299 115.5t287.5 -112.5t101.5 -315.5v-368z" />
    <glyph glyph-name="uniFEEB" unicode="&#x647;" horiz-adv-x="1499" arabic-form="initial" 
d="M760 471q0 172 -56.5 254t-175 82t-182 -80t-63.5 -229q0 -209 110.5 -298t366.5 -89v360zM962 918q-157 0 -221 -70q137 -102 138 -365v-372h364v475q0 184 -62 258t-219 74zM-31 111h402q-98 53 -152.5 154.5t-54.5 232.5q0 186 100.5 297.5t270.5 111.5q55 0 104 -12
q102 129 319.5 129t310.5 -99.5t93 -314.5v-610h-1393v111z" />
    <glyph glyph-name="uniFEEC" unicode="&#x647;" horiz-adv-x="1095" arabic-form="medial" 
d="M575 -319q211 0 211 147q0 76 -84 125t-235 49h-141v-41q0 -145 60 -212.5t189 -67.5zM770 532q0 274 -227 275q-217 0 -217 -260v-438h84q104 0 185 51t128 148t47 224zM897 -183.5q0 -113.5 -86 -175t-249.5 -61.5t-259 93.5t-95.5 269.5v57h-238v111h238v419
q0 176 92 276.5t251 100.5t249 -101t90 -257q0 -305 -234 -438h471v-111h-362q133 -70 133 -183.5z" />
    <glyph glyph-name="uniFEED" unicode="&#x648;" horiz-adv-x="1040" arabic-form="isolated" 
d="M221 474q0 -167 107.5 -265t302.5 -98h153v356q0 340 -274 340q-139 0 -214 -83t-75 -250zM903 14q0 -217 -88 -311q-87 -94 -277 -94q-375 0 -409 293h109q41 -188 286 -189q143 0 201.5 60.5t58.5 208.5v18h-133q-260 0 -404.5 127t-144.5 338t113 326.5t299 115.5
t287.5 -112.5t101.5 -315.5v-465z" />
    <glyph glyph-name="uniFEEE" unicode="&#x648;" horiz-adv-x="1097" arabic-form="final" 
d="M221 474q0 -167 107.5 -265t302.5 -98h153v356q0 340 -274 340q-139 0 -214 -83t-75 -250zM903 111h225v-111h-225q0 -207 -90 -299t-277.5 -92t-289 75.5t-117.5 217.5h109q41 -188 286 -189q145 0 202.5 60.5t57.5 208.5v18h-133q-260 0 -404.5 127t-144.5 338
t113 326.5t299 115.5t287.5 -112.5t101.5 -315.5v-368z" />
    <glyph glyph-name="uniFEEF" unicode="&#x649;" horiz-adv-x="1298" arabic-form="isolated" 
d="M516 -317q313 0 313 362v399q0 227 85 328.5t274 101.5h65v-102h-88q-115 0 -166 -70.5t-51 -228.5v-412q0 -233 -110.5 -357t-322.5 -124t-333 120t-121 315.5t89 340.5l110 -30q-80 -158 -80 -308.5t89 -242.5t247 -92z" />
    <glyph glyph-name="uniFEF0" unicode="&#x649;" horiz-adv-x="1722" arabic-form="final" 
d="M516 -317q313 0 313 362v399q0 227 85 328.5t274 101.5h264v-763h301v-111h-420v772h-168q-115 0 -166 -70.5t-51 -228.5v-412q0 -233 -110.5 -357t-322.5 -124t-333 120t-121 315.5t89 340.5l110 -30q-80 -158 -80 -308.5t89 -242.5t247 -92z" />
    <glyph glyph-name="uniFEF1" unicode="&#x64a;" horiz-adv-x="1298" arabic-form="isolated" 
d="M516 -317q313 0 313 362v399q0 227 85 328.5t274 101.5h65v-102h-88q-115 0 -166 -70.5t-51 -228.5v-412q0 -233 -110.5 -357t-322.5 -124t-333 120t-121 315.5t89 340.5l110 -30q-80 -158 -80 -308.5t89 -242.5t247 -92zM571 -539h127v-170h-127v170zM342 -539h127v-170
h-127v170z" />
    <glyph glyph-name="uniFEF2" unicode="&#x64a;" horiz-adv-x="1722" arabic-form="final" 
d="M516 -317q313 0 313 362v399q0 227 85 328.5t274 101.5h264v-763h301v-111h-420v772h-168q-115 0 -166 -70.5t-51 -228.5v-412q0 -233 -110.5 -357t-322.5 -124t-333 120t-121 315.5t89 340.5l110 -30q-80 -158 -80 -308.5t89 -242.5t247 -92zM571 -539h127v-170h-127
v170zM342 -539h127v-170h-127v170z" />
    <glyph glyph-name="uniFEF3" unicode="&#x64a;" horiz-adv-x="538" arabic-form="initial" 
d="M389 727v-727h-420v111h301v598q0 76 -32 129l104 55q47 -66 47 -166zM262 -139h127v-170h-127v170zM33 -139h127v-170h-127v170z" />
    <glyph glyph-name="uniFEF4" unicode="&#x64a;" horiz-adv-x="659" arabic-form="medial" 
d="M-31 111h301v763h119v-763h301v-111h-721v111zM262 -139h127v-170h-127v170zM33 -139h127v-170h-127v170z" />
    <glyph glyph-name=".notdef" horiz-adv-x="1024" 
d="M819 102v1332h-614v-1332h614zM102 0v1536h820v-1536h-820z" />
    <glyph glyph-name=".null" horiz-adv-x="0" 
 />
    <glyph glyph-name=".null" horiz-adv-x="0" 
 />
    <glyph glyph-name=".null" horiz-adv-x="0" 
 />
    <glyph glyph-name="nonmarkingreturn" unicode="&#x9;" horiz-adv-x="458" 
 />
    <glyph glyph-name="nonmarkingreturn" unicode="&#xd;" horiz-adv-x="458" 
 />
    <glyph glyph-name="space" unicode=" " horiz-adv-x="456" 
 />
    <glyph glyph-name="exclam" unicode="!" horiz-adv-x="421" 
d="M137 188h148v-188h-148v188zM150 1462h124l-8 -1067h-108z" />
    <glyph glyph-name="quotedbl" unicode="&#x22;" horiz-adv-x="610" 
d="M88 1454h123l-12 -496h-99zM399 1454h123l-12 -496h-98z" />
    <glyph glyph-name="numbersign" unicode="#" 
d="M760 469l74 455h-383l-74 -455h383zM37 379v90h227l78 455h-229v94h245l60 371h112l-63 -371h383l59 371h113l-59 -371h213v-94h-230l-78 -455h232v-90h-246l-61 -379h-113l65 379h-383l-63 -379h-111l62 379h-213z" />
    <glyph glyph-name="dollar" unicode="$" 
d="M305 882q59 -72 246 -100v566q-153 -11 -229 -85t-76 -191q0 -118 59 -190zM961 367q0 168 -88.5 218t-170.5 62l-51 8v-585q156 10 233 92t77 205zM250 1338q119 100 301 112v164h100v-162q198 -11 296.5 -108.5t129.5 -233.5l-108 -27q-39 120 -107 186t-211 79v-578
l27 -4q195 -25 299 -118t104 -286q0 -258 -162.5 -323.5t-267.5 -71.5v-190h-100v190q-199 10 -324 104.5t-143 282.5h111q23 -135 108.5 -204.5t247.5 -79.5v602q-221 29 -320.5 121t-99.5 269q0 176 119 276z" />
    <glyph glyph-name="percent" unicode="%" horiz-adv-x="1818" 
d="M610 0h-125l721 1415h125zM1397 59q227 0 227 336t-227 336t-227 -336t227 -336zM1397 -41q-154 0 -250 111t-95 325q1 215 96 327q95 111 249 109q244 0 318 -243q26 -82 26 -193q0 -223 -95 -329t-249 -107zM422 676q227 0 227 336t-227 336t-227 -336t227 -336z
M766 1007q0 -218 -95 -325t-248 -107t-250 111t-96 325q1 215 96 326t249 111q156 0 250 -112q94 -111 94 -329z" />
    <glyph glyph-name="ampersand" unicode="&#x26;" horiz-adv-x="1265" 
d="M570 1372q-94 0 -145.5 -54t-51.5 -148t41 -159t102 -139q117 63 186.5 130.5t69.5 167.5q0 101 -54 151.5t-148 50.5zM205 349.5q0 -109.5 85 -194.5t295 -85t333 157l-441 518q-129 -75 -178 -129.5t-71.5 -105.5t-22.5 -160.5zM78 396q0 205 133 297.5t201 127.5
q-158 180 -158 344q0 129 90 215t233 86q142 0 224 -82t82 -212t-74 -206t-227 -167l397 -469q58 136 68 332h118q-7 -220 -112 -420l211 -242h-148l-127 150q-153 -183 -417 -183t-379 112t-115 317z" />
    <glyph glyph-name="quotesingle" unicode="'" horiz-adv-x="299" 
d="M88 1454h123l-12 -496h-99z" />
    <glyph glyph-name="parenleft" unicode="(" horiz-adv-x="499" 
d="M123 624.5q0 241.5 58.5 471t174.5 407.5h113q-117 -211 -165 -427t-48 -451.5t48 -451.5t165 -427h-113q-117 178 -175 407.5t-58 471z" />
    <glyph glyph-name="parenright" unicode=")" horiz-adv-x="499" 
d="M244 752.5q0 363.5 -213 750.5h112q117 -178 175.5 -407.5t58.5 -471t-58.5 -471t-175.5 -407.5h-112q117 211 165 427t48 579.5z" />
    <glyph glyph-name="asterisk" unicode="*" horiz-adv-x="770" 
d="M319 1110l-245 82l49 108l221 -106l-16 268h118l-16 -268l221 106l45 -108l-243 -82l186 -213l-96 -70l-156 226l-156 -226l-96 70z" />
    <glyph glyph-name="plus" unicode="+" 
d="M551 643h-412v109h412v438h111v-438h411v-109h-411v-440h-111v440z" />
    <glyph glyph-name="comma" unicode="," horiz-adv-x="407" 
d="M154 197h139l-96 -398h-101z" />
    <glyph glyph-name="hyphen" unicode="-" horiz-adv-x="800" 
d="M102 653h596v-123h-596v123z" />
    <glyph glyph-name="period" unicode="." horiz-adv-x="407" 
d="M127 190h154v-190h-154v190z" />
    <glyph glyph-name="slash" unicode="/" horiz-adv-x="618" 
d="M475 1503h127l-459 -1503h-127z" />
    <glyph glyph-name="zero" unicode="0" 
d="M894.5 233q88.5 159 88.5 473t-89 474.5t-338 160.5t-289 -243.5t-40 -391.5t19.5 -266t88.5 -242t270 -124t289.5 159zM229 142.5q-133 179.5 -133 560.5t136 566t378 185q367 0 435.5 -277.5t68.5 -562t-132 -468t-376 -183.5t-377 179.5z" />
    <glyph glyph-name="one" unicode="1" 
d="M754 1415v-1415h-123v1290l-355 -215l-51 92l406 248h123z" />
    <glyph glyph-name="two" unicode="2" 
d="M616 1341q-235 0 -288.5 -105.5t-73.5 -166.5l-109 23q62 246 210.5 304t258.5 58q212 0 324.5 -113.5t112.5 -291.5t-108 -331.5t-370 -375.5q-63 -53 -132.5 -113.5t-131.5 -113.5h754l-25 -115h-886v111q72 63 165 146t192 169q228 198 321.5 326.5t93.5 283.5
q0 154 -80 229.5t-228 75.5z" />
    <glyph glyph-name="three" unicode="3" 
d="M936 393q0 291 -320 291h-172v113h172q133 0 211 72.5t78 207.5t-84 199.5t-231 64.5q-228 0 -279 -96t-71 -160l-111 21q80 348 467 348q214 0 322 -102t108 -244q0 -141 -51 -221t-158 -133q242 -94 242 -355q0 -195 -122.5 -315.5t-359.5 -120.5t-343.5 115.5
t-116.5 279.5h114q21 -145 102 -215.5t259 -70.5t261 84t83 237z" />
    <glyph glyph-name="four" unicode="4" 
d="M791 471v784l-568 -784h568zM909 1415v-944h203l-22 -100h-181v-371h-118v371h-697v100l690 944h125z" />
    <glyph glyph-name="five" unicode="5" 
d="M616 797q-206 0 -331 -133h-107l60 751h745v-112h-647l-45 -519q78 61 152.5 88t190.5 27q215 0 323 -125.5t108 -341.5t-121.5 -342.5t-334.5 -126.5q-418 0 -459 371h114q28 -141 107.5 -201.5t237.5 -60.5q157 0 245 91t88 283q0 248 -118.5 299.5t-207.5 51.5z" />
    <glyph glyph-name="six" unicode="6" 
d="M971 434q0 257 -116 311t-198 54q-169 0 -274.5 -98t-97.5 -285q4 -135 92 -240.5t248 -105.5q159 0 252.5 98t93.5 266zM256 682q138 219 400 219q233 0 335.5 -131t102.5 -337t-130 -338t-343 -132q-267 0 -374.5 187t-107.5 452q0 852 523 852q186 0 276 -80t125 -221
l-107 -27q-41 122 -102.5 169.5t-201.5 47.5q-174 0 -279.5 -146t-116.5 -515z" />
    <glyph glyph-name="seven" unicode="7" 
d="M92 1303v112h944v-112q-352 -655 -526 -1303h-137q208 708 532 1303h-813z" />
    <glyph glyph-name="eight" unicode="8" 
d="M225 371q0 -135 91.5 -220t291.5 -85t290.5 85t90.5 223q0 290 -381 290q-301 0 -342 -113.5t-41 -179.5zM260 1061q0 -289 264 -289t347 73t83 216q0 200 -127 245.5t-261 45.5t-220 -82t-86 -209zM257.5 1345q116.5 109 349.5 109t349.5 -108.5t116.5 -284.5
q0 -135 -67 -220.5t-168 -113.5q173 -44 226.5 -156t53.5 -201t-31.5 -164t-95 -129t-160 -84t-283.5 -30t-319.5 111t-132.5 299q0 146 91 235t192 111q-96 26 -167 115.5t-71 245.5t116.5 265z" />
    <glyph glyph-name="nine" unicode="9" 
d="M233 983q0 -362 324 -362q154 0 253 90.5t99 251.5t-83.5 273t-246.5 112t-254.5 -98.5t-91.5 -266.5zM544 70q108 0 179.5 32.5t143 147t71.5 485.5q-135 -221 -397 -221q-225 0 -327.5 132.5t-102.5 339.5t129.5 337.5t339.5 130.5q261 0 369 -194t108 -448t-29.5 -424
t-138 -297.5t-326.5 -127.5q-375 0 -416 322h119q27 -121 98.5 -168t179.5 -47z" />
    <glyph glyph-name="colon" unicode=":" horiz-adv-x="407" 
d="M127 1055h154v-191h-154v191zM127 190h154v-190h-154v190z" />
    <glyph glyph-name="semicolon" unicode=";" horiz-adv-x="407" 
d="M154 197h139l-96 -398h-101zM127 1055h154v-191h-154v191z" />
    <glyph glyph-name="less" unicode="&#x3c;" 
d="M162 739l909 437v-121l-770 -359l770 -356v-127l-909 436v90z" />
    <glyph glyph-name="equal" unicode="=" 
d="M166 524h881v-112h-881v112zM166 983h881v-113h-881v113z" />
    <glyph glyph-name="greater" unicode="&#x3e;" 
d="M141 338l764 352l-764 365v121l910 -437v-90l-910 -436v125z" />
    <glyph glyph-name="question" unicode="?" horiz-adv-x="1013" 
d="M399 188h152v-188h-152v188zM416 418q0 166 100 261t143 139t84 109.5t44 179.5t-67.5 193.5t-218.5 79.5t-225 -66.5t-114 -201.5l-109 21q51 239 194 296.5t249 57.5q198 0 304.5 -106.5t106.5 -274.5q0 -121 -47.5 -205t-101.5 -135q-117 -110 -170 -179t-53 -169v-23
h-119v23z" />
    <glyph glyph-name="at" unicode="@" horiz-adv-x="1898" 
d="M964 825q-146 0 -246 -122.5t-100 -335.5q0 -147 66 -218t152 -71q141 0 223 82q55 55 83.5 121.5t45.5 158.5l8 45q31 181 -63 283q-57 57 -169 57zM1264 201q0 -119 122 -119q140 0 230 132.5t90 381.5q0 297 -196.5 474t-522.5 177q-174 0 -317.5 -62.5t-301 -239.5
t-157.5 -560q0 -330 202 -520.5t518 -190.5t409.5 78t132.5 125h131q-107 -161 -265.5 -234t-414.5 -73q-362 0 -599 216t-237 589q0 336 136.5 555t342 321.5t401.5 102.5q380 0 618.5 -196.5t238.5 -536.5q0 -293 -123.5 -461t-320.5 -168t-218 160q-127 -172 -325 -172
q-156 0 -249 107.5t-93 250.5q0 268 134.5 427t335.5 159q200 0 285 -166q0 2 29 141h109l-121 -663q-4 -20 -4 -35z" />
    <glyph glyph-name="A" unicode="A" horiz-adv-x="1353" 
d="M973 561l-301 764l-297 -764h598zM604 1462h148l577 -1462h-135l-176 446h-688l-174 -446h-131z" />
    <glyph glyph-name="B" unicode="B" horiz-adv-x="1277" 
d="M666 111q317 0 353 112.5t36 179.5q0 150 -90.5 228t-292.5 78h-381v-598h375zM649 821q190 0 277.5 68.5t87.5 204t-87 198t-300 62.5h-336v-533h358zM1186 414q0 -295 -186.5 -354.5t-329.5 -59.5h-502v1462h463q282 0 394 -97t112 -265q0 -111 -51.5 -193t-172.5 -133
q273 -94 273 -360z" />
    <glyph glyph-name="C" unicode="C" horiz-adv-x="1452" 
d="M754 -37q-290 0 -464.5 200.5t-174.5 563.5t182.5 567.5t456.5 204.5q366 0 453 -183t112 -284l-119 -26q-50 195 -150.5 290t-295.5 95q-236 0 -373 -184t-137 -477t133 -474.5t381 -181.5q317 0 380.5 155.5t78.5 239.5h122q-45 -354 -245.5 -430t-339.5 -76z" />
    <glyph glyph-name="D" unicode="D" horiz-adv-x="1437" 
d="M625 111q567 -1 567 621t-530 622h-369v-1243h332zM168 1462h494q478 0 569.5 -268t91.5 -454q0 -367 -188 -553.5t-519 -186.5h-448v1462z" />
    <glyph glyph-name="E" unicode="E" horiz-adv-x="1204" 
d="M168 1462h919v-112h-794v-537h754v-117h-754v-581h829l-28 -115h-926v1462z" />
    <glyph glyph-name="F" unicode="F" horiz-adv-x="1132" 
d="M168 1462h879v-112h-754v-555h706v-117h-706v-678h-125v1462z" />
    <glyph glyph-name="G" unicode="G" horiz-adv-x="1456" 
d="M1210 610h-417v113h536v-565q-150 -144 -312.5 -169.5t-232.5 -25.5q-314 0 -491.5 199t-177.5 565q0 365 181.5 568.5t467.5 203.5q430 0 534 -399l-116 -27q-44 153 -142 235.5t-276 82.5q-248 0 -384 -182.5t-136 -480.5t137 -476t399 -178t430 129v407z" />
    <glyph glyph-name="H" unicode="H" horiz-adv-x="1411" 
d="M168 1462h125v-647h825v647h125v-1462h-125v698h-825v-698h-125v1462z" />
    <glyph glyph-name="I" unicode="I" horiz-adv-x="460" 
d="M168 1462h125v-1462h-125v1462z" />
    <glyph glyph-name="J" unicode="J" horiz-adv-x="1179" 
d="M547 74q197 0 273.5 106.5t76.5 302.5v979h125v-991q0 -256 -124 -382t-339 -126q-452 0 -508 440h127q47 -329 369 -329z" />
    <glyph glyph-name="K" unicode="K" horiz-adv-x="1302" 
d="M168 1462h125v-764l768 764h149l-542 -547l598 -915h-152l-541 834l-280 -277v-557h-125v1462z" />
    <glyph glyph-name="L" unicode="L" horiz-adv-x="1126" 
d="M168 1462h125v-1345h794l-26 -117h-893v1462z" />
    <glyph glyph-name="M" unicode="M" horiz-adv-x="1716" 
d="M285 0h-117v1462h162l528 -1317l537 1317h153v-1462h-116v1253l-517 -1253h-118l-512 1245v-1245z" />
    <glyph glyph-name="N" unicode="N" horiz-adv-x="1413" 
d="M168 1462h137l819 -1265v1265h121v-1462h-135l-821 1270v-1270h-121v1462z" />
    <glyph glyph-name="O" unicode="O" horiz-adv-x="1548" 
d="M1164.5 1207.5q-138.5 181.5 -393.5 181.5q-254 0 -389.5 -180t-135.5 -480t135.5 -477.5t392.5 -177.5q255 0 392 179.5t137 476t-138.5 478zM115 638.5q0 276.5 50 421t139 242t210 147.5t339.5 50t399.5 -200.5t181 -565.5t-181 -567.5t-476 -202.5q-298 0 -480 199.5
t-182 476z" />
    <glyph glyph-name="P" unicode="P" horiz-adv-x="1267" 
d="M637 700q334 0 367.5 128t33.5 208q0 167 -87 242.5t-316 75.5h-344v-654h346zM168 1462h471q428 0 477 -168t49 -256q0 -204 -118 -325t-412 -121h-344v-592h-123v1462z" />
    <glyph glyph-name="Q" unicode="Q" horiz-adv-x="1548" 
d="M1147 231q156 176 156 486t-138.5 491t-393.5 181q-254 0 -389.5 -180t-135.5 -480t135.5 -477.5t394.5 -177.5q166 0 285 82l-182 217l86 71zM776 -37q-297 0 -479 199.5t-182 565.5t184.5 568.5t478.5 202.5t475 -200.5t181 -576.5t-207 -585l180 -211l-86 -76
l-182 216q-156 -102 -363 -103z" />
    <glyph glyph-name="R" unicode="R" horiz-adv-x="1271" 
d="M643 750q304 0 340.5 119.5t36.5 192.5q0 151 -87.5 221.5t-311.5 70.5h-330v-604h352zM627 1462q520 0 520 -397q0 -291 -266 -387l315 -678h-145l-293 649q-88 -10 -150 -10h-317v-639h-123v1462h459z" />
    <glyph glyph-name="S" unicode="S" horiz-adv-x="1314" 
d="M680 74q298 0 338.5 121t40.5 177q0 121 -60.5 193.5t-240.5 104.5l-183 30q-225 38 -335.5 126.5t-110.5 280.5t147 292t375 100q358 0 432 -141t93 -205l-115 -33q-44 140 -130.5 205.5t-277.5 65.5q-312 0 -355.5 -112t-43.5 -172q0 -124 64 -184t239 -94l207 -36
q224 -40 327 -137.5t103 -278.5t-136 -297.5t-380 -116.5q-384 0 -479 152.5t-107 267.5h123q33 -164 141.5 -236.5t323.5 -72.5z" />
    <glyph glyph-name="T" unicode="T" horiz-adv-x="1208" 
d="M543 1348h-508v114h1139v-114h-506v-1348h-125v1348z" />
    <glyph glyph-name="U" unicode="U" horiz-adv-x="1384" 
d="M1227 573q0 -610 -533 -610q-399 0 -467.5 227.5t-68.5 391.5v880h125v-891q0 -248 96 -372.5t316 -124.5t313.5 122t93.5 375v891h125v-889z" />
    <glyph glyph-name="V" unicode="V" horiz-adv-x="1329" 
d="M29 1462h143l496 -1321l501 1321h131l-567 -1462h-135z" />
    <glyph glyph-name="W" unicode="W" horiz-adv-x="1865" 
d="M27 1462h139l344 -1306l362 1300h136l352 -1298l348 1304h131l-412 -1462h-145l-352 1300l-352 -1300h-138z" />
    <glyph glyph-name="X" unicode="X" horiz-adv-x="1255" 
d="M549 774l-479 688h149l408 -604l411 604h133l-477 -698l533 -764h-150l-461 674l-452 -674h-135z" />
    <glyph glyph-name="Y" unicode="Y" horiz-adv-x="1204" 
d="M668 0h-125v633l-512 829h147l428 -723l436 723h132l-506 -829v-633z" />
    <glyph glyph-name="Z" unicode="Z" horiz-adv-x="1198" 
d="M88 1350v112h1030v-104l-899 -1243h918l-27 -115h-1038v102l901 1248h-885z" />
    <glyph glyph-name="bracketleft" unicode="[" horiz-adv-x="520" 
d="M158 1503h340v-102h-217v-1553h217v-102h-340v1757z" />
    <glyph glyph-name="backslash" unicode="\" horiz-adv-x="618" 
d="M16 1503h127l459 -1503h-127z" />
    <glyph glyph-name="bracketright" unicode="]" horiz-adv-x="520" 
d="M23 -152h217v1553h-217v102h339v-1757h-339v102z" />
    <glyph glyph-name="asciicircum" unicode="^" 
d="M553 1448h106l416 -821h-129l-344 692l-344 -692h-121z" />
    <glyph glyph-name="underscore" unicode="_" horiz-adv-x="1024" 
d="M0 -252h1024v-106h-1024v106z" />
    <glyph glyph-name="grave" unicode="`" horiz-adv-x="1142" 
d="M377 1483h160l227 -275h-127z" />
    <glyph glyph-name="a" unicode="a" horiz-adv-x="1075" 
d="M199 295q0 -213 243 -213q162 0 244 65q72 52 99.5 105.5t27.5 153.5v155l-195 -8q-334 -11 -376.5 -103t-42.5 -155zM74 293q0 195 144 269.5t388 84.5l205 8v33q0 156 -60.5 227.5t-215.5 71.5q-203 0 -247 -67.5t-55 -106.5l-108 16q57 258 414 258q311 0 353 -149.5
t42 -243.5v-694h-119v150q-143 -175 -375 -175q-166 0 -266 80t-100 238z" />
    <glyph glyph-name="b" unicode="b" horiz-adv-x="1193" 
d="M258 485q0 -141 24.5 -198.5t51 -89t69.5 -63.5q85 -64 183 -64q182 0 276 112t94 352q0 239 -96 345t-228 106t-213 -60t-121 -141.5t-40 -205.5v-93zM262 0h-119v1462h119v-565q72 90 158 140t205 50q227 0 342.5 -151.5t115.5 -406.5t-127.5 -408.5t-343.5 -153.5
q-217 0 -350 176v-143z" />
    <glyph glyph-name="c" unicode="c" horiz-adv-x="1134" 
d="M600 985q-178 0 -270 -122.5t-92 -391t132 -335t228 -66.5q154 0 224.5 74.5t95.5 199.5h118q-31 -178 -141.5 -277.5t-300.5 -99.5q-231 0 -357 149t-126 406.5t132 411t361 153.5q174 0 277.5 -89t136.5 -250l-115 -29q-56 266 -303 266z" />
    <glyph glyph-name="d" unicode="d" horiz-adv-x="1189" 
d="M934 569q0 137 -24.5 196.5t-97 139.5t-207.5 80q-367 0 -367 -465q0 -238 96 -344t227 -106q132 0 213 60q82 60 121 142t39 205v92zM928 158q-148 -191 -363 -191q-226 0 -340 157.5t-114 409.5t125.5 402.5t341.5 150.5t350 -176v551h119v-1462h-119v158z" />
    <glyph glyph-name="e" unicode="e" horiz-adv-x="1146" 
d="M920 600q0 282 -121 336.5t-209 54.5q-154 0 -246 -96t-111 -295h687zM574 -33q-212 0 -337.5 146.5t-125.5 410.5t132.5 413.5t355.5 149.5q224 0 333.5 -140t109.5 -374v-75h-811q0 -190 94 -311t265 -121q214 0 260.5 81.5t58.5 128.5h115q-25 -137 -131.5 -223
t-318.5 -86z" />
    <glyph glyph-name="f" unicode="f" horiz-adv-x="632" 
d="M500 1374q-70 0 -124 -42t-54 -152v-125h280v-99h-280v-956h-119v956h-164v99h164v121q0 147 84.5 225t210.5 78q76 0 155 -23l-24 -100q-59 18 -129 18z" />
    <glyph glyph-name="g" unicode="g" horiz-adv-x="1187" 
d="M930 569q0 141 -24.5 198.5t-51 89t-70.5 63.5q-88 66 -182 65q-178 0 -273.5 -108.5t-95.5 -327.5t98 -323.5t236 -104.5q68 0 115.5 14.5t109.5 58.5q138 99 138 336v39zM926 1055h118v-1016q0 -213 -109.5 -336t-344.5 -123q-405 0 -445 305h113q23 -104 98.5 -154
t240.5 -50t247 84.5t82 285.5v158q-138 -193 -365 -193q-226 0 -340.5 154.5t-114.5 387.5q0 234 128 381.5t344 147.5t348 -176v144z" />
    <glyph glyph-name="h" unicode="h" horiz-adv-x="1142" 
d="M653 1087q353 0 353 -385v-702h-119v670q0 166 -59.5 238.5t-198.5 72.5t-244 -98q-61 -53 -92 -109.5t-31 -155.5v-618h-119v1462h119v-579q161 204 391 204z" />
    <glyph glyph-name="i" unicode="i" horiz-adv-x="417" 
d="M141 1462h135v-178h-135v178zM150 1055h118v-1055h-118v1055z" />
    <glyph glyph-name="j" unicode="j" horiz-adv-x="417" 
d="M141 1462h135v-178h-135v178zM6 -274q82 0 113 51t31 135v1143h118v-1071q0 -176 -48.5 -270.5t-196.5 -94.5q-113 0 -193 31l25 100q69 -24 151 -24z" />
    <glyph glyph-name="k" unicode="k" horiz-adv-x="1009" 
d="M143 1462h119v-899l543 492h147l-372 -348l419 -707h-143l-369 633l-225 -203v-430h-119v1462z" />
    <glyph glyph-name="l" unicode="l" horiz-adv-x="417" 
d="M150 1462h118v-1462h-118v1462z" />
    <glyph glyph-name="m" unicode="m" horiz-adv-x="1746" 
d="M610 1087q230 0 301 -206q72 98 168.5 152t206.5 54q152 0 238 -81.5t86 -262.5v-743h-119v700q0 227 -82 254t-133 27q-131 0 -227 -82q-113 -90 -113 -223v-676h-119v698q0 154 -53 218.5t-173 64.5t-224.5 -108.5t-104.5 -247.5v-625h-119v1055h119v-174
q154 206 348 206z" />
    <glyph glyph-name="n" unicode="n" horiz-adv-x="1142" 
d="M653 1087q353 0 353 -385v-702h-119v670q0 166 -59.5 238.5t-198.5 72.5t-244 -98q-61 -53 -92 -109.5t-31 -155.5v-618h-119v1055h119v-172q161 204 391 204z" />
    <glyph glyph-name="o" unicode="o" horiz-adv-x="1214" 
d="M111 523q0 255 134.5 409.5t365.5 154.5t362 -150.5t131 -404.5t-134 -409.5t-367 -155.5t-362.5 150.5t-129.5 405.5zM885.5 195q91.5 125 91.5 335q0 315 -134.5 385t-234.5 70t-170.5 -36t-114.5 -97t-64.5 -144t-20.5 -179.5t20.5 -180.5t90 -181t257.5 -97
t279.5 125z" />
    <glyph glyph-name="p" unicode="p" horiz-adv-x="1193" 
d="M258 485q0 -141 24.5 -198.5t51 -89t69.5 -63.5q85 -64 183 -64q182 0 276 112t94 352q0 239 -96 345t-228 106t-213 -60t-121 -141.5t-40 -205.5v-93zM262 -397h-119v1452h119v-158q72 90 158 140t206 50q226 0 341.5 -151.5t115.5 -406.5t-127.5 -408.5t-343.5 -153.5
q-217 0 -350 176v-540z" />
    <glyph glyph-name="q" unicode="q" horiz-adv-x="1191" 
d="M934 569q0 137 -24.5 196.5t-97 139.5t-207.5 80q-367 0 -367 -465q0 -238 96 -344t227 -106q132 0 213 60q82 60 121 142t39 205v92zM928 158q-148 -191 -363 -191q-226 0 -340 157.5t-114 409.5t125.5 402.5t341.5 150.5t350 -176v144h121v-1452h-121v555z" />
    <glyph glyph-name="r" unicode="r" horiz-adv-x="690" 
d="M582 1071q50 0 84 -6l-15 -113q-37 6 -79 6q-114 0 -201 -86q-109 -95 -109 -237v-635h-119v1055h119v-172q132 188 320 188z" />
    <glyph glyph-name="s" unicode="s" horiz-adv-x="1052" 
d="M546 68q153 0 216 57t63 141t-43 133t-178 72l-129 21q-183 31 -269.5 93.5t-86.5 202.5t112 219.5t285 79.5q286 0 341.5 -107.5t70.5 -162.5l-109 -22q-34 100 -96.5 145t-172.5 45t-165 -15.5t-89 -42t-48.5 -61.5t-14.5 -93.5t44 -99t182 -65.5l162 -26
q166 -29 247.5 -99.5t81.5 -209.5t-105 -222.5t-296 -83.5q-308 0 -379.5 119t-79.5 207h117q23 -123 104.5 -174t234.5 -51z" />
    <glyph glyph-name="t" unicode="t" horiz-adv-x="675" 
d="M466 -23q-169 0 -216 93t-47 272v614h-164v99h164v291h119v-291h299v-99h-299v-690q0 -186 147 -186q81 0 156 26l24 -96q-86 -33 -183 -33z" />
    <glyph glyph-name="u" unicode="u" horiz-adv-x="1120" 
d="M139 1055h119v-670q0 -166 52 -238.5t182 -72.5t245 98q59 53 90 109.5t31 154.5v619h119v-1055h-119v172q-166 -205 -383 -205q-180 0 -258 98.5t-78 286.5v703z" />
    <glyph glyph-name="v" unicode="v" horiz-adv-x="1015" 
d="M12 1055h138l358 -926l366 926h130l-426 -1055h-140z" />
    <glyph glyph-name="w" unicode="w" horiz-adv-x="1456" 
d="M18 1055h132l245 -922l269 916h139l262 -916l246 922h127l-310 -1055h-137l-264 922l-266 -922h-137z" />
    <glyph glyph-name="x" unicode="x" horiz-adv-x="978" 
d="M418 561l-357 494h140l291 -414l292 414h129l-348 -498l393 -557h-139l-332 473l-327 -473h-133z" />
    <glyph glyph-name="y" unicode="y" horiz-adv-x="1019" 
d="M335 -255.5q34 35.5 81 144.5l49 125l-453 1041h138l382 -903l342 903h134l-480 -1194q-59 -139 -115.5 -198.5t-153.5 -59.5t-167 24l29 105q58 -23 119 -23t95 35.5z" />
    <glyph glyph-name="z" unicode="z" horiz-adv-x="919" 
d="M61 954v101h797v-101l-670 -854h705l-21 -100h-825v100l670 854h-656z" />
    <glyph glyph-name="braceleft" unicode="{" horiz-adv-x="538" 
d="M207 416q0 76 -28.5 115.5t-112.5 39.5h-5v107h5q84 0 112.5 39t28.5 117v442q0 131 61.5 179t173.5 48h86v-100h-98q-59 0 -80.5 -28.5t-21.5 -82.5v-489q0 -156 -115 -178q115 -23 115 -179v-489q0 -53 21.5 -82t80.5 -29h98v-100h-86q-119 0 -177 50.5t-58 176.5v443z
" />
    <glyph glyph-name="bar" unicode="|" horiz-adv-x="413" 
d="M145 1503h123v-1757h-123v1757z" />
    <glyph glyph-name="braceright" unicode="}" horiz-adv-x="538" 
d="M10 -154h99q59 0 80.5 29t21.5 82v489q0 156 115 179q-115 23 -115 178v489q0 53 -21.5 82t-80.5 29h-99v100h86q113 0 174.5 -48t61.5 -179v-442q0 -76 28.5 -116t112.5 -40h4v-107h-4q-84 0 -112.5 -38.5t-28.5 -116.5v-443q0 -184 -90 -205.5t-146 -21.5h-86v100z" />
    <glyph glyph-name="asciitilde" unicode="~" 
d="M102 541q0 178 74.5 247.5t196.5 69.5q76 0 138 -39t118.5 -86t108.5 -86t122 -39t107 48.5t37 170.5h102q0 -262 -109 -291.5t-171 -29.5t-124.5 40t-119 87t-109.5 87t-121 40t-106.5 -49t-38.5 -170h-105z" />
    <glyph glyph-name="uni00A0" unicode="&#xa0;" horiz-adv-x="456" 
 />
    <glyph glyph-name="exclamdown" unicode="&#xa1;" horiz-adv-x="421" 
d="M137 1055h148v-189h-148v189zM156 659h108l8 -1056h-125z" />
    <glyph glyph-name="cent" unicode="&#xa2;" 
d="M279 705q0 -297 115.5 -371t201.5 -82v909q-168 -23 -242.5 -146.5t-74.5 -309.5zM596 1434h100v-168q158 -10 255.5 -97.5t125.5 -232.5l-114 -27q-20 100 -82 170t-185 84v-911q125 12 189.5 84t87.5 178h121q-29 -160 -129.5 -255t-268.5 -109v-168h-100v168
q-211 14 -327.5 159.5t-116.5 390.5t120 393.5t324 170.5v170z" />
    <glyph glyph-name="sterling" unicode="&#xa3;" 
d="M413.5 303q-18.5 -100 -91.5 -190h802l-24 -113h-907v113q76 78 99 182t23 176t-14 182h-147v105h135q-27 159 -27 264q0 204 121.5 318t302.5 114q271 0 329 -124t72 -187l-108 -29q-37 126 -98 181t-204 55t-217.5 -88.5t-74.5 -228.5q0 -139 23 -275h479v-105h-465
q10 -102 10 -176t-18.5 -174z" />
    <glyph glyph-name="currency" unicode="&#xa4;" 
d="M601 336q85 0 144.5 27.5t97.5 76.5t54 118t16 197t-76 226t-236 98t-238 -100.5t-78 -318t115.5 -271t200.5 -53.5zM160 702q0 198 98 326l-119 129l78 78l121 -131q104 86 268 86t266 -86l123 131l78 -78l-123 -131q88 -127 88 -319t-90 -318l127 -133l-80 -76
l-125 127q-106 -82 -269 -82t-267 76l-117 -121l-80 76l117 125q-94 123 -94 321z" />
    <glyph glyph-name="yen" unicode="&#xa5;" 
d="M164 449h385v163l-43 64h-342v104h280l-385 635h142l409 -704l416 704h127l-381 -635h289v-104h-354l-37 -64v-163h391v-103h-391v-346h-121v346h-385v103z" />
    <glyph glyph-name="brokenbar" unicode="&#xa6;" horiz-adv-x="413" 
d="M145 469h123v-723h-123v723zM145 1503h123v-688h-123v688z" />
    <glyph glyph-name="section" unicode="&#xa7;" horiz-adv-x="1044" 
d="M836 605q0 87 -44.5 141.5t-179.5 93.5l-73 20q-149 38 -234.5 -29.5t-85.5 -183.5q0 -75 45.5 -130.5t177.5 -92.5l50 -14q143 -43 218.5 7t100.5 97t25 91zM221 1200q0 -70 46.5 -120.5t174.5 -84.5l174 -45q176 -45 258 -122.5t82 -213.5q0 -92 -57 -167.5
t-162 -110.5q102 -41 158.5 -107.5t56.5 -177.5q0 -154 -111.5 -226.5t-299.5 -72.5q-305 0 -375 120t-78 208h117q23 -123 101.5 -174t234.5 -51q238 0 264 76.5t26 113.5q0 80 -44 134.5t-175 88.5l-174 49q-174 47 -257 122t-83 210q0 90 57.5 170t166.5 115
q-100 39 -158 97.5t-58 150.5q0 164 118 240.5t310 76.5q339 0 412 -274l-108 -25q-31 94 -98.5 144.5t-215.5 50.5q-303 0 -303 -195z" />
    <glyph glyph-name="dieresis" unicode="&#xa8;" horiz-adv-x="1142" 
d="M668 1442h135v-174h-135v174zM340 1442h133v-174h-133v174z" />
    <glyph glyph-name="copyright" unicode="&#xa9;" horiz-adv-x="1581" 
d="M1204 1185q-162 173 -416 173t-415.5 -171.5t-161.5 -455t161.5 -456.5t414.5 -173q254 0 416.5 174t162.5 455t-162 454zM293 1259.5q201 202.5 504 202.5t495.5 -200t192.5 -527.5t-198.5 -531t-500.5 -203.5q-150 0 -278.5 52t-272 201t-143.5 476.5t201 530z
M1016 874q-43 187 -205 187q-151 0 -215 -90t-64 -242q0 -229 95.5 -279.5t165.5 -50.5q195 0 229 197h113q-25 -135 -111 -213t-248 -78t-262 111.5t-100 308.5t104 312.5t279 115.5q137 0 217 -67.5t104 -190.5z" />
    <glyph glyph-name="ordfeminine" unicode="&#xaa;" horiz-adv-x="868" 
d="M207 924q0 -144 172 -144q94 0 157.5 37t81 79t17.5 103v107l-135 -6q-167 -8 -230 -48.5t-63 -127.5zM637 799q-103 -113 -283 -113q-106 0 -183 60.5t-77 175.5q0 207 159 232.5t239 29.5l141 6v16q0 100 -39 153.5t-168 53.5t-158.5 -49t-38.5 -78l-90 14
q41 199 307 199q164 0 230.5 -78t66.5 -213v-503h-106v94z" />
    <glyph glyph-name="guillemotleft" unicode="&#xab;" horiz-adv-x="960" 
d="M98 526l291 453h115l-268 -451l268 -458h-119zM485 526l291 453h115l-268 -451l268 -458h-119z" />
    <glyph glyph-name="logicalnot" unicode="&#xac;" 
d="M127 874h917v-544h-108v438h-809v106z" />
    <glyph glyph-name="uni00AD" unicode="&#xad;" horiz-adv-x="800" 
d="M102 653h596v-123h-596v123z" />
    <glyph glyph-name="registered" unicode="&#xae;" horiz-adv-x="983" 
d="M487.5 705q145.5 0 235.5 93t90 263t-90 263t-235.5 93t-233.5 -93t-88 -263t88 -263t233.5 -93zM486 623q-182 0 -298 118t-116 319q0 200 119.5 319.5t302.5 119.5t298 -117t115 -319q0 -201 -119.5 -320.5t-301.5 -119.5zM494 1090q55 0 68 19t13 44t-17 40t-77 15
h-65v-118h78zM485 1276q174 0 174 -120q0 -52 -15 -77.5t-56 -42.5l90 -174h-92l-78 156h-92v-156h-84v414h153z" />
    <glyph glyph-name="macron" unicode="&#xaf;" horiz-adv-x="1142" 
d="M322 1389h499v-105h-499v105z" />
    <glyph glyph-name="degree" unicode="&#xb0;" horiz-adv-x="647" 
d="M324 1006q76 0 122 48t46 128t-46 130t-122 50t-122 -50t-46 -130t46 -128t122 -48zM51 1185q0 116 78.5 192.5t194.5 76.5q115 0 193.5 -76.5t78.5 -192.5t-78 -194t-194 -78t-194.5 78t-78.5 194z" />
    <glyph glyph-name="plusminus" unicode="&#xb1;" 
d="M551 643h-412v109h412v438h111v-438h411v-109h-411v-440h-111v440zM137 111h938v-111h-938v111z" />
    <glyph glyph-name="twosuperior" unicode="&#xb2;" horiz-adv-x="843" 
d="M421 1352q-83 0 -125 -38t-67 -118l-104 18q29 103 74 148q84 84 222 85q137 1 207 -69t70 -176q0 -107 -61 -194t-273 -252q-32 -25 -67 -54h410l-23 -98h-553v86q53 47 105 87t110 89q57 49 104 88q93 79 119 152q15 40 15 102t-40 103t-123 41z" />
    <glyph glyph-name="threesuperior" unicode="&#xb3;" horiz-adv-x="843" 
d="M705 834q0 -115 -71 -187t-224 -72t-235 92q-59 65 -64 164h96q13 -78 46 -110q59 -57 157 -57q186 0 186 165q0 154 -170 154h-102v88h102q66 0 110 38t44 110q0 141 -170 141q-92 0 -136 -43t-63 -109l-96 21q21 93 79 144q80 75 216 75q138 0 206 -60t68 -144
t-28 -128q-28 -43 -78 -78q127 -60 127 -204z" />
    <glyph glyph-name="acute" unicode="&#xb4;" horiz-adv-x="1142" 
d="M604 1483h160l-260 -275h-127z" />
    <glyph glyph-name="mu" unicode="&#xb5;" horiz-adv-x="1120" 
d="M258 -399h-119v1454h119v-682q0 -166 61.5 -232.5t180.5 -66.5t238 97q120 97 120 237v647h119v-1055h-119v168q-159 -201 -375 -201q-68 0 -125 14.5t-100 65.5v-446z" />
    <glyph glyph-name="paragraph" unicode="&#xb6;" horiz-adv-x="1193" 
d="M508 645q-237 0 -347 113t-110 295q0 288 194.5 348.5t348.5 60.5h448v-1747h-127v1641h-280v-1641h-127v930z" />
    <glyph glyph-name="periodcentered" unicode="&#xb7;" horiz-adv-x="407" 
d="M127 860h154v-190h-154v190z" />
    <glyph glyph-name="cedilla" unicode="&#xb8;" horiz-adv-x="1142" 
d="M516 -324q119 0 119 76q0 39 -35 55.5t-127 16.5h-24l63 182h94l-39 -106q106 -12 144.5 -55.5t38.5 -100.5q0 -92 -68 -126t-150 -34q-83 0 -141 8v93q69 -9 125 -9z" />
    <glyph glyph-name="onesuperior" unicode="&#xb9;" horiz-adv-x="843" 
d="M530 1419v-815h-118v696l-201 -100l-45 86l244 133h120z" />
    <glyph glyph-name="ordmasculine" unicode="&#xba;" horiz-adv-x="884" 
d="M173 794.5q-99 110.5 -99 294t102 297t270 113.5t266.5 -108.5t98.5 -296.5t-101.5 -299t-269.5 -111t-267 110.5zM637.5 862.5q62.5 84.5 62.5 229.5q0 221 -94 268t-163.5 47t-119 -24.5t-80 -67.5t-45 -100.5t-14.5 -125t14.5 -124t62 -122t181 -65.5t196 84.5z" />
    <glyph glyph-name="guillemotright" unicode="&#xbb;" horiz-adv-x="980" 
d="M338 520l-268 459h118l287 -457l-291 -452h-114zM745 520l-268 459h119l287 -457l-291 -452h-115z" />
    <glyph glyph-name="onequarter" unicode="&#xbc;" horiz-adv-x="1837" 
d="M582 0h-125l721 1415h125zM1516 295v381l-299 -381h299zM1618 815v-520h106l-20 -90h-86v-205h-102v205h-420v74l422 536h100zM451 1419v-815h-119v696l-201 -100l-45 86l244 133h121z" />
    <glyph glyph-name="onehalf" unicode="&#xbd;" horiz-adv-x="1837" 
d="M535 0h-125l720 1415h125zM1577 604q0 62 -40 103t-123 41t-125 -38t-66 -118l-105 18q29 103 74 148q84 84 222 85t207 -68t70 -175t-60 -194t-274 -254q-32 -25 -67 -54h410l-23 -98h-553v86q54 47 106 87t109 89t103 88t77 76q30 37 44 76q14 40 14 102zM451 1419
v-815h-119v696l-201 -100l-45 86l244 133h121z" />
    <glyph glyph-name="threequarters" unicode="&#xbe;" horiz-adv-x="1837" 
d="M676 0h-125l721 1415h125zM1516 295v381l-299 -381h299zM1618 815v-520h106l-20 -90h-86v-205h-102v205h-420v74l422 536h100zM705 834q0 -115 -71 -187t-224 -72t-235 92q-59 65 -64 164h96q13 -78 46 -110q59 -57 157 -57q186 0 186 165q0 154 -170 154h-102v88h102
q66 0 110 38t44 110q0 141 -170 141q-92 0 -136 -43t-63 -109l-96 21q21 93 79 144q80 75 216 75q138 0 206 -60t68 -144t-28 -128q-28 -43 -78 -78q127 -60 127 -204z" />
    <glyph glyph-name="questiondown" unicode="&#xbf;" horiz-adv-x="1009" 
d="M477 1055h152v-189h-152v189zM532 -424q-200 0 -305.5 104t-105.5 273q1 199 149 338q123 115 173.5 180t50.5 166v22h118v-22q0 -166 -100 -260t-143 -138t-84 -108.5t-44 -178.5t67.5 -191.5t218.5 -77.5t225 66.5t114 201.5l109 -21q-51 -240 -194 -297t-249 -57z" />
    <glyph glyph-name="Agrave" unicode="&#xc0;" horiz-adv-x="1353" 
d="M973 561l-301 764l-297 -764h598zM604 1462h148l577 -1462h-135l-176 446h-688l-174 -446h-131zM420 1849h162l227 -264h-129z" />
    <glyph glyph-name="Aacute" unicode="&#xc1;" horiz-adv-x="1353" 
d="M973 561l-301 764l-297 -764h598zM604 1462h148l577 -1462h-135l-176 446h-688l-174 -446h-131zM772 1849h162l-260 -264h-129z" />
    <glyph glyph-name="Acircumflex" unicode="&#xc2;" horiz-adv-x="1353" 
d="M973 561l-301 764l-297 -764h598zM604 1462h148l577 -1462h-135l-176 446h-688l-174 -446h-131zM618 1849h117l230 -264h-125l-164 170l-164 -170h-125z" />
    <glyph glyph-name="Atilde" unicode="&#xc3;" horiz-adv-x="1353" 
d="M973 561l-301 764l-297 -764h598zM604 1462h148l577 -1462h-135l-176 446h-688l-174 -446h-131zM328 1602q0 100 51 157t125 57t113 -18q40 -18 73 -41t65 -41q31 -18 81 -18q89 0 92 117h98q0 -103 -51 -159t-138 -56t-173 58q-33 22 -66 40t-82 18q-50 0 -70 -34
t-20 -80h-98z" />
    <glyph glyph-name="Adieresis" unicode="&#xc4;" horiz-adv-x="1353" 
d="M973 561l-301 764l-297 -764h598zM604 1462h148l577 -1462h-135l-176 446h-688l-174 -446h-131zM774 1806h139v-178h-139v178zM438 1806h137v-178h-137v178z" />
    <glyph glyph-name="Aring" unicode="&#xc5;" horiz-adv-x="1353" 
d="M676 1464q104 0 104 113t-104 113q-47 0 -76 -28t-29 -86t29 -85t76 -27zM973 561l-301 764l-297 -764h598zM481 1563q0 110 58.5 159.5t137.5 49.5t137 -51t58 -146q0 -122 -98 -172l555 -1403h-135l-176 446h-688l-174 -446h-131l555 1401q-99 52 -99 162z" />
    <glyph glyph-name="AE" unicode="&#xc6;" horiz-adv-x="2072" 
d="M1094 625v725h-146l-428 -725h574zM1956 1462v-112h-744v-537h703v-117h-703v-581h779l-29 -115h-868v510h-641l-306 -510h-137l875 1462h1071z" />
    <glyph glyph-name="Ccedilla" unicode="&#xc7;" horiz-adv-x="1452" 
d="M690 -352q137 0 137 82q0 41 -36.5 59t-128.5 18h-27l55 160q-266 21 -420.5 221t-154.5 551t182.5 555.5t456.5 204.5q366 0 453 -183t112 -284l-119 -26q-50 195 -150.5 290t-295.5 95q-236 0 -373 -184t-137 -477t133 -474.5t381 -181.5q317 0 380.5 155.5t78.5 239.5
h122q-47 -346 -235.5 -424t-317.5 -82l-28 -78q111 -12 149.5 -58t38.5 -106q0 -167 -254 -167q-55 0 -117 8v94q66 -8 115 -8z" />
    <glyph glyph-name="Egrave" unicode="&#xc8;" horiz-adv-x="1204" 
d="M168 1462h919v-112h-794v-537h754v-117h-754v-581h829l-28 -115h-926v1462zM397 1849h162l227 -264h-129z" />
    <glyph glyph-name="Eacute" unicode="&#xc9;" horiz-adv-x="1204" 
d="M168 1462h919v-112h-794v-537h754v-117h-754v-581h829l-28 -115h-926v1462zM717 1849h162l-261 -264h-129z" />
    <glyph glyph-name="Ecircumflex" unicode="&#xca;" horiz-adv-x="1204" 
d="M168 1462h919v-112h-794v-537h754v-117h-754v-581h829l-28 -115h-926v1462zM575 1849h117l230 -264h-125l-164 170l-164 -170h-125z" />
    <glyph glyph-name="Edieresis" unicode="&#xcb;" horiz-adv-x="1204" 
d="M168 1462h919v-112h-794v-537h754v-117h-754v-581h829l-28 -115h-926v1462zM731 1806h139v-178h-139v178zM395 1806h137v-178h-137v178z" />
    <glyph glyph-name="Igrave" unicode="&#xcc;" horiz-adv-x="460" 
d="M168 1462h125v-1462h-125v1462zM-45 1849h162l227 -264h-129z" />
    <glyph glyph-name="Iacute" unicode="&#xcd;" horiz-adv-x="460" 
d="M168 1462h125v-1462h-125v1462zM348 1849h162l-260 -264h-129z" />
    <glyph glyph-name="Icircumflex" unicode="&#xce;" horiz-adv-x="460" 
d="M168 1462h125v-1462h-125v1462zM174 1849h117l229 -264h-125l-164 170l-163 -170h-125z" />
    <glyph glyph-name="Idieresis" unicode="&#xcf;" horiz-adv-x="460" 
d="M168 1462h125v-1462h-125v1462zM330 1806h139v-178h-139v178zM-6 1806h137v-178h-137v178z" />
    <glyph glyph-name="Eth" unicode="&#xd0;" horiz-adv-x="1458" 
d="M645 111q567 -1 567 621t-530 622h-369v-543h408v-111h-408v-589h332zM188 700h-168v111h168v651h494q478 0 569.5 -268t91.5 -454q0 -366 -187 -553t-519 -187h-449v700z" />
    <glyph glyph-name="Ntilde" unicode="&#xd1;" horiz-adv-x="1413" 
d="M168 1462h137l819 -1265v1265h121v-1462h-135l-821 1270v-1270h-121v1462zM373 1602q0 100 51 157q50 57 124 57t114 -18t74 -41q32 -23 64 -41t82 -18q89 0 91 117h98q0 -103 -51 -159q-50 -56 -124 -56t-114 18t-74 40q-32 22 -65 40t-82 18q-88 0 -90 -114h-98z" />
    <glyph glyph-name="Ograve" unicode="&#xd2;" horiz-adv-x="1548" 
d="M774 74q255 0 392 179t137 477q0 297 -139 477t-392 181q-254 1 -390 -179t-136 -479q0 -300 136 -478q137 -178 392 -178zM777 -37q-299 0 -480 199q-182 199 -182 565t185 569t478 203q294 0 474 -199t182 -563q0 -190 -50 -335q-97 -284 -344 -388q-121 -50 -263 -51z
M524 1849h162l227 -264h-129z" />
    <glyph glyph-name="Oacute" unicode="&#xd3;" horiz-adv-x="1548" 
d="M774 74q255 0 392 179t137 477q0 297 -139 477t-392 181q-254 1 -390 -179t-136 -479q0 -300 136 -478q137 -178 392 -178zM777 -37q-299 0 -480 199q-182 199 -182 565t185 569t478 203q294 0 474 -199t182 -563q0 -190 -50 -335q-97 -284 -344 -388q-121 -50 -263 -51z
M862 1849h162l-260 -264h-129z" />
    <glyph glyph-name="Ocircumflex" unicode="&#xd4;" horiz-adv-x="1548" 
d="M774 74q255 0 392 179t137 477q0 297 -139 477t-392 181q-254 1 -390 -179t-136 -479q0 -300 136 -478q137 -178 392 -178zM777 -37q-299 0 -480 199q-182 199 -182 565t185 569t478 203q294 0 474 -199t182 -563q0 -190 -50 -335q-97 -284 -344 -388q-121 -50 -263 -51z
M717 1849h117l229 -264h-125l-164 170l-164 -170h-125z" />
    <glyph glyph-name="Otilde" unicode="&#xd5;" horiz-adv-x="1548" 
d="M774 74q255 0 392 179t137 477q0 297 -139 477t-392 181q-254 1 -390 -179t-136 -479q0 -300 136 -478q137 -178 392 -178zM777 -37q-299 0 -480 199q-182 199 -182 565t185 569t478 203q294 0 474 -199t182 -563q0 -190 -50 -335q-97 -284 -344 -388q-121 -50 -263 -51z
M426 1602q0 100 51 157t139 57t172 -59q33 -23 65 -41t82 -18q91 0 91 117h98q0 -103 -51 -159t-125 -56t-113 18q-40 18 -73 40t-66 40q-34 18 -82 18q-88 0 -90 -114h-98z" />
    <glyph glyph-name="Odieresis" unicode="&#xd6;" horiz-adv-x="1548" 
d="M774 74q255 0 392 179t137 477q0 297 -139 477t-392 181q-254 1 -390 -179t-136 -479q0 -300 136 -478q137 -178 392 -178zM777 -37q-299 0 -480 199q-182 199 -182 565t185 569t478 203q294 0 474 -199t182 -563q0 -190 -50 -335q-97 -284 -344 -388q-121 -50 -263 -51z
M872 1806h140v-178h-140v178zM537 1806h137v-178h-137v178z" />
    <glyph glyph-name="multiply" unicode="&#xd7;" 
d="M199 354l336 334l-359 356l74 74l356 -352l357 352l73 -74l-358 -356l336 -334l-74 -78l-334 336l-336 -336z" />
    <glyph glyph-name="Oslash" unicode="&#xd8;" horiz-adv-x="1548" 
d="M776 74q253 0 390 179.5t137 479.5t-142 479l-694 -1046q127 -92 309 -92zM246 724q0 -305 143 -480l692 1046q-127 98 -283 98q-281 1 -416.5 -179t-135.5 -485zM319 139q-204 200 -204 578t184.5 580t476.5 202q213 0 371 -108l110 168l93 -62l-117 -178
q201 -205 201 -578q0 -372 -181 -575t-477 -203q-213 0 -373 107l-108 -164l-90 59z" />
    <glyph glyph-name="Ugrave" unicode="&#xd9;" horiz-adv-x="1384" 
d="M1227 573q0 -610 -533 -610q-399 0 -500 337q-36 118 -36 282v880h125v-891q0 -249 96 -373t317 -124q321 0 384 281q22 93 22 216v891h125v-889zM436 1849h162l227 -264h-129z" />
    <glyph glyph-name="Uacute" unicode="&#xda;" horiz-adv-x="1384" 
d="M1227 573q0 -610 -533 -610q-399 0 -500 337q-36 118 -36 282v880h125v-891q0 -249 96 -373t317 -124q321 0 384 281q22 93 22 216v891h125v-889zM788 1849h162l-260 -264h-129z" />
    <glyph glyph-name="Ucircumflex" unicode="&#xdb;" horiz-adv-x="1384" 
d="M1227 573q0 -610 -533 -610q-399 0 -500 337q-36 118 -36 282v880h125v-891q0 -249 96 -373t317 -124q321 0 384 281q22 93 22 216v891h125v-889zM635 1849h117l229 -264h-125l-164 170l-164 -170h-125z" />
    <glyph glyph-name="Udieresis" unicode="&#xdc;" horiz-adv-x="1384" 
d="M1227 573q0 -610 -533 -610q-399 0 -500 337q-36 118 -36 282v880h125v-891q0 -249 96 -373t317 -124q321 0 384 281q22 93 22 216v891h125v-889zM791 1806h139v-178h-139v178zM455 1806h137v-178h-137v178z" />
    <glyph glyph-name="Yacute" unicode="&#xdd;" horiz-adv-x="1204" 
d="M668 0h-125v633l-512 829h147l428 -723l436 723h132l-506 -829v-633zM696 1849h162l-260 -264h-129z" />
    <glyph glyph-name="Thorn" unicode="&#xde;" horiz-adv-x="1267" 
d="M637 416q334 0 367.5 128t33.5 208q0 166 -87 241.5t-316 75.5h-344v-653h346zM168 1462h123v-284h348q427 0 476.5 -168t49.5 -257q0 -202 -118 -324t-412 -122h-344v-307h-123v1462z" />
    <glyph glyph-name="germandbls" unicode="&#xdf;" horiz-adv-x="1148" 
d="M625 78q178 0 248.5 85t70.5 243t-103 241.5t-280 83.5h-121v105h95q141 0 213.5 75.5t72.5 218.5q0 174 -97 212t-169 38q-141 0 -215 -76.5t-74 -220.5v-1083h-119v1075q0 186 106.5 295t299.5 109t291 -93.5t98 -250.5q0 -250 -205 -332q133 -23 232.5 -127.5
t99.5 -274.5q0 -298 -160.5 -362t-285.5 -64t-220 37l25 101q101 -35 197 -35z" />
    <glyph glyph-name="agrave" unicode="&#xe0;" horiz-adv-x="1075" 
d="M813 406v155l-195 -8q-332 -11 -398 -149q-22 -46 -22 -126t55 -138q54 -58 205 -58t228 65q71 52 99 107q28 54 28 152zM74 293q0 196 165 280q124 64 367 74l205 8v33q0 156 -60 228t-216 71q-205 0 -271 -103q-20 -32 -31 -71l-108 16q57 258 414 258q312 0 374 -226
q20 -73 21 -167v-694h-119v150q-140 -172 -375 -175q-166 0 -266 80t-100 238zM307 1483h160l227 -275h-127z" />
    <glyph glyph-name="aacute" unicode="&#xe1;" horiz-adv-x="1075" 
d="M813 406v155l-195 -8q-332 -11 -398 -149q-22 -46 -22 -126t55 -138q54 -58 205 -58t228 65q71 52 99 107q28 54 28 152zM74 293q0 196 165 280q124 64 367 74l205 8v33q0 156 -60 228t-216 71q-205 0 -271 -103q-20 -32 -31 -71l-108 16q57 258 414 258q312 0 374 -226
q20 -73 21 -167v-694h-119v150q-140 -172 -375 -175q-166 0 -266 80t-100 238zM635 1483h160l-260 -275h-127z" />
    <glyph glyph-name="acircumflex" unicode="&#xe2;" horiz-adv-x="1075" 
d="M813 406v155l-195 -8q-332 -11 -398 -149q-22 -46 -22 -126t55 -138q54 -58 205 -58t228 65q71 52 99 107q28 54 28 152zM74 293q0 196 165 280q124 64 367 74l205 8v33q0 156 -60 228t-216 71q-205 0 -271 -103q-20 -32 -31 -71l-108 16q57 258 414 258q312 0 374 -226
q20 -73 21 -167v-694h-119v150q-140 -172 -375 -175q-166 0 -266 80t-100 238zM483 1483h117l229 -275h-120l-168 185l-168 -185h-121z" />
    <glyph glyph-name="atilde" unicode="&#xe3;" horiz-adv-x="1075" 
d="M813 406v155l-195 -8q-332 -11 -398 -149q-22 -46 -22 -126t55 -138q54 -58 205 -58t228 65q71 52 99 107q28 54 28 152zM74 293q0 196 165 280q124 64 367 74l205 8v33q0 156 -60 228t-216 71q-205 0 -271 -103q-20 -32 -31 -71l-108 16q57 258 414 258q312 0 374 -226
q20 -73 21 -167v-694h-119v150q-140 -172 -375 -175q-166 0 -266 80t-100 238zM188 1241q0 101 52 157t122 56q72 0 111 -18t72 -40t65 -40t79 -18q87 -1 87 112h98q0 -100 -51 -156t-123 -57q-72 0 -110 18q-39 18 -72 40q-32 22 -64 40q-32 19 -80 19t-68 -34t-19 -79h-99
z" />
    <glyph glyph-name="adieresis" unicode="&#xe4;" horiz-adv-x="1075" 
d="M813 406v155l-195 -8q-332 -11 -398 -149q-22 -46 -22 -126t55 -138q54 -58 205 -58t228 65q71 52 99 107q28 54 28 152zM74 293q0 196 165 280q124 64 367 74l205 8v33q0 156 -60 228t-216 71q-205 0 -271 -103q-20 -32 -31 -71l-108 16q57 258 414 258q312 0 374 -226
q20 -73 21 -167v-694h-119v150q-140 -172 -375 -175q-166 0 -266 80t-100 238zM629 1442h135v-174h-135v174zM301 1442h133v-174h-133v174z" />
    <glyph glyph-name="aring" unicode="&#xe5;" horiz-adv-x="1075" 
d="M813 406v155l-195 -8q-332 -11 -398 -149q-22 -46 -22 -126t55 -138q54 -58 205 -58t228 65q71 52 99 107q28 54 28 152zM74 293q0 196 165 280q124 64 367 74l205 8v33q0 156 -60 228t-216 71q-205 0 -271 -103q-20 -32 -31 -71l-108 16q57 258 414 258q312 0 374 -226
q20 -73 21 -167v-694h-119v150q-140 -172 -375 -175q-166 0 -266 80t-100 238zM535 1286q47 0 75 28t27 85q0 57 -28 85q-29 28 -75 28t-74 -28t-28 -85t28 -85t75 -28zM342 1399q0 96 57 145t136 49q129 0 178 -110q16 -37 16 -85t-16 -84q-46 -104 -178 -108
q-78 0 -136 48q-57 49 -57 145z" />
    <glyph glyph-name="ae" unicode="&#xe6;" horiz-adv-x="1822" 
d="M1595 600q0 281 -118.5 336t-204.5 55q-150 0 -240 -96t-110 -295h673zM199 278q0 -80 55 -138t198 -58t226 65q75 54 99 110t24 149v155l-195 -8q-225 -8 -295.5 -55t-91 -93.5t-20.5 -126.5zM891 885q133 202 372 202t347 -140.5t108 -373.5v-75h-798q0 -190 93.5 -311
t258.5 -121q208 0 254.5 81.5t58.5 128.5h115q-25 -137 -130.5 -223t-313.5 -86t-288.5 98.5t-103.5 147.5q-86 -159 -209 -198.5t-209 -39.5q-171 0 -271.5 82t-100.5 236q0 195 140.5 269.5t379.5 84.5l205 8v33q0 159 -58.5 229t-208.5 70q-149 0 -213.5 -48t-85.5 -126
l-108 16q57 258 407 258q158 0 241 -52t118 -150z" />
    <glyph glyph-name="ccedilla" unicode="&#xe7;" horiz-adv-x="1134" 
d="M514 -324q119 0 119 76q0 39 -35 55.5t-127 16.5h-25l52 151q-186 29 -286.5 172.5t-100.5 387.5t132 398t361 154q174 0 277.5 -89t136.5 -250l-115 -29q-56 266 -303 266q-178 0 -270 -122.5t-92 -391t132 -335t228 -66.5q154 0 224.5 74.5t95.5 199.5h118
q-31 -178 -141.5 -277.5t-300.5 -99.5h-4l-25 -67q106 -12 144.5 -55.5t38.5 -100.5q0 -92 -68 -126t-151 -34t-140 8v93q69 -9 125 -9z" />
    <glyph glyph-name="egrave" unicode="&#xe8;" horiz-adv-x="1146" 
d="M920 600q0 282 -179 363q-63 29 -151 28q-154 0 -246 -96t-111 -295h687zM575 -33q-212 1 -338 147t-126 410t134 415q134 150 356 149t333 -142q110 -141 108 -373v-75h-811q0 -188 95 -311t264 -121q270 0 319 210h115q-25 -137 -131 -223t-318 -86zM342 1483h160
l227 -275h-127z" />
    <glyph glyph-name="eacute" unicode="&#xe9;" horiz-adv-x="1146" 
d="M920 600q0 282 -179 363q-63 29 -151 28q-154 0 -246 -96t-111 -295h687zM575 -33q-212 1 -338 147t-126 410t134 415q134 150 356 149t333 -142q110 -141 108 -373v-75h-811q0 -188 95 -311t264 -121q270 0 319 210h115q-25 -137 -131 -223t-318 -86zM688 1483h160
l-260 -275h-127z" />
    <glyph glyph-name="ecircumflex" unicode="&#xea;" horiz-adv-x="1146" 
d="M920 600q0 282 -179 363q-63 29 -151 28q-154 0 -246 -96t-111 -295h687zM575 -33q-212 1 -338 147t-126 410t134 415q134 150 356 149t333 -142q110 -141 108 -373v-75h-811q0 -188 95 -311t264 -121q270 0 319 210h115q-25 -137 -131 -223t-318 -86zM524 1483h117
l229 -275h-120l-168 185l-168 -185h-121z" />
    <glyph glyph-name="edieresis" unicode="&#xeb;" horiz-adv-x="1146" 
d="M920 600q0 282 -179 363q-63 29 -151 28q-154 0 -246 -96t-111 -295h687zM575 -33q-212 1 -338 147t-126 410t134 415q134 150 356 149t333 -142q110 -141 108 -373v-75h-811q0 -188 95 -311t264 -121q270 0 319 210h115q-25 -137 -131 -223t-318 -86zM678 1442h135v-174
h-135v174zM350 1442h133v-174h-133v174z" />
    <glyph glyph-name="igrave" unicode="&#xec;" horiz-adv-x="417" 
d="M150 1055h118v-1055h-118v1055zM-96 1483h159l228 -275h-127z" />
    <glyph glyph-name="iacute" unicode="&#xed;" horiz-adv-x="417" 
d="M150 1055h118v-1055h-118v1055zM362 1483h160l-260 -275h-127z" />
    <glyph glyph-name="icircumflex" unicode="&#xee;" horiz-adv-x="417" 
d="M150 1055h118v-1055h-118v1055zM154 1483h116l230 -275h-121l-168 185l-168 -185h-121z" />
    <glyph glyph-name="idieresis" unicode="&#xef;" horiz-adv-x="417" 
d="M150 1055h118v-1055h-118v1055zM307 1442h135v-174h-135v174zM-20 1442h133v-174h-133v174z" />
    <glyph glyph-name="eth" unicode="&#xf0;" horiz-adv-x="1214" 
d="M977 528q0 152 -80 248q-102 127 -290 127t-278.5 -120.5t-90.5 -295t90.5 -295t278.5 -120.5t279 118.5t91 298.5v39zM1104 557q0 -274 -134.5 -432t-365 -158t-362 144t-131.5 370q0 225 136.5 375t352.5 150q119 0 194.5 -34t145.5 -100q-60 292 -301 418l-162 -160
l-69 70l131 131q-117 41 -269 51l21 101q191 -17 327 -72l136 133l69 -71l-110 -109q391 -224 391 -807z" />
    <glyph glyph-name="ntilde" unicode="&#xf1;" horiz-adv-x="1142" 
d="M653 1087q353 0 353 -385v-702h-119v670q1 166 -59 238t-189 73q-145 1 -257 -99q-58 -52 -89 -108t-31 -156v-618h-119v1055h119v-172q161 204 391 204zM248 1241q0 101 51 157t123 56t110 -18q39 -18 72 -40t65 -40q31 -18 79 -18q85 -1 88 112h98q0 -100 -51 -156
t-123 -57q-72 0 -111 18t-71 40t-65 40q-32 19 -80 19q-84 1 -87 -113h-98z" />
    <glyph glyph-name="ograve" unicode="&#xf2;" horiz-adv-x="1214" 
d="M973 937q131 -152 131 -405t-134 -410q-134 -155 -368 -155q-117 0 -208 39q-178 76 -250 287q-34 102 -34 230q0 129 36 233q72 211 257 292q92 40 207 40q232 -2 363 -151zM607 985q-190 0 -284 -133q-85 -118 -85 -326t85 -323q96 -133 284 -133t284 133
q84 114 86 327q0 316 -201 419q-70 36 -169 36zM365 1483h159l228 -275h-127z" />
    <glyph glyph-name="oacute" unicode="&#xf3;" horiz-adv-x="1214" 
d="M973 937q131 -152 131 -405t-134 -410q-134 -155 -368 -155q-117 0 -208 39q-178 76 -250 287q-34 102 -34 230q0 129 36 233q72 211 257 292q92 40 207 40q232 -2 363 -151zM607 985q-190 0 -284 -133q-85 -118 -85 -326t85 -323q96 -133 284 -133t284 133
q84 114 86 327q0 316 -201 419q-70 36 -169 36zM723 1483h160l-260 -275h-127z" />
    <glyph glyph-name="ocircumflex" unicode="&#xf4;" horiz-adv-x="1214" 
d="M973 937q131 -152 131 -405t-134 -410q-134 -155 -368 -155q-117 0 -208 39q-178 76 -250 287q-34 102 -34 230q0 129 36 233q72 211 257 292q92 40 207 40q232 -2 363 -151zM607 985q-190 0 -284 -133q-85 -118 -85 -326t85 -323q96 -133 284 -133t284 133
q84 114 86 327q0 316 -201 419q-70 36 -169 36zM549 1483h117l229 -275h-121l-168 185l-168 -185h-121z" />
    <glyph glyph-name="otilde" unicode="&#xf5;" horiz-adv-x="1214" 
d="M973 937q131 -152 131 -405t-134 -410q-134 -155 -368 -155q-117 0 -208 39q-178 76 -250 287q-34 102 -34 230q0 129 36 233q72 211 257 292q92 40 207 40q232 -2 363 -151zM607 985q-190 0 -284 -133q-85 -118 -85 -326t85 -323q96 -133 284 -133t284 133
q84 114 86 327q0 316 -201 419q-70 36 -169 36zM264 1241q0 101 51 157t123 56t111 -18t72 -40t65 -40t79 -18q87 -1 87 112h98q0 -100 -51 -156t-123 -57q-72 0 -110 18q-39 18 -72 40t-65 40q-31 19 -79 19q-85 1 -88 -113h-98z" />
    <glyph glyph-name="odieresis" unicode="&#xf6;" horiz-adv-x="1214" 
d="M973 937q131 -152 131 -405t-134 -410q-134 -155 -368 -155q-117 0 -208 39q-178 76 -250 287q-34 102 -34 230q0 129 36 233q72 211 257 292q92 40 207 40q232 -2 363 -151zM607 985q-190 0 -284 -133q-85 -118 -85 -326t85 -323q96 -133 284 -133t284 133
q84 114 86 327q0 316 -201 419q-70 36 -169 36zM702 1442h136v-174h-136v174zM375 1442h133v-174h-133v174z" />
    <glyph glyph-name="divide" unicode="&#xf7;" 
d="M166 754h881v-113h-881v113zM532 412h146v-176h-146v176zM532 1157h146v-176h-146v176z" />
    <glyph glyph-name="oslash" unicode="&#xf8;" horiz-adv-x="1214" 
d="M596 70q199 0 290 125t91 334t-86 325l-488 -731q83 -53 193 -53zM620 985q-202 0 -292 -125.5t-90 -336.5t90 -328l489 731q-85 59 -197 59zM956 952q148 -148 148 -411t-134 -418.5t-368 -155.5q-152 0 -260 66l-90 -137l-84 57l94 141q-152 147 -152 416t135 423
t365 154q154 0 267 -71l90 135l84 -57z" />
    <glyph glyph-name="ugrave" unicode="&#xf9;" horiz-adv-x="1120" 
d="M139 1055h119v-670q0 -166 52 -239q52 -72 182 -72t245 98q59 54 90 110t31 154v619h119v-1055h-119v172q-166 -205 -383 -205q-180 1 -258 99t-78 286v703zM287 1483h159l228 -275h-127z" />
    <glyph glyph-name="uacute" unicode="&#xfa;" horiz-adv-x="1120" 
d="M139 1055h119v-670q0 -166 52 -239q52 -72 182 -72t245 98q59 54 90 110t31 154v619h119v-1055h-119v172q-166 -205 -383 -205q-180 1 -258 99t-78 286v703zM678 1483h160l-260 -275h-127z" />
    <glyph glyph-name="ucircumflex" unicode="&#xfb;" horiz-adv-x="1120" 
d="M139 1055h119v-670q0 -166 52 -239q52 -72 182 -72t245 98q59 54 90 110t31 154v619h119v-1055h-119v172q-166 -205 -383 -205q-180 1 -258 99t-78 286v703zM506 1483h117l229 -275h-121l-168 185l-168 -185h-121z" />
    <glyph glyph-name="udieresis" unicode="&#xfc;" horiz-adv-x="1120" 
d="M139 1055h119v-670q0 -166 52 -239q52 -72 182 -72t245 98q59 54 90 110t31 154v619h119v-1055h-119v172q-166 -205 -383 -205q-180 1 -258 99t-78 286v703zM655 1442h136v-174h-136v174zM328 1442h133v-174h-133v174z" />
    <glyph glyph-name="yacute" unicode="&#xfd;" horiz-adv-x="1019" 
d="M223 -291q45 0 70 8q44 14 83 85q17 34 40 87l49 125l-453 1041h138l382 -903l342 903h134l-480 -1194q-58 -136 -98 -180q-72 -78 -170 -78t-168 24l29 105q57 -23 102 -23zM606 1483h160l-260 -275h-127z" />
    <glyph glyph-name="thorn" unicode="&#xfe;" horiz-adv-x="1193" 
d="M258 485q0 -141 24.5 -198.5t51 -89t69.5 -63.5q85 -64 183 -64q182 0 276 112t94 352q0 239 -96 345t-228 106t-213 -60t-121 -141.5t-40 -205.5v-93zM262 -397h-119v1859h119v-565q72 90 158 140t206 50q226 0 341.5 -151.5t115.5 -406.5t-127.5 -408.5t-343.5 -153.5
q-217 0 -350 176v-540z" />
    <glyph glyph-name="ydieresis" unicode="&#xff;" horiz-adv-x="1019" 
d="M223 -291q45 0 70 8q44 14 83 85q17 34 40 87l49 125l-453 1041h138l382 -903l342 903h134l-480 -1194q-58 -136 -98 -180q-72 -78 -170 -78t-168 24l29 105q57 -23 102 -23zM608 1442h135v-174h-135v174zM281 1442h133v-174h-133v174z" />
    <glyph glyph-name="Amacron" unicode="&#x100;" horiz-adv-x="1353" 
d="M973 561l-301 764l-297 -764h598zM604 1462h148l577 -1462h-135l-176 446h-688l-174 -446h-131zM387 1743h578v-109h-578v109z" />
    <glyph glyph-name="amacron" unicode="&#x101;" horiz-adv-x="1075" 
d="M813 406v155l-195 -8q-332 -11 -398 -149q-22 -46 -22 -126t55 -138q54 -58 205 -58t228 65q71 52 99 107q28 54 28 152zM74 293q0 196 165 280q124 64 367 74l205 8v33q0 156 -60 228t-216 71q-205 0 -271 -103q-20 -32 -31 -71l-108 16q57 258 414 258q312 0 374 -226
q20 -73 21 -167v-694h-119v150q-140 -172 -375 -175q-166 0 -266 80t-100 238zM276 1389h500v-105h-500v105z" />
    <glyph glyph-name="Abreve" unicode="&#x102;" horiz-adv-x="1353" 
d="M973 561l-301 764l-297 -764h598zM604 1462h148l577 -1462h-135l-176 446h-688l-174 -446h-131zM518 1849q0 -86 44 -130t113 -44t113 44t46 130h100q0 -127 -68 -195t-190 -69q-122 0 -191 69q-68 69 -67 195h100z" />
    <glyph glyph-name="abreve" unicode="&#x103;" horiz-adv-x="1075" 
d="M813 406v155l-195 -8q-332 -11 -398 -149q-22 -46 -22 -126t55 -138q54 -58 205 -58t228 65q71 52 99 107q28 54 28 152zM74 293q0 196 165 280q124 64 367 74l205 8v33q0 156 -60 228t-216 71q-205 0 -271 -103q-20 -32 -31 -71l-108 16q57 258 414 258q312 0 374 -226
q20 -73 21 -167v-694h-119v150q-140 -172 -375 -175q-166 0 -266 80t-100 238zM375 1475q0 -89 45 -135t114 -46q68 0 114 45t46 136h99q0 -127 -68 -198q-69 -71 -191 -71t-190 71t-68 198h99z" />
    <glyph glyph-name="Aogonek" unicode="&#x104;" horiz-adv-x="1353" 
d="M973 561l-301 764l-297 -764h598zM1284 -362q-205 0 -205 159q0 98 125 203h-10l-176 446h-688l-174 -446h-131l579 1462h148l577 -1462q-131 -104 -131 -184q0 -47 28 -62.5t54 -15.5h22q21 0 37 2v-98q-16 -4 -19 -4h-36z" />
    <glyph glyph-name="aogonek" unicode="&#x105;" horiz-adv-x="1075" 
d="M199 295q0 -213 243 -213q162 0 244 65q72 52 99.5 105.5t27.5 153.5v155l-195 -8q-334 -11 -376.5 -103t-42.5 -155zM807 -180q1 -76 81 -76h21q21 0 37 2v-94q-16 -4 -20 -4h-35q-201 0 -201 153q0 106 125 199v150q-143 -175 -375 -175q-166 0 -266 80t-100 238
q0 195 144 269.5t388 84.5l205 8v33q0 156 -60.5 227.5t-215.5 71.5q-203 0 -247 -67.5t-55 -106.5l-108 16q57 258 414 258q311 0 353 -149.5t42 -243.5v-694h-2q-125 -98 -125 -180z" />
    <glyph glyph-name="Cacute" unicode="&#x106;" horiz-adv-x="1452" 
d="M754 1499q369 0 499 -280q41 -86 66 -187l-119 -26q-50 195 -151 290t-295 95q-235 1 -372 -183q-138 -184 -138 -476t134 -475t380 -183q319 0 414 238q30 73 45 157h122q-29 -229 -177 -368q-148 -138 -423 -138t-449 200t-175 563q0 363 183 568t456 205zM840 1849
h161l-260 -264h-129z" />
    <glyph glyph-name="cacute" unicode="&#x107;" horiz-adv-x="1134" 
d="M600 985q-181 0 -276 -130q-86 -115 -86 -327q0 -321 195 -424q69 -35 165 -34q154 0 224 74t96 200h118q-32 -178 -142 -277t-300 -100q-343 0 -451 324q-33 102 -32 231q0 258 132 413q132 154 361 152q174 0 278 -89t136 -250l-115 -29q-56 266 -303 266zM694 1483
h160l-260 -275h-127z" />
    <glyph glyph-name="Ccircumflex" unicode="&#x108;" horiz-adv-x="1452" 
d="M754 1499q369 0 499 -280q41 -86 66 -187l-119 -26q-50 195 -151 290t-295 95q-235 1 -372 -183q-138 -184 -138 -476t134 -475t380 -183q319 0 414 238q30 73 45 157h122q-29 -229 -177 -368q-148 -138 -423 -138t-449 200t-175 563q0 363 183 568t456 205zM705 1849
h116l230 -264h-125l-164 170l-164 -170h-125z" />
    <glyph glyph-name="ccircumflex" unicode="&#x109;" horiz-adv-x="1134" 
d="M600 985q-181 0 -276 -130q-86 -115 -86 -327q0 -321 195 -424q69 -35 165 -34q154 0 224 74t96 200h118q-32 -178 -142 -277t-300 -100q-343 0 -451 324q-33 102 -32 231q0 258 132 413q132 154 361 152q174 0 278 -89t136 -250l-115 -29q-56 266 -303 266zM545 1483
h117l229 -275h-121l-168 185l-168 -185h-121z" />
    <glyph glyph-name="Cdotaccent" unicode="&#x10a;" horiz-adv-x="1452" 
d="M754 1499q369 0 499 -280q41 -86 66 -187l-119 -26q-50 195 -151 290t-295 95q-235 1 -372 -183q-138 -184 -138 -476t134 -475t380 -183q319 0 414 238q30 73 45 157h122q-29 -229 -177 -368q-148 -138 -423 -138t-449 200t-175 563q0 363 183 568t456 205zM692 1808
h139v-182h-139v182z" />
    <glyph glyph-name="cdotaccent" unicode="&#x10b;" horiz-adv-x="1134" 
d="M600 985q-181 0 -276 -130q-86 -115 -86 -327q0 -321 195 -424q69 -35 165 -34q154 0 224 74t96 200h118q-32 -178 -142 -277t-300 -100q-343 0 -451 324q-33 102 -32 231q0 258 132 413q132 154 361 152q174 0 278 -89t136 -250l-115 -29q-56 266 -303 266zM535 1444
h135v-178h-135v178z" />
    <glyph glyph-name="Ccaron" unicode="&#x10c;" horiz-adv-x="1452" 
d="M754 1499q369 0 499 -280q41 -86 66 -187l-119 -26q-50 195 -151 290t-295 95q-235 1 -372 -183q-138 -184 -138 -476t134 -475t380 -183q319 0 414 238q30 73 45 157h122q-29 -229 -177 -368q-148 -138 -423 -138t-449 200t-175 563q0 363 183 568t456 205zM473 1855
h127l164 -172l164 172h123l-230 -264h-116z" />
    <glyph glyph-name="ccaron" unicode="&#x10d;" horiz-adv-x="1134" 
d="M600 985q-181 0 -276 -130q-86 -115 -86 -327q0 -321 195 -424q69 -35 165 -34q154 0 224 74t96 200h118q-32 -178 -142 -277t-300 -100q-343 0 -451 324q-33 102 -32 231q0 258 132 413q132 154 361 152q174 0 278 -89t136 -250l-115 -29q-56 266 -303 266zM657 1212
h-116l-230 275h121l168 -184l168 184h121z" />
    <glyph glyph-name="Dcaron" unicode="&#x10e;" horiz-adv-x="1437" 
d="M662 1354h-369v-1243h332q567 -1 567 621t-530 622zM168 1462h494q478 0 615 -401q46 -135 46 -321q0 -364 -187 -552t-520 -188h-448v1462zM326 1855h127l163 -172l164 172h123l-229 -264h-117z" />
    <glyph glyph-name="dcaron" unicode="&#x10f;" horiz-adv-x="1189" 
d="M934 569q0 202 -76 286t-143 107q-69 23 -137 23q-239 0 -314 -250q-26 -88 -26 -216t30 -215q56 -166 182 -213q108 -41 231 -7q51 14 113 60q140 103 140 333v92zM928 158q-148 -191 -363 -191q-226 0 -341 159t-113 390q0 270 126 421t342 151t349 -177v551h119v-1462
h-119v158zM1231 1462h125l-78 -372h-98z" />
    <glyph glyph-name="Dcroat" unicode="&#x110;" horiz-adv-x="1458" 
d="M682 1354h-369v-543h408v-111h-408v-589h332q567 -1 567 621t-530 622zM188 700h-168v111h168v651h494q478 0 615 -401q46 -135 46 -321q0 -364 -187 -552t-519 -188h-449v700z" />
    <glyph glyph-name="dcroat" unicode="&#x111;" 
d="M934 528q0 139 -24.5 197.5t-53 89.5t-70.5 63q-90 66 -183 66q-177 0 -271 -111.5t-94 -332.5t96.5 -325.5t227.5 -104.5t212 60q82 60 121 138t39 189v71zM928 158q-148 -191 -363 -191q-224 0 -339 154.5t-115 389.5t127 385.5t341 150.5q215 0 349 -177v332h-359v103
h359v157h119v-157h145v-103h-145v-1202h-119v158z" />
    <glyph glyph-name="Emacron" unicode="&#x112;" horiz-adv-x="1204" 
d="M168 1462h919v-112h-794v-537h754v-117h-754v-581h829l-28 -115h-926v1462zM344 1743h578v-109h-578v109z" />
    <glyph glyph-name="emacron" unicode="&#x113;" horiz-adv-x="1146" 
d="M920 600q0 282 -179 363q-63 29 -151 28q-154 0 -246 -96t-111 -295h687zM575 -33q-212 1 -338 147t-126 410t134 415q134 150 356 149t333 -142q110 -141 108 -373v-75h-811q0 -188 95 -311t264 -121q270 0 319 210h115q-25 -137 -131 -223t-318 -86zM342 1389h500v-105
h-500v105z" />
    <glyph glyph-name="Ebreve" unicode="&#x114;" horiz-adv-x="1204" 
d="M168 1462h919v-112h-794v-537h754v-117h-754v-581h829l-28 -115h-926v1462zM475 1849q0 -86 44 -130t113 -44q70 0 114 44t45 130h100q0 -127 -68 -195q-69 -68 -191 -69q-122 0 -190 69t-67 195h100z" />
    <glyph glyph-name="ebreve" unicode="&#x115;" horiz-adv-x="1146" 
d="M920 600q0 282 -179 363q-63 29 -151 28q-154 0 -246 -96t-111 -295h687zM575 -33q-212 1 -338 147t-126 410t134 415q134 150 356 149t333 -142q110 -141 108 -373v-75h-811q0 -188 95 -311t264 -121q270 0 319 210h115q-25 -137 -131 -223t-318 -86zM430 1475
q0 -89 45 -135t114 -46t115 45t46 136h98q0 -127 -68 -198t-190 -71t-191 71q-68 71 -67 198h98z" />
    <glyph glyph-name="Edotaccent" unicode="&#x116;" horiz-adv-x="1204" 
d="M168 1462h919v-112h-794v-537h754v-117h-754v-581h829l-28 -115h-926v1462zM563 1808h139v-182h-139v182z" />
    <glyph glyph-name="edotaccent" unicode="&#x117;" horiz-adv-x="1146" 
d="M920 600q0 282 -179 363q-63 29 -151 28q-154 0 -246 -96t-111 -295h687zM575 -33q-212 1 -338 147t-126 410t134 415q134 150 356 149t333 -142q110 -141 108 -373v-75h-811q0 -188 95 -311t264 -121q270 0 319 210h115q-25 -137 -131 -223t-318 -86zM524 1444h135v-178
h-135v178z" />
    <glyph glyph-name="Eogonek" unicode="&#x118;" horiz-adv-x="1204" 
d="M1049 -362q-205 0 -205 159q0 98 125 203h-801v1462h919v-112h-794v-537h754v-117h-754v-581h829l-28 -115q-131 -104 -131 -184q0 -47 27.5 -62.5t53.5 -15.5h22q21 0 38 2v-98q-16 -4 -20 -4h-35z" />
    <glyph glyph-name="eogonek" unicode="&#x119;" horiz-adv-x="1146" 
d="M920 600q0 282 -121 336.5t-209 54.5q-154 0 -246 -96t-111 -295h687zM666 -180q0 -76 80 -76h21q21 0 38 2v-94q-16 -4 -19 -4h-36q-201 0 -201 153q0 84 86 168q-10 -2 -13 -2h-32q-227 0 -353 146.5t-126 410.5t132.5 413.5t355.5 149.5q224 0 333.5 -140t109.5 -374
v-75h-811q0 -190 94 -311t265 -121q214 0 260.5 81.5t58.5 128.5h115q-38 -209 -236 -276q-123 -98 -122 -180z" />
    <glyph glyph-name="Ecaron" unicode="&#x11a;" horiz-adv-x="1204" 
d="M168 1462h919v-112h-794v-537h754v-117h-754v-581h829l-28 -115h-926v1462zM344 1855h127l164 -172l164 172h123l-230 -264h-117z" />
    <glyph glyph-name="ecaron" unicode="&#x11b;" horiz-adv-x="1146" 
d="M920 600q0 282 -179 363q-63 29 -151 28q-154 0 -246 -96t-111 -295h687zM575 -33q-212 1 -338 147t-126 410t134 415q134 150 356 149t333 -142q110 -141 108 -373v-75h-811q0 -188 95 -311t264 -121q270 0 319 210h115q-25 -137 -131 -223t-318 -86zM649 1212h-117
l-229 275h121l168 -184l168 184h121z" />
    <glyph glyph-name="Gcircumflex" unicode="&#x11c;" horiz-adv-x="1456" 
d="M1210 610h-417v113h536v-565q-98 -95 -246 -145q-147 -50 -301 -50q-312 0 -490 199q-177 199 -177 564t182 569t467 204q431 0 534 -399l-116 -27q-42 148 -133 229q-104 89 -285 89q-247 0 -383 -182q-137 -182 -137 -481q0 -298 138 -476t400 -178t428 129v407z
M707 1849h116l230 -264h-125l-164 170l-164 -170h-125z" />
    <glyph glyph-name="gcircumflex" unicode="&#x11d;" horiz-adv-x="1187" 
d="M930 569q0 145 -31 216t-95 119t-112 64t-116 17q-240 0 -316 -239q-27 -82 -27 -200q0 -216 99 -322t235 -103q68 0 115 14q48 14 110 59q138 100 138 336v39zM926 1055h118v-1016q0 -213 -110 -336t-344 -123q-405 0 -445 305h113q22 -104 98 -154t241 -50t247 85
t82 285v158q-137 -191 -364 -192t-341 153q-115 154 -115 388q0 233 128 382t344 148t348 -177v144zM547 1483h117l229 -275h-121l-168 185l-168 -185h-121z" />
    <glyph glyph-name="Gbreve" unicode="&#x11e;" horiz-adv-x="1456" 
d="M1210 610h-417v113h536v-565q-98 -95 -246 -145q-147 -50 -301 -50q-312 0 -490 199q-177 199 -177 564t182 569t467 204q431 0 534 -399l-116 -27q-42 148 -133 229q-104 89 -285 89q-247 0 -383 -182q-137 -182 -137 -481q0 -298 138 -476t400 -178t428 129v407z
M606 1849q0 -86 44 -130t113 -44t114 44t45 130h100q0 -127 -68 -195t-190 -69q-122 0 -191 69q-68 69 -67 195h100z" />
    <glyph glyph-name="gbreve" unicode="&#x11f;" horiz-adv-x="1187" 
d="M930 569q0 145 -31 216t-95 119t-112 64t-116 17q-240 0 -316 -239q-27 -82 -27 -200q0 -216 99 -322t235 -103q68 0 115 14q48 14 110 59q138 100 138 336v39zM926 1055h118v-1016q0 -213 -110 -336t-344 -123q-405 0 -445 305h113q22 -104 98 -154t241 -50t247 85
t82 285v158q-137 -191 -364 -192t-341 153q-115 154 -115 388q0 233 128 382t344 148t348 -177v144zM444 1475q0 -89 45 -135t114 -46t115 45t46 136h98q0 -127 -68 -198t-190 -71t-190 71t-68 198h98z" />
    <glyph glyph-name="Gdotaccent" unicode="&#x120;" horiz-adv-x="1456" 
d="M1210 610h-417v113h536v-565q-98 -95 -246 -145q-147 -50 -301 -50q-312 0 -490 199q-177 199 -177 564t182 569t467 204q431 0 534 -399l-116 -27q-42 148 -133 229q-104 89 -285 89q-247 0 -383 -182q-137 -182 -137 -481q0 -298 138 -476t400 -178t428 129v407z
M694 1808h140v-182h-140v182z" />
    <glyph glyph-name="gdotaccent" unicode="&#x121;" horiz-adv-x="1187" 
d="M930 569q0 145 -31 216t-95 119t-112 64t-116 17q-240 0 -316 -239q-27 -82 -27 -200q0 -216 99 -322t235 -103q68 0 115 14q48 14 110 59q138 100 138 336v39zM926 1055h118v-1016q0 -213 -110 -336t-344 -123q-405 0 -445 305h113q22 -104 98 -154t241 -50t247 85
t82 285v158q-137 -191 -364 -192t-341 153q-115 154 -115 388q0 233 128 382t344 148t348 -177v144zM532 1444h136v-178h-136v178z" />
    <glyph glyph-name="Gcommaaccent" unicode="&#x122;" horiz-adv-x="1456" 
d="M1210 610h-417v113h536v-565q-98 -95 -246 -145q-147 -50 -301 -50q-312 0 -490 199q-177 199 -177 564t182 569t467 204q431 0 534 -399l-116 -27q-42 148 -133 229q-104 89 -285 89q-247 0 -383 -182q-137 -182 -137 -481q0 -298 138 -476t400 -178t428 129v407z
M731 -139h152l-183 -295h-120z" />
    </font>
</defs>
</svg>
