<?xml version="1.0" standalone="no"?>
<!DOCTYPE svg PUBLIC "-//W3C//DTD SVG 1.1//EN" "http://www.w3.org/Graphics/SVG/1.1/DTD/svg11.dtd" >
<svg xmlns="http://www.w3.org/2000/svg">
<metadata>
Created by FontPrep 20130207 at Mon Apr  4 11:48:31 2016
 By Callum Flack
Copyright 2015 Dalton Maag Ltd. All rights reserved. This font may not be altered in any way without prior permission of Dalton Maag Ltd.
</metadata>
<defs>
<font id="8486f4c00fd09200685e60490c8adba9" horiz-adv-x='1024' >
  <font-face 
    font-family="AktivGroteskTrial-Regular"
    font-weight="400"
    font-stretch="normal"
    units-per-em="2048"
    panose-1="2 11 5 4 2 2 2 2 2 4"
    ascent="1462"
    descent="-586"
    x-height="1059"
    cap-height="1462"
    bbox="-449 -1702 4764 2376"
    underline-thickness="139"
    underline-position="-133"
    unicode-range="U+0008-FFFD"
  />
<missing-glyph horiz-adv-x="1024" 
d="M819 102v1332h-614v-1332h614zM102 0v1536h820v-1536h-820z" />
    <glyph glyph-name="uniFDF2" unicode="&#x627;&#xfedf;&#xfee0;&#xfeea;" horiz-adv-x="2844" arabic-form="isolated" 
d="M1343 1726q0 -92 80 -92h27v226h80v-226h104v226h80v-301h-284q-166 0 -166 163v138h79v-134zM1538 2300v-354h-98v354h98zM528 793q-126 0 -192 -76q-66 -77 -66 -229t96 -241t275 -89h129v311q0 170 -58 247t-184 77zM942 158h463v1304h172v-1304h510v1304h172v-1462
h-1587q-274 0 -424 130t-150 350t118 340q118 118 316 118t304 -114t106 -330v-336zM2531 0v1462h172v-1462h-172z" />
    <glyph glyph-name="uniFEF5" unicode="&#xfedf;&#xfe82;" horiz-adv-x="1179" arabic-form="isolated" 
d="M61 158h246v747h172v-747h387v1304h172v-1462h-977v158zM180 1059q0 154 125 153q53 -3 100.5 -34t71.5 -33q53 0 53 63h82q0 -154 -125 -153q-41 2 -69.5 18.5t-52 31.5t-48.5 17q-53 0 -55 -63h-82z" />
    <glyph glyph-name="uniFEF6" unicode="&#xfee0;&#xfe82;" horiz-adv-x="1296" arabic-form="final" 
d="M61 0v158h246v747h172v-747h387v1304h172v-1304h289v-158h-1266zM180 1059q0 154 125 153q53 -3 100.5 -34t71.5 -33q53 0 53 63h82q0 -154 -125 -153q-41 2 -69.5 18.5t-52 31.5t-48.5 17q-53 0 -55 -63h-82z" />
    <glyph glyph-name="uniFEF7" unicode="&#xfedf;&#xfe84;" horiz-adv-x="1179" arabic-form="isolated" 
d="M61 158h246v747h172v-747h387v1304h172v-1462h-977v158zM336 1225v-109h223v-78h-356v78h47v111q0 72 40 110.5t110 38.5q135 0 155 -129l-80 -10q-11 66 -69 66q-33 0 -51.5 -20.5t-18.5 -57.5z" />
    <glyph glyph-name="uniFEF8" unicode="&#xfee0;&#xfe84;" horiz-adv-x="1296" arabic-form="final" 
d="M61 0v158h246v747h172v-747h387v1304h172v-1304h289v-158h-1266zM336 1225v-109h223v-78h-356v78h47v111q0 72 40 110.5t110 38.5q135 0 155 -129l-80 -10q-11 66 -69 66q-33 0 -51.5 -20.5t-18.5 -57.5z" />
    <glyph glyph-name="uniFEF9" unicode="&#xfedf;&#xfe88;" horiz-adv-x="1185" arabic-form="isolated" 
d="M61 158h246v747h172v-747h387v1304h172v-1462h-977v158zM553 -391v-76h-356v76h47v110q0 72 40 111t110 39q135 0 155 -127l-80 -12q-6 35 -21.5 50t-48.5 15q-70 0 -69 -76v-110h223z" />
    <glyph glyph-name="uniFEFA" unicode="&#xfee0;&#xfe88;" horiz-adv-x="1296" arabic-form="final" 
d="M61 0v158h246v747h172v-747h387v1304h172v-1304h289v-158h-1266zM553 -391v-76h-356v76h47v110q0 72 40 111t110 39q135 0 155 -127l-80 -12q-6 35 -21.5 50t-48.5 15q-70 0 -69 -76v-110h223z" />
    <glyph glyph-name="uniFEFB" unicode="&#xfedf;&#xfe8e;" horiz-adv-x="1179" arabic-form="isolated" 
d="M61 158h246v747h172v-747h387v1304h172v-1462h-977v158z" />
    <glyph glyph-name="uniFEFC" unicode="&#xfee0;&#xfe8e;" horiz-adv-x="1296" arabic-form="final" 
d="M61 0v158h246v747h172v-747h387v1304h172v-1304h289v-158h-1266z" />
    <glyph glyph-name="f_f.liga" unicode="ff" horiz-adv-x="1368" 
d="M1235 1331q-70 0 -121 -38t-51 -138v-96h268v-141h-268v-918h-178v918h-166v141h166v92q0 160 90 243t211 84q122 1 200 -24l-28 -139q-53 16 -123 16zM551 1331q-70 0 -121 -38t-51 -138v-96h268v-141h-268v-918h-178v918h-166v141h166v92q0 160 90 243t211 84
q122 1 200 -24l-28 -139q-53 16 -123 16z" />
    <glyph glyph-name="f_i.liga" unicode="fi" horiz-adv-x="1144" 
d="M551 1331q-70 0 -121 -38t-51 -138v-96h268v-141h-268v-918h-178v918h-166v141h166v92q0 160 90 243t211 84q122 1 200 -24l-28 -139q-53 16 -123 16zM819 1462h191v-207h-191v207zM825 1059h179v-1059h-179v1059z" />
    <glyph glyph-name="f_l.liga" unicode="fl" horiz-adv-x="1144" 
d="M551 1331q-70 0 -121 -38t-51 -138v-96h268v-141h-268v-918h-178v918h-166v141h166v92q0 160 90 243t211 84q122 1 200 -24l-28 -139q-53 16 -123 16zM825 1462h179v-1462h-179v1462z" />
    <glyph glyph-name="f_f_i.liga" unicode="ffi" horiz-adv-x="1828" 
d="M1235 1331q-70 0 -121 -38t-51 -138v-96h268v-141h-268v-918h-178v918h-166v141h166v92q0 160 90 243t211 84q122 1 200 -24l-28 -139q-53 16 -123 16zM551 1331q-70 0 -121 -38t-51 -138v-96h268v-141h-268v-918h-178v918h-166v141h166v92q0 160 90 243t211 84
q122 1 200 -24l-28 -139q-53 16 -123 16zM1503 1462h191v-207h-191v207zM1509 1059h179v-1059h-179v1059z" />
    <glyph glyph-name="f_f_l.liga" unicode="ffl" horiz-adv-x="1828" 
d="M1235 1331q-70 0 -121 -38t-51 -138v-96h268v-141h-268v-918h-178v918h-166v141h166v92q0 160 90 243t211 84q122 1 200 -24l-28 -139q-53 16 -123 16zM551 1331q-70 0 -121 -38t-51 -138v-96h268v-141h-268v-918h-178v918h-166v141h166v92q0 160 90 243t211 84
q122 1 200 -24l-28 -139q-53 16 -123 16zM1509 1462h179v-1462h-179v1462z" />
    <glyph glyph-name="uniFEDF_uniFB51.rlig" unicode="&#xfedf;&#xfb51;" horiz-adv-x="1179" 
d="M61 158h246v747h172v-747h387v1304h172v-1462h-977v158zM412 1239q-43 0 -76 -26t-33 -85v-14h193v33q0 92 -84 92zM422 1317q78 0 118 -40t40 -110v-129h-402v76h39v201h78v-66q49 68 127 68z" />
    <glyph glyph-name="uniFEE0_uniFB51.rlig" unicode="&#xfee0;&#xfb51;" horiz-adv-x="1296" 
d="M61 0v158h246v747h172v-747h387v1304h172v-1304h289v-158h-1266zM412 1239q-43 0 -76 -26t-33 -85v-14h193v33q0 92 -84 92zM422 1317q78 0 118 -40t40 -110v-129h-402v76h39v201h78v-66q49 68 127 68z" />
    <glyph glyph-name="uniFEDF_uniFEE0_uniFEEA.rlig" unicode="&#xfedf;&#xfee0;&#xfeea;" horiz-adv-x="2398" 
d="M1343 1726q0 -92 80 -92h27v226h80v-226h104v226h80v-301h-284q-166 0 -166 163v138h79v-134zM1538 2300v-354h-98v354h98zM270 488q0 -152 95.5 -241t275.5 -89h129v311q0 170 -58.5 247t-183.5 77t-191.5 -76.5t-66.5 -228.5zM942 158h463v1304h172v-1304h510v1304h172
v-1462h-1587q-274 0 -424 130t-150 350t118 339t316.5 119t304 -113.5t105.5 -330.5v-336z" />
    <glyph glyph-name="uniFEDB_uniFE8E.rlig" unicode="&#xfedb;&#xfe8e;" horiz-adv-x="1413" 
d="M313 760v-602h795v231q0 152 -39 229.5t-127 109.5t-242 32h-387zM1280 0h-1139v1462h172v-579l709 579h227l-680 -555h166q287 0 416 -117.5t129 -379.5v-410z" />
    <glyph glyph-name="uniFEDC_uniFE8E.rlig" unicode="&#xfedc;&#xfe8e;" horiz-adv-x="1525" 
d="M1108 389q0 152 -39 229.5t-127 109.5t-242 32h-387v-602h795v231zM141 0v1462h172v-579l709 579h227l-680 -555h166q287 0 416 -118.5t129 -378.5v-252h276v-158h-1415z" />
    <glyph glyph-name="uniFEDB_uniFE82.rlig" unicode="&#xfedb;&#xfe82;" horiz-adv-x="1413" 
d="M313 760v-602h795v231q0 152 -39 229.5t-127 109.5t-242 32h-387zM1280 0h-1139v1462h172v-579l709 579h227l-680 -555h166q287 0 416 -117.5t129 -379.5v-410zM8 1567q0 154 125 153q53 -3 100.5 -34t71.5 -33q53 0 53 63h82q0 -154 -125 -153q-41 2 -69.5 18t-52 31.5
t-48.5 17.5q-53 0 -55 -63h-82z" />
    <glyph glyph-name="uniFEDC_uniFE82.rlig" unicode="&#xfedc;&#xfe82;" horiz-adv-x="1525" 
d="M1108 389q0 152 -39 229.5t-127 109.5t-242 32h-387v-602h795v231zM141 0v1462h172v-579l709 579h227l-680 -555h166q287 0 416 -118.5t129 -378.5v-252h276v-158h-1415zM8 1567q0 154 125 153q53 -3 100.5 -34t71.5 -33q53 0 53 63h82q0 -154 -125 -153q-41 2 -69.5 18
t-52 31.5t-48.5 17.5q-53 0 -55 -63h-82z" />
    <glyph glyph-name="uniFEDB_uniFE84.rlig" unicode="&#xfedb;&#xfe84;" horiz-adv-x="1413" 
d="M313 760v-602h795v231q0 152 -39 229.5t-127 109.5t-242 32h-387zM1280 0h-1139v1462h172v-579l709 579h227l-680 -555h166q287 0 416 -117.5t129 -379.5v-410zM172 1749v-109h223v-77h-356v77h47v111q0 72 40 111t111 39q134 0 154 -129l-80 -11q-11 66 -69 66
q-33 0 -51.5 -20.5t-18.5 -57.5z" />
    <glyph glyph-name="uniFEDC_uniFE84.rlig" unicode="&#xfedc;&#xfe84;" horiz-adv-x="1525" 
d="M1108 389q0 152 -39 229.5t-127 109.5t-242 32h-387v-602h795v231zM141 0v1462h172v-579l709 579h227l-680 -555h166q287 0 416 -118.5t129 -378.5v-252h276v-158h-1415zM172 1749v-109h223v-77h-356v77h47v111q0 72 40 111t111 39q134 0 154 -129l-80 -11q-11 66 -69 66
q-33 0 -51.5 -20.5t-18.5 -57.5z" />
    <glyph glyph-name="uniFEDB_uniFE88.rlig" unicode="&#xfedb;&#xfe88;" horiz-adv-x="1413" 
d="M313 760v-602h795v231q0 152 -39 229.5t-127 109.5t-242 32h-387zM1280 0h-1139v1462h172v-579l709 579h227l-680 -555h166q287 0 416 -117.5t129 -379.5v-410zM412 -391v-76h-357v76h47v110q0 72 40 111t111 39t107.5 -31t47.5 -96l-80 -12q-6 35 -21.5 50t-48.5 15
q-70 0 -70 -76v-110h224z" />
    <glyph glyph-name="uniFEDC_uniFE88.rlig" unicode="&#xfedc;&#xfe88;" horiz-adv-x="1525" 
d="M1108 389q0 152 -39 229.5t-127 109.5t-242 32h-387v-602h795v231zM141 0v1462h172v-579l709 579h227l-680 -555h166q287 0 416 -118.5t129 -378.5v-252h276v-158h-1415zM412 -391v-76h-357v76h47v110q0 72 40 111t111 39t107.5 -31t47.5 -96l-80 -12q-6 35 -21.5 50
t-48.5 15q-70 0 -70 -76v-110h224z" />
    <glyph glyph-name="uniFEDB_uniFB51.rlig" unicode="&#xfedb;&#xfb51;" horiz-adv-x="1413" 
d="M313 760v-602h795v231q0 152 -39 229.5t-127 109.5t-242 32h-387zM1280 0h-1139v1462h172v-579l709 579h227l-680 -555h166q287 0 416 -117.5t129 -379.5v-410zM258 1763q-43 0 -76 -25.5t-32 -84.5v-15h192v33q0 92 -84 92zM426 1692v-129h-401v75h38v201h78v-65
q49 68 127 67.5t118 -40.5t40 -109z" />
    <glyph glyph-name="uniFEDC_uniFB51.rlig" unicode="&#xfedc;&#xfb51;" horiz-adv-x="1525" 
d="M1108 389q0 152 -39 229.5t-127 109.5t-242 32h-387v-602h795v231zM141 0v1462h172v-579l709 579h227l-680 -555h166q287 0 416 -118.5t129 -378.5v-252h276v-158h-1415zM258 1765q-43 0 -76 -25.5t-32 -84.5v-15h192v33q0 92 -84 92zM426 1694v-129h-401v75h38v201h78
v-65q49 68 127 67.5t118 -40.5t40 -109z" />
    <glyph glyph-name="uniFEDB_uniFEDE.rlig" unicode="&#xfedb;&#xfede;" horiz-adv-x="2091" 
d="M991 762v-604h797v231q0 152 -40 230.5t-128 110.5t-240 32h-389zM1960 0h-971q-10 -211 -125.5 -324.5t-332.5 -113.5t-341 121.5t-124 347.5q0 175 92 331l157 -40q-80 -147 -79.5 -296t80 -232t223.5 -83q281 0 280 334v1417h172v-579l709 579h229l-680 -553h164
q287 0 417 -117.5t130 -379.5v-412z" />
    <glyph glyph-name="uniFEDB_uniFEE0.rlig" unicode="&#xfedb;&#xfee0;" horiz-adv-x="1527" 
d="M1223 389q0 152 -39 229.5t-127 109.5t-242 32h-387v-602h795v231zM-31 158h287v1304h172v-579l707 579h229l-680 -555h166q287 0 416 -117.5t129 -379.5v-410h-1426v158z" />
    <glyph glyph-name="uniFEDC_uniFEDE.rlig" unicode="&#xfedc;&#xfede;" horiz-adv-x="2205" 
d="M531 -438q-217 0 -341 121.5t-124 347.5q0 175 92 331l157 -40q-80 -147 -79.5 -296t80 -232t223.5 -83q281 0 280 334v1417h172v-579l709 579h229l-680 -553h164q287 0 417 -117.5t130 -379.5v-254h276v-158h-1247q-10 -211 -125.5 -324.5t-332.5 -113.5zM991 762v-604
h797v231q0 152 -40 230.5t-128 110.5t-240 32h-389z" />
    <glyph glyph-name="uniFEDC_uniFEE0.rlig" unicode="&#xfedc;&#xfee0;" horiz-adv-x="1640" 
d="M1223 389q0 152 -39 229.5t-127 109.5t-242 32h-387v-602h795v231zM-31 158h287v1304h172v-579l707 579h229l-680 -555h166q287 0 416 -117.5t129 -379.5v-252h276v-158h-1702v158z" />
    <glyph glyph-name="uni0672.fina" unicode="&#x672;" horiz-adv-x="571" 
d="M602 0h-461v1462h172v-1304h289v-158zM428 1642v-77h-242q-57 3 -102 48q-16 15 -40 16t-36 -15l-49 59q35 35 73 34t57 -15t33 -28t30 -17v106q0 72 36 111q37 39 105 39q119 0 137 -129l-78 -11q-10 66 -59 66q-55 0 -55 -78v-109h190z" />
    <glyph glyph-name="uni0673.fina" unicode="&#x673;" horiz-adv-x="571" 
d="M602 0h-461v1462h172v-1304h289v-158zM483 -389v-76h-241q-55 3 -103 48q-16 15 -39 17t-37 -18l-49 60q31 36 71 34t59 -16q20 -14 34 -28t29 -15v104q0 72 37 111t104 39q121 0 137 -127l-77 -12q-10 66 -60 65q-55 0 -55 -76v-110h190z" />
    <glyph glyph-name="uni0675.fina" unicode="&#x675;" horiz-adv-x="763" 
d="M795 0h-654v1462h172v-1304h482v-158zM446 1638h224v-77h-357v77h47v111q0 72 40 111q40 38 111 38t107 -32t48 -97l-80 -10q-11 64 -70 66q-68 0 -70 -78v-109z" />
    <glyph glyph-name="uni0676.fina" unicode="&#x676;" horiz-adv-x="1148" 
d="M528 793q-256 1 -256 -303q0 -154 96 -243t273 -89h131v311q0 170 -58 247t-186 77zM944 158h236v-158h-236q0 -219 -98 -319q-98 -101 -298 -101t-307 84q-108 84 -124 242h164q37 -178 256 -178q129 0 182 57t53 195v20h-100q-272 0 -422 130t-150 350t117 340
q117 118 317 118t305 -114t105 -330v-336zM879 1247v-108h223v-78h-357v78h48v110q0 72 40 111q41 39 111 39q135 0 154 -129l-80 -10q-11 65 -70 65q-69 0 -69 -78z" />
    <glyph glyph-name="uni0677.fina" unicode="&#x677;" horiz-adv-x="1148" 
d="M528 793q-256 1 -256 -303q0 -154 96 -243t273 -89h131v311q0 170 -58 247t-186 77zM944 158h236v-158h-236q0 -219 -98 -319q-98 -101 -298 -101t-307 84q-108 84 -124 242h164q37 -178 256 -178q129 0 182 57t53 195v20h-100q-272 0 -422 130t-150 350t117 340
q117 118 317 118t305 -114t105 -330v-336zM452 1223q60 1 60 63t-59 62t-59 -62q-2 -62 58 -63zM438 1049q-63 0 -119 24l19 66q51 -25 98 -25q78 0 78 64v24q-29 -35 -82 -35t-84 32t-31 87t36 89t101 34q64 0 102 -37t38 -102v-64q0 -157 -156 -157zM879 1247v-108h223
v-78h-357v78h48v110q0 72 40 111q41 39 111 39q135 0 154 -129l-80 -10q-11 65 -70 65q-69 0 -69 -78z" />
    <glyph glyph-name="uni0678.init" unicode="&#x678;" horiz-adv-x="757" 
d="M430 729v-729h-461v158h289v553q0 88 -37 151l156 70q53 -71 53 -203zM627 1327q-70 0 -70 -78v-108h223v-78h-356v78h47v110q0 72 40 111t111 39q134 0 154 -129l-80 -10q-6 35 -22 50t-47 15z" />
    <glyph glyph-name="uni0678.medi" unicode="&#x678;" horiz-adv-x="874" 
d="M-31 158h289v747h172v-747h477v-158h-938v158zM633 1327q-68 0 -70 -78v-108h223v-78h-356v78h47v110q0 72 40 111t111 39q134 0 154 -129l-80 -10q-6 35 -22 50t-47 15z" />
    <glyph glyph-name="uni0678.fina" unicode="&#x678;" horiz-adv-x="1779" 
d="M991 47q0 -233 -117 -359q-116 -126 -338 -126t-347 122q-124 122 -123 347q0 175 92 331l157 -40q-79 -143 -79 -294t78 -234t225 -83q281 0 280 334v451q0 410 369 409h330v-747h292v-158h-464v756h-158q-102 0 -150 -60t-47 -190v-459zM1296 1133h224v-78h-357v78h47
v110q0 72 40 111t111 39t107 -32t48 -97l-80 -11q-11 66 -70 66q-68 0 -70 -78v-108z" />
    <glyph glyph-name="uni067C.init" unicode="&#x67c;" horiz-adv-x="571" 
d="M201 -172q39 0 61 24t23 66q0 42 -23 65q-24 23 -62 23t-60 -24t-22 -65t22 -65t61 -24zM430 729v-729h-76q20 -36 20 -100t-47 -109q-48 -45 -125 -45t-125 45t-48 111t20 98h-80v158h289v553q0 88 -37 151l156 70q53 -71 53 -203zM254 1284h166v-190h-166v190z
M-18 1284h165v-190h-165v190z" />
    <glyph glyph-name="uni067C.medi" unicode="&#x67c;" horiz-adv-x="690" 
d="M176 -84q0 -40 22 -64t60 -24q40 0 62 24t22 66t-23 65q-23 24 -61 23q-82 0 -82 -90zM86 -100q0 64 20 100h-137v158h289v747h172v-747h291v-158h-309q20 -36 20 -100t-48 -109t-125 -45t-125 45t-48 109zM264 1284h166v-190h-166v190zM-8 1284h166v-190h-166v190z" />
    <glyph glyph-name="uni067C.fina" unicode="&#x67c;" horiz-adv-x="1794" 
d="M989 -172q39 0 61 24t22 66t-22 65t-61 23t-61 -24t-23 -65q1 -41 23 -65t61 -24zM815 -100q0 64 21 100h-228q-242 0 -376 118t-134 328t109 328t303 135l20 -153q-137 -18 -199 -89q-63 -71 -63 -211t88 -219t254 -79h762v747h172v-747h281v-158h-684q23 -36 23 -100
t-49 -109q-48 -45 -126 -45t-126 45t-48 109zM971 1284h166v-190h-166v190zM698 1284h166v-190h-166v190z" />
    <glyph glyph-name="uni067D.init" unicode="&#x67d;" horiz-adv-x="571" 
d="M430 729v-729h-461v158h289v553q0 88 -37 151l156 70q53 -71 53 -203zM254 1477h160v-170h-160v170zM-2 1477h160v-170h-160v170zM125 1231h160v-172h-160v172z" />
    <glyph glyph-name="uni067D.medi" unicode="&#x67d;" horiz-adv-x="690" 
d="M-31 158h289v747h172v-747h291v-158h-752v158zM264 1477h160v-170h-160v170zM8 1477h160v-170h-160v170zM135 1231h160v-172h-160v172z" />
    <glyph glyph-name="uni067D.fina" unicode="&#x67d;" horiz-adv-x="1794" 
d="M1372 158v747h172v-747h281v-158h-1217q-244 0 -377 119t-133 327t110 328t302 135l22 -153q-136 -14 -200 -86t-64 -213t89 -220t253 -79h762zM967 1477h159v-170h-159v170zM711 1477h159v-170h-159v170zM838 1231h159v-172h-159v172z" />
    <glyph glyph-name="uni0681.init" unicode="&#x681;" horiz-adv-x="1110" 
d="M-31 158h760v323q0 170 -57 239q-56 68 -206 68t-207 -76q-30 -40 -48 -112l-166 18q29 164 134 242t311 78t308 -104t103 -330v-346h148v-158h-1080v158zM496 1335q-70 0 -70 -78v-108h223v-78h-356v78h47v111q0 72 40 110t111 39q134 0 154 -129l-80 -10q-6 35 -22 50
t-47 15z" />
    <glyph glyph-name="uni0681.medi" unicode="&#x681;" horiz-adv-x="1157" 
d="M733 481q0 170 -57 239q-58 68 -188 68t-188 -42t-85 -146l-166 18q29 164 134 242t311 78t310 -104t103 -330v-346h281v-158h-1219v158h764v323zM496 1335q-70 0 -70 -78v-108h223v-78h-356v78h47v111q0 72 40 110t111 39q134 0 154 -129l-80 -10q-6 35 -22 50t-47 15z
" />
    <glyph glyph-name="uni0681.fina" unicode="&#x681;" horiz-adv-x="1267" 
d="M500 0q-131 0 -203 -65t-72 -185q0 -258 324 -258q258 0 315 205h174q-28 -166 -158 -261t-350 -95t-348 105q-127 104 -127 298t123 304t334 110h338v323q0 170 -57 239q-57 68 -207 68t-206 -76q-30 -40 -48 -112l-166 18q29 164 134 242t311 78q207 0 309 -104
t102 -330v-346h276v-158h-798zM614 1327q-69 0 -69 -78v-108h223v-78h-356v78h47v110q0 72 40 111q41 39 111 39q135 0 154 -129l-80 -10q-6 35 -22 50t-48 15z" />
    <glyph glyph-name="uni0682.init" unicode="&#x682;" horiz-adv-x="1110" 
d="M-31 158h760v323q0 170 -57 239q-56 68 -206 68t-207 -76q-30 -40 -48 -112l-166 18q29 164 134 242t311 78t308 -104t103 -330v-346h148v-158h-1080v158zM399 1485h168v-166h-168v166zM399 1235h168v-168h-168v168z" />
    <glyph glyph-name="uni0682.medi" unicode="&#x682;" horiz-adv-x="1157" 
d="M733 481q0 170 -57 239q-58 68 -188 68t-188 -42t-85 -146l-166 18q29 164 134 242t311 78t310 -104t103 -330v-346h281v-158h-1219v158h764v323zM399 1485h168v-166h-168v166zM399 1235h168v-168h-168v168z" />
    <glyph glyph-name="uni0682.fina" unicode="&#x682;" horiz-adv-x="1267" 
d="M500 0q-131 0 -203 -65t-72 -185q0 -258 324 -258q258 0 315 205h174q-28 -166 -158 -261t-350 -95t-348 105q-127 104 -127 298t123 304t334 110h338v323q0 170 -57 239q-57 68 -207 68t-206 -76q-30 -40 -48 -112l-166 18q29 164 134 242t311 78q207 0 309 -104
t102 -330v-346h276v-158h-798zM520 1477h168v-166h-168v166zM520 1227h168v-168h-168v168z" />
    <glyph glyph-name="uni0685.init" unicode="&#x685;" horiz-adv-x="1110" 
d="M-31 158h760v323q0 170 -57 239q-56 68 -206 68t-207 -76q-30 -40 -48 -112l-166 18q29 164 134 242t311 78t308 -104t103 -330v-346h148v-158h-1080v158zM526 1239h160v-172h-160v172zM270 1239h160v-172h-160v172zM399 1485h158v-170h-158v170z" />
    <glyph glyph-name="uni0685.medi" unicode="&#x685;" horiz-adv-x="1157" 
d="M733 481q0 170 -57 239q-58 68 -188 68t-188 -42t-85 -146l-166 18q29 164 134 242t311 78t310 -104t103 -330v-346h281v-158h-1219v158h764v323zM526 1239h160v-172h-160v172zM270 1239h160v-172h-160v172zM399 1485h158v-170h-158v170z" />
    <glyph glyph-name="uni0685.fina" unicode="&#x685;" horiz-adv-x="1267" 
d="M500 0q-131 0 -203 -65t-72 -185q0 -258 324 -258q258 0 315 205h174q-28 -166 -158 -261t-350 -95t-348 105q-127 104 -127 298t123 304t334 110h338v323q0 170 -57 239q-57 68 -207 68t-206 -76q-30 -40 -48 -112l-166 18q29 164 134 242t311 78q207 0 309 -104
t102 -330v-346h276v-158h-798zM647 1231h160v-172h-160v172zM391 1231h160v-172h-160v172zM520 1477h158v-170h-158v170z" />
    <glyph glyph-name="uni0689.fina" unicode="&#x689;" horiz-adv-x="1185" 
d="M494 6q-84 0 -84 -90q0 -41 22.5 -64.5t61 -23.5t61.5 23.5t23 64.5q0 90 -84 90zM453 938q499 0 499 -590v-190h265v-158h-570q21 -36 21 -100t-48.5 -109t-126 -45t-124.5 45t-47 111t20 98h-281v158h717v170q0 236 -82 344t-258 108q-106 0 -219 -39l-41 152
q129 45 275 45z" />
    <glyph glyph-name="uni068A.fina" unicode="&#x68a;" horiz-adv-x="1185" 
d="M453 938q499 0 499 -588v-192h265v-158h-1156v158h717v172q0 236 -82 344t-258 108q-113 0 -219 -41l-41 152q129 45 275 45zM442 -147h170v-191h-170v191z" />
    <glyph glyph-name="uni068B.fina" unicode="&#x68b;" horiz-adv-x="1185" 
d="M453 938q499 0 499 -588v-192h265v-158h-1156v158h717v172q0 236 -82 344t-258 108q-113 0 -219 -41l-41 152q129 45 275 45zM524 1266q-46 0 -78 -28t-32 -85v-16h196v37q0 92 -86 92zM537 1341q75 1 115 -39t40 -110v-129h-401v74h39v317h80v-176q51 63 127 63z
M436 -147h170v-191h-170v191z" />
    <glyph glyph-name="uni068F.fina" unicode="&#x68f;" horiz-adv-x="1185" 
d="M453 938q499 0 499 -588v-192h265v-158h-1156v158h717v172q0 236 -82 344t-258 108q-113 0 -219 -41l-41 152q129 45 275 45zM559 1477h160v-170h-160v170zM303 1477h160v-170h-160v170zM430 1231h160v-172h-160v172z" />
    <glyph glyph-name="uni0690.fina" unicode="&#x690;" horiz-adv-x="1185" 
d="M453 938q499 0 499 -588v-192h265v-158h-1156v158h717v172q0 236 -82 344t-258 108q-113 0 -219 -41l-41 152q129 45 275 45zM557 1227h158v-168h-158v168zM309 1227h154v-168h-154v168zM557 1477h158v-168h-158v168zM309 1477h154v-168h-154v168z" />
    <glyph glyph-name="uni0692.fina" unicode="&#x692;" horiz-adv-x="739" 
d="M309 -115v1020h170v-747h291v-158h-291v-100q-1 -170 -73 -254t-222 -84q-86 0 -184 28l29 140q92 -18 129 -19q80 0 116 42t35 132zM446 1063h-110l-166 280h104l117 -202l121 202h100z" />
    <glyph glyph-name="uni0693.fina" unicode="&#x693;" horiz-adv-x="739" 
d="M221 -608q39 0 61.5 23.5t22.5 65.5t-22.5 64.5t-61.5 22.5t-61.5 -22.5t-22.5 -64.5t22.5 -65.5t61.5 -23.5zM49 -532q0 66 25 106q-31 6 -74 16l29 140q92 -18 125 -19q156 0 155 174v1020h170v-747h291v-158h-291v-100q0 -229 -133 -299q49 -47 49 -124t-47 -122
t-127 -45t-126 46t-46 112z" />
    <glyph glyph-name="uni0694.fina" unicode="&#x694;" horiz-adv-x="739" 
d="M309 -115v1020h170v-747h291v-158h-291v-100q-1 -170 -73 -254t-222 -84q-86 0 -184 28l29 140q92 -18 129 -19q80 0 116 42t35 132zM158 -565h170v-191h-170v191z" />
    <glyph glyph-name="uni0695.fina" unicode="&#x695;" horiz-adv-x="747" 
d="M487 -100q0 -338 -294 -338q-86 0 -185 28l29 140q92 -18 129 -19q80 0 116 42t35 132v1020h170v-747h291v-158h-291v-100zM289 -846h-111l-166 281h105l116 -203l121 203h101z" />
    <glyph glyph-name="uni0696.fina" unicode="&#x696;" horiz-adv-x="759" 
d="M500 -100q0 -338 -295 -338q-86 0 -185 28l29 140q92 -18 129 -19q80 0 116 42t36 132v1020h170v-747h291v-158h-291v-100zM14 377h170v-191h-170v191zM176 -565h170v-191h-170v191z" />
    <glyph glyph-name="uni0697.fina" unicode="&#x697;" horiz-adv-x="739" 
d="M309 -115v1020h170v-747h291v-158h-291v-100q-1 -170 -73 -254t-222 -84q-86 0 -184 28l29 140q92 -18 129 -19q80 0 116 42t35 132zM315 1284h166v-190h-166v190zM43 1284h166v-190h-166v190z" />
    <glyph glyph-name="uni0699.fina" unicode="&#x699;" horiz-adv-x="739" 
d="M309 -115v1020h170v-747h291v-158h-291v-100q-1 -170 -73 -254t-222 -84q-86 0 -184 28l29 140q92 -18 129 -19q80 0 116 42t35 132zM326 1227h157v-168h-157v168zM78 1227h153v-168h-153v168zM326 1477h157v-168h-157v168zM78 1477h153v-168h-153v168z" />
    <glyph glyph-name="uni069A.init" unicode="&#x69a;" horiz-adv-x="1667" 
d="M1528 0h-1559v158h289v747h172v-747h381v747h172v-747h373v553q0 88 -37 151l154 70q53 -71 55 -203v-729zM813 1284h170v-190h-170v190zM813 -147h170v-191h-170v191z" />
    <glyph glyph-name="uni069A.medi" unicode="&#x69a;" horiz-adv-x="1785" 
d="M1528 158h289v-158h-1848v158h289v747h172v-747h381v747h172v-747h373v553q0 88 -37 151l154 70q53 -71 55 -203v-571zM813 1284h170v-190h-170v190zM813 -147h170v-191h-170v191z" />
    <glyph glyph-name="uni069A.fina" unicode="&#x69a;" horiz-adv-x="2347" 
d="M2089 729v-571h289v-158h-1389q-10 -211 -127 -325q-116 -113 -332 -113t-341 122q-124 122 -123 347q0 175 92 331l157 -40q-79 -143 -79 -294t78 -234t225 -83q281 0 280 334v860h172v-747h381v747h172v-747h373v553q0 88 -37 151l154 70q55 -74 55 -203zM1374 1284
h170v-190h-170v190zM1374 -147h170v-191h-170v191z" />
    <glyph glyph-name="uni069B.init" unicode="&#x69b;" horiz-adv-x="1667" 
d="M1528 0h-1559v158h289v747h172v-747h381v747h172v-747h373v553q0 88 -37 151l154 70q53 -71 55 -203v-729zM950 -141h160v-170h-160v170zM694 -141h160v-170h-160v170zM823 -387h158v-172h-158v172z" />
    <glyph glyph-name="uni069B.medi" unicode="&#x69b;" horiz-adv-x="1785" 
d="M1528 158h289v-158h-1848v158h289v747h172v-747h381v747h172v-747h373v553q0 88 -37 151l154 70q53 -71 55 -203v-571zM950 -141h160v-170h-160v170zM694 -141h160v-170h-160v170zM823 -387h158v-172h-158v172z" />
    <glyph glyph-name="uni069B.fina" unicode="&#x69b;" horiz-adv-x="2347" 
d="M2089 729v-571h289v-158h-1389q-10 -211 -127 -325q-116 -113 -332 -113t-341 122q-124 122 -123 347q0 175 92 331l157 -40q-79 -143 -79 -294t78 -234t225 -83q281 0 280 334v860h172v-747h381v747h172v-747h373v553q0 88 -37 151l154 70q55 -74 55 -203zM1507 -141
h160v-170h-160v170zM1251 -141h160v-170h-160v170zM1380 -387h158v-172h-158v172z" />
    <glyph glyph-name="uni069C.init" unicode="&#x69c;" horiz-adv-x="1667" 
d="M1528 0h-1559v158h289v747h172v-747h381v747h172v-747h373v553q0 88 -37 151l154 70q53 -71 55 -203v-729zM948 1214h160v-172h-160v172zM692 1214h160v-172h-160v172zM821 1460h158v-170h-158v170zM948 -141h160v-170h-160v170zM692 -141h160v-170h-160v170zM821 -387
h158v-172h-158v172z" />
    <glyph glyph-name="uni069C.medi" unicode="&#x69c;" horiz-adv-x="1785" 
d="M1528 158h289v-158h-1848v158h289v747h172v-747h381v747h172v-747h373v553q0 88 -37 151l154 70q53 -71 55 -203v-571zM948 1214h160v-172h-160v172zM692 1214h160v-172h-160v172zM821 1460h158v-170h-158v170zM948 -141h160v-170h-160v170zM692 -141h160v-170h-160v170z
M821 -387h158v-172h-158v172z" />
    <glyph glyph-name="uni069C.fina" unicode="&#x69c;" horiz-adv-x="2347" 
d="M2089 729v-571h289v-158h-1389q-10 -211 -127 -325q-116 -113 -332 -113t-341 122q-124 122 -123 347q0 175 92 331l157 -40q-79 -143 -79 -294t78 -234t225 -83q281 0 280 334v860h172v-747h381v747h172v-747h373v553q0 88 -37 151l154 70q55 -74 55 -203zM1509 1214
h160v-172h-160v172zM1253 1214h160v-172h-160v172zM1382 1460h158v-170h-158v170zM1507 -141h160v-170h-160v170zM1251 -141h160v-170h-160v170zM1380 -387h158v-172h-158v172z" />
    <glyph glyph-name="uni069D.init" unicode="&#x69d;" horiz-adv-x="1587" 
d="M1456 0h-1487v158h293v747h172v-252q86 137 222 211t302 74q244 0 371 -141t127 -414v-383zM942 786q-234 0 -372 -139t-138 -375v-114h852v182q0 230 -83 338t-259 108zM940 -147h166v-191h-166v191zM668 -147h166v-191h-166v191z" />
    <glyph glyph-name="uni069D.medi" unicode="&#x69d;" horiz-adv-x="1667" 
d="M958 938q244 0 371 -141t127 -414v-225h242v-158h-1729v158h293v747h172v-252q86 137 222 211t302 74zM942 786q-234 0 -372 -139t-138 -375v-114h852v182q0 230 -83 338t-259 108zM940 -147h166v-191h-166v191zM668 -147h166v-191h-166v191z" />
    <glyph glyph-name="uni069D.fina" unicode="&#x69d;" horiz-adv-x="2224" 
d="M1513 938q246 0 372 -141t126 -414v-225h244v-158h-1266q-10 -211 -127 -325q-118 -113 -334 -113t-340 123q-123 123 -122 346q0 172 92 331l157 -36q-79 -143 -79 -295t78 -236t223 -84q283 0 282 334v860h172v-252q86 137 222 211t300 74zM1499 786q-233 0 -371 -139
t-139 -375v-114h850v182q0 230 -82 338t-258 108zM1495 -147h166v-191h-166v191zM1223 -147h166v-191h-166v191z" />
    <glyph glyph-name="uni069E.init" unicode="&#x69e;" horiz-adv-x="1587" 
d="M1456 0h-1487v158h293v747h172v-252q86 137 222 211t302 74q244 0 371 -141t127 -414v-383zM942 786q-234 0 -372 -139t-138 -375v-114h852v182q0 230 -83 338t-259 108zM969 1231h159v-172h-159v172zM713 1231h159v-172h-159v172zM842 1477h157v-170h-157v170z" />
    <glyph glyph-name="uni069E.medi" unicode="&#x69e;" horiz-adv-x="1667" 
d="M958 938q244 0 371 -141t127 -414v-225h242v-158h-1729v158h293v747h172v-252q86 137 222 211t302 74zM942 786q-234 0 -372 -139t-138 -375v-114h852v182q0 230 -83 338t-259 108zM969 1231h159v-172h-159v172zM713 1231h159v-172h-159v172zM842 1477h157v-170h-157v170
z" />
    <glyph glyph-name="uni069E.fina" unicode="&#x69e;" horiz-adv-x="2224" 
d="M1513 938q246 0 372 -141t126 -414v-225h244v-158h-1266q-10 -211 -127 -325q-118 -113 -334 -113t-340 123q-123 123 -122 346q0 172 92 331l157 -36q-79 -143 -79 -295t78 -236t223 -84q283 0 282 334v860h172v-252q86 137 222 211t300 74zM1499 786q-233 0 -371 -139
t-139 -375v-114h850v182q0 230 -82 338t-258 108zM1526 1231h160v-172h-160v172zM1270 1231h160v-172h-160v172zM1399 1477h157v-170h-157v170z" />
    <glyph glyph-name="uni069F.init" unicode="&#x69f;" horiz-adv-x="1587" 
d="M958 938q244 0 371 -141t127 -414v-383h-1487v158h293v1304h172v-809q86 137 222 211t302 74zM1284 340q0 230 -83 338t-247 108q-326 0 -457 -239q-65 -117 -65 -275v-114h852v182zM958 1231h160v-172h-160v172zM702 1231h160v-172h-160v172zM831 1477h158v-170h-158
v170z" />
    <glyph glyph-name="uni069F.medi" unicode="&#x69f;" horiz-adv-x="1662" 
d="M1452 158h242v-158h-1725v158h289v1304h172v-809q86 137 222 211t302 74q244 0 371 -141t127 -414v-225zM1280 340q0 230 -83 338t-247 108q-326 0 -457 -239q-65 -117 -65 -275v-114h852v182zM958 1231h160v-172h-160v172zM702 1231h160v-172h-160v172zM831 1477h158
v-170h-158v170z" />
    <glyph glyph-name="uni069F.fina" unicode="&#x69f;" horiz-adv-x="1652" 
d="M942 938q246 0 372 -141t126 -414v-225h243v-158h-1622v158h187v1304h172v-809q86 137 222 211t300 74zM928 786q-234 0 -372 -139t-138 -375v-114h850v182q0 230 -82 338t-258 108zM958 1231h160v-172h-160v172zM702 1231h160v-172h-160v172zM831 1477h158v-170h-158
v170z" />
    <glyph glyph-name="uni06A0.init" unicode="&#x6a0;" horiz-adv-x="1200" 
d="M252 498q0 220 110 330t314 110q206 0 304 -77t126 -243l-166 -18q-25 106 -79 148t-184 40q-130 0 -192 -71q-61 -72 -61 -236v-323h715v-158h-1170v158h283v340zM737 1231h160v-172h-160v172zM481 1231h160v-172h-160v172zM610 1477h158v-170h-158v170z" />
    <glyph glyph-name="uni06A0.medi" unicode="&#x6a0;" horiz-adv-x="1146" 
d="M252 498q0 220 110 330t314 110q206 0 304 -77t126 -243l-166 -18q-25 106 -79 148t-184 40q-130 0 -192 -71q-61 -72 -61 -236v-323h754v-158h-1209v158h283v340zM737 1231h160v-172h-160v172zM481 1231h160v-172h-160v172zM610 1477h158v-170h-158v170z" />
    <glyph glyph-name="uni06A0.fina" unicode="&#x6a0;" horiz-adv-x="1286" 
d="M389 498q0 440 445 440q186 0 283 -77t126 -243l-166 -18q-25 106 -79 148t-184 40q-130 0 -191 -70t-62 -237v-323h756v-158h-848q-129 0 -197 -65t-67 -185q0 -258 323 -258q258 0 316 205h174q-27 -166 -158 -261q-132 -95 -352 -95t-346 105q-126 104 -127 288
q0 184 94 290t260 123v351zM874 1241h160v-172h-160v172zM618 1241h160v-172h-160v172zM748 1487h157v-170h-157v170z" />
    <glyph glyph-name="uni06A1.init" unicode="&#x6a1;" horiz-adv-x="1148" 
d="M842 158v334q0 154 -59.5 227.5t-183.5 73.5t-190.5 -76.5t-66.5 -226.5t94 -241t266 -91h140zM1016 0h-1047v158h385q-86 51 -135 144t-49 208q0 193 120 310.5t318 117.5t303 -114t105 -346v-478z" />
    <glyph glyph-name="uni06A1.medi" unicode="&#x6a1;" horiz-adv-x="1220" 
d="M842 158v334q0 154 -59.5 227.5t-183.5 73.5t-190.5 -75.5t-66.5 -227.5t95 -242t268 -90h137zM1251 0h-1282v158h385q-86 51 -135 144t-49 208q0 193 120 310.5t318 117.5t303 -114.5t105 -331.5v-334h235v-158z" />
    <glyph glyph-name="uni06A1.fina" unicode="&#x6a1;" horiz-adv-x="1851" 
d="M809 508q0 195 117.5 312.5t314.5 117.5t301.5 -114.5t104.5 -331.5v-334h235v-158h-1274q-252 0 -381 115t-129 327t107.5 330.5t304.5 136.5l20 -153q-137 -18 -199.5 -89t-62.5 -215q0 -294 342 -294h381q-84 51 -133 144t-49 206zM1475 158v334q0 154 -59.5 227.5
t-181.5 73.5t-187.5 -75.5t-65.5 -227.5t92 -242t262 -90h140z" />
    <glyph glyph-name="uni06A2.init" unicode="&#x6a2;" horiz-adv-x="1148" 
d="M842 158v334q0 154 -60 228t-183 73q-125 0 -191 -76q-66 -77 -66 -227t94 -241t266 -91h140zM1016 0h-1047v158h385q-86 51 -135 144t-49 208q0 192 120 310t318 118t302 -114q106 -114 106 -346v-478zM578 -147h170v-191h-170v191z" />
    <glyph glyph-name="uni06A2.medi" unicode="&#x6a2;" horiz-adv-x="1220" 
d="M842 158v334q0 154 -60 228t-183 73q-125 0 -191 -76q-66 -75 -66 -227t95 -242t268 -90h137zM1251 0h-1282v158h385q-86 51 -135 144t-49 208q0 192 120 310t318 118t302 -115q105 -115 106 -331v-334h235v-158zM578 -147h170v-191h-170v191z" />
    <glyph glyph-name="uni06A2.fina" unicode="&#x6a2;" horiz-adv-x="1851" 
d="M809 508q0 194 118 312q119 118 315 118t300 -115t105 -331v-334h235v-158h-1274q-252 0 -381 116t-129 327t108 329t304 137l20 -153q-137 -18 -199 -89t-63 -206q0 -305 342 -303h381q-84 51 -133 144t-49 206zM1475 492q0 301 -242 301q-121 0 -187 -76
q-66 -75 -65 -227q0 -152 92 -242t262 -90h140v334zM819 -147h170v-191h-170v191z" />
    <glyph glyph-name="uni06A3.init" unicode="&#x6a3;" horiz-adv-x="1148" 
d="M842 158v334q0 154 -60 228t-183 73q-125 0 -191 -76q-66 -77 -66 -227t94 -241t266 -91h140zM1016 0h-1047v158h385q-86 51 -135 144t-49 208q0 192 120 310t318 118t302 -114q106 -114 106 -346v-478zM512 1284h170v-190h-170v190zM578 -147h170v-191h-170v191z" />
    <glyph glyph-name="uni06A3.medi" unicode="&#x6a3;" horiz-adv-x="1220" 
d="M842 158v334q0 154 -60 228t-183 73q-125 0 -191 -76q-66 -75 -66 -227t95 -242t268 -90h137zM1251 0h-1282v158h385q-86 51 -135 144t-49 208q0 192 120 310t318 118t302 -115q105 -115 106 -331v-334h235v-158zM512 1284h170v-190h-170v190zM578 -147h170v-191h-170
v191z" />
    <glyph glyph-name="uni06A3.fina" unicode="&#x6a3;" horiz-adv-x="1851" 
d="M809 508q0 194 118 312q119 118 315 118t300 -115t105 -331v-334h235v-158h-1274q-252 0 -381 116t-129 327t108 329t304 137l20 -153q-137 -18 -199 -89t-63 -206q0 -305 342 -303h381q-84 51 -133 144t-49 206zM1475 492q0 301 -242 301q-121 0 -187 -76
q-66 -75 -65 -227q0 -152 92 -242t262 -90h140v334zM1149 1284h170v-190h-170v190zM819 -147h170v-191h-170v191z" />
    <glyph glyph-name="uni06A5.init" unicode="&#x6a5;" horiz-adv-x="1148" 
d="M842 158v334q0 154 -60 228t-183 73q-125 0 -191 -76q-66 -77 -66 -227t94 -241t266 -91h140zM1016 0h-1047v158h385q-86 51 -135 144t-49 208q0 192 120 310t318 118t302 -114q106 -114 106 -346v-478zM713 -141h159v-170h-159v170zM457 -141h159v-170h-159v170z
M586 -387h157v-172h-157v172z" />
    <glyph glyph-name="uni06A5.medi" unicode="&#x6a5;" horiz-adv-x="1220" 
d="M842 158v334q0 154 -60 228t-183 73q-125 0 -191 -76q-66 -75 -66 -227t95 -242t268 -90h137zM1251 0h-1282v158h385q-86 51 -135 144t-49 208q0 192 120 310t318 118t302 -115q105 -115 106 -331v-334h235v-158zM713 -141h159v-170h-159v170zM457 -141h159v-170h-159
v170zM586 -387h157v-172h-157v172z" />
    <glyph glyph-name="uni06A5.fina" unicode="&#x6a5;" horiz-adv-x="1851" 
d="M809 508q0 194 118 312q119 118 315 118t300 -115t105 -331v-334h235v-158h-1274q-252 0 -381 116t-129 327t108 329t304 137l20 -153q-137 -18 -199 -89t-63 -206q0 -305 342 -303h381q-84 51 -133 144t-49 206zM1475 492q0 301 -242 301q-121 0 -187 -76
q-66 -75 -65 -227q0 -152 92 -242t262 -90h140v334zM950 -141h160v-170h-160v170zM694 -141h160v-170h-160v170zM823 -387h158v-172h-158v172z" />
    <glyph glyph-name="uni06A7.init" unicode="&#x6a7;" horiz-adv-x="1148" 
d="M842 158v334q0 154 -60 228t-183 73q-125 0 -191 -76q-66 -77 -66 -227t94 -241t266 -91h140zM1016 0h-1047v158h385q-86 51 -135 144t-49 208q0 192 120 310t318 118t302 -114q106 -114 106 -346v-478zM512 1284h170v-190h-170v190z" />
    <glyph glyph-name="uni06A7.medi" unicode="&#x6a7;" horiz-adv-x="1220" 
d="M842 158v334q0 154 -60 228t-183 73q-125 0 -191 -76q-66 -77 -66 -227t94 -241t266 -91h140zM1251 0h-1282v158h385q-86 51 -135 144t-49 208q0 192 120 310t318 118t302 -115q105 -115 106 -331v-334h235v-158zM512 1284h170v-190h-170v190z" />
    <glyph glyph-name="uni06A7.fina" unicode="&#x6a7;" horiz-adv-x="1378" 
d="M759 793q-127 0 -193 -76q-66 -77 -66 -229t95 -241t275 -89h129v311q0 170 -57 247t-183 77zM1174 158h235v-158h-235q0 -209 -134 -324t-381 -114q-307 0 -452 123t-146 383h170q3 -190 103 -274t325 -85q332 0 340 291h-100q-272 0 -422 130t-149 368q0 204 118 322
t317 118q200 0 305 -115t106 -329v-336zM668 1284h170v-190h-170v190z" />
    <glyph glyph-name="uni06A8.init" unicode="&#x6a8;" horiz-adv-x="1148" 
d="M842 158v334q0 154 -60 228t-183 73q-125 0 -191 -76q-66 -77 -66 -227t94 -241t266 -91h140zM1016 0h-1047v158h385q-86 51 -135 144t-49 208q0 192 120 310t318 118t302 -114q106 -114 106 -346v-478zM647 1231h160v-172h-160v172zM391 1231h160v-172h-160v172z
M520 1477h158v-170h-158v170z" />
    <glyph glyph-name="uni06A8.medi" unicode="&#x6a8;" horiz-adv-x="1220" 
d="M842 158v334q0 154 -60 228t-183 73q-125 0 -191 -76q-66 -77 -66 -227t94 -241t266 -91h140zM1251 0h-1282v158h385q-86 51 -135 144t-49 208q0 192 120 310t318 118t302 -115q105 -115 106 -331v-334h235v-158zM647 1231h160v-172h-160v172zM391 1231h160v-172h-160
v172zM520 1477h158v-170h-158v170z" />
    <glyph glyph-name="uni06A8.fina" unicode="&#x6a8;" horiz-adv-x="1378" 
d="M759 793q-127 0 -193 -76q-66 -77 -66 -229t95 -241t275 -89h129v311q0 170 -57 247t-183 77zM1174 158h235v-158h-235q0 -209 -134 -324t-381 -114q-307 0 -452 123t-146 383h170q3 -190 103 -274t325 -85q332 0 340 291h-100q-272 0 -422 130t-149 368q0 204 118 322
t317 118q200 0 305 -115t106 -329v-336zM801 1231h160v-172h-160v172zM545 1231h160v-172h-160v172zM674 1477h157v-170h-157v170z" />
    <glyph glyph-name="uni06AA.init" unicode="&#x6aa;" horiz-adv-x="1523" 
d="M-31 158h1262v211q0 211 -100.5 298t-339.5 87h-744v143l690 565h230l-680 -555h549q569 0 569 -518v-389h-1436v158z" />
    <glyph glyph-name="uni06AA.medi" unicode="&#x6aa;" horiz-adv-x="1650" 
d="M1681 0h-1712v158h1262v211q0 211 -100.5 298t-339.5 87h-744v143l690 565h230l-680 -555h549q569 0 569 -518v-231h276v-158z" />
    <glyph glyph-name="uni06AA.fina" unicode="&#x6aa;" horiz-adv-x="2156" 
d="M268 376q0 -114 85 -166t278 -52h1106v211q0 209 -100.5 297t-340.5 88h-743v143l690 565h230l-680 -555h548q569 0 570 -518v-231h276v-158h-1571q-264 0 -391 92t-127 285q0 57 17.5 121.5t44.5 105.5l157 -43q-49 -71 -49 -185z" />
    <glyph glyph-name="uni06AB.init" unicode="&#x6ab;" horiz-adv-x="1130" 
d="M657 1165q0 -88 60.5 -88t83 22.5t22.5 65.5t-22.5 65.5t-83 22.5t-60.5 -88zM913 1165q0 -78 -47 -124t-123 -46t-120.5 39t-53.5 107l-282 -234h164q289 0 417.5 -117.5t128.5 -379.5v-410h-1028v158h856v231q0 150 -40 228.5t-128 110.5t-239 32h-371v137l690 565h230
l-168 -135q114 -33 114 -162z" />
    <glyph glyph-name="uni06AB.medi" unicode="&#x6ab;" horiz-adv-x="1243" 
d="M657 1165q0 -88 60.5 -88t83 22.5t22.5 65.5t-22.5 65.5t-83 22.5t-60.5 -88zM913 1165q0 -78 -47 -124t-123 -46t-120.5 39t-53.5 107l-282 -234h164q289 0 417.5 -117.5t128.5 -379.5v-252h277v-158h-1305v158h856v231q0 150 -40 228.5t-128 110.5t-239 32h-371v137
l690 565h230l-168 -135q114 -33 114 -162z" />
    <glyph glyph-name="uni06AB.fina" unicode="&#x6ab;" horiz-adv-x="2009" 
d="M1517.5 1077q38.5 0 61.5 22.5t23 65.5t-23 65.5t-61.5 22.5t-61 -22.5t-22.5 -65.5t22.5 -65.5t61 -22.5zM1692 1157q0 -68 -47 -115t-123 -47t-121 39t-53 107l-285 -234h166q279 0 406.5 -118.5t127.5 -378.5v-252h277v-158h-1432q-252 0 -381 115t-129 327
t107.5 330.5t304.5 136.5l20 -153q-137 -18 -199.5 -89t-62.5 -215q0 -294 342 -294h981v231q0 152 -39 229.5t-127 109.5t-241 32h-361v137l693 565h227l-166 -135q115 -33 115 -170z" />
    <glyph glyph-name="uni06AC.init" unicode="&#x6ac;" horiz-adv-x="1130" 
d="M997 0h-1028v158h856v231q0 151 -40 229t-128 110t-239 32h-371v137l690 565h230l-680 -555h164q289 1 417 -117t129 -380v-410zM-12 1462h170v-190h-170v190z" />
    <glyph glyph-name="uni06AC.medi" unicode="&#x6ac;" horiz-adv-x="1243" 
d="M825 389q0 151 -40 229t-128 110t-239 32h-371v137l690 565h230l-680 -555h164q289 1 417 -117t129 -380v-252h277v-158h-1305v158h856v231zM-12 1462h170v-190h-170v190z" />
    <glyph glyph-name="uni06AC.fina" unicode="&#x6ac;" horiz-adv-x="1794" 
d="M1372 158v1306h172v-1306h281v-158h-1217q-244 0 -377 119t-133 327t110 328t302 135l22 -153q-136 -14 -200 -86t-64 -213t89 -220t253 -79h762zM965 1026q-70 0 -70 -78v-108h223v-78h-356v78h47v110q0 72 40 111t111 39q134 0 154 -129l-80 -10q-6 35 -22 50t-47 15z
M868 1389h170v-191h-170v191z" />
    <glyph glyph-name="uni06AE.init" unicode="&#x6ae;" horiz-adv-x="1130" 
d="M997 0h-1028v158h856v231q0 151 -40 229t-128 110t-239 32h-371v137l690 565h230l-680 -555h164q289 1 417 -117t129 -380v-410zM496 -141h159v-170h-159v170zM240 -141h159v-170h-159v170zM369 -387h157v-172h-157v172z" />
    <glyph glyph-name="uni06AE.medi" unicode="&#x6ae;" horiz-adv-x="1243" 
d="M825 389q0 151 -40 229t-128 110t-239 32h-371v137l690 565h230l-680 -555h164q289 1 417 -117t129 -380v-252h277v-158h-1305v158h856v231zM496 -141h159v-170h-159v170zM240 -141h159v-170h-159v170zM369 -387h157v-172h-157v172z" />
    <glyph glyph-name="uni06AE.fina" unicode="&#x6ae;" horiz-adv-x="1794" 
d="M1372 158v1306h172v-1306h281v-158h-1217q-244 0 -377 119t-133 327t110 328t302 135l22 -153q-136 -14 -200 -86t-64 -213t89 -220t253 -79h762zM965 1026q-70 0 -70 -78v-108h223v-78h-356v78h47v110q0 72 40 111t111 39q134 0 154 -129l-80 -10q-6 35 -22 50t-47 15z
M979 -141h160v-170h-160v170zM723 -141h160v-170h-160v170zM852 -387h158v-172h-158v172z" />
    <glyph glyph-name="uni06B0.init" unicode="&#x6b0;" horiz-adv-x="1130" 
d="M657 1165q0 -88 82 -88q39 0 62 23q23 24 23 66t-23 65t-62 22q-82 0 -82 -88zM451 907q289 1 417 -117t129 -380v-410h-1028v158h856v231q0 151 -40 229t-128 110t-239 32h-371v137l690 565h230l-168 -135q115 -34 115 -170q0 -70 -48 -116q-47 -46 -123 -46
q-77 0 -121 39t-53 107l-282 -234h164zM-4 1118l420 344h151l-571 -469v125z" />
    <glyph glyph-name="uni06B0.medi" unicode="&#x6b0;" horiz-adv-x="1243" 
d="M657 1165q0 -88 82 -88q39 0 62 23q23 24 23 66t-23 65t-62 22q-82 0 -82 -88zM451 907q289 1 417 -117t129 -380v-252h277v-158h-1305v158h856v231q0 151 -40 229t-128 110t-239 32h-371v137l690 565h230l-168 -135q115 -34 115 -170q0 -70 -48 -116q-47 -46 -123 -46
q-77 0 -121 39t-53 107l-282 -234h164zM-4 1118l420 344h151l-571 -469v125z" />
    <glyph glyph-name="uni06B0.fina" unicode="&#x6b0;" horiz-adv-x="2009" 
d="M1518 1077q40 0 62 23q22 24 22 66t-23 65t-61 23t-62 -24q-22 -22 -22 -65t22 -65t62 -23zM1577 1327q115 -33 115 -170q0 -68 -47 -115t-123 -47t-121 39t-53 107l-285 -234h166q279 0 407 -119t127 -378v-252h277v-158h-1432q-252 0 -381 116t-129 327t108 329
t304 137l20 -153q-137 -18 -199 -89t-63 -206q0 -305 342 -303h981v231q0 151 -39 229t-127 110t-241 32h-361v137l693 565h227zM772 1128l406 334h151l-557 -458v124z" />
    <glyph glyph-name="uni06B2.init" unicode="&#x6b2;" horiz-adv-x="1142" 
d="M502 -147h166v-191h-166v191zM229 -147h166v-191h-166v191zM997 0h-1028v158h856v231q0 151 -40 229t-128 110t-239 32h-371v137l690 565h230l-680 -555h164q289 1 417 -117t129 -380v-410zM-4 1118l420 344h151l-571 -469v125z" />
    <glyph glyph-name="uni06B2.medi" unicode="&#x6b2;" horiz-adv-x="1243" 
d="M502 -147h166v-191h-166v191zM229 -147h166v-191h-166v191zM825 389q0 151 -40 229t-128 110t-239 32h-371v137l690 565h230l-680 -555h164q289 1 417 -117t129 -380v-252h277v-158h-1305v158h856v231zM-4 1118l420 344h151l-571 -469v125z" />
    <glyph glyph-name="uni06B2.fina" unicode="&#x6b2;" horiz-adv-x="2009" 
d="M1065 -141h166v-191h-166v191zM793 -141h165v-191h-165v191zM268 461q0 -305 342 -303h981v231q0 151 -39 229t-127 110t-241 32h-361v137l693 565h227l-680 -555h166q279 0 407 -119t127 -378v-252h277v-158h-1432q-252 0 -381 116t-129 327t110 331t302 135l22 -153
q-136 -14 -200 -86t-64 -209zM772 1128l406 334h151l-557 -458v124z" />
    <glyph glyph-name="uni06B4.init" unicode="&#x6b4;" horiz-adv-x="1142" 
d="M997 0h-1028v158h856v231q0 151 -40 229t-128 110t-239 32h-371v137l690 565h230l-680 -555h164q289 1 417 -117t129 -380v-410zM-4 1118l420 344h151l-571 -469v125zM78 1632h160v-172h-160v172zM-178 1632h160v-172h-160v172zM-49 1878h158v-170h-158v170z" />
    <glyph glyph-name="uni06B4.medi" unicode="&#x6b4;" horiz-adv-x="1243" 
d="M78 1632h160v-172h-160v172zM-178 1632h160v-172h-160v172zM-49 1878h158v-170h-158v170zM825 389q0 151 -40 229t-128 110t-239 32h-371v137l690 565h230l-680 -555h164q289 1 417 -117t129 -380v-252h277v-158h-1305v158h856v231zM-4 1118l420 344h151l-571 -469v125z
" />
    <glyph glyph-name="uni06B4.fina" unicode="&#x6b4;" horiz-adv-x="2009" 
d="M842 1632h159v-172h-159v172zM586 1632h159v-172h-159v172zM715 1878h157v-170h-157v170zM268 461q0 -305 342 -303h981v231q0 151 -39 229t-127 110t-241 32h-361v137l693 565h227l-680 -555h166q279 0 407 -119t127 -378v-252h277v-158h-1432q-252 0 -381 116t-129 327
t110 331t302 135l22 -153q-136 -14 -200 -86t-64 -209zM772 1128l406 334h151l-557 -458v124z" />
    <glyph glyph-name="uni06B5.init" unicode="&#x6b5;" horiz-adv-x="571" 
d="M-31 158h289v1304h172v-1462h-461v158zM399 1563h-110l-166 280h104l117 -203l121 203h100z" />
    <glyph glyph-name="uni06B5.medi" unicode="&#x6b5;" horiz-adv-x="690" 
d="M-31 158h289v1304h172v-1304h291v-158h-752v158zM399 1563h-110l-166 280h104l117 -203l121 203h100z" />
    <glyph glyph-name="uni06B5.fina" unicode="&#x6b5;" horiz-adv-x="1249" 
d="M991 158h289v-158h-291q-10 -209 -128 -324q-119 -114 -335 -114t-339 121q-122 121 -121 346q0 169 92 329l157 -41q-79 -147 -79 -295t78 -230q78 -81 218 -81q142 0 214 85t73 249v1417h172v-1304zM961 1563h-111l-166 280h104l117 -203l121 203h100z" />
    <glyph glyph-name="uni06B6.init" unicode="&#x6b6;" horiz-adv-x="571" 
d="M-31 158h289v1304h172v-1462h-461v158zM258 1753h170v-190h-170v190z" />
    <glyph glyph-name="uni06B6.medi" unicode="&#x6b6;" horiz-adv-x="690" 
d="M-31 158h289v1304h172v-1304h291v-158h-752v158zM258 1753h170v-190h-170v190z" />
    <glyph glyph-name="uni06B6.fina" unicode="&#x6b6;" horiz-adv-x="1249" 
d="M991 158h289v-158h-291q-10 -209 -128 -324q-119 -114 -335 -114t-339 121q-122 121 -121 346q0 169 92 329l157 -41q-79 -147 -79 -295t78 -230q78 -81 218 -81q142 0 214 85t73 249v1417h172v-1304zM819 1753h170v-190h-170v190z" />
    <glyph glyph-name="uni06B7.init" unicode="&#x6b7;" horiz-adv-x="571" 
d="M-31 158h289v1304h172v-1462h-461v158zM393 1735h160v-172h-160v172zM137 1735h160v-172h-160v172zM266 1980h158v-170h-158v170z" />
    <glyph glyph-name="uni06B7.medi" unicode="&#x6b7;" horiz-adv-x="690" 
d="M-31 158h289v1304h172v-1304h291v-158h-752v158zM393 1735h160v-172h-160v172zM137 1735h160v-172h-160v172zM266 1980h158v-170h-158v170z" />
    <glyph glyph-name="uni06B7.fina" unicode="&#x6b7;" horiz-adv-x="1249" 
d="M991 158h289v-158h-291q-10 -209 -128 -324q-119 -114 -335 -114t-339 121q-122 121 -121 346q0 169 92 329l157 -41q-79 -147 -79 -295t78 -230q78 -81 218 -81q142 0 214 85t73 249v1417h172v-1304zM950 1733h160v-172h-160v172zM694 1733h160v-172h-160v172zM823 1978
h158v-170h-158v170z" />
    <glyph glyph-name="uni06B8.init" unicode="&#x6b8;" horiz-adv-x="571" 
d="M-31 158h289v1304h172v-1462h-461v158zM270 -141h160v-170h-160v170zM14 -141h160v-170h-160v170zM143 -387h158v-172h-158v172z" />
    <glyph glyph-name="uni06B8.medi" unicode="&#x6b8;" horiz-adv-x="690" 
d="M-31 158h289v1304h172v-1304h291v-158h-752v158zM270 -141h160v-170h-160v170zM14 -141h160v-170h-160v170zM143 -387h158v-172h-158v172z" />
    <glyph glyph-name="uni06B8.fina" unicode="&#x6b8;" horiz-adv-x="1249" 
d="M991 158h289v-158h-291q-10 -209 -128 -324q-119 -114 -335 -114t-339 121q-122 121 -121 346q0 169 92 329l157 -41q-79 -147 -79 -295t78 -230q78 -81 218 -81q142 0 214 85t73 249v1417h172v-1304zM596 -559h160v-170h-160v170zM340 -559h160v-170h-160v170zM469 -805
h158v-172h-158v172z" />
    <glyph glyph-name="uni06B9.init" unicode="&#x6b9;" horiz-adv-x="571" 
d="M430 729v-729h-461v158h289v553q0 88 -37 151l156 70q53 -71 53 -203zM244 1284h170v-190h-170v190zM260 -147h170v-191h-170v191z" />
    <glyph glyph-name="uni06B9.medi" unicode="&#x6b9;" horiz-adv-x="690" 
d="M-31 158h289v747h172v-747h291v-158h-752v158zM258 1284h170v-190h-170v190zM258 -147h170v-191h-170v191z" />
    <glyph glyph-name="uni06B9.fina" unicode="&#x6b9;" horiz-adv-x="1249" 
d="M539 -289q281 0 280 334v860h172v-747h289v-158h-291q-10 -211 -126 -325q-117 -113 -333 -113t-341 122q-124 122 -123 347q0 175 92 331l157 -40q-79 -143 -79 -294t78 -234t225 -83zM496 1284h170v-190h-170v190zM463 -565h170v-191h-170v191z" />
    <glyph glyph-name="uni06BC.init" unicode="&#x6bc;" horiz-adv-x="571" 
d="M201 -172q39 0 61 24t23 66q0 42 -23 65q-24 23 -62 23t-60 -24t-22 -65t22 -65t61 -24zM430 729v-729h-76q20 -36 20 -100t-47 -109q-48 -45 -125 -45t-125 45t-48 111t20 98h-80v158h289v553q0 88 -37 151l156 70q53 -71 53 -203zM244 1284h170v-190h-170v190z" />
    <glyph glyph-name="uni06BC.medi" unicode="&#x6bc;" horiz-adv-x="690" 
d="M176 -84q0 -40 22 -64t60 -24q40 0 62 24t22 66t-23 65q-23 24 -61 23q-82 0 -82 -90zM86 -100q0 64 20 100h-137v158h289v747h172v-747h291v-158h-309q20 -36 20 -100t-48 -109t-125 -45t-125 45t-48 109zM258 1284h170v-190h-170v190z" />
    <glyph glyph-name="uni06BC.fina" unicode="&#x6bc;" horiz-adv-x="1249" 
d="M547 -610q39 0 61 24t23 64q0 40 -23 64q-24 24 -62 24t-61 -24t-23 -64t23 -65q23 -23 62 -23zM721 -534q0 -68 -49 -114t-126 -46t-125 46t-48 114t28 110q-163 35 -249 151t-86 297t92 338l157 -40q-79 -145 -79 -295t78 -233t225 -83q281 0 280 334v860h172v-747h289
v-158h-291q-10 -170 -87 -278t-214 -142q33 -46 33 -114zM496 1284h170v-190h-170v190z" />
    <glyph glyph-name="uni06BD.init" unicode="&#x6bd;" horiz-adv-x="571" 
d="M430 729v-729h-461v158h289v553q0 88 -37 151l156 70q53 -71 53 -203zM262 -141h160v-170h-160v170zM6 -141h160v-170h-160v170zM135 -387h158v-172h-158v172z" />
    <glyph glyph-name="uni06BD.medi" unicode="&#x6bd;" horiz-adv-x="690" 
d="M-31 158h289v747h172v-747h291v-158h-752v158zM264 -141h160v-170h-160v170zM8 -141h160v-170h-160v170zM137 -387h158v-172h-158v172z" />
    <glyph glyph-name="uni06BD.fina" unicode="&#x6bd;" horiz-adv-x="1249" 
d="M539 -289q281 0 280 334v860h172v-747h289v-158h-291q-10 -211 -126 -325q-117 -113 -333 -113t-341 122q-124 122 -123 347q0 175 92 331l157 -40q-79 -143 -79 -294t78 -234t225 -83zM629 1231h159v-172h-159v172zM373 1231h159v-172h-159v172zM502 1477h157v-170h-157
v170z" />
    <glyph glyph-name="uni06BF.init" unicode="&#x6bf;" horiz-adv-x="1110" 
d="M-31 158h760v323q0 170 -57 239q-56 68 -206 68t-207 -76q-30 -40 -48 -112l-166 18q29 164 134 242t311 78t308 -104t103 -330v-346h148v-158h-1080v158zM393 1284h170v-190h-170v190zM535 -141h159v-170h-159v170zM279 -141h159v-170h-159v170zM408 -387h157v-172h-157
v172z" />
    <glyph glyph-name="uni06BF.medi" unicode="&#x6bf;" horiz-adv-x="1157" 
d="M733 481q0 170 -57 239q-58 68 -188 68t-188 -42t-85 -146l-166 18q29 164 134 242t311 78t310 -104t103 -330v-346h281v-158h-1219v158h764v323zM393 1284h170v-190h-170v190zM535 -141h159v-170h-159v170zM279 -141h159v-170h-159v170zM408 -387h157v-172h-157v172z
" />
    <glyph glyph-name="uni06BF.fina" unicode="&#x6bf;" horiz-adv-x="1267" 
d="M500 0q-131 0 -203 -65t-72 -185q0 -258 324 -258q258 0 315 205h174q-28 -166 -158 -261t-350 -95t-348 105q-127 104 -127 298t123 304t334 110h338v323q0 170 -57 239q-57 68 -207 68t-206 -76q-30 -40 -48 -112l-166 18q29 164 134 242t311 78q207 0 309 -104
t102 -330v-346h276v-158h-798zM520 1284h170v-190h-170v190zM600 -98h121v-133h-121v133zM408 -98h120v-133h-120v133zM506 -291h117v-135h-117v135z" />
    <glyph glyph-name="uni06C2.fina" unicode="&#x6c2;" horiz-adv-x="1011" 
d="M219 502q-68 0 -149 -23l-35 139q98 31 192 31q172 0 280.5 -74.5t180.5 -242.5l74 -174h280v-158h-391l-116 268q-55 127 -127 180.5t-189 53.5zM254 954v-108h223v-78h-356v78h47v110q0 72 40 111t111 39q134 0 154 -129l-80 -10q-11 65 -69 65q-33 0 -51.5 -20.5
t-18.5 -57.5z" />
    <glyph glyph-name="uni06C3.fina" unicode="&#x6c3;" horiz-adv-x="997" 
d="M207 502q-68 0 -150 -23l-34 139q98 31 192 31q172 0 280.5 -74.5t180.5 -242.5l74 -174h280v-158h-391l-117 268q-55 127 -126.5 180.5t-188.5 53.5zM330 969h166v-191h-166v191zM57 969h166v-191h-166v191z" />
    <glyph glyph-name="uni06C4.fina" unicode="&#x6c4;" horiz-adv-x="1148" 
d="M280.5 -260q38.5 0 61.5 22.5t23 65.5t-23 65.5t-61.5 22.5t-60 -23.5t-21.5 -64.5t21.5 -64.5t60 -23.5zM528 793q-256 1 -256 -303q0 -154 95.5 -243t273.5 -89h131v311q0 170 -58.5 247t-185.5 77zM109 -172q0 76 48 124t125 48t124 -47t47 -109t-23 -104
q43 -12 109 -12q127 0 180 57t53 195v28h-100q-274 0 -423 127t-149 347t117 338t317 118t305 -113.5t105 -330.5v-336h236v-158h-236q0 -219 -98 -319.5t-305 -100.5t-319.5 65.5t-112.5 182.5z" />
    <glyph glyph-name="uni06CA.fina" unicode="&#x6ca;" horiz-adv-x="1148" 
d="M528 793q-256 1 -256 -303q0 -154 96 -243t273 -89h131v311q0 170 -58 247t-186 77zM944 158h236v-158h-236q0 -219 -98 -319q-98 -101 -298 -101t-307 84q-108 84 -124 242h164q37 -178 256 -178q129 0 182 57t53 195v20h-100q-272 0 -422 130t-150 350t117 340
q117 118 317 118t305 -114t105 -330v-336zM588 1274h166v-191h-166v191zM315 1274h166v-191h-166v191z" />
    <glyph glyph-name="uni06CD.fina" unicode="&#x6cd;" horiz-adv-x="1779" 
d="M991 47q0 -233 -117 -359q-116 -126 -338 -126t-347 122q-124 122 -123 347q0 175 92 331l157 -40q-79 -143 -79 -294t78 -234t225 -83q281 0 280 334v451q0 410 369 409h330v-747h292v-158h-464v756h-158q-102 0 -150 -60t-47 -190v-459z" />
    <glyph glyph-name="uni06CE.init" unicode="&#x6ce;" horiz-adv-x="571" 
d="M430 729v-729h-461v158h289v553q0 88 -37 151l156 70q53 -71 53 -203zM377 1063h-111l-166 280h105l117 -202l120 202h101zM264 -147h166v-191h-166v191zM-8 -147h166v-191h-166v191z" />
    <glyph glyph-name="uni06CE.medi" unicode="&#x6ce;" horiz-adv-x="690" 
d="M-31 158h289v747h172v-747h291v-158h-752v158zM375 1063h-111l-166 280h105l116 -202l121 202h101zM260 -147h166v-191h-166v191zM-12 -147h166v-191h-166v191z" />
    <glyph glyph-name="uni06CE.fina" unicode="&#x6ce;" horiz-adv-x="1779" 
d="M991 47q0 -233 -117 -359q-116 -126 -338 -126t-347 122q-124 122 -123 347q0 175 92 331l157 -40q-79 -143 -79 -294t78 -234t225 -83q281 0 280 334v451q0 410 369 409h330v-747h292v-158h-464v756h-158q-102 0 -150 -60t-47 -190v-459zM352 563h-110l-166 281h104
l117 -203l121 203h100z" />
    <glyph glyph-name="uni06CF.fina" unicode="&#x6cf;" horiz-adv-x="1148" 
d="M528 793q-256 1 -256 -303q0 -154 96 -243t273 -89h131v311q0 170 -58 247t-186 77zM944 158h236v-158h-236q0 -219 -98 -319q-98 -101 -298 -101t-307 84q-108 84 -124 242h164q37 -178 256 -178q129 0 182 57t53 195v20h-100q-272 0 -422 130t-150 350t117 340
q117 118 317 118t305 -114t105 -330v-336zM438 1284h170v-190h-170v190z" />
    <glyph glyph-name="uni06D1.init" unicode="&#x6d1;" horiz-adv-x="571" 
d="M430 729v-729h-461v158h289v553q0 88 -37 151l156 70q53 -71 53 -203zM268 -141h160v-170h-160v170zM12 -141h160v-170h-160v170zM141 -387h158v-172h-158v172z" />
    <glyph glyph-name="uni06D1.medi" unicode="&#x6d1;" horiz-adv-x="690" 
d="M-31 158h289v747h172v-747h291v-158h-752v158zM264 -141h160v-170h-160v170zM8 -141h160v-170h-160v170zM137 -387h158v-172h-158v172z" />
    <glyph glyph-name="uni06D1.fina" unicode="&#x6d1;" horiz-adv-x="1779" 
d="M991 47q0 -233 -117 -359q-116 -126 -338 -126t-347 122q-124 122 -123 347q0 175 92 331l157 -40q-79 -143 -79 -294t78 -234t225 -83q281 0 280 334v451q0 410 369 409h330v-747h292v-158h-464v756h-158q-102 0 -150 -60t-47 -190v-459zM592 -561h160v-170h-160v170z
M336 -561h160v-170h-160v170zM465 -807h158v-172h-158v172z" />
    <glyph glyph-name="afii57534.fina" unicode="&#x6d5;" horiz-adv-x="1146" 
d="M270 488.5q0 -152.5 95.5 -241.5t275.5 -89h129v311q0 170 -58.5 247t-183.5 77t-191.5 -76t-66.5 -228.5zM942 158h236v-158h-506q-274 0 -424 130t-150 350.5t118 339t316.5 118.5t304 -113.5t105.5 -330.5v-336z" />
    <glyph glyph-name="uni06EE.fina" unicode="&#x6ee;" horiz-adv-x="1185" 
d="M453 938q499 0 499 -588v-192h265v-158h-1156v158h717v172q0 236 -82 344t-258 108q-113 0 -219 -41l-41 152q129 45 275 45zM459 1343h110l166 -280h-102l-119 203l-121 -203h-100z" />
    <glyph glyph-name="uni06EF.fina" unicode="&#x6ef;" horiz-adv-x="739" 
d="M309 -115v1020h170v-747h291v-158h-291v-100q-1 -170 -73 -254t-222 -84q-86 0 -184 28l29 140q92 -18 129 -19q80 0 116 42t35 132zM338 1343h111l165 -280h-102l-119 203l-121 -203h-100z" />
    <glyph glyph-name="uni06FA.init" unicode="&#x6fa;" horiz-adv-x="1667" 
d="M1528 0h-1559v158h289v747h172v-747h381v747h172v-747h373v553q0 88 -37 151l154 70q53 -71 55 -203v-729zM948 1231h160v-172h-160v172zM692 1231h160v-172h-160v172zM821 1477h158v-170h-158v170zM815 -147h170v-191h-170v191z" />
    <glyph glyph-name="uni06FA.medi" unicode="&#x6fa;" horiz-adv-x="1785" 
d="M1528 158h289v-158h-1848v158h289v747h172v-747h381v747h172v-747h373v553q0 88 -37 151l154 70q53 -71 55 -203v-571zM948 1231h160v-172h-160v172zM692 1231h160v-172h-160v172zM821 1477h158v-170h-158v170zM815 -147h170v-191h-170v191z" />
    <glyph glyph-name="uni06FA.fina" unicode="&#x6fa;" horiz-adv-x="2347" 
d="M2089 729v-571h289v-158h-1389q-10 -211 -127 -325q-116 -113 -332 -113t-341 122q-124 122 -123 347q0 175 92 331l157 -40q-79 -143 -79 -294t78 -234t225 -83q281 0 280 334v860h172v-747h381v747h172v-747h373v553q0 88 -37 151l154 70q55 -74 55 -203zM1509 1231
h160v-172h-160v172zM1253 1231h160v-172h-160v172zM1382 1477h158v-170h-158v170zM1374 -147h170v-191h-170v191z" />
    <glyph glyph-name="uni06FB.init" unicode="&#x6fb;" horiz-adv-x="1587" 
d="M1456 0h-1487v158h293v747h172v-252q86 137 222 211t302 74q244 0 371 -141t127 -414v-383zM942 786q-234 0 -372 -139t-138 -375v-114h852v182q0 230 -83 338t-259 108zM813 1284h170v-190h-170v190zM813 -147h170v-191h-170v191z" />
    <glyph glyph-name="uni06FB.medi" unicode="&#x6fb;" horiz-adv-x="1667" 
d="M958 938q244 0 371 -141t127 -414v-225h242v-158h-1729v158h293v747h172v-252q86 137 222 211t302 74zM942 786q-234 0 -372 -139t-138 -375v-114h852v182q0 230 -83 338t-259 108zM813 1284h170v-190h-170v190zM813 -147h170v-191h-170v191z" />
    <glyph glyph-name="uni06FB.fina" unicode="&#x6fb;" horiz-adv-x="2224" 
d="M1513 938q246 0 372 -141t126 -414v-225h244v-158h-1266q-10 -211 -127 -325q-118 -113 -334 -113t-340 123q-123 123 -122 346q0 172 92 331l157 -36q-79 -143 -79 -295t78 -236t223 -84q283 0 282 334v860h172v-252q86 137 222 211t300 74zM1499 786q-233 0 -371 -139
t-139 -375v-114h850v182q0 230 -82 338t-258 108zM1368 1284h170v-190h-170v190zM1368 -147h170v-191h-170v191z" />
    <glyph glyph-name="uni06FC.init" unicode="&#x6fc;" horiz-adv-x="1200" 
d="M252 498q0 220 110 330t314 110q206 0 304 -77t126 -243l-166 -18q-25 106 -79 148t-184 40q-130 0 -192 -71q-61 -72 -61 -236v-323h715v-158h-1170v158h283v340zM606 1284h170v-190h-170v190zM606 -147h170v-191h-170v191z" />
    <glyph glyph-name="uni06FC.medi" unicode="&#x6fc;" horiz-adv-x="1146" 
d="M252 498q0 220 110 330t314 110q206 0 304 -77t126 -243l-166 -18q-25 106 -79 148t-184 40q-130 0 -192 -71q-61 -72 -61 -236v-323h754v-158h-1209v158h283v340zM606 1284h170v-190h-170v190zM606 -147h170v-191h-170v191z" />
    <glyph glyph-name="uni06FC.fina" unicode="&#x6fc;" horiz-adv-x="1286" 
d="M389 498q0 440 445 440q186 0 283 -77t126 -243l-166 -18q-25 106 -79 148t-184 40q-130 0 -191 -70t-62 -237v-323h756v-158h-848q-129 0 -197 -65t-67 -185q0 -258 323 -258q258 0 316 205h174q-27 -166 -158 -261q-132 -95 -352 -95t-346 105q-126 104 -127 288
q0 184 94 290t260 123v351zM741 1284h170v-190h-170v190zM451 -158h149v-172h-149v172z" />
    <glyph glyph-name="uni06FF.init" unicode="&#x6ff;" horiz-adv-x="1560" 
d="M762 487q0 158 -50 233t-156 75t-160 -73q-56 -73 -56 -210q0 -184 101 -270t321 -86v331zM932 496v-340h325v450q0 162 -57 230q-56 68 -192 69q-136 0 -193 -57q117 -100 117 -352zM-31 158h377q-86 53 -133 146t-47 212q0 196 105 310t286 114q53 0 117 -12
q109 125 331 125q222 -1 323 -105t102 -321v-627h-1461v158zM940 1456h111l166 -280h-103l-119 202l-121 -202h-100z" />
    <glyph glyph-name="uni06FF.medi" unicode="&#x6ff;" horiz-adv-x="1146" 
d="M799 -170q0 82 -79 128t-220 46h-127v-49q0 -131 56 -193t173 -63q197 0 197 131zM377 553v-399h69q147 0 238 104q90 104 90 274q0 260 -199 261q-198 0 -198 -240zM-31 0v158h236v372q0 192 99 300q100 108 276 108t271 -102t95 -289q0 -127 -54 -227t-155 -162h441
v-158h-344q59 -31 94 -84t35 -113q1 -117 -93 -181t-278 -64t-285 97q-102 97 -102 284v61h-236zM520 1339h111l166 -280h-103l-119 203l-120 -203h-101z" />
    <glyph glyph-name="uni06FF.fina" unicode="&#x6ff;" horiz-adv-x="1071" 
d="M723 -170q0 82 -79 128t-220 46h-127v-49q0 -131 56 -193t173 -63q197 0 197 131zM301 553v-399h70q147 0 237 104t90 274q0 260 -198 261q-199 0 -199 -240zM129 530q0 192 99 300q98 108 274 108t272 -103t96 -288q0 -127 -54 -227t-154 -162h440v-158h-344
q59 -31 94 -84t35 -113q0 -117 -93 -181t-277 -64t-286 97t-102 284v591zM446 1339h111l166 -280h-102l-119 203l-121 -203h-100z" />
    <glyph glyph-name="uniFB50" unicode="&#x671;" horiz-adv-x="473" arabic-form="isolated" 
d="M152 0v1462h172v-1462h-172zM262 1759q-43 0 -76 -25.5t-32 -84.5v-15h192v33q0 92 -84 92zM272.5 1837q78.5 0 118 -40t39.5 -109v-129h-401v75h39v201h77v-66q49 68 127.5 68z" />
    <glyph glyph-name="uniFB51" unicode="&#x671;" horiz-adv-x="571" arabic-form="final" 
d="M602 0h-461v1462h172v-1304h289v-158zM254 1759q-43 0 -76 -25.5t-33 -84.5v-15h193v33q0 92 -84 92zM264 1837q78 0 118 -40t40 -109v-129h-402v75h39v201h78v-66q49 68 127 68z" />
    <glyph glyph-name="uniFB52" unicode="&#x67b;" horiz-adv-x="1685" arabic-form="isolated" 
d="M608 0q-244 0 -377 119t-133 327t110 328t302 135l22 -153q-136 -14 -200 -86t-64 -213t89 -220t253 -79h762v747h172v-905h-936zM817 -141h168v-166h-168v166zM817 -391h168v-168h-168v168z" />
    <glyph glyph-name="uniFB53" unicode="&#x67b;" horiz-adv-x="1794" arabic-form="final" 
d="M1372 158v747h172v-747h281v-158h-1217q-244 0 -377 119t-133 327t110 328t302 135l22 -153q-136 -14 -200 -86t-64 -213t89 -220t253 -79h762zM813 -141h168v-166h-168v166zM813 -391h168v-168h-168v168z" />
    <glyph glyph-name="uniFB54" unicode="&#x67b;" horiz-adv-x="571" arabic-form="initial" 
d="M430 729v-729h-461v158h289v553q0 88 -37 151l156 70q53 -71 53 -203zM262 -141h168v-166h-168v166zM262 -391h168v-168h-168v168z" />
    <glyph glyph-name="uniFB55" unicode="&#x67b;" horiz-adv-x="690" arabic-form="medial" 
d="M-31 158h289v747h172v-747h291v-158h-752v158zM262 -141h168v-166h-168v166zM262 -391h168v-168h-168v168z" />
    <glyph glyph-name="uniFB56" unicode="&#x67e;" horiz-adv-x="1685" arabic-form="isolated" 
d="M608 0q-244 0 -377 119t-133 327t109.5 327.5t302.5 135.5l22 -153q-135 -14 -199.5 -86t-64.5 -213t89 -220t253 -79h762v747h172v-905h-936zM979 -141h160v-170h-160v170zM723 -141h160v-170h-160v170zM852 -387h158v-172h-158v172z" />
    <glyph glyph-name="uniFB57" unicode="&#x67e;" horiz-adv-x="1794" arabic-form="final" 
d="M1372 158v747h172v-747h281v-158h-1217q-244 0 -377 119t-133 327t109.5 327.5t302.5 135.5l22 -153q-135 -14 -199.5 -86t-64.5 -213t89 -220t253 -79h762zM979 -141h160v-170h-160v170zM723 -141h160v-170h-160v170zM852 -387h158v-172h-158v172z" />
    <glyph glyph-name="uniFB58" unicode="&#x67e;" horiz-adv-x="571" arabic-form="initial" 
d="M430 729v-729h-461v158h289v553q0 88 -37 151l156 70q53 -71 53 -203zM262 -141h160v-170h-160v170zM6 -141h160v-170h-160v170zM135 -387h158v-172h-158v172z" />
    <glyph glyph-name="uniFB59" unicode="&#x67e;" horiz-adv-x="690" arabic-form="medial" 
d="M-31 158h289v747h172v-747h291v-158h-752v158zM264 -141h160v-170h-160v170zM8 -141h160v-170h-160v170zM137 -387h158v-172h-158v172z" />
    <glyph glyph-name="uniFB5A" unicode="&#x680;" horiz-adv-x="1685" arabic-form="isolated" 
d="M608 0q-244 0 -377 119t-133 327t110 328t302 135l22 -153q-136 -14 -200 -86t-64 -213t89 -220t253 -79h762v747h172v-905h-936zM942 -391h156v-168h-156v168zM702 -391h156v-168h-156v168zM942 -141h156v-168h-156v168zM702 -141h156v-168h-156v168z" />
    <glyph glyph-name="uniFB5B" unicode="&#x680;" horiz-adv-x="1794" arabic-form="final" 
d="M1372 158v747h172v-747h281v-158h-1217q-244 0 -377 119t-133 327t110 328t302 135l22 -153q-136 -14 -200 -86t-64 -213t89 -220t253 -79h762zM973 -391h155v-168h-155v168zM733 -391h156v-168h-156v168zM973 -141h155v-168h-155v168zM733 -141h156v-168h-156v168z" />
    <glyph glyph-name="uniFB5C" unicode="&#x680;" horiz-adv-x="571" arabic-form="initial" 
d="M430 729v-729h-461v158h289v553q0 88 -37 151l156 70q53 -71 53 -203zM266 -391h156v-168h-156v168zM27 -391h155v-168h-155v168zM266 -141h156v-168h-156v168zM27 -141h155v-168h-155v168z" />
    <glyph glyph-name="uniFB5D" unicode="&#x680;" horiz-adv-x="690" arabic-form="medial" 
d="M-31 158h289v747h172v-747h291v-158h-752v158zM266 -391h156v-168h-156v168zM27 -391h155v-168h-155v168zM266 -141h156v-168h-156v168zM27 -141h155v-168h-155v168z" />
    <glyph glyph-name="uniFB5E" unicode="&#x67a;" horiz-adv-x="1685" arabic-form="isolated" 
d="M608 0q-244 0 -377 119t-133 327t110 328t302 135l22 -153q-136 -14 -200 -86t-64 -213t89 -220t253 -79h762v747h172v-905h-936zM834 1487h167v-166h-167v166zM834 1237h167v-168h-167v168z" />
    <glyph glyph-name="uniFB5F" unicode="&#x67a;" horiz-adv-x="1794" arabic-form="final" 
d="M1372 158v747h172v-747h281v-158h-1217q-244 0 -377 119t-133 327t110 328t302 135l22 -153q-136 -14 -200 -86t-64 -213t89 -220t253 -79h762zM834 1477h167v-166h-167v166zM834 1227h167v-168h-167v168z" />
    <glyph glyph-name="uniFB60" unicode="&#x67a;" horiz-adv-x="571" arabic-form="initial" 
d="M430 729v-729h-461v158h289v553q0 88 -37 151l156 70q53 -71 53 -203zM246 1477h168v-166h-168v166zM246 1227h168v-168h-168v168z" />
    <glyph glyph-name="uniFB61" unicode="&#x67a;" horiz-adv-x="690" arabic-form="medial" 
d="M-31 158h289v747h172v-747h291v-158h-752v158zM252 1477h168v-166h-168v166zM252 1227h168v-168h-168v168z" />
    <glyph glyph-name="uniFB62" unicode="&#x67f;" horiz-adv-x="1685" arabic-form="isolated" 
d="M608 0q-244 0 -377 119t-133 327t110 328t302 135l22 -153q-136 -14 -200 -86t-64 -213t89 -220t253 -79h762v747h172v-905h-936zM965 1237h157v-168h-157v168zM717 1237h153v-168h-153v168zM965 1487h157v-168h-157v168zM717 1487h153v-168h-153v168z" />
    <glyph glyph-name="uniFB63" unicode="&#x67f;" horiz-adv-x="1794" arabic-form="final" 
d="M1372 158v747h172v-747h281v-158h-1217q-244 0 -377 119t-133 327t110 328t302 135l22 -153q-136 -14 -200 -86t-64 -213t89 -220t253 -79h762zM965 1227h157v-168h-157v168zM717 1227h153v-168h-153v168zM965 1477h157v-168h-157v168zM717 1477h153v-168h-153v168z" />
    <glyph glyph-name="uniFB64" unicode="&#x67f;" horiz-adv-x="571" arabic-form="initial" 
d="M430 729v-729h-461v158h289v553q0 88 -37 151l156 70q53 -71 53 -203zM256 1227h158v-168h-158v168zM8 1227h154v-168h-154v168zM256 1477h158v-168h-158v168zM8 1477h154v-168h-154v168z" />
    <glyph glyph-name="uniFB65" unicode="&#x67f;" horiz-adv-x="690" arabic-form="medial" 
d="M-31 158h289v747h172v-747h291v-158h-752v158zM266 1227h158v-168h-158v168zM18 1227h154v-168h-154v168zM266 1477h158v-168h-158v168zM18 1477h154v-168h-154v168z" />
    <glyph glyph-name="uniFB66" unicode="&#x679;" horiz-adv-x="1685" arabic-form="isolated" 
d="M608 0q-244 0 -377 119t-133 327t109.5 327.5t302.5 135.5l22 -153q-135 -14 -199.5 -86t-64.5 -213t89 -220t253 -79h762v747h172v-905h-936zM967 1255q-45 0 -78 -27.5t-33 -84.5v-17h197v37q0 92 -86 92zM979 1331q76 0 116 -40t40 -109v-129h-402v73h39v318h80v-176
q51 63 127 63z" />
    <glyph glyph-name="uniFB67" unicode="&#x679;" horiz-adv-x="1794" arabic-form="final" 
d="M1372 158v747h172v-747h281v-158h-1217q-244 0 -377 119t-133 327t109.5 327.5t302.5 135.5l22 -153q-135 -14 -199.5 -86t-64.5 -213t89 -220t253 -79h762zM967 1266q-45 0 -78 -28t-33 -85v-16h197v37q0 92 -86 92zM979 1341q76 0 116 -39.5t40 -109.5v-129h-402v74h39
v317h80v-176q51 63 127 63z" />
    <glyph glyph-name="uniFB68" unicode="&#x679;" horiz-adv-x="571" arabic-form="initial" 
d="M430 729v-729h-461v158h289v553q0 88 -37 151l156 70q53 -71 53 -203zM262 1266q-45 0 -78 -28t-32 -85v-16h196v37q0 92 -86 92zM274.5 1341q76.5 0 116 -39.5t39.5 -109.5v-129h-401v74h39v317h79v-176q51 63 127.5 63z" />
    <glyph glyph-name="uniFB69" unicode="&#x679;" horiz-adv-x="690" arabic-form="medial" 
d="M-31 158h289v747h172v-747h291v-158h-752v158zM262 1266q-45 0 -78 -28t-32 -85v-16h196v37q0 92 -86 92zM274.5 1341q76.5 0 116 -39.5t39.5 -109.5v-129h-401v74h39v317h79v-176q51 63 127.5 63z" />
    <glyph glyph-name="uniFB6A" unicode="&#x6a4;" horiz-adv-x="1777" arabic-form="isolated" 
d="M809 510q0 195 117.5 311.5t314.5 116.5t301.5 -114.5t104.5 -331.5v-492h-1039q-252 0 -381 115.5t-129 327t107.5 330t304.5 136.5l20 -153q-137 -18 -199.5 -89t-62.5 -215q0 -294 342 -294h381q-84 51 -133 145t-49 207zM1475 158v334q0 154 -59.5 227.5t-181.5 73.5
t-187.5 -76t-65.5 -227.5t92 -241.5t262 -90h140zM1290 1214h160v-172h-160v172zM1034 1214h160v-172h-160v172zM1163 1460h158v-170h-158v170z" />
    <glyph glyph-name="uniFB6B" unicode="&#x6a4;" horiz-adv-x="1851" arabic-form="final" 
d="M809 508q0 195 117.5 312.5t314.5 117.5t301.5 -114.5t104.5 -331.5v-334h235v-158h-1274q-252 0 -381 115.5t-129 327t107.5 330t304.5 136.5l20 -153q-137 -18 -199.5 -89t-62.5 -215q0 -294 342 -294h381q-84 51 -133 144t-49 206zM1475 158v334q0 154 -59.5 227.5
t-181.5 73.5t-187.5 -76t-65.5 -227.5t92 -241.5t262 -90h140zM1290 1231h160v-172h-160v172zM1034 1231h160v-172h-160v172zM1163 1477h158v-170h-158v170z" />
    <glyph glyph-name="uniFB6C" unicode="&#x6a4;" horiz-adv-x="1148" arabic-form="initial" 
d="M842 158v334q0 154 -59.5 227.5t-183.5 73.5t-190.5 -76t-66.5 -226.5t94 -241.5t266 -91h140zM1016 0h-1047v158h385q-86 51 -135 144t-49 208q0 193 120 310.5t318 117.5q196 0 302 -114t106 -346v-478zM647 1231h160v-172h-160v172zM391 1231h160v-172h-160v172z
M520 1477h158v-170h-158v170z" />
    <glyph glyph-name="uniFB6D" unicode="&#x6a4;" horiz-adv-x="1220" arabic-form="medial" 
d="M842 158v334q0 154 -59.5 227.5t-183.5 73.5q-125 0 -191 -76q-66 -75 -66 -227t95 -242t268 -90h137zM1251 0h-1282v158h385q-86 51 -135 144t-49 208q0 193 120 310.5t318 117.5t303 -114.5t105 -331.5v-334h235v-158zM647 1231h160v-172h-160v172zM391 1231h160v-172
h-160v172zM520 1477h158v-170h-158v170z" />
    <glyph glyph-name="uniFB6E" unicode="&#x6a6;" horiz-adv-x="1777" arabic-form="isolated" 
d="M809 510q0 196 118 312q119 116 315 116t300 -115t105 -331v-492h-1039q-252 0 -381 116t-129 327t108 329t304 137l20 -153q-137 -18 -199 -89t-63 -206q0 -305 342 -303h381q-84 51 -133 145t-49 207zM1475 492q0 301 -242 301q-121 0 -187 -76q-66 -75 -65 -227
q0 -152 92 -242t262 -90h140v334zM1288 1210h158v-168h-158v168zM1040 1210h154v-168h-154v168zM1288 1460h158v-168h-158v168zM1040 1460h154v-168h-154v168z" />
    <glyph glyph-name="uniFB6F" unicode="&#x6a6;" horiz-adv-x="1851" arabic-form="final" 
d="M809 508q0 194 118 312q119 118 315 118t300 -115t105 -331v-334h235v-158h-1274q-252 0 -381 116t-129 327t108 329t304 137l20 -153q-137 -18 -199 -89t-63 -206q0 -305 342 -303h381q-84 51 -133 144t-49 206zM1475 492q0 301 -242 301q-121 0 -187 -76
q-66 -75 -65 -227q0 -152 92 -242t262 -90h140v334zM1288 1227h158v-168h-158v168zM1040 1227h154v-168h-154v168zM1288 1477h158v-168h-158v168zM1040 1477h154v-168h-154v168z" />
    <glyph glyph-name="uniFB70" unicode="&#x6a6;" horiz-adv-x="1148" arabic-form="initial" 
d="M842 158v334q0 154 -60 228t-183 73q-125 0 -191 -76q-66 -77 -66 -227t94 -241t266 -91h140zM1016 0h-1047v158h385q-86 51 -135 144t-49 208q0 192 120 310t318 118t302 -114q106 -114 106 -346v-478zM643 1227h158v-168h-158v168zM395 1227h154v-168h-154v168z
M643 1477h158v-168h-158v168zM395 1477h154v-168h-154v168z" />
    <glyph glyph-name="uniFB71" unicode="&#x6a6;" horiz-adv-x="1220" arabic-form="medial" 
d="M842 158v334q0 154 -60 228t-183 73q-125 0 -191 -76q-66 -75 -66 -227t95 -242t268 -90h137zM1251 0h-1282v158h385q-86 51 -135 144t-49 208q0 192 120 310t318 118t302 -115q105 -115 106 -331v-334h235v-158zM643 1227h158v-168h-158v168zM395 1227h154v-168h-154
v168zM643 1477h158v-168h-158v168zM395 1477h154v-168h-154v168z" />
    <glyph glyph-name="uniFB72" unicode="&#x684;" horiz-adv-x="1230" arabic-form="isolated" 
d="M500 0q-131 0 -203 -65t-72 -185q0 -258 324 -258q258 0 315 205h174q-28 -166 -158 -261t-350 -95t-348 105q-127 104 -127 298t123 304t334 110h338v323q0 170 -57 239q-57 68 -207 68t-206 -76q-30 -40 -48 -112l-166 18q29 164 134 242t311 78q207 0 309 -104
t102 -330v-346h147v-158h-669zM612 -223h-118v133h118v-133zM612 -414h-118v133h118v-133z" />
    <glyph glyph-name="uniFB73" unicode="&#x684;" horiz-adv-x="1267" arabic-form="final" 
d="M500 0q-131 0 -203 -65t-72 -185q0 -258 324 -258q258 0 315 205h174q-28 -166 -158 -261t-350 -95t-348 105q-127 104 -127 298t123 304t334 110h338v323q0 170 -57 239q-57 68 -207 68t-206 -76q-30 -40 -48 -112l-166 18q29 164 134 242t311 78q207 0 309 -104
t102 -330v-346h276v-158h-798zM612 -223h-118v133h118v-133zM612 -414h-118v133h118v-133z" />
    <glyph glyph-name="uniFB74" unicode="&#x684;" horiz-adv-x="1110" arabic-form="initial" 
d="M-31 158h760v323q0 170 -57 239q-56 68 -206 68t-207 -76q-30 -40 -48 -112l-166 18q29 164 134 242t311 78t308 -104t103 -330v-346h148v-158h-1080v158zM406 -141h167v-166h-167v166zM406 -391h167v-168h-167v168z" />
    <glyph glyph-name="uniFB75" unicode="&#x684;" horiz-adv-x="1157" arabic-form="medial" 
d="M733 481q0 170 -57 239q-58 68 -188 68t-188 -42t-85 -146l-166 18q29 164 134 242t311 78t310 -104t103 -330v-346h281v-158h-1219v158h764v323zM406 -141h167v-166h-167v166zM406 -391h167v-168h-167v168z" />
    <glyph glyph-name="uniFB76" unicode="&#x683;" horiz-adv-x="1230" arabic-form="isolated" 
d="M500 0q-131 0 -203 -65t-72 -185q0 -258 324 -258q258 0 315 205h174q-28 -166 -158 -261t-350 -95t-348 105q-127 104 -127 298t123 304t334 110h338v323q0 170 -57 239q-57 68 -207 68t-206 -76q-30 -40 -48 -112l-166 18q29 164 134 242t311 78q207 0 309 -104
t102 -330v-346h147v-158h-669zM506 -322h-127v152h127v-152zM719 -322h-127v152h127v-152z" />
    <glyph glyph-name="uniFB77" unicode="&#x683;" horiz-adv-x="1267" arabic-form="final" 
d="M500 0q-131 0 -203 -65t-72 -185q0 -258 324 -258q258 0 315 205h174q-28 -166 -158 -261t-350 -95t-348 105q-127 104 -127 298t123 304t334 110h338v323q0 170 -57 239q-57 68 -207 68t-206 -76q-30 -40 -48 -112l-166 18q29 164 134 242t311 78q207 0 309 -104
t102 -330v-346h276v-158h-798zM506 -322h-127v152h127v-152zM719 -322h-127v152h127v-152z" />
    <glyph glyph-name="uniFB78" unicode="&#x683;" horiz-adv-x="1110" arabic-form="initial" 
d="M-31 158h760v323q0 170 -57 239q-56 68 -206 68t-207 -76q-30 -40 -48 -112l-166 18q29 164 134 242t311 78t308 -104t103 -330v-346h148v-158h-1080v158zM532 -147h166v-191h-166v191zM260 -147h166v-191h-166v191z" />
    <glyph glyph-name="uniFB79" unicode="&#x683;" horiz-adv-x="1157" arabic-form="medial" 
d="M733 481q0 170 -57 239q-58 68 -188 68t-188 -42t-85 -146l-166 18q29 164 134 242t311 78t310 -104t103 -330v-346h281v-158h-1219v158h764v323zM532 -147h166v-191h-166v191zM260 -147h166v-191h-166v191z" />
    <glyph glyph-name="uniFB7A" unicode="&#x686;" horiz-adv-x="1230" arabic-form="isolated" 
d="M500 0q-131 0 -203 -64.5t-72 -185.5q0 -258 324 -258q258 0 315 205h174q-27 -166 -157.5 -261t-351 -95t-347.5 105t-127 298.5t123 303.5t334 110h338v323q0 170 -57.5 238.5t-206.5 68.5t-206 -76q-30 -40 -48 -112l-166 18q29 164 134.5 242t311 78t308 -104.5
t102.5 -329.5v-346h147v-158h-669zM600 -98h121v-133h-121v133zM408 -98h120v-133h-120v133zM506 -291h117v-135h-117v135z" />
    <glyph glyph-name="uniFB7B" unicode="&#x686;" horiz-adv-x="1267" arabic-form="final" 
d="M500 0q-131 0 -203 -64.5t-72 -185.5q0 -258 324 -258q258 0 315 205h174q-27 -166 -157.5 -261t-351 -95t-347.5 105t-127 298.5t123 303.5t334 110h338v323q0 170 -57.5 238.5t-206.5 68.5t-206 -76q-30 -40 -48 -112l-166 18q29 164 134.5 242t311 78t308 -104.5
t102.5 -329.5v-346h276v-158h-798zM600 -98h121v-133h-121v133zM408 -98h120v-133h-120v133zM506 -291h117v-135h-117v135z" />
    <glyph glyph-name="uniFB7C" unicode="&#x686;" horiz-adv-x="1110" arabic-form="initial" 
d="M-31 158h760v323q0 170 -57.5 238.5t-206.5 68.5t-206 -76q-30 -40 -48 -112l-166 18q29 164 134.5 242t311 78t308 -104.5t102.5 -329.5v-346h148v-158h-1080v158zM520 -141h160v-170h-160v170zM264 -141h160v-170h-160v170zM393 -387h158v-172h-158v172z" />
    <glyph glyph-name="uniFB7D" unicode="&#x686;" horiz-adv-x="1157" arabic-form="medial" 
d="M733 481q0 170 -57.5 238.5t-187.5 68.5t-188 -41.5t-85 -146.5l-166 18q29 164 135 242q104 78 310 78t309.5 -104.5t103.5 -329.5v-346h281v-158h-1219v158h764v323zM522 -141h160v-170h-160v170zM266 -141h160v-170h-160v170zM395 -387h158v-172h-158v172z" />
    <glyph glyph-name="uniFB7E" unicode="&#x687;" horiz-adv-x="1230" arabic-form="isolated" 
d="M500 0q-131 0 -203 -65t-72 -185q0 -258 324 -258q258 0 315 205h174q-28 -166 -158 -261t-350 -95t-348 105q-127 104 -127 298t123 304t334 110h338v323q0 170 -57 239q-57 68 -207 68t-206 -76q-30 -40 -48 -112l-166 18q29 164 134 242t311 78q207 0 309 -104
t102 -330v-346h147v-158h-669zM690 -215h-112v127h112v-127zM518 -215h-110v127h110v-127zM518 -397h-110v125h110v-125zM690 -397h-112v125h112v-125z" />
    <glyph glyph-name="uniFB7F" unicode="&#x687;" horiz-adv-x="1267" arabic-form="final" 
d="M500 0q-131 0 -203 -65t-72 -185q0 -258 324 -258q258 0 315 205h174q-28 -166 -158 -261t-350 -95t-348 105q-127 104 -127 298t123 304t334 110h338v323q0 170 -57 239q-57 68 -207 68t-206 -76q-30 -40 -48 -112l-166 18q29 164 134 242t311 78q207 0 309 -104
t102 -330v-346h276v-158h-798zM690 -215h-112v127h112v-127zM518 -215h-110v127h110v-127zM518 -397h-110v125h110v-125zM690 -397h-112v125h112v-125z" />
    <glyph glyph-name="uniFB80" unicode="&#x687;" horiz-adv-x="1110" arabic-form="initial" 
d="M-31 158h760v323q0 170 -57 239q-56 68 -206 68t-207 -76q-30 -40 -48 -112l-166 18q29 164 134 242t311 78t308 -104t103 -330v-346h148v-158h-1080v158zM514 -391h156v-168h-156v168zM274 -391h156v-168h-156v168zM514 -141h156v-168h-156v168zM274 -141h156v-168h-156
v168z" />
    <glyph glyph-name="uniFB81" unicode="&#x687;" horiz-adv-x="1157" arabic-form="medial" 
d="M733 481q0 170 -57 239q-58 68 -188 68t-188 -42t-85 -146l-166 18q29 164 134 242t311 78t310 -104t103 -330v-346h281v-158h-1219v158h764v323zM514 -391h156v-168h-156v168zM274 -391h156v-168h-156v168zM514 -141h156v-168h-156v168zM274 -141h156v-168h-156v168z
" />
    <glyph glyph-name="uniFB82" unicode="&#x68d;" horiz-adv-x="1079" arabic-form="isolated" 
d="M453 938q499 0 499 -588v-350h-891v158h717v172q0 236 -82 344t-258 108q-113 0 -219 -41l-41 152q129 45 275 45zM580 -147h165v-191h-165v191zM307 -147h166v-191h-166v191z" />
    <glyph glyph-name="uniFB83" unicode="&#x68d;" horiz-adv-x="1185" arabic-form="final" 
d="M453 938q499 0 499 -588v-192h265v-158h-1156v158h717v172q0 236 -82 344t-258 108q-113 0 -219 -41l-41 152q129 45 275 45zM580 -147h165v-191h-165v191zM307 -147h166v-191h-166v191z" />
    <glyph glyph-name="uniFB84" unicode="&#x68c;" horiz-adv-x="1079" arabic-form="isolated" 
d="M453 938q499 0 499 -588v-350h-891v158h717v172q0 236 -82 344t-258 108q-113 0 -219 -41l-41 152q129 45 275 45zM563 1284h166v-190h-166v190zM291 1284h166v-190h-166v190z" />
    <glyph glyph-name="uniFB85" unicode="&#x68c;" horiz-adv-x="1185" arabic-form="final" 
d="M453 938q499 0 499 -588v-192h265v-158h-1156v158h717v172q0 236 -82 344t-258 108q-113 0 -219 -41l-41 152q129 45 275 45zM563 1284h166v-190h-166v190zM291 1284h166v-190h-166v190z" />
    <glyph glyph-name="uniFB86" unicode="&#x68e;" horiz-adv-x="1079" arabic-form="isolated" 
d="M453 938q499 0 499 -588v-350h-891v158h717v172q0 236 -82 344t-258 108q-113 0 -219 -41l-41 152q129 45 275 45zM559 1231h160v-172h-160v172zM303 1231h160v-172h-160v172zM432 1477h158v-170h-158v170z" />
    <glyph glyph-name="uniFB87" unicode="&#x68e;" horiz-adv-x="1185" arabic-form="final" 
d="M453 938q499 0 499 -588v-192h265v-158h-1156v158h717v172q0 236 -82 344t-258 108q-113 0 -219 -41l-41 152q129 45 275 45zM559 1231h160v-172h-160v172zM303 1231h160v-172h-160v172zM432 1477h158v-170h-158v170z" />
    <glyph glyph-name="uniFB88" unicode="&#x688;" horiz-adv-x="1079" arabic-form="isolated" 
d="M453 938q499 0 499 -588v-350h-891v158h717v172q0 236 -82 344t-258 108q-113 0 -219 -41l-41 152q129 45 275 45zM524 1266q-45 0 -77.5 -28t-32.5 -85v-16h196v37q0 92 -86 92zM537 1341q76 0 115.5 -39.5t39.5 -109.5v-129h-401v74h39v317h80v-176q51 63 127 63z" />
    <glyph glyph-name="uniFB89" unicode="&#x688;" horiz-adv-x="1185" arabic-form="final" 
d="M453 938q499 0 499 -588v-192h265v-158h-1156v158h717v172q0 236 -82 344t-258 108q-113 0 -219 -41l-41 152q129 45 275 45zM524 1266q-45 0 -77.5 -28t-32.5 -85v-16h196v37q0 92 -86 92zM537 1341q76 0 115.5 -39.5t39.5 -109.5v-129h-401v74h39v317h80v-176
q51 63 127 63z" />
    <glyph glyph-name="uniFB8A" unicode="&#x698;" horiz-adv-x="620" arabic-form="isolated" 
d="M309 -115v1020h170v-1005q0 -170 -72.5 -254t-222.5 -84q-86 0 -184 28l29 140q92 -18 129 -19q80 0 115.5 42t35.5 132zM319 1231h160v-172h-160v172zM63 1231h160v-172h-160v172zM193 1477h157v-170h-157v170z" />
    <glyph glyph-name="uniFB8B" unicode="&#x698;" horiz-adv-x="739" arabic-form="final" 
d="M309 -115v1020h170v-747h291v-158h-291v-100q0 -170 -72.5 -254t-222.5 -84q-86 0 -184 28l29 140q92 -18 129 -19q80 0 115.5 42t35.5 132zM319 1231h160v-172h-160v172zM63 1231h160v-172h-160v172zM193 1477h157v-170h-157v170z" />
    <glyph glyph-name="uniFB8C" unicode="&#x691;" horiz-adv-x="620" arabic-form="isolated" 
d="M309 -115v1020h170v-1005q0 -170 -72.5 -254t-222.5 -84q-86 0 -184 28l29 140q92 -18 129 -19q80 0 115.5 42t35.5 132zM313 1266q-45 0 -77.5 -28t-32.5 -85v-16h196v37q0 92 -86 92zM326 1341q76 0 115.5 -39.5t39.5 -109.5v-129h-401v74h39v317h80v-176q51 63 127 63
z" />
    <glyph glyph-name="uniFB8D" unicode="&#x691;" horiz-adv-x="739" arabic-form="final" 
d="M309 -115v1020h170v-747h291v-158h-291v-100q0 -170 -72.5 -254t-222.5 -84q-86 0 -184 28l29 140q92 -18 129 -19q80 0 115.5 42t35.5 132zM313 1266q-45 0 -77.5 -28t-32.5 -85v-16h196v37q0 92 -86 92zM326 1341q76 0 115.5 -39.5t39.5 -109.5v-129h-401v74h39v317h80
v-176q51 63 127 63z" />
    <glyph glyph-name="uniFB8E" unicode="&#x6a9;" horiz-adv-x="1896" arabic-form="isolated" 
d="M608 0q-252 0 -381 115.5t-129 327t109.5 331t302.5 135.5l22 -153q-135 -14 -199.5 -86t-64.5 -218q0 -294 342 -294h981v231q0 152 -39 229.5t-127 109.5t-241 32h-361v137l693 565h227l-680 -555h166q279 0 406.5 -118.5t127.5 -378.5v-410h-1155z" />
    <glyph glyph-name="uniFB8F" unicode="&#x6a9;" horiz-adv-x="2009" arabic-form="final" 
d="M608 0q-252 0 -381 115.5t-129 327t109.5 331t302.5 135.5l22 -153q-135 -14 -199.5 -86t-64.5 -218q0 -294 342 -294h981v231q0 152 -39 229.5t-127 109.5t-241 32h-361v137l693 565h227l-680 -555h166q279 0 406.5 -118.5t127.5 -378.5v-252h277v-158h-1432z" />
    <glyph glyph-name="uniFB90" unicode="&#x6a9;" horiz-adv-x="1130" arabic-form="initial" 
d="M997 0h-1028v158h856v231q0 150 -40 228.5t-128 110.5t-239 32h-371v137l690 565h230l-680 -555h164q289 0 417.5 -117.5t128.5 -379.5v-410z" />
    <glyph glyph-name="uniFB91" unicode="&#x6a9;" horiz-adv-x="1243" arabic-form="medial" 
d="M825 389q0 150 -40 228.5t-128 110.5t-239 32h-371v137l690 565h230l-680 -555h164q289 0 417.5 -117.5t128.5 -379.5v-252h277v-158h-1305v158h856v231z" />
    <glyph glyph-name="uniFB92" unicode="&#x6af;" horiz-adv-x="1896" arabic-form="isolated" 
d="M608 0q-252 0 -381 115.5t-129 327t109.5 331t302.5 135.5l22 -153q-135 -14 -199.5 -86t-64.5 -218q0 -294 342 -294h981v231q0 152 -39 229.5t-127 109.5t-241 32h-361v137l693 565h227l-680 -555h166q279 0 406.5 -118.5t127.5 -378.5v-410h-1155zM772 1128l406 334
h151l-557 -458v124z" />
    <glyph glyph-name="uniFB93" unicode="&#x6af;" horiz-adv-x="2009" arabic-form="final" 
d="M608 0q-252 0 -381 115.5t-129 327t109.5 331t302.5 135.5l22 -153q-135 -14 -199.5 -86t-64.5 -218q0 -294 342 -294h981v231q0 152 -39 229.5t-127 109.5t-241 32h-361v137l693 565h227l-680 -555h166q279 0 406.5 -118.5t127.5 -378.5v-252h277v-158h-1432zM772 1128
l406 334h151l-557 -458v124z" />
    <glyph glyph-name="uniFB94" unicode="&#x6af;" horiz-adv-x="1130" arabic-form="initial" 
d="M997 0h-1028v158h856v231q0 150 -40 228.5t-128 110.5t-239 32h-371v137l690 565h230l-680 -555h164q289 0 417.5 -117.5t128.5 -379.5v-410zM-4 1118l420 344h151l-571 -469v125z" />
    <glyph glyph-name="uniFB95" unicode="&#x6af;" horiz-adv-x="1243" arabic-form="medial" 
d="M825 389q0 150 -40 228.5t-128 110.5t-239 32h-371v137l690 565h230l-680 -555h164q289 0 417.5 -117.5t128.5 -379.5v-252h277v-158h-1305v158h856v231zM-4 1118l420 344h151l-571 -469v125z" />
    <glyph glyph-name="uniFB96" unicode="&#x6b3;" horiz-adv-x="1896" arabic-form="isolated" 
d="M897 -141h168v-166h-168v166zM897 -391h168v-168h-168v168zM268 461q0 -305 342 -303h981v231q0 151 -39 229t-127 110t-241 32h-361v137l693 565h227l-680 -555h166q279 0 407 -119t127 -378v-410h-1155q-252 0 -381 116t-129 327t110 331t302 135l22 -153
q-136 -14 -200 -86t-64 -209zM772 1128l406 334h151l-557 -458v124z" />
    <glyph glyph-name="uniFB97" unicode="&#x6b3;" horiz-adv-x="2009" arabic-form="final" 
d="M899 -141h168v-166h-168v166zM899 -391h168v-168h-168v168zM268 461q0 -305 342 -303h981v231q0 151 -39 229t-127 110t-241 32h-361v137l693 565h227l-680 -555h166q279 0 407 -119t127 -378v-252h277v-158h-1432q-252 0 -381 116t-129 327t110 331t302 135l22 -153
q-136 -14 -200 -86t-64 -209zM772 1128l406 334h151l-557 -458v124z" />
    <glyph glyph-name="uniFB98" unicode="&#x6b3;" horiz-adv-x="1142" arabic-form="initial" 
d="M362 -141h168v-166h-168v166zM362 -391h168v-168h-168v168zM997 0h-1028v158h856v231q0 151 -40 229t-128 110t-239 32h-371v137l690 565h230l-680 -555h164q289 1 417 -117t129 -380v-410zM-4 1118l420 344h151l-571 -469v125z" />
    <glyph glyph-name="uniFB99" unicode="&#x6b3;" horiz-adv-x="1243" arabic-form="medial" 
d="M362 -141h168v-166h-168v166zM362 -391h168v-168h-168v168zM825 389q0 151 -40 229t-128 110t-239 32h-371v137l690 565h230l-680 -555h164q289 1 417 -117t129 -380v-252h277v-158h-1305v158h856v231zM-4 1118l420 344h151l-571 -469v125z" />
    <glyph glyph-name="uniFB9A" unicode="&#x6b1;" horiz-adv-x="1896" arabic-form="isolated" 
d="M838 1653h166v-191h-166v191zM565 1653h166v-191h-166v191zM268 461q0 -305 342 -303h981v231q0 151 -39 229t-127 110t-241 32h-361v137l693 565h227l-680 -555h166q279 0 407 -119t127 -378v-410h-1155q-252 0 -381 116t-129 327t110 331t302 135l22 -153
q-136 -14 -200 -86t-64 -209zM772 1128l406 334h151l-557 -458v124z" />
    <glyph glyph-name="uniFB9B" unicode="&#x6b1;" horiz-adv-x="2009" arabic-form="final" 
d="M840 1653h166v-191h-166v191zM567 1653h166v-191h-166v191zM268 461q0 -305 342 -303h981v231q0 151 -39 229t-127 110t-241 32h-361v137l693 565h227l-680 -555h166q279 0 407 -119t127 -378v-252h277v-158h-1432q-252 0 -381 116t-129 327t110 331t302 135l22 -153
q-136 -14 -200 -86t-64 -209zM772 1128l406 334h151l-557 -458v124z" />
    <glyph glyph-name="uniFB9C" unicode="&#x6b1;" horiz-adv-x="1142" arabic-form="initial" 
d="M76 1653h166v-191h-166v191zM-197 1653h166v-191h-166v191zM997 0h-1028v158h856v231q0 151 -40 229t-128 110t-239 32h-371v137l690 565h230l-680 -555h164q289 1 417 -117t129 -380v-410zM-4 1118l420 344h151l-571 -469v125z" />
    <glyph glyph-name="uniFB9D" unicode="&#x6b1;" horiz-adv-x="1243" arabic-form="medial" 
d="M76 1653h166v-191h-166v191zM-197 1653h166v-191h-166v191zM825 389q0 151 -40 229t-128 110t-239 32h-371v137l690 565h230l-680 -555h164q289 1 417 -117t129 -380v-252h277v-158h-1305v158h856v231zM-4 1118l420 344h151l-571 -469v125z" />
    <glyph glyph-name="uniFB9E" unicode="&#x6ba;" horiz-adv-x="1128" arabic-form="isolated" 
d="M991 47q0 -233 -116.5 -359t-338.5 -126t-346 121.5t-124 347.5q0 175 92 331l157 -40q-80 -143 -79.5 -294t79 -234t224.5 -83q281 0 280 334v860h172v-858z" />
    <glyph glyph-name="uniFB9F" unicode="&#x6ba;" horiz-adv-x="1249" arabic-form="final" 
d="M531 -438q-217 0 -341 121.5t-124 347.5q0 175 92 331l157 -40q-80 -143 -79.5 -294t79 -234t224.5 -83q281 0 280 334v860h172v-747h289v-158h-291q-10 -211 -125.5 -324.5t-332.5 -113.5z" />
    <glyph glyph-name="uniFBA0" unicode="&#x6bb;" horiz-adv-x="1128" arabic-form="isolated" 
d="M991 47q0 -233 -117 -359q-116 -126 -338 -126t-347 122q-124 122 -123 347q0 175 92 331l157 -40q-79 -143 -79 -294t78 -234t225 -83q281 0 280 334v860h172v-858zM586 1266q-45 0 -78 -28t-33 -85v-16h197v37q0 92 -86 92zM598 1341q76 1 116 -39t40 -110v-129h-402
v74h39v317h80v-176q51 63 127 63z" />
    <glyph glyph-name="uniFBA1" unicode="&#x6bb;" horiz-adv-x="1249" arabic-form="final" 
d="M539 -289q281 0 280 334v860h172v-747h289v-158h-291q-10 -211 -126 -325q-117 -113 -333 -113t-341 122q-124 122 -123 347q0 175 92 331l157 -40q-79 -143 -79 -294t78 -234t225 -83zM586 1266q-45 0 -78 -28t-33 -85v-16h197v37q0 92 -86 92zM598 1341q76 1 116 -39
t40 -110v-129h-402v74h39v317h80v-176q51 63 127 63z" />
    <glyph glyph-name="uniFBA2" unicode="&#x6bb;" horiz-adv-x="571" arabic-form="initial" 
d="M430 729v-729h-461v158h289v553q0 88 -37 151l156 70q53 -71 53 -203zM264 1266q-45 0 -78 -28t-32 -85v-16h196v37q0 92 -86 92zM277 1341q75 1 115 -39t40 -110v-129h-401v74h39v317h80v-176q51 63 127 63z" />
    <glyph glyph-name="uniFBA3" unicode="&#x6bb;" horiz-adv-x="690" arabic-form="medial" 
d="M-31 158h289v747h172v-747h291v-158h-752v158zM264 1266q-45 0 -78 -28t-32 -85v-16h196v37q0 92 -86 92zM277 1341q75 1 115 -39t40 -110v-129h-401v74h39v317h80v-176q51 63 127 63z" />
    <glyph glyph-name="uniFBA4" unicode="&#x6c0;" horiz-adv-x="1093" arabic-form="isolated" 
d="M98 447q0 226 121 358.5t330 132.5t327.5 -129t118.5 -356t-120.5 -357.5t-330.5 -130.5t-328 128t-118 354zM268 452.5q0 -163.5 72 -251.5t207 -88t206.5 88t71.5 251.5t-71.5 252t-206.5 88.5t-207 -88.5t-72 -252zM504 1247v-108h223v-78h-356v78h47v110q0 72 40 111
t110 39q135 0 155 -129l-80 -10q-11 65 -70 65q-69 0 -69 -78z" />
    <glyph glyph-name="uniFBA5" unicode="&#x6c0;" horiz-adv-x="1146" arabic-form="final" 
d="M270 488.5q0 -152.5 95.5 -241.5t275.5 -89h129v311q0 170 -58.5 247t-183.5 77t-191.5 -76t-66.5 -228.5zM942 158h236v-158h-506q-274 0 -424 130t-150 350.5t118 339t316.5 118.5t304 -113.5t105.5 -330.5v-336zM487 1247v-108h224v-78h-357v78h47v110q0 72 40 111
t111 39t107.5 -32t47.5 -97l-80 -10q-11 65 -70 65q-33 0 -51.5 -20.5t-18.5 -57.5z" />
    <glyph glyph-name="uniFBA6" unicode="&#x6c1;" horiz-adv-x="1093" arabic-form="isolated" 
d="M98 447q0 226 121 358.5t330 132.5t327.5 -129t118.5 -356t-120.5 -357.5t-330.5 -130.5t-328 128t-118 354zM268 452.5q0 -163.5 72 -251.5t207 -88t206.5 88t71.5 251.5t-71.5 252t-206.5 88.5t-207 -88.5t-72 -252z" />
    <glyph glyph-name="uniFBA7" unicode="&#x6c1;" horiz-adv-x="1011" arabic-form="final" 
d="M219 502q-68 0 -149 -23l-35 139q98 31 192 31q172 0 280.5 -74.5t180.5 -242.5l74 -174h280v-158h-391l-116 268q-55 127 -127 180.5t-189 53.5z" />
    <glyph glyph-name="uniFBA8" unicode="&#x6c1;" horiz-adv-x="571" arabic-form="initial" 
d="M430 729v-729h-461v158h289v553q0 88 -37 151l156 70q53 -71 53 -203zM346 -547h-168l92 379h129z" />
    <glyph glyph-name="uniFBA9" unicode="&#x6c1;" horiz-adv-x="669" arabic-form="medial" 
d="M-31 158h731v-158h-278v-522h-172v522h-281v158zM14 -618h-168l93 378h129z" />
    <glyph glyph-name="uniFBAA" unicode="&#x6be;" horiz-adv-x="1492" arabic-form="isolated" 
d="M694 487q0 160 -50 234t-156.5 74t-162 -73t-55.5 -210q0 -184 102.5 -270t321.5 -86v331zM862 496v-340h328v450q0 162 -57.5 230.5t-192 68.5t-195.5 -57q117 -98 117 -352zM489 940q55 0 117 -12q106 125 328.5 125t324 -104.5t101.5 -321.5v-627h-705
q-264 0 -410.5 133t-146.5 377q0 199 104.5 314.5t286.5 115.5z" />
    <glyph glyph-name="uniFBAB" unicode="&#x6be;" horiz-adv-x="1071" arabic-form="final" 
d="M723 -170q0 82 -79 128t-220 46h-127v-49q0 -131 56.5 -193.5t172.5 -62.5q197 0 197 131zM301 553v-399h70q147 0 237 104t90 274q0 260 -198 261q-199 0 -199 -240zM129 530q0 193 99.5 300.5t274.5 107.5t271 -103.5t96 -287.5q0 -127 -54 -227.5t-154 -161.5h440
v-158h-344q59 -31 94 -84t35 -113q0 -117 -93.5 -181t-277 -64t-285.5 97t-102 284v591z" />
    <glyph glyph-name="uniFBAC" unicode="&#x6be;" horiz-adv-x="1560" arabic-form="initial" 
d="M762 487q0 158 -50 233t-155.5 75t-161 -73t-55.5 -210q0 -184 101.5 -270t320.5 -86v331zM932 496v-340h325v450q0 162 -57 230.5t-192.5 68.5t-192.5 -57q117 -100 117 -352zM-31 158h377q-86 53 -133 146t-47 212q0 195 105.5 309.5t285.5 114.5q53 0 117 -12
q109 125 331 125t323.5 -104.5t101.5 -321.5v-627h-1461v158z" />
    <glyph glyph-name="uniFBAD" unicode="&#x6be;" horiz-adv-x="1146" arabic-form="medial" 
d="M799 -170q0 82 -79 128t-220 46h-127v-49q0 -131 56 -193.5t173 -62.5q197 0 197 131zM377 553v-399h69q147 0 237.5 104t90.5 274q0 260 -199 261q-198 0 -198 -240zM-31 0v158h236v372q0 193 99 300.5t275.5 107.5t271.5 -102.5t95 -288.5q0 -127 -54 -227.5
t-155 -161.5h441v-158h-344q59 -31 94 -84t35 -113q0 -117 -93.5 -181t-277 -64t-285.5 97t-102 284v61h-236z" />
    <glyph glyph-name="uniFBAE" unicode="&#x6d2;" horiz-adv-x="1525" arabic-form="isolated" 
d="M76 0v135l729 598h227l-704 -575h1122v-158h-1374z" />
    <glyph glyph-name="uniFBAF" unicode="&#x6d2;" horiz-adv-x="1390" arabic-form="final" 
d="M557 -653q-522 0 -522 403q0 201 132 304.5t384 103.5h870v-158h-876q-176 0 -258 -59.5t-82 -189.5t82 -188.5t270 -58.5h530v-157h-530z" />
    <glyph glyph-name="uniFBB0" unicode="&#x6d3;" horiz-adv-x="1525" arabic-form="isolated" 
d="M76 0v135l729 598h227l-704 -575h1122v-158h-1374zM209 936v-109h223v-77h-356v77h47v111q0 72 40 110q41 38 111 39q135 0 154 -129l-80 -10q-11 66 -69 66q-33 0 -51.5 -20.5t-18.5 -57.5z" />
    <glyph glyph-name="uniFBB1" unicode="&#x6d3;" horiz-adv-x="1390" arabic-form="final" 
d="M557 -653q-522 0 -522 403q0 201 132 304.5t384 103.5h870v-158h-876q-176 0 -258 -59.5t-82 -189.5t82 -188.5t270 -58.5h530v-157h-530zM240 528v-108h223v-78h-357v78h48v110q0 72 39.5 111t110.5 39q135 0 155 -129l-80 -10q-11 65 -70 65q-69 0 -69 -78z" />
    <glyph glyph-name="uniFBD3" unicode="&#x6ad;" horiz-adv-x="1685" arabic-form="isolated" 
d="M1372 158v1304h172v-1462h-936q-244 0 -377 119t-133 327t110 328t302 135l22 -153q-136 -14 -200 -86t-64 -213t89 -220t253 -79h762zM965 1026q-70 0 -70 -78v-108h223v-78h-356v78h47v110q0 72 40 111t111 39q134 0 154 -129l-80 -10q-6 35 -22 50t-47 15zM1004 1346
h159v-172h-159v172zM748 1346h159v-172h-159v172zM877 1591h157v-170h-157v170z" />
    <glyph glyph-name="uniFBD4" unicode="&#x6ad;" horiz-adv-x="1794" arabic-form="final" 
d="M1372 158v1306h172v-1306h281v-158h-1217q-244 0 -377 119t-133 327t110 328t302 135l22 -153q-136 -14 -200 -86t-64 -213t89 -220t253 -79h762zM965 1026q-70 0 -70 -78v-108h223v-78h-356v78h47v110q0 72 40 111t111 39q134 0 154 -129l-80 -10q-6 35 -22 50t-47 15z
M1004 1343h159v-172h-159v172zM748 1343h159v-172h-159v172zM877 1589h157v-170h-157v170z" />
    <glyph glyph-name="uniFBD5" unicode="&#x6ad;" horiz-adv-x="1130" arabic-form="initial" 
d="M997 0h-1028v158h856v231q0 151 -40 229t-128 110t-239 32h-371v137l690 565h230l-680 -555h164q289 1 417 -117t129 -380v-410zM123 1417h160v-172h-160v172zM-133 1417h160v-172h-160v172zM-4 1663h158v-170h-158v170z" />
    <glyph glyph-name="uniFBD6" unicode="&#x6ad;" horiz-adv-x="1243" arabic-form="medial" 
d="M825 389q0 151 -40 229t-128 110t-239 32h-371v137l690 565h230l-680 -555h164q289 1 417 -117t129 -380v-252h277v-158h-1305v158h856v231zM123 1417h160v-172h-160v172zM-133 1417h160v-172h-160v172zM-4 1663h158v-170h-158v170z" />
    <glyph glyph-name="uniFBD7" unicode="&#x6c7;" horiz-adv-x="1077" arabic-form="isolated" 
d="M528 793q-256 1 -256 -303q0 -154 96 -243t273 -89h131v336q0 299 -244 299zM944 2q0 -219 -99 -320q-99 -102 -297 -102t-307 84q-108 84 -124 242h164q37 -178 256 -178q129 0 182 57t53 195v20h-100q-272 0 -422 130t-150 350t117 340q117 118 317 118t305 -114
t105 -330v-492zM534 1223q60 1 60 63t-59 62t-59 -62q-2 -62 58 -63zM520 1049q-63 0 -119 24l19 66q51 -25 98 -25q78 0 78 64v24q-29 -35 -82 -35t-84 32t-31 87t36 89t101 34q64 0 102 -37t38 -102v-64q0 -157 -156 -157z" />
    <glyph glyph-name="uniFBD8" unicode="&#x6c7;" horiz-adv-x="1148" arabic-form="final" 
d="M528 793q-256 1 -256 -303q0 -154 96 -243t273 -89h131v311q0 170 -58 247t-186 77zM944 158h236v-158h-236q0 -219 -98 -319q-98 -101 -298 -101t-307 84q-108 84 -124 242h164q37 -178 256 -178q129 0 182 57t53 195v20h-100q-272 0 -422 130t-150 350t117 340
q117 118 317 118t305 -114t105 -330v-336zM534 1223q60 1 60 63t-59 62t-59 -62q-2 -62 58 -63zM520 1049q-63 0 -119 24l19 66q51 -25 98 -25q78 0 78 64v24q-29 -35 -82 -35t-84 32t-31 87t36 89t101 34q64 0 102 -37t38 -102v-64q0 -157 -156 -157z" />
    <glyph glyph-name="uniFBD9" unicode="&#x6c6;" horiz-adv-x="1077" arabic-form="isolated" 
d="M528 793q-256 1 -256 -303q0 -154 96 -243t273 -89h131v336q0 299 -244 299zM944 2q0 -219 -99 -320q-99 -102 -297 -102t-307 84q-108 84 -124 242h164q37 -178 256 -178q129 0 182 57t53 195v20h-100q-272 0 -422 130t-150 350t117 340q117 118 317 118t305 -114
t105 -330v-492zM586 1059h-111l-166 280h105l116 -202l121 202h101z" />
    <glyph glyph-name="uniFBDA" unicode="&#x6c6;" horiz-adv-x="1148" arabic-form="final" 
d="M528 793q-256 1 -256 -303q0 -154 96 -243t273 -89h131v311q0 170 -58 247t-186 77zM944 158h236v-158h-236q0 -219 -98 -319q-98 -101 -298 -101t-307 84q-108 84 -124 242h164q37 -178 256 -178q129 0 182 57t53 195v20h-100q-272 0 -422 130t-150 350t117 340
q117 118 317 118t305 -114t105 -330v-336zM586 1059h-111l-166 280h105l116 -202l121 202h101z" />
    <glyph glyph-name="uniFBDB" unicode="&#x6c8;" horiz-adv-x="1077" arabic-form="isolated" 
d="M528 793q-256 1 -256 -303q0 -154 96 -243t273 -89h131v336q0 299 -244 299zM944 2q0 -219 -99 -320q-99 -102 -297 -102t-307 84q-108 84 -124 242h164q37 -178 256 -178q129 0 182 57t53 195v20h-100q-272 0 -422 130t-150 350t117 340q117 118 317 118t305 -114
t105 -330v-492zM586 1413v-354h-99v354h99z" />
    <glyph glyph-name="uniFBDC" unicode="&#x6c8;" horiz-adv-x="1148" arabic-form="final" 
d="M528 793q-256 1 -256 -303q0 -154 96 -243t273 -89h131v311q0 170 -58 247t-186 77zM944 158h236v-158h-236q0 -219 -98 -319q-98 -101 -298 -101t-307 84q-108 84 -124 242h164q37 -178 256 -178q129 0 182 57t53 195v20h-100q-272 0 -422 130t-150 350t117 340
q117 118 317 118t305 -114t105 -330v-336zM586 1413v-354h-99v354h99z" />
    <glyph glyph-name="uniFBDD" unicode="&#x677;" horiz-adv-x="1077" arabic-form="isolated" 
d="M528 793q-256 1 -256 -303q0 -154 96 -243t273 -89h131v336q0 299 -244 299zM944 2q0 -219 -99 -320q-99 -102 -297 -102t-307 84q-108 84 -124 242h164q37 -178 256 -178q129 0 182 57t53 195v20h-100q-272 0 -422 130t-150 350t117 340q117 118 317 118t305 -114
t105 -330v-492zM452 1223q60 1 60 63t-59 62t-59 -62q-2 -62 58 -63zM438 1049q-63 0 -119 24l19 66q51 -25 98 -25q78 0 78 64v24q-29 -35 -82 -35t-84 32t-31 87t36 89t101 34q64 0 102 -37t38 -102v-64q0 -157 -156 -157zM879 1247v-108h223v-78h-357v78h48v110
q0 72 40 111q41 39 111 39q135 0 154 -129l-80 -10q-11 65 -70 65q-69 0 -69 -78z" />
    <glyph glyph-name="uniFBDE" unicode="&#x6cb;" horiz-adv-x="1077" arabic-form="isolated" 
d="M528 793q-256 1 -256 -303q0 -154 96 -243t273 -89h131v336q0 299 -244 299zM944 2q0 -219 -99 -320q-99 -102 -297 -102t-307 84q-108 84 -124 242h164q37 -178 256 -178q129 0 182 57t53 195v20h-100q-272 0 -422 130t-150 350t117 340q117 118 317 118t305 -114
t105 -330v-492zM588 1227h160v-172h-160v172zM332 1227h160v-172h-160v172zM461 1473h157v-170h-157v170z" />
    <glyph glyph-name="uniFBDF" unicode="&#x6cb;" horiz-adv-x="1148" arabic-form="final" 
d="M528 793q-256 1 -256 -303q0 -154 96 -243t273 -89h131v311q0 170 -58 247t-186 77zM944 158h236v-158h-236q0 -219 -98 -319q-98 -101 -298 -101t-307 84q-108 84 -124 242h164q37 -178 256 -178q129 0 182 57t53 195v20h-100q-272 0 -422 130t-150 350t117 340
q117 118 317 118t305 -114t105 -330v-336zM588 1227h160v-172h-160v172zM332 1227h160v-172h-160v172zM461 1473h157v-170h-157v170z" />
    <glyph glyph-name="uniFBE0" unicode="&#x6c5;" horiz-adv-x="1077" arabic-form="isolated" 
d="M528 793q-256 1 -256 -303q0 -154 96 -243t273 -89h131v311q0 170 -58 247t-186 77zM772 18h-100q-279 0 -425 123q-147 123 -147 341t117 338q117 118 317 118t305 -114t105 -330v-492q0 -219 -99 -320q-99 -102 -297 -102t-307 84q-108 84 -124 242h151
q37 -195 267 -195q92 0 143 28t74 87h-344v106h362l2 56v30z" />
    <glyph glyph-name="uniFBE1" unicode="&#x6c5;" horiz-adv-x="1148" arabic-form="final" 
d="M528 793q-256 1 -256 -303q0 -154 95.5 -243t273.5 -89h131v311q0 170 -58.5 247t-185.5 77zM772 18h-100q-279 0 -425.5 123t-146.5 341t117 337t317 119t305 -113.5t105 -330.5v-336h236v-158h-236q0 -219 -98 -319.5t-298 -100.5t-307.5 84t-123.5 242h151
q37 -195 267 -195q92 0 143 28t74 87h-344v106h362l2 56v30z" />
    <glyph glyph-name="uniFBE2" unicode="&#x6c9;" horiz-adv-x="1077" arabic-form="isolated" 
d="M528 793q-256 1 -256 -303q0 -154 96 -243t273 -89h131v336q0 299 -244 299zM944 2q0 -219 -99 -320q-99 -102 -297 -102t-307 84q-108 84 -124 242h164q37 -178 256 -178q129 0 182 57t53 195v20h-100q-272 0 -422 130t-150 350t117 340q117 118 317 118t305 -114
t105 -330v-492zM481 1339h111l166 -280h-103l-118 203l-121 -203h-101z" />
    <glyph glyph-name="uniFBE3" unicode="&#x6c9;" horiz-adv-x="1148" arabic-form="final" 
d="M528 793q-256 1 -256 -303q0 -154 96 -243t273 -89h131v311q0 170 -58 247t-186 77zM944 158h236v-158h-236q0 -219 -98 -319q-98 -101 -298 -101t-307 84q-108 84 -124 242h164q37 -178 256 -178q129 0 182 57t53 195v20h-100q-272 0 -422 130t-150 350t117 340
q117 118 317 118t305 -114t105 -330v-336zM481 1339h111l166 -280h-103l-118 203l-121 -203h-101z" />
    <glyph glyph-name="uniFBE4" unicode="&#x6d0;" horiz-adv-x="1337" arabic-form="isolated" 
d="M1188 756q-102 0 -150 -60t-47 -190v-459q0 -233 -117 -359q-116 -126 -338 -126t-347 122q-124 122 -123 347q0 175 92 331l157 -40q-79 -143 -79 -294t78 -234t225 -83q281 0 280 334v451q0 410 369 409h102v-149h-102zM457 -561h168v-166h-168v166zM457 -811h168v-168
h-168v168z" />
    <glyph glyph-name="uniFBE5" unicode="&#x6d0;" horiz-adv-x="1779" arabic-form="final" 
d="M991 47q0 -233 -117 -359q-116 -126 -338 -126t-347 122q-124 122 -123 347q0 175 92 331l157 -40q-79 -143 -79 -294t78 -234t225 -83q281 0 280 334v451q0 410 369 409h330v-747h292v-158h-464v756h-158q-102 0 -150 -60t-47 -190v-459zM461 -561h168v-166h-168v166z
M461 -811h168v-168h-168v168z" />
    <glyph glyph-name="uniFBE6" unicode="&#x6d0;" horiz-adv-x="571" arabic-form="initial" 
d="M430 729v-729h-461v158h289v553q0 88 -37 151l156 70q53 -71 53 -203zM262 -141h168v-166h-168v166zM262 -391h168v-168h-168v168z" />
    <glyph glyph-name="uniFBE7" unicode="&#x6d0;" horiz-adv-x="690" arabic-form="medial" 
d="M-31 158h289v747h172v-747h291v-158h-752v158zM262 -141h168v-166h-168v166zM262 -391h168v-168h-168v168z" />
    <glyph glyph-name="uniFBE8" unicode="&#x649;" horiz-adv-x="571" arabic-form="initial" 
d="M430 729v-729h-461v158h289v553q0 88 -37 151l156 70q53 -71 53 -203z" />
    <glyph glyph-name="uniFBE9" unicode="&#x649;" horiz-adv-x="690" arabic-form="medial" 
d="M-31 158h289v747h172v-747h291v-158h-752v158z" />
    <glyph glyph-name="uniFBFC" unicode="&#x6cc;" horiz-adv-x="1337" arabic-form="isolated" 
d="M1188 756q-102 0 -149.5 -59.5t-47.5 -190.5v-459q0 -233 -116.5 -359t-338.5 -126t-346 121.5t-124 347.5q0 175 92 331l157 -40q-80 -143 -79.5 -294t79 -234t224.5 -83q281 0 280 334v451q0 410 369 409h102v-149h-102z" />
    <glyph glyph-name="uniFBFD" unicode="&#x6cc;" horiz-adv-x="1779" arabic-form="final" 
d="M991 47q0 -233 -116.5 -359t-338.5 -126t-346 121.5t-124 347.5q0 175 92 331l157 -40q-80 -143 -79.5 -294t79 -234t224.5 -83q281 0 280 334v451q0 410 369 409h330v-747h292v-158h-464v756h-158q-102 0 -149.5 -59.5t-47.5 -190.5v-459z" />
    <glyph glyph-name="uniFBFE" unicode="&#x6cc;" horiz-adv-x="571" arabic-form="initial" 
d="M430 729v-729h-461v158h289v553q0 88 -37 151l156 70q53 -71 53 -203zM260 -147h166v-191h-166v191zM-12 -147h166v-191h-166v191z" />
    <glyph glyph-name="uniFBFF" unicode="&#x6cc;" horiz-adv-x="690" arabic-form="medial" 
d="M-31 158h289v747h172v-747h291v-158h-752v158zM264 -147h166v-191h-166v191zM-8 -147h166v-191h-166v191z" />
    <glyph glyph-name="uniFDFA" unicode="&#xfdfa;" horiz-adv-x="3043" arabic-form="isolated" 
d="M465 369l252 75v-51l-252 -76v52zM1597 1212h39v88h37v-122h-117q-72 0 -71 67v55h37v-49q0 -39 39 -39v88h36v-88zM567 575v70q0 51 -13 73t-48 21q-66 0 -66 -73q0 -90 103 -91h24zM770 575v381h70v-381h137v381h70v-446h-494q-86 0 -134 41t-48 109t38 104
q38 37 98 37t94 -37t34 -100v-89h135zM1890 -53h70v-72h-70v72zM1778 -53h67v-72h-67v72zM2316 373l254 76v-54l-254 -73v51zM823 1065h41v88h37v-123h-119q-72 0 -71 68v55h37v-49q0 -39 40 -39v88h35v-88zM379 -322q0 72 -64 72q-33 0 -47 -22t-14 -74v-70h20q49 0 77 24
t28 70zM2877 -414v86q0 78 -61 78t-61 -74q0 -90 100 -90h22zM344 59h25v70q-1 53 -15 75t-47 21q-66 0 -65 -73q0 -93 102 -93zM1468 788l441 130v-52l-441 -129v51zM1157 510v790h70v-790h-70zM1732 616q-60 0 -100 -41q-41 -41 -41 -108v-27h246v47q0 70 -22 100
q-23 29 -83 29zM2947 -477q0 -131 -129 -131q-119 0 -131 104h63q8 -47 66 -47q35 0 48 15t13 61q-94 0 -144 39t-50 106q0 68 37 104t98 36t95 -36t34 -102v-149zM1081 184q-168 0 -168 128t166 128h260v860h70v-860h117v228h65v-72q53 82 158 82q76 0 116 -43t40 -123
v-137h-826q-51 -1 -73 -15t-21 -49q0 -35 22 -49t72 -14h676v-64h-674zM770 59v383h70v-383h995v193h70v-193h170v867h71v-867h172v91q0 66 36 100t100 35q111 0 129 -111l-64 -8q-8 33 -22 46t-45 13q-64 0 -64 -84v-82h225v-63h-1976v-412h1577v217h70v-217h94v217h69
v-217h95v148q0 20 -13 49l64 31q20 -35 20 -70v-221h-2449v-185h-68v248h90v86q0 66 34 103t95 37t97 -34t37 -94q0 -60 -50 -98h168v412h-213q-88 0 -135 41t-47 107t37 104q37 37 98 37t95 -37t34 -101v-88h334z" />
    <glyph glyph-name="uniFDFC" unicode="&#xfdfc;" horiz-adv-x="2615" arabic-form="isolated" 
d="M1698 -147h166v-191h-166v191zM1425 -147h166v-191h-166v191zM2304 -115v1020h170v-1005q0 -338 -297 -338q-86 0 -182 28l28 140q92 -19 127 -19q80 0 117 42t37 132zM606 -289q213 0 213 334v1417h172v-1415q0 -231 -117.5 -358t-339.5 -127t-345 119.5t-123 347.5
q0 173 92 329l157 -41q-79 -145 -79 -293t78.5 -230.5t291.5 -82.5zM2079 729v-729h-862v1462h174v-1304h516v553q0 88 -37 151l153 70q56 -75 56 -203z" />
    <glyph glyph-name="uniFE80" unicode="&#x621;" horiz-adv-x="817" arabic-form="isolated" 
d="M752 139v-139h-695v139h93v207q0 154 78 232q80 78 222 78.5t212.5 -56.5t93.5 -188l-148 -15q-14 70 -48 98.5t-108 28.5t-109.5 -42t-35.5 -144v-199h445z" />
    <glyph glyph-name="uniFE81" unicode="&#x622;" horiz-adv-x="473" arabic-form="isolated" 
d="M152 0v1462h172v-1462h-172zM20 1567q0 154 125 153q56 -3 102 -34t70 -33q53 0 54 63h82q0 -154 -125 -153q-41 2 -70 18t-52.5 31.5t-47.5 17.5q-53 0 -56 -63h-82z" />
    <glyph glyph-name="uniFE82" unicode="&#x622;" horiz-adv-x="571" arabic-form="final" 
d="M602 0h-461v1462h172v-1304h289v-158zM10 1567q0 154 125 153q53 -3 100.5 -34t71.5 -33q53 0 53 63h82q0 -154 -125 -153q-41 2 -69.5 18t-52 31.5t-48.5 17.5q-53 0 -55 -63h-82z" />
    <glyph glyph-name="uniFE83" unicode="&#x623;" horiz-adv-x="473" arabic-form="isolated" 
d="M152 0v1462h172v-1462h-172zM186 1749v-109h224v-77h-357v77h47v111q0 72 40 111t111 39t107.5 -32t47.5 -97l-80 -11q-11 66 -70 66q-33 0 -51.5 -20.5t-18.5 -57.5z" />
    <glyph glyph-name="uniFE84" unicode="&#x623;" horiz-adv-x="571" arabic-form="final" 
d="M602 0h-461v1462h172v-1304h289v-158zM178 1749v-109h223v-77h-356v77h47v111q0 72 40 111t111 39q134 0 154 -129l-80 -11q-11 66 -69 66q-33 0 -51.5 -20.5t-18.5 -57.5z" />
    <glyph glyph-name="uniFE85" unicode="&#x624;" horiz-adv-x="1077" arabic-form="isolated" 
d="M528 793q-256 1 -256 -303q0 -154 95.5 -243t273.5 -89h131v336q0 299 -244 299zM944 2q0 -219 -99.5 -320.5t-297.5 -101.5t-306 84t-124 242h164q37 -178 256 -178q129 0 182 57t53 195v20h-100q-272 0 -422 130t-150 350.5t117 339t317 118.5t305 -113.5t105 -330.5
v-492zM702 1139v-78h-356v78h47v110q0 72 40 111t111 39q134 0 154 -129l-80 -10q-6 35 -22 50t-48 15t-50.5 -20.5t-18.5 -57.5v-108h223z" />
    <glyph glyph-name="uniFE86" unicode="&#x624;" horiz-adv-x="1148" arabic-form="final" 
d="M528 793q-256 1 -256 -303q0 -154 95.5 -243t273.5 -89h131v311q0 170 -58.5 247t-185.5 77zM944 158h236v-158h-236q0 -219 -98 -319.5t-297.5 -100.5t-307.5 84t-124 242h164q37 -178 256 -178q129 0 182 57t53 195v20h-100q-272 0 -422 130t-150 350.5t117 339
t317 118.5t305 -113.5t105 -330.5v-336zM702 1139v-78h-356v78h47v110q0 72 40 111t111 39q134 0 154 -129l-80 -10q-6 35 -22 50t-48 15t-50.5 -20.5t-18.5 -57.5v-108h223z" />
    <glyph glyph-name="uniFE87" unicode="&#x625;" horiz-adv-x="473" arabic-form="isolated" 
d="M152 0v1462h172v-1462h-172zM403 -391v-76h-356v76h47v110q0 72 40 111t111 39t107.5 -31t46.5 -96l-80 -12q-6 35 -21 50t-48 15q-70 0 -70 -76v-110h223z" />
    <glyph glyph-name="uniFE88" unicode="&#x625;" horiz-adv-x="571" arabic-form="final" 
d="M602 0h-461v1462h172v-1304h289v-158zM498 -391v-76h-357v76h47v110q0 72 40 111t111 39t107.5 -31t47.5 -96l-80 -12q-6 35 -21.5 50t-48.5 15q-70 0 -70 -76v-110h224z" />
    <glyph glyph-name="uniFE89" unicode="&#x626;" horiz-adv-x="1337" arabic-form="isolated" 
d="M1188 756q-102 0 -149.5 -59.5t-47.5 -190.5v-459q0 -233 -116.5 -359t-338.5 -126t-346 121.5t-124 347.5q0 175 92 331l157 -40q-80 -143 -79.5 -294t79 -234t224.5 -83q281 0 280 334v451q0 410 369 409h102v-149h-102zM246 750v-109h223v-78h-356v78h47v111
q0 72 40 110.5t110 38.5q135 0 155 -129l-80 -10q-11 65 -70 65q-69 0 -69 -77z" />
    <glyph glyph-name="uniFE8A" unicode="&#x626;" horiz-adv-x="1761" arabic-form="final" 
d="M991 47q0 -233 -116.5 -359t-338.5 -126t-346 121.5t-124 347.5q0 175 92 331l157 -40q-80 -143 -79.5 -294t79 -234t224.5 -83q281 0 280 334v451q0 410 369 409h330v-747h292v-158h-464v756h-158q-102 0 -149.5 -59.5t-47.5 -190.5v-459zM246 750v-109h223v-78h-356v78
h47v111q0 72 40 110.5t110 38.5q135 0 155 -129l-80 -10q-11 65 -70 65q-69 0 -69 -77z" />
    <glyph glyph-name="uniFE8B" unicode="&#x626;" horiz-adv-x="571" arabic-form="initial" 
d="M430 729v-729h-461v158h289v553q0 88 -37 151l156 70q53 -71 53 -203zM207 1249v-108h223v-78h-356v78h47v110q0 72 40 111q41 39 111 39q135 0 154 -129l-80 -10q-11 65 -70 65q-69 0 -69 -78z" />
    <glyph glyph-name="uniFE8C" unicode="&#x626;" horiz-adv-x="690" arabic-form="medial" 
d="M-31 158h289v747h172v-747h291v-158h-752v158zM207 1249v-108h223v-78h-356v78h47v110q0 72 40 111q41 39 111 39q135 0 154 -129l-80 -10q-11 65 -70 65q-69 0 -69 -78z" />
    <glyph glyph-name="uniFE8D" unicode="&#x627;" horiz-adv-x="452" arabic-form="isolated" 
d="M141 0v1462h172v-1462h-172z" />
    <glyph glyph-name="uniFE8E" unicode="&#x627;" horiz-adv-x="571" arabic-form="final" 
d="M602 0h-461v1462h172v-1304h289v-158z" />
    <glyph glyph-name="uniFE8F" unicode="&#x628;" horiz-adv-x="1685" arabic-form="isolated" 
d="M608 0q-244 0 -377 119t-133 327t109.5 327.5t302.5 135.5l22 -153q-135 -14 -199.5 -86t-64.5 -213t89 -220t253 -79h762v747h172v-905h-936zM815 -147h170v-191h-170v191z" />
    <glyph glyph-name="uniFE90" unicode="&#x628;" horiz-adv-x="1794" arabic-form="final" 
d="M1372 158v747h172v-747h281v-158h-1217q-244 0 -377 119t-133 327t109.5 327.5t302.5 135.5l22 -153q-135 -14 -199.5 -86t-64.5 -213t89 -220t253 -79h762zM817 -147h170v-191h-170v191z" />
    <glyph glyph-name="uniFE91" unicode="&#x628;" horiz-adv-x="571" arabic-form="initial" 
d="M430 729v-729h-461v158h289v553q0 88 -37 151l156 70q53 -71 53 -203zM256 -147h170v-191h-170v191z" />
    <glyph glyph-name="uniFE92" unicode="&#x628;" horiz-adv-x="690" arabic-form="medial" 
d="M-31 158h289v747h172v-747h291v-158h-752v158zM260 -147h170v-191h-170v191z" />
    <glyph glyph-name="uniFE93" unicode="&#x629;" horiz-adv-x="1093" arabic-form="isolated" 
d="M98 447q0 226 121 358.5t330 132.5t327.5 -129t118.5 -356t-120.5 -357.5t-330.5 -130.5t-328 128t-118 354zM268 452.5q0 -163.5 72 -251.5t207 -88t206.5 88t71.5 251.5t-71.5 252t-206.5 88.5t-207 -88.5t-72 -252zM598 1284h166v-190h-166v190zM326 1284h166v-190
h-166v190z" />
    <glyph glyph-name="uniFE94" unicode="&#x629;" horiz-adv-x="1146" arabic-form="final" 
d="M270 488.5q0 -152.5 95.5 -241.5t275.5 -89h129v311q0 170 -58.5 247t-183.5 77t-191.5 -76t-66.5 -228.5zM942 158h236v-158h-506q-274 0 -424 130t-150 350.5t118 339t316.5 118.5t304 -113.5t105.5 -330.5v-336zM571 1284h166v-190h-166v190zM299 1284h166v-190h-166
v190z" />
    <glyph glyph-name="uniFE95" unicode="&#x62a;" horiz-adv-x="1685" arabic-form="isolated" 
d="M608 0q-244 0 -377 119t-133 327t109.5 327.5t302.5 135.5l22 -153q-135 -14 -199.5 -86t-64.5 -213t89 -220t253 -79h762v747h172v-905h-936zM971 1284h166v-190h-166v190zM698 1284h166v-190h-166v190z" />
    <glyph glyph-name="uniFE96" unicode="&#x62a;" horiz-adv-x="1794" arabic-form="final" 
d="M1372 158v747h172v-747h281v-158h-1217q-244 0 -377 119t-133 327t109.5 327.5t302.5 135.5l22 -153q-135 -14 -199.5 -86t-64.5 -213t89 -220t253 -79h762zM971 1284h166v-190h-166v190zM698 1284h166v-190h-166v190z" />
    <glyph glyph-name="uniFE97" unicode="&#x62a;" horiz-adv-x="571" arabic-form="initial" 
d="M430 729v-729h-461v158h289v553q0 88 -37 151l156 70q53 -71 53 -203zM264 1284h166v-190h-166v190zM-8 1284h166v-190h-166v190z" />
    <glyph glyph-name="uniFE98" unicode="&#x62a;" horiz-adv-x="690" arabic-form="medial" 
d="M-31 158h289v747h172v-747h291v-158h-752v158zM264 1284h166v-190h-166v190zM-8 1284h166v-190h-166v190z" />
    <glyph glyph-name="uniFE99" unicode="&#x62b;" horiz-adv-x="1685" arabic-form="isolated" 
d="M608 0q-244 0 -377 119t-133 327t109.5 327.5t302.5 135.5l22 -153q-135 -14 -199.5 -86t-64.5 -213t89 -220t253 -79h762v747h172v-905h-936zM975 1214h160v-172h-160v172zM719 1214h160v-172h-160v172zM848 1460h158v-170h-158v170z" />
    <glyph glyph-name="uniFE9A" unicode="&#x62b;" horiz-adv-x="1794" arabic-form="final" 
d="M1372 158v747h172v-747h281v-158h-1217q-244 0 -377 119t-133 327t109.5 327.5t302.5 135.5l22 -153q-135 -14 -199.5 -86t-64.5 -213t89 -220t253 -79h762zM975 1231h160v-172h-160v172zM719 1231h160v-172h-160v172zM848 1477h158v-170h-158v170z" />
    <glyph glyph-name="uniFE9B" unicode="&#x62b;" horiz-adv-x="571" arabic-form="initial" 
d="M430 729v-729h-461v158h289v553q0 88 -37 151l156 70q53 -71 53 -203zM270 1231h160v-172h-160v172zM14 1231h160v-172h-160v172zM143 1477h158v-170h-158v170z" />
    <glyph glyph-name="uniFE9C" unicode="&#x62b;" horiz-adv-x="690" arabic-form="medial" 
d="M-31 158h289v747h172v-747h291v-158h-752v158zM270 1231h160v-172h-160v172zM14 1231h160v-172h-160v172zM143 1477h158v-170h-158v170z" />
    <glyph glyph-name="uniFE9D" unicode="&#x62c;" horiz-adv-x="1230" arabic-form="isolated" 
d="M500 0q-131 0 -203 -64.5t-72 -185.5q0 -258 324 -258q258 0 315 205h174q-27 -166 -157.5 -261t-351 -95t-347.5 105t-127 298.5t123 303.5t334 110h338v323q0 170 -57.5 238.5t-206.5 68.5t-206 -76q-30 -40 -48 -112l-166 18q29 164 134.5 242t311 78t308 -104.5
t102.5 -329.5v-346h147v-158h-669zM471 -158h150v-172h-150v172z" />
    <glyph glyph-name="uniFE9E" unicode="&#x62c;" horiz-adv-x="1267" arabic-form="final" 
d="M500 0q-131 0 -203 -64.5t-72 -185.5q0 -258 324 -258q258 0 315 205h174q-27 -166 -157.5 -261t-351 -95t-347.5 105t-127 298.5t123 303.5t334 110h338v323q0 170 -57.5 238.5t-206.5 68.5t-206 -76q-30 -40 -48 -112l-166 18q29 164 134.5 242t311 78t308 -104.5
t102.5 -329.5v-346h276v-158h-798zM471 -158h150v-172h-150v172z" />
    <glyph glyph-name="uniFE9F" unicode="&#x62c;" horiz-adv-x="1110" arabic-form="initial" 
d="M-31 158h760v323q0 170 -57.5 238.5t-206.5 68.5t-206 -76q-30 -40 -48 -112l-166 18q29 164 134.5 242t311 78t308 -104.5t102.5 -329.5v-346h148v-158h-1080v158zM403 -147h170v-191h-170v191z" />
    <glyph glyph-name="uniFEA0" unicode="&#x62c;" horiz-adv-x="1157" arabic-form="medial" 
d="M733 481q0 170 -57.5 238.5t-187.5 68.5t-188 -41.5t-85 -146.5l-166 18q29 164 135 242q104 78 310 78t309.5 -104.5t103.5 -329.5v-346h281v-158h-1219v158h764v323zM397 -147h170v-191h-170v191z" />
    <glyph glyph-name="uniFEA1" unicode="&#x62d;" horiz-adv-x="1230" arabic-form="isolated" 
d="M500 0q-131 0 -203 -64.5t-72 -185.5q0 -258 324 -258q258 0 315 205h174q-27 -166 -157.5 -261t-351 -95t-347.5 105t-127 298.5t123 303.5t334 110h338v323q0 170 -57.5 238.5t-206.5 68.5t-206 -76q-30 -40 -48 -112l-166 18q29 164 134.5 242t311 78t308 -104.5
t102.5 -329.5v-346h147v-158h-669z" />
    <glyph glyph-name="uniFEA2" unicode="&#x62d;" horiz-adv-x="1267" arabic-form="final" 
d="M500 0q-131 0 -203 -64.5t-72 -185.5q0 -258 324 -258q258 0 315 205h174q-27 -166 -157.5 -261t-351 -95t-347.5 105t-127 298.5t123 303.5t334 110h338v323q0 170 -57.5 238.5t-206.5 68.5t-206 -76q-30 -40 -48 -112l-166 18q29 164 134.5 242t311 78t308 -104.5
t102.5 -329.5v-346h276v-158h-798z" />
    <glyph glyph-name="uniFEA3" unicode="&#x62d;" horiz-adv-x="1110" arabic-form="initial" 
d="M-31 158h760v323q0 170 -57.5 238.5t-206.5 68.5t-206 -76q-30 -40 -48 -112l-166 18q29 164 134.5 242t311 78t308 -104.5t102.5 -329.5v-346h148v-158h-1080v158z" />
    <glyph glyph-name="uniFEA4" unicode="&#x62d;" horiz-adv-x="1157" arabic-form="medial" 
d="M733 481q0 170 -57.5 238.5t-187.5 68.5t-188 -41.5t-85 -146.5l-166 18q29 164 135 242q104 78 310 78t309.5 -104.5t103.5 -329.5v-346h281v-158h-1219v158h764v323z" />
    <glyph glyph-name="uniFEA5" unicode="&#x62e;" horiz-adv-x="1230" arabic-form="isolated" 
d="M500 0q-131 0 -203 -64.5t-72 -185.5q0 -258 324 -258q258 0 315 205h174q-27 -166 -157.5 -261t-351 -95t-347.5 105t-127 298.5t123 303.5t334 110h338v323q0 170 -57.5 238.5t-206.5 68.5t-206 -76q-30 -40 -48 -112l-166 18q29 164 134.5 242t311 78t308 -104.5
t102.5 -329.5v-346h147v-158h-669zM520 1284h170v-190h-170v190z" />
    <glyph glyph-name="uniFEA6" unicode="&#x62e;" horiz-adv-x="1267" arabic-form="final" 
d="M500 0q-131 0 -203 -64.5t-72 -185.5q0 -258 324 -258q258 0 315 205h174q-27 -166 -157.5 -261t-351 -95t-347.5 105t-127 298.5t123 303.5t334 110h338v323q0 170 -57.5 238.5t-206.5 68.5t-206 -76q-30 -40 -48 -112l-166 18q29 164 134.5 242t311 78t308 -104.5
t102.5 -329.5v-346h276v-158h-798zM518 1284h170v-190h-170v190z" />
    <glyph glyph-name="uniFEA7" unicode="&#x62e;" horiz-adv-x="1110" arabic-form="initial" 
d="M-31 158h760v323q0 170 -57.5 238.5t-206.5 68.5t-206 -76q-30 -40 -48 -112l-166 18q29 164 134.5 242t311 78t308 -104.5t102.5 -329.5v-346h148v-158h-1080v158zM393 1284h170v-190h-170v190z" />
    <glyph glyph-name="uniFEA8" unicode="&#x62e;" horiz-adv-x="1157" arabic-form="medial" 
d="M733 481q0 170 -57.5 238.5t-187.5 68.5t-188 -41.5t-85 -146.5l-166 18q29 164 135 242q104 78 310 78t309.5 -104.5t103.5 -329.5v-346h281v-158h-1219v158h764v323zM397 1284h170v-190h-170v190z" />
    <glyph glyph-name="uniFEA9" unicode="&#x62f;" horiz-adv-x="1079" arabic-form="isolated" 
d="M453 938q499 0 499 -588v-350h-891v158h717v172q0 236 -82 344t-258 108q-113 0 -219 -41l-41 152q129 45 275 45z" />
    <glyph glyph-name="uniFEAA" unicode="&#x62f;" horiz-adv-x="1185" arabic-form="final" 
d="M453 938q499 0 499 -588v-192h265v-158h-1156v158h717v172q0 236 -82 344t-258 108q-113 0 -219 -41l-41 152q129 45 275 45z" />
    <glyph glyph-name="uniFEAB" unicode="&#x630;" horiz-adv-x="1079" arabic-form="isolated" 
d="M453 938q499 0 499 -588v-350h-891v158h717v172q0 236 -82 344t-258 108q-113 0 -219 -41l-41 152q129 45 275 45zM426 1284h170v-190h-170v190z" />
    <glyph glyph-name="uniFEAC" unicode="&#x630;" horiz-adv-x="1185" arabic-form="final" 
d="M453 938q499 0 499 -588v-192h265v-158h-1156v158h717v172q0 236 -82 344t-258 108q-113 0 -219 -41l-41 152q129 45 275 45zM426 1284h170v-190h-170v190z" />
    <glyph glyph-name="uniFEAD" unicode="&#x631;" horiz-adv-x="620" arabic-form="isolated" 
d="M309 -115v1020h170v-1005q0 -170 -72.5 -254t-222.5 -84q-86 0 -184 28l29 140q92 -18 129 -19q80 0 115.5 42t35.5 132z" />
    <glyph glyph-name="uniFEAE" unicode="&#x631;" horiz-adv-x="739" arabic-form="final" 
d="M309 -115v1020h170v-747h291v-158h-291v-100q0 -170 -72.5 -254t-222.5 -84q-86 0 -184 28l29 140q92 -18 129 -19q80 0 115.5 42t35.5 132z" />
    <glyph glyph-name="uniFEAF" unicode="&#x632;" horiz-adv-x="620" arabic-form="isolated" 
d="M309 -115v1020h170v-1005q0 -170 -72.5 -254t-222.5 -84q-86 0 -184 28l29 140q92 -18 129 -19q80 0 115.5 42t35.5 132zM307 1284h170v-190h-170v190z" />
    <glyph glyph-name="uniFEB0" unicode="&#x632;" horiz-adv-x="739" arabic-form="final" 
d="M309 -115v1020h170v-747h291v-158h-291v-100q0 -170 -72.5 -254t-222.5 -84q-86 0 -184 28l29 140q92 -18 129 -19q80 0 115.5 42t35.5 132zM307 1284h170v-190h-170v190z" />
    <glyph glyph-name="uniFEB1" unicode="&#x633;" horiz-adv-x="2230" arabic-form="isolated" 
d="M2089 729v-729h-1100q-10 -211 -127 -324.5t-332.5 -113.5t-339.5 121.5t-124 347.5q0 175 92 331l157 -40q-80 -143 -79.5 -294t79 -234t224.5 -83q281 0 280 334v860h172v-747h381v747h172v-747h373v553q0 88 -37 151l154 70q55 -74 55 -203z" />
    <glyph glyph-name="uniFEB2" unicode="&#x633;" horiz-adv-x="2347" arabic-form="final" 
d="M2089 729v-571h289v-158h-1389q-10 -211 -127 -324.5t-332.5 -113.5t-339.5 121.5t-124 347.5q0 175 92 331l157 -40q-80 -143 -79.5 -294t79 -234t224.5 -83q281 0 280 334v860h172v-747h381v747h172v-747h373v553q0 88 -37 151l154 70q55 -74 55 -203z" />
    <glyph glyph-name="uniFEB3" unicode="&#x633;" horiz-adv-x="1667" arabic-form="initial" 
d="M1528 729v-729h-1559v158h289v747h172v-747h381v747h172v-747h373v553q0 88 -37 151l154 70q55 -74 55 -203z" />
    <glyph glyph-name="uniFEB4" unicode="&#x633;" horiz-adv-x="1785" arabic-form="medial" 
d="M1528 729v-571h289v-158h-1848v158h289v747h172v-747h381v747h172v-747h373v553q0 88 -37 151l154 70q55 -74 55 -203z" />
    <glyph glyph-name="uniFEB5" unicode="&#x634;" horiz-adv-x="2230" arabic-form="isolated" 
d="M2089 729v-729h-1100q-10 -211 -127 -324.5t-332.5 -113.5t-339.5 121.5t-124 347.5q0 175 92 331l157 -40q-80 -143 -79.5 -294t79 -234t224.5 -83q281 0 280 334v860h172v-747h381v747h172v-747h373v553q0 88 -37 151l154 70q55 -74 55 -203zM1509 1231h160v-172h-160
v172zM1253 1231h160v-172h-160v172zM1382 1477h158v-170h-158v170z" />
    <glyph glyph-name="uniFEB6" unicode="&#x634;" horiz-adv-x="2347" arabic-form="final" 
d="M2089 729v-571h289v-158h-1389q-10 -211 -127 -324.5t-332.5 -113.5t-339.5 121.5t-124 347.5q0 175 92 331l157 -40q-80 -143 -79.5 -294t79 -234t224.5 -83q281 0 280 334v860h172v-747h381v747h172v-747h373v553q0 88 -37 151l154 70q55 -74 55 -203zM1509 1231h160
v-172h-160v172zM1253 1231h160v-172h-160v172zM1382 1477h158v-170h-158v170z" />
    <glyph glyph-name="uniFEB7" unicode="&#x634;" horiz-adv-x="1667" arabic-form="initial" 
d="M1528 729v-729h-1559v158h289v747h172v-747h381v747h172v-747h373v553q0 88 -37 151l154 70q55 -74 55 -203zM948 1231h160v-172h-160v172zM692 1231h160v-172h-160v172zM821 1477h158v-170h-158v170z" />
    <glyph glyph-name="uniFEB8" unicode="&#x634;" horiz-adv-x="1785" arabic-form="medial" 
d="M1528 729v-571h289v-158h-1848v158h289v747h172v-747h381v747h172v-747h373v553q0 88 -37 151l154 70q55 -74 55 -203zM948 1231h160v-172h-160v172zM692 1231h160v-172h-160v172zM821 1477h158v-170h-158v170z" />
    <glyph glyph-name="uniFEB9" unicode="&#x635;" horiz-adv-x="2144" arabic-form="isolated" 
d="M2011 0h-1022q-10 -210 -127 -324q-118 -114 -334 -114t-339 122.5t-123 346.5q0 172 92 331l157 -36q-80 -143 -79.5 -295t79 -236t222.5 -84q283 0 282 334v860h172v-252q86 137 222.5 211t299.5 74q246 0 372 -141.5t126 -413.5v-383zM1499 786q-233 0 -371.5 -139
t-138.5 -375v-114h850v182q0 231 -82 338.5t-258 107.5z" />
    <glyph glyph-name="uniFEBA" unicode="&#x635;" horiz-adv-x="2224" arabic-form="final" 
d="M1513 938q246 0 372 -141.5t126 -413.5v-225h244v-158h-1266q-10 -211 -127 -324.5t-333.5 -113.5t-339.5 122.5t-123 346.5q0 172 92 331l157 -36q-80 -143 -79.5 -295t79 -236t222.5 -84q283 0 282 334v860h172v-252q86 137 222.5 211t299.5 74zM1499 786
q-233 0 -371.5 -139t-138.5 -375v-114h850v182q0 231 -82 338.5t-258 107.5z" />
    <glyph glyph-name="uniFEBB" unicode="&#x635;" horiz-adv-x="1587" arabic-form="initial" 
d="M1456 0h-1487v158h293v747h172v-252q86 137 222.5 211t301.5 74q244 0 371 -141.5t127 -413.5v-383zM942 786q-233 0 -371.5 -139t-138.5 -375v-114h852v182q0 231 -83 338.5t-259 107.5z" />
    <glyph glyph-name="uniFEBC" unicode="&#x635;" horiz-adv-x="1667" arabic-form="medial" 
d="M958 938q244 0 371 -141.5t127 -413.5v-225h242v-158h-1729v158h293v747h172v-252q86 137 222.5 211t301.5 74zM942 786q-233 0 -371.5 -139t-138.5 -375v-114h852v182q0 231 -83 338.5t-259 107.5z" />
    <glyph glyph-name="uniFEBD" unicode="&#x636;" horiz-adv-x="2144" arabic-form="isolated" 
d="M2011 0h-1022q-10 -210 -127 -324q-118 -114 -334 -114t-339 122.5t-123 346.5q0 172 92 331l157 -36q-80 -143 -79.5 -295t79 -236t222.5 -84q283 0 282 334v860h172v-252q86 137 222.5 211t299.5 74q246 0 372 -141.5t126 -413.5v-383zM1499 786q-233 0 -371.5 -139
t-138.5 -375v-114h850v182q0 231 -82 338.5t-258 107.5zM1368 1284h170v-190h-170v190z" />
    <glyph glyph-name="uniFEBE" unicode="&#x636;" horiz-adv-x="2224" arabic-form="final" 
d="M1513 938q246 0 372 -141.5t126 -413.5v-225h244v-158h-1266q-10 -211 -127 -324.5t-333.5 -113.5t-339.5 122.5t-123 346.5q0 172 92 331l157 -36q-80 -143 -79.5 -295t79 -236t222.5 -84q283 0 282 334v860h172v-252q86 137 222.5 211t299.5 74zM1499 786
q-233 0 -371.5 -139t-138.5 -375v-114h850v182q0 231 -82 338.5t-258 107.5zM1368 1284h170v-190h-170v190z" />
    <glyph glyph-name="uniFEBF" unicode="&#x636;" horiz-adv-x="1587" arabic-form="initial" 
d="M1456 0h-1487v158h293v747h172v-252q86 137 222.5 211t301.5 74q244 0 371 -141.5t127 -413.5v-383zM942 786q-233 0 -371.5 -139t-138.5 -375v-114h852v182q0 231 -83 338.5t-259 107.5zM813 1284h170v-190h-170v190z" />
    <glyph glyph-name="uniFEC0" unicode="&#x636;" horiz-adv-x="1667" arabic-form="medial" 
d="M958 938q244 0 371 -141.5t127 -413.5v-225h242v-158h-1729v158h293v747h172v-252q86 137 222.5 211t301.5 74zM942 786q-233 0 -371.5 -139t-138.5 -375v-114h852v182q0 231 -83 338.5t-259 107.5zM811 1284h170v-190h-170v190z" />
    <glyph glyph-name="uniFEC1" unicode="&#x637;" horiz-adv-x="1572" arabic-form="isolated" 
d="M942 938q246 0 372 -141.5t126 -413.5v-383h-1379v158h187v1304h172v-809q86 137 222 211t300 74zM928 786q-233 0 -371.5 -139t-138.5 -375v-114h850v182q0 231 -82 338.5t-258 107.5z" />
    <glyph glyph-name="uniFEC2" unicode="&#x637;" horiz-adv-x="1652" arabic-form="final" 
d="M942 938q246 0 372 -141.5t126 -413.5v-225h243v-158h-1622v158h187v1304h172v-809q86 137 222 211t300 74zM928 786q-233 0 -371.5 -139t-138.5 -375v-114h850v182q0 231 -82 338.5t-258 107.5z" />
    <glyph glyph-name="uniFEC3" unicode="&#x637;" horiz-adv-x="1587" arabic-form="initial" 
d="M958 938q244 0 371 -141.5t127 -413.5v-383h-1487v158h293v1304h172v-809q86 137 222.5 211t301.5 74zM954 786q-164 0 -278.5 -61t-179 -178t-64.5 -275v-114h852v182q0 231 -83 338.5t-247 107.5z" />
    <glyph glyph-name="uniFEC4" unicode="&#x637;" horiz-adv-x="1662" arabic-form="medial" 
d="M1452 158h242v-158h-1725v158h289v1304h172v-809q86 137 222 211t302 74q244 0 371 -141.5t127 -413.5v-225zM950 786q-164 0 -278.5 -61t-179 -178t-64.5 -275v-114h852v182q0 231 -83 338.5t-247 107.5z" />
    <glyph glyph-name="uniFEC5" unicode="&#x638;" horiz-adv-x="1572" arabic-form="isolated" 
d="M942 938q246 0 372 -141.5t126 -413.5v-383h-1379v158h187v1304h172v-809q86 137 222 211t300 74zM928 786q-233 0 -371.5 -139t-138.5 -375v-114h850v182q0 231 -82 338.5t-258 107.5zM805 1284h170v-190h-170v190z" />
    <glyph glyph-name="uniFEC6" unicode="&#x638;" horiz-adv-x="1652" arabic-form="final" 
d="M942 938q246 0 372 -141.5t126 -413.5v-225h243v-158h-1622v158h187v1304h172v-809q86 137 222 211t300 74zM928 786q-233 0 -371.5 -139t-138.5 -375v-114h850v182q0 231 -82 338.5t-258 107.5zM805 1284h170v-190h-170v190z" />
    <glyph glyph-name="uniFEC7" unicode="&#x638;" horiz-adv-x="1587" arabic-form="initial" 
d="M958 938q244 0 371 -141.5t127 -413.5v-383h-1487v158h293v1304h172v-809q86 137 222.5 211t301.5 74zM954 786q-164 0 -278.5 -61t-179 -178t-64.5 -275v-114h852v182q0 231 -83 338.5t-247 107.5zM819 1284h170v-190h-170v190z" />
    <glyph glyph-name="uniFEC8" unicode="&#x638;" horiz-adv-x="1662" arabic-form="medial" 
d="M1452 158h242v-158h-1725v158h289v1304h172v-809q86 137 222 211t302 74q244 0 371 -141.5t127 -413.5v-225zM950 786q-164 0 -278.5 -61t-179 -178t-64.5 -275v-114h852v182q0 231 -83 338.5t-247 107.5zM815 1284h170v-190h-170v190z" />
    <glyph glyph-name="uniFEC9" unicode="&#x639;" horiz-adv-x="1331" arabic-form="isolated" 
d="M1270 0h-801q-129 0 -196.5 -64.5t-67.5 -185.5q0 -258 323 -258q258 0 316 205h174q-27 -166 -158 -261q-132 -95 -352 -95t-346 105q-126 104 -126.5 288t93.5 289.5t260 123.5v351q0 221 109.5 330.5t315.5 109.5t303 -77t126 -243l-166 -18q-25 106 -79 147t-184 41
t-191.5 -70.5t-61.5 -236.5v-323h709v-158z" />
    <glyph glyph-name="uniFECA" unicode="&#x639;" horiz-adv-x="1286" arabic-form="final" 
d="M1317 0h-848q-129 0 -196.5 -64.5t-67.5 -185.5q0 -258 323 -258q258 0 316 205h174q-27 -166 -158 -261q-132 -95 -352 -95t-346 105q-126 104 -126.5 288t93.5 289.5t260 123.5v351q0 221 109.5 330.5t315.5 109.5t303 -77t126 -243l-166 -18q-25 106 -79 147t-184 41
t-191.5 -70.5t-61.5 -236.5v-323h756v-158z" />
    <glyph glyph-name="uniFECB" unicode="&#x639;" horiz-adv-x="1200" arabic-form="initial" 
d="M252 498q0 220 110 330q108 110 314 110t303.5 -77t126.5 -243l-166 -18q-25 106 -79 147t-184 41t-191.5 -71.5t-61.5 -235.5v-323h715v-158h-1170v158h283v340z" />
    <glyph glyph-name="uniFECC" unicode="&#x639;" horiz-adv-x="1146" arabic-form="medial" 
d="M252 498q0 220 110 330q108 110 314 110t303.5 -77t126.5 -243l-166 -18q-25 106 -79 147t-184 41t-191.5 -71.5t-61.5 -235.5v-323h754v-158h-1209v158h283v340z" />
    <glyph glyph-name="uniFECD" unicode="&#x63a;" horiz-adv-x="1331" arabic-form="isolated" 
d="M1270 0h-801q-129 0 -196.5 -64.5t-67.5 -185.5q0 -258 323 -258q258 0 316 205h174q-27 -166 -158 -261q-132 -95 -352 -95t-346 105q-126 104 -126.5 288t93.5 289.5t260 123.5v351q0 221 109.5 330.5t315.5 109.5t303 -77t126 -243l-166 -18q-25 106 -79 147t-184 41
t-191.5 -70.5t-61.5 -236.5v-323h709v-158zM741 1284h170v-190h-170v190z" />
    <glyph glyph-name="uniFECE" unicode="&#x63a;" horiz-adv-x="1286" arabic-form="final" 
d="M1317 0h-848q-129 0 -196.5 -64.5t-67.5 -185.5q0 -258 323 -258q258 0 316 205h174q-27 -166 -158 -261q-132 -95 -352 -95t-346 105q-126 104 -126.5 288t93.5 289.5t260 123.5v351q0 221 109.5 330.5t315.5 109.5t303 -77t126 -243l-166 -18q-25 106 -79 147t-184 41
t-191.5 -70.5t-61.5 -236.5v-323h756v-158zM741 1284h170v-190h-170v190z" />
    <glyph glyph-name="uniFECF" unicode="&#x63a;" horiz-adv-x="1200" arabic-form="initial" 
d="M252 498q0 220 110 330q108 110 314 110t303.5 -77t126.5 -243l-166 -18q-25 106 -79 147t-184 41t-191.5 -71.5t-61.5 -235.5v-323h715v-158h-1170v158h283v340zM606 1284h170v-190h-170v190z" />
    <glyph glyph-name="uniFED0" unicode="&#x63a;" horiz-adv-x="1146" arabic-form="medial" 
d="M252 498q0 220 110 330q108 110 314 110t303.5 -77t126.5 -243l-166 -18q-25 106 -79 147t-184 41t-191.5 -71.5t-61.5 -235.5v-323h754v-158h-1209v158h283v340zM606 1284h170v-190h-170v190z" />
    <glyph glyph-name="uniFED1" unicode="&#x641;" horiz-adv-x="1777" arabic-form="isolated" 
d="M809 510q0 195 117.5 311.5t314.5 116.5t301.5 -114.5t104.5 -331.5v-492h-1039q-252 0 -381 115.5t-129 327t107.5 330t304.5 136.5l20 -153q-137 -18 -199.5 -89t-62.5 -215q0 -294 342 -294h381q-84 51 -133 145t-49 207zM1475 158v334q0 154 -59.5 227.5t-181.5 73.5
t-187.5 -76t-65.5 -227.5t92 -241.5t262 -90h140zM1149 1284h170v-190h-170v190z" />
    <glyph glyph-name="uniFED2" unicode="&#x641;" horiz-adv-x="1851" arabic-form="final" 
d="M809 508q0 195 117.5 312.5t314.5 117.5t301.5 -114.5t104.5 -331.5v-334h235v-158h-1274q-252 0 -381 115.5t-129 327t107.5 330t304.5 136.5l20 -153q-137 -18 -199.5 -89t-62.5 -215q0 -294 342 -294h381q-84 51 -133 144t-49 206zM1475 158v334q0 154 -59.5 227.5
t-181.5 73.5t-187.5 -76t-65.5 -227.5t92 -241.5t262 -90h140zM1149 1284h170v-190h-170v190z" />
    <glyph glyph-name="uniFED3" unicode="&#x641;" horiz-adv-x="1148" arabic-form="initial" 
d="M842 158v334q0 154 -59.5 227.5t-183.5 73.5t-190.5 -76t-66.5 -226.5t94 -241.5t266 -91h140zM1016 0h-1047v158h385q-86 51 -135 144t-49 208q0 193 120 310.5t318 117.5q196 0 302 -114t106 -346v-478zM512 1284h170v-190h-170v190z" />
    <glyph glyph-name="uniFED4" unicode="&#x641;" horiz-adv-x="1220" arabic-form="medial" 
d="M842 158v334q0 154 -59.5 227.5t-183.5 73.5q-125 0 -191 -76q-66 -75 -66 -227t95 -242t268 -90h137zM1251 0h-1282v158h385q-86 51 -135 144t-49 208q0 193 120 310.5t318 117.5t303 -114.5t105 -331.5v-334h235v-158zM512 1284h170v-190h-170v190z" />
    <glyph glyph-name="uniFED5" unicode="&#x642;" horiz-adv-x="1304" arabic-form="isolated" 
d="M500 488.5q0 -152.5 95 -241.5t275 -89h129v311q0 170 -57 247t-183 77t-192.5 -76t-66.5 -228.5zM1174 2q0 -211 -135.5 -325.5t-379.5 -114.5q-307 0 -452.5 122.5t-145.5 383.5h170q4 -190 103.5 -274.5t324.5 -84.5q334 0 340 291h-100q-272 0 -421.5 130
t-149.5 350.5t117.5 339t317.5 118.5t305.5 -114.5t105.5 -329.5v-492zM811 1284h166v-190h-166v190zM539 1284h166v-190h-166v190z" />
    <glyph glyph-name="uniFED6" unicode="&#x642;" horiz-adv-x="1378" arabic-form="final" 
d="M500 488.5q0 -152.5 95 -241.5t275 -89h129v311q0 170 -57 247t-183 77t-192.5 -76t-66.5 -228.5zM1174 158h235v-158h-235q0 -209 -134.5 -323.5t-380.5 -114.5q-307 0 -452.5 122.5t-145.5 383.5h170q4 -190 103.5 -274.5t324.5 -84.5q332 0 340 291h-100
q-272 0 -421.5 130t-149.5 350.5t117.5 339t317.5 118.5t305.5 -114.5t105.5 -329.5v-336zM819 1284h166v-190h-166v190zM547 1284h166v-190h-166v190z" />
    <glyph glyph-name="uniFED7" unicode="&#x642;" horiz-adv-x="1148" arabic-form="initial" 
d="M842 158v334q0 154 -59.5 227.5t-183.5 73.5t-190.5 -76t-66.5 -226.5t94 -241.5t266 -91h140zM1016 0h-1047v158h385q-86 51 -135 144t-49 208q0 193 120 310.5t318 117.5q196 0 302 -114t106 -346v-478zM649 1284h166v-190h-166v190zM377 1284h166v-190h-166v190z" />
    <glyph glyph-name="uniFED8" unicode="&#x642;" horiz-adv-x="1220" arabic-form="medial" 
d="M842 158v334q0 154 -59.5 227.5t-183.5 73.5q-125 0 -191 -76q-66 -77 -66 -227t94 -241t266 -91h140zM1251 0h-1282v158h385q-86 51 -135 144t-49 208q0 193 120 310.5t318 117.5t303 -114.5t105 -331.5v-334h235v-158zM649 1284h166v-190h-166v190zM377 1284h166v-190
h-166v190z" />
    <glyph glyph-name="uniFED9" unicode="&#x643;" horiz-adv-x="1685" arabic-form="isolated" 
d="M1372 158v1304h172v-1462h-936q-244 0 -377 119t-133 327t109.5 327.5t302.5 135.5l22 -153q-135 -14 -199.5 -86t-64.5 -213t89 -220t253 -79h762zM895 948v-108h223v-78h-356v78h47v110q0 72 40 111t111 39q134 0 154 -129l-80 -10q-11 65 -69 65q-33 0 -51.5 -20.5
t-18.5 -57.5z" />
    <glyph glyph-name="uniFEDA" unicode="&#x643;" horiz-adv-x="1794" arabic-form="final" 
d="M1372 158v1306h172v-1306h281v-158h-1217q-244 0 -377 119t-133 327t109.5 327.5t302.5 135.5l22 -153q-135 -14 -199.5 -86t-64.5 -213t89 -220t253 -79h762zM895 948v-108h223v-78h-356v78h47v110q0 72 40 111t111 39q134 0 154 -129l-80 -10q-11 65 -69 65
q-33 0 -51.5 -20.5t-18.5 -57.5z" />
    <glyph glyph-name="uniFEDB" unicode="&#x643;" horiz-adv-x="1130" arabic-form="initial" 
d="M997 0h-1028v158h856v231q0 150 -40 228.5t-128 110.5t-239 32h-371v137l690 565h230l-680 -555h164q289 0 417.5 -117.5t128.5 -379.5v-410z" />
    <glyph glyph-name="uniFEDC" unicode="&#x643;" horiz-adv-x="1243" arabic-form="medial" 
d="M825 389q0 150 -40 228.5t-128 110.5t-239 32h-371v137l690 565h230l-680 -555h164q289 0 417.5 -117.5t128.5 -379.5v-252h277v-158h-1305v158h856v231z" />
    <glyph glyph-name="uniFEDD" unicode="&#x644;" horiz-adv-x="1132" arabic-form="isolated" 
d="M991 47q0 -231 -117.5 -358t-340.5 -127t-345 120.5t-122 346.5q0 169 92 329l157 -41q-80 -147 -79.5 -295.5t78 -229.5t219 -81t214 85t72.5 249v1417h172v-1415z" />
    <glyph glyph-name="uniFEDE" unicode="&#x644;" horiz-adv-x="1249" arabic-form="final" 
d="M991 158h289v-158h-291q-10 -209 -128 -323.5t-334.5 -114.5t-338.5 120.5t-122 346.5q0 169 92 329l157 -41q-80 -147 -79.5 -295.5t78 -229.5t219 -81t214 85t72.5 249v1417h172v-1304z" />
    <glyph glyph-name="uniFEDF" unicode="&#x644;" horiz-adv-x="571" arabic-form="initial" 
d="M-31 158h289v1304h172v-1462h-461v158z" />
    <glyph glyph-name="uniFEE0" unicode="&#x644;" horiz-adv-x="690" arabic-form="medial" 
d="M-31 158h289v1304h172v-1304h291v-158h-752v158z" />
    <glyph glyph-name="uniFEE1" unicode="&#x645;" horiz-adv-x="1251" arabic-form="isolated" 
d="M979 488.5q0 152.5 -64.5 228.5t-185.5 76q-250 0 -250 -301v-334h131q178 0 273.5 89t95.5 241.5zM61 158h246v334q0 211 110.5 328.5t308.5 117.5t312.5 -118t114.5 -318q0 -236 -151.5 -369t-419.5 -133h-349v-629h-172v787z" />
    <glyph glyph-name="uniFEE2" unicode="&#x645;" horiz-adv-x="1314" arabic-form="final" 
d="M621 158q170 0 264 90t94 242t-65.5 227.5t-186.5 75.5q-248 0 -248 -299v-336h142zM61 158h246v336q0 209 111.5 326.5t307.5 117.5t311.5 -115.5t115.5 -308.5q0 -111 -49 -206t-137 -150h379v-158h-1113v-629h-172v787z" />
    <glyph glyph-name="uniFEE3" unicode="&#x645;" horiz-adv-x="1146" arabic-form="initial" 
d="M877 488.5q0 152.5 -64.5 228.5t-185.5 76q-250 0 -250 -301v-334h131q178 0 273.5 89t95.5 241.5zM205 492q0 213 110.5 329.5t308.5 116.5t312.5 -118t114.5 -318q0 -236 -151.5 -369t-420.5 -133h-510v158h236v334z" />
    <glyph glyph-name="uniFEE4" unicode="&#x645;" arabic-form="medial" 
d="M516 158q172 0 266.5 90t94.5 242t-66 227.5t-186 75.5q-248 0 -248 -299v-336h139zM-31 158h236v336q0 209 111.5 326.5t307.5 117.5t311.5 -115.5t115.5 -308.5q0 -111 -49.5 -206t-137.5 -150h379v-158h-1274v158z" />
    <glyph glyph-name="uniFEE5" unicode="&#x646;" horiz-adv-x="1120" arabic-form="isolated" 
d="M991 47q0 -233 -116.5 -359t-338.5 -126t-346 121.5t-124 347.5q0 175 92 331l157 -40q-80 -143 -79.5 -294t79 -234t224.5 -83q281 0 280 334v860h172v-858zM496 1284h170v-190h-170v190z" />
    <glyph glyph-name="uniFEE6" unicode="&#x646;" horiz-adv-x="1245" arabic-form="final" 
d="M531 -438q-217 0 -341 121.5t-124 347.5q0 175 92 331l157 -40q-80 -143 -79.5 -294t79 -234t224.5 -83q281 0 280 334v860h172v-747h289v-158h-291q-10 -211 -125.5 -324.5t-332.5 -113.5zM496 1284h170v-190h-170v190z" />
    <glyph glyph-name="uniFEE7" unicode="&#x646;" horiz-adv-x="571" arabic-form="initial" 
d="M430 729v-729h-461v158h289v553q0 88 -37 151l156 70q53 -71 53 -203zM244 1284h170v-190h-170v190z" />
    <glyph glyph-name="uniFEE8" unicode="&#x646;" horiz-adv-x="690" arabic-form="medial" 
d="M-31 158h289v747h172v-747h291v-158h-752v158zM258 1284h170v-190h-170v190z" />
    <glyph glyph-name="uniFEE9" unicode="&#x647;" horiz-adv-x="1093" arabic-form="isolated" 
d="M98 447q0 226 121 358.5t330 132.5t327.5 -129t118.5 -356t-120.5 -357.5t-330.5 -130.5t-328 128t-118 354zM268 452.5q0 -163.5 72 -251.5t207 -88t206.5 88t71.5 251.5t-71.5 252t-206.5 88.5t-207 -88.5t-72 -252z" />
    <glyph glyph-name="uniFEEA" unicode="&#x647;" horiz-adv-x="1146" arabic-form="final" 
d="M270 488.5q0 -152.5 95.5 -241.5t275.5 -89h129v311q0 170 -58.5 247t-183.5 77t-191.5 -76t-66.5 -228.5zM942 158h236v-158h-506q-274 0 -424 130t-150 350.5t118 339t316.5 118.5t304 -113.5t105.5 -330.5v-336z" />
    <glyph glyph-name="uniFEEB" unicode="&#x647;" horiz-adv-x="1560" arabic-form="initial" 
d="M762 487q0 158 -50 233t-155.5 75t-161 -73t-55.5 -210q0 -184 101.5 -270t320.5 -86v331zM932 496v-340h325v450q0 162 -57 230.5t-192.5 68.5t-192.5 -57q117 -100 117 -352zM-31 158h377q-86 53 -133 146t-47 212q0 195 105.5 309.5t285.5 114.5q53 0 117 -12
q109 125 331 125t323.5 -104.5t101.5 -321.5v-627h-1461v158z" />
    <glyph glyph-name="uniFEEC" unicode="&#x647;" horiz-adv-x="1146" arabic-form="medial" 
d="M799 -170q0 82 -79 128t-220 46h-127v-49q0 -131 56 -193.5t173 -62.5q197 0 197 131zM377 553v-399h69q147 0 237.5 104t90.5 274q0 260 -199 261q-198 0 -198 -240zM-31 0v158h236v372q0 193 99 300.5t275.5 107.5t271.5 -102.5t95 -288.5q0 -127 -54 -227.5
t-155 -161.5h441v-158h-344q59 -31 94 -84t35 -113q0 -117 -93.5 -181t-277 -64t-285.5 97t-102 284v61h-236z" />
    <glyph glyph-name="uniFEED" unicode="&#x648;" horiz-adv-x="1077" arabic-form="isolated" 
d="M528 793q-256 1 -256 -303q0 -154 95.5 -243t273.5 -89h131v336q0 299 -244 299zM944 2q0 -219 -99.5 -320.5t-297.5 -101.5t-306 84t-124 242h164q37 -178 256 -178q129 0 182 57t53 195v20h-100q-272 0 -422 130t-150 350.5t117 339t317 118.5t305 -113.5t105 -330.5
v-492z" />
    <glyph glyph-name="uniFEEE" unicode="&#x648;" horiz-adv-x="1148" arabic-form="final" 
d="M528 793q-256 1 -256 -303q0 -154 95.5 -243t273.5 -89h131v311q0 170 -58.5 247t-185.5 77zM944 158h236v-158h-236q0 -219 -98 -319.5t-297.5 -100.5t-307.5 84t-124 242h164q37 -178 256 -178q129 0 182 57t53 195v20h-100q-272 0 -422 130t-150 350.5t117 339
t317 118.5t305 -113.5t105 -330.5v-336z" />
    <glyph glyph-name="uniFEEF" unicode="&#x649;" horiz-adv-x="1337" arabic-form="isolated" 
d="M1188 756q-102 0 -149.5 -59.5t-47.5 -190.5v-459q0 -233 -116.5 -359t-338.5 -126t-346 121.5t-124 347.5q0 175 92 331l157 -40q-80 -143 -79.5 -294t79 -234t224.5 -83q281 0 280 334v451q0 410 369 409h102v-149h-102z" />
    <glyph glyph-name="uniFEF0" unicode="&#x649;" horiz-adv-x="1779" arabic-form="final" 
d="M991 47q0 -233 -116.5 -359t-338.5 -126t-346 121.5t-124 347.5q0 175 92 331l157 -40q-80 -143 -79.5 -294t79 -234t224.5 -83q281 0 280 334v451q0 410 369 409h330v-747h292v-158h-464v756h-158q-102 0 -149.5 -59.5t-47.5 -190.5v-459z" />
    <glyph glyph-name="uniFEF1" unicode="&#x64a;" horiz-adv-x="1337" arabic-form="isolated" 
d="M1188 756q-102 0 -149.5 -59.5t-47.5 -190.5v-459q0 -233 -116.5 -359t-338.5 -126t-346 121.5t-124 347.5q0 175 92 331l157 -40q-80 -143 -79.5 -294t79 -234t224.5 -83q281 0 280 334v451q0 410 369 409h102v-149h-102zM590 -561h166v-191h-166v191zM317 -561h166
v-191h-166v191z" />
    <glyph glyph-name="uniFEF2" unicode="&#x64a;" horiz-adv-x="1779" arabic-form="final" 
d="M991 47q0 -233 -116.5 -359t-338.5 -126t-346 121.5t-124 347.5q0 175 92 331l157 -40q-80 -143 -79.5 -294t79 -234t224.5 -83q281 0 280 334v451q0 410 369 409h330v-747h292v-158h-464v756h-158q-102 0 -149.5 -59.5t-47.5 -190.5v-459zM569 -547h166v-190h-166v190z
M297 -547h166v-190h-166v190z" />
    <glyph glyph-name="uniFEF3" unicode="&#x64a;" horiz-adv-x="571" arabic-form="initial" 
d="M430 729v-729h-461v158h289v553q0 88 -37 151l156 70q53 -71 53 -203zM264 -147h166v-191h-166v191zM-8 -147h166v-191h-166v191z" />
    <glyph glyph-name="uniFEF4" unicode="&#x64a;" horiz-adv-x="690" arabic-form="medial" 
d="M-31 158h289v747h172v-747h291v-158h-752v158zM264 -147h166v-191h-166v191zM-8 -147h166v-191h-166v191z" />
    <glyph glyph-name=".notdef" horiz-adv-x="1024" 
d="M819 102v1332h-614v-1332h614zM102 0v1536h820v-1536h-820z" />
    <glyph glyph-name=".null" horiz-adv-x="0" 
 />
    <glyph glyph-name=".null" horiz-adv-x="0" 
 />
    <glyph glyph-name=".null" horiz-adv-x="0" 
 />
    <glyph glyph-name="nonmarkingreturn" unicode="&#x9;" horiz-adv-x="456" 
 />
    <glyph glyph-name="nonmarkingreturn" unicode="&#xd;" horiz-adv-x="456" 
 />
    <glyph glyph-name="space" unicode=" " horiz-adv-x="456" 
 />
    <glyph glyph-name="exclam" unicode="!" horiz-adv-x="471" 
d="M137 238h199v-238h-199v238zM145 1462h183l-6 -1042h-170z" />
    <glyph glyph-name="quotedbl" unicode="&#x22;" horiz-adv-x="684" 
d="M82 1454h180l-14 -516h-154zM422 1454h180l-14 -516h-154z" />
    <glyph glyph-name="numbersign" unicode="#" 
d="M737 494l68 405h-324l-67 -405h323zM37 360v134h217l68 405h-213v133h237l57 357h160l-61 -357h325l58 357h159l-57 -357h187v-133h-209l-68 -405h203v-134h-228l-57 -360h-160l62 360h-326l-59 -360h-158l57 360h-194z" />
    <glyph glyph-name="dollar" unicode="$" 
d="M287 1090q0 -123 52 -182.5t193 -88.5v486q-137 -16 -191 -82.5t-54 -132.5zM918 369q0 99 -53.5 168.5t-196.5 85.5v-508q131 14 190.5 84.5t59.5 169.5zM225 1327q112 103 307 123v172h136v-170q360 -32 422 -371l-168 -30q-39 167 -117 206t-137 48v-510l28 -4
q199 -31 301.5 -127.5t102.5 -275.5t-111.5 -292.5t-320.5 -128.5v-192h-136v194q-423 32 -456 420h174q27 -246 282 -272v530q-132 26 -198 53t-143.5 100t-77.5 248q0 176 112 279z" />
    <glyph glyph-name="percent" unicode="%" horiz-adv-x="1880" 
d="M666 0h-174l718 1415h174zM1260 401q0 -295 190 -295t190 296t-190 294q-190 0 -190 -295zM1451 -39q-159 0 -259 110t-99 329q1 218 101 330t256 112q250 0 330 -245q27 -83 26 -196q0 -326 -210 -413q-66 -27 -145 -27zM238 1008q0 -295 190 -295t190 295t-190 295
t-190 -295zM429 567q-159 0 -259 110t-99 329q1 218 101 330t256 112q250 0 330 -245q27 -83 26 -195q0 -327 -210 -414q-66 -27 -145 -27z" />
    <glyph glyph-name="ampersand" unicode="&#x26;" horiz-adv-x="1304" 
d="M762 1176q0 70 -48 115.5t-130 45.5t-128 -48t-46 -132t43 -149.5t92 -120.5q152 82 184.5 150.5t32.5 138.5zM256 406q0 -293 338 -293q187 0 291 125l-402 473q-110 -66 -168.5 -134.5t-58.5 -170.5zM395 817q-153 184 -153 318q0 156 95.5 245.5t252.5 89.5
t244.5 -85.5t87.5 -215.5q0 -189 -117 -267.5t-174 -113.5l350 -411q50 115 59 311h166q-8 -249 -119 -438l216 -250h-211l-109 127q-156 -160 -415 -160t-377.5 116.5t-118.5 315t129 291t194 127.5z" />
    <glyph glyph-name="quotesingle" unicode="'" horiz-adv-x="344" 
d="M82 1454h180l-14 -516h-154z" />
    <glyph glyph-name="parenleft" unicode="(" horiz-adv-x="538" 
d="M109 624.5q0 241.5 60 471t177 407.5h170q-119 -211 -168 -427t-49 -451.5t49 -451.5t168 -427h-170q-117 178 -177 407.5t-60 471z" />
    <glyph glyph-name="parenright" unicode=")" horiz-adv-x="538" 
d="M240 752q0 363 -217 751h170q117 -178 177 -407.5t60 -471t-60.5 -471t-176.5 -407.5h-170q119 211 168 427t49 579z" />
    <glyph glyph-name="asterisk" unicode="*" horiz-adv-x="798" 
d="M311 1090l-250 73l66 150l217 -113l-29 262h170l-28 -262l217 113l63 -150l-248 -73l193 -209l-133 -97l-148 226l-149 -226l-133 97z" />
    <glyph glyph-name="plus" unicode="+" 
d="M524 618h-393v158h393v422h164v-422h393v-158h-393v-421h-164v421z" />
    <glyph glyph-name="comma" unicode="," horiz-adv-x="458" 
d="M154 244h188l-106 -443h-144z" />
    <glyph glyph-name="hyphen" unicode="-" horiz-adv-x="798" 
d="M98 688h602v-178h-602v178z" />
    <glyph glyph-name="period" unicode="." horiz-adv-x="458" 
d="M127 240h205v-240h-205v240z" />
    <glyph glyph-name="slash" unicode="/" horiz-adv-x="677" 
d="M199 0h-185l465 1503h185z" />
    <glyph glyph-name="zero" unicode="0" 
d="M606 123q92 0 154.5 40t100.5 114.5t55.5 183t17.5 246t-17.5 246t-55.5 184t-100.5 115.5t-154.5 40t-155.5 -40t-101.5 -115.5t-55.5 -184t-17.5 -246t17.5 -246t55.5 -183t101.5 -114.5t155.5 -40zM602 -37q-244 0 -380 179.5t-136 559.5t138.5 566t519 186
t380.5 -655.5t-199.5 -745.5t-322.5 -90z" />
    <glyph glyph-name="one" unicode="1" 
d="M791 1415v-1415h-185v1217l-325 -197l-78 133l422 262h166z" />
    <glyph glyph-name="two" unicode="2" 
d="M121 1065q95 389 495 389q214 0 331.5 -113.5t117.5 -296t-105 -334.5t-309.5 -322.5t-263.5 -223.5h692l-26 -164h-920v147q78 70 168 148t185 162q221 195 306 309t85 251q0 138 -70 206.5t-195 68.5q-208 0 -255.5 -95t-65.5 -159z" />
    <glyph glyph-name="three" unicode="3" 
d="M1081 406q0 -312 -178 -377.5t-311 -65.5q-250 0 -365 124.5t-125 303.5h179q16 -137 85.5 -203.5t223.5 -66.5q306 0 307 276q0 139 -77 198.5t-210 59.5h-161v162h167q117 0 183.5 63.5t66.5 186.5q0 227 -272 227q-139 0 -208 -57t-103 -180l-168 26
q51 260 207.5 315.5t274.5 55.5q224 0 338 -104.5t114 -262.5q0 -121 -49.5 -200.5t-153.5 -132.5q235 -94 235 -348z" />
    <glyph glyph-name="four" unicode="4" 
d="M756 498v682l-490 -682h490zM928 1415v-917h194l-24 -146h-170v-352h-172v352h-676v133l674 930h174z" />
    <glyph glyph-name="five" unicode="5" 
d="M645 909q222 0 328 -127.5t106 -326.5q0 -242 -126 -367t-344 -125q-440 0 -474 399h176q23 -125 88.5 -183t205.5 -58t217 79.5t77 235.5t-66.5 241t-232.5 85t-281 -121h-155l63 774h770v-162h-620l-39 -440q129 96 307 96z" />
    <glyph glyph-name="six" unicode="6" 
d="M928 438q0 231 -105 277.5t-175 46.5q-150 0 -241.5 -85.5t-82.5 -250.5q4 -128 82.5 -220.5t215.5 -92.5t221.5 86t84.5 239zM674 909q216 0 323 -127t107 -341q0 -213 -132.5 -345.5t-353.5 -132.5q-269 0 -381 187.5t-112 449.5q0 470 148.5 662t385.5 192
q195 0 291.5 -83t128.5 -238l-164 -29q-35 106 -74.5 139t-80.5 44t-111 11q-153 0 -245 -133t-103 -442q125 186 373 186z" />
    <glyph glyph-name="seven" unicode="7" 
d="M90 1253v162h965v-151q-330 -609 -508 -1264h-201q202 686 508 1253h-764z" />
    <glyph glyph-name="eight" unicode="8" 
d="M944 383q0 260 -336 260q-268 0 -304 -102.5t-36 -159.5q0 -121 81 -195.5t258 -74.5t257 74.5t80 197.5zM301 1044q0 -247 232.5 -247t305 63.5t72.5 192.5q0 178 -111.5 217t-230.5 39t-193.5 -72.5t-74.5 -192.5zM127 1059q0 176 122 285.5t360 109.5t356 -108
t118 -287q0 -135 -62.5 -216t-152.5 -114q99 -32 178.5 -120t79.5 -226q0 -300 -194.5 -360t-387.5 -60t-326.5 111.5t-133.5 308.5q0 129 79.5 217.5t180.5 122.5q-90 35 -153.5 118t-63.5 218z" />
    <glyph glyph-name="nine" unicode="9" 
d="M556 655q141 0 231 79.5t90 224.5t-75.5 245.5t-215.5 100.5q-141 0 -224 -86t-83 -240q0 -227 102.5 -275.5t174.5 -48.5zM899 694q-129 -188 -356 -188t-336 126.5t-109 340.5t133.5 347.5t354.5 133.5q266 0 377.5 -195t111.5 -479q0 -386 -109 -601.5t-393 -215.5
q-199 0 -310 84t-130 264h174q38 -196 244 -196q100 0 224 60.5t124 518.5z" />
    <glyph glyph-name="colon" unicode=":" horiz-adv-x="458" 
d="M127 240h205v-240h-205v240zM127 1059h205v-240h-205v240z" />
    <glyph glyph-name="semicolon" unicode=";" horiz-adv-x="458" 
d="M154 244h188l-106 -443h-144zM127 1059h205v-240h-205v240z" />
    <glyph glyph-name="less" unicode="&#x3c;" 
d="M158 764l919 426v-172l-712 -322l712 -321v-176l-919 426v139z" />
    <glyph glyph-name="equal" unicode="=" 
d="M164 1006h885v-160h-885v160zM164 549h885v-160h-885v160z" />
    <glyph glyph-name="greater" unicode="&#x3e;" 
d="M135 373l709 317l-709 326v174l920 -426v-139l-920 -426v174z" />
    <glyph glyph-name="question" unicode="?" horiz-adv-x="1026" 
d="M389 238h199v-238h-199v238zM401 451q0 157 92.5 246t135.5 132t84 104t43 163t-60.5 169.5t-190.5 67.5t-196.5 -59.5t-103.5 -190.5l-164 27q49 259 202 318t263 59q209 0 320.5 -105t111.5 -274q0 -123 -48 -203t-100 -130q-119 -116 -165.5 -176.5t-46.5 -152.5v-26
h-177v31z" />
    <glyph glyph-name="at" unicode="@" horiz-adv-x="1953" 
d="M998 803q-128 0 -218 -111.5t-90 -312.5q0 -131 55.5 -194.5t135.5 -63.5q140 0 208.5 86t96.5 235l8 54q35 221 -51.5 264t-144.5 43zM92 391q0 334 142.5 555t356 326.5t414.5 105.5q395 0 632 -201.5t237 -551.5q0 -298 -131.5 -465.5t-331.5 -167.5
q-96 0 -158.5 35.5t-76.5 124.5q-123 -172 -318 -172q-161 0 -252.5 108t-91.5 255q0 270 134 432.5t345 162.5q177 0 262 -154q6 40 25 131h162l-119 -665q-4 -20 -4 -31q0 -102 102 -102q129 0 214 127.5t85 365.5q0 298 -190.5 463.5t-505.5 165.5q-166 0 -307.5 -60.5
t-302 -232.5t-160.5 -547q0 -322 187.5 -511t516.5 -189q284 0 374.5 72.5t127.5 115.5h178q-197 -325 -690 -325q-382 0 -619 224.5t-237 604.5z" />
    <glyph glyph-name="A" unicode="A" horiz-adv-x="1380" 
d="M942 571l-258 678l-254 -678h512zM592 1462h199l567 -1462h-205l-154 408h-626l-154 -408h-196z" />
    <glyph glyph-name="B" unicode="B" horiz-adv-x="1294" 
d="M678 156q279 0 311.5 100t32.5 162q0 129 -76 197.5t-254 68.5h-346v-528h332zM672 844q166 0 237.5 60t71.5 178t-77 171.5t-263 53.5h-295v-463h326zM162 1462h485q421 0 469.5 -148.5t48.5 -237.5q0 -207 -207 -302q205 -80 228.5 -188t23.5 -180t-27.5 -149
t-124.5 -167t-374 -90h-522v1462z" />
    <glyph glyph-name="C" unicode="C" horiz-adv-x="1454" 
d="M111 730q0 360 182.5 564.5t470.5 204.5q376 0 464.5 -186.5t110.5 -292.5l-184 -31q-58 258 -178.5 302t-220.5 44t-185.5 -44t-143.5 -122.5t-89 -190.5t-31 -315.5t120 -369.5t339 -166q275 0 331 138t68 216h195q-25 -233 -176.5 -375.5t-425.5 -142.5
q-298 0 -472.5 203.5t-174.5 563.5z" />
    <glyph glyph-name="D" unicode="D" horiz-adv-x="1462" 
d="M1157 737q0 563 -483 563h-324v-1136h285q272 0 397 152.5t125 420.5zM162 1462h512q493 0 586.5 -269t93.5 -453q0 -362 -192.5 -551t-534.5 -189h-465v1462z" />
    <glyph glyph-name="E" unicode="E" horiz-adv-x="1216" 
d="M162 1462h946v-166h-758v-458h717v-168h-717v-504h797l-31 -166h-954v1462z" />
    <glyph glyph-name="F" unicode="F" horiz-adv-x="1155" 
d="M162 1462h907v-166h-719v-479h674v-170h-674v-647h-188v1462z" />
    <glyph glyph-name="G" unicode="G" horiz-adv-x="1466" 
d="M1171 588h-368v164h547v-586q-162 -150 -325 -176.5t-237 -26.5q-320 0 -498.5 201t-178.5 563t181 567t476 205q452 0 553 -418l-182 -30q-54 211 -168.5 248.5t-216.5 37.5t-187.5 -44t-142.5 -123.5t-87 -191.5t-30 -320t121.5 -369.5t358.5 -161.5t384 111v350z" />
    <glyph glyph-name="H" unicode="H" horiz-adv-x="1439" 
d="M162 1462h188v-618h740v618h188v-1462h-188v668h-740v-668h-188v1462z" />
    <glyph glyph-name="I" unicode="I" horiz-adv-x="512" 
d="M162 1462h188v-1462h-188v1462z" />
    <glyph glyph-name="J" unicode="J" horiz-adv-x="1222" 
d="M887 496v966h188v-981q0 -260 -133 -389t-363 -129q-479 0 -524 475h191q37 -311 327 -311q172 0 243 96t71 273z" />
    <glyph glyph-name="K" unicode="K" horiz-adv-x="1331" 
d="M162 1462h190v-700l686 700h215l-522 -547l576 -915h-217l-496 791l-242 -242v-549h-190v1462z" />
    <glyph glyph-name="L" unicode="L" horiz-adv-x="1150" 
d="M162 1462h188v-1294h758l-29 -168h-917v1462z" />
    <glyph glyph-name="M" unicode="M" horiz-adv-x="1732" 
d="M162 1462h233l471 -1237l480 1237h225v-1462h-174v1153l-459 -1153h-154l-450 1149v-1149h-172v1462z" />
    <glyph glyph-name="N" unicode="N" horiz-adv-x="1435" 
d="M162 1462h186l744 -1161v1161h182v-1462h-180l-750 1155v-1155h-182v1462z" />
    <glyph glyph-name="O" unicode="O" horiz-adv-x="1566" 
d="M1260 731q0 278 -124 441t-354 163t-352.5 -162.5t-122.5 -441.5q0 -280 121 -442t354 -162q232 0 355 163t123 441zM296 1294q185 205 490 205t487.5 -202t182.5 -565t-182 -566t-489 -203t-490.5 201t-183.5 563t185 567z" />
    <glyph glyph-name="P" unicode="P" horiz-adv-x="1282" 
d="M649 727q205 0 280 75t75 221t-78 213t-279 67h-299v-576h301zM162 1462h489q438 0 489.5 -173t51.5 -263q0 -459 -541 -459h-303v-567h-186v1462z" />
    <glyph glyph-name="Q" unicode="Q" horiz-adv-x="1566" 
d="M307 731q0 -280 121 -442t356 -162q135 0 236 59l-180 217l121 103l178 -215q121 162 121 440t-124 441t-354 163t-352.5 -162t-122.5 -442zM296 1294q185 205 490 205t487.5 -202t182.5 -574q0 -373 -199 -576l179 -210l-121 -105l-182 217q-155 -86 -327 -86t-295.5 50
t-261.5 201t-138 513t185 567z" />
    <glyph glyph-name="R" unicode="R" horiz-adv-x="1294" 
d="M659 768q267 0 297.5 106.5t30.5 168.5q0 129 -77 194.5t-275 65.5h-287v-535h311zM637 606h-289v-606h-186v1462h479q298 0 418.5 -117t120.5 -296q0 -139 -58.5 -237.5t-191.5 -154.5l307 -657h-211l-276 612q-41 -6 -113 -6z" />
    <glyph glyph-name="S" unicode="S" horiz-adv-x="1316" 
d="M655 1339q-352 0 -352 -239q0 -105 58 -160.5t210 -83.5l205 -37q227 -43 334 -142t107 -287t-139 -307.5t-398 -119.5q-407 0 -498.5 167t-101.5 286h188q25 -154 122 -222.5t283 -68.5t264.5 72.5t78.5 181.5t-56.5 172t-209.5 90l-185 33q-223 37 -337.5 130.5
t-114.5 288.5t148 300.5t390 105.5q384 0 455.5 -153.5t87.5 -225.5l-176 -35q-35 133 -114.5 193.5t-248.5 60.5z" />
    <glyph glyph-name="T" unicode="T" horiz-adv-x="1230" 
d="M520 1294h-483v168h1157v-168h-483v-1294h-191v1294z" />
    <glyph glyph-name="U" unicode="U" horiz-adv-x="1396" 
d="M1251 580q0 -617 -553 -617q-264 0 -408.5 147.5t-144.5 477.5v874h189v-882q0 -227 85 -340t283 -113t279.5 113.5t81.5 339.5v882h188v-882z" />
    <glyph glyph-name="V" unicode="V" horiz-adv-x="1363" 
d="M27 1462h213l444 -1218l453 1218h202l-561 -1462h-190z" />
    <glyph glyph-name="W" unicode="W" horiz-adv-x="1906" 
d="M25 1462h213l305 -1202l317 1196h203l315 -1196l303 1202h201l-405 -1462h-199l-326 1223l-319 -1223h-193z" />
    <glyph glyph-name="X" unicode="X" horiz-adv-x="1306" 
d="M539 772l-478 690h222l368 -555l375 555h203l-473 -698l528 -764h-219l-424 623l-412 -623h-206z" />
    <glyph glyph-name="Y" unicode="Y" horiz-adv-x="1255" 
d="M727 0h-190v621l-510 841h217l387 -676l397 676h199l-500 -841v-621z" />
    <glyph glyph-name="Z" unicode="Z" horiz-adv-x="1200" 
d="M78 1296v166h1048v-147l-837 -1147h862l-29 -168h-1059v145l840 1151h-825z" />
    <glyph glyph-name="bracketleft" unicode="[" horiz-adv-x="579" 
d="M154 1503h403v-153h-221v-1450h221v-154h-403v1757z" />
    <glyph glyph-name="backslash" unicode="\" horiz-adv-x="677" 
d="M197 1503l467 -1503h-183l-467 1503h183z" />
    <glyph glyph-name="bracketright" unicode="]" horiz-adv-x="579" 
d="M23 -100h219v1450h-219v153h401v-1757h-401v154z" />
    <glyph glyph-name="asciicircum" unicode="^" 
d="M530 1452h152l416 -834h-191l-305 629l-303 -629h-184z" />
    <glyph glyph-name="underscore" unicode="_" horiz-adv-x="1024" 
d="M0 -252h1024v-106h-1024v106z" />
    <glyph glyph-name="grave" unicode="`" horiz-adv-x="1167" 
d="M356 1501h219l234 -291h-176z" />
    <glyph glyph-name="a" unicode="a" horiz-adv-x="1101" 
d="M252 284q0 -66 48 -114.5t159 -48.5q158 0 246 77.5t88 213.5v118l-170 -6q-301 -11 -336 -92.5t-35 -147.5zM70 308q0 94 46 161.5t150 120t344 61.5l183 6v41q0 135 -57.5 194.5t-185.5 59.5t-187.5 -42t-77.5 -115l-162 18q29 145 137.5 212t294.5 67q326 0 370 -155
t44 -249v-688h-172v145q-138 -170 -365 -170q-256 0 -309 119.5t-53 213.5z" />
    <glyph glyph-name="b" unicode="b" horiz-adv-x="1222" 
d="M313 500q0 -194 83.5 -289.5t228.5 -95.5q217 0 262 152.5t45 268.5q0 215 -84.5 311.5t-217.5 96.5t-225 -95t-92 -278v-71zM313 0h-176v1462h178v-551q139 181 357 181t333 -151t115 -409t-127 -411.5t-340 -153.5q-212 0 -340 168v-135z" />
    <glyph glyph-name="c" unicode="c" horiz-adv-x="1144" 
d="M610 1092q190 0 295 -93.5t133 -257.5l-178 -32q-46 235 -256 235q-161 0 -237 -114.5t-76 -353t112.5 -300t198.5 -61.5q129 0 191.5 65.5t80.5 177.5h181q-27 -182 -139.5 -286.5t-334.5 -104.5t-350.5 148.5t-128.5 408.5q0 259 137 413.5t371 154.5z" />
    <glyph glyph-name="d" unicode="d" horiz-adv-x="1220" 
d="M909 561q0 127 -27.5 197t-81.5 114t-101 58t-107 14q-135 0 -219 -100.5t-84 -317.5t86 -313t205 -96t204 63q125 100 125 309v72zM907 152q-139 -185 -358.5 -185t-333 155t-113.5 409t125.5 407.5t336.5 153.5t339 -162v532h178v-1462h-174v152z" />
    <glyph glyph-name="e" unicode="e" horiz-adv-x="1167" 
d="M891 618q0 241 -106.5 288.5t-184.5 47.5q-141 0 -220 -86t-93 -250h604zM584 -33q-224 0 -353 146.5t-129 412.5t138.5 416t367.5 150t345 -141t116 -376v-90h-786q0 -163 84.5 -268.5t225.5 -105.5q142 0 203.5 50t84.5 136h172q-27 -154 -136 -242t-333 -88z" />
    <glyph glyph-name="f" unicode="f" horiz-adv-x="684" 
d="M551 1331q-70 0 -121 -38t-51 -138v-96h268v-141h-268v-918h-178v918h-166v141h166v92q0 163 91 245.5t230 82.5q96 0 180 -25l-28 -139q-53 16 -123 16z" />
    <glyph glyph-name="g" unicode="g" horiz-adv-x="1218" 
d="M907 569q0 195 -86 285t-223 90q-218 0 -263.5 -142.5t-45.5 -247.5q0 -197 85 -290.5t220 -93.5t224 93t89 272v34zM905 1059h176v-887q0 -298 -99 -445t-374 -147q-209 0 -327.5 75t-139.5 247h176q23 -96 88 -137t217 -41t216.5 93t64.5 271v113q-128 -181 -351 -181
t-337.5 152t-114.5 388t128.5 384t340.5 148t336 -168v135z" />
    <glyph glyph-name="h" unicode="h" horiz-adv-x="1167" 
d="M684 1092q354 0 354 -387v-705h-180v670q0 147 -52 207.5t-174 60.5t-212 -86q-51 -45 -78 -95t-27 -130v-627h-178v1462h178v-561q149 191 369 191z" />
    <glyph glyph-name="i" unicode="i" horiz-adv-x="460" 
d="M135 1462h191v-207h-191v207zM141 1059h178v-1059h-178v1059z" />
    <glyph glyph-name="j" unicode="j" horiz-adv-x="460" 
d="M1 -227q79 0 109.5 41t30.5 127v1118h178v-1071q0 -178 -62 -273.5t-224 -95.5q-102 0 -199 33l31 141q57 -20 136 -20zM135 1462h191v-207h-191v207z" />
    <glyph glyph-name="k" unicode="k" horiz-adv-x="1071" 
d="M137 1462h176v-852l496 449h215l-379 -354l420 -705h-203l-350 600l-199 -178v-422h-176v1462z" />
    <glyph glyph-name="l" unicode="l" horiz-adv-x="460" 
d="M141 1462h178v-1462h-178v1462z" />
    <glyph glyph-name="m" unicode="m" horiz-adv-x="1763" 
d="M1307 1092q325 0 325 -359v-733h-178v692q0 199 -70.5 222.5t-116.5 23.5q-110 0 -201 -77t-91 -193v-668h-178v690q0 139 -48.5 193.5t-145.5 54.5t-189 -86q-35 -33 -67 -84t-32 -137v-631h-178v1059h176v-162q143 195 334 195q226 0 299 -199q146 199 361 199z" />
    <glyph glyph-name="n" unicode="n" horiz-adv-x="1167" 
d="M684 1092q354 0 354 -387v-705h-178v670q0 147 -53 207.5t-175 60.5t-212 -86q-51 -45 -78 -95t-27 -130v-627h-178v1059h176v-162q146 195 371 195z" />
    <glyph glyph-name="o" unicode="o" horiz-adv-x="1230" 
d="M614 115q165 0 245.5 111.5t80.5 305.5q0 293 -120 352.5t-206 59.5t-146 -30.5t-100 -85t-58.5 -130t-18.5 -168t18.5 -168t79 -161.5t225.5 -86zM243 937.5q141 154.5 376 154.5t372 -150t137 -409t-138 -412.5t-379 -153.5q-237 0 -373 148.5t-136 408t141 414z" />
    <glyph glyph-name="p" unicode="p" horiz-adv-x="1222" 
d="M313 500q0 -194 83.5 -289.5t228.5 -95.5q217 0 262 152.5t45 268.5q0 215 -84.5 311.5t-217.5 96.5t-225 -95t-92 -278v-71zM315 -397h-178v1456h176v-152q136 185 356 185t335.5 -151t115.5 -409t-127 -411.5t-340 -153.5t-338 164v-528z" />
    <glyph glyph-name="q" unicode="q" horiz-adv-x="1222" 
d="M909 561q0 127 -27.5 197t-81.5 114t-101 58t-107 14q-135 0 -219 -100.5t-84 -317.5t86 -313t205 -96t204 63q125 104 125 309v72zM905 150q-140 -183 -358 -183t-331.5 155t-113.5 409t125.5 407.5t339.5 153.5q215 0 340 -168v135h176v-1456h-178v547z" />
    <glyph glyph-name="r" unicode="r" horiz-adv-x="749" 
d="M601 913q-107 0 -189 -75q-97 -84 -97 -209v-629h-178v1059h176v-164q122 182 310 182q55 0 94 -8l-23 -166q-51 10 -93 10z" />
    <glyph glyph-name="s" unicode="s" horiz-adv-x="1069" 
d="M552 111q132 0 188.5 46t56.5 119t-39 114t-150 61l-135 20q-186 29 -276.5 98.5t-90.5 212t119 226.5t301 84q306 0 363 -115t72 -174l-162 -27q-31 95 -88 134.5t-155 39.5q-162 0 -221 -45t-59 -113t42.5 -105t158.5 -56l154 -25q186 -31 267 -106.5t81 -217.5
t-110 -228.5t-316 -86.5q-319 0 -393 124t-80 218h172q18 -111 93 -154.5t207 -43.5z" />
    <glyph glyph-name="t" unicode="t" horiz-adv-x="710" 
d="M377 297q0 -172 145 -172q76 0 137 22l31 -137q-97 -33 -195 -33q-172 0 -234 92.5t-62 274.5v574h-164v141h164v289h178v-289h280v-141h-280v-621z" />
    <glyph glyph-name="u" unicode="u" horiz-adv-x="1148" 
d="M131 356v703h178v-668q0 -147 48.5 -208.5t162.5 -61.5t209 86q51 45 78 95t27 130v627h178v-1059h-176v164q-151 -197 -363 -197q-180 0 -261 97.5t-81 291.5z" />
    <glyph glyph-name="v" unicode="v" horiz-adv-x="1067" 
d="M14 1059h207l316 -860l321 860h197l-426 -1059h-191z" />
    <glyph glyph-name="w" unicode="w" horiz-adv-x="1501" 
d="M16 1059h195l213 -844l244 838h180l237 -838l211 844h189l-309 -1059h-189l-237 844l-240 -844h-186z" />
    <glyph glyph-name="x" unicode="x" horiz-adv-x="1030" 
d="M414 557l-355 502h209l252 -375l262 375h191l-348 -500l385 -559h-207l-291 428l-293 -428h-196z" />
    <glyph glyph-name="y" unicode="y" horiz-adv-x="1071" 
d="M291 -397q-111 0 -193 28l35 144q57 -21 119 -21t97.5 34t70.5 126l43 113l-449 1032h207l334 -832l305 832h197l-463 -1159q-62 -155 -127 -226t-176 -71z" />
    <glyph glyph-name="z" unicode="z" horiz-adv-x="956" 
d="M70 915v144h825v-133l-616 -783h647l-23 -143h-846v133l617 782h-604z" />
    <glyph glyph-name="braceleft" unicode="{" horiz-adv-x="589" 
d="M375 438v-436q0 -106 108 -106h97v-150h-121q-119 0 -187.5 57.5t-68.5 196.5v397q0 72 -31 112t-106 40h-11v151h11q76 0 106.5 40t30.5 112v397q0 139 68.5 196.5t187.5 57.5h121v-149h-97q-109 0 -108 -107v-436q0 -156 -119 -186q119 -30 119 -187z" />
    <glyph glyph-name="bar" unicode="|" horiz-adv-x="466" 
d="M145 1503h177v-1757h-177v1757z" />
    <glyph glyph-name="braceright" unicode="}" horiz-adv-x="589" 
d="M215 811v436q0 106 -109 107h-96v149h121q119 0 187.5 -57t68.5 -197v-397q0 -72 31 -112t106 -40h11v-151h-11q-76 0 -106.5 -40t-30.5 -112v-397q0 -139 -68.5 -196.5t-187.5 -57.5h-121v150h96q109 0 109 106v436q0 155 119 187q-119 30 -119 186z" />
    <glyph glyph-name="asciitilde" unicode="~" 
d="M88 512q0 194 76.5 276t216.5 82q72 0 131 -33.5t111.5 -73.5t100.5 -73t110 -33q130 0 131 193h155q0 -285 -112.5 -323t-180.5 -38t-127 34t-111 75t-101.5 75t-111.5 34q-128 0 -128 -195h-160z" />
    <glyph glyph-name="uni00A0" unicode="&#xa0;" horiz-adv-x="456" 
 />
    <glyph glyph-name="exclamdown" unicode="&#xa1;" horiz-adv-x="471" 
d="M137 1061h199v-238h-199v238zM152 639h170l6 -1036h-183z" />
    <glyph glyph-name="cent" unicode="&#xa2;" 
d="M326 714q0 -166 61.5 -276t185.5 -129v807q-247 -45 -247 -402zM709 -18h-136v178q-205 16 -318.5 163t-113.5 383t116.5 387t315.5 173v182h136v-178q160 -10 256 -101.5t122 -240.5l-176 -33q-36 196 -202 225v-811q176 23 213 232h180q-25 -166 -123 -266.5
t-270 -114.5v-178z" />
    <glyph glyph-name="sterling" unicode="&#xa3;" 
d="M469 511q0 -222 -100 -351h766l-27 -160h-930l2 145q121 131 121 363q0 4 -12 127h-152v147h133q-22 135 -22 238q0 206 122.5 320t311.5 114q291 0 347 -131t71 -199l-158 -30q-34 114 -72.5 149t-79 47.5t-102.5 12.5q-141 0 -204.5 -81t-63.5 -186t22 -254h461v-147
h-440q6 -49 6 -124z" />
    <glyph glyph-name="currency" unicode="&#xa4;" 
d="M638.5 365q114.5 0 183.5 92t69 252q0 247 -105.5 297.5t-217.5 50.5t-183.5 -95t-71.5 -253q0 -244 105.5 -294t220 -50zM150 704q0 180 90 316l-119 127l110 108l123 -133q104 76 253 76t249 -76l125 133l111 -108l-123 -129q84 -121 84 -305.5t-84 -311.5l125 -129
l-113 -106l-125 129q-109 -72 -254 -72t-250 68l-121 -125l-112 106l119 125q-88 127 -88 307z" />
    <glyph glyph-name="yen" unicode="&#xa5;" 
d="M150 459h370v151l-26 45h-344v138h260l-363 622h197l366 -661l373 661h182l-358 -622h266v-138h-352l-23 -45v-151h375v-137h-375v-322h-178v322h-370v137z" />
    <glyph glyph-name="brokenbar" unicode="&#xa6;" horiz-adv-x="466" 
d="M145 461h177v-715h-177v715zM145 1503h177v-704h-177v704z" />
    <glyph glyph-name="section" unicode="&#xa7;" horiz-adv-x="1079" 
d="M304 782.5q-44 -53.5 -44 -127.5t40.5 -124t160.5 -85l59 -14q61 -18 132 -10t125 58t54 126t-39.5 125.5t-160.5 83.5l-84 23q-70 20 -123 8q-76 -10 -120 -63.5zM303 920q-199 84 -199 252q0 162 121 244.5t327 82.5q366 0 435 -293l-162 -37q-31 95 -92 139t-200 44
q-140 0 -197 -48.5t-57 -114.5t39 -108.5t153 -72.5l191 -50q174 -43 253.5 -120.5t79.5 -204.5q0 -203 -204 -285q162 -73 188 -217q12 -49 4 -100q-12 -141 -126 -210t-296 -69q-321 0 -395 130t-82 231h174q20 -121 91 -167t177 -46q174 0 230.5 44.5t56.5 117.5
t-39 119.5t-153 76.5l-183 47q-182 45 -261 125t-79 217q0 90 52.5 162t152.5 111z" />
    <glyph glyph-name="dieresis" unicode="&#xa8;" horiz-adv-x="1167" 
d="M670 1462h182v-202h-182v202zM313 1462h181v-202h-181v202z" />
    <glyph glyph-name="copyright" unicode="&#xa9;" horiz-adv-x="1585" 
d="M1135 612q-43 -290 -355 -290q-168 0 -262 109.5t-94 296.5t101.5 299t259.5 112q157 0 236 -70t99 -188l-149 -27q-33 154 -174 154q-109 0 -160 -76t-51 -235t75.5 -201.5t133.5 -42.5q163 0 186 159h154zM1184.5 1159q-152.5 164 -395.5 164q-242 0 -393.5 -163
t-151.5 -430t151.5 -430t394.5 -163q242 0 394.5 164t152.5 429t-152.5 429zM293 1259.5q201 202.5 506 202.5q304 0 497 -199t193 -528t-199.5 -532t-501.5 -203q-150 0 -279.5 52t-273 201t-143.5 476.5t201 530z" />
    <glyph glyph-name="ordfeminine" unicode="&#xaa;" horiz-adv-x="870" 
d="M231 922q0 -121 148 -121q91 0 162 45t71 155v82l-116 -4q-154 -8 -209.5 -42.5t-55.5 -114.5zM374 682q-139 0 -215.5 59.5t-76.5 176.5q0 144 106 200t299 66l125 6v18q0 90 -39 134t-133 44t-133 -31.5t-53 -82.5l-129 16q43 211 321 211q243 0 277.5 -113.5
t34.5 -183.5v-502h-142v95q-103 -113 -242 -113z" />
    <glyph glyph-name="guillemotleft" unicode="&#xab;" horiz-adv-x="1017" 
d="M88 526l281 455h180l-258 -453l258 -460h-184zM498 526l280 455h180l-258 -453l258 -460h-184z" />
    <glyph glyph-name="logicalnot" unicode="&#xac;" 
d="M135 885h909v-547h-161v389h-748v158z" />
    <glyph glyph-name="uni00AD" unicode="&#xad;" horiz-adv-x="798" 
d="M98 688h602v-178h-602v178z" />
    <glyph glyph-name="registered" unicode="&#xae;" horiz-adv-x="989" 
d="M491.5 711q141.5 0 230.5 90t89 256t-89 256t-230.5 90t-228.5 -90t-87 -256t87 -256t228.5 -90zM185.5 733.5q-117.5 119.5 -117.5 322.5t122 323t311 120t304 -120.5t115 -321.5t-123 -322t-309 -121q-185 0 -302.5 119.5zM500 1092q53 0 63 16t10 36t-14 36t-72 16
h-61v-104h74zM487 1276q181 0 181 -129q0 -45 -15.5 -72.5t-54.5 -44.5l90 -176h-106l-78 156h-78v-156h-96v422h157z" />
    <glyph glyph-name="macron" unicode="&#xaf;" horiz-adv-x="1167" 
d="M315 1419h535v-145h-535v145z" />
    <glyph glyph-name="degree" unicode="&#xb0;" horiz-adv-x="686" 
d="M343 1018q67 0 109 42t42 114t-42 115.5t-109 43.5t-108.5 -43.5t-41.5 -115.5t41.5 -114t108.5 -42zM55 1175.5q0 61.5 21.5 112.5t60.5 90t92.5 60.5t115 21.5t114.5 -21.5t91 -60.5t59.5 -90t21.5 -112.5t-21.5 -113.5t-59.5 -91t-91 -60.5t-114.5 -21.5t-115 21.5
t-92.5 60.5t-60.5 91t-21.5 113.5z" />
    <glyph glyph-name="plusminus" unicode="&#xb1;" 
d="M524 618h-393v158h393v422h164v-422h393v-158h-393v-421h-164v421zM164 162h885v-162h-885v162z" />
    <glyph glyph-name="twosuperior" unicode="&#xb2;" horiz-adv-x="843" 
d="M551 1175q0 140 -127 140q-70 0 -110 -33t-60 -108l-145 22q64 252 317 252q137 0 210 -69t74 -174t-37 -165q-38 -61 -101 -125t-218 -182h367l-23 -133h-573v119q33 29 88 72t154 127t142 135q42 52 42 122z" />
    <glyph glyph-name="threesuperior" unicode="&#xb3;" horiz-adv-x="843" 
d="M729 834q0 -117 -73 -192t-235 -75t-244 96q-63 74 -68 181h139q10 -72 48 -112t124 -40q158 0 158 139q0 72 -41 100t-107 27h-96v127h98q57 0 94 30t37 93q0 117 -143 117q-74 0 -112 -33t-56 -102l-139 22q18 96 91 165t218 70t217 -63t72 -170q0 -107 -105 -180
q123 -56 123 -200z" />
    <glyph glyph-name="acute" unicode="&#xb4;" horiz-adv-x="1167" 
d="M590 1501h219l-277 -291h-176z" />
    <glyph glyph-name="mu" unicode="&#xb5;" horiz-adv-x="1155" 
d="M315 -397h-178v1456h178v-676q0 -147 54.5 -204.5t160.5 -57.5t208 88t102 205v645h178v-1059h-176v160q-140 -191 -332 -191q-132 0 -195 70v-436z" />
    <glyph glyph-name="paragraph" unicode="&#xb6;" horiz-adv-x="1247" 
d="M174.5 1344.5q131.5 117.5 439.5 117.5h488v-1747h-178v1596h-244v-1596h-178v891q-237 7 -348 126t-111 307t131.5 305.5z" />
    <glyph glyph-name="periodcentered" unicode="&#xb7;" horiz-adv-x="458" 
d="M127 885h205v-240h-205v240z" />
    <glyph glyph-name="cedilla" unicode="&#xb8;" horiz-adv-x="1167" 
d="M514 -311q115 0 115 63q0 35 -30 50.5t-112 15.5h-43l70 192h117l-39 -108q184 -20 184 -162q0 -92 -69.5 -129t-163.5 -37t-152 10v113q78 -8 123 -8z" />
    <glyph glyph-name="onesuperior" unicode="&#xb9;" horiz-adv-x="843" 
d="M551 1417v-817h-164v655l-188 -98l-62 117l254 143h160z" />
    <glyph glyph-name="ordmasculine" unicode="&#xba;" horiz-adv-x="876" 
d="M438 801q121 0 175.5 79.5t54.5 205.5t-54.5 207t-175.5 81q-171 0 -200 -112.5t-29 -176.5q0 -127 54 -205.5t175 -78.5zM159.5 784.5q-102.5 110.5 -102.5 299.5t105.5 302t278.5 113t275.5 -109.5t102.5 -301.5t-104 -303t-279 -111q-174 0 -276.5 110.5z" />
    <glyph glyph-name="guillemotright" unicode="&#xbb;" horiz-adv-x="1017" 
d="M317 520l-258 461h185l276 -459l-280 -454h-181zM727 520l-258 461h184l277 -459l-281 -454h-180z" />
    <glyph glyph-name="onequarter" unicode="&#xbc;" horiz-adv-x="1865" 
d="M623 0h-174l718 1415h174zM1509 311v310l-239 -310h239zM1657 817v-506h102l-20 -121h-82v-190h-148v190h-401v101l408 526h141zM479 1417v-817h-164v655l-188 -98l-61 117l253 143h160z" />
    <glyph glyph-name="onehalf" unicode="&#xbd;" horiz-adv-x="1865" 
d="M569 0h-174l719 1415h174zM1124 596q64 252 314 252q141 0 218 -73q70 -66 70 -175q0 -51 -11 -94q-29 -115 -214 -268q-56 -48 -131 -105h367l-23 -133h-573v119q33 29 88 71t155 129q100 86 141 134q40 49 41 120q1 72 -32 107q-32 35 -98 35t-106 -33t-60 -109z
M479 1417v-817h-164v655l-188 -98l-61 117l253 143h160z" />
    <glyph glyph-name="threequarters" unicode="&#xbe;" horiz-adv-x="1865" 
d="M717 0h-174l719 1415h174zM1509 311v310l-239 -310h239zM1657 817v-506h102l-20 -121h-82v-190h-148v190h-401v101l408 526h141zM729 834q0 -117 -73 -192t-235 -75t-244 96q-63 74 -68 181h139q10 -72 48 -112t124 -40q158 0 158 139q0 72 -41 100t-107 27h-96v127h98
q57 0 94 30t37 93q0 117 -143 117q-74 0 -112 -33t-56 -102l-139 22q18 96 91 165t218 70t217 -63t72 -170q0 -107 -105 -180q123 -56 123 -200z" />
    <glyph glyph-name="questiondown" unicode="&#xbf;" horiz-adv-x="1013" 
d="M430 1059h199v-238h-199v238zM512 -422q-208 0 -320 103.5t-112 268.5t73 250.5t135 144t107 118t45 151.5v27h176v-33q0 -159 -92 -246.5t-135 -129.5t-84 -103t-43 -163t60.5 -168t190.5 -66t196.5 60.5t103.5 189.5l164 -27q-49 -258 -202 -317.5t-263 -59.5z" />
    <glyph glyph-name="Agrave" unicode="&#xc0;" horiz-adv-x="1380" 
d="M942 571l-258 678l-254 -678h512zM592 1462h199l567 -1462h-205l-154 408h-626l-154 -408h-196zM604 1860l240 -277h-178l-283 277h221z" />
    <glyph glyph-name="Aacute" unicode="&#xc1;" horiz-adv-x="1380" 
d="M942 571l-258 678l-254 -678h512zM592 1462h199l567 -1462h-205l-154 408h-626l-154 -408h-196zM776 1860h221l-282 -277h-178z" />
    <glyph glyph-name="Acircumflex" unicode="&#xc2;" horiz-adv-x="1380" 
d="M942 571l-258 678l-254 -678h512zM592 1462h199l567 -1462h-205l-154 408h-626l-154 -408h-196zM600 1860h178l236 -277h-168l-158 162l-158 -162h-168z" />
    <glyph glyph-name="Atilde" unicode="&#xc3;" horiz-adv-x="1380" 
d="M942 571l-258 678l-254 -678h512zM592 1462h199l567 -1462h-205l-154 408h-626l-154 -408h-196zM322 1595q0 119 57 181t144 61q87 0 173 -54q33 -19 64 -37q32 -18 76 -17q84 0 86 104h135q1 -121 -57 -181t-158 -61q-51 -1 -89 17t-71 38t-64 36q-32 18 -76 18
q-86 1 -85 -105h-135z" />
    <glyph glyph-name="Adieresis" unicode="&#xc4;" horiz-adv-x="1380" 
d="M942 571l-258 678l-254 -678h512zM592 1462h199l567 -1462h-205l-154 408h-626l-154 -408h-196zM778 1827h189v-209h-189v209zM412 1827h186v-209h-186v209z" />
    <glyph glyph-name="Aring" unicode="&#xc5;" horiz-adv-x="1380" 
d="M688 1704q-100 0 -100 -108t100 -107q100 -1 100 107t-100 108zM942 571l-258 678l-254 -678h512zM475 1583q0 116 63.5 169.5t149.5 53.5q145 0 180 -79.5t35 -133.5q0 -118 -94 -180l549 -1413h-205l-154 408h-626l-154 -408h-196l548 1411q-96 56 -96 172z" />
    <glyph glyph-name="AE" unicode="&#xc6;" horiz-adv-x="2127" 
d="M1128 647v649h-135l-387 -649h522zM2019 1462v-166h-710v-458h669v-168h-669v-504h749l-30 -166h-900v485h-616l-287 -485h-215l891 1462h1118z" />
    <glyph glyph-name="Ccedilla" unicode="&#xc7;" horiz-adv-x="1454" 
d="M694 -336q117 0 117 53.5t-29.5 69.5t-115.5 16h-43l59 164q-266 24 -418.5 225t-152.5 550t182.5 553t470.5 204q376 0 464.5 -186.5t110.5 -292.5l-184 -31q-58 258 -178.5 302t-220.5 44t-185.5 -44t-143.5 -122.5t-89 -190.5t-31 -315.5t120 -369.5t339 -166
q275 0 331 138t68 216h195q-38 -347 -233 -428.5t-326 -87.5l-29 -76q195 -21 195 -168q0 -96 -73 -134t-165 -38t-164 11v114q68 -10 129 -10z" />
    <glyph glyph-name="Egrave" unicode="&#xc8;" horiz-adv-x="1216" 
d="M162 1462h946v-166h-758v-458h717v-168h-717v-504h797l-31 -166h-954v1462zM578 1860l239 -277h-178l-283 277h222z" />
    <glyph glyph-name="Eacute" unicode="&#xc9;" horiz-adv-x="1216" 
d="M162 1462h946v-166h-758v-458h717v-168h-717v-504h797l-31 -166h-954v1462zM715 1860h221l-283 -277h-178z" />
    <glyph glyph-name="Ecircumflex" unicode="&#xca;" horiz-adv-x="1216" 
d="M162 1462h946v-166h-758v-458h717v-168h-717v-504h797l-31 -166h-954v1462zM551 1860h178l236 -277h-168l-158 162l-158 -162h-168z" />
    <glyph glyph-name="Edieresis" unicode="&#xcb;" horiz-adv-x="1216" 
d="M162 1462h946v-166h-758v-458h717v-168h-717v-504h797l-31 -166h-954v1462zM729 1827h189v-209h-189v209zM362 1827h187v-209h-187v209z" />
    <glyph glyph-name="Igrave" unicode="&#xcc;" horiz-adv-x="512" 
d="M162 1462h188v-1462h-188v1462zM158 1860l239 -277h-178l-282 277h221z" />
    <glyph glyph-name="Iacute" unicode="&#xcd;" horiz-adv-x="512" 
d="M162 1462h188v-1462h-188v1462zM358 1860h222l-283 -277h-178z" />
    <glyph glyph-name="Icircumflex" unicode="&#xce;" horiz-adv-x="512" 
d="M162 1462h188v-1462h-188v1462zM168 1860h178l236 -277h-168l-158 162l-158 -162h-168z" />
    <glyph glyph-name="Idieresis" unicode="&#xcf;" horiz-adv-x="512" 
d="M162 1462h188v-1462h-188v1462zM346 1827h189v-209h-189v209zM-20 1827h186v-209h-186v209z" />
    <glyph glyph-name="Eth" unicode="&#xd0;" horiz-adv-x="1488" 
d="M1184 737q0 563 -484 563h-323v-464h373v-160h-373v-512h285q272 0 397 152.5t125 420.5zM188 676h-168v160h168v626h512q493 0 586.5 -269t93.5 -453q0 -363 -192 -551.5t-535 -188.5h-465v676z" />
    <glyph glyph-name="Ntilde" unicode="&#xd1;" horiz-adv-x="1435" 
d="M162 1462h186l744 -1161v1161h182v-1462h-180l-750 1155v-1155h-182v1462zM356 1595q0 119 58 181t142 61q85 0 175 -54q33 -19 64 -37t75 -17q86 0 86 104h136q0 -121 -58 -181t-143 -60q-86 0 -174 54q-33 19 -64 36q-31 18 -75 18q-86 1 -86 -105h-136z" />
    <glyph glyph-name="Ograve" unicode="&#xd2;" horiz-adv-x="1566" 
d="M1260 731q0 277 -123 441q-123 163 -353 163t-354 -163q-123 -163 -123 -443t121 -441t353 -161t356 164q123 163 123 440zM111 727q0 363 186 567q186 205 490 205t487 -201q182 -201 182 -564t-182 -567t-489 -204t-491 201q-183 200 -183 563zM717 1860l239 -277h-178
l-282 277h221z" />
    <glyph glyph-name="Oacute" unicode="&#xd3;" horiz-adv-x="1566" 
d="M1260 731q0 277 -123 441q-123 163 -353 163t-354 -163q-123 -163 -123 -443t121 -441t353 -161t356 164q123 163 123 440zM111 727q0 363 186 567q186 205 490 205t487 -201q182 -201 182 -564t-182 -567t-489 -204t-491 201q-183 200 -183 563zM856 1860h221l-282 -277
h-179z" />
    <glyph glyph-name="Ocircumflex" unicode="&#xd4;" horiz-adv-x="1566" 
d="M1260 731q0 277 -123 441q-123 163 -353 163t-354 -163q-123 -163 -123 -443t121 -441t353 -161t356 164q123 163 123 440zM111 727q0 363 186 567q186 205 490 205t487 -201q182 -201 182 -564t-182 -567t-489 -204t-491 201q-183 200 -183 563zM694 1860h178l236 -277
h-168l-158 162l-157 -162h-168z" />
    <glyph glyph-name="Otilde" unicode="&#xd5;" horiz-adv-x="1566" 
d="M1260 731q0 277 -123 441q-123 163 -353 163t-354 -163q-123 -163 -123 -443t121 -441t353 -161t356 164q123 163 123 440zM111 727q0 363 186 567q186 205 490 205t487 -201q182 -201 182 -564t-182 -567t-489 -204t-491 201q-183 200 -183 563zM416 1595q0 119 57 181
t143 61q86 0 175 -54q33 -19 63 -37t76 -17q84 0 86 104h135q0 -121 -57 -181t-158 -61q-51 -1 -89 17t-71 38q-34 20 -64 36q-30 18 -75 18q-86 1 -86 -105h-135z" />
    <glyph glyph-name="Odieresis" unicode="&#xd6;" horiz-adv-x="1566" 
d="M1260 731q0 277 -123 441q-123 163 -353 163t-354 -163q-123 -163 -123 -443t121 -441t353 -161t356 164q123 163 123 440zM111 727q0 363 186 567q186 205 490 205t487 -201q182 -201 182 -564t-182 -567t-489 -204t-491 201q-183 200 -183 563zM872 1827h189v-209h-189
v209zM506 1827h186v-209h-186v209z" />
    <glyph glyph-name="multiply" unicode="&#xd7;" 
d="M180 375l318 315l-332 334l108 109l332 -328l332 328l109 -109l-332 -334l317 -315l-108 -113l-318 318l-317 -318z" />
    <glyph glyph-name="Oslash" unicode="&#xd8;" horiz-adv-x="1566" 
d="M307 737q0 -274 109 -432l628 952q-112 78 -245 78q-247 0 -369.5 -162t-122.5 -436zM762 127q252 0 375 163t123 434t-113 431l-629 -952q106 -76 244 -76zM309 147q-198 206 -198 574t185 573t488 205q205 0 359 -94l108 166l117 -82l-113 -172q201 -205 201 -577
q0 -371 -182 -574t-490 -203q-205 0 -362 94l-111 -166l-116 80z" />
    <glyph glyph-name="Ugrave" unicode="&#xd9;" horiz-adv-x="1396" 
d="M1251 580q0 -617 -553 -617q-264 -1 -408 147t-145 478v874h189v-882q0 -227 85 -340t283 -113t279 114q82 114 82 339v882h188v-882zM621 1860l239 -277h-178l-283 277h222z" />
    <glyph glyph-name="Uacute" unicode="&#xda;" horiz-adv-x="1396" 
d="M1251 580q0 -617 -553 -617q-264 -1 -408 147t-145 478v874h189v-882q0 -227 85 -340t283 -113t279 114q82 114 82 339v882h188v-882zM786 1860h222l-283 -277h-178z" />
    <glyph glyph-name="Ucircumflex" unicode="&#xdb;" horiz-adv-x="1396" 
d="M1251 580q0 -617 -553 -617q-264 -1 -408 147t-145 478v874h189v-882q0 -227 85 -340t283 -113t279 114q82 114 82 339v882h188v-882zM608 1860h178l236 -277h-168l-158 162l-157 -162h-168z" />
    <glyph glyph-name="Udieresis" unicode="&#xdc;" horiz-adv-x="1396" 
d="M1251 580q0 -617 -553 -617q-264 -1 -408 147t-145 478v874h189v-882q0 -227 85 -340t283 -113t279 114q82 114 82 339v882h188v-882zM786 1827h189v-209h-189v209zM420 1827h186v-209h-186v209z" />
    <glyph glyph-name="Yacute" unicode="&#xdd;" horiz-adv-x="1255" 
d="M727 0h-190v621l-510 841h217l387 -676l397 676h199l-500 -841v-621zM717 1860h221l-283 -277h-178z" />
    <glyph glyph-name="Thorn" unicode="&#xde;" horiz-adv-x="1282" 
d="M649 455q292 0 323.5 113.5t31.5 182.5q0 144 -77.5 211.5t-279.5 67.5h-299v-575h301zM162 1462h186v-272h303q303 0 422 -119t119 -323q0 -453 -541 -453h-303v-295h-186v1462z" />
    <glyph glyph-name="germandbls" unicode="&#xdf;" horiz-adv-x="1179" 
d="M573 1337q-260 0 -260 -284v-1053h-174v1057q0 199 114.5 310.5t318.5 111.5t308.5 -94.5t104.5 -258.5q0 -228 -190 -319q214 -48 261.5 -180.5t47.5 -219.5q0 -191 -107.5 -310.5t-334.5 -119.5q-120 0 -222 35l31 140q84 -29 171 -29q161 0 222.5 76t61.5 215
q0 291 -351 291h-100v145h84q250 0 250 262q0 159 -86 192t-150 33z" />
    <glyph glyph-name="agrave" unicode="&#xe0;" horiz-adv-x="1101" 
d="M252 284q0 -66 48 -115q48 -48 159 -48q158 0 246 78t88 213v118l-170 -6q-211 -8 -295 -64q-42 -28 -58 -69q-18 -41 -18 -107zM793 698q1 134 -57 194t-186 60t-188 -42t-77 -115l-162 18q29 145 137 212q109 67 295 67q327 0 392 -234q22 -76 22 -170v-688h-172v145
q-137 -168 -365 -170q-255 0 -336 179q-26 60 -26 154t46 162q85 124 296 161q96 16 198 20l183 6v41zM281 1501h219l233 -291h-176z" />
    <glyph glyph-name="aacute" unicode="&#xe1;" horiz-adv-x="1101" 
d="M252 284q0 -66 48 -115q48 -48 159 -48q158 0 246 78t88 213v118l-170 -6q-211 -8 -295 -64q-42 -28 -58 -69q-18 -41 -18 -107zM793 698q1 134 -57 194t-186 60t-188 -42t-77 -115l-162 18q29 145 137 212q109 67 295 67q327 0 392 -234q22 -76 22 -170v-688h-172v145
q-137 -168 -365 -170q-255 0 -336 179q-26 60 -26 154t46 162q85 124 296 161q96 16 198 20l183 6v41zM635 1501h219l-276 -291h-177z" />
    <glyph glyph-name="acircumflex" unicode="&#xe2;" horiz-adv-x="1101" 
d="M252 284q0 -66 48 -115q48 -48 159 -48q158 0 246 78t88 213v118l-170 -6q-211 -8 -295 -64q-42 -28 -58 -69q-18 -41 -18 -107zM793 698q1 134 -57 194t-186 60t-188 -42t-77 -115l-162 18q29 145 137 212q109 67 295 67q327 0 392 -234q22 -76 22 -170v-688h-172v145
q-137 -168 -365 -170q-255 0 -336 179q-26 60 -26 154t46 162q85 124 296 161q96 16 198 20l183 6v41zM463 1501h178l236 -291h-166l-160 181l-160 -181h-164z" />
    <glyph glyph-name="atilde" unicode="&#xe3;" horiz-adv-x="1101" 
d="M252 284q0 -66 48 -115q48 -48 159 -48q158 0 246 78t88 213v118l-170 -6q-211 -8 -295 -64q-42 -28 -58 -69q-18 -41 -18 -107zM793 698q1 134 -57 194t-186 60t-188 -42t-77 -115l-162 18q29 145 137 212q109 67 295 67q327 0 392 -234q22 -76 22 -170v-688h-172v145
q-137 -168 -365 -170q-255 0 -336 179q-26 60 -26 154t46 162q85 124 296 161q96 16 198 20l183 6v41zM774 1473h131q0 -119 -55 -179t-140 -61q-85 0 -171 54q-33 19 -64 37t-73 17q-82 0 -85 -102h-131q0 119 56 179t141 60q86 0 170 -52q85 -53 131 -54q90 0 90 101z" />
    <glyph glyph-name="adieresis" unicode="&#xe4;" horiz-adv-x="1101" 
d="M252 284q0 -66 48 -115q48 -48 159 -48q158 0 246 78t88 213v118l-170 -6q-211 -8 -295 -64q-42 -28 -58 -69q-18 -41 -18 -107zM793 698q1 134 -57 194t-186 60t-188 -42t-77 -115l-162 18q29 145 137 212q109 67 295 67q327 0 392 -234q22 -76 22 -170v-688h-172v145
q-137 -168 -365 -170q-255 0 -336 179q-26 60 -26 154t46 162q85 124 296 161q96 16 198 20l183 6v41zM635 1462h182v-202h-182v202zM279 1462h180v-202h-180v202z" />
    <glyph glyph-name="aring" unicode="&#xe5;" horiz-adv-x="1101" 
d="M252 284q0 -66 48 -115q48 -48 159 -48q158 0 246 78t88 213v118l-170 -6q-211 -8 -295 -64q-42 -28 -58 -69q-18 -41 -18 -107zM793 698q1 134 -57 194t-186 60t-188 -42t-77 -115l-162 18q29 145 137 212q109 67 295 67q327 0 392 -234q22 -76 22 -170v-688h-172v145
q-137 -168 -365 -170q-255 0 -336 179q-26 60 -26 154t46 162q85 124 296 161q96 16 198 20l183 6v41zM549 1518q-98 0 -97 -106t99 -105q98 -1 97 105t-99 106zM342 1411q0 101 61 155t148 54t147 -55t61 -154t-59 -151t-148 -53q-87 -1 -149 50q-61 52 -61 154z" />
    <glyph glyph-name="ae" unicode="&#xe6;" horiz-adv-x="1826" 
d="M1552 618q0 241 -105.5 288.5t-180.5 47.5q-135 0 -213 -86t-95 -250h594zM252 290q0 -60 42 -114.5t186 -52.5t222 81t78 208v118l-170 -6q-292 -11 -325 -92.5t-33 -141.5zM901 903q135 189 367 189t346.5 -140.5t114.5 -376.5v-90h-775q6 -259 122 -316.5t218 -57.5
t163 50t83 136h172q-27 -154 -135.5 -242t-308.5 -88q-147 0 -251 62.5t-155 169.5q-144 -224 -418 -224q-166 0 -270 79t-104 239q0 280 215 317t313 41l182 6v31q0 139 -53 201.5t-180 62.5t-185.5 -42t-76.5 -115l-162 18q29 133 122 199.5t253 74.5q73 8 139 -2
q193 -27 264 -182z" />
    <glyph glyph-name="ccedilla" unicode="&#xe7;" horiz-adv-x="1144" 
d="M508 -311q115 0 115 63q0 35 -30 50.5t-112 15.5h-43l58 157q-195 31 -294.5 176.5t-99.5 388.5t137 397.5t371 154.5q190 0 295 -93.5t133 -257.5l-178 -32q-46 235 -256 235q-161 0 -237 -114.5t-76 -353t112.5 -300t198.5 -61.5q129 0 191.5 65.5t80.5 177.5h181
q-27 -180 -136.5 -283.5t-310.5 -107.5l-22 -65q184 -20 184 -162q0 -92 -69.5 -129t-163.5 -37t-152 10v113q78 -8 123 -8z" />
    <glyph glyph-name="egrave" unicode="&#xe8;" horiz-adv-x="1167" 
d="M891 618q0 240 -158 312q-55 25 -133 24q-141 0 -220 -86t-93 -250h604zM602 -33q-242 1 -371 147t-129 412t139 416t368 150q228 0 344 -142t116 -375v-90h-786q0 -163 85 -270q85 -106 226 -105t203 51q61 50 84 136h172q-27 -154 -137 -242t-314 -88zM313 1501h219
l234 -291h-176z" />
    <glyph glyph-name="eacute" unicode="&#xe9;" horiz-adv-x="1167" 
d="M891 618q0 240 -158 312q-55 25 -133 24q-141 0 -220 -86t-93 -250h604zM602 -33q-242 1 -371 147t-129 412t139 416t368 150q228 0 344 -142t116 -375v-90h-786q0 -163 85 -270q85 -106 226 -105t203 51q61 50 84 136h172q-27 -154 -137 -242t-314 -88zM692 1501h219
l-276 -291h-176z" />
    <glyph glyph-name="ecircumflex" unicode="&#xea;" horiz-adv-x="1167" 
d="M891 618q0 240 -158 312q-55 25 -133 24q-141 0 -220 -86t-93 -250h604zM602 -33q-242 1 -371 147t-129 412t139 416t368 150q228 0 344 -142t116 -375v-90h-786q0 -163 85 -270q85 -106 226 -105t203 51q61 50 84 136h172q-27 -154 -137 -242t-314 -88zM508 1501h178
l236 -291h-166l-160 181l-160 -181h-164z" />
    <glyph glyph-name="edieresis" unicode="&#xeb;" horiz-adv-x="1167" 
d="M891 618q0 240 -158 312q-55 25 -133 24q-141 0 -220 -86t-93 -250h604zM602 -33q-242 1 -371 147t-129 412t139 416t368 150q228 0 344 -142t116 -375v-90h-786q0 -163 85 -270q85 -106 226 -105t203 51q61 50 84 136h172q-27 -154 -137 -242t-314 -88zM684 1462h182
v-202h-182v202zM328 1462h180v-202h-180v202z" />
    <glyph glyph-name="igrave" unicode="&#xec;" horiz-adv-x="460" 
d="M141 1059h178v-1059h-178v1059zM-104 1501h219l233 -291h-176z" />
    <glyph glyph-name="iacute" unicode="&#xed;" horiz-adv-x="460" 
d="M141 1059h178v-1059h-178v1059zM356 1501h219l-276 -291h-176z" />
    <glyph glyph-name="icircumflex" unicode="&#xee;" horiz-adv-x="460" 
d="M141 1059h178v-1059h-178v1059zM143 1501h179l235 -291h-166l-160 181l-159 -181h-164z" />
    <glyph glyph-name="idieresis" unicode="&#xef;" horiz-adv-x="460" 
d="M141 1059h178v-1059h-178v1059zM319 1462h183v-202h-183v202zM-37 1462h180v-202h-180v202z" />
    <glyph glyph-name="eth" unicode="&#xf0;" horiz-adv-x="1230" 
d="M940 516q0 152 -76 238q-86 104 -248 104t-243.5 -105t-81.5 -266t82 -265.5t240 -104.5q159 0 243 102.5t84 267.5v29zM1128 567q0 -283 -139 -441.5t-374 -158.5t-374 141t-139 373.5t140 378.5t350 146q113 0 189.5 -34t140.5 -102q-55 279 -291 396l-158 -156l-82 84
l115 117q-111 33 -236 41l27 143q208 -23 326 -70l131 129l82 -86l-97 -96q389 -217 389 -805z" />
    <glyph glyph-name="ntilde" unicode="&#xf1;" horiz-adv-x="1167" 
d="M684 1092q354 0 354 -387v-705h-178v670q0 148 -53 208t-176 60t-211 -86q-51 -45 -78 -95t-27 -130v-627h-178v1059h176v-162q146 195 371 195zM823 1473h131q0 -119 -55 -179t-140 -61q-85 0 -171 54q-33 19 -64 37q-32 18 -74 17q-84 0 -83 -102h-131q0 119 55 179
t141 60t170 -52q85 -53 131 -54q90 0 90 101z" />
    <glyph glyph-name="ograve" unicode="&#xf2;" horiz-adv-x="1230" 
d="M614 115q86 1 148 31q178 89 178 382q0 294 -178 385q-62 31 -148 31t-146 -31q-177 -91 -177 -385t176 -383q61 -30 147 -30zM102 524q0 259 142 414q142 154 375 154q234 0 373 -151q138 -151 137 -409q-1 -259 -140 -412t-377 -153q-239 0 -374 149q-136 149 -136 408
zM336 1501h219l233 -291h-176z" />
    <glyph glyph-name="oacute" unicode="&#xf3;" horiz-adv-x="1230" 
d="M614 115q86 1 148 31q178 89 178 382q0 294 -178 385q-62 31 -148 31t-146 -31q-177 -91 -177 -385t176 -383q61 -30 147 -30zM102 524q0 259 142 414q142 154 375 154q234 0 373 -151q138 -151 137 -409q-1 -259 -140 -412t-377 -153q-239 0 -374 149q-136 149 -136 408
zM702 1501h220l-277 -291h-176z" />
    <glyph glyph-name="ocircumflex" unicode="&#xf4;" horiz-adv-x="1230" 
d="M614 115q86 1 148 31q178 89 178 382q0 294 -178 385q-62 31 -148 31t-146 -31q-177 -91 -177 -385t176 -383q61 -30 147 -30zM102 524q0 259 142 414q142 154 375 154q234 0 373 -151q138 -151 137 -409q-1 -259 -140 -412t-377 -153q-239 0 -374 149q-136 149 -136 408
zM526 1501h179l235 -291h-166l-160 181l-159 -181h-164z" />
    <glyph glyph-name="otilde" unicode="&#xf5;" horiz-adv-x="1230" 
d="M614 115q86 1 148 31q178 89 178 382q0 294 -178 385q-62 31 -148 31t-146 -31q-177 -91 -177 -385t176 -383q61 -30 147 -30zM102 524q0 259 142 414q142 154 375 154q234 0 373 -151q138 -151 137 -409q-1 -259 -140 -412t-377 -153q-239 0 -374 149q-136 149 -136 408
zM256 1239q0 119 55 179t141 60t171 -52q85 -53 133 -53q86 -1 88 100h131q0 -119 -55 -179t-139 -61q-84 0 -173 54q-34 19 -64 37t-73 17q-82 0 -84 -102h-131z" />
    <glyph glyph-name="odieresis" unicode="&#xf6;" horiz-adv-x="1230" 
d="M614 115q86 1 148 31q178 89 178 382q0 294 -178 385q-62 31 -148 31t-146 -31q-177 -91 -177 -385t176 -383q61 -30 147 -30zM102 524q0 259 142 414q142 154 375 154q234 0 373 -151q138 -151 137 -409q-1 -259 -140 -412t-377 -153q-239 0 -374 149q-136 149 -136 408
zM702 1462h183v-202h-183v202zM346 1462h180v-202h-180v202z" />
    <glyph glyph-name="divide" unicode="&#xf7;" 
d="M164 778h885v-162h-885v162zM512 438h190v-219h-190v219zM512 1176h190v-220h-190v220z" />
    <glyph glyph-name="oslash" unicode="&#xf8;" horiz-adv-x="1230" 
d="M608 115q171 0 251.5 111.5t80.5 292.5q0 180 -59 284l-435 -647q70 -41 162 -41zM623 944q-170 0 -251 -110t-81 -296t61 -284l434 645q-68 45 -163 45zM618 1092q147 0 256 -60l91 133l108 -75l-92 -138q147 -151 147 -415q0 -263 -138 -416.5t-390 -153.5
q-130 0 -242 56l-96 -142l-108 78l96 143q-148 147 -148 414t141 421.5t375 154.5z" />
    <glyph glyph-name="ugrave" unicode="&#xf9;" horiz-adv-x="1148" 
d="M131 356v703h178v-668q0 -147 48 -209t162 -61q114 0 210 86q51 45 78 95t27 130v627h178v-1059h-176v164q-151 -197 -363 -197q-180 -1 -261 97t-81 292zM276 1501h220l233 -291h-176z" />
    <glyph glyph-name="uacute" unicode="&#xfa;" horiz-adv-x="1148" 
d="M131 356v703h178v-668q0 -147 48 -209t162 -61q114 0 210 86q51 45 78 95t27 130v627h178v-1059h-176v164q-151 -197 -363 -197q-180 -1 -261 97t-81 292zM664 1501h219l-277 -291h-176z" />
    <glyph glyph-name="ucircumflex" unicode="&#xfb;" horiz-adv-x="1148" 
d="M131 356v703h178v-668q0 -147 48 -209t162 -61q114 0 210 86q51 45 78 95t27 130v627h178v-1059h-176v164q-151 -197 -363 -197q-180 -1 -261 97t-81 292zM487 1501h179l235 -291h-166l-160 181l-159 -181h-164z" />
    <glyph glyph-name="udieresis" unicode="&#xfc;" horiz-adv-x="1148" 
d="M131 356v703h178v-668q0 -147 48 -209t162 -61q114 0 210 86q51 45 78 95t27 130v627h178v-1059h-176v164q-151 -197 -363 -197q-180 -1 -261 97t-81 292zM662 1462h182v-202h-182v202zM305 1462h180v-202h-180v202z" />
    <glyph glyph-name="yacute" unicode="&#xfd;" horiz-adv-x="1071" 
d="M390 -378q-48 -20 -129 -19q-81 0 -163 28l35 144q57 -21 119 -21t98 34t70 126l43 113l-449 1032h207l334 -832l305 832h197l-463 -1159q-29 -72 -57 -126q-63 -118 -147 -152zM618 1501h220l-277 -291h-176z" />
    <glyph glyph-name="thorn" unicode="&#xfe;" horiz-adv-x="1226" 
d="M317 500q0 -192 83 -288.5t229 -96.5q217 0 262 152.5t45 268.5q0 215 -84.5 311.5t-217.5 96.5q-134 0 -225.5 -95.5t-91.5 -277.5v-71zM319 -397h-178v1859h178v-551q140 181 357 181t332.5 -151t115.5 -409t-127 -411.5t-339 -153.5q-211 0 -339 164v-528z" />
    <glyph glyph-name="ydieresis" unicode="&#xff;" horiz-adv-x="1071" 
d="M390 -378q-48 -20 -129 -19q-81 0 -163 28l35 144q57 -21 119 -21t98 34t70 126l43 113l-449 1032h207l334 -832l305 832h197l-463 -1159q-29 -72 -57 -126q-63 -118 -147 -152zM625 1462h182v-202h-182v202zM268 1462h181v-202h-181v202z" />
    <glyph glyph-name="Amacron" unicode="&#x100;" horiz-adv-x="1380" 
d="M942 571l-258 678l-254 -678h512zM592 1462h199l567 -1462h-205l-154 408h-626l-154 -408h-196zM389 1780h598v-152h-598v152z" />
    <glyph glyph-name="amacron" unicode="&#x101;" horiz-adv-x="1101" 
d="M252 284q0 -66 48 -115q48 -48 159 -48q158 0 246 78t88 213v118l-170 -6q-211 -8 -295 -64q-42 -28 -58 -69q-18 -41 -18 -107zM793 698q1 134 -57 194t-186 60t-188 -42t-77 -115l-162 18q29 145 137 212q109 67 295 67q327 0 392 -234q22 -76 22 -170v-688h-172v145
q-137 -168 -365 -170q-255 0 -336 179q-26 60 -26 154t46 162q85 124 296 161q96 16 198 20l183 6v41zM272 1419h535v-145h-535v145z" />
    <glyph glyph-name="Abreve" unicode="&#x102;" horiz-adv-x="1380" 
d="M942 571l-258 678l-254 -678h512zM592 1462h199l567 -1462h-205l-154 408h-626l-154 -408h-196zM545 1868q0 -86 41 -125t101 -39t104 39q43 39 43 125h139q0 -139 -76 -212t-209 -73t-208 73t-74 212h139z" />
    <glyph glyph-name="abreve" unicode="&#x103;" horiz-adv-x="1101" 
d="M252 284q0 -66 48 -115q48 -48 159 -48q158 0 246 78t88 213v118l-170 -6q-211 -8 -295 -64q-42 -28 -58 -69q-18 -41 -18 -107zM793 698q1 134 -57 194t-186 60t-188 -42t-77 -115l-162 18q29 145 137 212q109 67 295 67q327 0 392 -234q22 -76 22 -170v-688h-172v145
q-137 -168 -365 -170q-255 0 -336 179q-26 60 -26 154t46 162q85 124 296 161q96 16 198 20l183 6v41zM403 1493q0 -86 42 -126q41 -40 101 -40t103 40t43 126h135q-1 -137 -75 -211t-205 -74t-205 74t-74 211h135z" />
    <glyph glyph-name="Aogonek" unicode="&#x104;" horiz-adv-x="1380" 
d="M942 571l-258 678l-254 -678h512zM1057 -213q0 108 139 213h-43l-154 408h-626l-154 -408h-196l569 1462h199l567 -1462q-135 -96 -135 -180q0 -43 25.5 -57.5t49.5 -14.5h27q27 0 37 2v-127q-20 -4 -66 -4q-131 0 -185 44t-54 124z" />
    <glyph glyph-name="aogonek" unicode="&#x105;" horiz-adv-x="1101" 
d="M252 284q0 -66 48 -114.5t159 -48.5q158 0 246 77.5t88 213.5v118l-170 -6q-301 -11 -336 -92.5t-35 -147.5zM911 -369q-129 0 -180 42t-51 120q0 106 137 207h-20v145q-138 -170 -365 -170q-256 0 -309 119.5t-53 213.5t46 161.5t150 120t344 61.5l183 6v41
q0 135 -57.5 194.5t-185.5 59.5t-187.5 -42t-77.5 -115l-162 18q29 145 137.5 212t294.5 67q326 0 370 -155t44 -249v-688q-129 -96 -129 -176q0 -70 86 -70h18q17 0 33 2v-121q-28 -4 -66 -4z" />
    <glyph glyph-name="Cacute" unicode="&#x106;" horiz-adv-x="1454" 
d="M764 1499q377 0 511 -285q42 -88 64 -194l-184 -31q-39 173 -129 260q-91 88 -262 86q-214 0 -336 -165q-121 -166 -121 -440t120 -438q120 -165 339 -165q277 0 360 211q27 66 39 143h195q-25 -233 -177 -376q-152 -142 -438 -142q-287 0 -461 203q-173 203 -173 564
t183 565t470 204zM842 1860h221l-283 -277h-178z" />
    <glyph glyph-name="cacute" unicode="&#x107;" horiz-adv-x="1144" 
d="M102 525q0 259 138 413t370 154q190 0 294 -94t134 -257l-178 -32q-34 172 -150 218q-44 17 -117 17t-132 -32q-170 -92 -170 -382q0 -289 166 -383q59 -33 145 -32q129 0 192 65q62 66 80 178h181q-27 -182 -140 -286t-335 -104t-350 149t-128 408zM676 1501h219
l-277 -291h-176z" />
    <glyph glyph-name="Ccircumflex" unicode="&#x108;" horiz-adv-x="1454" 
d="M764 1499q377 0 511 -285q42 -88 64 -194l-184 -31q-39 173 -129 260q-91 88 -262 86q-214 0 -336 -165q-121 -166 -121 -440t120 -438q120 -165 339 -165q277 0 360 211q27 66 39 143h195q-25 -233 -177 -376q-152 -142 -438 -142q-287 0 -461 203q-173 203 -173 564
t183 565t470 204zM676 1860h178l236 -277h-168l-158 162l-158 -162h-168z" />
    <glyph glyph-name="ccircumflex" unicode="&#x109;" horiz-adv-x="1144" 
d="M102 525q0 259 138 413t370 154q190 0 294 -94t134 -257l-178 -32q-34 172 -150 218q-44 17 -117 17t-132 -32q-170 -92 -170 -382q0 -289 166 -383q59 -33 145 -32q129 0 192 65q62 66 80 178h181q-27 -182 -140 -286t-335 -104t-350 149t-128 408zM516 1501h178
l236 -291h-166l-160 181l-160 -181h-163z" />
    <glyph glyph-name="Cdotaccent" unicode="&#x10a;" horiz-adv-x="1454" 
d="M764 1499q377 0 511 -285q42 -88 64 -194l-184 -31q-39 173 -129 260q-91 88 -262 86q-214 0 -336 -165q-121 -166 -121 -440t120 -438q120 -165 339 -165q277 0 360 211q27 66 39 143h195q-25 -233 -177 -376q-152 -142 -438 -142q-287 0 -461 203q-173 203 -173 564
t183 565t470 204zM670 1831h190v-215h-190v215z" />
    <glyph glyph-name="cdotaccent" unicode="&#x10b;" horiz-adv-x="1144" 
d="M102 525q0 259 138 413t370 154q190 0 294 -94t134 -257l-178 -32q-34 172 -150 218q-44 17 -117 17t-132 -32q-170 -92 -170 -382q0 -289 166 -383q59 -33 145 -32q129 0 192 65q62 66 80 178h181q-27 -182 -140 -286t-335 -104t-350 149t-128 408zM514 1464h182v-207
h-182v207z" />
    <glyph glyph-name="Ccaron" unicode="&#x10c;" horiz-adv-x="1454" 
d="M764 1499q377 0 511 -285q42 -88 64 -194l-184 -31q-39 173 -129 260q-91 88 -262 86q-214 0 -336 -165q-121 -166 -121 -440t120 -438q120 -165 339 -165q277 0 360 211q27 66 39 143h195q-25 -233 -177 -376q-152 -142 -438 -142q-287 0 -461 203q-173 203 -173 564
t183 565t470 204zM438 1866h170l158 -164l158 164h166l-236 -275h-178z" />
    <glyph glyph-name="ccaron" unicode="&#x10d;" horiz-adv-x="1144" 
d="M102 525q0 259 138 413t370 154q190 0 294 -94t134 -257l-178 -32q-34 172 -150 218q-44 17 -117 17t-132 -32q-170 -92 -170 -382q0 -289 166 -383q59 -33 145 -32q129 0 192 65q62 66 80 178h181q-27 -182 -140 -286t-335 -104t-350 149t-128 408zM692 1214h-178
l-235 291h165l160 -180l160 180h164z" />
    <glyph glyph-name="Dcaron" unicode="&#x10e;" horiz-adv-x="1462" 
d="M1157 737q0 567 -483 563h-324v-1136h285q272 0 397 152t125 421zM162 1462h512q490 0 633 -403q47 -135 47 -319q0 -364 -193 -552t-534 -188h-465v1462zM307 1866h170l158 -164l158 164h165l-235 -275h-178z" />
    <glyph glyph-name="dcaron" unicode="&#x10f;" horiz-adv-x="1220" 
d="M909 561q0 127 -27 198q-28 71 -82 114t-100 57t-108 14q-135 0 -220 -102t-84 -317q1 -216 87 -312t205 -96t204 63q127 102 125 309v72zM907 152q-139 -185 -358 -185q-220 0 -333 155q-114 155 -114 409t125 407q125 154 336 154q212 0 340 -162v532h178v-1462h-174
v152zM1272 1462h176l-94 -418h-137z" />
    <glyph glyph-name="Dcroat" unicode="&#x110;" horiz-adv-x="1488" 
d="M1184 737q0 567 -484 563h-323v-464h373v-160h-373v-512h285q272 0 397 152t125 421zM188 676h-168v160h168v626h512q493 0 633 -403q47 -135 47 -319q0 -363 -192 -551q-192 -189 -535 -189h-465v676z" />
    <glyph glyph-name="dcroat" unicode="&#x111;" horiz-adv-x="1245" 
d="M909 524q0 119 -27.5 188.5t-81.5 112.5q-90 72 -215 72q-124 0 -210 -98.5t-86 -295.5t86 -291.5t205 -94.5t204 63q125 100 125 285v59zM909 152q-139 -185 -359 -185t-334 153.5t-114 387.5t126.5 385t344.5 151q86 0 171 -32.5t161 -128.5v299h-346v129h346v151h178
v-151h142v-129h-142v-1182h-174v152z" />
    <glyph glyph-name="Emacron" unicode="&#x112;" horiz-adv-x="1216" 
d="M162 1462h946v-166h-758v-458h717v-168h-717v-504h797l-31 -166h-954v1462zM342 1780h598v-152h-598v152z" />
    <glyph glyph-name="emacron" unicode="&#x113;" horiz-adv-x="1167" 
d="M891 618q0 240 -158 312q-55 25 -133 24q-141 0 -220 -86t-93 -250h604zM602 -33q-242 1 -371 147t-129 412t139 416t368 150q228 0 344 -142t116 -375v-90h-786q0 -163 85 -270q85 -106 226 -105t203 51q61 50 84 136h172q-27 -154 -137 -242t-314 -88zM336 1419h534
v-145h-534v145z" />
    <glyph glyph-name="Ebreve" unicode="&#x114;" horiz-adv-x="1216" 
d="M162 1462h946v-166h-758v-458h717v-168h-717v-504h797l-31 -166h-954v1462zM498 1868q0 -86 41 -125t101 -39t103 39t43 125h140q0 -139 -76 -212t-209 -73t-208 73t-75 212h140z" />
    <glyph glyph-name="ebreve" unicode="&#x115;" horiz-adv-x="1167" 
d="M891 618q0 240 -158 312q-55 25 -133 24q-141 0 -220 -86t-93 -250h604zM602 -33q-242 1 -371 147t-129 412t139 416t368 150q228 0 344 -142t116 -375v-90h-786q0 -163 85 -270q85 -106 226 -105t203 51q61 50 84 136h172q-27 -154 -137 -242t-314 -88zM459 1493
q0 -86 42 -126t101 -40t103 40q43 40 43 126h135q0 -137 -75 -211t-206 -74t-205 74t-73 211h135z" />
    <glyph glyph-name="Edotaccent" unicode="&#x116;" horiz-adv-x="1216" 
d="M162 1462h946v-166h-758v-458h717v-168h-717v-504h797l-31 -166h-954v1462zM547 1831h190v-215h-190v215z" />
    <glyph glyph-name="edotaccent" unicode="&#x117;" horiz-adv-x="1167" 
d="M891 618q0 240 -158 312q-55 25 -133 24q-141 0 -220 -86t-93 -250h604zM602 -33q-242 1 -371 147t-129 412t139 416t368 150q228 0 344 -142t116 -375v-90h-786q0 -163 85 -270q85 -106 226 -105t203 51q61 50 84 136h172q-27 -154 -137 -242t-314 -88zM512 1464h182
v-207h-182v207z" />
    <glyph glyph-name="Eogonek" unicode="&#x118;" horiz-adv-x="1216" 
d="M815 -213q0 106 139 213h-792v1462h946v-166h-758v-458h717v-168h-717v-504h797l-31 -166q-135 -96 -135 -180q0 -43 25.5 -57.5t49.5 -14.5h27q27 0 37 2v-127q-20 -4 -65 -4q-131 0 -185.5 44t-54.5 124z" />
    <glyph glyph-name="eogonek" unicode="&#x119;" horiz-adv-x="1167" 
d="M891 618q0 241 -106.5 288.5t-184.5 47.5q-141 0 -220 -86t-93 -250h604zM754 -369q-129 0 -180.5 42t-51.5 126t96 168h-16q-242 0 -371 146.5t-129 412.5t138.5 416t367.5 150t345 -141t116 -376v-90h-786q0 -163 84.5 -268.5t225.5 -105.5q142 0 203.5 50t84.5 136
h172q-37 -223 -244 -299q-127 -94 -127 -174q0 -70 86 -70h18q17 0 33 2v-121q-28 -4 -65 -4z" />
    <glyph glyph-name="Ecaron" unicode="&#x11a;" horiz-adv-x="1216" 
d="M162 1462h946v-166h-758v-458h717v-168h-717v-504h797l-31 -166h-954v1462zM315 1866h170l158 -164l158 164h166l-236 -275h-178z" />
    <glyph glyph-name="ecaron" unicode="&#x11b;" horiz-adv-x="1167" 
d="M891 618q0 240 -158 312q-55 25 -133 24q-141 0 -220 -86t-93 -250h604zM602 -33q-242 1 -371 147t-129 412t139 416t368 150q228 0 344 -142t116 -375v-90h-786q0 -163 85 -270q85 -106 226 -105t203 51q61 50 84 136h172q-27 -154 -137 -242t-314 -88zM692 1214h-178
l-235 291h165l160 -180l160 180h164z" />
    <glyph glyph-name="Gcircumflex" unicode="&#x11c;" horiz-adv-x="1466" 
d="M788 127q231 0 383 111v350h-368v164h547v-586q-104 -96 -253 -150q-149 -53 -310 -53q-321 0 -498 201q-178 201 -178 563t182 567t475 205q352 0 487 -247q43 -77 66 -171l-182 -30q-53 210 -220 266q-62 20 -164 20t-188 -44q-168 -86 -230 -315q-30 -112 -30 -247
q0 -433 268 -561q90 -43 213 -43zM682 1860h178l236 -277h-168l-158 162l-158 -162h-168z" />
    <glyph glyph-name="gcircumflex" unicode="&#x11d;" horiz-adv-x="1218" 
d="M907 569q0 195 -86 285t-223 90q-218 0 -286 -211q-24 -74 -24 -179t26 -179q71 -205 272 -205q141 0 232 94t89 271v34zM903 201q-127 -179 -350 -180t-338 151t-115 388q0 235 128 384q128 148 339 148q212 0 338 -168v135h176v-887q0 -303 -91 -433
q-107 -159 -382 -159q-210 0 -328 75t-139 247h176q23 -96 87 -138q66 -40 218 -40t217 93t64 271v113zM535 1501h178l235 -291h-166l-159 181l-160 -181h-164z" />
    <glyph glyph-name="Gbreve" unicode="&#x11e;" horiz-adv-x="1466" 
d="M788 127q231 0 383 111v350h-368v164h547v-586q-104 -96 -253 -150q-149 -53 -310 -53q-321 0 -498 201q-178 201 -178 563t182 567t475 205q352 0 487 -247q43 -77 66 -171l-182 -30q-53 210 -220 266q-62 20 -164 20t-188 -44q-168 -86 -230 -315q-30 -112 -30 -247
q0 -433 268 -561q90 -43 213 -43zM627 1868q0 -86 41 -125t101 -39t103 39t43 125h140q0 -139 -76 -212t-209 -73t-208 73t-75 212h140z" />
    <glyph glyph-name="gbreve" unicode="&#x11f;" horiz-adv-x="1218" 
d="M907 569q0 195 -86 285t-223 90q-218 0 -286 -211q-24 -74 -24 -179t26 -179q71 -205 272 -205q141 0 232 94t89 271v34zM903 201q-127 -179 -350 -180t-338 151t-115 388q0 235 128 384q128 148 339 148q212 0 338 -168v135h176v-887q0 -303 -91 -433
q-107 -159 -382 -159q-210 0 -328 75t-139 247h176q23 -96 87 -138q66 -40 218 -40t217 93t64 271v113zM479 1493q0 -86 42 -126q41 -40 101 -40t103 40t43 126h135q0 -137 -75 -211q-76 -74 -206 -74t-204 74t-74 211h135z" />
    <glyph glyph-name="Gdotaccent" unicode="&#x120;" horiz-adv-x="1466" 
d="M788 127q231 0 383 111v350h-368v164h547v-586q-104 -96 -253 -150q-149 -53 -310 -53q-321 0 -498 201q-178 201 -178 563t182 567t475 205q352 0 487 -247q43 -77 66 -171l-182 -30q-53 210 -220 266q-62 20 -164 20t-188 -44q-168 -86 -230 -315q-30 -112 -30 -247
q0 -433 268 -561q90 -43 213 -43zM676 1831h190v-215h-190v215z" />
    <glyph glyph-name="gdotaccent" unicode="&#x121;" horiz-adv-x="1218" 
d="M907 569q0 195 -86 285t-223 90q-218 0 -286 -211q-24 -74 -24 -179t26 -179q71 -205 272 -205q141 0 232 94t89 271v34zM903 201q-127 -179 -350 -180t-338 151t-115 388q0 235 128 384q128 148 339 148q212 0 338 -168v135h176v-887q0 -303 -91 -433
q-107 -159 -382 -159q-210 0 -328 75t-139 247h176q23 -96 87 -138q66 -40 218 -40t217 93t64 271v113zM522 1464h183v-207h-183v207z" />
    </font>
</defs>
</svg>
