<?xml version="1.0" standalone="no"?>
<!DOCTYPE svg PUBLIC "-//W3C//DTD SVG 1.1//EN" "http://www.w3.org/Graphics/SVG/1.1/DTD/svg11.dtd" >
<svg xmlns="http://www.w3.org/2000/svg">
<metadata>
Created by FontPrep 20130207 at Mon Apr  4 11:48:33 2016
 By Callum Flack
Copyright 2015 Dalton Maag Ltd. All rights reserved. This font may not be altered in any way without prior permission of Dalton Maag Ltd.
</metadata>
<defs>
<font id="09d3d5b6f6fd15f83825f8102e6981e2" horiz-adv-x='1024' >
  <font-face 
    font-family="AktivGroteskTrial-Thin"
    font-weight="275"
    font-stretch="normal"
    units-per-em="2048"
    panose-1="2 11 4 4 2 2 2 2 2 4"
    ascent="1462"
    descent="-586"
    x-height="1051"
    cap-height="1462"
    bbox="-344 -436 2507 1872"
    underline-thickness="139"
    underline-position="-133"
    unicode-range="U+0008-FEFF"
  />
<missing-glyph horiz-adv-x="1024" 
d="M819 1434h-614v-1332h614v1332zM102 0v1536h820v-1536h-820z" />
    <glyph glyph-name="f_i" unicode="fi" horiz-adv-x="1013" 
d="M205 0v981h-162v70h162v127q0 139 79 220t212 81q66 0 143 -23l-16 -65q-76 18 -121 18q-106 0 -162 -58t-57 -171v-129h305v-70h-305v-981h-78zM786 1274v188h82v-188h-82zM788 0v1051h78v-1051h-78z" />
    <glyph glyph-name="f_l" unicode="fl" horiz-adv-x="1017" 
d="M205 0v981h-162v70h162v127q0 139 79 220t212 81q66 0 143 -23l-16 -65q-76 18 -121 18q-106 0 -162 -58t-57 -171v-129h305v-70h-305v-981h-78zM793 0v1462h77v-1462h-77z" />
    <glyph glyph-name="f_f" unicode="ff" horiz-adv-x="1249" 
d="M205 0v981h-162v70h162v127q0 139 79 220t212 81q66 0 143 -23l-16 -65q-76 18 -121 18q-106 0 -162 -58t-57 -171v-129h305v-70h-305v-981h-78zM829 0v981h-161v70h161v127q0 139 79 220t212 81q66 0 144 -23l-17 -65q-76 18 -121 18q-106 0 -162 -58t-57 -171v-129h305
v-70h-305v-981h-78z" />
    <glyph glyph-name="f_f_i" unicode="ffi" horiz-adv-x="1638" 
d="M205 0v981h-162v70h162v127q0 139 79 220t212 81q66 0 143 -23l-16 -65q-76 18 -121 18q-106 0 -162 -58t-57 -171v-129h305v-70h-305v-981h-78zM1411 1274v188h82v-188h-82zM1413 0v1051h78v-1051h-78zM829 0v981h-161v70h161v127q0 139 79 220t212 81q66 0 144 -23
l-17 -65q-76 18 -121 18q-106 0 -162 -58t-57 -171v-129h305v-70h-305v-981h-78z" />
    <glyph glyph-name="f_f_l" unicode="ffl" horiz-adv-x="1642" 
d="M205 0v981h-162v70h162v127q0 139 79 220t212 81q66 0 143 -23l-16 -65q-76 18 -121 18q-106 0 -162 -58t-57 -171v-129h305v-70h-305v-981h-78zM829 0v981h-161v70h161v127q0 139 79 220t212 81q66 0 144 -23l-17 -65q-76 18 -121 18q-106 0 -162 -58t-57 -171v-129h305
v-70h-305v-981h-78zM1417 0v1462h78v-1462h-78z" />
    <glyph glyph-name=".notdef" horiz-adv-x="1024" 
d="M819 1434h-614v-1332h614v1332zM102 0v1536h820v-1536h-820z" />
    <glyph glyph-name=".null" horiz-adv-x="0" 
 />
    <glyph glyph-name=".null" horiz-adv-x="0" 
 />
    <glyph glyph-name=".null" horiz-adv-x="0" 
 />
    <glyph glyph-name="nonmarkingreturn" unicode="&#x9;" horiz-adv-x="460" 
 />
    <glyph glyph-name="nonmarkingreturn" unicode="&#xd;" horiz-adv-x="460" 
 />
    <glyph glyph-name="space" unicode=" " horiz-adv-x="460" 
 />
    <glyph glyph-name="exclam" unicode="!" horiz-adv-x="405" 
d="M156 0v209h92v-209h-92zM166 379l-4 1083h80l-4 -1083h-72z" />
    <glyph glyph-name="quotedbl" unicode="&#x22;" horiz-adv-x="555" 
d="M98 983l-8 479h82l-8 -479h-66zM391 983l-8 479h82l-8 -479h-66z" />
    <glyph glyph-name="numbersign" unicode="#" horiz-adv-x="1212" 
d="M862 963h-424l-86 -510h424zM31 389v64h245l86 510h-239v63h250l59 363h76l-59 -363h423l60 363h76l-60 -363h238v-63h-248l-86 -510h242v-64h-252l-64 -389h-76l64 389h-424l-63 -389h-76l63 389h-235z" />
    <glyph glyph-name="dollar" unicode="$" horiz-adv-x="1212" 
d="M219 1075q0 -139 77 -207.5t269 -101.5v616q-346 -10 -346 -307zM991 358q0 141 -73.5 216t-237.5 102l-47 8v-651q358 14 358 325zM565 -217v182q-207 8 -325.5 105.5t-137.5 275.5h72q43 -301 391 -313v661q-231 39 -326.5 125t-95.5 258t109.5 271.5t312.5 105.5v154
h68v-156q176 -10 279.5 -94t146.5 -250l-72 -16q-43 143 -127 211.5t-227 76.5v-626l55 -9q199 -29 291 -122t92 -271t-111.5 -279.5t-326.5 -109.5v-180h-68z" />
    <glyph glyph-name="percent" unicode="%" horiz-adv-x="1781" 
d="M487 0l725 1415h82l-725 -1415h-82zM1360 25q126 0 192 94t66 274q0 181 -67 275t-191 94t-192 -94q-66 -94 -66 -274t66 -275q66 -94 192 -94zM1696 392q0 -208 -87 -322t-248 -113q-161 0 -249 115q-88 116 -88 322t88 321t248 115t248 -116q88 -114 88 -322zM422 643
q126 0 192 94q66 95 66 275t-67 274t-191 94t-192 -94q-66 -94 -66 -274t66 -275q67 -94 192 -94zM423 575q-161 0 -249 115t-88 322q0 208 88 322t248 114t248 -115t88 -323t-87 -321q-87 -114 -248 -114z" />
    <glyph glyph-name="ampersand" unicode="&#x26;" horiz-adv-x="1251" 
d="M786 1201q0 83 -57 139.5t-161 56.5t-164 -59.5t-60 -147.5t34 -157t124 -173q117 63 177 111.5t83.5 97.5t23.5 132zM168 356q0 -148 99.5 -233.5t289.5 -85.5q270 0 399 180l-479 559q-174 -96 -241.5 -184t-67.5 -236zM555 -33q-223 0 -346 105.5t-123 296.5
q0 150 78 252t270 204q-96 115 -133 192t-37 157q0 129 86 208.5t220 79.5t212 -75.5t78 -204.5q0 -80 -30.5 -138.5t-98 -111.5t-186.5 -119l450 -528q68 147 68 377h78q-6 -266 -97 -435l195 -227h-96l-139 162q-145 -195 -449 -195z" />
    <glyph glyph-name="quotesingle" unicode="'" horiz-adv-x="262" 
d="M98 983l-8 479h82l-8 -479h-66z" />
    <glyph glyph-name="parenleft" unicode="(" horiz-adv-x="468" 
d="M213 626q0 -480 219 -880h-74q-229 367 -229 879t229 878h74q-219 -397 -219 -877z" />
    <glyph glyph-name="parenright" unicode=")" horiz-adv-x="468" 
d="M256 624q0 481 -219 879h74q229 -367 229 -878.5t-229 -878.5h-74q219 397 219 878z" />
    <glyph glyph-name="asterisk" unicode="*" horiz-adv-x="724" 
d="M524 862l-162 232l-159 -232l-62 45l176 223l-245 89l30 69l234 -102l-10 276h77l-10 -276l232 102l28 -69l-245 -89l178 -223z" />
    <glyph glyph-name="plus" unicode="+" horiz-adv-x="1212" 
d="M569 207v455h-424v71h424v451h74v-451h424v-71h-424v-455h-74z" />
    <glyph glyph-name="comma" unicode="," horiz-adv-x="366" 
d="M102 -178l64 387h90l-86 -387h-68z" />
    <glyph glyph-name="hyphen" unicode="-" horiz-adv-x="796" 
d="M102 551v78h592v-78h-592z" />
    <glyph glyph-name="period" unicode="." horiz-adv-x="366" 
d="M139 0v209h86v-209h-86z" />
    <glyph glyph-name="slash" unicode="/" horiz-adv-x="587" 
d="M25 0l458 1503h80l-459 -1503h-79z" />
    <glyph glyph-name="zero" unicode="0" horiz-adv-x="1212" 
d="M606 37q416 0 416 671.5t-416 671.5t-416 -671.5t416 -671.5zM604 -37q-244 0 -372 190.5t-128 552.5t130.5 555t374 193t371.5 -190.5t128 -552.5t-130 -555t-374 -193z" />
    <glyph glyph-name="one" unicode="1" horiz-adv-x="1212" 
d="M647 0v1333l-373 -219l-34 60l407 241h80v-1415h-80z" />
    <glyph glyph-name="two" unicode="2" horiz-adv-x="1212" 
d="M166 0v74l330 299q197 180 292 289.5t131.5 196.5t36.5 188q0 160 -89 246.5t-245 86.5t-246.5 -72.5t-137.5 -232.5l-72 17q43 176 160.5 269t302.5 93t298 -108.5t113 -294.5q0 -117 -47 -219.5t-153.5 -221t-294.5 -288.5l-275 -246h781l-19 -76h-866z" />
    <glyph glyph-name="three" unicode="3" horiz-adv-x="1212" 
d="M461 705v73h182q139 0 221 82t82 225.5t-87 219t-249 75.5t-252 -67.5t-133 -220.5l-71 14q37 170 153.5 259t308.5 89t302 -97t110 -270q0 -123 -58.5 -211t-168.5 -131q258 -78 258 -362q0 -199 -121 -309.5t-334 -110.5t-337 107.5t-130 296.5h76q33 -332 389 -332
q182 0 278.5 88t96.5 251t-87 247t-247 84h-182z" />
    <glyph glyph-name="four" unicode="4" horiz-adv-x="1212" 
d="M817 457v854l-629 -854h629zM817 0v387h-713v70l707 958h84v-958h209l-19 -70h-190v-387h-78z" />
    <glyph glyph-name="five" unicode="5" horiz-adv-x="1212" 
d="M629 895q207 0 317.5 -120t110.5 -345t-116 -346t-322 -121t-322.5 99.5t-132.5 279.5h74q47 -307 368 -307q369 0 369 395t-359 395q-211 0 -350 -153h-73l57 743h727v-74h-662l-47 -585q154 139 361 139z" />
    <glyph glyph-name="six" unicode="6" horiz-adv-x="1212" 
d="M629 37q172 0 272 107.5t100 291.5t-92 284.5t-267 100.5t-283.5 -100t-108.5 -279t103.5 -292t275.5 -113zM604 -37q-458 0 -457 719q0 369 132.5 570.5t384.5 201.5q152 0 248 -77t130 -224l-69 -18q-41 133 -113 189t-196 56q-227 0 -333 -183t-106 -579
q47 133 159 205t269 72q201 0 315.5 -122t114.5 -337t-127.5 -344t-351.5 -129z" />
    <glyph glyph-name="seven" unicode="7" horiz-adv-x="1212" 
d="M94 1341v74h930v-74q-360 -666 -543 -1341h-88q215 733 547 1341h-846z" />
    <glyph glyph-name="eight" unicode="8" horiz-adv-x="1212" 
d="M985 1064q0 146 -101.5 233t-277.5 87t-276.5 -85t-100.5 -234t99.5 -230t277.5 -81t278.5 82t100.5 228zM1028 361q0 155 -110.5 238t-312.5 83t-310.5 -84t-108.5 -239.5t110 -240.5t310 -85t311 86.5t111 241.5zM1112 356q0 -184 -135 -288.5t-372 -104.5t-370 105.5
t-133 289.5q0 141 83 235.5t235 125.5q-127 33 -198.5 127t-71.5 225q0 176 123.5 279.5t334.5 103.5t334 -104.5t123 -280.5q0 -129 -72.5 -222t-197.5 -124q150 -33 233.5 -130t83.5 -237z" />
    <glyph glyph-name="nine" unicode="9" horiz-adv-x="1212" 
d="M952 974q0 177 -101 291.5t-272 114.5t-271.5 -107.5t-100.5 -294.5t93 -285.5t267 -98.5t279.5 101.5t105.5 278.5zM571 37q217 0 312.5 166t95.5 542v54q-45 -129 -156.5 -204t-261.5 -75q-207 0 -321.5 121t-114.5 337t126 346t346 130t340 -175t120 -515
q0 -412 -117 -606.5t-365 -194.5q-180 0 -285.5 83t-123.5 239h78q45 -248 327 -248z" />
    <glyph glyph-name="colon" unicode=":" horiz-adv-x="366" 
d="M139 0v209h86v-209h-86zM139 842v209h86v-209h-86z" />
    <glyph glyph-name="semicolon" unicode=";" horiz-adv-x="366" 
d="M84 -178l63 387h91l-86 -387h-68zM139 842v209h86v-209h-86z" />
    <glyph glyph-name="less" unicode="&#x3c;" horiz-adv-x="1212" 
d="M160 664v59l901 453v-80l-807 -402l807 -397v-84z" />
    <glyph glyph-name="equal" unicode="=" horiz-adv-x="1212" 
d="M168 891v74h876v-74h-876zM168 430v74h876v-74h-876z" />
    <glyph glyph-name="greater" unicode="&#x3e;" horiz-adv-x="1212" 
d="M152 213v80l806 401l-806 398v84l901 -451v-59z" />
    <glyph glyph-name="question" unicode="?" horiz-adv-x="1007" 
d="M436 0v209h92v-209h-92zM492 1487q186 0 294.5 -103.5t108.5 -281.5q0 -100 -38 -179t-134 -175t-136 -148.5t-53.5 -95.5t-13.5 -107v-18h-78v14q0 109 46.5 190t183.5 214q78 78 111.5 148.5t33.5 160.5q0 145 -86.5 227t-236.5 82t-235 -71.5t-124 -225.5l-72 12
q75 357 429 357z" />
    <glyph glyph-name="at" unicode="@" horiz-adv-x="1869" 
d="M966 852q-109 0 -196.5 -60.5t-141 -172t-53.5 -261.5t68 -231.5t202 -81.5t227 98.5t128 286.5l12 70q6 35 7 82q-2 123 -73 196.5t-180 73.5zM1235 176q1 -121 155 -121q80 0 155 64.5t119 183.5t44 303t-86 344t-248 250t-389 90t-411.5 -110.5t-291 -317.5
t-106.5 -477q0 -358 199.5 -551.5t566.5 -193.5q188 0 317.5 55t221.5 176h84q-98 -154 -252 -227.5t-377 -73.5q-399 0 -619.5 214t-220.5 603q0 274 111.5 494.5t317 349.5t453.5 129t426.5 -94.5t280 -270.5t101.5 -409q0 -170 -50 -304.5t-145 -212t-205 -77.5
t-163.5 47t-53.5 131v8q-119 -199 -333 -198q-160 0 -251 102t-91 266t58 290t165.5 203t229.5 77q239 0 306 -209l33 184h74l-121 -674q-4 -25 -4 -43z" />
    <glyph glyph-name="A" unicode="A" horiz-adv-x="1331" 
d="M662 1374l-324 -831h649zM1200 0l-184 467h-709l-180 -467h-86l577 1462h95l577 -1462h-90z" />
    <glyph glyph-name="B" unicode="B" horiz-adv-x="1263" 
d="M1036 1173.5q0 217.5 -379 217.5h-405v-586h432q172 0 262 75.5t90 293zM680 74q205 0 303 77.5t98 241.5t-98 250t-287 86h-444v-655h428zM172 0v1462h490q225 0 340.5 -91t115.5 -265q0 -131 -64.5 -216t-187.5 -118q145 -35 222 -129t77 -244q0 -195 -123.5 -297
t-357.5 -102h-512z" />
    <glyph glyph-name="C" unicode="C" horiz-adv-x="1425" 
d="M735 1425q-254 0 -394 -180t-140 -512t142 -513t405 -181q203 0 328.5 112.5t158.5 321.5h78q-33 -240 -184.5 -374t-387.5 -134q-293 0 -457.5 202t-164.5 564q0 489 209.5 628.5t417.5 139.5t352.5 -122t193.5 -345l-75 -18q-94 411 -482 411z" />
    <glyph glyph-name="D" unicode="D" horiz-adv-x="1421" 
d="M618 74q598 0 599 659q0 322 -143.5 489t-420.5 167h-399v-1315h364zM172 0v1462h481q315 0 482.5 -185t167.5 -541t-177.5 -546t-513.5 -190h-440z" />
    <glyph glyph-name="E" unicode="E" horiz-adv-x="1187" 
d="M172 0v1462h903v-76h-821v-593h780v-76h-780v-641h848l-23 -76h-907z" />
    <glyph glyph-name="F" unicode="F" horiz-adv-x="1116" 
d="M254 698v-698h-82v1462h856v-76h-774v-612h729v-76h-729z" />
    <glyph glyph-name="G" unicode="G" horiz-adv-x="1429" 
d="M1217 625h-431v73h512v-546q-98 -90 -234 -138.5t-286 -48.5q-315 0 -487 200t-172 564q0 236 74.5 409t218 267t344 94t332 -100.5t180.5 -292.5l-76 -19q-92 338 -438 338q-260 0 -405.5 -182t-145.5 -514t150.5 -511t428.5 -179q125 0 239 37t196 104v445z" />
    <glyph glyph-name="H" unicode="H" horiz-adv-x="1392" 
d="M1139 0v719h-885v-719h-82v1462h82v-667h885v667h82v-1462h-82z" />
    <glyph glyph-name="I" unicode="I" horiz-adv-x="425" 
d="M172 0v1462h82v-1462h-82z" />
    <glyph glyph-name="J" unicode="J" horiz-adv-x="1165" 
d="M922 1462h82v-995q0 -246 -118 -374t-336 -128t-342 111.5t-151 326.5h80q51 -365 410 -364q193 0 284 106.5t91 329.5v987z" />
    <glyph glyph-name="K" unicode="K" horiz-adv-x="1288" 
d="M254 0h-82v1462h82v-823l836 823h98l-547 -542l602 -920h-96l-565 866l-328 -321v-545z" />
    <glyph glyph-name="L" unicode="L" horiz-adv-x="1122" 
d="M172 0v1462h82v-1386h817l-18 -76h-881z" />
    <glyph glyph-name="M" unicode="M" horiz-adv-x="1685" 
d="M1438 0v1327l-557 -1327h-76l-557 1323v-1323h-76v1462h98l576 -1368l573 1368h94v-1462h-75z" />
    <glyph glyph-name="N" unicode="N" horiz-adv-x="1398" 
d="M254 0h-82v1462h94l879 -1341v1341h82v-1462h-94l-879 1339v-1339z" />
    <glyph glyph-name="O" unicode="O" horiz-adv-x="1525" 
d="M762 39q170 0 296 81t194.5 237.5t68.5 375.5q0 324 -148.5 508t-408.5 184q-170 0 -296 -80.5t-194.5 -237.5t-68.5 -376q0 -324 148.5 -508t408.5 -184zM762 -35q-297 0 -470 206t-173 560q0 229 76.5 402.5t222 269.5t346.5 96q297 0 470 -206t173 -560
q0 -229 -77 -402t-222 -269.5t-346 -96.5z" />
    <glyph glyph-name="P" unicode="P" horiz-adv-x="1243" 
d="M653 682q213 0 311.5 87t98.5 271.5t-97.5 267.5t-314.5 83h-399v-709h401zM653 608h-401v-608h-80v1462h487q487 0 488 -420q0 -434 -494 -434z" />
    <glyph glyph-name="Q" unicode="Q" horiz-adv-x="1525" 
d="M1321 712q0 344 -148.5 528.5t-408.5 184.5q-170 0 -296 -80.5t-194.5 -237.5t-68.5 -376q0 -324 148.5 -508t408.5 -184q184 0 321 98l-200 244l55 45l199 -242q184 184 184 528zM1407 733q0 -397 -219 -608l184 -223l-55 -45l-184 221q-154 -113 -371 -113
q-297 0 -470 206t-173 560q0 229 76.5 402.5t222 269.5t346.5 96q297 0 470 -206t173 -560z" />
    <glyph glyph-name="R" unicode="R" horiz-adv-x="1263" 
d="M655 733q203 0 297.5 81t94.5 251t-95.5 247t-308.5 77h-391v-656h403zM1130 1069q0 -304 -270 -383l318 -686h-93l-305 668q-47 -8 -121 -9h-407v-659h-80v1462h481q477 0 477 -393z" />
    <glyph glyph-name="S" unicode="S" horiz-adv-x="1271" 
d="M650 39q415 0 415 334q0 139 -82 217t-260 106l-170 27q-217 35 -318.5 127t-101.5 268t130.5 278.5t356.5 102.5t345.5 -83t169.5 -263l-76 -20q-47 160 -144.5 227t-283.5 67q-416 0 -416 -317q0 -133 81 -207t255 -100l184 -29q213 -33 315.5 -130.5t102.5 -281.5
t-130 -290.5t-373 -106.5t-387 101.5t-167 291.5h78q61 -319 476 -319z" />
    <glyph glyph-name="T" unicode="T" horiz-adv-x="1183" 
d="M551 0v1386h-514v76h1110v-76h-514v-1386h-82z" />
    <glyph glyph-name="U" unicode="U" horiz-adv-x="1366" 
d="M1122 1462h82v-891q0 -606 -522 -606q-262 0 -391 151.5t-129 458.5v887h82v-895q0 -268 108.5 -398t331.5 -130t330.5 129t107.5 399v895z" />
    <glyph glyph-name="V" unicode="V" horiz-adv-x="1288" 
d="M600 0l-559 1462h88l518 -1372l516 1372h84l-557 -1462h-90z" />
    <glyph glyph-name="W" unicode="W" horiz-adv-x="1816" 
d="M1276 0l-369 1352l-368 -1352h-90l-404 1462h88l361 -1356l374 1350h88l369 -1352l363 1358h84l-402 -1462h-94z" />
    <glyph glyph-name="X" unicode="X" horiz-adv-x="1239" 
d="M1108 0l-496 705l-487 -705h-90l530 768l-489 694h96l442 -633l447 633h90l-489 -696l542 -766h-96z" />
    <glyph glyph-name="Y" unicode="Y" horiz-adv-x="1167" 
d="M547 0v633l-506 829h90l457 -755l452 755h86l-499 -827v-635h-80z" />
    <glyph glyph-name="Z" unicode="Z" horiz-adv-x="1191" 
d="M80 0v68l921 1318h-905v76h1004v-67l-922 -1319h934l-18 -76h-1014z" />
    <glyph glyph-name="bracketleft" unicode="[" horiz-adv-x="518" 
d="M162 -254v1757h330v-67h-252v-1622h252v-68h-330z" />
    <glyph glyph-name="backslash" unicode="\" horiz-adv-x="587" 
d="M483 0l-458 1503h79l459 -1503h-80z" />
    <glyph glyph-name="bracketright" unicode="]" horiz-adv-x="518" 
d="M27 -254v68h252v1622h-252v67h329v-1757h-329z" />
    <glyph glyph-name="asciicircum" unicode="^" horiz-adv-x="1212" 
d="M977 633l-373 729l-375 -729h-79l419 811h72l420 -811h-84z" />
    <glyph glyph-name="underscore" unicode="_" horiz-adv-x="1024" 
d="M0 -322v70h1024v-70h-1024z" />
    <glyph glyph-name="grave" unicode="`" horiz-adv-x="1124" 
d="M643 1204l-248 266h103l229 -266h-84z" />
    <glyph glyph-name="a" unicode="a" horiz-adv-x="1056" 
d="M164 304q0 -259 287 -259q180 0 286 100q57 53 79 101.5t22 130.5v209l-222 -8q-246 -10 -349 -76t-103 -198zM84 304q0 161 125 244t399 93l230 8v43q0 176 -70 249t-226 73t-234.5 -47t-102.5 -150l-70 12q53 254 400 254q199 0 289.5 -91t90.5 -294v-698h-75v176
q-129 -201 -396 -201q-170 0 -265 84t-95 245z" />
    <glyph glyph-name="b" unicode="b" horiz-adv-x="1175" 
d="M221 477q0 -241 131 -356q100 -84 246 -84q186 0 287.5 127t101.5 360t-98 361.5t-279 128.5q-147 0 -250 -86q-139 -121 -139 -346v-105zM147 0v1462h78v-616q131 238 391 237q211 0 332 -148.5t121 -408.5t-125 -409.5t-342 -149.5q-131 0 -228.5 57.5t-148.5 165.5
v-190h-78z" />
    <glyph glyph-name="c" unicode="c" horiz-adv-x="1110" 
d="M582 37q293 0 352 307h76q-29 -180 -140.5 -278.5t-289.5 -98.5q-221 0 -347.5 146.5t-126.5 406.5t129.5 411.5t352.5 151.5q164 0 267 -86t136 -254l-71 -16q-35 145 -116 216t-218 71q-188 0 -293 -131t-105 -361t102.5 -357.5t291.5 -127.5z" />
    <glyph glyph-name="d" unicode="d" horiz-adv-x="1175" 
d="M954 573q0 241 -131 357q-100 84 -245 84q-186 0 -288 -127t-102 -361t98.5 -361.5t278.5 -127.5q147 0 250 86q139 121 139 346v104zM950 0v205q-131 -238 -391 -238q-211 0 -332 148.5t-121 408.5t125 409.5t342 149.5q131 0 228.5 -57t148.5 -166v602h78v-1462h-78z
" />
    <glyph glyph-name="e" unicode="e" horiz-adv-x="1116" 
d="M936 573q0 441 -268.5 441t-369.5 -113t-114 -328h752zM588 37q271 0 330 225h73q-29 -139 -137.5 -217t-271.5 -78q-227 0 -351.5 143.5t-124.5 408.5t125 414.5t341 149.5t329 -136t113 -388v-53h-830q0 -225 104.5 -347t299.5 -122z" />
    <glyph glyph-name="f" unicode="f" horiz-adv-x="624" 
d="M205 0v981h-162v70h162v127q0 139 78.5 220t212.5 81q66 0 143 -23l-16 -65q-76 18 -121 18q-106 0 -162.5 -58.5t-56.5 -170.5v-129h305v-70h-305v-981h-78z" />
    <glyph glyph-name="g" unicode="g" horiz-adv-x="1175" 
d="M954 596q0 232 -131 338q-98 80 -243 80q-188 0 -290 -121t-102 -343t99.5 -343t279.5 -121q143 0 248 82q139 112 139 328v100zM584 -350q195 0 280.5 87t85.5 288v223q-131 -231 -393 -232q-211 0 -331 142.5t-120 390.5t125 391t340 143q133 0 230.5 -56t148.5 -161
v185h78v-1028q0 -225 -110.5 -334t-320.5 -109t-320.5 76t-126.5 217h73q39 -223 361 -223z" />
    <glyph glyph-name="h" unicode="h" horiz-adv-x="1124" 
d="M905 0v682q0 168 -68.5 249t-224.5 81t-284 -115q-59 -53 -81 -108.5t-22 -151.5v-637h-78v1462h78v-592q158 213 410 213q170 0 259 -97t89 -286v-700h-78z" />
    <glyph glyph-name="i" unicode="i" horiz-adv-x="372" 
d="M145 1274v188h82v-188h-82zM147 0v1051h78v-1051h-78z" />
    <glyph glyph-name="j" unicode="j" horiz-adv-x="372" 
d="M145 1274v188h82v-188h-82zM225 -53q0 -328 -229 -328q-110 0 -195 33l19 65q84 -29 155 -28q172 0 172 219v1143h78v-1104z" />
    <glyph glyph-name="k" unicode="k" horiz-adv-x="991" 
d="M225 0h-78v1462h78v-956l602 545h99l-381 -349l430 -702h-90l-398 655l-262 -235v-420z" />
    <glyph glyph-name="l" unicode="l" horiz-adv-x="372" 
d="M147 0v1462h78v-1462h-78z" />
    <glyph glyph-name="m" unicode="m" horiz-adv-x="1734" 
d="M602 1083q227 0 289 -221q150 221 389 221q152 0 232.5 -91t80.5 -263v-729h-77v707q0 156 -61.5 230.5t-199.5 74.5t-254 -109q-53 -49 -72.5 -100t-19.5 -139v-664h-78v707q0 156 -60.5 230.5t-198.5 74.5t-253 -115q-53 -53 -73.5 -109.5t-20.5 -146.5v-641h-78v1051
h78v-179q150 211 377 211z" />
    <glyph glyph-name="n" unicode="n" horiz-adv-x="1124" 
d="M905 0v682q0 168 -68.5 249t-224.5 81t-284 -115q-59 -53 -81 -108.5t-22 -151.5v-637h-78v1051h78v-181q158 213 410 213q170 0 259 -97t89 -286v-700h-78z" />
    <glyph glyph-name="o" unicode="o" horiz-adv-x="1183" 
d="M591.5 37q192.5 0 298 127.5t105.5 361.5t-105.5 361t-298 127t-298 -127t-105.5 -361t105.5 -361.5t298 -127.5zM590 -33q-225 0 -354.5 148.5t-129.5 408.5q0 168 58.5 294t168 195.5t261.5 69.5q225 0 354 -148.5t129 -410.5q0 -166 -58 -292t-167.5 -195.5
t-261.5 -69.5z" />
    <glyph glyph-name="p" unicode="p" horiz-adv-x="1175" 
d="M221 477q0 -241 131 -356q100 -84 246 -84q186 0 287.5 127t101.5 360t-98 361.5t-279 128.5q-147 0 -250 -86q-139 -121 -139 -346v-105zM147 -397v1448h78v-205q131 238 391 237q211 0 332 -147.5t121 -408.5t-125 -410.5t-342 -149.5q-131 0 -228.5 57.5t-148.5 165.5
v-587h-78z" />
    <glyph glyph-name="q" unicode="q" horiz-adv-x="1175" 
d="M954 573q0 241 -131 357q-100 84 -245 84q-186 0 -288 -127t-102 -361t98.5 -361.5t278.5 -127.5q147 0 250 86q139 121 139 346v104zM950 -397v602q-131 -238 -391 -238q-211 0 -332 148.5t-121 408.5t125 409.5t342 149.5q131 0 228.5 -57t148.5 -166v191h78v-1448h-78
z" />
    <glyph glyph-name="r" unicode="r" horiz-adv-x="681" 
d="M147 0v1051h78v-183q133 199 346 199q35 0 78 -6l-10 -76q-39 6 -95 6t-123 -30.5t-115 -84.5t-64.5 -103.5t-16.5 -127.5v-645h-78z" />
    <glyph glyph-name="s" unicode="s" horiz-adv-x="1034" 
d="M605.5 37q240.5 0 240.5 233q0 98 -61.5 149.5t-209.5 76.5l-112 18q-180 29 -259 93.5t-79 193.5t101.5 205.5t275.5 76.5t269 -63.5t130 -196.5l-70 -14q-39 115 -110.5 160t-210.5 45q-309 0 -309 -217q0 -90 56 -136.5t198 -70.5l131 -23q182 -31 261 -99t79 -206
t-101.5 -216.5t-296.5 -78.5t-306 81t-128 233h76q20 -125 107.5 -184.5t328 -59.5z" />
    <glyph glyph-name="t" unicode="t" horiz-adv-x="661" 
d="M283 272q0 -225 181 -225q87 0 150 25l21 -62q-70 -33 -168 -33q-262 0 -262 302v702h-162v70h162v290h78v-290h329v-70h-329v-709z" />
    <glyph glyph-name="u" unicode="u" horiz-adv-x="1101" 
d="M877 0v180q-152 -213 -398 -213q-166 0 -252 97.5t-86 285.5v701h78v-682q0 -170 66.5 -250t218.5 -80t274 115q55 53 77 108t22 152v637h77v-1051h-77z" />
    <glyph glyph-name="v" unicode="v" horiz-adv-x="983" 
d="M446 0l-430 1051h86l390 -965l393 965h82l-430 -1051h-91z" />
    <glyph glyph-name="w" unicode="w" horiz-adv-x="1419" 
d="M999 0l-290 961l-289 -961h-90l-307 1051h83l271 -965l293 958h86l291 -958l270 965h80l-307 -1051h-91z" />
    <glyph glyph-name="x" unicode="x" horiz-adv-x="937" 
d="M836 0l-367 502l-360 -502h-86l401 557l-367 494h90l324 -441l326 441h84l-363 -494l408 -557h-90z" />
    <glyph glyph-name="y" unicode="y" horiz-adv-x="985" 
d="M233 -397q-78 0 -147 22l18 66q53 -19 117 -19t106 40t83 143l63 157l-457 1039h86l412 -949l371 949h84l-494 -1231q-47 -119 -105.5 -168t-136.5 -49z" />
    <glyph glyph-name="z" unicode="z" horiz-adv-x="909" 
d="M55 0v61l680 922h-665v68h759v-64l-679 -919h714l-16 -68h-793z" />
    <glyph glyph-name="braceleft" unicode="{" horiz-adv-x="532" 
d="M211 1300q0 203 197 203h104v-67h-113q-111 0 -110 -125v-514q0 -147 -109 -172q109 -25 109 -172v-514q0 -125 110 -125h113v-68h-104q-197 0 -197 203v491q0 78 -34 114t-107 36h-9v69h9q74 0 107.5 36t33.5 114v491z" />
    <glyph glyph-name="bar" unicode="|" horiz-adv-x="403" 
d="M162 -254v1757h80v-1757h-80z" />
    <glyph glyph-name="braceright" unicode="}" horiz-adv-x="532" 
d="M322 -51q0 -203 -197 -203h-105v68h113q111 0 111 125v514q0 147 108 172q-109 25 -108 172v514q0 125 -111 125h-113v67h105q197 0 197 -203v-491q0 -78 33.5 -114t107.5 -36h8v-69h-8q-74 0 -107.5 -36t-33.5 -114v-491z" />
    <glyph glyph-name="asciitilde" unicode="~" horiz-adv-x="1212" 
d="M1092 827q0 -143 -61.5 -222t-176.5 -79q-70 0 -128 31t-142 107t-131 101.5t-99 25.5q-164 0 -164 -234h-69q0 143 61.5 222t175.5 79q70 0 128.5 -30.5t142.5 -106.5t131 -101.5t98 -25.5q164 0 164 233h70z" />
    <glyph glyph-name="uni00A0" unicode="&#xa0;" horiz-adv-x="460" 
 />
    <glyph glyph-name="exclamdown" unicode="&#xa1;" horiz-adv-x="405" 
d="M158 842v209h92v-209h-92zM164 -412l4 1084h72l4 -1084h-80z" />
    <glyph glyph-name="cent" unicode="&#xa2;" horiz-adv-x="1212" 
d="M236 695q0 -220 96 -347t270 -137v977q-174 -14 -270 -143.5t-96 -349.5zM602 -18v161q-211 10 -329.5 155.5t-118.5 393.5q0 160 53 284t154.5 196.5t240.5 82.5v168h68v-166q158 -6 257 -91t132 -242l-72 -17q-66 268 -317 283v-979q133 8 217 87t112 224h78
q-29 -174 -134 -271t-273 -108v-161h-68z" />
    <glyph glyph-name="sterling" unicode="&#xa3;" horiz-adv-x="1212" 
d="M190 0v74q125 143 125 409q0 66 -14 187h-149v69h141q-29 184 -29 267q0 213 112.5 330.5t315.5 117.5q308 0 381 -311l-72 -19q-41 139 -113.5 198.5t-199.5 59.5q-166 0 -255 -95t-89 -277q0 -90 27 -271h493v-69h-483q12 -127 12 -187q0 -258 -114 -409h829l-18 -74
h-900z" />
    <glyph glyph-name="currency" unicode="&#xa4;" horiz-adv-x="1212" 
d="M604 297q170 0 263.5 107.5t93.5 303.5t-93.5 303t-263.5 107t-264 -108.5t-94 -303t94 -302t264 -107.5zM602 225q-174 0 -283 90l-112 -120l-53 49l114 123q-104 127 -104 337.5t106 339.5l-114 127l51 50l115 -125q110 94 282 94t283 -94l117 125l51 -50l-117 -127
q104 -132 104 -338t-106 -335l121 -127l-53 -49l-117 122q-111 -92 -285 -92z" />
    <glyph glyph-name="yen" unicode="&#xa5;" horiz-adv-x="1212" 
d="M649 367v-367h-80v367h-397v69h397v191l-47 69h-350v70h309l-405 649h88l444 -721l447 721h84l-406 -649h320v-70h-363l-41 -67v-193h404v-69h-404z" />
    <glyph glyph-name="brokenbar" unicode="&#xa6;" horiz-adv-x="403" 
d="M162 815v688h80v-688h-80zM162 -254v723h80v-723h-80z" />
    <glyph glyph-name="section" unicode="&#xa7;" horiz-adv-x="1019" 
d="M592 375q115 0 187.5 68.5t72.5 168.5t-61.5 158.5t-196.5 93.5l-78 21q-49 12 -94 12q-109 0 -176.5 -68.5t-67.5 -168.5t59.5 -158t196.5 -94l68 -19q49 -14 90 -14zM605 -180q243 0 243 231q0 92 -56.5 148.5t-181.5 89.5l-188 49q-168 43 -246 117.5t-78 190.5
t64.5 194t177.5 100q-119 41 -175 106.5t-56 161.5q0 137 105.5 214t285.5 77t278.5 -63.5t136.5 -198.5l-69 -16q-27 80 -87 144.5t-253 64.5q-322 0 -322 -220q0 -88 57.5 -142t182.5 -87l182 -47q168 -45 246 -119.5t78 -188.5t-65.5 -192t-178.5 -100
q127 -41 183.5 -106.5t56.5 -172.5q0 -147 -102.5 -225t-298.5 -78t-307.5 81t-125.5 233h76q20 -127 107 -186.5t330 -59.5z" />
    <glyph glyph-name="dieresis" unicode="&#xa8;" horiz-adv-x="1124" 
d="M678 1274v188h82v-188h-82zM365 1274v188h81v-188h-81z" />
    <glyph glyph-name="copyright" unicode="&#xa9;" horiz-adv-x="1589" 
d="M512 731q0 -172 76 -266t215 -94q106 0 172.5 56t85.5 165h74q-23 -137 -110 -211t-222 -74q-172 0 -270.5 112.5t-98.5 309.5t100.5 311.5t274.5 114.5q125 0 205 -65.5t108 -190.5l-69 -14q-49 205 -246 205q-141 0 -218 -93.5t-77 -265.5zM797 0q-203 0 -359.5 89
t-248 255t-91.5 379t87 379t248 263t364 97t358.5 -88t245.5 -254t90 -380t-86 -379.5t-245.5 -263t-362.5 -97.5zM789 68q180 0 320 81.5t222 233.5t82 345t-74.5 342t-215 236t-321.5 87t-321.5 -82t-222.5 -232.5t-82 -344.5t76 -344t216.5 -236t320.5 -86z" />
    <glyph glyph-name="ordfeminine" unicode="&#xaa;" horiz-adv-x="851" 
d="M172 924q0 -174 205 -174q123 0 207 73q39 35 53 69t14 95v141l-155 -8q-178 -8 -251 -52t-73 -144zM651 702v119q-100 -135 -282 -135q-127 0 -199 62.5t-72 181.5t94.5 180t294.5 70l162 6v26q0 125 -48.5 176.5t-158.5 51.5t-164.5 -34t-76.5 -108l-62 11
q37 190 295 190q152 0 220.5 -68.5t68.5 -216.5v-512h-72z" />
    <glyph glyph-name="guillemotleft" unicode="&#xab;" horiz-adv-x="919" 
d="M385 70l-295 454l295 455h78l-285 -455l285 -454h-78zM754 70l-295 454l295 455h77l-284 -455l284 -454h-77z" />
    <glyph glyph-name="logicalnot" unicode="&#xac;" horiz-adv-x="1212" 
d="M973 330v463h-846v73h917v-536h-71z" />
    <glyph glyph-name="uni00AD" unicode="&#xad;" horiz-adv-x="796" 
d="M102 551v78h592v-78h-592z" />
    <glyph glyph-name="registered" unicode="&#xae;" horiz-adv-x="968" 
d="M502 1083q90 0 90 74q0 68 -94 68h-103v-142h107zM502 1276q151 0 151 -121q0 -82 -78 -113l93 -180h-68l-84 166h-121v-166h-61v414h168zM481 692q156 0 250 100.5t94 269.5t-92 267t-248 98t-249 -100t-93 -268t91 -267.5t247 -99.5zM483 633q-182 0 -293.5 117.5
t-111.5 307.5t113.5 309.5t295.5 119.5t293 -115t111 -311q0 -119 -50 -216t-143.5 -154.5t-214.5 -57.5z" />
    <glyph glyph-name="macron" unicode="&#xaf;" horiz-adv-x="1124" 
d="M317 1290v70h488v-70h-488z" />
    <glyph glyph-name="degree" unicode="&#xb0;" horiz-adv-x="634" 
d="M516 1190q0 88 -55 144.5t-143 56.5t-142.5 -56.5t-54.5 -145.5t55 -145.5t142 -56.5t142.5 57.5t55.5 145.5zM584 1190q0 -115 -76 -190.5t-190 -75.5t-190.5 75.5t-76.5 190.5q0 72 34 132t95.5 96t138.5 36q115 0 190 -74.5t75 -189.5z" />
    <glyph glyph-name="plusminus" unicode="&#xb1;" horiz-adv-x="1212" 
d="M569 207v455h-424v71h424v451h74v-451h424v-71h-424v-455h-74zM143 0v72h926v-72h-926z" />
    <glyph glyph-name="uni00B2" unicode="&#xb2;" 
d="M143 604v60q86 76 203 170q158 134 212 208t54 161t-48 133t-138 46q-168 0 -215 -168l-68 13q59 221 283 221q122 0 192 -65t70 -170t-61 -193t-228 -227l-143 -121h438l-16 -68h-535z" />
    <glyph glyph-name="uni00B3" unicode="&#xb3;" 
d="M412 637q204 0 204 184q0 84 -46 131t-128 47h-120v60h112q78 0 122 45t44 123t-48 119q-48 40 -137 40t-142 -38q-52 -39 -76 -123l-66 12q51 211 285 211q120 0 188 -57t68 -162q0 -137 -121 -193q139 -51 139 -215q0 -117 -73 -181t-203 -65q-130 0 -210 65
q-79 65 -83 177h65q22 -180 226 -180z" />
    <glyph glyph-name="acute" unicode="&#xb4;" horiz-adv-x="1124" 
d="M395 1204l230 266h102l-248 -266h-84z" />
    <glyph glyph-name="mu" unicode="&#xb5;" horiz-adv-x="1107" 
d="M883 0v180q-154 -213 -394 -213q-190 0 -264 135v-499h-78v1448h78v-682q0 -170 66.5 -250t218.5 -80t274 115q55 53 77 108t22 152v637h78v-1051h-78z" />
    <glyph glyph-name="paragraph" unicode="&#xb6;" horiz-adv-x="1112" 
d="M57 1061q0 401 525 401h372v-1747h-80v1678h-280v-1678h-80v957q-223 0 -340 100t-117 289z" />
    <glyph glyph-name="periodcentered" unicode="&#xb7;" horiz-adv-x="366" 
d="M139 659v209h86v-209h-86z" />
    <glyph glyph-name="cedilla" unicode="&#xb8;" horiz-adv-x="1124" 
d="M733 -250q1 -141 -205 -141q-96 0 -137 8v64q269 -44 266 73q0 44 -39 64t-135 20h-26l57 168l59 -6l-34 -109q195 -12 194 -141z" />
    <glyph glyph-name="uni00B9" unicode="&#xb9;" 
d="M426 602v739l-219 -110l-31 59l248 131h78v-819h-76z" />
    <glyph glyph-name="ordmasculine" unicode="&#xba;" horiz-adv-x="890" 
d="M445 748q138 0 216 91t78 254t-76.5 253t-214.5 90t-217 -93.5t-79 -254.5t77.5 -250.5t215.5 -89.5zM445 684q-167 0 -266 110.5t-99 294.5t102.5 297t268.5 113t263 -108.5t97 -295.5t-99.5 -299t-266.5 -112z" />
    <glyph glyph-name="guillemotright" unicode="&#xbb;" horiz-adv-x="919" 
d="M88 70l285 454l-285 455h78l295 -455l-295 -454h-78zM457 70l284 454l-284 455h78l294 -455l-294 -454h-78z" />
    <glyph glyph-name="onequarter" unicode="&#xbc;" horiz-adv-x="1816" 
d="M473 0l725 1415h82l-725 -1415h-82zM1526 279v442l-342 -442h342zM1526 -4v221h-422v51l424 547h67v-536h105l-17 -62h-88v-221h-69zM340 602v739l-219 -110l-31 59l248 131h78v-819h-76z" />
    <glyph glyph-name="onehalf" unicode="&#xbd;" horiz-adv-x="1816" 
d="M430 0l725 1415h82l-725 -1415h-82zM1118 -2v59q86 76 203 170q158 133 212 208t54 162t-48 133t-138 46q-168 0 -215 -168l-68 13q59 221 283 221q123 0 193 -65t69 -170q0 -105 -61 -193t-228 -228l-143 -120h438l-16 -68h-535zM340 602v739l-219 -110l-31 59l248 131
h78v-819h-76z" />
    <glyph glyph-name="threequarters" unicode="&#xbe;" horiz-adv-x="1816" 
d="M567 0l725 1415h82l-725 -1415h-82zM1526 279v442l-342 -442h342zM1526 -4v221h-422v51l424 547h67v-536h105l-17 -62h-88v-221h-69zM408 637q204 0 204 184q0 84 -46 131t-128 47h-121v60h113q78 0 122 45t44 123t-48 119q-48 40 -137 40t-142 -38q-52 -39 -76 -123
l-66 12q51 211 285 211q120 0 188 -57t68 -162q0 -137 -121 -193q139 -51 139 -215q0 -117 -73 -181t-203 -65q-130 0 -210 65q-79 65 -83 177h65q22 -180 226 -180z" />
    <glyph glyph-name="questiondown" unicode="&#xbf;" horiz-adv-x="1007" 
d="M479 842v209h92v-209h-92zM113 -51q0 100 37.5 179t133.5 175t136.5 148.5t53.5 95.5t13 106v19h78v-15q0 -109 -46 -189.5t-183 -213.5q-78 -78 -112 -148.5t-34 -160.5q0 -145 87.5 -227.5t236.5 -82.5t234.5 72t123.5 225l72 -12q-75 -356 -428 -356
q-186 0 -294.5 103.5t-108.5 281.5z" />
    <glyph glyph-name="Agrave" unicode="&#xc0;" horiz-adv-x="1331" 
d="M662 1374l-324 -831h649zM1200 0l-184 467h-709l-180 -467h-86l577 1462h95l577 -1462h-90zM684 1585l-248 258h105l229 -258h-86z" />
    <glyph glyph-name="Aacute" unicode="&#xc1;" horiz-adv-x="1331" 
d="M662 1374l-324 -831h649zM1200 0l-184 467h-709l-180 -467h-86l577 1462h95l577 -1462h-90zM561 1585l230 258h104l-248 -258h-86z" />
    <glyph glyph-name="Acircumflex" unicode="&#xc2;" horiz-adv-x="1331" 
d="M662 1374l-324 -831h649zM1200 0l-184 467h-709l-180 -467h-86l577 1462h95l577 -1462h-90zM848 1585l-182 195l-183 -195h-84l228 258h78l227 -258h-84z" />
    <glyph glyph-name="Atilde" unicode="&#xc3;" horiz-adv-x="1331" 
d="M662 1374l-324 -831h649zM1200 0l-184 467h-709l-180 -467h-86l577 1462h95l577 -1462h-90zM512 1726q-109 0 -113 -124h-67q0 88 48 140t127 52t145 -49q67 -49 100 -65q32 -16 76 -15q44 0 73 33t31 92h67q0 -88 -48 -140q-49 -52 -127 -52t-144 48q-66 50 -100 65
q-33 15 -68 15z" />
    <glyph glyph-name="Adieresis" unicode="&#xc4;" horiz-adv-x="1331" 
d="M662 1374l-324 -831h649zM1200 0l-184 467h-709l-180 -467h-86l577 1462h95l577 -1462h-90zM788 1624v188h86v-188h-86zM457 1624v188h86v-188h-86z" />
    <glyph glyph-name="Aring" unicode="&#xc5;" horiz-adv-x="1331" 
d="M663.5 1710q-116.5 0 -116.5 -92t30.5 -124t86 -32t86 32t30.5 124t-116.5 92zM662 1374l-324 -831h649zM483 1596q0 74 49.5 123.5t131 49.5t131 -49.5t49.5 -123.5q0 -145 -113 -181l559 -1415h-90l-184 467h-709l-180 -467h-86l559 1415q-117 34 -117 181z" />
    <glyph glyph-name="AE" unicode="&#xc6;" horiz-adv-x="2068" 
d="M1110 1386h-152l-466 -780h618v780zM1110 0v530h-661l-318 -530h-90l877 1462h1040v-76h-770v-593h729v-76h-729v-641h794l-20 -76h-852z" />
    <glyph glyph-name="Ccedilla" unicode="&#xc7;" horiz-adv-x="1425" 
d="M936 -274q0 -148 -214 -148q-100 0 -138 8v66q52 -8 124 -8t111 19t39 67t-43 66q-43 19 -143 20h-29l54 150q-261 14 -419 208t-159 557q0 489 281 676q138 92 346 92t352 -122t194 -345l-75 -18q-94 411 -482 411q-254 0 -394 -180t-140 -512t142 -513t405 -181
q202 0 328 113t159 321h78q-33 -240 -181 -371t-369 -137l-34 -92q207 -12 207 -147z" />
    <glyph glyph-name="Egrave" unicode="&#xc8;" horiz-adv-x="1187" 
d="M172 0v1462h903v-76h-821v-593h780v-76h-780v-641h848l-23 -76h-907zM641 1585l-248 258h105l229 -258h-86z" />
    <glyph glyph-name="Eacute" unicode="&#xc9;" horiz-adv-x="1187" 
d="M172 0v1462h903v-76h-821v-593h780v-76h-780v-641h848l-23 -76h-907zM518 1585l230 258h104l-248 -258h-86z" />
    <glyph glyph-name="Ecircumflex" unicode="&#xca;" horiz-adv-x="1187" 
d="M172 0v1462h903v-76h-821v-593h780v-76h-780v-641h848l-23 -76h-907zM805 1585l-182 195l-183 -195h-84l228 258h78l227 -258h-84z" />
    <glyph glyph-name="Edieresis" unicode="&#xcb;" horiz-adv-x="1187" 
d="M172 0v1462h903v-76h-821v-593h780v-76h-780v-641h848l-23 -76h-907zM745 1624v188h86v-188h-86zM414 1624v188h86v-188h-86z" />
    <glyph glyph-name="Igrave" unicode="&#xcc;" horiz-adv-x="425" 
d="M172 0v1462h82v-1462h-82zM231 1585l-247 258h104l229 -258h-86z" />
    <glyph glyph-name="Iacute" unicode="&#xcd;" horiz-adv-x="425" 
d="M172 0v1462h82v-1462h-82zM109 1585l229 258h104l-247 -258h-86z" />
    <glyph glyph-name="Icircumflex" unicode="&#xce;" horiz-adv-x="425" 
d="M172 0v1462h82v-1462h-82zM395 1585l-182 195l-182 -195h-84l227 258h78l227 -258h-84z" />
    <glyph glyph-name="Idieresis" unicode="&#xcf;" horiz-adv-x="425" 
d="M172 0v1462h82v-1462h-82zM336 1624v188h86v-188h-86zM4 1624v188h86v-188h-86z" />
    <glyph glyph-name="Eth" unicode="&#xd0;" horiz-adv-x="1437" 
d="M635 74q598 0 598 659q0 322 -143.5 489t-419.5 167h-400v-596h437v-74h-437v-645h365zM188 0v719h-168v74h168v669h482q315 0 482 -185t167 -541t-177 -546t-513 -190h-441z" />
    <glyph glyph-name="Ntilde" unicode="&#xd1;" horiz-adv-x="1398" 
d="M254 0h-82v1462h94l879 -1341v1341h82v-1462h-94l-879 1339v-1339zM545 1726q-109 0 -113 -124h-67q0 88 48 140t126 52t145 -49t100 -65t77 -15q44 0 73 33t31 92h67q0 -88 -48 -140t-126 -52t-146 48q-67 50 -100 65t-67 15z" />
    <glyph glyph-name="Ograve" unicode="&#xd2;" horiz-adv-x="1525" 
d="M762 39q170 0 296 81q126 82 194 238t69 375q-1 324 -149 508t-408 184q-170 -1 -296 -81t-195 -237t-68 -376q1 -324 149 -508t408 -184zM762 -35q-297 0 -470 206t-173 560q0 229 77 403t222 269q145 96 346 96q297 0 470 -206t173 -560q0 -229 -77 -402t-222 -269
t-346 -97zM780 1585l-248 258h105l229 -258h-86z" />
    <glyph glyph-name="Oacute" unicode="&#xd3;" horiz-adv-x="1525" 
d="M762 39q170 0 296 81q126 82 194 238t69 375q-1 324 -149 508t-408 184q-170 -1 -296 -81t-195 -237t-68 -376q1 -324 149 -508t408 -184zM762 -35q-297 0 -470 206t-173 560q0 229 77 403t222 269q145 96 346 96q297 0 470 -206t173 -560q0 -229 -77 -402t-222 -269
t-346 -97zM657 1585l230 258h104l-248 -258h-86z" />
    <glyph glyph-name="Ocircumflex" unicode="&#xd4;" horiz-adv-x="1525" 
d="M762 39q170 0 296 81q126 82 194 238t69 375q-1 324 -149 508t-408 184q-170 -1 -296 -81t-195 -237t-68 -376q1 -324 149 -508t408 -184zM762 -35q-297 0 -470 206t-173 560q0 229 77 403t222 269q145 96 346 96q297 0 470 -206t173 -560q0 -229 -77 -402t-222 -269
t-346 -97zM944 1585l-182 195l-182 -195h-84l227 258h78l227 -258h-84z" />
    <glyph glyph-name="Otilde" unicode="&#xd5;" horiz-adv-x="1525" 
d="M762 39q170 0 296 81q126 82 194 238t69 375q-1 324 -149 508t-408 184q-170 -1 -296 -81t-195 -237t-68 -376q1 -324 149 -508t408 -184zM762 -35q-297 0 -470 206t-173 560q0 229 77 403t222 269q145 96 346 96q297 0 470 -206t173 -560q0 -229 -77 -402t-222 -269
t-346 -97zM1096 1790q0 -88 -48 -140t-126 -52t-146 48q-67 50 -100 65t-77 15t-73 -32t-30 -92h-68q0 88 48 140t127 52t145 -49q67 -49 100 -65q32 -16 76 -15q44 0 73 33t31 92h68z" />
    <glyph glyph-name="Odieresis" unicode="&#xd6;" horiz-adv-x="1525" 
d="M762 39q170 0 296 81q126 82 194 238t69 375q-1 324 -149 508t-408 184q-170 -1 -296 -81t-195 -237t-68 -376q1 -324 149 -508t408 -184zM762 -35q-297 0 -470 206t-173 560q0 229 77 403t222 269q145 96 346 96q297 0 470 -206t173 -560q0 -229 -77 -402t-222 -269
t-346 -97zM885 1624v188h86v-188h-86zM553 1624v188h86v-188h-86z" />
    <glyph glyph-name="multiply" unicode="&#xd7;" horiz-adv-x="1212" 
d="M606 651l-360 -360l-49 49l360 360l-354 357l49 49l354 -356l355 356l49 -49l-355 -357l361 -360l-49 -49z" />
    <glyph glyph-name="Oslash" unicode="&#xd8;" horiz-adv-x="1525" 
d="M1321 708q0 371 -170 558l-723 -1119q132 -109 318 -109t312 81.5t194.5 238t68.5 350.5zM205 754q0 -375 170 -557l723 1118q-136 111 -320 111t-310 -81t-194.5 -238t-68.5 -353zM119 731q0 229 76.5 402.5t222 269.5t354.5 96t369 -119l106 166l60 -41l-111 -172
q211 -207 211 -600q0 -229 -77 -402t-222 -269.5t-355 -96.5t-368 117l-106 -166l-60 41l111 172q-211 207 -211 602z" />
    <glyph glyph-name="Ugrave" unicode="&#xd9;" horiz-adv-x="1366" 
d="M1204 571q0 -606 -521 -606t-521 610v887h82v-895q0 -268 108 -398t332 -130q223 0 331 129t107 399v895h82v-891zM700 1585l-247 258h104l229 -258h-86z" />
    <glyph glyph-name="Uacute" unicode="&#xda;" horiz-adv-x="1366" 
d="M1204 571q0 -606 -521 -606t-521 610v887h82v-895q0 -268 108 -398t332 -130q223 0 331 129t107 399v895h82v-891zM578 1585l229 258h104l-247 -258h-86z" />
    <glyph glyph-name="Ucircumflex" unicode="&#xdb;" horiz-adv-x="1366" 
d="M1204 571q0 -606 -521 -606t-521 610v887h82v-895q0 -268 108 -398t332 -130q223 0 331 129t107 399v895h82v-891zM864 1585l-182 195l-182 -195h-84l227 258h78l227 -258h-84z" />
    <glyph glyph-name="Udieresis" unicode="&#xdc;" horiz-adv-x="1366" 
d="M1204 571q0 -606 -521 -606t-521 610v887h82v-895q0 -268 108 -398t332 -130q223 0 331 129t107 399v895h82v-891zM805 1624v188h86v-188h-86zM473 1624v188h86v-188h-86z" />
    <glyph glyph-name="Yacute" unicode="&#xdd;" horiz-adv-x="1167" 
d="M547 0v633l-506 829h90l457 -755l452 755h86l-499 -827v-635h-80zM479 1585l230 258h104l-248 -258h-86z" />
    <glyph glyph-name="Thorn" unicode="&#xde;" horiz-adv-x="1243" 
d="M651 389q213 0 311.5 87t98.5 271.5t-97.5 267.5t-314.5 83h-397v-709h399zM252 315v-315h-80v1462h80v-293h407q487 0 488 -419q0 -215 -124 -325t-370 -110h-401z" />
    <glyph glyph-name="germandbls" unicode="&#xdf;" horiz-adv-x="1140" 
d="M614 41q172 0 262.5 90t90.5 261t-103.5 264.5t-290.5 93.5h-151v69h123q143 0 222 80t79 221t-78 216t-226 75t-230.5 -86t-82.5 -248v-1077h-77v1075q0 188 104 296t286 108t283 -93.5t101 -259.5q0 -125 -54.5 -210t-158.5 -121q154 -25 245 -133.5t91 -266.5
q0 -201 -115 -311.5t-320 -110.5q-123 0 -233 39l22 64q98 -35 211 -35z" />
    <glyph glyph-name="agrave" unicode="&#xe0;" horiz-adv-x="1056" 
d="M164 304q0 -257 287 -259q180 0 286 100q57 53 79 101t22 131v209l-222 -8q-246 -10 -349 -76t-103 -198zM84 304q0 161 125 244t399 93l230 8v43q0 176 -70 249t-226 73t-235 -47q-78 -47 -102 -150l-70 12q53 254 400 254q199 0 289 -91t91 -294v-698h-75v176
q-128 -199 -396 -201q-170 0 -265 84t-95 245zM555 1204l-248 266h103l229 -266h-84z" />
    <glyph glyph-name="aacute" unicode="&#xe1;" horiz-adv-x="1056" 
d="M164 304q0 -257 287 -259q180 0 286 100q57 53 79 101t22 131v209l-222 -8q-246 -10 -349 -76t-103 -198zM84 304q0 161 125 244t399 93l230 8v43q0 176 -70 249t-226 73t-235 -47q-78 -47 -102 -150l-70 12q53 254 400 254q199 0 289 -91t91 -294v-698h-75v176
q-128 -199 -396 -201q-170 0 -265 84t-95 245zM432 1204l230 266h102l-248 -266h-84z" />
    <glyph glyph-name="acircumflex" unicode="&#xe2;" horiz-adv-x="1056" 
d="M164 304q0 -257 287 -259q180 0 286 100q57 53 79 101t22 131v209l-222 -8q-246 -10 -349 -76t-103 -198zM84 304q0 161 125 244t399 93l230 8v43q0 176 -70 249t-226 73t-235 -47q-78 -47 -102 -150l-70 12q53 254 400 254q199 0 289 -91t91 -294v-698h-75v176
q-128 -199 -396 -201q-170 0 -265 84t-95 245zM719 1204l-184 207l-185 -207h-82l230 266h75l228 -266h-82z" />
    <glyph glyph-name="atilde" unicode="&#xe3;" horiz-adv-x="1056" 
d="M164 304q0 -257 287 -259q180 0 286 100q57 53 79 101t22 131v209l-222 -8q-246 -10 -349 -76t-103 -198zM84 304q0 161 125 244t399 93l230 8v43q0 176 -70 249t-226 73t-235 -47q-78 -47 -102 -150l-70 12q53 254 400 254q199 0 289 -91t91 -294v-698h-75v176
q-128 -199 -396 -201q-170 0 -265 84t-95 245zM860 1430q0 -88 -48 -140t-121 -53q-73 0 -148 53q-74 54 -100 66q-27 12 -69 12t-71 -34t-29 -93h-65q0 88 48 140q48 53 120 53t148 -54q75 -54 101 -65q26 -12 68 -12q42 -1 72 33q29 34 29 94h65z" />
    <glyph glyph-name="adieresis" unicode="&#xe4;" horiz-adv-x="1056" 
d="M164 304q0 -257 287 -259q180 0 286 100q57 53 79 101t22 131v209l-222 -8q-246 -10 -349 -76t-103 -198zM84 304q0 161 125 244t399 93l230 8v43q0 176 -70 249t-226 73t-235 -47q-78 -47 -102 -150l-70 12q53 254 400 254q199 0 289 -91t91 -294v-698h-75v176
q-128 -199 -396 -201q-170 0 -265 84t-95 245zM651 1274v188h82v-188h-82zM338 1274v188h82v-188h-82z" />
    <glyph glyph-name="aring" unicode="&#xe5;" horiz-adv-x="1056" 
d="M164 304q0 -257 287 -259q180 0 286 100q57 53 79 101t22 131v209l-222 -8q-246 -10 -349 -76t-103 -198zM84 304q0 161 125 244t399 93l230 8v43q0 176 -70 249t-226 73t-235 -47q-78 -47 -102 -150l-70 12q53 254 400 254q199 0 289 -91t91 -294v-698h-75v176
q-128 -199 -396 -201q-170 0 -265 84t-95 245zM651 1391q0 59 -30 92q-31 33 -86 33t-86 -33t-31 -92t31 -93t86 -32q55 0 86 32q30 34 30 93zM715 1391q0 -83 -49 -133t-131 -50t-132 49q-49 49 -49 133t49 134q49 49 131 49t132 -49q49 -49 49 -133z" />
    <glyph glyph-name="ae" unicode="&#xe6;" horiz-adv-x="1832" 
d="M1653 573q0 217 -90 329t-264.5 112t-273.5 -114t-112 -327h740zM172 306q0 -261 279 -261q177 0 281 92q103 92 104 240v209l-218 -8q-240 -8 -343 -74t-103 -198zM1308 -33q-323 0 -423 295q-16 -76 -78 -141.5t-158 -105.5t-205 -40q-166 0 -259 86t-93 246t123 242
t395 92l226 8v43q0 176 -69 249t-223 73t-230 -47t-101 -150l-70 12q53 254 392 254q166 0 252.5 -66.5t107.5 -205.5q53 133 158.5 202.5t251.5 69.5q205 0 315.5 -137t110.5 -387v-53h-818q0 -225 103.5 -347t294.5 -122q131 0 213 58.5t110 166.5h74
q-29 -139 -135.5 -217t-264.5 -78z" />
    <glyph glyph-name="ccedilla" unicode="&#xe7;" horiz-adv-x="1110" 
d="M729 -250q1 -141 -205 -141q-96 0 -137 8v64q166 -27 230 9q36 19 36 64q0 44 -39 64t-135 20h-26l45 135q-164 23 -266 141q-126 146 -126 406t130 412t352 151q164 0 267 -86t136 -254l-71 -16q-35 145 -116 216t-218 71q-188 0 -292 -131t-106 -361q0 -230 102 -358
q102 -127 292 -127q293 0 352 307h76q-29 -180 -141 -278t-289 -99q-10 0 -21 1l-24 -77q195 -12 194 -141z" />
    <glyph glyph-name="egrave" unicode="&#xe8;" horiz-adv-x="1116" 
d="M936 573q0 441 -358 441q-178 0 -280 -113t-114 -328h752zM588 37q271 0 330 225h73q-29 -139 -137 -217t-272 -78q-228 -1 -352 143t-124 409t125 415t341 150t328 -137q114 -136 114 -388v-53h-830q0 -225 104 -347t300 -122zM600 1204l-248 266h103l229 -266h-84z" />
    <glyph glyph-name="eacute" unicode="&#xe9;" horiz-adv-x="1116" 
d="M936 573q0 441 -358 441q-178 0 -280 -113t-114 -328h752zM588 37q271 0 330 225h73q-29 -139 -137 -217t-272 -78q-228 -1 -352 143t-124 409t125 415t341 150t328 -137q114 -136 114 -388v-53h-830q0 -225 104 -347t300 -122zM477 1204l230 266h102l-248 -266h-84z" />
    <glyph glyph-name="ecircumflex" unicode="&#xea;" horiz-adv-x="1116" 
d="M936 573q0 441 -358 441q-178 0 -280 -113t-114 -328h752zM588 37q271 0 330 225h73q-29 -139 -137 -217t-272 -78q-228 -1 -352 143t-124 409t125 415t341 150t328 -137q114 -136 114 -388v-53h-830q0 -225 104 -347t300 -122zM764 1204l-184 207l-185 -207h-82l230 266
h75l228 -266h-82z" />
    <glyph glyph-name="edieresis" unicode="&#xeb;" horiz-adv-x="1116" 
d="M936 573q0 441 -358 441q-178 0 -280 -113t-114 -328h752zM588 37q271 0 330 225h73q-29 -139 -137 -217t-272 -78q-228 -1 -352 143t-124 409t125 415t341 150t328 -137q114 -136 114 -388v-53h-830q0 -225 104 -347t300 -122zM696 1274v188h82v-188h-82zM383 1274v188
h82v-188h-82z" />
    <glyph glyph-name="igrave" unicode="&#xec;" horiz-adv-x="372" 
d="M147 0v1051h78v-1051h-78zM207 1204l-248 266h102l230 -266h-84z" />
    <glyph glyph-name="iacute" unicode="&#xed;" horiz-adv-x="372" 
d="M147 0v1051h78v-1051h-78zM84 1204l229 266h103l-248 -266h-84z" />
    <glyph glyph-name="icircumflex" unicode="&#xee;" horiz-adv-x="372" 
d="M147 0v1051h78v-1051h-78zM371 1204l-185 207l-184 -207h-82l230 266h75l228 -266h-82z" />
    <glyph glyph-name="idieresis" unicode="&#xef;" horiz-adv-x="372" 
d="M147 0v1051h78v-1051h-78zM303 1274v188h82v-188h-82zM-10 1274v188h82v-188h-82z" />
    <glyph glyph-name="eth" unicode="&#xf0;" horiz-adv-x="1183" 
d="M995 520q0 188 -111.5 302t-294.5 114t-292 -121t-109 -329t107.5 -328.5t294 -120.5t296 119.5t109.5 324.5v39zM1077 555q0 -279 -127 -433.5t-354 -154.5t-358.5 139.5t-131.5 374.5q0 152 58.5 269.5t169 185.5t258.5 68q244 0 375 -191q-82 366 -349 504l-161 -160
l-47 47l141 142q-125 51 -285 61l6 68q190 -12 332 -76l139 137l48 -47l-121 -121q188 -100 297.5 -317t109.5 -496z" />
    <glyph glyph-name="ntilde" unicode="&#xf1;" horiz-adv-x="1124" 
d="M905 0v682q0 168 -68 249q-69 81 -225 81t-284 -115q-59 -53 -81 -109t-22 -151v-637h-78v1051h78v-181q158 213 410 213q170 0 259 -97t89 -286v-700h-78zM891 1430q0 -88 -48 -140t-121 -53q-73 0 -148 53q-74 54 -100 66t-68 12t-72 -34q-29 -34 -29 -93h-65
q0 88 48 140q48 53 120 53t147 -54t101 -65q26 -12 69 -12q43 -1 72 33t28 94h66z" />
    <glyph glyph-name="ograve" unicode="&#xf2;" horiz-adv-x="1183" 
d="M592 37q193 0 298 128q105 127 105 361t-105 361t-298 127t-298 -127q-106 -127 -106 -361t106 -361q106 -128 298 -128zM590 -33q-225 1 -354 149t-130 408q0 168 59 294q58 126 168 196t261 69q225 0 354 -148t129 -411q0 -166 -58 -292q-57 -126 -167 -196t-262 -69z
M612 1204l-247 266h102l229 -266h-84z" />
    <glyph glyph-name="oacute" unicode="&#xf3;" horiz-adv-x="1183" 
d="M592 37q193 0 298 128q105 127 105 361t-105 361t-298 127t-298 -127q-106 -127 -106 -361t106 -361q106 -128 298 -128zM590 -33q-225 1 -354 149t-130 408q0 168 59 294q58 126 168 196t261 69q225 0 354 -148t129 -411q0 -166 -58 -292q-57 -126 -167 -196t-262 -69z
M489 1204l230 266h102l-248 -266h-84z" />
    <glyph glyph-name="ocircumflex" unicode="&#xf4;" horiz-adv-x="1183" 
d="M592 37q193 0 298 128q105 127 105 361t-105 361t-298 127t-298 -127q-106 -127 -106 -361t106 -361q106 -128 298 -128zM590 -33q-225 1 -354 149t-130 408q0 168 59 294q58 126 168 196t261 69q225 0 354 -148t129 -411q0 -166 -58 -292q-57 -126 -167 -196t-262 -69z
M776 1204l-184 207l-184 -207h-82l229 266h76l227 -266h-82z" />
    <glyph glyph-name="otilde" unicode="&#xf5;" horiz-adv-x="1183" 
d="M592 37q193 0 298 128q105 127 105 361t-105 361t-298 127t-298 -127q-106 -127 -106 -361t106 -361q106 -128 298 -128zM590 -33q-225 1 -354 149t-130 408q0 168 59 294q58 126 168 196t261 69q225 0 354 -148t129 -411q0 -166 -58 -292q-57 -126 -167 -196t-262 -69z
M918 1430q0 -88 -48 -140t-121 -53q-72 0 -148 53q-75 54 -101 66t-68 12q-43 0 -72 -34t-28 -93h-66q0 88 48 140q48 53 120 53t148 -54t102 -65q26 -12 68 -12q42 -1 71 33t29 94h66z" />
    <glyph glyph-name="odieresis" unicode="&#xf6;" horiz-adv-x="1183" 
d="M592 37q193 0 298 128q105 127 105 361t-105 361t-298 127t-298 -127q-106 -127 -106 -361t106 -361q106 -128 298 -128zM590 -33q-225 1 -354 149t-130 408q0 168 59 294q58 126 168 196t261 69q225 0 354 -148t129 -411q0 -166 -58 -292q-57 -126 -167 -196t-262 -69z
M709 1274v188h82v-188h-82zM395 1274v188h82v-188h-82z" />
    <glyph glyph-name="divide" unicode="&#xf7;" horiz-adv-x="1212" 
d="M561 227v191h90v-191h-90zM561 975v190h90v-190h-90zM168 659v74h876v-74h-876z" />
    <glyph glyph-name="oslash" unicode="&#xf8;" horiz-adv-x="1183" 
d="M995 528q0 236 -112 365l-525 -789q96 -68 234 -67q193 0 298 127.5t105 363.5zM592 1014q-193 0 -298.5 -127t-105.5 -369t119 -371l527 793q-98 74 -242 74zM106 524q0 168 58.5 294t168 195.5t266.5 69.5t275 -82l91 136l55 -39l-94 -142q152 -147 151 -432
q0 -166 -58 -292t-167.5 -195.5t-263.5 -69.5t-271 76l-88 -135l-55 39l90 137q-158 150 -158 440z" />
    <glyph glyph-name="ugrave" unicode="&#xf9;" horiz-adv-x="1101" 
d="M877 0v180q-152 -213 -398 -213q-166 -1 -252 97t-86 286v701h78v-682q0 -170 67 -250q66 -80 218 -80t274 115q55 53 77 108t22 152v637h77v-1051h-77zM567 1204l-248 266h103l229 -266h-84z" />
    <glyph glyph-name="uacute" unicode="&#xfa;" horiz-adv-x="1101" 
d="M877 0v180q-152 -213 -398 -213q-166 -1 -252 97t-86 286v701h78v-682q0 -170 67 -250q66 -80 218 -80t274 115q55 53 77 108t22 152v637h77v-1051h-77zM444 1204l230 266h102l-248 -266h-84z" />
    <glyph glyph-name="ucircumflex" unicode="&#xfb;" horiz-adv-x="1101" 
d="M877 0v180q-152 -213 -398 -213q-166 -1 -252 97t-86 286v701h78v-682q0 -170 67 -250q66 -80 218 -80t274 115q55 53 77 108t22 152v637h77v-1051h-77zM731 1204l-184 207l-185 -207h-81l229 266h76l227 -266h-82z" />
    <glyph glyph-name="udieresis" unicode="&#xfc;" horiz-adv-x="1101" 
d="M877 0v180q-152 -213 -398 -213q-166 -1 -252 97t-86 286v701h78v-682q0 -170 67 -250q66 -80 218 -80t274 115q55 53 77 108t22 152v637h77v-1051h-77zM664 1274v188h81v-188h-81zM350 1274v188h82v-188h-82z" />
    <glyph glyph-name="yacute" unicode="&#xfd;" horiz-adv-x="985" 
d="M234 -397q-78 0 -148 22l18 66q53 -19 117 -19t106 40t83 143l63 157l-457 1039h86l412 -949l371 949h84l-494 -1231q-47 -119 -105 -168t-136 -49zM389 1204l229 266h103l-248 -266h-84z" />
    <glyph glyph-name="thorn" unicode="&#xfe;" horiz-adv-x="1175" 
d="M221 477q0 -241 131 -356q100 -84 246 -84q186 0 287.5 127t101.5 360t-98 361.5t-279 128.5q-147 0 -250 -86q-139 -121 -139 -346v-105zM147 -397v1859h78v-616q131 238 391 237q211 0 332 -148.5t121 -408.5t-125 -409.5t-342 -149.5q-131 0 -228.5 57.5t-148.5 165.5
v-587h-78z" />
    <glyph glyph-name="ydieresis" unicode="&#xff;" horiz-adv-x="985" 
d="M234 -397q-78 0 -148 22l18 66q53 -19 117 -19t106 40t83 143l63 157l-457 1039h86l412 -949l371 949h84l-494 -1231q-47 -119 -105 -168t-136 -49zM608 1274v188h82v-188h-82zM295 1274v188h82v-188h-82z" />
    <glyph glyph-name="Amacron" unicode="&#x100;" horiz-adv-x="1331" 
d="M662 1374l-324 -831h649zM1200 0l-184 467h-709l-180 -467h-86l577 1462h95l577 -1462h-90zM385 1634v72h561v-72h-561z" />
    <glyph glyph-name="amacron" unicode="&#x101;" horiz-adv-x="1056" 
d="M164 304q0 -257 287 -259q180 0 286 100q57 53 79 101t22 131v209l-222 -8q-246 -10 -349 -76t-103 -198zM84 304q0 161 125 244t399 93l230 8v43q0 176 -70 249t-226 73t-235 -47q-78 -47 -102 -150l-70 12q53 254 400 254q199 0 289 -91t91 -294v-698h-75v176
q-128 -199 -396 -201q-170 0 -265 84t-95 245zM291 1290v70h487v-70h-487z" />
    <glyph glyph-name="Abreve" unicode="&#x102;" horiz-adv-x="1331" 
d="M662 1374l-324 -831h649zM1200 0l-184 467h-709l-180 -467h-86l577 1462h95l577 -1462h-90zM907 1825q0 -115 -63 -177t-178 -62q-114 0 -178 62t-64 177h70q0 -84 46 -130t128 -46t127 46t45 130h67z" />
    <glyph glyph-name="abreve" unicode="&#x103;" horiz-adv-x="1056" 
d="M164 304q0 -257 287 -259q180 0 286 100q57 53 79 101t22 131v209l-222 -8q-246 -10 -349 -76t-103 -198zM84 304q0 161 125 244t399 93l230 8v43q0 176 -70 249t-226 73t-235 -47q-78 -47 -102 -150l-70 12q53 254 400 254q199 0 289 -91t91 -294v-698h-75v176
q-128 -199 -396 -201q-170 0 -265 84t-95 245zM776 1460q0 -116 -63 -182t-178 -66t-179 66q-63 66 -63 182h67q0 -88 46 -137t131 -49q84 0 129 49t45 137h65z" />
    <glyph glyph-name="Aogonek" unicode="&#x104;" horiz-adv-x="1331" 
d="M662 1374l-324 -831h649zM1157 -199q0 -45 26 -65q25 -20 59 -20t71 3v-67q-41 -4 -58 -4q-86 0 -131 37t-45 106q0 105 121 210l-184 466h-709l-180 -467h-86l577 1462h95l577 -1462q-133 -101 -133 -199z" />
    <glyph glyph-name="aogonek" unicode="&#x105;" horiz-adv-x="1056" 
d="M164 304q0 -257 287 -259q180 0 286 100q57 53 79 101t22 131v209l-222 -8q-246 -10 -349 -76t-103 -198zM84 304q0 161 125 244t399 93l230 8v43q0 176 -70 249t-226 73t-235 -47q-78 -47 -102 -150l-70 12q53 254 400 254q199 0 289 -91t91 -294v-698
q-129 -98 -129 -190q0 -86 107 -86q29 0 47 2v-64q-25 -4 -55 -4q-84 0 -129 36t-45 103q0 108 129 209v170q-128 -199 -396 -201q-170 0 -265 84t-95 245z" />
    <glyph glyph-name="Cacute" unicode="&#x106;" horiz-adv-x="1425" 
d="M735 1425q-254 0 -394 -180t-140 -512t142 -513t405 -181q202 0 328 113t159 321h78q-33 -240 -185 -374t-387 -134q-293 0 -457 202t-165 564q0 489 281 676q138 92 346 92t352 -122t194 -345l-75 -18q-94 411 -482 411zM631 1585l229 258h105l-248 -258h-86z" />
    <glyph glyph-name="cacute" unicode="&#x107;" horiz-adv-x="1110" 
d="M582 37q293 0 352 307h76q-29 -180 -141 -278t-289 -99q-222 1 -348 147t-126 406t130 412t352 151q164 0 267 -86t136 -254l-71 -16q-35 145 -116 216t-218 71q-188 0 -292 -131t-106 -361q0 -230 102 -358q102 -127 292 -127zM485 1204l230 266h102l-248 -266h-84z" />
    <glyph glyph-name="Ccircumflex" unicode="&#x108;" horiz-adv-x="1425" 
d="M735 1425q-254 0 -394 -180t-140 -512t142 -513t405 -181q202 0 328 113t159 321h78q-33 -240 -185 -374t-387 -134q-293 0 -457 202t-165 564q0 489 281 676q138 92 346 92t352 -122t194 -345l-75 -18q-94 411 -482 411zM918 1585l-183 195l-182 -195h-84l227 258h78
l227 -258h-83z" />
    <glyph glyph-name="ccircumflex" unicode="&#x109;" horiz-adv-x="1110" 
d="M582 37q293 0 352 307h76q-29 -180 -141 -278t-289 -99q-222 1 -348 147t-126 406t130 412t352 151q164 0 267 -86t136 -254l-71 -16q-35 145 -116 216t-218 71q-188 0 -292 -131t-106 -361q0 -230 102 -358q102 -127 292 -127zM772 1204l-184 207l-185 -207h-81l229 266
h76l227 -266h-82z" />
    <glyph glyph-name="Cdotaccent" unicode="&#x10a;" horiz-adv-x="1425" 
d="M735 1425q-254 0 -394 -180t-140 -512t142 -513t405 -181q202 0 328 113t159 321h78q-33 -240 -185 -374t-387 -134q-293 0 -457 202t-165 564q0 489 281 676q138 92 346 92t352 -122t194 -345l-75 -18q-94 411 -482 411zM692 1624v188h86v-188h-86z" />
    <glyph glyph-name="cdotaccent" unicode="&#x10b;" horiz-adv-x="1110" 
d="M582 37q293 0 352 307h76q-29 -180 -141 -278t-289 -99q-222 1 -348 147t-126 406t130 412t352 151q164 0 267 -86t136 -254l-71 -16q-35 145 -116 216t-218 71q-188 0 -292 -131t-106 -361q0 -230 102 -358q102 -127 292 -127zM547 1274v188h82v-188h-82z" />
    <glyph glyph-name="Ccaron" unicode="&#x10c;" horiz-adv-x="1425" 
d="M735 1425q-254 0 -394 -180t-140 -512t142 -513t405 -181q202 0 328 113t159 321h78q-33 -240 -185 -374t-387 -134q-293 0 -457 202t-165 564q0 489 281 676q138 92 346 92t352 -122t194 -345l-75 -18q-94 411 -482 411zM696 1585l-227 258h84l182 -194l183 194h83
l-227 -258h-78z" />
    <glyph glyph-name="ccaron" unicode="&#x10d;" horiz-adv-x="1110" 
d="M582 37q293 0 352 307h76q-29 -180 -141 -278t-289 -99q-222 1 -348 147t-126 406t130 412t352 151q164 0 267 -86t136 -254l-71 -16q-35 145 -116 216t-218 71q-188 0 -292 -131t-106 -361q0 -230 102 -358q102 -127 292 -127zM549 1204l-227 266h81l185 -206l184 206
h82l-229 -266h-76z" />
    <glyph glyph-name="Dcaron" unicode="&#x10e;" horiz-adv-x="1421" 
d="M618 74q598 0 599 659q1 322 -143 489t-421 167h-399v-1315h364zM172 0v1462h481q315 0 483 -185t167 -541q1 -356 -177 -546t-514 -190h-440zM596 1585l-227 258h84l182 -194l182 194h84l-227 -258h-78z" />
    <glyph glyph-name="dcaron" unicode="&#x10f;" horiz-adv-x="1175" 
d="M954 573q0 127 -31 212q-32 85 -100 145q-100 84 -245 84q-186 0 -288 -127t-102 -361t98 -361q98 -128 279 -128q147 0 250 86q141 122 139 346v104zM950 0v205q-131 -238 -391 -238q-211 1 -332 149t-121 408t125 410t342 149q131 0 229 -57t148 -166v602h78v-1462h-78
zM1159 1120l51 342h80l-67 -342h-64z" />
    <glyph glyph-name="Dcroat" unicode="&#x110;" horiz-adv-x="1437" 
d="M635 74q598 0 598 659q0 322 -143 489t-420 167h-400v-596h437v-74h-437v-645h365zM188 0v719h-168v74h168v669h482q315 0 482 -185t167 -541t-177 -546t-513 -190h-441z" />
    <glyph glyph-name="dcroat" unicode="&#x111;" horiz-adv-x="1196" 
d="M954 539q0 242 -131 356q-100 84 -245 84q-184 0 -287 -124t-103 -346t100 -347t262 -125q275 0 339.5 161.5t64.5 270.5v70zM950 0v205q-131 -238 -391 -238q-209 0 -331 145.5t-122 394.5t127 395.5t340 146.5q131 0 228.5 -57.5t148.5 -166.5v400h-368v67h368v170h78
v-170h148v-67h-148v-1225h-78z" />
    <glyph glyph-name="Emacron" unicode="&#x112;" horiz-adv-x="1187" 
d="M172 0v1462h903v-76h-821v-593h780v-76h-780v-641h848l-23 -76h-907zM342 1634v72h561v-72h-561z" />
    <glyph glyph-name="emacron" unicode="&#x113;" horiz-adv-x="1116" 
d="M936 573q0 441 -358 441q-178 0 -280 -113t-114 -328h752zM588 37q271 0 330 225h73q-29 -139 -137 -217t-272 -78q-228 -1 -352 143t-124 409t125 415t341 150t328 -137q114 -136 114 -388v-53h-830q0 -225 104 -347t300 -122zM336 1290v70h487v-70h-487z" />
    <glyph glyph-name="Ebreve" unicode="&#x114;" horiz-adv-x="1187" 
d="M172 0v1462h903v-76h-821v-593h780v-76h-780v-641h848l-23 -76h-907zM864 1825q0 -115 -63 -177t-178 -62t-179 62t-63 177h70q0 -84 46 -130t128 -46t127 46t45 130h67z" />
    <glyph glyph-name="ebreve" unicode="&#x115;" horiz-adv-x="1116" 
d="M936 573q0 441 -358 441q-178 0 -280 -113t-114 -328h752zM588 37q271 0 330 225h73q-29 -139 -137 -217t-272 -78q-228 -1 -352 143t-124 409t125 415t341 150t328 -137q114 -136 114 -388v-53h-830q0 -225 104 -347t300 -122zM821 1460q0 -116 -63 -182t-178 -66
t-179 66q-63 66 -63 182h68q0 -88 46 -137t130 -49t129 49t45 137h65z" />
    <glyph glyph-name="Edotaccent" unicode="&#x116;" horiz-adv-x="1187" 
d="M172 0v1462h903v-76h-821v-593h780v-76h-780v-641h848l-23 -76h-907zM580 1624v188h86v-188h-86z" />
    <glyph glyph-name="edotaccent" unicode="&#x117;" horiz-adv-x="1116" 
d="M936 573q0 441 -358 441q-178 0 -280 -113t-114 -328h752zM588 37q271 0 330 225h73q-29 -139 -137 -217t-272 -78q-228 -1 -352 143t-124 409t125 415t341 150t328 -137q114 -136 114 -388v-53h-830q0 -225 104 -347t300 -122zM539 1274v188h82v-188h-82z" />
    <glyph glyph-name="Eogonek" unicode="&#x118;" horiz-adv-x="1187" 
d="M868 -209q0 105 120 209h-816v1462h903v-76h-821v-593h780v-76h-780v-641h848l-23 -76q-133 -101 -133 -199q0 -45 26 -65t60 -20t70 3v-67q-41 -4 -58 -4q-86 0 -131 37t-45 106z" />
    <glyph glyph-name="eogonek" unicode="&#x119;" horiz-adv-x="1116" 
d="M936 573q0 441 -358 441q-178 0 -280 -113t-114 -328h752zM588 37q271 0 330 225h73q-29 -139 -137 -217q-48 -35 -108 -54q-118 -94 -117 -181q0 -86 106 -86q29 0 47 2v-64q-25 -4 -55 -4q-84 0 -129 36t-45 97q0 97 87 179q-28 -3 -58 -3q-228 -1 -352 143t-124 409
t125 415t341 150t328 -137q114 -136 114 -388v-53h-830q0 -225 104 -347t300 -122z" />
    <glyph glyph-name="Ecaron" unicode="&#x11a;" horiz-adv-x="1187" 
d="M172 0v1462h903v-76h-821v-593h780v-76h-780v-641h848l-23 -76h-907zM584 1585l-228 258h84l183 -194l182 194h84l-227 -258h-78z" />
    <glyph glyph-name="ecaron" unicode="&#x11b;" horiz-adv-x="1116" 
d="M936 573q0 441 -358 441q-178 0 -280 -113t-114 -328h752zM588 37q271 0 330 225h73q-29 -139 -137 -217t-272 -78q-228 -1 -352 143t-124 409t125 415t341 150t328 -137q114 -136 114 -388v-53h-830q0 -225 104 -347t300 -122zM541 1204l-228 266h82l185 -206l184 206
h82l-230 -266h-75z" />
    <glyph glyph-name="Gcircumflex" unicode="&#x11c;" horiz-adv-x="1429" 
d="M1217 625h-431v73h512v-546q-98 -90 -234 -138t-286 -49q-315 0 -487 200t-172 564q0 236 75 409t218 267t344 94q202 0 332 -100t180 -293l-76 -19q-92 338 -438 338q-260 0 -406 -182t-145 -514t151 -511t428 -179q125 0 239 37t196 104v445zM938 1585l-182 195
l-183 -195h-84l228 258h78l227 -258h-84z" />
    <glyph glyph-name="gcircumflex" unicode="&#x11d;" horiz-adv-x="1175" 
d="M954 596q0 232 -131 338q-98 80 -243 80q-188 0 -290 -121t-102 -343t100 -343t279 -121q143 0 248 82q141 114 139 328v100zM584 -350q194 0 280 87t86 288v223q-131 -231 -393 -232q-211 0 -331 142t-120 391q0 248 125 391t340 143q133 0 231 -56t148 -161v185h78
v-1028q0 -225 -110 -334t-321 -109q-210 0 -321 76t-126 217h73q39 -223 361 -223zM766 1204l-184 207l-185 -207h-82l230 266h76l227 -266h-82z" />
    <glyph glyph-name="Gbreve" unicode="&#x11e;" horiz-adv-x="1429" 
d="M1217 625h-431v73h512v-546q-98 -90 -234 -138t-286 -49q-315 0 -487 200t-172 564q0 236 75 409t218 267t344 94q202 0 332 -100t180 -293l-76 -19q-92 338 -438 338q-260 0 -406 -182t-145 -514t151 -511t428 -179q125 0 239 37t196 104v445zM997 1825q0 -115 -63 -177
t-178 -62t-178 62t-64 177h70q0 -84 46 -130t128 -46t127 46t45 130h67z" />
    <glyph glyph-name="gbreve" unicode="&#x11f;" horiz-adv-x="1175" 
d="M954 596q0 232 -131 338q-98 80 -243 80q-188 0 -290 -121t-102 -343t100 -343t279 -121q143 0 248 82q141 114 139 328v100zM584 -350q194 0 280 87t86 288v223q-131 -231 -393 -232q-211 0 -331 142t-120 391q0 248 125 391t340 143q133 0 231 -56t148 -161v185h78
v-1028q0 -225 -110 -334t-321 -109q-210 0 -321 76t-126 217h73q39 -223 361 -223zM823 1460q0 -116 -63 -182t-178 -66t-179 66q-63 66 -63 182h68q0 -88 46 -137t130 -49t129 49t45 137h65z" />
    <glyph glyph-name="Gdotaccent" unicode="&#x120;" horiz-adv-x="1429" 
d="M1217 625h-431v73h512v-546q-98 -90 -234 -138t-286 -49q-315 0 -487 200t-172 564q0 236 75 409t218 267t344 94q202 0 332 -100t180 -293l-76 -19q-92 338 -438 338q-260 0 -406 -182t-145 -514t151 -511t428 -179q125 0 239 37t196 104v445zM713 1624v188h86v-188h-86
z" />
    <glyph glyph-name="gdotaccent" unicode="&#x121;" horiz-adv-x="1175" 
d="M954 596q0 232 -131 338q-98 80 -243 80q-188 0 -290 -121t-102 -343t100 -343t279 -121q143 0 248 82q141 114 139 328v100zM584 -350q194 0 280 87t86 288v223q-131 -231 -393 -232q-211 0 -331 142t-120 391q0 248 125 391t340 143q133 0 231 -56t148 -161v185h78
v-1028q0 -225 -110 -334t-321 -109q-210 0 -321 76t-126 217h73q39 -223 361 -223zM541 1274v188h82v-188h-82z" />
    <glyph glyph-name="uni0122" unicode="&#x122;" horiz-adv-x="1429" 
d="M1217 625h-431v73h512v-546q-98 -90 -234 -138t-286 -49q-315 0 -487 200t-172 564q0 236 75 409t218 267t344 94q202 0 332 -100t180 -293l-76 -19q-92 338 -438 338q-260 0 -406 -182t-145 -514t151 -511t428 -179q125 0 239 37t196 104v445zM586 -420l145 275h94
l-161 -275h-78z" />
    <glyph glyph-name="uni0123" unicode="&#x123;" horiz-adv-x="1175" 
d="M954 596q0 232 -131 338q-98 80 -243 80q-188 0 -290 -121t-102 -343t100 -343t279 -121q143 0 248 82q141 114 139 328v100zM584 -350q194 0 280 87t86 288v223q-131 -231 -393 -232q-211 0 -331 142t-120 391q0 248 125 391t340 143q133 0 231 -56t148 -161v185h78
v-1028q0 -225 -110 -334t-321 -109q-210 0 -321 76t-126 217h73q39 -223 361 -223zM530 1196l162 277h76l-145 -277h-93z" />
    <glyph glyph-name="Hcircumflex" unicode="&#x124;" horiz-adv-x="1392" 
d="M1139 0v719h-885v-719h-82v1462h82v-667h885v667h82v-1462h-82zM879 1585l-183 195l-182 -195h-84l227 258h78l228 -258h-84z" />
    <glyph glyph-name="hcircumflex" unicode="&#x125;" horiz-adv-x="1124" 
d="M905 0v682q0 168 -68 249q-69 81 -225 81t-284 -115q-59 -53 -81 -109t-22 -151v-637h-78v1462h78v-592q158 213 410 213q170 0 259 -97t89 -286v-700h-78zM596 1585l-182 195l-183 -195h-84l228 258h78l227 -258h-84z" />
    <glyph glyph-name="Hbar" unicode="&#x126;" horiz-adv-x="1425" 
d="M1155 1092h-885v-310h885v310zM1155 0v707h-885v-707h-82v1092h-168v73h168v297h82v-297h885v297h82v-297h168v-73h-168v-1092h-82z" />
    <glyph glyph-name="hbar" unicode="&#x127;" horiz-adv-x="1146" 
d="M928 0v647q0 168 -68.5 249t-225.5 81t-284 -115q-59 -53 -80.5 -108.5t-21.5 -151.5v-602h-78v1225h-147v67h147v170h78v-170h368v-67h-368v-389q158 213 409 213q170 0 259.5 -97.5t89.5 -285.5v-666h-78z" />
    <glyph glyph-name="Itilde" unicode="&#x128;" horiz-adv-x="425" 
d="M172 0v1462h82v-1462h-82zM547 1790q0 -88 -48 -140t-126 -52t-146 48q-67 50 -100 65t-77 15t-73 -32t-30 -92h-68q0 88 48 140t127 52t145 -49q67 -49 100 -65t77 -15q44 0 73 33t30 92h68z" />
    <glyph glyph-name="itilde" unicode="&#x129;" horiz-adv-x="372" 
d="M147 0v1051h78v-1051h-78zM512 1430q0 -88 -48 -140t-121 -53q-73 0 -148 53q-75 54 -101 66t-68 12t-71 -34t-29 -93h-65q0 88 48 140q48 53 120 53t147 -54q76 -54 102 -65q26 -12 68 -12q42 -1 72 33q29 34 28 94h66z" />
    <glyph glyph-name="Imacron" unicode="&#x12a;" horiz-adv-x="425" 
d="M172 0v1462h82v-1462h-82zM-68 1634v72h562v-72h-562z" />
    <glyph glyph-name="imacron" unicode="&#x12b;" horiz-adv-x="372" 
d="M147 0v1051h78v-1051h-78zM-57 1290v70h487v-70h-487z" />
    <glyph glyph-name="Ibreve" unicode="&#x12c;" horiz-adv-x="425" 
d="M172 0v1462h82v-1462h-82zM455 1825q1 -115 -63 -177t-179 -62t-178 62t-64 177h70q0 -84 46 -130t128 -46t127 46t45 130h68z" />
    <glyph glyph-name="ibreve" unicode="&#x12d;" horiz-adv-x="372" 
d="M147 0v1051h78v-1051h-78zM428 1460q0 -116 -63 -182t-179 -66t-178 66q-63 66 -63 182h67q0 -88 46 -137t130 -49t129 49t45 137h66z" />
    <glyph glyph-name="Iogonek" unicode="&#x12e;" horiz-adv-x="425" 
d="M121 -199q-1 -45 25 -65t60 -20t70 3v-67q-41 -4 -57 -4q-86 0 -131 37t-45 106q0 108 129 217v1454h82v-1462q-133 -101 -133 -199z" />
    <glyph glyph-name="iogonek" unicode="&#x12f;" horiz-adv-x="372" 
d="M145 1274v188h82v-188h-82zM147 1051h78v-1051q-129 -98 -129 -190q0 -86 107 -86q29 0 47 2v-64q-25 -4 -55 -4q-84 0 -129 36t-46 103q0 106 127 208v1046z" />
    <glyph glyph-name="Idotaccent" unicode="&#x130;" horiz-adv-x="425" 
d="M172 0v1462h82v-1462h-82zM170 1624v188h86v-188h-86z" />
    <glyph glyph-name="dotlessi" unicode="&#x131;" horiz-adv-x="372" 
d="M147 0v1051h78v-1051h-78z" />
    <glyph glyph-name="IJ" unicode="&#x132;" horiz-adv-x="1591" 
d="M172 0v1462h82v-1462h-82zM1348 1462h82v-995q0 -246 -118 -374t-336 -128t-342 112t-151 326h80q51 -365 410 -364q193 0 283 106t92 330v987z" />
    <glyph glyph-name="ij" unicode="&#x133;" horiz-adv-x="761" 
d="M145 1274v188h82v-188h-82zM147 0v1051h78v-1051h-78zM535 1274v188h81v-188h-81zM614 -53q0 -328 -228 -328q-110 0 -196 33l19 65q84 -29 156 -28q172 0 172 219v1143h77v-1104z" />
    <glyph glyph-name="Jcircumflex" unicode="&#x134;" horiz-adv-x="1165" 
d="M922 1462h82v-995q0 -246 -118 -374t-336 -128t-342 112t-151 326h80q51 -365 410 -364q193 0 283 106t92 330v987zM1145 1585l-182 195l-183 -195h-84l228 258h77l228 -258h-84z" />
    <glyph glyph-name="jcircumflex" unicode="&#x135;" horiz-adv-x="372" 
d="M225 -53q-1 -328 -229 -328q-110 0 -195 33l19 65q84 -29 155 -28q172 0 172 219v1143h78v-1104zM371 1204l-185 207l-184 -207h-82l230 266h75l228 -266h-82z" />
    <glyph glyph-name="uni0136" unicode="&#x136;" horiz-adv-x="1288" 
d="M254 0h-82v1462h82v-823l836 823h98l-547 -542l602 -920h-96l-565 866l-328 -321v-545zM514 -420l145 275h95l-162 -275h-78z" />
    <glyph glyph-name="uni0137" unicode="&#x137;" horiz-adv-x="991" 
d="M225 0h-78v1462h78v-956l602 545h99l-381 -349l430 -702h-90l-398 655l-262 -235v-420zM367 -428l149 283h92l-168 -283h-73z" />
    <glyph glyph-name="kgreenlandic" unicode="&#x138;" horiz-adv-x="991" 
d="M225 0h-78v1051h78v-596l606 596h95l-381 -377l430 -674h-90l-398 623l-262 -258v-365z" />
    <glyph glyph-name="Lacute" unicode="&#x139;" horiz-adv-x="1122" 
d="M172 0v1462h82v-1386h817l-18 -76h-881zM109 1585l229 258h104l-247 -258h-86z" />
    <glyph glyph-name="lacute" unicode="&#x13a;" horiz-adv-x="372" 
d="M147 0v1462h78v-1462h-78zM82 1585l229 258h105l-248 -258h-86z" />
    <glyph glyph-name="uni013B" unicode="&#x13b;" horiz-adv-x="1122" 
d="M172 0v1462h82v-1386h817l-18 -76h-881zM428 -420l145 275h95l-162 -275h-78z" />
    <glyph glyph-name="uni013C" unicode="&#x13c;" horiz-adv-x="372" 
d="M147 0v1462h78v-1462h-78zM-8 -428l149 283h92l-167 -283h-74z" />
    <glyph glyph-name="Lcaron" unicode="&#x13d;" horiz-adv-x="1122" 
d="M172 0v1462h82v-1386h817l-18 -76h-881zM686 1120l51 342h80l-67 -342h-64z" />
    <glyph glyph-name="lcaron" unicode="&#x13e;" horiz-adv-x="372" 
d="M147 0v1462h78v-1462h-78zM356 1120l52 342h79l-67 -342h-64z" />
    <glyph glyph-name="Ldot" unicode="&#x13f;" horiz-adv-x="1122" 
d="M172 0v1462h82v-1386h817l-18 -76h-881zM727 709v209h86v-209h-86z" />
    <glyph glyph-name="ldot" unicode="&#x140;" horiz-adv-x="538" 
d="M147 0v1462h78v-1462h-78zM410 668v209h86v-209h-86z" />
    <glyph glyph-name="Lslash" unicode="&#x141;" horiz-adv-x="1138" 
d="M188 0v551l-168 -121v86l168 121v825h82v-768l486 350v-86l-486 -350v-532h817l-18 -76h-881z" />
    <glyph glyph-name="lslash" unicode="&#x142;" horiz-adv-x="436" 
d="M178 0v729l-174 -129v80l174 129v653h78v-596l176 131v-79l-176 -132v-786h-78z" />
    <glyph glyph-name="Nacute" unicode="&#x143;" horiz-adv-x="1398" 
d="M254 0h-82v1462h94l879 -1341v1341h82v-1462h-94l-879 1339v-1339zM594 1585l229 258h105l-248 -258h-86z" />
    <glyph glyph-name="nacute" unicode="&#x144;" horiz-adv-x="1124" 
d="M905 0v682q0 168 -68 249q-69 81 -225 81t-284 -115q-59 -53 -81 -109t-22 -151v-637h-78v1051h78v-181q158 213 410 213q170 0 259 -97t89 -286v-700h-78zM463 1204l229 266h103l-248 -266h-84z" />
    <glyph glyph-name="uni0145" unicode="&#x145;" horiz-adv-x="1398" 
d="M254 0h-82v1462h94l879 -1341v1341h82v-1462h-94l-879 1339v-1339zM506 -420l145 275h94l-161 -275h-78z" />
    <glyph glyph-name="uni0146" unicode="&#x146;" horiz-adv-x="1124" 
d="M905 0v682q0 168 -68 249q-69 81 -225 81t-284 -115q-59 -53 -81 -109t-22 -151v-637h-78v1051h78v-181q158 213 410 213q170 0 259 -97t89 -286v-700h-78zM371 -428l149 283h92l-168 -283h-73z" />
    <glyph glyph-name="Ncaron" unicode="&#x147;" horiz-adv-x="1398" 
d="M254 0h-82v1462h94l879 -1341v1341h82v-1462h-94l-879 1339v-1339zM659 1585l-227 258h84l182 -194l183 194h84l-228 -258h-78z" />
    <glyph glyph-name="ncaron" unicode="&#x148;" horiz-adv-x="1124" 
d="M905 0v682q0 168 -68 249q-69 81 -225 81t-284 -115q-59 -53 -81 -109t-22 -151v-637h-78v1051h78v-181q158 213 410 213q170 0 259 -97t89 -286v-700h-78zM526 1204l-227 266h82l184 -206l185 206h81l-229 -266h-76z" />
    <glyph glyph-name="napostrophe" unicode="&#x149;" horiz-adv-x="1124" 
d="M905 0v682q0 168 -68 249q-69 81 -225 81t-284 -115q-59 -53 -81 -109t-22 -151v-637h-78v1051h78v-181q158 213 410 213q170 0 259 -97t89 -286v-700h-78zM-29 1085l64 388h90l-86 -388h-68z" />
    <glyph glyph-name="Eng" unicode="&#x14a;" horiz-adv-x="1398" 
d="M1227 0q0 -420 -432 -420q-170 0 -297 60l26 67q125 -53 287 -53q326 0 334 342l-891 1343v-1339h-82v1462h94l879 -1325v1325h82v-1462z" />
    <glyph glyph-name="eng" unicode="&#x14b;" horiz-adv-x="1124" 
d="M983 -53q1 -328 -229 -328q-110 0 -195 33l19 65q84 -29 155 -28q172 0 172 219v774q0 168 -68.5 249t-224.5 81t-284 -115q-59 -53 -81 -108.5t-22 -151.5v-637h-78v1051h78v-181q158 213 410 213q170 0 259 -97t89 -286v-753z" />
    <glyph glyph-name="Omacron" unicode="&#x14c;" horiz-adv-x="1525" 
d="M762 39q170 0 296 81q126 82 194 238t69 375q-1 324 -149 508t-408 184q-170 -1 -296 -81t-195 -237t-68 -376q1 -324 149 -508t408 -184zM762 -35q-297 0 -470 206t-173 560q0 229 77 403t222 269q145 96 346 96q297 0 470 -206t173 -560q0 -229 -77 -402t-222 -269
t-346 -97zM481 1634v72h561v-72h-561z" />
    <glyph glyph-name="omacron" unicode="&#x14d;" horiz-adv-x="1183" 
d="M592 37q193 0 298 128q105 127 105 361t-105 361t-298 127t-298 -127q-106 -127 -106 -361t106 -361q106 -128 298 -128zM590 -33q-225 1 -354 149t-130 408q0 168 59 294q58 126 168 196t261 69q225 0 354 -148t129 -411q0 -166 -58 -292q-57 -126 -167 -196t-262 -69z
M348 1290v70h488v-70h-488z" />
    <glyph glyph-name="Obreve" unicode="&#x14e;" horiz-adv-x="1525" 
d="M762 39q170 0 296 81q126 82 194 238t69 375q-1 324 -149 508t-408 184q-170 -1 -296 -81t-195 -237t-68 -376q1 -324 149 -508t408 -184zM762 -35q-297 0 -470 206t-173 560q0 229 77 403t222 269q145 96 346 96q297 0 470 -206t173 -560q0 -229 -77 -402t-222 -269
t-346 -97zM1004 1825q0 -115 -64 -177t-178 -62q-115 0 -178 62t-64 177h70q0 -84 46 -130t128 -46t127 46t45 130h68z" />
    <glyph glyph-name="obreve" unicode="&#x14f;" horiz-adv-x="1183" 
d="M592 37q193 0 298 128q105 127 105 361t-105 361t-298 127t-298 -127q-106 -127 -106 -361t106 -361q106 -128 298 -128zM590 -33q-225 1 -354 149t-130 408q0 168 59 294q58 126 168 196t261 69q225 0 354 -148t129 -411q0 -166 -58 -292q-57 -126 -167 -196t-262 -69z
M834 1460q0 -116 -64 -182t-178 -66q-115 0 -178 66t-64 182h68q0 -88 46 -137t130 -49t129 49t45 137h66z" />
    <glyph glyph-name="Ohungarumlaut" unicode="&#x150;" horiz-adv-x="1525" 
d="M762 39q170 0 296 81q126 82 194 238t69 375q-1 324 -149 508t-408 184q-170 -1 -296 -81t-195 -237t-68 -376q1 -324 149 -508t408 -184zM762 -35q-297 0 -470 206t-173 560q0 229 77 403t222 269q145 96 346 96q297 0 470 -206t173 -560q0 -229 -77 -402t-222 -269
t-346 -97zM872 1585l211 258h97l-228 -258h-80zM569 1585l211 258h97l-228 -258h-80z" />
    <glyph glyph-name="ohungarumlaut" unicode="&#x151;" horiz-adv-x="1183" 
d="M592 37q193 0 298 128q105 127 105 361t-105 361t-298 127t-298 -127q-106 -127 -106 -361t106 -361q106 -128 298 -128zM590 -33q-225 1 -354 149t-130 408q0 168 59 294q58 126 168 196t261 69q225 0 354 -148t129 -411q0 -166 -58 -292q-57 -126 -167 -196t-262 -69z
M696 1204l209 266h99l-228 -266h-80zM406 1204l208 266h99l-228 -266h-79z" />
    <glyph glyph-name="OE" unicode="&#x152;" horiz-adv-x="2220" 
d="M731 39q244 0 386.5 184.5t142.5 505.5q0 209 -62.5 365.5t-182.5 243.5t-282 87t-279.5 -81.5t-183 -239.5t-65.5 -371t61.5 -368.5t180 -240.5t284.5 -85zM735 1499q372 0 525 -385v348h849v-76h-770v-593h729v-76h-729v-641h797l-22 -76h-854v350q-152 -385 -527 -385
q-182 0 -321.5 91t-216 264.5t-76.5 405.5t73.5 405.5t214 270.5t328.5 97z" />
    <glyph glyph-name="oe" unicode="&#x153;" horiz-adv-x="1984" 
d="M1804 573q0 217 -89 329t-264 112t-274.5 -114t-111.5 -327h739zM585.5 37q190.5 0 294 127t103.5 360.5t-103.5 361.5t-292.5 128t-294 -128t-105 -361.5t103.5 -360.5t294 -127zM1454 -33q-341 0 -432 336q-51 -164 -162.5 -250t-277.5 -86q-221 0 -348.5 148.5
t-127.5 405.5t130.5 409.5t349.5 152.5q164 0 277.5 -86t158.5 -247q49 164 160.5 248.5t273.5 84.5q205 0 315.5 -136t110.5 -388v-53h-819q2 -225 104.5 -347t290.5 -122q131 0 216 58.5t112 166.5h74q-27 -137 -134.5 -216t-271.5 -79z" />
    <glyph glyph-name="Racute" unicode="&#x154;" horiz-adv-x="1263" 
d="M655 733q203 0 297 81t94 251t-94 247q-96 77 -309 77h-391v-656h403zM1130 1069q0 -304 -270 -383l318 -686h-93l-305 668q-47 -8 -121 -9h-407v-659h-80v1462h481q477 0 477 -393zM481 1585l230 258h104l-248 -258h-86z" />
    <glyph glyph-name="racute" unicode="&#x155;" horiz-adv-x="681" 
d="M147 0v1051h78v-183q133 199 346 199q35 0 78 -6l-10 -76q-39 6 -95 6q-56 -1 -124 -31q-66 -30 -114 -84t-64 -104q-16 -49 -17 -127v-645h-78zM297 1204l229 266h103l-248 -266h-84z" />
    <glyph glyph-name="Rcommaaccent" unicode="&#x156;" horiz-adv-x="1263" 
d="M655 733q203 0 297 81t94 251t-94 247q-96 77 -309 77h-391v-656h403zM1130 1069q0 -304 -270 -383l318 -686h-93l-305 668q-47 -8 -121 -9h-407v-659h-80v1462h481q477 0 477 -393zM481 -420l146 275h94l-162 -275h-78z" />
    <glyph glyph-name="rcommaaccent" unicode="&#x157;" horiz-adv-x="681" 
d="M147 0v1051h78v-183q133 199 346 199q35 0 78 -6l-10 -76q-39 6 -95 6q-56 -1 -124 -31q-66 -30 -114 -84t-64 -104q-16 -49 -17 -127v-645h-78zM-8 -428l149 283h92l-167 -283h-74z" />
    <glyph glyph-name="Rcaron" unicode="&#x158;" horiz-adv-x="1263" 
d="M655 733q203 0 297 81t94 251t-94 247q-96 77 -309 77h-391v-656h403zM1130 1069q0 -304 -270 -383l318 -686h-93l-305 668q-47 -8 -121 -9h-407v-659h-80v1462h481q477 0 477 -393zM547 1585l-228 258h84l183 -194l182 194h84l-227 -258h-78z" />
    <glyph glyph-name="rcaron" unicode="&#x159;" horiz-adv-x="681" 
d="M147 0v1051h78v-183q133 199 346 199q35 0 78 -6l-10 -76q-39 6 -95 6q-56 -1 -124 -31q-66 -30 -114 -84t-64 -104q-16 -49 -17 -127v-645h-78zM360 1204l-227 266h82l184 -206l185 206h82l-230 -266h-76z" />
    <glyph glyph-name="Sacute" unicode="&#x15a;" horiz-adv-x="1271" 
d="M1153 362q0 -184 -130 -290t-373 -106t-387 100q-144 102 -167 292h78q61 -319 475 -319q211 0 314 83q102 82 102 236t-82 232t-260 106l-170 27q-217 35 -319 127q-101 92 -101 268t130 278q131 102 357 103q226 0 346 -83t169 -263l-76 -20q-47 159 -145 227t-283 67
q-414 0 -416 -317q0 -133 81 -207t255 -100l184 -29q213 -33 315 -130q102 -98 103 -282zM530 1585l230 258h104l-248 -258h-86z" />
    <glyph glyph-name="sacute" unicode="&#x15b;" horiz-adv-x="1034" 
d="M526 37q320 1 320 223q0 108 -62 160t-209 76l-112 18q-180 30 -259 94t-79 193t101 206q102 77 276 77t269 -64q95 -63 130 -197l-70 -14q-39 115 -110 160q-72 45 -211 45q-309 0 -309 -217q0 -91 56 -137t198 -70l131 -23q182 -31 261 -99t79 -206t-102 -216t-296 -79
q-194 0 -306 81t-128 233h76q20 -125 108 -185q86 -60 248 -59zM410 1204l229 266h102l-247 -266h-84z" />
    <glyph glyph-name="Scircumflex" unicode="&#x15c;" horiz-adv-x="1271" 
d="M1153 362q0 -184 -130 -290t-373 -106t-387 100q-144 102 -167 292h78q61 -319 475 -319q211 0 314 83q102 82 102 236t-82 232t-260 106l-170 27q-217 35 -319 127q-101 92 -101 268t130 278q131 102 357 103q226 0 346 -83t169 -263l-76 -20q-47 159 -145 227t-283 67
q-414 0 -416 -317q0 -133 81 -207t255 -100l184 -29q213 -33 315 -130q102 -98 103 -282zM817 1585l-182 195l-182 -195h-84l227 258h78l227 -258h-84z" />
    <glyph glyph-name="scircumflex" unicode="&#x15d;" horiz-adv-x="1034" 
d="M526 37q320 1 320 223q0 108 -62 160t-209 76l-112 18q-180 30 -259 94t-79 193t101 206q102 77 276 77t269 -64q95 -63 130 -197l-70 -14q-39 115 -110 160q-72 45 -211 45q-309 0 -309 -217q0 -91 56 -137t198 -70l131 -23q182 -31 261 -99t79 -206t-102 -216t-296 -79
q-194 0 -306 81t-128 233h76q20 -125 108 -185q86 -60 248 -59zM696 1204l-184 207l-184 -207h-82l229 266h76l227 -266h-82z" />
    <glyph glyph-name="Scedilla" unicode="&#x15e;" horiz-adv-x="1271" 
d="M846 -274q0 -148 -214 -148q-100 0 -138 8v66q52 -8 124 -8t111 19t39 67t-43 66q-43 19 -143 20h-29l53 150q-212 10 -350 106t-160 286h78q61 -319 475 -319q211 0 314 83q102 82 102 236t-82 232t-260 106l-170 27q-217 35 -319 127q-101 92 -101 268t130 278
q131 102 357 103q226 0 346 -83t169 -263l-76 -20q-47 159 -145 227t-283 67q-414 0 -416 -317q0 -133 81 -207t255 -100l184 -29q213 -33 315 -130q102 -98 103 -282q0 -184 -127 -288t-353 -109l-34 -92q207 -12 207 -147z" />
    <glyph glyph-name="scedilla" unicode="&#x15f;" horiz-adv-x="1034" 
d="M526 37q320 1 320 223q0 108 -62 160t-209 76l-112 18q-180 30 -259 94t-79 193t101 206q102 77 276 77t269 -64q95 -63 130 -197l-70 -14q-39 115 -110 160q-72 45 -211 45q-309 0 -309 -217q0 -91 56 -137t198 -70l131 -23q182 -31 261 -99t79 -206t-102 -216t-294 -79
h-20l-25 -76q195 -12 195 -141q0 -141 -206 -141q-96 0 -136 8v64q166 -27 230 9q36 19 36 64q0 44 -39 64t-135 20h-27l46 133q-139 14 -227 77q-112 81 -128 233h76q20 -125 108 -185q86 -60 248 -59z" />
    <glyph glyph-name="Scaron" unicode="&#x160;" horiz-adv-x="1271" 
d="M1153 362q0 -184 -130 -290t-373 -106t-387 100q-144 102 -167 292h78q61 -319 475 -319q211 0 314 83q102 82 102 236t-82 232t-260 106l-170 27q-217 35 -319 127q-101 92 -101 268t130 278q131 102 357 103q226 0 346 -83t169 -263l-76 -20q-47 159 -145 227t-283 67
q-414 0 -416 -317q0 -133 81 -207t255 -100l184 -29q213 -33 315 -130q102 -98 103 -282zM596 1585l-227 258h84l182 -194l182 194h84l-227 -258h-78z" />
    <glyph glyph-name="scaron" unicode="&#x161;" horiz-adv-x="1034" 
d="M526 37q320 1 320 223q0 108 -62 160t-209 76l-112 18q-180 30 -259 94t-79 193t101 206q102 77 276 77t269 -64q95 -63 130 -197l-70 -14q-39 115 -110 160q-72 45 -211 45q-309 0 -309 -217q0 -91 56 -137t198 -70l131 -23q182 -31 261 -99t79 -206t-102 -216t-296 -79
q-194 0 -306 81t-128 233h76q20 -125 108 -185q86 -60 248 -59zM473 1204l-227 266h82l184 -206l184 206h82l-229 -266h-76z" />
    <glyph glyph-name="uni0162" unicode="&#x162;" horiz-adv-x="1183" 
d="M786 -274q0 -148 -214 -148q-100 0 -138 8v66q51 -8 124 -8t112 19t39 67t-43 66q-43 19 -144 20h-28l65 184h-8v1386h-514v76h1110v-76h-514v-1386h-6l-47 -127q206 -12 206 -147z" />
    <glyph glyph-name="uni0163" unicode="&#x163;" horiz-adv-x="661" 
d="M283 272q0 -225 181 -225q87 0 150 25l21 -62q-70 -33 -168 -33q-28 0 -53 4l-29 -90q195 -12 195 -141q0 -141 -206 -141q-96 0 -136 8v64q266 -44 266 73q0 44 -39 64t-135 20h-27l54 157q-152 55 -152 284v702h-162v70h162v290h78v-290h329v-70h-329v-709z" />
    <glyph glyph-name="Tcaron" unicode="&#x164;" horiz-adv-x="1183" 
d="M551 0v1386h-514v76h1110v-76h-514v-1386h-82zM553 1585l-227 258h84l182 -194l182 194h84l-227 -258h-78z" />
    <glyph glyph-name="tcaron" unicode="&#x165;" horiz-adv-x="661" 
d="M283 272q0 -225 181 -225q87 0 150 25l21 -62q-70 -33 -168 -33q-262 0 -262 302v702h-162v70h162v290h78v-290h329v-70h-329v-709zM449 1194l47 289h77l-59 -289h-65z" />
    <glyph glyph-name="Tbar" unicode="&#x166;" horiz-adv-x="1183" 
d="M551 0v696h-342v74h342v616h-514v76h1110v-76h-514v-616h342v-74h-342v-696h-82z" />
    <glyph glyph-name="tbar" unicode="&#x167;" horiz-adv-x="702" 
d="M467 -23q-262 0 -262 302v253h-162v70h162v379h-162v70h162v290h78v-290h329v-70h-329v-379h329v-70h-329v-260q0 -117 47 -172t131 -55t153 27l21 -62q-70 -33 -168 -33z" />
    <glyph glyph-name="Utilde" unicode="&#x168;" horiz-adv-x="1366" 
d="M1204 571q0 -606 -521 -606t-521 610v887h82v-895q0 -268 108 -398t332 -130q223 0 331 129t107 399v895h82v-891zM1016 1790q0 -88 -48 -140t-126 -52t-146 48q-67 50 -100 65t-77 15t-73 -32t-30 -92h-68q0 88 48 140t127 52t145 -49q67 -49 100 -65t77 -15q44 0 73 33
t30 92h68z" />
    <glyph glyph-name="utilde" unicode="&#x169;" horiz-adv-x="1101" 
d="M877 0v180q-152 -213 -398 -213q-166 -1 -252 97t-86 286v701h78v-682q0 -170 67 -250q66 -80 218 -80t274 115q55 53 77 108t22 152v637h77v-1051h-77zM872 1430q0 -88 -48 -140t-120 -53q-72 0 -148 53q-74 54 -100 66t-69 12t-72 -34t-28 -93h-66q0 88 48 140
q48 53 120 53t148 -54q75 -54 101 -65q26 -12 68 -12q42 -1 72 33q29 34 29 94h65z" />
    <glyph glyph-name="Umacron" unicode="&#x16a;" horiz-adv-x="1366" 
d="M1204 571q0 -606 -521 -606t-521 610v887h82v-895q0 -268 108 -398t332 -130q223 0 331 129t107 399v895h82v-891zM401 1634v72h562v-72h-562z" />
    <glyph glyph-name="umacron" unicode="&#x16b;" horiz-adv-x="1101" 
d="M877 0v180q-152 -213 -398 -213q-166 -1 -252 97t-86 286v701h78v-682q0 -170 67 -250q66 -80 218 -80t274 115q55 53 77 108t22 152v637h77v-1051h-77zM303 1290v70h488v-70h-488z" />
    <glyph glyph-name="Ubreve" unicode="&#x16c;" horiz-adv-x="1366" 
d="M1204 571q0 -606 -521 -606t-521 610v887h82v-895q0 -268 108 -398t332 -130q223 0 331 129t107 399v895h82v-891zM924 1825q0 -115 -64 -177t-178 -62q-115 0 -178 62t-64 177h70q0 -84 46 -130t128 -46t127 46t45 130h68z" />
    <glyph glyph-name="ubreve" unicode="&#x16d;" horiz-adv-x="1101" 
d="M877 0v180q-152 -213 -398 -213q-166 -1 -252 97t-86 286v701h78v-682q0 -170 67 -250q66 -80 218 -80t274 115q55 53 77 108t22 152v637h77v-1051h-77zM788 1460q0 -116 -63 -182t-178 -66t-178 66t-64 182h68q0 -88 46 -137t130 -49t129 49t45 137h65z" />
    <glyph glyph-name="Uring" unicode="&#x16e;" horiz-adv-x="1366" 
d="M1204 571q0 -606 -521 -606t-521 610v887h82v-895q0 -268 108 -398t332 -130q223 0 331 129t107 399v895h82v-891zM565 1688q0 -60 31 -92t86 -32t86 33q31 32 31 91t-30 92t-87 32q-117 0 -117 -124zM862 1689q0 -85 -49 -135t-131 -49q-82 0 -131 49q-49 48 -49 134
t49 135t131 49t131 -49t49 -134z" />
    <glyph glyph-name="uring" unicode="&#x16f;" horiz-adv-x="1101" 
d="M877 0v180q-152 -213 -398 -213q-166 -1 -252 97t-86 286v701h78v-682q0 -170 67 -250q66 -80 218 -80t274 115q55 53 77 108t22 152v637h77v-1051h-77zM664 1391q0 59 -31 92t-86 33t-86 -33t-31 -92t31 -93t86 -32q55 0 86 33t31 92zM727 1391q0 -83 -49 -133t-131 -50
t-131 49t-49 133t49 134q49 49 131 49t131 -49t49 -133z" />
    <glyph glyph-name="Uhungarumlaut" unicode="&#x170;" horiz-adv-x="1366" 
d="M1204 571q0 -606 -521 -606t-521 610v887h82v-895q0 -268 108 -398t332 -130q223 0 331 129t107 399v895h82v-891zM793 1585l211 258h96l-228 -258h-79zM489 1585l211 258h97l-228 -258h-80z" />
    <glyph glyph-name="uhungarumlaut" unicode="&#x171;" horiz-adv-x="1101" 
d="M877 0v180q-152 -213 -398 -213q-166 -1 -252 97t-86 286v701h78v-682q0 -170 67 -250q66 -80 218 -80t274 115q55 53 77 108t22 152v637h77v-1051h-77zM651 1204l209 266h98l-227 -266h-80zM360 1204l209 266h99l-228 -266h-80z" />
    <glyph glyph-name="Uogonek" unicode="&#x172;" horiz-adv-x="1366" 
d="M682 -35q-520 0 -520 610v887h82v-895q0 -268 108 -398t332 -130q223 0 331 129t107 399v895h82v-891q0 -468 -311 -574q-129 -100 -129 -196q0 -84 104 -86q14 0 52 4v-67q-41 -4 -58 -4q-86 0 -131 37t-45 100t26 107t62 78q-44 -5 -92 -5z" />
    <glyph glyph-name="uogonek" unicode="&#x173;" horiz-adv-x="1101" 
d="M750 -203q0 108 127 208v175q-152 -213 -398 -213q-166 -1 -252 97t-86 286v701h78v-682q0 -170 67 -250q66 -80 218 -80t274 115q55 53 77 108t22 152v637h77v-1051q-129 -98 -129 -190q0 -86 107 -86q29 0 47 2v-64q-25 -4 -55 -4q-84 0 -129 36t-45 103z" />
    <glyph glyph-name="Wcircumflex" unicode="&#x174;" horiz-adv-x="1816" 
d="M1276 0l-369 1352l-368 -1352h-90l-404 1462h88l361 -1356l374 1350h88l369 -1352l363 1358h84l-402 -1462h-94zM1090 1585l-183 195l-182 -195h-84l227 258h78l228 -258h-84z" />
    <glyph glyph-name="wcircumflex" unicode="&#x175;" horiz-adv-x="1419" 
d="M999 0l-290 961l-289 -961h-90l-307 1051h83l271 -965l293 958h86l291 -958l270 965h80l-307 -1051h-91zM893 1204l-184 207l-185 -207h-82l230 266h76l227 -266h-82z" />
    <glyph glyph-name="Ycircumflex" unicode="&#x176;" horiz-adv-x="1167" 
d="M547 0v633l-506 829h90l457 -755l452 755h86l-499 -827v-635h-80zM766 1585l-182 195l-183 -195h-84l228 258h78l227 -258h-84z" />
    <glyph glyph-name="ycircumflex" unicode="&#x177;" horiz-adv-x="985" 
d="M234 -397q-78 0 -148 22l18 66q53 -19 117 -19t106 40t83 143l63 157l-457 1039h86l412 -949l371 949h84l-494 -1231q-47 -119 -105 -168t-136 -49zM676 1204l-184 207l-185 -207h-82l230 266h75l228 -266h-82z" />
    <glyph glyph-name="Ydieresis" unicode="&#x178;" horiz-adv-x="1167" 
d="M547 0v633l-506 829h90l457 -755l452 755h86l-499 -827v-635h-80zM707 1624v188h86v-188h-86zM375 1624v188h86v-188h-86z" />
    <glyph glyph-name="Zacute" unicode="&#x179;" horiz-adv-x="1191" 
d="M80 0v68l921 1318h-905v76h1004v-67l-922 -1319h934l-18 -76h-1014zM494 1585l229 258h104l-247 -258h-86z" />
    <glyph glyph-name="zacute" unicode="&#x17a;" horiz-adv-x="909" 
d="M55 0v61l680 922h-665v68h759v-64l-679 -919h714l-16 -68h-793zM346 1204l229 266h103l-248 -266h-84z" />
    <glyph glyph-name="Zdotaccent" unicode="&#x17b;" horiz-adv-x="1191" 
d="M80 0v68l921 1318h-905v76h1004v-67l-922 -1319h934l-18 -76h-1014zM555 1624v188h86v-188h-86z" />
    <glyph glyph-name="zdotaccent" unicode="&#x17c;" horiz-adv-x="909" 
d="M55 0v61l680 922h-665v68h759v-64l-679 -919h714l-16 -68h-793zM408 1274v188h81v-188h-81z" />
    <glyph glyph-name="Zcaron" unicode="&#x17d;" horiz-adv-x="1191" 
d="M80 0v68l921 1318h-905v76h1004v-67l-922 -1319h934l-18 -76h-1014zM559 1585l-227 258h84l182 -194l182 194h84l-227 -258h-78z" />
    <glyph glyph-name="zcaron" unicode="&#x17e;" horiz-adv-x="909" 
d="M55 0v61l680 922h-665v68h759v-64l-679 -919h714l-16 -68h-793zM410 1204l-228 266h82l185 -206l184 206h82l-230 -266h-75z" />
    <glyph glyph-name="longs" unicode="&#x17f;" horiz-adv-x="376" 
d="M152 0v1178q0 139 78.5 220t211.5 81q66 0 144 -23l-17 -65q-76 18 -120 18q-106 0 -163 -58.5t-57 -170.5v-1180h-77z" />
    <glyph glyph-name="florin" unicode="&#x192;" horiz-adv-x="624" 
d="M283 -53q1 -328 -229 -328q-110 0 -195 33l18 65q84 -29 156 -28q172 0 172 219v1073h-162v70h162v127q0 139 78.5 220t212.5 81q66 0 143 -23l-16 -65q-76 18 -121 18q-106 0 -162.5 -58.5t-56.5 -170.5v-129h305v-70h-305v-1034z" />
    <glyph glyph-name="uni0218" unicode="&#x218;" horiz-adv-x="1271" 
d="M1153 362q0 -184 -130 -290t-373 -106t-387 100q-144 102 -167 292h78q61 -319 475 -319q211 0 314 83q102 82 102 236t-82 232t-260 106l-170 27q-217 35 -319 127q-101 92 -101 268t130 278q131 102 357 103q226 0 346 -83t169 -263l-76 -20q-47 159 -145 227t-283 67
q-414 0 -416 -317q0 -133 81 -207t255 -100l184 -29q213 -33 315 -130q102 -98 103 -282zM459 -420l145 275h94l-161 -275h-78z" />
    <glyph glyph-name="uni0219" unicode="&#x219;" horiz-adv-x="1034" 
d="M526 37q320 1 320 223q0 108 -62 160t-209 76l-112 18q-180 30 -259 94t-79 193t101 206q102 77 276 77t269 -64q95 -63 130 -197l-70 -14q-39 115 -110 160q-72 45 -211 45q-309 0 -309 -217q0 -91 56 -137t198 -70l131 -23q182 -31 261 -99t79 -206t-102 -216t-296 -79
q-194 0 -306 81t-128 233h76q20 -125 108 -185q86 -60 248 -59zM336 -428l149 283h93l-168 -283h-74z" />
    <glyph glyph-name="uni021A" unicode="&#x21a;" horiz-adv-x="1183" 
d="M551 0v1386h-514v76h1110v-76h-514v-1386h-82zM399 -420l146 275h94l-162 -275h-78z" />
    <glyph glyph-name="uni021B" unicode="&#x21b;" horiz-adv-x="661" 
d="M283 272q0 -225 181 -225q87 0 150 25l21 -62q-70 -33 -168 -33q-262 0 -262 302v702h-162v70h162v290h78v-290h329v-70h-329v-709zM236 -428l149 283h92l-168 -283h-73z" />
    <glyph glyph-name="uni0237" unicode="&#x237;" horiz-adv-x="372" 
d="M225 -53q0 -328 -229 -328q-110 0 -195 33l19 65q84 -29 155 -28q172 0 172 219v1143h78v-1104z" />
    <glyph glyph-name="uni02BC" unicode="&#x2bc;" horiz-adv-x="1124" 
d="M485 1085l64 388h90l-86 -388h-68z" />
    <glyph glyph-name="circumflex" unicode="&#x2c6;" horiz-adv-x="1124" 
d="M745 1204l-184 207l-184 -207h-82l229 266h76l227 -266h-82z" />
    <glyph glyph-name="caron" unicode="&#x2c7;" horiz-adv-x="1124" 
d="M522 1204l-227 266h82l184 -206l184 206h82l-229 -266h-76z" />
    <glyph glyph-name="uni02C9" unicode="&#x2c9;" horiz-adv-x="1124" 
d="M317 1290v70h488v-70h-488z" />
    <glyph glyph-name="uni02CB" unicode="&#x2cb;" horiz-adv-x="1124" 
d="M643 1204l-248 266h103l229 -266h-84z" />
    <glyph glyph-name="breve" unicode="&#x2d8;" horiz-adv-x="1124" 
d="M803 1460q1 -116 -63 -182t-179 -66t-178 66t-64 182h68q0 -88 46 -137t130 -49t129 49t45 137h66z" />
    <glyph glyph-name="dotaccent" unicode="&#x2d9;" horiz-adv-x="1124" 
d="M520 1274v188h82v-188h-82z" />
    <glyph glyph-name="ring" unicode="&#x2da;" horiz-adv-x="1124" 
d="M678 1391q0 59 -31 92t-86 33t-86 -33t-31 -92t31 -93t86 -32q55 0 86 33t31 92zM741 1391q0 -83 -49 -133t-131 -50t-131 49t-49 133t49 134q49 49 131 49t131 -49t49 -133z" />
    <glyph glyph-name="ogonek" unicode="&#x2db;" horiz-adv-x="1124" 
d="M522 -190q0 -86 107 -86q29 0 47 2v-64q-25 -4 -55 -4q-84 0 -129 36t-46 103q0 107 129 209l76 -6q-129 -98 -129 -190z" />
    <glyph glyph-name="tilde" unicode="&#x2dc;" horiz-adv-x="1124" 
d="M887 1430q0 -88 -48 -140t-121 -53q-73 0 -148 53q-74 54 -100 66t-68 12t-72 -34q-29 -34 -29 -93h-65q0 88 48 140q48 53 120 53t147 -54t101 -65q26 -12 69 -12q43 -1 72 33t28 94h66z" />
    <glyph glyph-name="hungarumlaut" unicode="&#x2dd;" horiz-adv-x="1124" 
d="M553 1204l209 266h98l-227 -266h-80zM262 1204l209 266h98l-227 -266h-80z" />
    <glyph glyph-name="gravecomb" unicode="&#x300;" horiz-adv-x="0" 
d="M20 1204l-247 266h102l229 -266h-84z" />
    <glyph glyph-name="acutecomb" unicode="&#x301;" horiz-adv-x="0" 
d="M-102 1204l229 266h102l-247 -266h-84z" />
    <glyph glyph-name="uni0302" unicode="&#x302;" horiz-adv-x="0" 
d="M184 1204l-184 207l-184 -207h-82l229 266h76l227 -266h-82z" />
    <glyph glyph-name="tildecomb" unicode="&#x303;" horiz-adv-x="0" 
d="M326 1430q0 -88 -48.5 -140.5t-119.5 -52.5t-148 53q-76 53 -101.5 65.5t-68.5 12.5t-71.5 -34t-28.5 -93h-66q0 88 48.5 140.5t120.5 52.5t147 -54q76 -54 101.5 -65.5t68.5 -11.5t71.5 33.5t28.5 93.5h66z" />
    <glyph glyph-name="uni0304" unicode="&#x304;" horiz-adv-x="0" 
d="M-244 1290v70h488v-70h-488z" />
    <glyph glyph-name="uni0306" unicode="&#x306;" horiz-adv-x="0" 
d="M242 1460q0 -117 -63.5 -182.5t-178.5 -65.5t-178.5 65.5t-63.5 182.5h68q0 -88 46 -137t130 -49t129 49t45 137h66z" />
    <glyph glyph-name="uni0307" unicode="&#x307;" horiz-adv-x="0" 
d="M-41 1274v188h82v-188h-82z" />
    <glyph glyph-name="uni0308" unicode="&#x308;" horiz-adv-x="0" 
d="M117 1274v188h82v-188h-82zM-197 1274v188h82v-188h-82z" />
    <glyph glyph-name="uni030A" unicode="&#x30a;" horiz-adv-x="0" 
d="M117 1390.5q0 59.5 -31 92.5t-86 33t-86 -33t-31 -92.5t31 -92t86 -32.5t86 32.5t31 92zM180 1391q0 -84 -49 -133.5t-131 -49.5t-131 49.5t-49 133.5t49 133t131 49t131 -49t49 -133z" />
    <glyph glyph-name="uni030B" unicode="&#x30b;" horiz-adv-x="0" 
d="M104 1204l209 266h99l-228 -266h-80zM-186 1204l209 266h98l-227 -266h-80z" />
    <glyph glyph-name="uni030C" unicode="&#x30c;" horiz-adv-x="0" 
d="M-39 1204l-227 266h82l184 -206l184 206h82l-229 -266h-76z" />
    <glyph glyph-name="uni0312" unicode="&#x312;" horiz-adv-x="0" 
d="M-51 1196l162 277h75l-145 -277h-92z" />
    <glyph glyph-name="uni0315" unicode="&#x315;" horiz-adv-x="0" 
d="M-31 1120l51 342h80l-67 -342h-64z" />
    <glyph glyph-name="uni0326" unicode="&#x326;" horiz-adv-x="0" 
d="M-195 -428l150 283h92l-168 -283h-74z" />
    <glyph glyph-name="uni0327" unicode="&#x327;" horiz-adv-x="0" 
d="M150 -250q0 -141 -206 -141q-96 0 -137 8v64q267 -44 267 37t-39 100.5t-135 19.5h-27l57 168l60 -6l-35 -109q195 -12 195 -141z" />
    <glyph glyph-name="uni0328" unicode="&#x328;" horiz-adv-x="0" 
d="M-166 -203q0 107 129 209l76 -6q-129 -98 -129 -190q0 -86 106 -86q29 0 47 2v-64q-25 -4 -55 -4q-84 0 -129 36t-45 103z" />
    <glyph glyph-name="uni0394" unicode="&#x394;" horiz-adv-x="1304" 
d="M649 1376l-497 -1300h997zM41 0l565 1462h90l568 -1462h-1223z" />
    <glyph glyph-name="uni03A9" unicode="&#x3a9;" horiz-adv-x="1497" 
d="M909 0v61q186 125 274 296q87 171 87 409q0 313 -137 486t-387 173t-388 -174q-139 -174 -139 -483q0 -238 87 -409t274 -298v-61h-498v74h373q-322 246 -322 698q0 215 74 379t213 256q138 92 324 92t323 -86t213 -250t76 -387q0 -453 -324 -702h383l-18 -74h-488z" />
    <glyph glyph-name="uni03BC" unicode="&#x3bc;" horiz-adv-x="1107" 
d="M883 0v180q-154 -213 -394 -213q-190 0 -264 135v-499h-78v1448h78v-682q0 -170 67 -250q66 -80 218 -80t274 115q55 53 77 108t22 152v637h78v-1051h-78z" />
    <glyph glyph-name="pi" unicode="&#x3c0;" horiz-adv-x="1148" 
d="M813 242v739h-487v-981h-78v981h-205v70h1063v-70h-215v-737q0 -102 32.5 -149.5t88.5 -47.5t82 8l10 -63q-33 -14 -94 -15q-96 0 -146.5 67t-50.5 198z" />
    <glyph glyph-name="Wgrave" unicode="&#x1e80;" horiz-adv-x="1816" 
d="M1276 0l-369 1352l-368 -1352h-90l-404 1462h88l361 -1356l374 1350h88l369 -1352l363 1358h84l-402 -1462h-94zM926 1585l-248 258h104l230 -258h-86z" />
    <glyph glyph-name="wgrave" unicode="&#x1e81;" horiz-adv-x="1419" 
d="M999 0l-290 961l-289 -961h-90l-307 1051h83l271 -965l293 958h86l291 -958l270 965h80l-307 -1051h-91zM729 1204l-248 266h103l229 -266h-84z" />
    <glyph glyph-name="Wacute" unicode="&#x1e82;" horiz-adv-x="1816" 
d="M1276 0l-369 1352l-368 -1352h-90l-404 1462h88l361 -1356l374 1350h88l369 -1352l363 1358h84l-402 -1462h-94zM803 1585l229 258h105l-248 -258h-86z" />
    <glyph glyph-name="wacute" unicode="&#x1e83;" horiz-adv-x="1419" 
d="M999 0l-290 961l-289 -961h-90l-307 1051h83l271 -965l293 958h86l291 -958l270 965h80l-307 -1051h-91zM606 1204l230 266h102l-248 -266h-84z" />
    <glyph glyph-name="Wdieresis" unicode="&#x1e84;" horiz-adv-x="1816" 
d="M1276 0l-369 1352l-368 -1352h-90l-404 1462h88l361 -1356l374 1350h88l369 -1352l363 1358h84l-402 -1462h-94zM1030 1624v188h86v-188h-86zM698 1624v188h86v-188h-86z" />
    <glyph glyph-name="wdieresis" unicode="&#x1e85;" horiz-adv-x="1419" 
d="M999 0l-290 961l-289 -961h-90l-307 1051h83l271 -965l293 958h86l291 -958l270 965h80l-307 -1051h-91zM825 1274v188h82v-188h-82zM512 1274v188h82v-188h-82z" />
    <glyph glyph-name="uni1E9E" unicode="&#x1e9e;" horiz-adv-x="1540" 
d="M1354 348q0 134 -75 198t-257 101l-51 10q-176 35 -257 101.5t-81 174.5t87 208t304 245h-393q-203 0 -300.5 -103t-97.5 -320v-963h-81v963q0 246 120.5 372.5t358.5 126.5h506v-76l-35 -24q-170 -121 -249 -190.5t-108.5 -123.5t-29.5 -124t63.5 -115t222.5 -78l52 -10
q207 -41 298 -125t91 -248t-125 -273.5t-327 -109.5t-315.5 100.5t-133.5 292.5h77q40 -319 369 -319q168 0 267.5 87.5t99.5 221.5z" />
    <glyph glyph-name="Ygrave" unicode="&#x1ef2;" horiz-adv-x="1167" 
d="M547 0v633l-506 829h90l457 -755l452 755h86l-499 -827v-635h-80zM602 1585l-248 258h105l229 -258h-86z" />
    <glyph glyph-name="ygrave" unicode="&#x1ef3;" horiz-adv-x="985" 
d="M234 -397q-78 0 -148 22l18 66q53 -19 117 -19t106 40t83 143l63 157l-457 1039h86l412 -949l371 949h84l-494 -1231q-47 -119 -105 -168t-136 -49zM512 1204l-248 266h103l229 -266h-84z" />
    <glyph glyph-name="uni2000" unicode="&#x2000;" horiz-adv-x="1024" 
 />
    <glyph glyph-name="uni2001" unicode="&#x2001;" horiz-adv-x="2048" 
 />
    <glyph glyph-name="uni2002" unicode="&#x2002;" horiz-adv-x="1024" 
 />
    <glyph glyph-name="uni2003" unicode="&#x2003;" horiz-adv-x="2048" 
 />
    <glyph glyph-name="uni2004" unicode="&#x2004;" horiz-adv-x="681" 
 />
    <glyph glyph-name="uni2005" unicode="&#x2005;" horiz-adv-x="512" 
 />
    <glyph glyph-name="uni2006" unicode="&#x2006;" horiz-adv-x="339" 
 />
    <glyph glyph-name="uni2007" unicode="&#x2007;" horiz-adv-x="1212" 
 />
    <glyph glyph-name="uni2008" unicode="&#x2008;" horiz-adv-x="366" 
 />
    <glyph glyph-name="uni2009" unicode="&#x2009;" horiz-adv-x="409" 
 />
    <glyph glyph-name="uni200A" unicode="&#x200a;" horiz-adv-x="102" 
 />
    <glyph glyph-name="uni200B" unicode="&#x200b;" horiz-adv-x="0" 
 />
    <glyph glyph-name="uni2010" unicode="&#x2010;" horiz-adv-x="796" 
d="M102 551v78h592v-78h-592z" />
    <glyph glyph-name="uni2012" unicode="&#x2012;" horiz-adv-x="1212" 
d="M94 664v77h1024v-77h-1024z" />
    <glyph glyph-name="endash" unicode="&#x2013;" horiz-adv-x="1024" 
d="M0 551v78h1024v-78h-1024z" />
    <glyph glyph-name="emdash" unicode="&#x2014;" horiz-adv-x="2048" 
d="M0 551v78h2048v-78h-2048z" />
    <glyph glyph-name="uni2015" unicode="&#x2015;" horiz-adv-x="2048" 
d="M0 551v78h2048v-78h-2048z" />
    <glyph glyph-name="quoteleft" unicode="&#x2018;" horiz-adv-x="366" 
d="M111 1075l86 387h67l-63 -387h-90z" />
    <glyph glyph-name="quoteright" unicode="&#x2019;" horiz-adv-x="366" 
d="M102 1075l64 387h90l-86 -387h-68z" />
    <glyph glyph-name="quotesinglbase" unicode="&#x201a;" horiz-adv-x="366" 
d="M102 -178l64 387h90l-86 -387h-68z" />
    <glyph glyph-name="quotedblleft" unicode="&#x201c;" horiz-adv-x="618" 
d="M111 1075l86 387h67l-63 -387h-90zM362 1075l87 387h67l-63 -387h-91z" />
    <glyph glyph-name="quotedblright" unicode="&#x201d;" horiz-adv-x="618" 
d="M102 1085l64 388h90l-86 -388h-68zM354 1085l64 388h90l-86 -388h-68z" />
    <glyph glyph-name="quotedblbase" unicode="&#x201e;" horiz-adv-x="618" 
d="M102 -178l64 387h90l-86 -387h-68zM354 -178l64 387h90l-86 -387h-68z" />
    <glyph glyph-name="dagger" unicode="&#x2020;" horiz-adv-x="927" 
d="M426 -178v1149h-379v67h379v424h78v-424h377v-67h-377v-1149h-78z" />
    <glyph glyph-name="daggerdbl" unicode="&#x2021;" horiz-adv-x="927" 
d="M426 -178v446h-379v70h379v633h-379v67h379v424h78v-424h377v-67h-377v-633h377v-70h-377v-446h-78z" />
    <glyph glyph-name="bullet" unicode="&#x2022;" horiz-adv-x="632" 
d="M547 747.5q0 -98.5 -64.5 -164t-165 -65.5t-166 64t-65.5 164t65.5 164.5t164.5 64.5t165 -64.5t66 -163z" />
    <glyph glyph-name="ellipsis" unicode="&#x2026;" horiz-adv-x="1478" 
d="M139 0v209h86v-209h-86zM696 0v209h86v-209h-86zM1251 0v209h86v-209h-86z" />
    <glyph glyph-name="perthousand" unicode="&#x2030;" horiz-adv-x="2590" 
d="M487 0l725 1415h82l-725 -1415h-82zM1360 25q126 0 192 94t66 274q0 181 -67 275t-191 94t-192 -94q-66 -94 -66 -274t66 -275q66 -94 192 -94zM1696 392q0 -208 -87 -322t-248 -113q-161 0 -249 115q-88 116 -88 322t88 321t248 115t248 -116q88 -114 88 -322zM2171 25
q125 0 191 94t67 274q0 181 -67 275q-68 94 -192 94t-191 -94t-67 -274t68 -275q66 -94 191 -94zM2507 392q0 -208 -87 -322t-248 -113q-161 0 -249 115q-88 116 -88 322t88 321t248 115t248 -116q88 -114 88 -322zM422 643q126 0 192 94q66 95 66 275t-67 274t-191 94
t-192 -94q-66 -94 -66 -274t66 -275q67 -94 192 -94zM423 575q-161 0 -249 115t-88 322q0 208 88 322t248 114t248 -115t88 -323t-87 -321q-87 -114 -248 -114z" />
    <glyph glyph-name="minute" unicode="&#x2032;" horiz-adv-x="348" 
d="M90 967l78 495h90l-100 -495h-68z" />
    <glyph glyph-name="second" unicode="&#x2033;" horiz-adv-x="669" 
d="M90 967l78 495h90l-100 -495h-68zM412 967l77 495h91l-101 -495h-67z" />
    <glyph glyph-name="guilsinglleft" unicode="&#x2039;" horiz-adv-x="550" 
d="M385 70l-295 454l295 455h78l-285 -455l285 -454h-78z" />
    <glyph glyph-name="guilsinglright" unicode="&#x203a;" horiz-adv-x="550" 
d="M88 70l285 454l-285 455h78l295 -455l-295 -454h-78z" />
    <glyph glyph-name="fraction" unicode="&#x2044;" horiz-adv-x="118" 
d="M-344 0l725 1415h82l-725 -1415h-82z" />
    <glyph glyph-name="uni2070" unicode="&#x2070;" 
d="M422 643q126 0 192 94q66 95 66 275t-67 274t-191 94t-192 -94q-66 -94 -66 -274t66 -275q67 -94 192 -94zM423 575q-161 0 -249 115t-88 322q0 208 88 322t248 114t248 -115t88 -323t-87 -321q-87 -114 -248 -114z" />
    <glyph glyph-name="uni2074" unicode="&#x2074;" 
d="M535 885v442l-342 -442h342zM535 602v221h-422v51l424 547h67v-536h105l-17 -62h-88v-221h-69z" />
    <glyph glyph-name="uni2075" unicode="&#x2075;" 
d="M428 637q201 0 201 212t-197 212q-133 0 -207 -82h-59l37 442h442v-65h-383l-24 -299q76 65 202 65t193 -70t67 -201q0 -132 -70 -204t-197 -72q-127 -1 -197 57t-82 165h65q29 -160 209 -160z" />
    <glyph glyph-name="uni2076" unicode="&#x2076;" 
d="M647 852q0 100 -51 156t-149 55q-99 0 -159 -53q-60 -54 -60 -150t54 -158q56 -62 154 -63q98 0 155 57q56 56 56 156zM455 1124q127 0 197 -72t69 -199q0 -126 -78 -202t-209 -76q-289 0 -289 408q0 225 82 344t234 119q96 0 157 -47t80 -137l-63 -15q-35 139 -176 137
q-121 0 -181 -95t-65 -290q72 125 242 125z" />
    <glyph glyph-name="uni2077" unicode="&#x2077;" 
d="M131 1352v67h567v-57q-215 -377 -313 -760h-78q111 387 311 750h-487z" />
    <glyph glyph-name="uni2078" unicode="&#x2078;" 
d="M422 1047q94 0 146 44t53 125q-1 82 -53 126t-146 44t-146 -45t-53 -125q0 -80 52 -125q53 -44 147 -44zM647 813q0 84 -58 128t-167 44t-167 -44t-58 -129t58 -130t167 -45t167 46t58 130zM721 813q0 -113 -78 -175t-219 -62t-221 62t-80 175q0 74 44 128t122 77
q-63 20 -101 74t-36 127q0 106 73 167q74 62 199 62t197 -62t71 -167q0 -72 -36 -124t-103 -75q80 -20 124 -74t44 -133z" />
    <glyph glyph-name="uni2079" unicode="&#x2079;" 
d="M618 1160q0 95 -55 160q-55 64 -153 64t-154 -58t-57 -158q0 -100 51 -155t149 -55q99 0 159 54t60 148zM397 637q125 0 178 93t54 296q-68 -129 -236 -129q-127 0 -197 72q-70 71 -69 199q0 128 77 203t217 75t209 -100q68 -100 68 -324q-1 -447 -303 -447
q-111 1 -177 55t-77 150h68q25 -143 188 -143z" />
    <glyph glyph-name="uni2080" unicode="&#x2080;" 
d="M422 41q125 0 191.5 94t66.5 274.5t-66.5 274.5t-191.5 94t-191.5 -94t-66.5 -274.5t66.5 -274.5t191.5 -94zM423 -27q-161 0 -249 115t-88 321.5t88 321.5t248 115t248 -115t88 -323t-87 -321.5t-248 -113.5z" />
    <glyph glyph-name="uni2081" unicode="&#x2081;" 
d="M426 0v739l-219 -110l-31 59l248 131h78v-819h-76z" />
    <glyph glyph-name="uni2082" unicode="&#x2082;" 
d="M143 2v59q86 76 203 170q158 133 212 208t54 162t-48 133t-138 46q-168 0 -215 -168l-68 13q59 221 283 221q123 0 192.5 -64t69.5 -170t-61.5 -194t-227.5 -228l-143 -120h438l-16 -68h-535z" />
    <glyph glyph-name="uni2083" unicode="&#x2083;" 
d="M412 35q204 0 204 184q0 84 -46 131t-128 47h-120v60h112q78 0 122 45t44 122.5t-48 118.5t-137 41t-141.5 -38.5t-76.5 -122.5l-66 12q51 211 285 211q121 0 188.5 -57.5t67.5 -161.5q0 -137 -121 -193q139 -51 139 -215q0 -117 -72.5 -181.5t-203.5 -64.5t-210 64.5
t-83 177.5h65q22 -180 226 -180z" />
    <glyph glyph-name="uni2084" unicode="&#x2084;" 
d="M535 283v442l-342 -442h342zM535 0v221h-422v51l424 547h67v-536h105l-17 -62h-88v-221h-69z" />
    <glyph glyph-name="uni2085" unicode="&#x2085;" 
d="M629 247q0 212 -197 212q-133 0 -207 -82h-59l37 442h442v-65h-383l-24 -299q76 65 202 65t193 -69.5t67 -201.5t-70.5 -204t-196.5 -72t-196.5 57.5t-82.5 164.5h65q29 -160 209 -160q201 0 201 212z" />
    <glyph glyph-name="uni2086" unicode="&#x2086;" 
d="M436 37q98 0 154.5 57.5t56.5 156.5t-51 154.5t-149 55.5t-159 -53.5t-61 -149.5t55.5 -158.5t153.5 -62.5zM459 782q-238 0 -246 -385q72 125 242 125q127 0 196.5 -72.5t69.5 -198.5t-78 -202t-209 -76q-289 0 -289 408q0 225 82 344t234 119q96 0 157.5 -47t79.5 -138
l-63 -14q-34 137 -176 137z" />
    <glyph glyph-name="uni2087" unicode="&#x2087;" 
d="M131 750v67h567v-57q-215 -377 -313 -760h-78q111 387 311 750h-487z" />
    <glyph glyph-name="uni2088" unicode="&#x2088;" 
d="M621 613q0 81 -52.5 126t-146.5 45t-146.5 -45t-52.5 -126t52.5 -125t146.5 -44t146.5 44t52.5 125zM647 211q0 84 -58.5 128t-167 44t-166.5 -44t-58 -129t58 -130t166.5 -45t167 46t58.5 130zM721 211q0 -113 -78 -175.5t-219 -62.5t-221 62.5t-80 175.5q0 74 44 128
t122 77q-63 20 -100 73.5t-37 126.5q0 106 73.5 168t198.5 62t196.5 -61.5t71.5 -168.5q0 -72 -36.5 -123.5t-102.5 -74.5q80 -20 124 -74.5t44 -132.5z" />
    <glyph glyph-name="uni2089" unicode="&#x2089;" 
d="M618 558q0 95 -55 159.5t-153 64.5t-154.5 -58t-56.5 -158t51 -155t149 -55t158.5 53.5t60.5 148.5zM397 35q125 0 178.5 93t53.5 296q-68 -129 -236 -129q-127 0 -196.5 71.5t-69.5 199.5t77 203t217 75t208.5 -100.5t68.5 -323.5q0 -447 -303 -447q-111 0 -177 54.5
t-77 150.5h68q25 -143 188 -143z" />
    <glyph glyph-name="Euro" unicode="&#x20ac;" horiz-adv-x="1212" 
d="M694 33q320 0 381 364h74q-27 -211 -144.5 -322.5t-324.5 -111.5t-336 138.5t-162 408.5h-145l18 70h121q-2 24 -2 110t8 152h-145l18 69h135q41 264 171.5 403.5t319.5 139.5q370 0 447 -371l-73 -16q-70 315 -357 315q-360 0 -430 -471h584l-18 -69h-574
q-6 -118 -6 -176t2 -86h535l-19 -70h-508q55 -477 430 -477z" />
    <glyph glyph-name="uni20B9" unicode="&#x20b9;" horiz-adv-x="1212" 
d="M225 674h224q358 0 378 301h-602v69h604q-8 156 -101 229t-282 73h-221v69h879l-14 -69h-345q74 -41 116 -120t46 -182h140l-17 -69h-125q-12 -180 -129 -274.5t-325 -94.5h-111l707 -606h-115l-707 606v68z" />
    <glyph glyph-name="uni20BA" unicode="&#x20ba;" horiz-adv-x="1212" 
d="M451 0h-172v547l-148 -68l-27 58l175 79v256l-148 -67l-27 57l175 80v473h77v-438l432 199l27 -58l-459 -211v-256l432 199l27 -57l-459 -211v-508h99q477 0 528 493h74q-23 -274 -178.5 -420.5t-427.5 -146.5z" />
    <glyph glyph-name="afii61289" unicode="&#x2113;" horiz-adv-x="647" 
d="M276 1223v-574q106 125 165 276.5t59 297.5q0 195 -107 194q-117 0 -117 -194zM276 199q0 -166 134 -166q78 0 143 78l37 -41q-76 -102 -180 -102q-206 -1 -205 222v297l-107 -118l-41 41l148 168v636q0 127 51 198t143 71q168 0 168 -254q0 -346 -291 -678v-352z" />
    <glyph glyph-name="trademark" unicode="&#x2122;" horiz-adv-x="1810" 
d="M1583 643v715l-319 -715h-60l-317 715v-715h-66v819h88l326 -741l326 741h88v-819h-66zM326 643v754h-289v65h649v-65h-289v-754h-71z" />
    <glyph glyph-name="uni2126" unicode="&#x2126;" horiz-adv-x="1497" 
d="M909 0v61q186 125 273.5 296t87.5 409q0 313 -137.5 486t-386.5 173t-388 -174t-139 -483q0 -238 87 -409t274 -298v-61h-498v74h373q-322 246 -322 698q0 215 74 379t212.5 256t324.5 92t323 -86t213 -250t76 -387q0 -453 -324 -702h383l-18 -74h-488z" />
    <glyph glyph-name="estimated" unicode="&#x212e;" horiz-adv-x="1865" 
d="M1456 1163q0 29 -18 49q-102 102 -232.5 156.5t-270.5 54.5q-288 0 -507 -219q-20 -14 -20 -49v-399q0 -14 10 -15h1030q8 0 8 15v407zM920 -23q-208 0 -396 95.5t-305 266.5t-117 374t105.5 372.5t297 276t417.5 106.5t415 -95t307.5 -268t118.5 -384v-21h-1345
q-10 0 -10 -8v-407q0 -27 18 -45q204 -222 513 -222q310 0 529 246h119q-111 -135 -285 -211t-382 -76z" />
    <glyph glyph-name="oneseventh" unicode="&#x2150;" horiz-adv-x="1816" 
d="M369 0l725 1415h82l-725 -1415h-82zM1100 745v68h567v-57q-215 -377 -313 -760h-78q111 389 311 749h-487zM340 602v739l-219 -110l-31 59l248 131h78v-819h-76z" />
    <glyph glyph-name="oneninth" unicode="&#x2151;" horiz-adv-x="1816" 
d="M401 0l725 1415h82l-725 -1415h-82zM1599 554q0 95 -55 160q-55 64 -153 64q-99 0 -155 -58t-56 -158t51 -155t149 -55t158 54t61 148zM1378 31q125 0 178 93t54 296q-68 -129 -236 -129q-126 -1 -196 71t-70 200t77 203t217 75t209 -100t69 -324q-1 -447 -304 -447
q-112 1 -178 55t-76 150h68q25 -143 188 -143zM340 602v739l-219 -110l-31 59l248 131h78v-819h-76z" />
    <glyph glyph-name="onethird" unicode="&#x2153;" horiz-adv-x="1816" 
d="M387 0l725 1415h82l-725 -1415h-82zM1380 31q204 0 203 184q0 84 -46 131t-128 47h-121v60h113q78 0 122 45t44 123q0 159 -187 159q-88 0 -140 -39t-77 -123l-65 13q51 211 284 211q121 0 189 -58t67 -161q0 -137 -120 -193q139 -51 139 -215q0 -117 -73 -181t-204 -65
q-131 0 -210 65t-83 177h66q23 -180 227 -180zM340 602v739l-219 -110l-31 59l248 131h78v-819h-76z" />
    <glyph glyph-name="twothirds" unicode="&#x2154;" horiz-adv-x="1816" 
d="M520 0l725 1415h82l-725 -1415h-82zM1380 31q204 0 203 184q0 84 -46 131t-128 47h-121v60h113q78 0 122 45t44 123q0 159 -187 159q-88 0 -140 -39t-77 -123l-65 13q51 211 284 211q121 0 189 -58t67 -161q0 -137 -120 -193q139 -51 139 -215q0 -117 -73 -181t-204 -65
q-131 0 -210 65t-83 177h66q23 -180 227 -180zM143 604v60q86 76 203 170q158 134 212 208t54 161t-48 133t-138 46q-168 0 -215 -168l-68 13q59 221 283 221q122 0 192 -65t70 -170t-61 -193t-228 -227l-143 -121h438l-16 -68h-535z" />
    <glyph glyph-name="onefifth" unicode="&#x2155;" horiz-adv-x="1816" 
d="M391 0l725 1415h82l-725 -1415h-82zM1595 243q0 212 -196 212q-133 0 -207 -82h-59l36 442h443v-65h-383l-25 -299q76 65 202 65t194 -70t67 -202q0 -132 -71 -203q-70 -72 -196 -72q-126 -1 -197 57t-83 164h66q29 -159 209 -159q200 0 200 212zM340 602v739l-219 -110
l-31 59l248 131h78v-819h-76z" />
    <glyph glyph-name="twofifths" unicode="&#x2156;" horiz-adv-x="1816" 
d="M516 0l725 1415h82l-725 -1415h-82zM1595 243q0 212 -196 212q-133 0 -207 -82h-59l36 442h443v-65h-383l-25 -299q76 65 202 65t194 -70t67 -202q0 -132 -71 -203q-70 -72 -196 -72q-126 -1 -197 57t-83 164h66q29 -159 209 -159q200 0 200 212zM143 604v60
q86 76 203 170q158 134 212 208t54 161t-48 133t-138 46q-168 0 -215 -168l-68 13q59 221 283 221q122 0 192 -65t70 -170t-61 -193t-228 -227l-143 -121h438l-16 -68h-535z" />
    <glyph glyph-name="threefifths" unicode="&#x2157;" horiz-adv-x="1816" 
d="M496 0l725 1415h82l-725 -1415h-82zM1595 243q0 212 -196 212q-133 0 -207 -82h-59l36 442h443v-65h-383l-25 -299q76 65 202 65t194 -70t67 -202q0 -132 -71 -203q-70 -72 -196 -72q-126 -1 -197 57t-83 164h66q29 -159 209 -159q200 0 200 212zM408 637q204 0 204 184
q0 84 -46 131t-128 47h-121v60h113q78 0 122 45t44 123t-48 119q-48 40 -137 40t-142 -38q-52 -39 -76 -123l-66 12q51 211 285 211q120 0 188 -57t68 -162q0 -137 -121 -193q139 -51 139 -215q0 -117 -73 -181t-203 -65q-130 0 -210 65q-79 65 -83 177h65q22 -180 226 -180
z" />
    <glyph glyph-name="fourfifths" unicode="&#x2158;" horiz-adv-x="1816" 
d="M504 0l725 1415h82l-725 -1415h-82zM1595 243q0 212 -196 212q-133 0 -207 -82h-59l36 442h443v-65h-383l-25 -299q76 65 202 65t194 -70t67 -202q0 -132 -71 -203q-70 -72 -196 -72q-126 -1 -197 57t-83 164h66q29 -159 209 -159q200 0 200 212zM549 885v442l-342 -442
h342zM549 602v221h-422v51l424 547h67v-536h105l-16 -62h-89v-221h-69z" />
    <glyph glyph-name="onesixth" unicode="&#x2159;" horiz-adv-x="1816" 
d="M428 0l725 1415h82l-725 -1415h-82zM1405 33q98 0 155 57q56 56 56 156t-51 155t-149 55t-160 -52q-60 -54 -60 -150t55 -159q56 -62 154 -62zM1427 778q-121 0 -181 -95t-64 -290q72 125 241 125q127 0 197 -73t70 -199t-78 -201q-78 -76 -209 -76q-289 0 -289 408
q0 225 82 344t234 119q198 0 237 -185l-63 -14q-34 137 -177 137zM340 602v739l-219 -110l-31 59l248 131h78v-819h-76z" />
    <glyph glyph-name="fivesixths" unicode="&#x215a;" horiz-adv-x="1816" 
d="M516 0l725 1415h82l-725 -1415h-82zM1405 33q98 0 155 57q56 56 56 156t-51 155t-149 55t-160 -52q-60 -54 -60 -150t55 -159q56 -62 154 -62zM1427 778q-121 0 -181 -95t-64 -290q72 125 241 125q127 0 197 -73t70 -199t-78 -201q-78 -76 -209 -76q-289 0 -289 408
q0 225 82 344t234 119q198 0 237 -185l-63 -14q-34 137 -177 137zM428 637q201 0 201 212t-197 212q-133 0 -207 -82h-59l37 442h442v-65h-383l-24 -299q76 65 202 65t193 -70t67 -201q0 -132 -70 -204t-197 -72q-127 -1 -197 57t-82 165h65q29 -160 209 -160z" />
    <glyph glyph-name="oneeighth" unicode="&#x215b;" horiz-adv-x="1816" 
d="M403 0l725 1415h82l-725 -1415h-82zM1593 609q0 81 -52 126t-146 45q-95 0 -147 -45t-52 -126t52 -125t146 -44t147 44q52 44 52 125zM1620 207q0 84 -58 128t-167 44t-167 -44t-58 -129t58 -130t167 -45t167 46t58 130zM1262 412q-138 44 -138 216q0 90 74 152t199 62
t197 -62t71 -168q-1 -72 -37 -124t-102 -74q80 -20 124 -74t44 -133q0 -113 -78 -175t-219 -62t-221 62t-80 175q0 74 44 128t122 77zM340 602v739l-219 -110l-31 59l248 131h78v-819h-76z" />
    <glyph glyph-name="threeeighths" unicode="&#x215c;" horiz-adv-x="1816" 
d="M504 0l725 1415h82l-725 -1415h-82zM1593 609q0 81 -52 126t-146 45q-95 0 -147 -45t-52 -126t52 -125t146 -44t147 44q52 44 52 125zM1620 207q0 84 -58 128t-167 44t-167 -44t-58 -129t58 -130t167 -45t167 46t58 130zM1262 412q-138 44 -138 216q0 90 74 152t199 62
t197 -62t71 -168q-1 -72 -37 -124t-102 -74q80 -20 124 -74t44 -133q0 -113 -78 -175t-219 -62t-221 62t-80 175q0 74 44 128t122 77zM408 637q204 0 204 184q0 84 -46 131t-128 47h-121v60h113q78 0 122 45t44 123t-48 119q-48 40 -137 40t-142 -38q-52 -39 -76 -123
l-66 12q51 211 285 211q120 0 188 -57t68 -162q0 -137 -121 -193q139 -51 139 -215q0 -117 -73 -181t-203 -65q-130 0 -210 65q-79 65 -83 177h65q22 -180 226 -180z" />
    <glyph glyph-name="fiveeighths" unicode="&#x215d;" horiz-adv-x="1816" 
d="M510 0l725 1415h82l-725 -1415h-82zM1593 609q0 81 -52 126t-146 45q-95 0 -147 -45t-52 -126t52 -125t146 -44t147 44q52 44 52 125zM1620 207q0 84 -58 128t-167 44t-167 -44t-58 -129t58 -130t167 -45t167 46t58 130zM1262 412q-138 44 -138 216q0 90 74 152t199 62
t197 -62t71 -168q-1 -72 -37 -124t-102 -74q80 -20 124 -74t44 -133q0 -113 -78 -175t-219 -62t-221 62t-80 175q0 74 44 128t122 77zM428 637q201 0 201 212t-197 212q-133 0 -207 -82h-59l37 442h442v-65h-383l-24 -299q76 65 202 65t193 -70t67 -201q0 -132 -70 -204
t-197 -72q-127 -1 -197 57t-82 165h65q29 -160 209 -160z" />
    <glyph glyph-name="seveneighths" unicode="&#x215e;" horiz-adv-x="1816" 
d="M412 0l725 1415h82l-725 -1415h-82zM1593 609q0 81 -52 126t-146 45q-95 0 -147 -45t-52 -126t52 -125t146 -44t147 44q52 44 52 125zM1620 207q0 84 -58 128t-167 44t-167 -44t-58 -129t58 -130t167 -45t167 46t58 130zM1262 412q-138 44 -138 216q0 90 74 152t199 62
t197 -62t71 -168q-1 -72 -37 -124t-102 -74q80 -20 124 -74t44 -133q0 -113 -78 -175t-219 -62t-221 62t-80 175q0 74 44 128t122 77zM115 1352v67h567v-57q-215 -377 -313 -760h-78q111 387 311 750h-487z" />
    <glyph glyph-name="partialdiff" unicode="&#x2202;" horiz-adv-x="1177" 
d="M504 33q111 0 206 58.5t153.5 162.5t58.5 242t-98.5 227.5t-260.5 89.5q-113 0 -202 -52t-140 -149.5t-51 -239.5t92 -240.5t242 -98.5zM625 1454q424 0 424 -603q0 -574 -186.5 -731t-365.5 -157t-293 115t-114 303q0 141 58.5 255t167 180.5t228.5 66.5t201.5 -32
t138 -95.5t79.5 -149.5q12 123 12 228q0 285 -87 417.5t-274 132.5q-125 0 -200.5 -61t-118.5 -197l-66 15q81 313 396 313z" />
    <glyph glyph-name="uni2206" unicode="&#x2206;" horiz-adv-x="1304" 
d="M649 1376l-497 -1300h997zM41 0l565 1462h90l568 -1462h-1223z" />
    <glyph glyph-name="product" unicode="&#x220f;" horiz-adv-x="1349" 
d="M1098 0v1386h-846v-1386h-80v1462h1006v-1462h-80z" />
    <glyph glyph-name="summation" unicode="&#x2211;" horiz-adv-x="1144" 
d="M82 -209v68l496 778l-492 754v71h997v-71h-911l490 -754l-492 -772h938l-21 -74h-1005z" />
    <glyph glyph-name="minus" unicode="&#x2212;" horiz-adv-x="1212" 
d="M168 659v74h876v-74h-876z" />
    <glyph glyph-name="uni2215" unicode="&#x2215;" horiz-adv-x="118" 
d="M-344 0l725 1415h82l-725 -1415h-82z" />
    <glyph glyph-name="uni2219" unicode="&#x2219;" horiz-adv-x="366" 
d="M139 637v209h86v-209h-86z" />
    <glyph glyph-name="radical" unicode="&#x221a;" horiz-adv-x="1130" 
d="M68 672v71h213l274 -661l502 1415h82l-537 -1497h-92l-283 672h-159z" />
    <glyph glyph-name="infinity" unicode="&#x221e;" horiz-adv-x="1216" 
d="M1077 700.5q0 120.5 -50 188t-138 67.5t-150.5 -66.5t-93.5 -191.5q67 -254 242 -254q90 0 140 68t50 188.5zM66 700.5q0 149.5 70.5 235.5t191.5 86q190 0 280 -231q90 231 283 231q123 0 191.5 -86t68.5 -235.5t-68.5 -235.5t-191.5 -86q-191 -1 -283 235
q-92 -236 -282 -235q-121 0 -190.5 86t-69.5 235.5zM330 956q-90 0 -140.5 -67.5t-50.5 -188t50.5 -188.5t138.5 -68t150 66.5t93 191.5q-67 254 -241 254z" />
    <glyph glyph-name="integral" unicode="&#x222b;" horiz-adv-x="606" 
d="M184 1239q0 115 58.5 177.5t165.5 62.5q66 0 122 -25l-22 -61q-47 18 -96 18q-150 0 -150 -168q0 -39 6 -82l148 -1089q6 -57 6 -78q0 -115 -58.5 -177.5t-164.5 -62.5q-61 0 -123 25l22 61q47 -18 97 -18q150 0 149 168q0 39 -6 82l-148 1089q-6 59 -6 78z" />
    <glyph glyph-name="approxequal" unicode="&#x2248;" horiz-adv-x="1212" 
d="M1092 1051q0 -143 -62 -223t-176 -78q-70 0 -128 30t-142 107q-84 75 -131 101t-99 26q-164 0 -164 -234h-69q0 143 61 222t176 79q70 -1 128 -31t142 -106t132 -102q47 -26 98 -25q164 0 164 234h70zM1092 571q0 -143 -62 -222t-176 -79q-70 0 -128 31t-142 107
t-131 102t-99 25q-164 0 -164 -234h-69q0 143 61 222t176 79q70 0 128 -31t142 -107t132 -100q47 -26 98 -26q164 0 164 233h70z" />
    <glyph glyph-name="notequal" unicode="&#x2260;" horiz-adv-x="1212" 
d="M168 430v74h283l231 387h-514v74h559l137 227h80l-137 -227h237v-74h-282l-232 -387h514v-74h-559l-135 -227h-80l136 227h-238z" />
    <glyph glyph-name="lessequal" unicode="&#x2264;" horiz-adv-x="1212" 
d="M160 664v59l901 453v-80l-807 -402l807 -397v-84zM160 0v72h901v-72h-901z" />
    <glyph glyph-name="greaterequal" unicode="&#x2265;" horiz-adv-x="1212" 
d="M152 213v80l806 401l-806 398v84l901 -451v-59zM152 0v72h901v-72h-901z" />
    <glyph glyph-name="lozenge" unicode="&#x25ca;" horiz-adv-x="1210" 
d="M1030 731l-426 660l-424 -660l424 -657zM563 0l-471 731l471 731h84l471 -731l-471 -731h-84z" />
    <glyph glyph-name="twosevenths" unicode="&#xf507;" horiz-adv-x="1816" 
d="M492 0l725 1415h81l-725 -1415h-81zM1100 745v68h567v-57q-215 -377 -313 -760h-78q111 389 311 749h-487zM143 604v60q86 76 203 170q158 134 212 208t54 161t-48 133t-138 46q-168 0 -215 -168l-68 13q59 221 283 221q122 0 192 -65t70 -170t-61 -193t-228 -227
l-143 -121h438l-16 -68h-535z" />
    <glyph glyph-name="threesevenths" unicode="&#xf508;" horiz-adv-x="1816" 
d="M463 0l725 1415h82l-725 -1415h-82zM1100 745v68h567v-57q-215 -377 -313 -760h-78q111 389 311 749h-487zM408 637q204 0 204 184q0 84 -46 131t-128 47h-121v60h113q78 0 122 45t44 123t-48 119q-48 40 -137 40t-142 -38q-52 -39 -76 -123l-66 12q51 211 285 211
q120 0 188 -57t68 -162q0 -137 -121 -193q139 -51 139 -215q0 -117 -73 -181t-203 -65q-130 0 -210 65q-79 65 -83 177h65q22 -180 226 -180z" />
    <glyph glyph-name="foursevenths" unicode="&#xf509;" horiz-adv-x="1816" 
d="M459 0l725 1415h82l-725 -1415h-82zM1100 745v68h567v-57q-215 -377 -313 -760h-78q111 389 311 749h-487zM549 885v442l-342 -442h342zM549 602v221h-422v51l424 547h67v-536h105l-16 -62h-89v-221h-69z" />
    <glyph glyph-name="fivesevenths" unicode="&#xf50a;" horiz-adv-x="1816" 
d="M467 0l725 1415h82l-725 -1415h-82zM1100 745v68h567v-57q-215 -377 -313 -760h-78q111 389 311 749h-487zM428 637q201 0 201 212t-197 212q-133 0 -207 -82h-59l37 442h442v-65h-383l-24 -299q76 65 202 65t193 -70t67 -201q0 -132 -70 -204t-197 -72q-127 -1 -197 57
t-82 165h65q29 -160 209 -160z" />
    <glyph glyph-name="sixsevenths" unicode="&#xf50b;" horiz-adv-x="1816" 
d="M471 0l725 1415h82l-725 -1415h-82zM1100 745v68h567v-57q-215 -377 -313 -760h-78q111 389 311 749h-487zM434 639q98 0 155 57q56 56 56 156t-51 156q-52 56 -150 55q-98 0 -158 -53q-60 -54 -60 -150t54 -158q56 -62 154 -63zM453 1124q127 0 197 -72t69 -199
q0 -126 -78 -202t-209 -76q-289 0 -289 408q0 225 82 344t234 119q96 0 157 -47t80 -137l-63 -15q-35 139 -176 137q-238 0 -246 -385q72 125 242 125z" />
    <glyph glyph-name="twoninths" unicode="&#xf50d;" horiz-adv-x="1816" 
d="M532 0l725 1415h82l-725 -1415h-82zM1599 554q0 95 -55 160q-55 64 -153 64q-99 0 -155 -58t-56 -158t51 -155t149 -55t158 54t61 148zM1378 31q125 0 178 93t54 296q-68 -129 -236 -129q-126 -1 -196 71t-70 200t77 203t217 75t209 -100t69 -324q-1 -447 -304 -447
q-112 1 -178 55t-76 150h68q25 -143 188 -143zM143 604v60q86 76 203 170q158 134 212 208t54 161t-48 133t-138 46q-168 0 -215 -168l-68 13q59 221 283 221q122 0 192 -65t70 -170t-61 -193t-228 -227l-143 -121h438l-16 -68h-535z" />
    <glyph glyph-name="fourninths" unicode="&#xf50e;" horiz-adv-x="1816" 
d="M504 0l725 1415h82l-725 -1415h-82zM1599 554q0 95 -55 160q-55 64 -153 64q-99 0 -155 -58t-56 -158t51 -155t149 -55t158 54t61 148zM1378 31q125 0 178 93t54 296q-68 -129 -236 -129q-126 -1 -196 71t-70 200t77 203t217 75t209 -100t69 -324q-1 -447 -304 -447
q-112 1 -178 55t-76 150h68q25 -143 188 -143zM549 885v442l-342 -442h342zM549 602v221h-422v51l424 547h67v-536h105l-16 -62h-89v-221h-69z" />
    <glyph glyph-name="fiveninths" unicode="&#xf50f;" horiz-adv-x="1816" 
d="M504 0l725 1415h82l-725 -1415h-82zM1599 554q0 95 -55 160q-55 64 -153 64q-99 0 -155 -58t-56 -158t51 -155t149 -55t158 54t61 148zM1378 31q125 0 178 93t54 296q-68 -129 -236 -129q-126 -1 -196 71t-70 200t77 203t217 75t209 -100t69 -324q-1 -447 -304 -447
q-112 1 -178 55t-76 150h68q25 -143 188 -143zM428 637q201 0 201 212t-197 212q-133 0 -207 -82h-59l37 442h442v-65h-383l-24 -299q76 65 202 65t193 -70t67 -201q0 -132 -70 -204t-197 -72q-127 -1 -197 57t-82 165h65q29 -160 209 -160z" />
    <glyph glyph-name="sevenninths" unicode="&#xf510;" horiz-adv-x="1816" 
d="M399 0l725 1415h82l-725 -1415h-82zM1599 554q0 95 -55 160q-55 64 -153 64q-99 0 -155 -58t-56 -158t51 -155t149 -55t158 54t61 148zM1378 31q125 0 178 93t54 296q-68 -129 -236 -129q-126 -1 -196 71t-70 200t77 203t217 75t209 -100t69 -324q-1 -447 -304 -447
q-112 1 -178 55t-76 150h68q25 -143 188 -143zM115 1352v67h567v-57q-215 -377 -313 -760h-78q111 387 311 750h-487z" />
    <glyph glyph-name="eightninths" unicode="&#xf511;" horiz-adv-x="1816" 
d="M512 0l725 1415h82l-725 -1415h-82zM1599 554q0 95 -55 160q-55 64 -153 64q-99 0 -155 -58t-56 -158t51 -155t149 -55t158 54t61 148zM1378 31q125 0 178 93t54 296q-68 -129 -236 -129q-126 -1 -196 71t-70 200t77 203t217 75t209 -100t69 -324q-1 -447 -304 -447
q-112 1 -178 55t-76 150h68q25 -143 188 -143zM422 1047q94 0 146 44t53 125q-1 82 -53 126t-146 44t-146 -45t-53 -125q0 -80 52 -125q53 -44 147 -44zM647 813q0 84 -58 128t-167 44t-167 -44t-58 -129t58 -130t167 -45t167 46t58 130zM721 813q0 -113 -78 -175t-219 -62
t-221 62t-80 175q0 74 44 128t122 77q-63 20 -101 74t-36 127q0 106 73 167q74 62 199 62t197 -62t71 -167q0 -72 -36 -124t-103 -75q80 -20 124 -74t44 -133z" />
    <glyph glyph-name="zero.numr" unicode="&#xf80a;" 
d="M422 891q126 0 192 94q66 95 66 275t-67 274t-191 94t-192 -94q-66 -94 -66 -274t66 -275q67 -94 192 -94zM423 823q-161 0 -249 115t-88 322q0 208 88 322t248 114t248 -115t88 -323t-87 -321q-87 -114 -248 -114z" />
    <glyph glyph-name="one.numr" unicode="&#xf80b;" 
d="M426 850v739l-219 -110l-31 59l248 131h78v-819h-76z" />
    <glyph glyph-name="two.numr" unicode="&#xf80c;" 
d="M143 852v59q86 76 203 170q158 133 212 208t54 162t-48 133t-138 46q-168 0 -215 -168l-68 13q59 221 283 221q122 0 192 -65t70 -170t-61 -193t-228 -228l-143 -120h438l-16 -68h-535z" />
    <glyph glyph-name="three.numr" unicode="&#xf80d;" 
d="M412 885q204 0 204 184q0 84 -46 131t-128 47h-120v60h112q78 0 122 45t44 123q0 79 -48 119t-137 40t-141 -39t-77 -122l-66 12q51 211 285 211q120 0 188 -58t68 -161q0 -137 -121 -193q139 -51 139 -215q0 -117 -73 -181t-203 -65q-130 0 -210 65q-79 65 -83 177h65
q22 -180 226 -180z" />
    <glyph glyph-name="four.numr" unicode="&#xf80e;" 
d="M535 1133v442l-342 -442h342zM535 850v221h-422v51l424 547h67v-536h105l-17 -62h-88v-221h-69z" />
    <glyph glyph-name="five.numr" unicode="&#xf80f;" 
d="M629 1097q0 212 -197 212q-133 0 -207 -82h-59l37 442h442v-65h-383l-24 -299q76 65 202 65t193 -70t67 -202t-70 -203q-70 -72 -197 -72q-127 -1 -197 57t-82 164h65q29 -159 209 -159q201 0 201 212z" />
    <glyph glyph-name="six.numr" unicode="&#xf810;" 
d="M436 887q98 0 155 57q56 56 56 156t-51 155t-149 55q-99 0 -159 -52q-60 -54 -60 -150t54 -158q56 -62 154 -63zM459 1632q-121 0 -181 -95t-65 -290q72 125 242 125q127 0 197 -73t69 -199q0 -126 -78 -201q-78 -76 -209 -76q-289 0 -289 408q0 225 82 344t234 119
q198 0 237 -185l-63 -14q-34 137 -176 137z" />
    <glyph glyph-name="seven.numr" unicode="&#xf811;" 
d="M131 1599v68h567v-57q-215 -377 -313 -760h-78q111 389 311 749h-487z" />
    <glyph glyph-name="eight.numr" unicode="&#xf812;" 
d="M422 1294q94 0 146 44t53 125q-1 81 -53 126t-146 45t-146 -45t-53 -126q0 -81 52 -125q53 -44 147 -44zM647 1061q0 84 -58 128t-167 44t-167 -44t-58 -129t58 -130t167 -45t167 46t58 130zM721 1061q0 -113 -78 -175t-219 -62t-221 62t-80 175q0 74 44 128t122 77
q-63 20 -101 73q-37 53 -36 127q0 106 73 168q74 62 199 62t197 -62t71 -168q0 -72 -36 -124t-103 -74q80 -20 124 -74t44 -133z" />
    <glyph glyph-name="nine.numr" unicode="&#xf813;" 
d="M618 1408q0 95 -55 160q-55 64 -153 64t-154 -58t-57 -158q0 -100 51 -155t149 -55q99 0 159 54t60 148zM397 885q125 0 178 93t54 296q-68 -129 -236 -129q-127 0 -197 72q-70 71 -69 199q0 128 77 203t217 75t209 -100q68 -100 68 -324q-1 -447 -303 -447
q-111 1 -177 55t-77 150h68q25 -143 188 -143z" />
    <glyph glyph-name="zero.dnom" unicode="&#xf814;" 
d="M422 -207q126 0 192 94q66 95 66 275t-67 274t-191 94t-192 -94q-66 -94 -66 -274t66 -275q67 -94 192 -94zM758 160q0 -208 -87 -320q-87 -114 -248 -114t-249 114t-88 322t88 322t248 114t248 -115t88 -323z" />
    <glyph glyph-name="one.dnom" unicode="&#xf815;" 
d="M426 -248v740l-219 -111l-31 59l248 131h78v-819h-76z" />
    <glyph glyph-name="two.dnom" unicode="&#xf816;" 
d="M143 -246v60q86 76 203 170q158 134 212 208t54 161t-48 133t-138 46q-168 0 -215 -167l-68 12q59 221 283 221q122 0 192 -64t70 -170t-61 -194t-228 -227l-143 -121h438l-16 -68h-535z" />
    <glyph glyph-name="three.dnom" unicode="&#xf817;" 
d="M412 -213q204 0 204 184q0 84 -46 131t-128 48h-120v59h112q78 0 122 45t44 123t-48 119t-137 41t-141 -39t-77 -123l-66 12q51 211 285 211q120 0 188 -57t68 -162q0 -137 -121 -193q139 -51 139 -215q0 -117 -73 -181t-203 -64t-210 64q-79 64 -83 177h65
q22 -180 226 -180z" />
    <glyph glyph-name="four.dnom" unicode="&#xf818;" 
d="M535 35v442l-342 -442h342zM535 -248v221h-422v52l424 546h67v-536h105l-17 -62h-88v-221h-69z" />
    <glyph glyph-name="five.dnom" unicode="&#xf819;" 
d="M629 -1q0 212 -197 212q-133 0 -207 -82h-59l37 442h442v-65h-383l-24 -299q76 65 202 65t193 -70t67 -201q0 -132 -70 -204q-70 -71 -197 -71t-197 57t-82 164h65q29 -160 209 -160q201 0 201 212z" />
    <glyph glyph-name="six.dnom" unicode="&#xf81a;" 
d="M647 2q0 100 -51 156t-149 55q-99 0 -159 -53q-60 -54 -60 -150t54 -158q56 -62 154 -63q98 0 155 57q56 56 56 156zM459 535q-121 1 -181 -95t-65 -290q72 125 242 124q127 0 197 -72t69 -199q0 -126 -78 -202t-209 -75q-289 0 -289 407q0 225 82 344t234 119
q96 0 157 -47t80 -137l-63 -15q-34 138 -176 138z" />
    <glyph glyph-name="seven.dnom" unicode="&#xf81b;" 
d="M131 502v67h567v-57q-215 -377 -313 -760h-78q111 387 311 750h-487z" />
    <glyph glyph-name="eight.dnom" unicode="&#xf81c;" 
d="M422 197q94 0 146 44t53 125q-1 81 -53 126t-146 45t-146 -45t-53 -126q0 -81 52 -125q53 -44 147 -44zM647 -37q0 84 -58 128t-167 44t-167 -44t-58 -129t58 -130t167 -45t167 46t58 130zM721 -37q0 -113 -78 -175t-219 -62t-221 62t-80 175q0 74 44 128t122 77
q-63 20 -101 74t-36 127q0 106 73 168q74 61 199 61t197 -61t71 -168q0 -72 -36 -124t-103 -75q80 -20 124 -74t44 -133z" />
    <glyph glyph-name="nine.dnom" unicode="&#xf81d;" 
d="M618 310q0 95 -55 160t-153 65q-98 -1 -154 -59t-57 -158q0 -100 51 -155q51 -54 149 -54t159 53q60 53 60 148zM397 -213q125 0 178 93t54 296q-68 -129 -236 -129q-127 0 -197 72q-70 71 -69 199q0 128 77 203t217 75t209 -100q68 -100 68 -324q-1 -448 -303 -446
q-111 0 -177 54t-77 150h68q25 -143 188 -143z" />
    <glyph glyph-name="fi" unicode="&#xfb01;" horiz-adv-x="1013" 
d="M205 0v981h-162v70h162v127q0 139 79 220t212 81q66 0 143 -23l-16 -65q-76 18 -121 18q-106 0 -162 -58t-57 -171v-129h305v-70h-305v-981h-78zM786 1274v188h82v-188h-82zM788 0v1051h78v-1051h-78z" />
    <glyph glyph-name="fl" unicode="&#xfb02;" horiz-adv-x="1017" 
d="M205 0v981h-162v70h162v127q0 139 79 220t212 81q66 0 143 -23l-16 -65q-76 18 -121 18q-106 0 -162 -58t-57 -171v-129h305v-70h-305v-981h-78zM793 0v1462h77v-1462h-77z" />
    <glyph glyph-name="uniFEFF" unicode="&#xfeff;" horiz-adv-x="0" 
 />
    <glyph glyph-name="zero.pnum" horiz-adv-x="1228" 
d="M614 37q416 0 416 672t-416 671q-416 0 -416 -672t416 -671zM612 -37q-244 1 -372 191t-127 552q0 362 130 556q129 192 373 192t372 -190t128 -552t-130 -556q-130 -193 -374 -193z" />
    <glyph glyph-name="one.pnum" horiz-adv-x="806" 
d="M461 0v1333l-373 -219l-35 60l408 241h80v-1415h-80z" />
    <glyph glyph-name="two.pnum" horiz-adv-x="1114" 
d="M102 0v74l330 299q197 180 292 290q95 111 132 197t37 187q0 161 -89 247t-245 86t-247 -72t-138 -233l-72 17q43 176 161 269q119 93 303 93t298 -108t113 -295q0 -117 -47 -219q-48 -102 -154 -222q-106 -119 -295 -288l-274 -246h780l-18 -76h-867z" />
    <glyph glyph-name="three.pnum" horiz-adv-x="1148" 
d="M426 705v73h182q139 0 221 82t82 225t-87 219t-249 76q-161 0 -251 -68t-134 -220l-71 14q37 170 153 259t308 89t303 -97t110 -270q0 -252 -227 -342q258 -78 258 -362q0 -199 -121 -309t-334 -111q-213 0 -337 108t-130 296h76q33 -332 389 -332q182 0 279 88
q96 88 96 251t-87 247t-247 84h-182z" />
    <glyph glyph-name="four.pnum" horiz-adv-x="1155" 
d="M795 457v854l-629 -854h629zM795 0v387h-713v70l706 958h84v-958h209l-18 -70h-191v-387h-77z" />
    <glyph glyph-name="five.pnum" horiz-adv-x="1116" 
d="M1006 430q0 -225 -116 -346t-322 -121t-322 99t-133 280h73q47 -307 369 -307q369 0 369 395t-359 395q-211 0 -350 -153h-74l58 743h727v-74h-662l-47 -585q154 139 361 139q206 0 317 -120t111 -345z" />
    <glyph glyph-name="six.pnum" horiz-adv-x="1181" 
d="M612 37q172 0 273 107q100 108 100 292t-92 284t-267 101q-175 0 -284 -100t-109 -279q-1 -179 103 -292t276 -113zM588 -37q-458 0 -457 719q0 368 132 570t384 202q152 0 248 -77t131 -224l-70 -18q-41 133 -112 189q-72 56 -197 56q-227 0 -333 -183t-105 -579
q47 133 159 205t269 72q201 0 315 -122t115 -337q0 -215 -127 -344q-128 -129 -352 -129z" />
    <glyph glyph-name="seven.pnum" horiz-adv-x="1087" 
d="M49 1341v74h930v-74q-360 -666 -543 -1341h-88q215 733 547 1341h-846z" />
    <glyph glyph-name="eight.pnum" horiz-adv-x="1208" 
d="M983 1064q0 146 -101 233q-102 87 -278 87t-276 -85t-100 -234t98 -230q100 -81 278 -81t279 82q100 82 100 228zM184 358q0 -156 110 -240t310 -85q200 1 310 87q112 86 112 241t-111 238t-313 83t-310 -84t-108 -240zM1110 356q0 -184 -135 -288t-372 -104t-370 104
q-133 106 -133 290q0 142 83 236t235 125q-127 33 -199 127t-72 225q0 175 124 279t335 104t334 -104t123 -281q-1 -129 -73 -222t-197 -124q149 -33 233 -130t84 -237z" />
    <glyph glyph-name="nine.pnum" horiz-adv-x="1163" 
d="M932 974q0 177 -102 292q-102 114 -272 114q-171 0 -271 -108q-101 -108 -101 -294q0 -188 94 -286t267 -98t279 102t106 278zM551 37q217 0 312 166t95 542v54q-44 -129 -156 -204t-261 -75q-207 0 -322 121t-115 337t126 346t346 130t340 -175t120 -515
q0 -412 -116 -606t-365 -195q-180 0 -286 83q-105 83 -124 239h78q45 -248 328 -248z" />
    <glyph glyph-name="hyphen.case" horiz-adv-x="796" 
d="M102 694v78h592v-78h-592z" />
    <glyph glyph-name="endash.case" horiz-adv-x="1024" 
d="M0 694v78h1024v-78h-1024z" />
    <glyph glyph-name="emdash.case" horiz-adv-x="2048" 
d="M0 694v78h2048v-78h-2048z" />
    <glyph glyph-name="parenleft.case" horiz-adv-x="468" 
d="M213 733q0 -483 219 -878h-74q-229 367 -229 879t229 878h74q-219 -396 -219 -879z" />
    <glyph glyph-name="parenright.case" horiz-adv-x="468" 
d="M256 734q0 482 -219 878h74q229 -367 229 -879t-229 -878h-74q219 397 219 879z" />
    <glyph glyph-name="slash.case" horiz-adv-x="587" 
d="M25 -18l458 1503h80l-459 -1503h-79z" />
    <glyph glyph-name="backslash.case" horiz-adv-x="587" 
d="M483 -18l-458 1503h79l459 -1503h-80z" />
    <glyph glyph-name="bracketleft.case" horiz-adv-x="518" 
d="M162 -145v1757h330v-68h-252v-1622h252v-67h-330z" />
    <glyph glyph-name="bracketright.case" horiz-adv-x="518" 
d="M27 -145v67h252v1622h-252v68h329v-1757h-329z" />
    <glyph glyph-name="braceleft.case" horiz-adv-x="532" 
d="M408 -145q-197 0 -197 202v492q0 78 -34 114t-107 35h-9v70h9q74 0 108 36t33 114v491q0 203 197 203h104v-68h-113q-111 0 -110 -125v-514q0 -147 -109 -172q109 -25 109 -172v-514q0 -125 110 -125h113v-67h-104z" />
    <glyph glyph-name="braceright.case" horiz-adv-x="532" 
d="M322 57q0 -202 -197 -202h-105v67h113q111 0 111 125v514q0 147 108 172q-109 25 -108 172v514q0 125 -111 125h-113v68h105q100 0 148 -50t49 -153v-491q0 -78 34 -114t107 -36h8v-70h-8q-74 0 -108 -36t-33 -113v-492z" />
    <glyph glyph-name="bullet.case" horiz-adv-x="632" 
d="M547 733q0 -98 -65 -164q-65 -65 -165 -65q-99 0 -165 64t-66 164q0 99 66 164t164 65t165 -65q66 -65 66 -163z" />
    <glyph glyph-name="guilsinglleft.case" horiz-adv-x="550" 
d="M385 276l-295 455l295 455h78l-285 -455l285 -455h-78z" />
    <glyph glyph-name="guilsinglright.case" horiz-adv-x="550" 
d="M88 276l285 455l-285 455h78l295 -455l-295 -455h-78z" />
    <glyph glyph-name="guillemotleft.case" horiz-adv-x="919" 
d="M385 276l-295 455l295 455h78l-285 -455l285 -455h-78zM754 276l-295 455l295 455h77l-284 -455l284 -455h-77z" />
    <glyph glyph-name="guillemotright.case" horiz-adv-x="919" 
d="M88 276l285 455l-285 455h78l295 -455l-295 -455h-78zM457 276l284 455l-284 455h78l294 -455l-294 -455h-78z" />
    <glyph glyph-name="at.case" horiz-adv-x="1869" 
d="M966 1118q-108 0 -196 -60t-141 -172t-53 -262t67 -231q68 -82 202 -82q134 1 227 99t128 286l12 70q6 35 7 82q-2 122 -73 196t-180 74zM1235 442q1 -120 155 -120q80 0 155 64t119 184q44 118 44 302t-86 344t-248 250t-389 90t-412 -110q-184 -111 -290 -318
t-107 -477q0 -358 200 -552t566 -193q188 0 318 55t221 176h84q-192 -301 -629 -301q-399 0 -620 214q-220 214 -220 603q0 275 112 495t317 349t453 129t426 -94t280 -270q101 -176 102 -410q0 -170 -50 -304t-146 -212t-204 -78q-110 0 -163 47t-54 131v8
q-119 -199 -333 -198q-160 0 -251 102t-91 266t58 290t166 203t230 77q239 0 305 -209l33 184h74l-121 -674q-4 -25 -4 -43z" />
    <glyph glyph-name="periodcentered.case" horiz-adv-x="366" 
d="M139 625v209h86v-209h-86z" />
    <glyph glyph-name="questiondown.case" horiz-adv-x="1007" 
d="M479 1253v209h92v-209h-92zM487 1065v18h78v-14q0 -109 -46 -189t-183 -214q-78 -78 -112 -149t-34 -161q0 -145 88 -227t236 -82q149 0 235 72q85 72 123 225l72 -12q-75 -355 -428 -357q-186 -1 -295 103t-108 282q0 100 38 180t134 175q96 96 136 148t53 95t13 107z
" />
    <glyph glyph-name="exclamdown.case" horiz-adv-x="405" 
d="M158 1253v209h92v-209h-92zM164 0l4 1083h72l4 -1083h-80z" />
    <glyph glyph-name="periodcentered.loclCAT" horiz-adv-x="366" 
d="M139 668v209h86v-209h-86z" />
    <glyph glyph-name="periodcentered.loclCAT.cap" horiz-adv-x="366" 
d="M139 709v209h86v-209h-86z" />
    <glyph glyph-name="i.locl" horiz-adv-x="372" 
d="M145 1274v188h82v-188h-82zM147 0v1051h78v-1051h-78z" />
    <glyph glyph-name="Eng.locl" horiz-adv-x="1398" 
d="M1227 0q0 -420 -432 -420q-170 0 -297 60l26 67q125 -53 288 -53q333 0 333 346v1001q0 215 -91 319.5t-294 104.5t-373 -149q-80 -72 -106.5 -143.5t-26.5 -198.5v-934h-82v1462h82v-239q86 135 220 205.5t300 70.5q223 0 338 -126t115 -372v-1001z" />
    <glyph glyph-name="uni0327.cap" horiz-adv-x="0" 
d="M-34 -356q151 0 151 66.5t-43 86t-144 19.5h-28l67 190l66 -6l-47 -127q207 -12 207 -147q-1 -148 -215 -148q-100 0 -138 8v66q51 -8 124 -8z" />
    <glyph glyph-name="uni0326.cap" horiz-adv-x="0" 
d="M-193 -420l146 275h94l-162 -275h-78z" />
    <glyph glyph-name="uni0328.cap" horiz-adv-x="0" 
d="M-92 -199q0 -86 104 -86q14 0 51 4v-67q-41 -4 -57 -4q-176 0 -176 143q0 108 129 217l82 -8q-133 -101 -133 -199z" />
    <glyph glyph-name="uni0328.round" horiz-adv-x="0" 
d="M-166 -203q0 107 129 209l76 -6q-129 -98 -129 -190q0 -86 106 -86q29 0 47 2v-64q-25 -4 -55 -4q-84 0 -129 36t-45 103z" />
    <glyph glyph-name="uni0328.round.cap" horiz-adv-x="0" 
d="M-92 -199q0 -86 104 -86q14 0 51 4v-67q-41 -4 -57 -4q-176 0 -176 143q0 108 129 217l82 -8q-133 -101 -133 -199z" />
    <glyph glyph-name="iogonek.dotless" horiz-adv-x="372" 
d="M147 1051h78v-1051q-129 -98 -129 -190q0 -86 107 -86q29 0 47 2v-64q-25 -4 -55 -4q-84 0 -129 36t-46 103q0 106 127 208v1046z" />
    <glyph glyph-name="acutecomb.cap" horiz-adv-x="0" 
d="M-104 1585l229 258h104l-247 -258h-86z" />
    <glyph glyph-name="uni030B.cap" horiz-adv-x="0" 
d="M111 1585l211 258h96l-228 -258h-79zM-193 1585l211 258h97l-228 -258h-80z" />
    <glyph glyph-name="gravecomb.cap" horiz-adv-x="0" 
d="M18 1585l-247 258h104l229 -258h-86z" />
    <glyph glyph-name="uni0302.cap" horiz-adv-x="0" 
d="M182 1585l-182 195l-182 -195h-84l227 258h78l227 -258h-84z" />
    <glyph glyph-name="tildecomb.cap" horiz-adv-x="0" 
d="M154 1665q108 0 112 125h68q0 -88 -48 -140.5t-126 -52.5q-78 -1 -146 49q-67 50 -100 65t-68 15q-108 0 -112 -124h-68q0 88 48 140t126 52t145 -49q68 -49 101 -64.5t68 -15.5z" />
    <glyph glyph-name="uni030C.cap" horiz-adv-x="0" 
d="M-39 1585l-227 258h84l182 -194l182 194h84l-227 -258h-78z" />
    <glyph glyph-name="uni0315.short" horiz-adv-x="0" 
d="M-33 1194l47 289h78l-59 -289h-66z" />
    <glyph glyph-name="uni0304.cap" horiz-adv-x="0" 
d="M-281 1634v72h562v-72h-562z" />
    <glyph glyph-name="uni0308.cap" horiz-adv-x="0" 
d="M123 1624v188h86v-188h-86zM-209 1624v188h86v-188h-86z" />
    <glyph glyph-name="uni0306.cap" horiz-adv-x="0" 
d="M242 1825q0 -115 -63.5 -177.5t-178.5 -62.5t-178.5 62.5t-63.5 177.5h70q0 -84 46 -130t128 -46t127 46t45 130h68z" />
    <glyph glyph-name="uni0307.cap" horiz-adv-x="0" 
d="M-43 1624v188h86v-188h-86z" />
    <glyph glyph-name="uni030A.cap" horiz-adv-x="0" 
d="M117 1687.5q0 59.5 -30 92t-87 32.5t-87 -32.5t-30 -92t31 -91t86 -31.5t86 31.5t31 91zM180 1689q0 -85 -49 -134.5t-131 -49.5t-131 49.5t-49 134.5t49 134t131 49t131 -49t49 -134z" />
    </font>
</defs>
</svg>
